%TF.GenerationSoftware,KiCad,Pcbnew,7.0.7*%
%TF.CreationDate,2023-09-11T21:43:25+02:00*%
%TF.ProjectId,usb-board,7573622d-626f-4617-9264-2e6b69636164,rev?*%
%TF.SameCoordinates,Original*%
%TF.FileFunction,Soldermask,Top*%
%TF.FilePolarity,Negative*%
%FSLAX46Y46*%
G04 Gerber Fmt 4.6, Leading zero omitted, Abs format (unit mm)*
G04 Created by KiCad (PCBNEW 7.0.7) date 2023-09-11 21:43:25*
%MOMM*%
%LPD*%
G01*
G04 APERTURE LIST*
G04 Aperture macros list*
%AMRoundRect*
0 Rectangle with rounded corners*
0 $1 Rounding radius*
0 $2 $3 $4 $5 $6 $7 $8 $9 X,Y pos of 4 corners*
0 Add a 4 corners polygon primitive as box body*
4,1,4,$2,$3,$4,$5,$6,$7,$8,$9,$2,$3,0*
0 Add four circle primitives for the rounded corners*
1,1,$1+$1,$2,$3*
1,1,$1+$1,$4,$5*
1,1,$1+$1,$6,$7*
1,1,$1+$1,$8,$9*
0 Add four rect primitives between the rounded corners*
20,1,$1+$1,$2,$3,$4,$5,0*
20,1,$1+$1,$4,$5,$6,$7,0*
20,1,$1+$1,$6,$7,$8,$9,0*
20,1,$1+$1,$8,$9,$2,$3,0*%
G04 Aperture macros list end*
%ADD10C,1.152000*%
%ADD11C,2.500000*%
%ADD12C,2.100000*%
%ADD13RoundRect,0.250000X-0.450000X0.262500X-0.450000X-0.262500X0.450000X-0.262500X0.450000X0.262500X0*%
%ADD14RoundRect,0.135000X-0.185000X0.135000X-0.185000X-0.135000X0.185000X-0.135000X0.185000X0.135000X0*%
%ADD15O,0.900000X1.700000*%
%ADD16O,0.900000X2.000000*%
%ADD17R,0.600000X1.160000*%
%ADD18R,0.300000X1.160000*%
%ADD19C,0.600000*%
%ADD20O,1.350000X1.350000*%
%ADD21R,1.350000X1.350000*%
%ADD22RoundRect,0.218750X-0.218750X-0.256250X0.218750X-0.256250X0.218750X0.256250X-0.218750X0.256250X0*%
%ADD23RoundRect,0.218750X0.218750X0.256250X-0.218750X0.256250X-0.218750X-0.256250X0.218750X-0.256250X0*%
%ADD24RoundRect,0.250000X0.650000X-0.325000X0.650000X0.325000X-0.650000X0.325000X-0.650000X-0.325000X0*%
G04 APERTURE END LIST*
D10*
%TO.C,H6*%
X87900000Y-98400000D03*
%TD*%
%TO.C,H5*%
X112150000Y-98450000D03*
%TD*%
D11*
%TO.C,H4*%
X112000000Y-95000000D03*
%TD*%
%TO.C,H3*%
X88000000Y-95000000D03*
%TD*%
D12*
%TO.C,H2*%
X90500000Y-100000000D03*
%TD*%
%TO.C,H1*%
X109500000Y-100000000D03*
%TD*%
D13*
%TO.C,R3*%
X94650000Y-99887500D03*
X94650000Y-101712500D03*
%TD*%
D14*
%TO.C,R2*%
X103700000Y-100690000D03*
X103700000Y-101710000D03*
%TD*%
%TO.C,R1*%
X96300000Y-100690000D03*
X96300000Y-101710000D03*
%TD*%
D15*
%TO.C,J2*%
X104320000Y-108400000D03*
D16*
X104320000Y-104230000D03*
D15*
X95680000Y-108400000D03*
D16*
X95680000Y-104230000D03*
D17*
X96800000Y-103650000D03*
X97600000Y-103650000D03*
D18*
X98250000Y-103650000D03*
X99250000Y-103650000D03*
X100750000Y-103650000D03*
X101750000Y-103650000D03*
D17*
X102400000Y-103650000D03*
X103200000Y-103650000D03*
X103200000Y-103650000D03*
X102400000Y-103650000D03*
D18*
X101250000Y-103650000D03*
X100250000Y-103650000D03*
X99750000Y-103650000D03*
X98750000Y-103650000D03*
D17*
X97600000Y-103650000D03*
X96800000Y-103650000D03*
D19*
X102890000Y-104710000D03*
X97110000Y-104710000D03*
%TD*%
D20*
%TO.C,J1*%
X95000000Y-94000000D03*
X97000000Y-94000000D03*
X99000000Y-94000000D03*
X101000000Y-94000000D03*
X103000000Y-94000000D03*
D21*
X105000000Y-94000000D03*
%TD*%
D22*
%TO.C,D2*%
X100700002Y-101800000D03*
X102275002Y-101800000D03*
%TD*%
D23*
%TO.C,D1*%
X97725000Y-101800000D03*
X99300000Y-101800000D03*
%TD*%
D24*
%TO.C,C1*%
X105500000Y-101400000D03*
X105500000Y-98450000D03*
%TD*%
M02*
