%TF.GenerationSoftware,KiCad,Pcbnew,7.0.7*%
%TF.CreationDate,2023-09-11T21:43:25+02:00*%
%TF.ProjectId,usb-board,7573622d-626f-4617-9264-2e6b69636164,rev?*%
%TF.SameCoordinates,Original*%
%TF.FileFunction,Legend,Top*%
%TF.FilePolarity,Positive*%
%FSLAX46Y46*%
G04 Gerber Fmt 4.6, Leading zero omitted, Abs format (unit mm)*
G04 Created by KiCad (PCBNEW 7.0.7) date 2023-09-11 21:43:25*
%MOMM*%
%LPD*%
G01*
G04 APERTURE LIST*
%ADD10C,0.150000*%
%ADD11C,0.120000*%
G04 APERTURE END LIST*
D10*
G36*
X93246725Y-95199633D02*
G01*
X93257470Y-95199791D01*
X93268050Y-95200053D01*
X93278467Y-95200420D01*
X93288719Y-95200893D01*
X93298808Y-95201470D01*
X93308732Y-95202152D01*
X93318492Y-95202939D01*
X93332825Y-95204317D01*
X93346788Y-95205930D01*
X93360382Y-95207780D01*
X93373607Y-95209866D01*
X93386463Y-95212188D01*
X93390666Y-95213014D01*
X93403021Y-95215633D01*
X93414989Y-95218544D01*
X93426571Y-95221747D01*
X93437767Y-95225242D01*
X93448576Y-95229028D01*
X93458999Y-95233107D01*
X93469035Y-95237478D01*
X93478685Y-95242140D01*
X93487949Y-95247095D01*
X93496826Y-95252341D01*
X93502529Y-95256001D01*
X93510760Y-95261705D01*
X93518601Y-95267736D01*
X93526050Y-95274093D01*
X93535375Y-95283077D01*
X93544006Y-95292640D01*
X93551942Y-95302784D01*
X93559183Y-95313508D01*
X93564158Y-95321931D01*
X93568743Y-95330681D01*
X93570184Y-95333670D01*
X93574244Y-95342887D01*
X93577904Y-95352495D01*
X93581165Y-95362493D01*
X93584026Y-95372883D01*
X93586488Y-95383662D01*
X93588551Y-95394833D01*
X93590215Y-95406394D01*
X93591479Y-95418346D01*
X93592344Y-95430689D01*
X93592810Y-95443422D01*
X93592899Y-95452128D01*
X93592689Y-95462607D01*
X93592059Y-95472919D01*
X93591010Y-95483063D01*
X93589541Y-95493039D01*
X93587652Y-95502846D01*
X93585343Y-95512486D01*
X93582614Y-95521958D01*
X93579466Y-95531263D01*
X93574976Y-95542573D01*
X93569901Y-95553454D01*
X93564242Y-95563906D01*
X93557999Y-95573929D01*
X93551171Y-95583522D01*
X93543759Y-95592686D01*
X93540631Y-95596231D01*
X93532401Y-95604712D01*
X93523587Y-95612751D01*
X93514188Y-95620349D01*
X93506248Y-95626110D01*
X93497934Y-95631588D01*
X93489246Y-95636784D01*
X93480185Y-95641697D01*
X93477861Y-95642882D01*
X93468362Y-95647385D01*
X93458550Y-95651491D01*
X93448426Y-95655201D01*
X93437988Y-95658513D01*
X93427237Y-95661429D01*
X93416174Y-95663948D01*
X93404798Y-95666069D01*
X93393108Y-95667794D01*
X93393108Y-95674633D01*
X93404863Y-95676820D01*
X93416434Y-95679228D01*
X93427821Y-95681857D01*
X93439026Y-95684708D01*
X93450047Y-95687780D01*
X93460886Y-95691074D01*
X93471541Y-95694589D01*
X93482013Y-95698325D01*
X93492282Y-95702355D01*
X93502209Y-95706751D01*
X93511791Y-95711514D01*
X93521031Y-95716643D01*
X93529926Y-95722138D01*
X93538479Y-95728000D01*
X93546688Y-95734228D01*
X93554553Y-95740823D01*
X93562102Y-95747822D01*
X93569238Y-95755264D01*
X93575962Y-95763148D01*
X93582274Y-95771475D01*
X93588174Y-95780245D01*
X93593662Y-95789458D01*
X93598738Y-95799113D01*
X93603401Y-95809211D01*
X93607580Y-95819748D01*
X93611202Y-95830842D01*
X93614266Y-95842493D01*
X93616774Y-95854701D01*
X93618724Y-95867467D01*
X93619821Y-95877406D01*
X93620604Y-95887660D01*
X93621074Y-95898226D01*
X93621231Y-95909106D01*
X93621034Y-95921846D01*
X93620441Y-95934328D01*
X93619454Y-95946553D01*
X93618071Y-95958520D01*
X93616294Y-95970229D01*
X93614121Y-95981681D01*
X93611554Y-95992875D01*
X93608592Y-96003811D01*
X93605234Y-96014490D01*
X93601482Y-96024912D01*
X93598761Y-96031716D01*
X93594417Y-96041647D01*
X93589722Y-96051291D01*
X93584674Y-96060647D01*
X93579275Y-96069715D01*
X93573523Y-96078496D01*
X93567420Y-96086989D01*
X93560964Y-96095194D01*
X93554156Y-96103111D01*
X93546996Y-96110741D01*
X93539484Y-96118084D01*
X93534281Y-96122819D01*
X93526197Y-96129673D01*
X93517791Y-96136223D01*
X93509064Y-96142467D01*
X93500014Y-96148407D01*
X93490643Y-96154042D01*
X93480949Y-96159372D01*
X93470933Y-96164398D01*
X93460596Y-96169118D01*
X93449936Y-96173534D01*
X93438954Y-96177645D01*
X93431454Y-96180216D01*
X93420003Y-96183751D01*
X93408273Y-96186939D01*
X93396264Y-96189779D01*
X93383976Y-96192272D01*
X93371409Y-96194416D01*
X93358562Y-96196213D01*
X93345437Y-96197662D01*
X93332032Y-96198763D01*
X93318349Y-96199517D01*
X93304386Y-96199922D01*
X93294923Y-96200000D01*
X92961775Y-96200000D01*
X92961775Y-95730809D01*
X93089515Y-95730809D01*
X93089515Y-96090823D01*
X93272208Y-96090823D01*
X93283348Y-96090703D01*
X93294144Y-96090342D01*
X93304597Y-96089741D01*
X93314706Y-96088900D01*
X93324472Y-96087818D01*
X93336959Y-96086001D01*
X93348836Y-96083757D01*
X93360101Y-96081086D01*
X93370756Y-96077987D01*
X93373325Y-96077145D01*
X93383331Y-96073558D01*
X93392834Y-96069635D01*
X93401832Y-96065376D01*
X93412373Y-96059580D01*
X93422126Y-96053259D01*
X93431091Y-96046414D01*
X93439270Y-96039043D01*
X93446786Y-96031096D01*
X93453610Y-96022672D01*
X93459742Y-96013770D01*
X93465183Y-96004392D01*
X93469932Y-95994536D01*
X93473989Y-95984203D01*
X93475418Y-95979937D01*
X93478585Y-95969002D01*
X93481214Y-95957721D01*
X93483307Y-95946095D01*
X93484864Y-95934122D01*
X93485722Y-95924295D01*
X93486237Y-95914247D01*
X93486409Y-95903977D01*
X93486129Y-95892219D01*
X93485288Y-95880760D01*
X93483887Y-95869598D01*
X93481925Y-95858735D01*
X93479403Y-95848170D01*
X93476320Y-95837903D01*
X93474930Y-95833879D01*
X93471061Y-95824037D01*
X93466477Y-95814660D01*
X93461177Y-95805747D01*
X93455161Y-95797300D01*
X93448430Y-95789318D01*
X93440984Y-95781801D01*
X93437805Y-95778925D01*
X93429379Y-95772007D01*
X93420131Y-95765601D01*
X93410059Y-95759709D01*
X93399165Y-95754329D01*
X93389857Y-95750394D01*
X93380022Y-95746788D01*
X93369661Y-95743510D01*
X93358712Y-95740533D01*
X93347114Y-95737953D01*
X93334868Y-95735770D01*
X93321973Y-95733984D01*
X93311875Y-95732905D01*
X93301413Y-95732049D01*
X93290586Y-95731417D01*
X93279394Y-95731007D01*
X93267837Y-95730821D01*
X93263904Y-95730809D01*
X93089515Y-95730809D01*
X92961775Y-95730809D01*
X92961775Y-95308757D01*
X93089515Y-95308757D01*
X93089515Y-95621632D01*
X93257065Y-95621632D01*
X93267710Y-95621544D01*
X93278028Y-95621280D01*
X93288020Y-95620840D01*
X93300835Y-95619980D01*
X93313070Y-95618806D01*
X93324725Y-95617320D01*
X93335800Y-95615520D01*
X93346295Y-95613408D01*
X93353785Y-95611618D01*
X93363376Y-95608901D01*
X93374687Y-95605075D01*
X93385248Y-95600773D01*
X93395057Y-95595993D01*
X93404115Y-95590736D01*
X93412421Y-95585002D01*
X93417044Y-95581332D01*
X93425631Y-95573461D01*
X93433256Y-95564869D01*
X93439919Y-95555555D01*
X93445621Y-95545520D01*
X93449637Y-95536607D01*
X93451727Y-95531018D01*
X93454823Y-95521315D01*
X93457394Y-95511135D01*
X93459440Y-95500478D01*
X93460962Y-95489344D01*
X93461959Y-95477733D01*
X93462431Y-95465645D01*
X93462473Y-95460676D01*
X93462266Y-95450690D01*
X93461179Y-95436387D01*
X93459161Y-95422895D01*
X93456211Y-95410215D01*
X93452329Y-95398346D01*
X93447515Y-95387288D01*
X93441770Y-95377042D01*
X93435093Y-95367608D01*
X93427485Y-95358985D01*
X93418944Y-95351173D01*
X93409473Y-95344173D01*
X93399042Y-95337843D01*
X93387534Y-95332137D01*
X93374948Y-95327053D01*
X93361284Y-95322591D01*
X93351577Y-95319963D01*
X93341390Y-95317611D01*
X93330724Y-95315536D01*
X93319580Y-95313738D01*
X93307956Y-95312216D01*
X93295854Y-95310971D01*
X93283273Y-95310002D01*
X93270212Y-95309311D01*
X93256673Y-95308896D01*
X93242655Y-95308757D01*
X93089515Y-95308757D01*
X92961775Y-95308757D01*
X92961775Y-95199581D01*
X93235816Y-95199581D01*
X93246725Y-95199633D01*
G37*
G36*
X93938991Y-96200000D02*
G01*
X93813939Y-96200000D01*
X93813939Y-95137055D01*
X93938991Y-95137055D01*
X93938991Y-96200000D01*
G37*
G36*
X94300471Y-96200000D02*
G01*
X94175418Y-96200000D01*
X94175418Y-95449685D01*
X94300471Y-95449685D01*
X94300471Y-96200000D01*
G37*
G36*
X94165893Y-95246231D02*
G01*
X94166221Y-95236328D01*
X94167554Y-95224947D01*
X94169913Y-95214675D01*
X94174098Y-95203813D01*
X94179759Y-95194548D01*
X94186898Y-95186880D01*
X94195118Y-95180572D01*
X94204025Y-95175569D01*
X94213619Y-95171871D01*
X94223900Y-95169478D01*
X94234868Y-95168390D01*
X94238677Y-95168318D01*
X94248886Y-95168837D01*
X94258691Y-95170396D01*
X94267254Y-95172714D01*
X94276813Y-95176767D01*
X94285343Y-95182331D01*
X94290457Y-95186880D01*
X94297383Y-95194746D01*
X94302707Y-95203223D01*
X94306332Y-95211060D01*
X94309424Y-95220792D01*
X94311227Y-95230529D01*
X94312103Y-95241194D01*
X94312194Y-95246231D01*
X94311663Y-95258107D01*
X94310071Y-95269005D01*
X94307418Y-95278925D01*
X94302833Y-95289538D01*
X94296719Y-95298743D01*
X94290457Y-95305338D01*
X94282087Y-95311895D01*
X94273100Y-95317096D01*
X94263494Y-95320940D01*
X94253271Y-95323427D01*
X94242429Y-95324558D01*
X94238677Y-95324633D01*
X94227480Y-95323963D01*
X94216970Y-95321954D01*
X94207147Y-95318605D01*
X94198011Y-95313917D01*
X94189561Y-95307889D01*
X94186898Y-95305582D01*
X94179759Y-95297617D01*
X94174098Y-95288191D01*
X94169913Y-95277306D01*
X94167554Y-95267120D01*
X94166221Y-95255921D01*
X94165893Y-95246231D01*
G37*
G36*
X95008286Y-96200000D02*
G01*
X95008286Y-95715910D01*
X95008145Y-95704941D01*
X95007721Y-95694321D01*
X95007015Y-95684051D01*
X95006027Y-95674129D01*
X95004015Y-95659902D01*
X95001367Y-95646460D01*
X94998084Y-95633804D01*
X94994166Y-95621934D01*
X94989612Y-95610849D01*
X94984423Y-95600550D01*
X94978598Y-95591037D01*
X94972138Y-95582309D01*
X94965044Y-95574365D01*
X94957223Y-95567203D01*
X94948677Y-95560821D01*
X94939406Y-95555221D01*
X94929409Y-95550403D01*
X94918686Y-95546366D01*
X94907238Y-95543110D01*
X94895064Y-95540635D01*
X94882165Y-95538942D01*
X94868540Y-95538031D01*
X94859054Y-95537857D01*
X94848813Y-95538014D01*
X94838881Y-95538484D01*
X94826119Y-95539598D01*
X94813907Y-95541270D01*
X94802245Y-95543499D01*
X94791132Y-95546284D01*
X94780568Y-95549628D01*
X94770554Y-95553528D01*
X94765753Y-95555687D01*
X94756522Y-95560411D01*
X94747756Y-95565670D01*
X94739455Y-95571463D01*
X94731620Y-95577791D01*
X94724251Y-95584653D01*
X94717347Y-95592049D01*
X94710909Y-95599979D01*
X94704937Y-95608443D01*
X94699399Y-95617423D01*
X94694266Y-95626899D01*
X94689538Y-95636871D01*
X94685214Y-95647339D01*
X94681295Y-95658303D01*
X94677780Y-95669764D01*
X94674670Y-95681720D01*
X94671964Y-95694173D01*
X94670174Y-95703785D01*
X94668561Y-95713664D01*
X94667123Y-95723809D01*
X94665862Y-95734221D01*
X94664776Y-95744898D01*
X94663867Y-95755842D01*
X94663133Y-95767052D01*
X94662576Y-95778528D01*
X94662194Y-95790270D01*
X94661989Y-95802279D01*
X94661950Y-95810432D01*
X94661950Y-96200000D01*
X94536898Y-96200000D01*
X94536898Y-95449685D01*
X94638747Y-95449685D01*
X94656577Y-95549337D01*
X94663415Y-95549337D01*
X94668919Y-95540298D01*
X94674745Y-95531653D01*
X94680893Y-95523401D01*
X94687363Y-95515543D01*
X94694154Y-95508079D01*
X94701268Y-95501008D01*
X94704204Y-95498290D01*
X94711785Y-95491676D01*
X94719569Y-95485419D01*
X94727556Y-95479521D01*
X94735746Y-95473980D01*
X94744138Y-95468797D01*
X94752733Y-95463972D01*
X94756228Y-95462142D01*
X94765089Y-95457823D01*
X94774117Y-95453875D01*
X94783311Y-95450296D01*
X94792673Y-95447087D01*
X94802202Y-95444247D01*
X94811898Y-95441777D01*
X94815823Y-95440893D01*
X94825775Y-95438923D01*
X94835787Y-95437286D01*
X94845858Y-95435984D01*
X94855989Y-95435016D01*
X94866180Y-95434381D01*
X94876430Y-95434081D01*
X94880547Y-95434054D01*
X94896027Y-95434310D01*
X94911020Y-95435077D01*
X94925527Y-95436355D01*
X94939547Y-95438145D01*
X94953081Y-95440446D01*
X94966128Y-95443259D01*
X94978688Y-95446583D01*
X94990762Y-95450418D01*
X95002349Y-95454765D01*
X95013450Y-95459623D01*
X95024064Y-95464993D01*
X95034191Y-95470874D01*
X95043832Y-95477266D01*
X95052987Y-95484170D01*
X95061654Y-95491585D01*
X95069836Y-95499511D01*
X95077525Y-95507999D01*
X95084719Y-95517100D01*
X95091417Y-95526814D01*
X95097618Y-95537140D01*
X95103323Y-95548078D01*
X95108533Y-95559629D01*
X95113246Y-95571793D01*
X95117463Y-95584569D01*
X95121184Y-95597957D01*
X95124409Y-95611958D01*
X95127137Y-95626572D01*
X95129370Y-95641798D01*
X95131106Y-95657636D01*
X95132346Y-95674087D01*
X95133091Y-95691151D01*
X95133339Y-95708827D01*
X95133339Y-96200000D01*
X95008286Y-96200000D01*
G37*
G36*
X95476011Y-95812630D02*
G01*
X95568824Y-95696371D01*
X95770080Y-95449685D01*
X95914916Y-95449685D01*
X95639410Y-95774284D01*
X95933478Y-96200000D01*
X95789863Y-96200000D01*
X95559054Y-95855617D01*
X95484316Y-95911549D01*
X95484316Y-96200000D01*
X95360484Y-96200000D01*
X95360484Y-95137055D01*
X95484316Y-95137055D01*
X95484316Y-95624808D01*
X95473325Y-95812630D01*
X95476011Y-95812630D01*
G37*
G36*
X96337855Y-95434269D02*
G01*
X96350225Y-95434913D01*
X96362355Y-95435986D01*
X96374245Y-95437489D01*
X96385894Y-95439421D01*
X96397303Y-95441782D01*
X96408471Y-95444573D01*
X96419399Y-95447793D01*
X96430087Y-95451442D01*
X96440534Y-95455521D01*
X96447365Y-95458478D01*
X96457429Y-95463236D01*
X96467197Y-95468350D01*
X96476669Y-95473820D01*
X96485845Y-95479647D01*
X96494724Y-95485830D01*
X96503307Y-95492370D01*
X96511594Y-95499266D01*
X96519585Y-95506518D01*
X96527279Y-95514126D01*
X96534677Y-95522091D01*
X96539445Y-95527599D01*
X96546388Y-95536093D01*
X96553023Y-95544904D01*
X96559349Y-95554033D01*
X96565365Y-95563480D01*
X96571072Y-95573244D01*
X96576470Y-95583326D01*
X96581559Y-95593726D01*
X96586339Y-95604444D01*
X96590810Y-95615479D01*
X96594972Y-95626832D01*
X96597575Y-95634577D01*
X96601197Y-95646373D01*
X96604464Y-95658405D01*
X96607374Y-95670673D01*
X96609928Y-95683178D01*
X96612125Y-95695918D01*
X96613966Y-95708895D01*
X96615451Y-95722108D01*
X96616580Y-95735556D01*
X96617352Y-95749241D01*
X96617767Y-95763163D01*
X96617847Y-95772575D01*
X96617847Y-95850488D01*
X96142550Y-95850488D01*
X96143169Y-95866673D01*
X96144172Y-95882316D01*
X96145558Y-95897417D01*
X96147328Y-95911976D01*
X96149481Y-95925993D01*
X96152018Y-95939469D01*
X96154939Y-95952402D01*
X96158243Y-95964794D01*
X96161930Y-95976643D01*
X96166001Y-95987951D01*
X96170456Y-95998717D01*
X96175294Y-96008941D01*
X96180516Y-96018622D01*
X96186121Y-96027762D01*
X96192109Y-96036361D01*
X96198482Y-96044417D01*
X96205246Y-96051929D01*
X96212411Y-96058957D01*
X96219977Y-96065500D01*
X96227943Y-96071558D01*
X96236311Y-96077132D01*
X96245079Y-96082221D01*
X96254247Y-96086825D01*
X96263817Y-96090945D01*
X96273787Y-96094580D01*
X96284158Y-96097730D01*
X96294929Y-96100396D01*
X96306101Y-96102577D01*
X96317674Y-96104273D01*
X96329648Y-96105485D01*
X96342022Y-96106212D01*
X96354797Y-96106454D01*
X96365587Y-96106371D01*
X96376125Y-96106121D01*
X96386414Y-96105703D01*
X96396452Y-96105119D01*
X96406240Y-96104367D01*
X96417654Y-96103245D01*
X96419521Y-96103035D01*
X96430710Y-96101641D01*
X96441744Y-96100024D01*
X96452623Y-96098184D01*
X96463348Y-96096120D01*
X96473918Y-96093833D01*
X96477407Y-96093021D01*
X96487780Y-96090437D01*
X96498015Y-96087629D01*
X96508113Y-96084598D01*
X96518073Y-96081343D01*
X96527897Y-96077866D01*
X96531140Y-96076657D01*
X96540966Y-96072816D01*
X96550844Y-96068803D01*
X96560773Y-96064618D01*
X96570754Y-96060262D01*
X96580786Y-96055734D01*
X96584141Y-96054187D01*
X96584141Y-96165561D01*
X96573909Y-96170304D01*
X96563728Y-96174823D01*
X96553598Y-96179120D01*
X96543521Y-96183193D01*
X96533494Y-96187042D01*
X96530163Y-96188276D01*
X96520220Y-96191728D01*
X96510174Y-96194939D01*
X96500024Y-96197910D01*
X96489772Y-96200641D01*
X96479416Y-96203131D01*
X96475942Y-96203907D01*
X96465432Y-96206160D01*
X96454784Y-96208155D01*
X96443999Y-96209892D01*
X96433077Y-96211372D01*
X96422017Y-96212594D01*
X96418300Y-96212944D01*
X96406937Y-96213857D01*
X96397179Y-96214474D01*
X96387159Y-96214959D01*
X96376877Y-96215314D01*
X96366332Y-96215537D01*
X96355525Y-96215628D01*
X96353332Y-96215631D01*
X96339295Y-96215408D01*
X96325485Y-96214738D01*
X96311903Y-96213622D01*
X96298549Y-96212059D01*
X96285422Y-96210050D01*
X96272523Y-96207594D01*
X96259851Y-96204692D01*
X96247407Y-96201343D01*
X96235190Y-96197548D01*
X96223201Y-96193306D01*
X96215334Y-96190230D01*
X96203763Y-96185263D01*
X96192497Y-96179889D01*
X96181535Y-96174106D01*
X96170878Y-96167916D01*
X96160527Y-96161318D01*
X96150479Y-96154312D01*
X96140737Y-96146898D01*
X96131300Y-96139076D01*
X96122167Y-96130847D01*
X96113339Y-96122209D01*
X96107623Y-96116224D01*
X96099375Y-96106861D01*
X96091483Y-96097090D01*
X96083948Y-96086911D01*
X96076769Y-96076325D01*
X96069946Y-96065330D01*
X96063479Y-96053928D01*
X96057369Y-96042118D01*
X96051615Y-96029900D01*
X96046218Y-96017274D01*
X96041177Y-96004240D01*
X96038014Y-95995324D01*
X96033606Y-95981588D01*
X96029631Y-95967492D01*
X96027222Y-95957894D01*
X96025005Y-95948136D01*
X96022982Y-95938217D01*
X96021151Y-95928138D01*
X96019513Y-95917899D01*
X96018067Y-95907500D01*
X96016815Y-95896940D01*
X96015755Y-95886220D01*
X96014887Y-95875340D01*
X96014213Y-95864299D01*
X96013731Y-95853098D01*
X96013442Y-95841737D01*
X96013346Y-95830216D01*
X96013434Y-95818631D01*
X96013701Y-95807200D01*
X96014144Y-95795924D01*
X96014765Y-95784802D01*
X96015564Y-95773835D01*
X96016540Y-95763022D01*
X96017693Y-95752364D01*
X96018413Y-95746685D01*
X96145237Y-95746685D01*
X96483269Y-95746685D01*
X96483124Y-95735148D01*
X96482689Y-95723863D01*
X96481964Y-95712830D01*
X96480949Y-95702049D01*
X96479643Y-95691520D01*
X96478048Y-95681243D01*
X96476163Y-95671218D01*
X96473988Y-95661444D01*
X96471507Y-95651972D01*
X96467956Y-95640626D01*
X96463903Y-95629828D01*
X96459350Y-95619579D01*
X96454296Y-95609878D01*
X96448740Y-95600726D01*
X96445167Y-95595498D01*
X96438799Y-95587184D01*
X96431905Y-95579489D01*
X96424487Y-95572415D01*
X96416545Y-95565960D01*
X96408077Y-95560126D01*
X96399085Y-95554912D01*
X96395341Y-95553000D01*
X96385579Y-95548638D01*
X96375220Y-95545015D01*
X96364265Y-95542131D01*
X96352713Y-95539987D01*
X96340566Y-95538582D01*
X96330418Y-95537990D01*
X96322557Y-95537857D01*
X96308144Y-95538327D01*
X96294307Y-95539738D01*
X96281045Y-95542088D01*
X96268358Y-95545379D01*
X96256247Y-95549610D01*
X96244710Y-95554781D01*
X96233750Y-95560893D01*
X96223364Y-95567945D01*
X96213554Y-95575937D01*
X96204319Y-95584869D01*
X96198482Y-95591346D01*
X96190253Y-95601759D01*
X96182694Y-95613031D01*
X96175804Y-95625161D01*
X96169585Y-95638149D01*
X96165810Y-95647286D01*
X96162334Y-95656803D01*
X96159155Y-95666703D01*
X96156273Y-95676984D01*
X96153690Y-95687647D01*
X96151404Y-95698691D01*
X96149416Y-95710117D01*
X96147725Y-95721925D01*
X96146332Y-95734114D01*
X96145237Y-95746685D01*
X96018413Y-95746685D01*
X96019024Y-95741861D01*
X96020533Y-95731512D01*
X96022219Y-95721318D01*
X96024082Y-95711278D01*
X96026123Y-95701393D01*
X96028341Y-95691662D01*
X96030736Y-95682086D01*
X96034663Y-95668012D01*
X96036060Y-95663398D01*
X96040480Y-95649811D01*
X96045222Y-95636619D01*
X96050286Y-95623822D01*
X96055672Y-95611420D01*
X96061380Y-95599413D01*
X96067410Y-95587801D01*
X96073762Y-95576584D01*
X96080436Y-95565762D01*
X96087432Y-95555335D01*
X96094750Y-95545303D01*
X96099808Y-95538834D01*
X96107689Y-95529434D01*
X96115853Y-95520467D01*
X96124301Y-95511934D01*
X96133032Y-95503835D01*
X96142047Y-95496169D01*
X96151345Y-95488937D01*
X96160926Y-95482139D01*
X96170791Y-95475774D01*
X96180939Y-95469842D01*
X96191370Y-95464345D01*
X96198482Y-95460921D01*
X96209349Y-95456119D01*
X96220426Y-95451790D01*
X96231714Y-95447933D01*
X96243212Y-95444549D01*
X96254921Y-95441636D01*
X96266840Y-95439196D01*
X96278970Y-95437229D01*
X96291309Y-95435733D01*
X96303859Y-95434710D01*
X96316620Y-95434159D01*
X96325244Y-95434054D01*
X96337855Y-95434269D01*
G37*
G36*
X96919975Y-95812630D02*
G01*
X97012787Y-95696371D01*
X97214043Y-95449685D01*
X97358879Y-95449685D01*
X97083374Y-95774284D01*
X97377442Y-96200000D01*
X97233827Y-96200000D01*
X97003018Y-95855617D01*
X96928279Y-95911549D01*
X96928279Y-96200000D01*
X96804448Y-96200000D01*
X96804448Y-95137055D01*
X96928279Y-95137055D01*
X96928279Y-95624808D01*
X96917288Y-95812630D01*
X96919975Y-95812630D01*
G37*
G36*
X97755317Y-95434178D02*
G01*
X97767958Y-95434552D01*
X97780264Y-95435174D01*
X97792235Y-95436046D01*
X97803871Y-95437167D01*
X97815173Y-95438536D01*
X97826139Y-95440155D01*
X97836771Y-95442022D01*
X97847068Y-95444139D01*
X97857030Y-95446505D01*
X97863485Y-95448220D01*
X97872943Y-95450976D01*
X97885060Y-95455106D01*
X97896612Y-95459754D01*
X97907599Y-95464921D01*
X97918021Y-95470607D01*
X97927879Y-95476813D01*
X97937172Y-95483537D01*
X97945900Y-95490780D01*
X97947993Y-95492672D01*
X97956091Y-95500568D01*
X97963655Y-95508991D01*
X97970685Y-95517940D01*
X97977180Y-95527416D01*
X97983141Y-95537418D01*
X97988568Y-95547947D01*
X97993461Y-95559003D01*
X97997819Y-95570586D01*
X98001711Y-95582683D01*
X98004290Y-95592167D01*
X98006577Y-95602003D01*
X98008572Y-95612191D01*
X98010275Y-95622732D01*
X98011686Y-95633624D01*
X98012805Y-95644868D01*
X98013633Y-95656464D01*
X98014168Y-95668413D01*
X98014411Y-95680713D01*
X98014427Y-95684891D01*
X98014427Y-96200000D01*
X97924302Y-96200000D01*
X97898900Y-96097418D01*
X97893283Y-96097418D01*
X97886255Y-96106902D01*
X97879215Y-96115969D01*
X97872163Y-96124619D01*
X97865099Y-96132852D01*
X97858024Y-96140667D01*
X97850936Y-96148065D01*
X97848098Y-96150907D01*
X97840898Y-96157662D01*
X97831991Y-96165264D01*
X97822792Y-96172316D01*
X97813301Y-96178819D01*
X97803518Y-96184772D01*
X97798517Y-96187543D01*
X97788310Y-96192681D01*
X97777657Y-96197286D01*
X97768438Y-96200717D01*
X97758909Y-96203779D01*
X97749070Y-96206470D01*
X97738921Y-96208792D01*
X97728361Y-96210762D01*
X97717288Y-96212399D01*
X97705702Y-96213701D01*
X97693603Y-96214669D01*
X97683555Y-96215204D01*
X97673178Y-96215524D01*
X97662473Y-96215631D01*
X97650746Y-96215421D01*
X97639255Y-96214791D01*
X97628001Y-96213742D01*
X97616983Y-96212273D01*
X97606202Y-96210384D01*
X97595658Y-96208075D01*
X97585350Y-96205346D01*
X97575279Y-96202198D01*
X97565490Y-96198614D01*
X97556029Y-96194580D01*
X97546897Y-96190096D01*
X97538093Y-96185162D01*
X97529617Y-96179777D01*
X97521469Y-96173942D01*
X97513649Y-96167656D01*
X97506158Y-96160921D01*
X97499086Y-96153735D01*
X97492404Y-96146098D01*
X97486111Y-96138011D01*
X97480207Y-96129474D01*
X97474693Y-96120487D01*
X97469567Y-96111049D01*
X97464831Y-96101161D01*
X97460484Y-96090823D01*
X97456649Y-96080015D01*
X97453325Y-96068719D01*
X97450513Y-96056934D01*
X97448211Y-96044661D01*
X97446421Y-96031899D01*
X97445415Y-96022008D01*
X97444696Y-96011841D01*
X97444264Y-96001400D01*
X97444120Y-95990683D01*
X97574057Y-95990683D01*
X97574349Y-96002115D01*
X97575225Y-96012963D01*
X97576685Y-96023227D01*
X97578729Y-96032907D01*
X97582362Y-96044905D01*
X97587033Y-96055866D01*
X97592742Y-96065788D01*
X97599489Y-96074672D01*
X97607274Y-96082519D01*
X97615964Y-96089388D01*
X97625303Y-96095341D01*
X97635290Y-96100379D01*
X97645926Y-96104501D01*
X97657211Y-96107706D01*
X97669144Y-96109996D01*
X97681727Y-96111370D01*
X97691589Y-96111799D01*
X97694958Y-96111828D01*
X97705361Y-96111626D01*
X97715566Y-96111019D01*
X97725572Y-96110007D01*
X97735380Y-96108592D01*
X97744989Y-96106771D01*
X97756722Y-96103927D01*
X97768145Y-96100451D01*
X97772627Y-96098883D01*
X97783538Y-96094516D01*
X97793984Y-96089504D01*
X97803965Y-96083849D01*
X97813480Y-96077550D01*
X97822531Y-96070607D01*
X97831116Y-96063019D01*
X97834420Y-96059804D01*
X97842307Y-96051233D01*
X97849633Y-96042006D01*
X97856399Y-96032123D01*
X97862604Y-96021584D01*
X97867164Y-96012681D01*
X97871366Y-96003357D01*
X97875209Y-95993614D01*
X97878701Y-95983444D01*
X97881727Y-95972838D01*
X97884288Y-95961798D01*
X97886383Y-95950322D01*
X97888013Y-95938412D01*
X97889176Y-95926066D01*
X97889875Y-95913285D01*
X97890093Y-95903414D01*
X97890108Y-95900069D01*
X97890108Y-95832658D01*
X97791922Y-95837543D01*
X97780510Y-95838120D01*
X97769445Y-95838843D01*
X97758728Y-95839711D01*
X97748359Y-95840726D01*
X97738338Y-95841887D01*
X97725517Y-95843661D01*
X97713314Y-95845695D01*
X97701730Y-95847989D01*
X97690764Y-95850542D01*
X97688119Y-95851221D01*
X97677880Y-95854045D01*
X97668167Y-95857144D01*
X97658981Y-95860517D01*
X97648240Y-95865121D01*
X97638321Y-95870153D01*
X97629225Y-95875615D01*
X97620952Y-95881507D01*
X97612099Y-95889034D01*
X97604225Y-95897146D01*
X97597330Y-95905841D01*
X97591414Y-95915121D01*
X97586477Y-95924984D01*
X97585048Y-95928401D01*
X97581313Y-95939000D01*
X97578351Y-95950097D01*
X97576472Y-95959725D01*
X97575131Y-95969699D01*
X97574326Y-95980018D01*
X97574057Y-95990683D01*
X97444120Y-95990683D01*
X97444430Y-95976812D01*
X97445361Y-95963347D01*
X97446911Y-95950289D01*
X97449081Y-95937637D01*
X97451872Y-95925391D01*
X97455283Y-95913552D01*
X97459314Y-95902120D01*
X97463965Y-95891093D01*
X97469236Y-95880474D01*
X97475128Y-95870260D01*
X97481639Y-95860453D01*
X97488771Y-95851053D01*
X97496523Y-95842059D01*
X97504895Y-95833471D01*
X97513887Y-95825290D01*
X97523499Y-95817515D01*
X97533744Y-95810159D01*
X97544634Y-95803235D01*
X97556169Y-95796741D01*
X97568348Y-95790679D01*
X97581173Y-95785048D01*
X97594643Y-95779848D01*
X97608757Y-95775080D01*
X97623517Y-95770743D01*
X97638921Y-95766837D01*
X97654970Y-95763362D01*
X97671665Y-95760318D01*
X97689004Y-95757706D01*
X97706988Y-95755525D01*
X97725618Y-95753775D01*
X97744892Y-95752457D01*
X97754771Y-95751959D01*
X97764811Y-95751570D01*
X97891329Y-95746685D01*
X97891329Y-95699546D01*
X97891172Y-95688303D01*
X97890703Y-95677534D01*
X97889921Y-95667237D01*
X97888825Y-95657414D01*
X97887016Y-95645801D01*
X97884718Y-95634926D01*
X97881931Y-95624792D01*
X97881315Y-95622854D01*
X97877971Y-95613458D01*
X97873391Y-95602971D01*
X97868194Y-95593343D01*
X97862378Y-95584573D01*
X97855943Y-95576662D01*
X97852494Y-95573028D01*
X97845124Y-95566353D01*
X97837118Y-95560434D01*
X97828477Y-95555271D01*
X97819201Y-95550863D01*
X97809289Y-95547211D01*
X97805844Y-95546161D01*
X97795128Y-95543339D01*
X97783862Y-95541101D01*
X97774054Y-95539682D01*
X97763865Y-95538668D01*
X97753294Y-95538060D01*
X97742341Y-95537857D01*
X97731737Y-95538003D01*
X97721266Y-95538441D01*
X97710929Y-95539171D01*
X97700724Y-95540193D01*
X97690653Y-95541506D01*
X97680714Y-95543112D01*
X97670909Y-95545010D01*
X97661237Y-95547199D01*
X97651698Y-95549681D01*
X97642292Y-95552454D01*
X97636095Y-95554466D01*
X97623883Y-95558667D01*
X97611793Y-95563090D01*
X97599825Y-95567735D01*
X97587979Y-95572601D01*
X97576256Y-95577688D01*
X97564654Y-95582996D01*
X97553175Y-95588526D01*
X97541817Y-95594277D01*
X97497854Y-95500000D01*
X97507482Y-95494941D01*
X97517317Y-95490025D01*
X97527357Y-95485250D01*
X97537604Y-95480617D01*
X97548057Y-95476125D01*
X97558716Y-95471775D01*
X97569581Y-95467567D01*
X97580652Y-95463500D01*
X97591929Y-95459576D01*
X97603412Y-95455792D01*
X97611182Y-95453349D01*
X97622960Y-95449901D01*
X97634844Y-95446792D01*
X97646836Y-95444022D01*
X97658936Y-95441591D01*
X97671142Y-95439500D01*
X97683456Y-95437747D01*
X97695878Y-95436334D01*
X97708406Y-95435260D01*
X97721042Y-95434525D01*
X97733786Y-95434129D01*
X97742341Y-95434054D01*
X97755317Y-95434178D01*
G37*
G36*
X98469696Y-96111828D02*
G01*
X98480142Y-96111626D01*
X98490715Y-96111082D01*
X98497295Y-96110607D01*
X98507898Y-96109541D01*
X98518212Y-96108361D01*
X98527337Y-96107187D01*
X98537802Y-96105470D01*
X98547579Y-96103615D01*
X98553715Y-96102302D01*
X98563232Y-96100045D01*
X98572034Y-96097418D01*
X98572034Y-96193405D01*
X98562542Y-96197298D01*
X98552666Y-96200671D01*
X98549319Y-96201709D01*
X98539569Y-96204448D01*
X98529127Y-96206957D01*
X98519033Y-96209036D01*
X98508662Y-96210878D01*
X98498005Y-96212433D01*
X98488169Y-96213588D01*
X98484839Y-96213921D01*
X98474868Y-96214748D01*
X98465012Y-96215304D01*
X98454198Y-96215604D01*
X98449912Y-96215631D01*
X98439326Y-96215459D01*
X98428938Y-96214944D01*
X98418748Y-96214085D01*
X98408757Y-96212883D01*
X98398965Y-96211338D01*
X98389371Y-96209449D01*
X98377657Y-96206604D01*
X98370778Y-96204640D01*
X98359650Y-96200818D01*
X98349010Y-96196220D01*
X98338860Y-96190848D01*
X98329199Y-96184700D01*
X98320027Y-96177777D01*
X98311344Y-96170079D01*
X98308007Y-96166782D01*
X98300038Y-96157922D01*
X98294058Y-96150163D01*
X98288429Y-96141809D01*
X98283151Y-96132860D01*
X98278224Y-96123315D01*
X98273649Y-96113175D01*
X98269424Y-96102440D01*
X98266486Y-96093998D01*
X98262937Y-96082149D01*
X98259861Y-96069559D01*
X98257864Y-96059630D01*
X98256134Y-96049285D01*
X98254670Y-96038524D01*
X98253472Y-96027347D01*
X98252541Y-96015752D01*
X98251875Y-96003742D01*
X98251476Y-95991315D01*
X98251343Y-95978471D01*
X98251343Y-95539567D01*
X98144853Y-95539567D01*
X98144853Y-95486078D01*
X98251343Y-95434542D01*
X98304832Y-95276517D01*
X98376884Y-95276517D01*
X98376884Y-95449685D01*
X98566660Y-95449685D01*
X98566660Y-95539567D01*
X98376884Y-95539567D01*
X98376884Y-95977739D01*
X98377073Y-95989951D01*
X98377639Y-96001584D01*
X98378584Y-96012637D01*
X98379906Y-96023110D01*
X98381606Y-96033004D01*
X98384461Y-96045295D01*
X98387987Y-96056555D01*
X98392185Y-96066784D01*
X98397055Y-96075984D01*
X98398377Y-96078122D01*
X98404246Y-96086022D01*
X98412807Y-96094416D01*
X98422727Y-96101163D01*
X98431642Y-96105376D01*
X98441427Y-96108536D01*
X98452082Y-96110643D01*
X98463607Y-96111696D01*
X98469696Y-96111828D01*
G37*
G36*
X99159926Y-96200000D02*
G01*
X98652390Y-96200000D01*
X98652390Y-96118178D01*
X99020464Y-95539567D01*
X98674860Y-95539567D01*
X98674860Y-95449685D01*
X99147470Y-95449685D01*
X99147470Y-95545673D01*
X98787700Y-96110118D01*
X99159926Y-96110118D01*
X99159926Y-96200000D01*
G37*
G36*
X99614617Y-95434269D02*
G01*
X99626987Y-95434913D01*
X99639117Y-95435986D01*
X99651007Y-95437489D01*
X99662656Y-95439421D01*
X99674065Y-95441782D01*
X99685233Y-95444573D01*
X99696161Y-95447793D01*
X99706849Y-95451442D01*
X99717296Y-95455521D01*
X99724127Y-95458478D01*
X99734191Y-95463236D01*
X99743960Y-95468350D01*
X99753431Y-95473820D01*
X99762607Y-95479647D01*
X99771486Y-95485830D01*
X99780069Y-95492370D01*
X99788356Y-95499266D01*
X99796347Y-95506518D01*
X99804041Y-95514126D01*
X99811439Y-95522091D01*
X99816207Y-95527599D01*
X99823151Y-95536093D01*
X99829785Y-95544904D01*
X99836111Y-95554033D01*
X99842127Y-95563480D01*
X99847834Y-95573244D01*
X99853232Y-95583326D01*
X99858321Y-95593726D01*
X99863101Y-95604444D01*
X99867572Y-95615479D01*
X99871734Y-95626832D01*
X99874337Y-95634577D01*
X99877959Y-95646373D01*
X99881226Y-95658405D01*
X99884136Y-95670673D01*
X99886690Y-95683178D01*
X99888887Y-95695918D01*
X99890728Y-95708895D01*
X99892213Y-95722108D01*
X99893342Y-95735556D01*
X99894114Y-95749241D01*
X99894530Y-95763163D01*
X99894609Y-95772575D01*
X99894609Y-95850488D01*
X99419312Y-95850488D01*
X99419931Y-95866673D01*
X99420934Y-95882316D01*
X99422320Y-95897417D01*
X99424090Y-95911976D01*
X99426243Y-95925993D01*
X99428780Y-95939469D01*
X99431701Y-95952402D01*
X99435005Y-95964794D01*
X99438692Y-95976643D01*
X99442763Y-95987951D01*
X99447218Y-95998717D01*
X99452056Y-96008941D01*
X99457278Y-96018622D01*
X99462883Y-96027762D01*
X99468871Y-96036361D01*
X99475244Y-96044417D01*
X99482008Y-96051929D01*
X99489173Y-96058957D01*
X99496739Y-96065500D01*
X99504706Y-96071558D01*
X99513073Y-96077132D01*
X99521841Y-96082221D01*
X99531009Y-96086825D01*
X99540579Y-96090945D01*
X99550549Y-96094580D01*
X99560920Y-96097730D01*
X99571691Y-96100396D01*
X99582863Y-96102577D01*
X99594436Y-96104273D01*
X99606410Y-96105485D01*
X99618784Y-96106212D01*
X99631559Y-96106454D01*
X99642349Y-96106371D01*
X99652887Y-96106121D01*
X99663176Y-96105703D01*
X99673214Y-96105119D01*
X99683002Y-96104367D01*
X99694416Y-96103245D01*
X99696284Y-96103035D01*
X99707472Y-96101641D01*
X99718506Y-96100024D01*
X99729385Y-96098184D01*
X99740110Y-96096120D01*
X99750680Y-96093833D01*
X99754169Y-96093021D01*
X99764542Y-96090437D01*
X99774777Y-96087629D01*
X99784875Y-96084598D01*
X99794836Y-96081343D01*
X99804659Y-96077866D01*
X99807903Y-96076657D01*
X99817729Y-96072816D01*
X99827606Y-96068803D01*
X99837535Y-96064618D01*
X99847516Y-96060262D01*
X99857548Y-96055734D01*
X99860903Y-96054187D01*
X99860903Y-96165561D01*
X99850671Y-96170304D01*
X99840490Y-96174823D01*
X99830360Y-96179120D01*
X99820283Y-96183193D01*
X99810256Y-96187042D01*
X99806926Y-96188276D01*
X99796982Y-96191728D01*
X99786936Y-96194939D01*
X99776786Y-96197910D01*
X99766534Y-96200641D01*
X99756178Y-96203131D01*
X99752704Y-96203907D01*
X99742194Y-96206160D01*
X99731546Y-96208155D01*
X99720761Y-96209892D01*
X99709839Y-96211372D01*
X99698779Y-96212594D01*
X99695062Y-96212944D01*
X99683699Y-96213857D01*
X99673942Y-96214474D01*
X99663921Y-96214959D01*
X99653639Y-96215314D01*
X99643094Y-96215537D01*
X99632287Y-96215628D01*
X99630094Y-96215631D01*
X99616057Y-96215408D01*
X99602247Y-96214738D01*
X99588665Y-96213622D01*
X99575311Y-96212059D01*
X99562184Y-96210050D01*
X99549285Y-96207594D01*
X99536613Y-96204692D01*
X99524169Y-96201343D01*
X99511952Y-96197548D01*
X99499963Y-96193306D01*
X99492096Y-96190230D01*
X99480525Y-96185263D01*
X99469259Y-96179889D01*
X99458297Y-96174106D01*
X99447640Y-96167916D01*
X99437289Y-96161318D01*
X99427241Y-96154312D01*
X99417499Y-96146898D01*
X99408062Y-96139076D01*
X99398929Y-96130847D01*
X99390101Y-96122209D01*
X99384385Y-96116224D01*
X99376137Y-96106861D01*
X99368245Y-96097090D01*
X99360710Y-96086911D01*
X99353531Y-96076325D01*
X99346708Y-96065330D01*
X99340241Y-96053928D01*
X99334131Y-96042118D01*
X99328377Y-96029900D01*
X99322980Y-96017274D01*
X99317939Y-96004240D01*
X99314776Y-95995324D01*
X99310368Y-95981588D01*
X99306393Y-95967492D01*
X99303984Y-95957894D01*
X99301767Y-95948136D01*
X99299744Y-95938217D01*
X99297913Y-95928138D01*
X99296275Y-95917899D01*
X99294829Y-95907500D01*
X99293577Y-95896940D01*
X99292517Y-95886220D01*
X99291649Y-95875340D01*
X99290975Y-95864299D01*
X99290493Y-95853098D01*
X99290204Y-95841737D01*
X99290108Y-95830216D01*
X99290196Y-95818631D01*
X99290463Y-95807200D01*
X99290906Y-95795924D01*
X99291527Y-95784802D01*
X99292326Y-95773835D01*
X99293302Y-95763022D01*
X99294455Y-95752364D01*
X99295175Y-95746685D01*
X99421999Y-95746685D01*
X99760031Y-95746685D01*
X99759886Y-95735148D01*
X99759451Y-95723863D01*
X99758726Y-95712830D01*
X99757711Y-95702049D01*
X99756405Y-95691520D01*
X99754810Y-95681243D01*
X99752925Y-95671218D01*
X99750750Y-95661444D01*
X99748269Y-95651972D01*
X99744718Y-95640626D01*
X99740665Y-95629828D01*
X99736112Y-95619579D01*
X99731058Y-95609878D01*
X99725503Y-95600726D01*
X99721929Y-95595498D01*
X99715561Y-95587184D01*
X99708667Y-95579489D01*
X99701249Y-95572415D01*
X99693307Y-95565960D01*
X99684839Y-95560126D01*
X99675847Y-95554912D01*
X99672103Y-95553000D01*
X99662341Y-95548638D01*
X99651982Y-95545015D01*
X99641027Y-95542131D01*
X99629475Y-95539987D01*
X99617328Y-95538582D01*
X99607180Y-95537990D01*
X99599319Y-95537857D01*
X99584906Y-95538327D01*
X99571069Y-95539738D01*
X99557807Y-95542088D01*
X99545120Y-95545379D01*
X99533009Y-95549610D01*
X99521472Y-95554781D01*
X99510512Y-95560893D01*
X99500126Y-95567945D01*
X99490316Y-95575937D01*
X99481081Y-95584869D01*
X99475244Y-95591346D01*
X99467015Y-95601759D01*
X99459456Y-95613031D01*
X99452566Y-95625161D01*
X99446347Y-95638149D01*
X99442572Y-95647286D01*
X99439096Y-95656803D01*
X99435917Y-95666703D01*
X99433036Y-95676984D01*
X99430452Y-95687647D01*
X99428166Y-95698691D01*
X99426178Y-95710117D01*
X99424487Y-95721925D01*
X99423094Y-95734114D01*
X99421999Y-95746685D01*
X99295175Y-95746685D01*
X99295786Y-95741861D01*
X99297295Y-95731512D01*
X99298981Y-95721318D01*
X99300844Y-95711278D01*
X99302885Y-95701393D01*
X99305103Y-95691662D01*
X99307499Y-95682086D01*
X99311425Y-95668012D01*
X99312822Y-95663398D01*
X99317242Y-95649811D01*
X99321984Y-95636619D01*
X99327048Y-95623822D01*
X99332434Y-95611420D01*
X99338142Y-95599413D01*
X99344172Y-95587801D01*
X99350524Y-95576584D01*
X99357198Y-95565762D01*
X99364194Y-95555335D01*
X99371512Y-95545303D01*
X99376570Y-95538834D01*
X99384451Y-95529434D01*
X99392615Y-95520467D01*
X99401063Y-95511934D01*
X99409794Y-95503835D01*
X99418809Y-95496169D01*
X99428107Y-95488937D01*
X99437688Y-95482139D01*
X99447553Y-95475774D01*
X99457701Y-95469842D01*
X99468132Y-95464345D01*
X99475244Y-95460921D01*
X99486111Y-95456119D01*
X99497188Y-95451790D01*
X99508476Y-95447933D01*
X99519975Y-95444549D01*
X99531683Y-95441636D01*
X99543602Y-95439196D01*
X99555732Y-95437229D01*
X99568071Y-95435733D01*
X99580621Y-95434710D01*
X99593382Y-95434159D01*
X99602006Y-95434054D01*
X99614617Y-95434269D01*
G37*
G36*
X101180547Y-95199581D02*
G01*
X101180547Y-95848534D01*
X101180348Y-95863092D01*
X101179749Y-95877457D01*
X101178751Y-95891628D01*
X101177353Y-95905607D01*
X101175556Y-95919392D01*
X101173360Y-95932984D01*
X101170765Y-95946383D01*
X101167770Y-95959588D01*
X101164376Y-95972601D01*
X101160583Y-95985420D01*
X101157833Y-95993859D01*
X101153372Y-96006252D01*
X101148508Y-96018336D01*
X101143240Y-96030111D01*
X101137568Y-96041577D01*
X101131493Y-96052734D01*
X101125014Y-96063582D01*
X101118132Y-96074121D01*
X101110846Y-96084351D01*
X101103157Y-96094271D01*
X101095064Y-96103882D01*
X101089445Y-96110118D01*
X101080675Y-96119182D01*
X101071493Y-96127872D01*
X101061899Y-96136189D01*
X101051892Y-96144133D01*
X101041474Y-96151703D01*
X101030643Y-96158899D01*
X101019400Y-96165722D01*
X101007745Y-96172171D01*
X100995678Y-96178247D01*
X100983199Y-96183949D01*
X100974651Y-96187543D01*
X100961522Y-96192563D01*
X100947963Y-96197089D01*
X100933976Y-96201121D01*
X100924412Y-96203535D01*
X100914657Y-96205729D01*
X100904712Y-96207704D01*
X100894576Y-96209459D01*
X100884249Y-96210995D01*
X100873732Y-96212312D01*
X100863023Y-96213409D01*
X100852124Y-96214287D01*
X100841034Y-96214945D01*
X100829753Y-96215384D01*
X100818281Y-96215604D01*
X100812473Y-96215631D01*
X100801563Y-96215528D01*
X100790812Y-96215219D01*
X100780222Y-96214704D01*
X100769792Y-96213982D01*
X100759522Y-96213055D01*
X100749413Y-96211922D01*
X100739464Y-96210582D01*
X100729675Y-96209036D01*
X100720046Y-96207285D01*
X100705904Y-96204271D01*
X100692123Y-96200793D01*
X100678702Y-96196852D01*
X100665641Y-96192447D01*
X100657135Y-96189253D01*
X100644686Y-96184112D01*
X100632620Y-96178580D01*
X100620936Y-96172657D01*
X100609633Y-96166344D01*
X100598713Y-96159640D01*
X100588175Y-96152545D01*
X100578020Y-96145059D01*
X100568246Y-96137183D01*
X100558854Y-96128916D01*
X100549845Y-96120259D01*
X100544050Y-96114270D01*
X100535682Y-96104985D01*
X100527704Y-96095357D01*
X100520117Y-96085385D01*
X100512921Y-96075069D01*
X100506115Y-96064410D01*
X100499700Y-96053408D01*
X100493676Y-96042062D01*
X100488043Y-96030373D01*
X100482800Y-96018340D01*
X100477947Y-96005964D01*
X100474930Y-95997522D01*
X100470783Y-95984610D01*
X100467044Y-95971427D01*
X100463713Y-95957974D01*
X100460790Y-95944251D01*
X100458275Y-95930256D01*
X100456168Y-95915992D01*
X100454468Y-95901457D01*
X100453562Y-95891616D01*
X100452837Y-95881656D01*
X100452293Y-95871575D01*
X100451931Y-95861374D01*
X100451749Y-95851053D01*
X100451727Y-95845847D01*
X100451727Y-95201046D01*
X100579954Y-95201046D01*
X100579954Y-95851953D01*
X100580186Y-95866702D01*
X100580882Y-95881030D01*
X100582041Y-95894935D01*
X100583664Y-95908419D01*
X100585750Y-95921482D01*
X100588300Y-95934122D01*
X100591314Y-95946341D01*
X100594792Y-95958138D01*
X100598733Y-95969513D01*
X100603138Y-95980467D01*
X100608007Y-95990999D01*
X100613339Y-96001109D01*
X100619135Y-96010798D01*
X100625395Y-96020065D01*
X100632118Y-96028910D01*
X100639305Y-96037334D01*
X100646991Y-96045290D01*
X100655150Y-96052733D01*
X100663783Y-96059662D01*
X100672889Y-96066078D01*
X100682467Y-96071981D01*
X100692520Y-96077371D01*
X100703045Y-96082247D01*
X100714043Y-96086610D01*
X100725515Y-96090459D01*
X100737460Y-96093796D01*
X100749878Y-96096619D01*
X100762770Y-96098929D01*
X100776135Y-96100725D01*
X100789972Y-96102009D01*
X100804284Y-96102778D01*
X100819068Y-96103035D01*
X100830367Y-96102874D01*
X100841365Y-96102391D01*
X100852062Y-96101586D01*
X100862459Y-96100459D01*
X100872556Y-96099010D01*
X100882352Y-96097239D01*
X100894945Y-96094377D01*
X100907005Y-96090942D01*
X100918530Y-96086935D01*
X100924092Y-96084717D01*
X100934835Y-96079843D01*
X100945082Y-96074504D01*
X100954833Y-96068700D01*
X100964087Y-96062430D01*
X100972845Y-96055694D01*
X100981108Y-96048493D01*
X100988874Y-96040826D01*
X100996144Y-96032693D01*
X101002998Y-96024068D01*
X101009394Y-96015047D01*
X101015332Y-96005628D01*
X101020812Y-95995812D01*
X101025835Y-95985600D01*
X101030399Y-95974991D01*
X101034505Y-95963985D01*
X101038154Y-95952581D01*
X101041371Y-95940839D01*
X101044183Y-95928814D01*
X101046592Y-95916506D01*
X101048595Y-95903916D01*
X101050194Y-95891044D01*
X101051128Y-95881204D01*
X101051834Y-95871206D01*
X101052313Y-95861048D01*
X101052564Y-95850732D01*
X101052564Y-95199581D01*
X101180547Y-95199581D01*
G37*
G36*
X101967742Y-95933531D02*
G01*
X101967534Y-95945865D01*
X101966909Y-95957954D01*
X101965868Y-95969798D01*
X101964410Y-95981398D01*
X101962536Y-95992753D01*
X101960246Y-96003864D01*
X101957539Y-96014730D01*
X101954415Y-96025351D01*
X101950876Y-96035727D01*
X101946919Y-96045858D01*
X101944050Y-96052477D01*
X101939430Y-96062181D01*
X101934453Y-96071602D01*
X101929120Y-96080740D01*
X101923431Y-96089594D01*
X101917385Y-96098165D01*
X101910983Y-96106453D01*
X101904225Y-96114457D01*
X101897110Y-96122178D01*
X101889639Y-96129615D01*
X101881811Y-96136769D01*
X101876395Y-96141381D01*
X101867982Y-96148052D01*
X101859230Y-96154419D01*
X101850139Y-96160480D01*
X101840709Y-96166237D01*
X101830940Y-96171689D01*
X101820831Y-96176836D01*
X101810383Y-96181678D01*
X101799596Y-96186215D01*
X101788470Y-96190448D01*
X101777005Y-96194375D01*
X101769173Y-96196824D01*
X101757216Y-96200185D01*
X101744975Y-96203216D01*
X101732452Y-96205915D01*
X101719645Y-96208285D01*
X101706554Y-96210323D01*
X101693181Y-96212031D01*
X101679524Y-96213409D01*
X101665583Y-96214456D01*
X101651359Y-96215172D01*
X101636852Y-96215558D01*
X101627023Y-96215631D01*
X101612823Y-96215526D01*
X101598799Y-96215210D01*
X101584951Y-96214684D01*
X101571279Y-96213948D01*
X101557783Y-96213001D01*
X101544462Y-96211844D01*
X101531318Y-96210477D01*
X101518350Y-96208899D01*
X101505558Y-96207111D01*
X101492942Y-96205112D01*
X101484630Y-96203663D01*
X101472408Y-96201318D01*
X101460564Y-96198772D01*
X101449098Y-96196023D01*
X101438010Y-96193073D01*
X101427299Y-96189921D01*
X101416967Y-96186567D01*
X101407012Y-96183012D01*
X101397435Y-96179254D01*
X101388236Y-96175295D01*
X101376558Y-96169702D01*
X101373743Y-96168248D01*
X101373743Y-96046127D01*
X101382759Y-96050331D01*
X101392222Y-96054519D01*
X101402131Y-96058689D01*
X101412486Y-96062842D01*
X101423288Y-96066978D01*
X101426988Y-96068353D01*
X101436378Y-96071657D01*
X101445922Y-96074855D01*
X101455621Y-96077945D01*
X101465476Y-96080927D01*
X101475485Y-96083803D01*
X101485650Y-96086571D01*
X101489759Y-96087648D01*
X101500110Y-96090171D01*
X101510558Y-96092552D01*
X101521100Y-96094789D01*
X101531738Y-96096883D01*
X101542471Y-96098834D01*
X101553300Y-96100642D01*
X101557658Y-96101325D01*
X101568631Y-96102803D01*
X101579569Y-96104030D01*
X101590470Y-96105007D01*
X101601336Y-96105733D01*
X101612166Y-96106209D01*
X101622960Y-96106434D01*
X101627267Y-96106454D01*
X101640782Y-96106292D01*
X101653848Y-96105806D01*
X101666466Y-96104995D01*
X101678635Y-96103859D01*
X101690356Y-96102400D01*
X101701628Y-96100616D01*
X101712452Y-96098507D01*
X101722827Y-96096074D01*
X101732755Y-96093317D01*
X101742233Y-96090235D01*
X101755611Y-96085005D01*
X101767979Y-96079044D01*
X101779338Y-96072354D01*
X101789689Y-96064933D01*
X101799073Y-96056832D01*
X101807535Y-96048100D01*
X101815073Y-96038737D01*
X101821689Y-96028743D01*
X101827381Y-96018118D01*
X101832150Y-96006862D01*
X101835996Y-95994974D01*
X101838919Y-95982455D01*
X101840919Y-95969306D01*
X101841996Y-95955525D01*
X101842201Y-95945987D01*
X101841957Y-95934624D01*
X101841223Y-95923738D01*
X101840001Y-95913329D01*
X101838289Y-95903397D01*
X101835590Y-95892108D01*
X101832187Y-95881507D01*
X101827900Y-95871320D01*
X101822547Y-95861460D01*
X101816130Y-95851926D01*
X101809969Y-95844230D01*
X101803069Y-95836761D01*
X101797016Y-95830949D01*
X101788814Y-95823810D01*
X101779776Y-95816742D01*
X101769904Y-95809747D01*
X101761405Y-95804202D01*
X101752372Y-95798702D01*
X101742804Y-95793249D01*
X101732703Y-95787841D01*
X101730094Y-95786496D01*
X101719305Y-95781005D01*
X101707822Y-95775399D01*
X101698754Y-95771119D01*
X101689295Y-95766775D01*
X101679445Y-95762366D01*
X101669205Y-95757893D01*
X101658574Y-95753356D01*
X101647552Y-95748754D01*
X101636140Y-95744088D01*
X101624337Y-95739357D01*
X101613027Y-95734829D01*
X101601997Y-95730218D01*
X101591246Y-95725527D01*
X101580774Y-95720753D01*
X101570580Y-95715898D01*
X101560666Y-95710961D01*
X101551032Y-95705943D01*
X101541676Y-95700843D01*
X101532599Y-95695662D01*
X101523801Y-95690399D01*
X101518091Y-95686845D01*
X101509802Y-95681425D01*
X101499177Y-95674004D01*
X101489041Y-95666362D01*
X101479394Y-95658499D01*
X101470235Y-95650414D01*
X101461564Y-95642108D01*
X101453382Y-95633580D01*
X101445688Y-95624831D01*
X101443841Y-95622609D01*
X101436808Y-95613546D01*
X101430240Y-95604184D01*
X101424138Y-95594525D01*
X101418501Y-95584569D01*
X101413330Y-95574314D01*
X101408624Y-95563762D01*
X101404384Y-95552912D01*
X101400610Y-95541765D01*
X101397347Y-95530217D01*
X101394519Y-95518287D01*
X101392126Y-95505976D01*
X101390169Y-95493283D01*
X101388986Y-95483513D01*
X101388048Y-95473528D01*
X101387354Y-95463328D01*
X101386906Y-95452914D01*
X101386702Y-95442285D01*
X101386688Y-95438695D01*
X101386881Y-95427455D01*
X101387461Y-95416452D01*
X101388427Y-95405685D01*
X101389779Y-95395154D01*
X101391518Y-95384860D01*
X101393643Y-95374801D01*
X101396155Y-95364979D01*
X101399053Y-95355392D01*
X101402337Y-95346042D01*
X101406008Y-95336928D01*
X101408670Y-95330983D01*
X101414444Y-95319370D01*
X101420775Y-95308223D01*
X101427664Y-95297541D01*
X101435109Y-95287325D01*
X101443112Y-95277574D01*
X101451672Y-95268289D01*
X101460789Y-95259470D01*
X101470464Y-95251116D01*
X101480657Y-95243178D01*
X101491331Y-95235729D01*
X101499652Y-95230462D01*
X101508244Y-95225471D01*
X101517106Y-95220754D01*
X101526239Y-95216311D01*
X101535642Y-95212144D01*
X101545315Y-95208251D01*
X101555259Y-95204634D01*
X101565474Y-95201290D01*
X101575968Y-95198191D01*
X101586660Y-95195397D01*
X101597550Y-95192908D01*
X101608636Y-95190723D01*
X101619921Y-95188843D01*
X101631402Y-95187268D01*
X101643082Y-95185998D01*
X101654959Y-95185033D01*
X101667033Y-95184373D01*
X101679305Y-95184017D01*
X101687595Y-95183949D01*
X101697758Y-95184010D01*
X101707791Y-95184193D01*
X101717695Y-95184499D01*
X101727468Y-95184926D01*
X101741885Y-95185796D01*
X101756010Y-95186941D01*
X101769843Y-95188361D01*
X101783384Y-95190055D01*
X101796634Y-95192025D01*
X101809591Y-95194269D01*
X101822256Y-95196787D01*
X101834630Y-95199581D01*
X101846730Y-95202541D01*
X101858578Y-95205652D01*
X101870172Y-95208912D01*
X101881513Y-95212323D01*
X101892600Y-95215885D01*
X101903435Y-95219596D01*
X101914015Y-95223458D01*
X101924343Y-95227470D01*
X101934417Y-95231633D01*
X101944238Y-95235945D01*
X101950645Y-95238904D01*
X101904727Y-95346127D01*
X101893366Y-95341203D01*
X101881631Y-95336448D01*
X101869522Y-95331861D01*
X101860195Y-95328531D01*
X101850657Y-95325295D01*
X101840909Y-95322154D01*
X101830951Y-95319107D01*
X101820782Y-95316155D01*
X101810403Y-95313297D01*
X101803367Y-95311444D01*
X101792708Y-95308781D01*
X101781980Y-95306381D01*
X101771184Y-95304242D01*
X101760319Y-95302365D01*
X101749385Y-95300750D01*
X101738383Y-95299397D01*
X101727312Y-95298306D01*
X101716172Y-95297476D01*
X101704963Y-95296909D01*
X101693686Y-95296603D01*
X101686130Y-95296545D01*
X101675805Y-95296697D01*
X101665774Y-95297152D01*
X101651278Y-95298404D01*
X101637444Y-95300338D01*
X101624270Y-95302954D01*
X101611758Y-95306254D01*
X101599907Y-95310236D01*
X101588717Y-95314901D01*
X101578188Y-95320248D01*
X101568321Y-95326278D01*
X101559115Y-95332991D01*
X101556193Y-95335380D01*
X101547987Y-95342856D01*
X101540588Y-95350813D01*
X101533996Y-95359251D01*
X101528212Y-95368169D01*
X101523234Y-95377569D01*
X101519064Y-95387449D01*
X101515701Y-95397811D01*
X101513145Y-95408653D01*
X101511396Y-95419976D01*
X101510455Y-95431779D01*
X101510275Y-95439916D01*
X101510526Y-95451871D01*
X101511277Y-95463314D01*
X101512529Y-95474245D01*
X101514282Y-95484662D01*
X101516536Y-95494566D01*
X101519291Y-95503958D01*
X101520533Y-95507571D01*
X101524861Y-95518015D01*
X101530150Y-95528099D01*
X101536401Y-95537822D01*
X101542345Y-95545649D01*
X101548957Y-95553225D01*
X101554727Y-95559106D01*
X101562659Y-95566215D01*
X101571343Y-95573193D01*
X101580777Y-95580040D01*
X101590963Y-95586755D01*
X101599653Y-95592033D01*
X101608823Y-95597227D01*
X101618475Y-95602337D01*
X101628649Y-95607440D01*
X101639388Y-95612611D01*
X101650692Y-95617850D01*
X101662561Y-95623159D01*
X101671833Y-95627185D01*
X101681423Y-95631250D01*
X101691330Y-95635354D01*
X101701555Y-95639497D01*
X101712098Y-95643678D01*
X101715683Y-95645080D01*
X101727270Y-95649762D01*
X101738581Y-95654465D01*
X101749618Y-95659190D01*
X101760380Y-95663936D01*
X101770867Y-95668704D01*
X101781079Y-95673493D01*
X101791017Y-95678304D01*
X101800680Y-95683136D01*
X101810068Y-95687989D01*
X101819181Y-95692865D01*
X101825104Y-95696127D01*
X101833805Y-95701043D01*
X101842232Y-95706084D01*
X101853039Y-95712999D01*
X101863359Y-95720136D01*
X101873189Y-95727494D01*
X101882532Y-95735073D01*
X101891386Y-95742873D01*
X101899751Y-95750895D01*
X101903750Y-95754989D01*
X101911444Y-95763393D01*
X101918649Y-95772117D01*
X101925366Y-95781161D01*
X101931594Y-95790526D01*
X101937334Y-95800212D01*
X101942585Y-95810218D01*
X101947348Y-95820545D01*
X101951622Y-95831193D01*
X101955400Y-95842249D01*
X101958674Y-95853801D01*
X101961445Y-95865849D01*
X101963712Y-95878393D01*
X101965082Y-95888126D01*
X101966168Y-95898139D01*
X101966971Y-95908431D01*
X101967490Y-95919002D01*
X101967726Y-95929852D01*
X101967742Y-95933531D01*
G37*
G36*
X102449795Y-95199633D02*
G01*
X102460540Y-95199791D01*
X102471121Y-95200053D01*
X102481537Y-95200420D01*
X102491790Y-95200893D01*
X102501878Y-95201470D01*
X102511802Y-95202152D01*
X102521563Y-95202939D01*
X102535895Y-95204317D01*
X102549859Y-95205930D01*
X102563453Y-95207780D01*
X102576678Y-95209866D01*
X102589533Y-95212188D01*
X102593736Y-95213014D01*
X102606091Y-95215633D01*
X102618060Y-95218544D01*
X102629642Y-95221747D01*
X102640837Y-95225242D01*
X102651646Y-95229028D01*
X102662069Y-95233107D01*
X102672105Y-95237478D01*
X102681755Y-95242140D01*
X102691019Y-95247095D01*
X102699896Y-95252341D01*
X102705600Y-95256001D01*
X102713831Y-95261705D01*
X102721671Y-95267736D01*
X102729121Y-95274093D01*
X102738446Y-95283077D01*
X102747076Y-95292640D01*
X102755012Y-95302784D01*
X102762254Y-95313508D01*
X102767229Y-95321931D01*
X102771814Y-95330681D01*
X102773255Y-95333670D01*
X102777314Y-95342887D01*
X102780974Y-95352495D01*
X102784235Y-95362493D01*
X102787097Y-95372883D01*
X102789559Y-95383662D01*
X102791622Y-95394833D01*
X102793285Y-95406394D01*
X102794550Y-95418346D01*
X102795415Y-95430689D01*
X102795881Y-95443422D01*
X102795969Y-95452128D01*
X102795760Y-95462607D01*
X102795130Y-95472919D01*
X102794080Y-95483063D01*
X102792611Y-95493039D01*
X102790722Y-95502846D01*
X102788413Y-95512486D01*
X102785685Y-95521958D01*
X102782536Y-95531263D01*
X102778046Y-95542573D01*
X102772972Y-95553454D01*
X102767313Y-95563906D01*
X102761069Y-95573929D01*
X102754242Y-95583522D01*
X102746830Y-95592686D01*
X102743702Y-95596231D01*
X102735471Y-95604712D01*
X102726657Y-95612751D01*
X102717258Y-95620349D01*
X102709318Y-95626110D01*
X102701005Y-95631588D01*
X102692317Y-95636784D01*
X102683255Y-95641697D01*
X102680931Y-95642882D01*
X102671432Y-95647385D01*
X102661621Y-95651491D01*
X102651496Y-95655201D01*
X102641058Y-95658513D01*
X102630308Y-95661429D01*
X102619245Y-95663948D01*
X102607868Y-95666069D01*
X102596179Y-95667794D01*
X102596179Y-95674633D01*
X102607933Y-95676820D01*
X102619504Y-95679228D01*
X102630892Y-95681857D01*
X102642096Y-95684708D01*
X102653118Y-95687780D01*
X102663956Y-95691074D01*
X102674611Y-95694589D01*
X102685083Y-95698325D01*
X102695353Y-95702355D01*
X102705279Y-95706751D01*
X102714862Y-95711514D01*
X102724101Y-95716643D01*
X102732997Y-95722138D01*
X102741549Y-95728000D01*
X102749758Y-95734228D01*
X102757623Y-95740823D01*
X102765172Y-95747822D01*
X102772308Y-95755264D01*
X102779033Y-95763148D01*
X102785345Y-95771475D01*
X102791245Y-95780245D01*
X102796733Y-95789458D01*
X102801808Y-95799113D01*
X102806472Y-95809211D01*
X102810651Y-95819748D01*
X102814272Y-95830842D01*
X102817337Y-95842493D01*
X102819844Y-95854701D01*
X102821794Y-95867467D01*
X102822891Y-95877406D01*
X102823675Y-95887660D01*
X102824145Y-95898226D01*
X102824302Y-95909106D01*
X102824104Y-95921846D01*
X102823512Y-95934328D01*
X102822524Y-95946553D01*
X102821142Y-95958520D01*
X102819364Y-95970229D01*
X102817192Y-95981681D01*
X102814624Y-95992875D01*
X102811662Y-96003811D01*
X102808305Y-96014490D01*
X102804552Y-96024912D01*
X102801831Y-96031716D01*
X102797488Y-96041647D01*
X102792792Y-96051291D01*
X102787745Y-96060647D01*
X102782345Y-96069715D01*
X102776594Y-96078496D01*
X102770490Y-96086989D01*
X102764034Y-96095194D01*
X102757226Y-96103111D01*
X102750067Y-96110741D01*
X102742555Y-96118084D01*
X102737351Y-96122819D01*
X102729268Y-96129673D01*
X102720862Y-96136223D01*
X102712134Y-96142467D01*
X102703085Y-96148407D01*
X102693713Y-96154042D01*
X102684019Y-96159372D01*
X102674004Y-96164398D01*
X102663666Y-96169118D01*
X102653007Y-96173534D01*
X102642025Y-96177645D01*
X102634525Y-96180216D01*
X102623074Y-96183751D01*
X102611344Y-96186939D01*
X102599335Y-96189779D01*
X102587046Y-96192272D01*
X102574479Y-96194416D01*
X102561633Y-96196213D01*
X102548507Y-96197662D01*
X102535103Y-96198763D01*
X102521419Y-96199517D01*
X102507457Y-96199922D01*
X102497993Y-96200000D01*
X102164846Y-96200000D01*
X102164846Y-95730809D01*
X102292585Y-95730809D01*
X102292585Y-96090823D01*
X102475279Y-96090823D01*
X102486418Y-96090703D01*
X102497215Y-96090342D01*
X102507668Y-96089741D01*
X102517777Y-96088900D01*
X102527543Y-96087818D01*
X102540030Y-96086001D01*
X102551906Y-96083757D01*
X102563172Y-96081086D01*
X102573827Y-96077987D01*
X102576395Y-96077145D01*
X102586401Y-96073558D01*
X102595904Y-96069635D01*
X102604903Y-96065376D01*
X102615443Y-96059580D01*
X102625196Y-96053259D01*
X102634162Y-96046414D01*
X102642341Y-96039043D01*
X102649856Y-96031096D01*
X102656680Y-96022672D01*
X102662813Y-96013770D01*
X102668253Y-96004392D01*
X102673002Y-95994536D01*
X102677059Y-95984203D01*
X102678489Y-95979937D01*
X102681655Y-95969002D01*
X102684285Y-95957721D01*
X102686378Y-95946095D01*
X102687934Y-95934122D01*
X102688793Y-95924295D01*
X102689308Y-95914247D01*
X102689480Y-95903977D01*
X102689199Y-95892219D01*
X102688359Y-95880760D01*
X102686957Y-95869598D01*
X102684995Y-95858735D01*
X102682473Y-95848170D01*
X102679390Y-95837903D01*
X102678000Y-95833879D01*
X102674131Y-95824037D01*
X102669547Y-95814660D01*
X102664247Y-95805747D01*
X102658232Y-95797300D01*
X102651501Y-95789318D01*
X102644054Y-95781801D01*
X102640875Y-95778925D01*
X102632450Y-95772007D01*
X102623201Y-95765601D01*
X102613130Y-95759709D01*
X102602235Y-95754329D01*
X102592927Y-95750394D01*
X102583093Y-95746788D01*
X102572732Y-95743510D01*
X102561783Y-95740533D01*
X102550185Y-95737953D01*
X102537938Y-95735770D01*
X102525043Y-95733984D01*
X102514946Y-95732905D01*
X102504484Y-95732049D01*
X102493657Y-95731417D01*
X102482465Y-95731007D01*
X102470908Y-95730821D01*
X102466974Y-95730809D01*
X102292585Y-95730809D01*
X102164846Y-95730809D01*
X102164846Y-95308757D01*
X102292585Y-95308757D01*
X102292585Y-95621632D01*
X102460136Y-95621632D01*
X102470780Y-95621544D01*
X102481098Y-95621280D01*
X102491090Y-95620840D01*
X102503906Y-95619980D01*
X102516141Y-95618806D01*
X102527796Y-95617320D01*
X102538871Y-95615520D01*
X102549365Y-95613408D01*
X102556856Y-95611618D01*
X102566446Y-95608901D01*
X102577758Y-95605075D01*
X102588318Y-95600773D01*
X102598127Y-95595993D01*
X102607185Y-95590736D01*
X102615491Y-95585002D01*
X102620115Y-95581332D01*
X102628701Y-95573461D01*
X102636326Y-95564869D01*
X102642990Y-95555555D01*
X102648691Y-95545520D01*
X102652708Y-95536607D01*
X102654797Y-95531018D01*
X102657893Y-95521315D01*
X102660464Y-95511135D01*
X102662511Y-95500478D01*
X102664033Y-95489344D01*
X102665030Y-95477733D01*
X102665502Y-95465645D01*
X102665544Y-95460676D01*
X102665337Y-95450690D01*
X102664250Y-95436387D01*
X102662231Y-95422895D01*
X102659281Y-95410215D01*
X102655399Y-95398346D01*
X102650586Y-95387288D01*
X102644840Y-95377042D01*
X102638164Y-95367608D01*
X102630555Y-95358985D01*
X102622015Y-95351173D01*
X102612543Y-95344173D01*
X102602112Y-95337843D01*
X102590604Y-95332137D01*
X102578018Y-95327053D01*
X102564355Y-95322591D01*
X102554647Y-95319963D01*
X102544460Y-95317611D01*
X102533795Y-95315536D01*
X102522650Y-95313738D01*
X102511027Y-95312216D01*
X102498924Y-95310971D01*
X102486343Y-95310002D01*
X102473283Y-95309311D01*
X102459743Y-95308896D01*
X102445725Y-95308757D01*
X102292585Y-95308757D01*
X102164846Y-95308757D01*
X102164846Y-95199581D01*
X102438886Y-95199581D01*
X102449795Y-95199633D01*
G37*
G36*
X103505495Y-95392777D02*
G01*
X103505460Y-95403389D01*
X103505355Y-95414282D01*
X103505179Y-95425455D01*
X103504973Y-95435255D01*
X103504762Y-95443579D01*
X103504545Y-95453526D01*
X103504204Y-95464804D01*
X103503770Y-95475732D01*
X103503242Y-95486309D01*
X103502808Y-95493649D01*
X103502267Y-95503773D01*
X103501744Y-95513811D01*
X103501237Y-95523763D01*
X103500747Y-95533629D01*
X103500275Y-95543409D01*
X103500122Y-95546650D01*
X103505495Y-95546650D01*
X103511586Y-95537794D01*
X103517951Y-95529179D01*
X103524592Y-95520804D01*
X103531507Y-95512670D01*
X103538697Y-95504776D01*
X103541154Y-95502198D01*
X103548888Y-95494610D01*
X103557068Y-95487417D01*
X103565695Y-95480619D01*
X103574768Y-95474217D01*
X103584288Y-95468209D01*
X103587561Y-95466294D01*
X103597684Y-95460847D01*
X103608272Y-95455864D01*
X103617449Y-95452066D01*
X103626948Y-95448589D01*
X103636769Y-95445435D01*
X103646912Y-95442602D01*
X103657418Y-95440140D01*
X103668331Y-95438094D01*
X103679648Y-95436467D01*
X103691371Y-95435256D01*
X103703500Y-95434463D01*
X103713495Y-95434129D01*
X103721161Y-95434054D01*
X103733192Y-95434271D01*
X103745012Y-95434921D01*
X103756622Y-95436005D01*
X103768022Y-95437523D01*
X103779211Y-95439474D01*
X103790190Y-95441859D01*
X103800958Y-95444678D01*
X103811516Y-95447930D01*
X103821864Y-95451616D01*
X103832001Y-95455735D01*
X103838642Y-95458722D01*
X103848442Y-95463565D01*
X103857968Y-95468840D01*
X103867219Y-95474550D01*
X103876195Y-95480693D01*
X103884896Y-95487270D01*
X103893322Y-95494280D01*
X103901474Y-95501724D01*
X103909351Y-95509601D01*
X103916953Y-95517912D01*
X103924280Y-95526657D01*
X103929012Y-95532728D01*
X103935871Y-95542141D01*
X103942433Y-95551971D01*
X103948699Y-95562217D01*
X103954669Y-95572879D01*
X103960343Y-95583958D01*
X103965720Y-95595454D01*
X103970801Y-95607365D01*
X103975586Y-95619694D01*
X103980075Y-95632439D01*
X103984267Y-95645600D01*
X103986898Y-95654605D01*
X103990608Y-95668456D01*
X103993953Y-95682715D01*
X103995980Y-95692448D01*
X103997846Y-95702361D01*
X103999549Y-95712456D01*
X104001089Y-95722733D01*
X104002468Y-95733190D01*
X104003685Y-95743829D01*
X104004739Y-95754649D01*
X104005631Y-95765651D01*
X104006361Y-95776834D01*
X104006928Y-95788197D01*
X104007334Y-95799743D01*
X104007577Y-95811469D01*
X104007658Y-95823377D01*
X104007577Y-95835405D01*
X104007334Y-95847248D01*
X104006928Y-95858906D01*
X104006361Y-95870379D01*
X104005631Y-95881666D01*
X104004739Y-95892769D01*
X104003685Y-95903686D01*
X104002468Y-95914419D01*
X104001089Y-95924966D01*
X103999549Y-95935328D01*
X103997846Y-95945505D01*
X103995980Y-95955497D01*
X103993953Y-95965304D01*
X103991763Y-95974926D01*
X103988175Y-95989012D01*
X103986898Y-95993614D01*
X103982903Y-96007101D01*
X103978611Y-96020176D01*
X103974024Y-96032838D01*
X103969140Y-96045088D01*
X103963960Y-96056927D01*
X103958484Y-96068353D01*
X103952712Y-96079366D01*
X103946643Y-96089968D01*
X103940278Y-96100158D01*
X103933617Y-96109935D01*
X103929012Y-96116224D01*
X103921868Y-96125262D01*
X103914449Y-96133876D01*
X103906755Y-96142064D01*
X103898787Y-96149827D01*
X103890544Y-96157165D01*
X103882026Y-96164078D01*
X103873233Y-96170566D01*
X103864166Y-96176629D01*
X103854823Y-96182266D01*
X103845206Y-96187479D01*
X103838642Y-96190718D01*
X103828647Y-96195170D01*
X103818446Y-96199185D01*
X103808039Y-96202761D01*
X103797426Y-96205899D01*
X103786607Y-96208600D01*
X103775582Y-96210863D01*
X103764350Y-96212687D01*
X103752913Y-96214074D01*
X103741269Y-96215023D01*
X103729420Y-96215534D01*
X103721406Y-96215631D01*
X103711388Y-96215490D01*
X103701607Y-96215066D01*
X103689713Y-96214140D01*
X103678189Y-96212772D01*
X103667035Y-96210963D01*
X103656250Y-96208712D01*
X103647889Y-96206594D01*
X103637740Y-96203703D01*
X103627901Y-96200526D01*
X103618372Y-96197063D01*
X103609153Y-96193313D01*
X103600244Y-96189278D01*
X103589963Y-96184057D01*
X103588293Y-96183147D01*
X103578616Y-96177388D01*
X103569368Y-96171286D01*
X103560550Y-96164840D01*
X103552161Y-96158051D01*
X103544201Y-96150918D01*
X103541643Y-96148464D01*
X103534204Y-96140885D01*
X103527091Y-96133169D01*
X103520305Y-96125315D01*
X103513845Y-96117323D01*
X103507711Y-96109195D01*
X103505739Y-96106454D01*
X103497435Y-96106454D01*
X103472034Y-96200000D01*
X103380443Y-96200000D01*
X103380443Y-95823377D01*
X103505495Y-95823377D01*
X103505577Y-95836248D01*
X103505821Y-95848848D01*
X103506229Y-95861178D01*
X103506800Y-95873237D01*
X103507534Y-95885026D01*
X103508432Y-95896544D01*
X103509492Y-95907792D01*
X103510716Y-95918769D01*
X103512102Y-95929476D01*
X103513652Y-95939912D01*
X103514776Y-95946720D01*
X103516630Y-95956688D01*
X103518712Y-95966352D01*
X103521841Y-95978762D01*
X103525375Y-95990631D01*
X103529313Y-96001958D01*
X103533656Y-96012743D01*
X103538404Y-96022985D01*
X103543556Y-96032686D01*
X103546284Y-96037334D01*
X103552126Y-96046218D01*
X103558419Y-96054553D01*
X103565163Y-96062338D01*
X103572356Y-96069574D01*
X103580000Y-96076260D01*
X103588095Y-96082397D01*
X103596640Y-96087984D01*
X103605635Y-96093021D01*
X103615206Y-96097429D01*
X103625357Y-96101249D01*
X103636089Y-96104481D01*
X103647400Y-96107126D01*
X103659292Y-96109183D01*
X103671763Y-96110652D01*
X103684815Y-96111534D01*
X103694984Y-96111809D01*
X103698447Y-96111828D01*
X103709856Y-96111536D01*
X103720879Y-96110660D01*
X103731517Y-96109200D01*
X103741769Y-96107157D01*
X103751636Y-96104529D01*
X103761118Y-96101318D01*
X103770214Y-96097522D01*
X103783136Y-96090735D01*
X103795190Y-96082633D01*
X103806377Y-96073218D01*
X103813353Y-96066211D01*
X103819944Y-96058621D01*
X103826149Y-96050446D01*
X103831969Y-96041688D01*
X103834734Y-96037090D01*
X103840028Y-96027463D01*
X103844981Y-96017329D01*
X103849592Y-96006687D01*
X103853862Y-95995538D01*
X103857790Y-95983881D01*
X103861376Y-95971716D01*
X103864621Y-95959044D01*
X103867524Y-95945865D01*
X103870086Y-95932178D01*
X103872306Y-95917983D01*
X103874184Y-95903281D01*
X103875721Y-95888071D01*
X103876917Y-95872353D01*
X103877771Y-95856128D01*
X103878283Y-95839396D01*
X103878454Y-95822156D01*
X103878283Y-95804578D01*
X103877771Y-95787565D01*
X103876917Y-95771117D01*
X103875721Y-95755233D01*
X103874184Y-95739915D01*
X103872306Y-95725161D01*
X103870086Y-95710972D01*
X103867524Y-95697348D01*
X103864621Y-95684288D01*
X103861376Y-95671794D01*
X103857790Y-95659864D01*
X103853862Y-95648499D01*
X103849592Y-95637699D01*
X103844981Y-95627464D01*
X103840028Y-95617793D01*
X103834734Y-95608688D01*
X103829102Y-95600110D01*
X103823076Y-95592087D01*
X103816654Y-95584616D01*
X103806280Y-95574448D01*
X103795018Y-95565525D01*
X103782867Y-95557847D01*
X103769828Y-95551415D01*
X103760641Y-95547818D01*
X103751059Y-95544774D01*
X103741082Y-95542284D01*
X103730711Y-95540347D01*
X103719944Y-95538964D01*
X103708782Y-95538134D01*
X103697226Y-95537857D01*
X103687080Y-95538012D01*
X103677253Y-95538475D01*
X103664644Y-95539574D01*
X103652600Y-95541223D01*
X103641120Y-95543421D01*
X103630206Y-95546169D01*
X103619856Y-95549466D01*
X103610071Y-95553313D01*
X103605390Y-95555443D01*
X103596453Y-95560068D01*
X103587957Y-95565273D01*
X103579905Y-95571059D01*
X103572295Y-95577424D01*
X103565128Y-95584370D01*
X103558404Y-95591896D01*
X103552122Y-95600002D01*
X103546284Y-95608688D01*
X103540929Y-95617881D01*
X103535980Y-95627632D01*
X103531434Y-95637939D01*
X103527294Y-95648804D01*
X103523557Y-95660227D01*
X103520226Y-95672206D01*
X103517299Y-95684742D01*
X103515369Y-95694511D01*
X103514776Y-95697836D01*
X103513118Y-95708029D01*
X103511622Y-95718547D01*
X103510290Y-95729392D01*
X103509120Y-95740563D01*
X103508114Y-95752061D01*
X103507271Y-95763885D01*
X103506592Y-95776035D01*
X103506075Y-95788511D01*
X103505722Y-95801314D01*
X103505531Y-95814443D01*
X103505495Y-95823377D01*
X103380443Y-95823377D01*
X103380443Y-95137055D01*
X103505495Y-95137055D01*
X103505495Y-95392777D01*
G37*
G36*
X104501999Y-95434281D02*
G01*
X104514983Y-95434964D01*
X104527770Y-95436102D01*
X104540360Y-95437695D01*
X104552752Y-95439743D01*
X104564946Y-95442246D01*
X104576943Y-95445204D01*
X104588743Y-95448617D01*
X104600345Y-95452485D01*
X104611749Y-95456809D01*
X104619242Y-95459944D01*
X104630318Y-95464965D01*
X104641107Y-95470411D01*
X104651608Y-95476282D01*
X104661821Y-95482578D01*
X104671746Y-95489299D01*
X104681384Y-95496446D01*
X104690734Y-95504017D01*
X104699797Y-95512013D01*
X104708572Y-95520435D01*
X104717059Y-95529281D01*
X104722557Y-95535415D01*
X104730585Y-95544957D01*
X104738274Y-95554898D01*
X104745623Y-95565238D01*
X104752633Y-95575978D01*
X104759304Y-95587117D01*
X104765636Y-95598655D01*
X104771629Y-95610593D01*
X104777283Y-95622930D01*
X104782597Y-95635666D01*
X104787572Y-95648802D01*
X104790701Y-95657780D01*
X104795066Y-95671520D01*
X104799001Y-95685630D01*
X104801386Y-95695241D01*
X104803581Y-95705017D01*
X104805584Y-95714956D01*
X104807397Y-95725060D01*
X104809019Y-95735327D01*
X104810450Y-95745759D01*
X104811690Y-95756355D01*
X104812740Y-95767115D01*
X104813599Y-95778039D01*
X104814266Y-95789128D01*
X104814743Y-95800380D01*
X104815030Y-95811796D01*
X104815125Y-95823377D01*
X104815035Y-95835080D01*
X104814766Y-95846618D01*
X104814318Y-95857993D01*
X104813690Y-95869203D01*
X104812883Y-95880249D01*
X104811897Y-95891132D01*
X104810731Y-95901850D01*
X104809385Y-95912404D01*
X104807861Y-95922793D01*
X104806157Y-95933019D01*
X104804273Y-95943081D01*
X104802211Y-95952978D01*
X104799969Y-95962712D01*
X104797547Y-95972281D01*
X104793579Y-95986328D01*
X104792166Y-95990928D01*
X104787685Y-96004417D01*
X104782853Y-96017498D01*
X104777668Y-96030171D01*
X104772131Y-96042436D01*
X104766242Y-96054294D01*
X104760001Y-96065743D01*
X104753408Y-96076785D01*
X104746462Y-96087419D01*
X104739165Y-96097645D01*
X104731516Y-96107463D01*
X104726221Y-96113782D01*
X104718000Y-96122872D01*
X104709457Y-96131550D01*
X104700592Y-96139817D01*
X104691405Y-96147670D01*
X104681896Y-96155112D01*
X104672065Y-96162142D01*
X104661912Y-96168759D01*
X104651437Y-96174965D01*
X104640640Y-96180758D01*
X104629521Y-96186139D01*
X104621929Y-96189497D01*
X104610347Y-96194167D01*
X104598499Y-96198379D01*
X104586385Y-96202130D01*
X104574004Y-96205422D01*
X104561357Y-96208255D01*
X104548444Y-96210629D01*
X104535265Y-96212543D01*
X104521820Y-96213998D01*
X104508109Y-96214993D01*
X104494131Y-96215529D01*
X104484665Y-96215631D01*
X104471480Y-96215401D01*
X104458490Y-96214712D01*
X104445692Y-96213564D01*
X104433087Y-96211956D01*
X104420676Y-96209889D01*
X104408458Y-96207362D01*
X104396433Y-96204376D01*
X104384601Y-96200931D01*
X104372963Y-96197026D01*
X104361517Y-96192662D01*
X104353995Y-96189497D01*
X104342960Y-96184391D01*
X104332205Y-96178872D01*
X104321728Y-96172942D01*
X104311531Y-96166599D01*
X104301612Y-96159844D01*
X104291973Y-96152677D01*
X104282613Y-96145098D01*
X104273532Y-96137107D01*
X104264730Y-96128703D01*
X104256207Y-96119888D01*
X104250680Y-96113782D01*
X104242696Y-96104236D01*
X104235046Y-96094281D01*
X104227732Y-96083920D01*
X104220753Y-96073150D01*
X104214108Y-96061972D01*
X104207798Y-96050386D01*
X104201823Y-96038393D01*
X104196183Y-96025992D01*
X104190878Y-96013183D01*
X104185908Y-95999966D01*
X104182780Y-95990928D01*
X104178415Y-95977004D01*
X104175744Y-95967517D01*
X104173263Y-95957866D01*
X104170974Y-95948050D01*
X104168875Y-95938071D01*
X104166967Y-95927927D01*
X104165249Y-95917619D01*
X104163723Y-95907147D01*
X104162387Y-95896511D01*
X104161242Y-95885711D01*
X104160288Y-95874747D01*
X104159525Y-95863618D01*
X104158952Y-95852326D01*
X104158571Y-95840869D01*
X104158380Y-95829249D01*
X104158356Y-95823377D01*
X104287561Y-95823377D01*
X104287744Y-95841051D01*
X104288293Y-95858170D01*
X104289209Y-95874734D01*
X104290491Y-95890742D01*
X104292140Y-95906195D01*
X104294155Y-95921093D01*
X104296536Y-95935436D01*
X104299284Y-95949223D01*
X104302398Y-95962455D01*
X104305879Y-95975132D01*
X104309726Y-95987253D01*
X104313939Y-95998820D01*
X104318518Y-96009831D01*
X104323464Y-96020286D01*
X104328777Y-96030187D01*
X104334455Y-96039532D01*
X104340577Y-96048287D01*
X104347156Y-96056476D01*
X104354193Y-96064101D01*
X104361688Y-96071161D01*
X104369641Y-96077657D01*
X104378053Y-96083587D01*
X104386922Y-96088953D01*
X104396249Y-96093754D01*
X104406034Y-96097990D01*
X104416277Y-96101661D01*
X104426977Y-96104768D01*
X104438136Y-96107309D01*
X104449753Y-96109286D01*
X104461828Y-96110698D01*
X104474361Y-96111545D01*
X104487351Y-96111828D01*
X104500339Y-96111545D01*
X104512863Y-96110698D01*
X104524924Y-96109286D01*
X104536520Y-96107309D01*
X104547653Y-96104768D01*
X104558323Y-96101661D01*
X104568529Y-96097990D01*
X104578271Y-96093754D01*
X104587549Y-96088953D01*
X104596364Y-96083587D01*
X104604715Y-96077657D01*
X104612602Y-96071161D01*
X104620026Y-96064101D01*
X104626986Y-96056476D01*
X104633482Y-96048287D01*
X104639515Y-96039532D01*
X104645134Y-96030187D01*
X104650391Y-96020286D01*
X104655285Y-96009831D01*
X104659817Y-95998820D01*
X104663986Y-95987253D01*
X104667793Y-95975132D01*
X104671237Y-95962455D01*
X104674319Y-95949223D01*
X104677038Y-95935436D01*
X104679395Y-95921093D01*
X104681389Y-95906195D01*
X104683020Y-95890742D01*
X104684289Y-95874734D01*
X104685196Y-95858170D01*
X104685739Y-95841051D01*
X104685921Y-95823377D01*
X104685737Y-95805738D01*
X104685184Y-95788664D01*
X104684263Y-95772155D01*
X104682974Y-95756210D01*
X104681317Y-95740831D01*
X104679292Y-95726016D01*
X104676898Y-95711766D01*
X104674136Y-95698080D01*
X104671006Y-95684960D01*
X104667507Y-95672404D01*
X104663640Y-95660414D01*
X104659405Y-95648988D01*
X104654802Y-95638126D01*
X104649830Y-95627830D01*
X104644490Y-95618099D01*
X104638782Y-95608932D01*
X104632690Y-95600325D01*
X104626138Y-95592274D01*
X104619127Y-95584778D01*
X104611656Y-95577837D01*
X104603724Y-95571451D01*
X104595333Y-95565621D01*
X104586482Y-95560346D01*
X104577172Y-95555626D01*
X104567401Y-95551461D01*
X104557170Y-95547852D01*
X104546480Y-95544798D01*
X104535330Y-95542299D01*
X104523720Y-95540356D01*
X104511650Y-95538968D01*
X104499120Y-95538135D01*
X104486130Y-95537857D01*
X104473142Y-95538135D01*
X104460618Y-95538968D01*
X104448558Y-95540356D01*
X104436961Y-95542299D01*
X104425828Y-95544798D01*
X104415158Y-95547852D01*
X104404953Y-95551461D01*
X104395211Y-95555626D01*
X104385932Y-95560346D01*
X104377118Y-95565621D01*
X104368767Y-95571451D01*
X104360879Y-95577837D01*
X104353456Y-95584778D01*
X104346496Y-95592274D01*
X104339999Y-95600325D01*
X104333967Y-95608932D01*
X104328347Y-95618099D01*
X104323090Y-95627830D01*
X104318196Y-95638126D01*
X104313664Y-95648988D01*
X104309495Y-95660414D01*
X104305688Y-95672404D01*
X104302244Y-95684960D01*
X104299162Y-95698080D01*
X104296443Y-95711766D01*
X104294086Y-95726016D01*
X104292092Y-95740831D01*
X104290461Y-95756210D01*
X104289192Y-95772155D01*
X104288286Y-95788664D01*
X104287742Y-95805738D01*
X104287561Y-95823377D01*
X104158356Y-95823377D01*
X104158446Y-95811796D01*
X104158715Y-95800380D01*
X104159163Y-95789128D01*
X104159791Y-95778039D01*
X104160598Y-95767115D01*
X104161585Y-95756355D01*
X104162751Y-95745759D01*
X104164096Y-95735327D01*
X104165620Y-95725060D01*
X104167324Y-95714956D01*
X104169208Y-95705017D01*
X104171270Y-95695241D01*
X104173513Y-95685630D01*
X104177212Y-95671520D01*
X104181315Y-95657780D01*
X104185791Y-95644379D01*
X104190611Y-95631376D01*
X104195775Y-95618773D01*
X104201282Y-95606570D01*
X104207132Y-95594765D01*
X104213326Y-95583360D01*
X104219863Y-95572354D01*
X104226744Y-95561747D01*
X104233968Y-95551540D01*
X104241536Y-95541732D01*
X104246772Y-95535415D01*
X104254952Y-95526285D01*
X104263462Y-95517580D01*
X104272302Y-95509301D01*
X104281474Y-95501446D01*
X104290975Y-95494016D01*
X104300808Y-95487012D01*
X104310971Y-95480432D01*
X104321465Y-95474278D01*
X104332289Y-95468548D01*
X104343444Y-95463244D01*
X104351064Y-95459944D01*
X104362733Y-95455317D01*
X104374660Y-95451145D01*
X104386844Y-95447429D01*
X104399286Y-95444167D01*
X104411986Y-95441361D01*
X104424943Y-95439009D01*
X104438158Y-95437113D01*
X104451631Y-95435672D01*
X104465361Y-95434686D01*
X104479348Y-95434155D01*
X104488817Y-95434054D01*
X104501999Y-95434281D01*
G37*
G36*
X105264319Y-95434178D02*
G01*
X105276960Y-95434552D01*
X105289266Y-95435174D01*
X105301237Y-95436046D01*
X105312873Y-95437167D01*
X105324175Y-95438536D01*
X105335142Y-95440155D01*
X105345773Y-95442022D01*
X105356070Y-95444139D01*
X105366032Y-95446505D01*
X105372487Y-95448220D01*
X105381945Y-95450976D01*
X105394062Y-95455106D01*
X105405614Y-95459754D01*
X105416601Y-95464921D01*
X105427024Y-95470607D01*
X105436881Y-95476813D01*
X105446174Y-95483537D01*
X105454902Y-95490780D01*
X105456995Y-95492672D01*
X105465093Y-95500568D01*
X105472657Y-95508991D01*
X105479687Y-95517940D01*
X105486182Y-95527416D01*
X105492143Y-95537418D01*
X105497570Y-95547947D01*
X105502463Y-95559003D01*
X105506821Y-95570586D01*
X105510713Y-95582683D01*
X105513292Y-95592167D01*
X105515579Y-95602003D01*
X105517574Y-95612191D01*
X105519277Y-95622732D01*
X105520688Y-95633624D01*
X105521807Y-95644868D01*
X105522635Y-95656464D01*
X105523170Y-95668413D01*
X105523413Y-95680713D01*
X105523429Y-95684891D01*
X105523429Y-96200000D01*
X105433304Y-96200000D01*
X105407903Y-96097418D01*
X105402285Y-96097418D01*
X105395257Y-96106902D01*
X105388217Y-96115969D01*
X105381165Y-96124619D01*
X105374102Y-96132852D01*
X105367026Y-96140667D01*
X105359938Y-96148065D01*
X105357100Y-96150907D01*
X105349900Y-96157662D01*
X105340993Y-96165264D01*
X105331794Y-96172316D01*
X105322303Y-96178819D01*
X105312520Y-96184772D01*
X105307519Y-96187543D01*
X105297312Y-96192681D01*
X105286659Y-96197286D01*
X105277440Y-96200717D01*
X105267911Y-96203779D01*
X105258072Y-96206470D01*
X105247923Y-96208792D01*
X105237363Y-96210762D01*
X105226290Y-96212399D01*
X105214704Y-96213701D01*
X105202605Y-96214669D01*
X105192557Y-96215204D01*
X105182180Y-96215524D01*
X105171475Y-96215631D01*
X105159748Y-96215421D01*
X105148257Y-96214791D01*
X105137003Y-96213742D01*
X105125985Y-96212273D01*
X105115204Y-96210384D01*
X105104660Y-96208075D01*
X105094352Y-96205346D01*
X105084281Y-96202198D01*
X105074492Y-96198614D01*
X105065031Y-96194580D01*
X105055899Y-96190096D01*
X105047095Y-96185162D01*
X105038619Y-96179777D01*
X105030471Y-96173942D01*
X105022651Y-96167656D01*
X105015160Y-96160921D01*
X105008088Y-96153735D01*
X105001406Y-96146098D01*
X104995113Y-96138011D01*
X104989209Y-96129474D01*
X104983695Y-96120487D01*
X104978569Y-96111049D01*
X104973833Y-96101161D01*
X104969487Y-96090823D01*
X104965651Y-96080015D01*
X104962327Y-96068719D01*
X104959515Y-96056934D01*
X104957213Y-96044661D01*
X104955424Y-96031899D01*
X104954417Y-96022008D01*
X104953698Y-96011841D01*
X104953266Y-96001400D01*
X104953122Y-95990683D01*
X105083060Y-95990683D01*
X105083351Y-96002115D01*
X105084227Y-96012963D01*
X105085687Y-96023227D01*
X105087731Y-96032907D01*
X105091364Y-96044905D01*
X105096035Y-96055866D01*
X105101744Y-96065788D01*
X105108491Y-96074672D01*
X105116277Y-96082519D01*
X105124966Y-96089388D01*
X105134305Y-96095341D01*
X105144292Y-96100379D01*
X105154928Y-96104501D01*
X105166213Y-96107706D01*
X105178146Y-96109996D01*
X105190729Y-96111370D01*
X105200591Y-96111799D01*
X105203960Y-96111828D01*
X105214363Y-96111626D01*
X105224568Y-96111019D01*
X105234574Y-96110007D01*
X105244382Y-96108592D01*
X105253991Y-96106771D01*
X105265724Y-96103927D01*
X105277147Y-96100451D01*
X105281629Y-96098883D01*
X105292540Y-96094516D01*
X105302986Y-96089504D01*
X105312967Y-96083849D01*
X105322482Y-96077550D01*
X105331533Y-96070607D01*
X105340118Y-96063019D01*
X105343422Y-96059804D01*
X105351309Y-96051233D01*
X105358635Y-96042006D01*
X105365401Y-96032123D01*
X105371606Y-96021584D01*
X105376166Y-96012681D01*
X105380368Y-96003357D01*
X105384211Y-95993614D01*
X105387703Y-95983444D01*
X105390729Y-95972838D01*
X105393290Y-95961798D01*
X105395385Y-95950322D01*
X105397015Y-95938412D01*
X105398179Y-95926066D01*
X105398877Y-95913285D01*
X105399095Y-95903414D01*
X105399110Y-95900069D01*
X105399110Y-95832658D01*
X105300924Y-95837543D01*
X105289512Y-95838120D01*
X105278447Y-95838843D01*
X105267730Y-95839711D01*
X105257361Y-95840726D01*
X105247340Y-95841887D01*
X105234519Y-95843661D01*
X105222316Y-95845695D01*
X105210732Y-95847989D01*
X105199766Y-95850542D01*
X105197121Y-95851221D01*
X105186882Y-95854045D01*
X105177169Y-95857144D01*
X105167984Y-95860517D01*
X105157242Y-95865121D01*
X105147323Y-95870153D01*
X105138227Y-95875615D01*
X105129954Y-95881507D01*
X105121101Y-95889034D01*
X105113227Y-95897146D01*
X105106332Y-95905841D01*
X105100416Y-95915121D01*
X105095479Y-95924984D01*
X105094050Y-95928401D01*
X105090315Y-95939000D01*
X105087353Y-95950097D01*
X105085475Y-95959725D01*
X105084133Y-95969699D01*
X105083328Y-95980018D01*
X105083060Y-95990683D01*
X104953122Y-95990683D01*
X104953432Y-95976812D01*
X104954363Y-95963347D01*
X104955913Y-95950289D01*
X104958084Y-95937637D01*
X104960874Y-95925391D01*
X104964285Y-95913552D01*
X104968316Y-95902120D01*
X104972967Y-95891093D01*
X104978238Y-95880474D01*
X104984130Y-95870260D01*
X104990641Y-95860453D01*
X104997773Y-95851053D01*
X105005525Y-95842059D01*
X105013897Y-95833471D01*
X105022889Y-95825290D01*
X105032501Y-95817515D01*
X105042746Y-95810159D01*
X105053636Y-95803235D01*
X105065171Y-95796741D01*
X105077350Y-95790679D01*
X105090175Y-95785048D01*
X105103645Y-95779848D01*
X105117759Y-95775080D01*
X105132519Y-95770743D01*
X105147923Y-95766837D01*
X105163973Y-95763362D01*
X105180667Y-95760318D01*
X105198006Y-95757706D01*
X105215991Y-95755525D01*
X105234620Y-95753775D01*
X105253894Y-95752457D01*
X105263773Y-95751959D01*
X105273813Y-95751570D01*
X105400331Y-95746685D01*
X105400331Y-95699546D01*
X105400175Y-95688303D01*
X105399705Y-95677534D01*
X105398923Y-95667237D01*
X105397827Y-95657414D01*
X105396018Y-95645801D01*
X105393720Y-95634926D01*
X105390933Y-95624792D01*
X105390317Y-95622854D01*
X105386973Y-95613458D01*
X105382393Y-95602971D01*
X105377196Y-95593343D01*
X105371380Y-95584573D01*
X105364945Y-95576662D01*
X105361496Y-95573028D01*
X105354126Y-95566353D01*
X105346121Y-95560434D01*
X105337479Y-95555271D01*
X105328203Y-95550863D01*
X105318291Y-95547211D01*
X105314846Y-95546161D01*
X105304130Y-95543339D01*
X105292864Y-95541101D01*
X105283056Y-95539682D01*
X105272867Y-95538668D01*
X105262296Y-95538060D01*
X105251343Y-95537857D01*
X105240739Y-95538003D01*
X105230268Y-95538441D01*
X105219931Y-95539171D01*
X105209726Y-95540193D01*
X105199655Y-95541506D01*
X105189716Y-95543112D01*
X105179911Y-95545010D01*
X105170239Y-95547199D01*
X105160700Y-95549681D01*
X105151294Y-95552454D01*
X105145097Y-95554466D01*
X105132885Y-95558667D01*
X105120795Y-95563090D01*
X105108827Y-95567735D01*
X105096981Y-95572601D01*
X105085258Y-95577688D01*
X105073656Y-95582996D01*
X105062177Y-95588526D01*
X105050819Y-95594277D01*
X105006856Y-95500000D01*
X105016484Y-95494941D01*
X105026319Y-95490025D01*
X105036360Y-95485250D01*
X105046606Y-95480617D01*
X105057059Y-95476125D01*
X105067718Y-95471775D01*
X105078583Y-95467567D01*
X105089654Y-95463500D01*
X105100931Y-95459576D01*
X105112414Y-95455792D01*
X105120184Y-95453349D01*
X105131962Y-95449901D01*
X105143846Y-95446792D01*
X105155838Y-95444022D01*
X105167938Y-95441591D01*
X105180144Y-95439500D01*
X105192458Y-95437747D01*
X105204880Y-95436334D01*
X105217408Y-95435260D01*
X105230044Y-95434525D01*
X105242788Y-95434129D01*
X105251343Y-95434054D01*
X105264319Y-95434178D01*
G37*
G36*
X106077128Y-95434054D02*
G01*
X106087325Y-95434161D01*
X106098133Y-95434481D01*
X106108090Y-95434937D01*
X106118516Y-95435557D01*
X106121580Y-95435764D01*
X106132141Y-95436593D01*
X106142023Y-95437587D01*
X106152487Y-95438923D01*
X106163201Y-95440681D01*
X106164323Y-95440893D01*
X106147714Y-95556420D01*
X106136901Y-95554573D01*
X106127128Y-95553062D01*
X106117202Y-95551673D01*
X106108391Y-95550558D01*
X106098392Y-95549489D01*
X106087472Y-95548652D01*
X106076900Y-95548201D01*
X106070045Y-95548115D01*
X106059352Y-95548390D01*
X106048887Y-95549214D01*
X106038652Y-95550588D01*
X106028646Y-95552512D01*
X106018868Y-95554985D01*
X106009320Y-95558007D01*
X106000001Y-95561579D01*
X105990910Y-95565701D01*
X105982148Y-95570273D01*
X105973691Y-95575318D01*
X105965539Y-95580836D01*
X105957693Y-95586828D01*
X105950152Y-95593293D01*
X105942916Y-95600231D01*
X105935986Y-95607642D01*
X105929361Y-95615526D01*
X105923129Y-95623854D01*
X105917256Y-95632593D01*
X105911741Y-95641744D01*
X105906585Y-95651308D01*
X105901788Y-95661284D01*
X105897350Y-95671672D01*
X105893270Y-95682472D01*
X105889549Y-95693684D01*
X105886286Y-95705198D01*
X105883459Y-95717025D01*
X105881066Y-95729164D01*
X105879108Y-95741617D01*
X105877585Y-95754382D01*
X105876729Y-95764162D01*
X105876117Y-95774117D01*
X105875750Y-95784249D01*
X105875628Y-95794556D01*
X105875628Y-96200000D01*
X105750575Y-96200000D01*
X105750575Y-95449685D01*
X105852424Y-95449685D01*
X105867568Y-95585729D01*
X105873185Y-95585729D01*
X105878588Y-95576547D01*
X105884109Y-95567473D01*
X105889750Y-95558505D01*
X105895510Y-95549646D01*
X105901390Y-95540893D01*
X105907389Y-95532248D01*
X105909822Y-95528820D01*
X105916047Y-95520362D01*
X105922511Y-95512238D01*
X105929213Y-95504448D01*
X105936154Y-95496992D01*
X105943333Y-95489870D01*
X105950751Y-95483082D01*
X105953785Y-95480460D01*
X105961555Y-95474099D01*
X105969599Y-95468143D01*
X105977917Y-95462593D01*
X105986510Y-95457448D01*
X105995377Y-95452708D01*
X106004518Y-95448375D01*
X106008251Y-95446755D01*
X106017919Y-95443096D01*
X106027991Y-95440057D01*
X106038469Y-95437638D01*
X106049353Y-95435840D01*
X106060642Y-95434662D01*
X106072337Y-95434104D01*
X106077128Y-95434054D01*
G37*
G36*
X106893876Y-96200000D02*
G01*
X106792759Y-96200000D01*
X106774197Y-96101081D01*
X106768824Y-96101081D01*
X106762965Y-96109705D01*
X106756745Y-96118174D01*
X106750165Y-96126489D01*
X106743224Y-96134649D01*
X106735922Y-96142655D01*
X106733408Y-96145289D01*
X106725583Y-96152986D01*
X106717311Y-96160321D01*
X106708593Y-96167297D01*
X106699428Y-96173911D01*
X106689817Y-96180165D01*
X106686514Y-96182170D01*
X106676390Y-96187791D01*
X106667600Y-96192108D01*
X106658487Y-96196092D01*
X106649052Y-96199741D01*
X106639296Y-96203056D01*
X106629217Y-96206038D01*
X106627163Y-96206594D01*
X106616662Y-96209197D01*
X106605768Y-96211360D01*
X106594480Y-96213081D01*
X106582798Y-96214360D01*
X106570723Y-96215199D01*
X106560780Y-96215552D01*
X106553157Y-96215631D01*
X106541255Y-96215414D01*
X106529547Y-96214764D01*
X106518031Y-96213680D01*
X106506709Y-96212162D01*
X106495580Y-96210211D01*
X106484644Y-96207826D01*
X106473902Y-96205007D01*
X106463352Y-96201755D01*
X106452996Y-96198069D01*
X106442833Y-96193950D01*
X106436165Y-96190963D01*
X106426404Y-96186122D01*
X106416905Y-96180853D01*
X106407668Y-96175154D01*
X106398693Y-96169026D01*
X106389979Y-96162469D01*
X106381528Y-96155482D01*
X106373338Y-96148066D01*
X106365411Y-96140221D01*
X106357745Y-96131946D01*
X106350341Y-96123242D01*
X106345551Y-96117201D01*
X106338646Y-96107744D01*
X106332038Y-96097875D01*
X106325726Y-96087594D01*
X106319711Y-96076901D01*
X106313991Y-96065796D01*
X106308568Y-96054278D01*
X106303441Y-96042348D01*
X106298610Y-96030006D01*
X106294076Y-96017252D01*
X106289838Y-96004086D01*
X106287177Y-95995080D01*
X106283510Y-95981229D01*
X106280204Y-95966970D01*
X106278201Y-95957237D01*
X106276358Y-95947324D01*
X106274675Y-95937229D01*
X106273152Y-95926952D01*
X106271789Y-95916495D01*
X106270587Y-95905856D01*
X106269545Y-95895036D01*
X106268664Y-95884034D01*
X106267943Y-95872851D01*
X106267382Y-95861488D01*
X106266981Y-95849942D01*
X106266740Y-95838216D01*
X106266668Y-95827529D01*
X106395865Y-95827529D01*
X106396035Y-95845195D01*
X106396544Y-95862288D01*
X106397393Y-95878809D01*
X106398582Y-95894757D01*
X106400110Y-95910133D01*
X106401979Y-95924936D01*
X106404186Y-95939167D01*
X106406734Y-95952826D01*
X106409621Y-95965912D01*
X106412847Y-95978425D01*
X106416414Y-95990367D01*
X106420320Y-96001735D01*
X106424565Y-96012532D01*
X106429151Y-96022756D01*
X106434075Y-96032407D01*
X106439340Y-96041486D01*
X106445002Y-96050004D01*
X106451056Y-96057972D01*
X106457504Y-96065391D01*
X106467912Y-96075489D01*
X106479205Y-96084351D01*
X106491382Y-96091975D01*
X106504444Y-96098364D01*
X106513643Y-96101936D01*
X106523236Y-96104959D01*
X106533221Y-96107431D01*
X106543599Y-96109355D01*
X106554371Y-96110729D01*
X106565535Y-96111553D01*
X106577093Y-96111828D01*
X106589904Y-96111584D01*
X106602204Y-96110851D01*
X106613993Y-96109630D01*
X106625270Y-96107920D01*
X106636036Y-96105722D01*
X106646290Y-96103035D01*
X106656033Y-96099860D01*
X106665265Y-96096196D01*
X106674084Y-96091972D01*
X106684497Y-96085972D01*
X106694229Y-96079173D01*
X106703282Y-96071575D01*
X106711656Y-96063178D01*
X106719349Y-96053982D01*
X106723639Y-96048080D01*
X106729069Y-96039711D01*
X106734126Y-96030846D01*
X106738808Y-96021485D01*
X106743117Y-96011627D01*
X106747052Y-96001274D01*
X106750612Y-95990424D01*
X106753799Y-95979078D01*
X106756612Y-95967236D01*
X106759153Y-95954894D01*
X106761405Y-95942049D01*
X106762903Y-95932084D01*
X106764238Y-95921836D01*
X106765410Y-95911304D01*
X106766419Y-95900489D01*
X106767265Y-95889391D01*
X106767948Y-95878009D01*
X106768467Y-95866344D01*
X106768824Y-95854396D01*
X106768824Y-95826308D01*
X106768742Y-95813437D01*
X106768497Y-95800837D01*
X106768089Y-95788507D01*
X106767518Y-95776448D01*
X106766784Y-95764659D01*
X106765887Y-95753141D01*
X106764827Y-95741893D01*
X106763603Y-95730916D01*
X106762216Y-95720209D01*
X106760666Y-95709773D01*
X106759542Y-95702965D01*
X106757686Y-95692997D01*
X106755598Y-95683333D01*
X106752454Y-95670923D01*
X106748897Y-95659054D01*
X106744928Y-95647727D01*
X106740547Y-95636942D01*
X106735754Y-95626700D01*
X106730548Y-95616999D01*
X106727791Y-95612351D01*
X106722002Y-95603471D01*
X106715747Y-95595147D01*
X106709026Y-95587381D01*
X106701840Y-95580172D01*
X106694188Y-95573520D01*
X106686071Y-95567426D01*
X106677488Y-95561888D01*
X106668440Y-95556908D01*
X106658926Y-95552443D01*
X106648824Y-95548573D01*
X106638135Y-95545299D01*
X106626857Y-95542620D01*
X106614993Y-95540536D01*
X106602540Y-95539048D01*
X106589500Y-95538155D01*
X106579334Y-95537876D01*
X106575872Y-95537857D01*
X106564462Y-95538150D01*
X106553436Y-95539029D01*
X106542793Y-95540493D01*
X106532534Y-95542544D01*
X106522658Y-95545180D01*
X106513166Y-95548402D01*
X106504058Y-95552209D01*
X106491114Y-95559019D01*
X106479033Y-95567147D01*
X106467816Y-95576593D01*
X106460816Y-95583623D01*
X106454201Y-95591238D01*
X106447969Y-95599439D01*
X106442120Y-95608227D01*
X106439340Y-95612840D01*
X106434075Y-95622437D01*
X106429151Y-95632543D01*
X106424565Y-95643159D01*
X106420320Y-95654285D01*
X106416414Y-95665920D01*
X106412847Y-95678064D01*
X106409621Y-95690718D01*
X106406734Y-95703881D01*
X106404186Y-95717554D01*
X106401979Y-95731736D01*
X106400110Y-95746428D01*
X106398582Y-95761629D01*
X106397393Y-95777340D01*
X106396544Y-95793560D01*
X106396035Y-95810290D01*
X106395865Y-95827529D01*
X106266668Y-95827529D01*
X106266660Y-95826308D01*
X106266740Y-95814281D01*
X106266981Y-95802441D01*
X106267382Y-95790788D01*
X106267943Y-95779322D01*
X106268664Y-95768043D01*
X106269545Y-95756951D01*
X106270587Y-95746046D01*
X106271789Y-95735327D01*
X106273152Y-95724796D01*
X106274675Y-95714452D01*
X106276358Y-95704295D01*
X106278201Y-95694325D01*
X106280204Y-95684542D01*
X106282368Y-95674946D01*
X106285915Y-95660903D01*
X106287177Y-95656315D01*
X106291217Y-95642787D01*
X106295554Y-95629679D01*
X106300188Y-95616992D01*
X106305117Y-95604726D01*
X106310343Y-95592881D01*
X106315865Y-95581456D01*
X106321683Y-95570453D01*
X106327797Y-95559870D01*
X106334208Y-95549707D01*
X106340915Y-95539966D01*
X106345551Y-95533705D01*
X106352780Y-95524625D01*
X106360271Y-95515979D01*
X106368024Y-95507767D01*
X106376039Y-95499988D01*
X106384316Y-95492643D01*
X106392855Y-95485731D01*
X106401655Y-95479253D01*
X106410718Y-95473209D01*
X106420042Y-95467598D01*
X106429629Y-95462421D01*
X106436165Y-95459211D01*
X106446199Y-95454715D01*
X106456427Y-95450661D01*
X106466847Y-95447050D01*
X106477461Y-95443881D01*
X106488268Y-95441154D01*
X106499268Y-95438869D01*
X106510462Y-95437027D01*
X106521848Y-95435626D01*
X106533428Y-95434668D01*
X106545201Y-95434152D01*
X106553157Y-95434054D01*
X106563175Y-95434195D01*
X106572956Y-95434619D01*
X106584850Y-95435545D01*
X106596374Y-95436913D01*
X106607528Y-95438722D01*
X106618313Y-95440973D01*
X106626674Y-95443091D01*
X106636817Y-95445994D01*
X106646638Y-95449207D01*
X106656137Y-95452729D01*
X106665314Y-95456562D01*
X106674169Y-95460706D01*
X106684370Y-95466086D01*
X106686025Y-95467027D01*
X106695711Y-95472877D01*
X106704985Y-95479071D01*
X106713846Y-95485608D01*
X106722295Y-95492489D01*
X106730332Y-95499713D01*
X106732920Y-95502198D01*
X106740508Y-95509694D01*
X106747700Y-95517345D01*
X106754498Y-95525150D01*
X106760901Y-95533110D01*
X106766909Y-95541224D01*
X106768824Y-95543963D01*
X106777128Y-95543963D01*
X106776178Y-95533917D01*
X106775251Y-95524081D01*
X106774221Y-95513098D01*
X106773221Y-95502389D01*
X106772976Y-95499755D01*
X106772151Y-95489668D01*
X106771327Y-95479465D01*
X106770503Y-95469146D01*
X106770045Y-95463363D01*
X106769455Y-95453422D01*
X106768995Y-95443003D01*
X106768824Y-95433810D01*
X106768824Y-95137055D01*
X106893876Y-95137055D01*
X106893876Y-96200000D01*
G37*
G36*
X93217588Y-96879650D02*
G01*
X93228726Y-96879859D01*
X93239678Y-96880208D01*
X93250444Y-96880695D01*
X93261023Y-96881322D01*
X93271415Y-96882088D01*
X93281621Y-96882994D01*
X93291641Y-96884038D01*
X93301474Y-96885222D01*
X93320580Y-96888008D01*
X93338940Y-96891351D01*
X93356554Y-96895251D01*
X93373422Y-96899709D01*
X93389544Y-96904724D01*
X93404920Y-96910295D01*
X93419550Y-96916424D01*
X93433433Y-96923110D01*
X93446571Y-96930354D01*
X93458963Y-96938154D01*
X93470608Y-96946512D01*
X93476151Y-96950900D01*
X93486710Y-96960101D01*
X93496587Y-96969874D01*
X93505784Y-96980220D01*
X93514299Y-96991139D01*
X93522133Y-97002630D01*
X93529285Y-97014693D01*
X93535757Y-97027329D01*
X93541547Y-97040537D01*
X93546656Y-97054317D01*
X93551084Y-97068671D01*
X93554831Y-97083596D01*
X93557896Y-97099094D01*
X93560280Y-97115164D01*
X93561983Y-97131807D01*
X93563005Y-97149023D01*
X93563346Y-97166810D01*
X93563198Y-97177987D01*
X93562753Y-97188892D01*
X93562013Y-97199528D01*
X93560976Y-97209893D01*
X93559643Y-97219987D01*
X93558013Y-97229811D01*
X93555380Y-97242488D01*
X93552220Y-97254685D01*
X93548534Y-97266401D01*
X93546493Y-97272079D01*
X93542108Y-97283116D01*
X93537380Y-97293756D01*
X93532308Y-97303999D01*
X93526892Y-97313845D01*
X93521134Y-97323294D01*
X93515031Y-97332346D01*
X93508586Y-97341001D01*
X93501796Y-97349260D01*
X93494771Y-97357152D01*
X93487493Y-97364708D01*
X93479963Y-97371929D01*
X93472182Y-97378813D01*
X93464149Y-97385362D01*
X93455864Y-97391575D01*
X93447326Y-97397452D01*
X93438538Y-97402993D01*
X93429588Y-97408191D01*
X93420570Y-97413160D01*
X93411484Y-97417900D01*
X93402329Y-97422411D01*
X93393105Y-97426692D01*
X93383812Y-97430745D01*
X93374450Y-97434569D01*
X93365020Y-97438164D01*
X93638328Y-97880000D01*
X93487875Y-97880000D01*
X93246807Y-97473579D01*
X93089515Y-97473579D01*
X93089515Y-97880000D01*
X92961775Y-97880000D01*
X92961775Y-96988757D01*
X93089515Y-96988757D01*
X93089515Y-97364403D01*
X93202110Y-97364403D01*
X93213534Y-97364296D01*
X93224630Y-97363974D01*
X93235401Y-97363437D01*
X93245845Y-97362686D01*
X93255963Y-97361720D01*
X93265755Y-97360539D01*
X93278303Y-97358631D01*
X93290271Y-97356341D01*
X93301658Y-97353670D01*
X93307135Y-97352191D01*
X93317702Y-97348954D01*
X93327789Y-97345352D01*
X93337394Y-97341383D01*
X93346519Y-97337048D01*
X93355163Y-97332346D01*
X93365292Y-97325954D01*
X93374669Y-97318989D01*
X93378210Y-97316043D01*
X93386541Y-97308277D01*
X93394133Y-97299938D01*
X93400986Y-97291027D01*
X93407099Y-97281543D01*
X93412473Y-97271488D01*
X93417107Y-97260859D01*
X93418754Y-97256448D01*
X93422413Y-97245000D01*
X93424893Y-97235404D01*
X93426977Y-97225418D01*
X93428664Y-97215044D01*
X93429954Y-97204280D01*
X93430847Y-97193127D01*
X93431343Y-97181584D01*
X93431454Y-97172672D01*
X93431233Y-97160452D01*
X93430569Y-97148706D01*
X93429462Y-97137433D01*
X93427913Y-97126632D01*
X93425921Y-97116306D01*
X93423486Y-97106452D01*
X93420609Y-97097071D01*
X93417288Y-97088164D01*
X93412580Y-97077560D01*
X93407156Y-97067575D01*
X93401017Y-97058211D01*
X93394162Y-97049467D01*
X93386591Y-97041343D01*
X93378305Y-97033839D01*
X93374790Y-97031011D01*
X93365490Y-97024364D01*
X93355451Y-97018313D01*
X93344672Y-97012858D01*
X93335517Y-97008923D01*
X93325889Y-97005370D01*
X93315787Y-97002199D01*
X93305212Y-96999409D01*
X93302494Y-96998771D01*
X93291374Y-96996424D01*
X93279749Y-96994390D01*
X93267621Y-96992669D01*
X93254989Y-96991261D01*
X93245184Y-96990410D01*
X93235097Y-96989735D01*
X93224725Y-96989237D01*
X93214071Y-96988914D01*
X93203133Y-96988767D01*
X93199424Y-96988757D01*
X93089515Y-96988757D01*
X92961775Y-96988757D01*
X92961775Y-96879581D01*
X93206263Y-96879581D01*
X93217588Y-96879650D01*
G37*
G36*
X94052719Y-97114269D02*
G01*
X94065089Y-97114913D01*
X94077219Y-97115986D01*
X94089109Y-97117489D01*
X94100758Y-97119421D01*
X94112167Y-97121782D01*
X94123335Y-97124573D01*
X94134263Y-97127793D01*
X94144951Y-97131442D01*
X94155398Y-97135521D01*
X94162229Y-97138478D01*
X94172293Y-97143236D01*
X94182061Y-97148350D01*
X94191533Y-97153820D01*
X94200709Y-97159647D01*
X94209588Y-97165830D01*
X94218171Y-97172370D01*
X94226458Y-97179266D01*
X94234449Y-97186518D01*
X94242143Y-97194126D01*
X94249541Y-97202091D01*
X94254309Y-97207599D01*
X94261252Y-97216093D01*
X94267887Y-97224904D01*
X94274213Y-97234033D01*
X94280229Y-97243480D01*
X94285936Y-97253244D01*
X94291334Y-97263326D01*
X94296423Y-97273726D01*
X94301203Y-97284444D01*
X94305674Y-97295479D01*
X94309836Y-97306832D01*
X94312438Y-97314577D01*
X94316061Y-97326373D01*
X94319328Y-97338405D01*
X94322238Y-97350673D01*
X94324792Y-97363178D01*
X94326989Y-97375918D01*
X94328830Y-97388895D01*
X94330315Y-97402108D01*
X94331444Y-97415556D01*
X94332216Y-97429241D01*
X94332631Y-97443163D01*
X94332711Y-97452575D01*
X94332711Y-97530488D01*
X93857414Y-97530488D01*
X93858033Y-97546673D01*
X93859036Y-97562316D01*
X93860422Y-97577417D01*
X93862192Y-97591976D01*
X93864345Y-97605993D01*
X93866882Y-97619469D01*
X93869803Y-97632402D01*
X93873107Y-97644794D01*
X93876794Y-97656643D01*
X93880865Y-97667951D01*
X93885320Y-97678717D01*
X93890158Y-97688941D01*
X93895379Y-97698622D01*
X93900985Y-97707762D01*
X93906973Y-97716361D01*
X93913346Y-97724417D01*
X93920110Y-97731929D01*
X93927275Y-97738957D01*
X93934841Y-97745500D01*
X93942807Y-97751558D01*
X93951175Y-97757132D01*
X93959943Y-97762221D01*
X93969111Y-97766825D01*
X93978681Y-97770945D01*
X93988651Y-97774580D01*
X93999021Y-97777730D01*
X94009793Y-97780396D01*
X94020965Y-97782577D01*
X94032538Y-97784273D01*
X94044512Y-97785485D01*
X94056886Y-97786212D01*
X94069661Y-97786454D01*
X94080450Y-97786371D01*
X94090989Y-97786121D01*
X94101278Y-97785703D01*
X94111316Y-97785119D01*
X94121104Y-97784367D01*
X94132518Y-97783245D01*
X94134385Y-97783035D01*
X94145574Y-97781641D01*
X94156608Y-97780024D01*
X94167487Y-97778184D01*
X94178212Y-97776120D01*
X94188782Y-97773833D01*
X94192271Y-97773021D01*
X94202644Y-97770437D01*
X94212879Y-97767629D01*
X94222977Y-97764598D01*
X94232937Y-97761343D01*
X94242761Y-97757866D01*
X94246004Y-97756657D01*
X94255830Y-97752816D01*
X94265708Y-97748803D01*
X94275637Y-97744618D01*
X94285618Y-97740262D01*
X94295650Y-97735734D01*
X94299005Y-97734187D01*
X94299005Y-97845561D01*
X94288773Y-97850304D01*
X94278592Y-97854823D01*
X94268462Y-97859120D01*
X94258384Y-97863193D01*
X94248358Y-97867042D01*
X94245027Y-97868276D01*
X94235084Y-97871728D01*
X94225038Y-97874939D01*
X94214888Y-97877910D01*
X94204636Y-97880641D01*
X94194280Y-97883131D01*
X94190806Y-97883907D01*
X94180295Y-97886160D01*
X94169648Y-97888155D01*
X94158863Y-97889892D01*
X94147941Y-97891372D01*
X94136881Y-97892594D01*
X94133164Y-97892944D01*
X94121801Y-97893857D01*
X94112043Y-97894474D01*
X94102023Y-97894959D01*
X94091741Y-97895314D01*
X94081196Y-97895537D01*
X94070389Y-97895628D01*
X94068196Y-97895631D01*
X94054159Y-97895408D01*
X94040349Y-97894738D01*
X94026767Y-97893622D01*
X94013413Y-97892059D01*
X94000286Y-97890050D01*
X93987387Y-97887594D01*
X93974715Y-97884692D01*
X93962271Y-97881343D01*
X93950054Y-97877548D01*
X93938065Y-97873306D01*
X93930198Y-97870230D01*
X93918627Y-97865263D01*
X93907361Y-97859889D01*
X93896399Y-97854106D01*
X93885742Y-97847916D01*
X93875390Y-97841318D01*
X93865343Y-97834312D01*
X93855601Y-97826898D01*
X93846164Y-97819076D01*
X93837031Y-97810847D01*
X93828203Y-97802209D01*
X93822487Y-97796224D01*
X93814239Y-97786861D01*
X93806347Y-97777090D01*
X93798812Y-97766911D01*
X93791633Y-97756325D01*
X93784810Y-97745330D01*
X93778343Y-97733928D01*
X93772233Y-97722118D01*
X93766479Y-97709900D01*
X93761082Y-97697274D01*
X93756041Y-97684240D01*
X93752878Y-97675324D01*
X93748470Y-97661588D01*
X93744495Y-97647492D01*
X93742086Y-97637894D01*
X93739869Y-97628136D01*
X93737846Y-97618217D01*
X93736015Y-97608138D01*
X93734377Y-97597899D01*
X93732931Y-97587500D01*
X93731679Y-97576940D01*
X93730619Y-97566220D01*
X93729751Y-97555340D01*
X93729077Y-97544299D01*
X93728595Y-97533098D01*
X93728306Y-97521737D01*
X93728210Y-97510216D01*
X93728298Y-97498631D01*
X93728564Y-97487200D01*
X93729008Y-97475924D01*
X93729629Y-97464802D01*
X93730428Y-97453835D01*
X93731404Y-97443022D01*
X93732557Y-97432364D01*
X93733277Y-97426685D01*
X93860101Y-97426685D01*
X94198133Y-97426685D01*
X94197988Y-97415148D01*
X94197553Y-97403863D01*
X94196828Y-97392830D01*
X94195812Y-97382049D01*
X94194507Y-97371520D01*
X94192912Y-97361243D01*
X94191027Y-97351218D01*
X94188852Y-97341444D01*
X94186371Y-97331972D01*
X94182819Y-97320626D01*
X94178767Y-97309828D01*
X94174214Y-97299579D01*
X94169159Y-97289878D01*
X94163604Y-97280726D01*
X94160031Y-97275498D01*
X94153662Y-97267184D01*
X94146769Y-97259489D01*
X94139351Y-97252415D01*
X94131409Y-97245960D01*
X94122941Y-97240126D01*
X94113949Y-97234912D01*
X94110205Y-97233000D01*
X94100443Y-97228638D01*
X94090084Y-97225015D01*
X94079129Y-97222131D01*
X94067577Y-97219987D01*
X94055430Y-97218582D01*
X94045282Y-97217990D01*
X94037421Y-97217857D01*
X94023008Y-97218327D01*
X94009171Y-97219738D01*
X93995909Y-97222088D01*
X93983222Y-97225379D01*
X93971110Y-97229610D01*
X93959574Y-97234781D01*
X93948613Y-97240893D01*
X93938228Y-97247945D01*
X93928418Y-97255937D01*
X93919183Y-97264869D01*
X93913346Y-97271346D01*
X93905117Y-97281759D01*
X93897558Y-97293031D01*
X93890668Y-97305161D01*
X93884449Y-97318149D01*
X93880674Y-97327286D01*
X93877198Y-97336803D01*
X93874019Y-97346703D01*
X93871137Y-97356984D01*
X93868554Y-97367647D01*
X93866268Y-97378691D01*
X93864280Y-97390117D01*
X93862589Y-97401925D01*
X93861196Y-97414114D01*
X93860101Y-97426685D01*
X93733277Y-97426685D01*
X93733888Y-97421861D01*
X93735397Y-97411512D01*
X93737082Y-97401318D01*
X93738946Y-97391278D01*
X93740987Y-97381393D01*
X93743205Y-97371662D01*
X93745600Y-97362086D01*
X93749527Y-97348012D01*
X93750924Y-97343398D01*
X93755344Y-97329811D01*
X93760086Y-97316619D01*
X93765150Y-97303822D01*
X93770536Y-97291420D01*
X93776244Y-97279413D01*
X93782274Y-97267801D01*
X93788626Y-97256584D01*
X93795300Y-97245762D01*
X93802296Y-97235335D01*
X93809614Y-97225303D01*
X93814672Y-97218834D01*
X93822553Y-97209434D01*
X93830717Y-97200467D01*
X93839165Y-97191934D01*
X93847896Y-97183835D01*
X93856911Y-97176169D01*
X93866209Y-97168937D01*
X93875790Y-97162139D01*
X93885655Y-97155774D01*
X93895803Y-97149842D01*
X93906234Y-97144345D01*
X93913346Y-97140921D01*
X93924213Y-97136119D01*
X93935290Y-97131790D01*
X93946578Y-97127933D01*
X93958076Y-97124549D01*
X93969785Y-97121636D01*
X93981704Y-97119196D01*
X93993833Y-97117229D01*
X94006173Y-97115733D01*
X94018723Y-97114710D01*
X94031484Y-97114159D01*
X94040108Y-97114054D01*
X94052719Y-97114269D01*
G37*
G36*
X94657554Y-97880000D02*
G01*
X94399877Y-97129685D01*
X94529082Y-97129685D01*
X94665614Y-97547096D01*
X94669055Y-97557558D01*
X94672209Y-97567530D01*
X94675552Y-97578430D01*
X94678482Y-97588221D01*
X94681544Y-97598656D01*
X94683443Y-97605226D01*
X94686719Y-97616335D01*
X94689983Y-97627528D01*
X94693236Y-97638804D01*
X94696476Y-97650163D01*
X94699704Y-97661606D01*
X94702921Y-97673132D01*
X94704204Y-97677766D01*
X94707368Y-97689190D01*
X94710448Y-97700411D01*
X94713445Y-97711430D01*
X94716359Y-97722245D01*
X94719189Y-97732858D01*
X94721935Y-97743268D01*
X94723011Y-97747376D01*
X94725539Y-97757222D01*
X94728195Y-97768029D01*
X94730439Y-97777738D01*
X94732536Y-97787676D01*
X94734246Y-97797201D01*
X94739131Y-97797201D01*
X94741441Y-97786348D01*
X94743771Y-97776196D01*
X94746141Y-97766304D01*
X94748855Y-97755314D01*
X94750854Y-97747376D01*
X94753497Y-97737047D01*
X94756235Y-97726515D01*
X94759069Y-97715780D01*
X94761998Y-97704843D01*
X94765022Y-97693703D01*
X94768142Y-97682360D01*
X94769417Y-97677766D01*
X94772622Y-97666207D01*
X94775828Y-97654730D01*
X94779034Y-97643337D01*
X94782240Y-97632028D01*
X94785445Y-97620802D01*
X94788651Y-97609660D01*
X94789933Y-97605226D01*
X94793073Y-97594405D01*
X94796082Y-97584227D01*
X94798960Y-97574694D01*
X94802240Y-97564103D01*
X94805331Y-97554440D01*
X94807763Y-97547096D01*
X94944539Y-97129685D01*
X95073743Y-97129685D01*
X94816067Y-97880000D01*
X94657554Y-97880000D01*
G37*
G36*
X95921999Y-97880000D02*
G01*
X95801099Y-97880000D01*
X95801099Y-97262554D01*
X95801107Y-97251508D01*
X95801133Y-97240171D01*
X95801176Y-97228542D01*
X95801225Y-97218628D01*
X95801286Y-97208511D01*
X95801343Y-97200272D01*
X95801507Y-97189891D01*
X95801696Y-97179511D01*
X95801908Y-97169131D01*
X95802144Y-97158750D01*
X95802404Y-97148370D01*
X95802688Y-97137990D01*
X95802808Y-97133838D01*
X95803114Y-97123453D01*
X95803419Y-97113211D01*
X95803724Y-97103112D01*
X95804030Y-97093156D01*
X95804335Y-97083343D01*
X95804701Y-97071757D01*
X95804762Y-97069846D01*
X95805120Y-97058572D01*
X95805461Y-97047830D01*
X95805784Y-97037620D01*
X95806140Y-97026382D01*
X95806472Y-97015868D01*
X95799536Y-97023191D01*
X95792457Y-97030529D01*
X95785956Y-97037117D01*
X95778731Y-97044339D01*
X95771345Y-97051319D01*
X95767882Y-97054459D01*
X95760139Y-97061209D01*
X95752634Y-97067798D01*
X95748098Y-97071800D01*
X95740555Y-97078556D01*
X95732846Y-97085349D01*
X95725214Y-97091993D01*
X95723429Y-97093538D01*
X95621824Y-97176580D01*
X95555879Y-97090118D01*
X95818928Y-96879581D01*
X95921999Y-96879581D01*
X95921999Y-97880000D01*
G37*
G36*
X96305216Y-97801598D02*
G01*
X96305543Y-97790752D01*
X96306525Y-97780654D01*
X96308448Y-97770029D01*
X96311226Y-97760382D01*
X96312055Y-97758122D01*
X96316288Y-97748634D01*
X96321294Y-97740228D01*
X96327762Y-97732156D01*
X96330617Y-97729302D01*
X96338326Y-97722900D01*
X96346798Y-97717738D01*
X96356034Y-97713817D01*
X96357972Y-97713182D01*
X96368157Y-97710477D01*
X96378866Y-97708774D01*
X96388954Y-97708098D01*
X96392411Y-97708053D01*
X96402423Y-97708458D01*
X96412126Y-97709675D01*
X96422544Y-97711980D01*
X96426605Y-97713182D01*
X96436250Y-97716855D01*
X96445037Y-97721768D01*
X96452966Y-97727922D01*
X96454448Y-97729302D01*
X96461298Y-97736839D01*
X96467195Y-97745712D01*
X96471685Y-97754839D01*
X96473011Y-97758122D01*
X96476003Y-97767526D01*
X96478140Y-97777906D01*
X96479309Y-97787790D01*
X96479823Y-97798422D01*
X96479849Y-97801598D01*
X96479522Y-97812063D01*
X96478540Y-97821874D01*
X96476617Y-97832284D01*
X96473839Y-97841840D01*
X96473011Y-97844096D01*
X96468777Y-97853623D01*
X96463771Y-97862145D01*
X96457303Y-97870436D01*
X96454448Y-97873405D01*
X96446692Y-97879983D01*
X96438076Y-97885369D01*
X96428602Y-97889562D01*
X96426605Y-97890258D01*
X96416339Y-97893091D01*
X96405691Y-97894875D01*
X96395782Y-97895584D01*
X96392411Y-97895631D01*
X96382182Y-97895206D01*
X96372378Y-97893931D01*
X96361983Y-97891517D01*
X96357972Y-97890258D01*
X96348584Y-97886303D01*
X96339959Y-97881156D01*
X96332098Y-97874816D01*
X96330617Y-97873405D01*
X96323767Y-97865610D01*
X96317871Y-97856575D01*
X96313380Y-97847383D01*
X96312055Y-97844096D01*
X96309063Y-97834754D01*
X96306926Y-97824556D01*
X96305643Y-97813504D01*
X96305223Y-97803133D01*
X96305216Y-97801598D01*
G37*
G36*
X96976525Y-96864085D02*
G01*
X96986501Y-96864491D01*
X96996309Y-96865169D01*
X97010706Y-96866693D01*
X97024725Y-96868826D01*
X97038366Y-96871570D01*
X97051630Y-96874923D01*
X97064515Y-96878886D01*
X97077023Y-96883458D01*
X97089153Y-96888640D01*
X97100906Y-96894432D01*
X97108531Y-96898632D01*
X97119705Y-96905368D01*
X97130515Y-96912662D01*
X97140960Y-96920515D01*
X97151040Y-96928925D01*
X97160755Y-96937894D01*
X97170106Y-96947421D01*
X97179091Y-96957506D01*
X97187711Y-96968149D01*
X97195966Y-96979351D01*
X97203857Y-96991110D01*
X97208914Y-96999260D01*
X97216203Y-97011932D01*
X97220867Y-97020672D01*
X97225374Y-97029644D01*
X97229724Y-97038849D01*
X97233918Y-97048286D01*
X97237956Y-97057957D01*
X97241837Y-97067860D01*
X97245562Y-97077996D01*
X97249130Y-97088365D01*
X97252542Y-97098967D01*
X97255797Y-97109801D01*
X97258896Y-97120868D01*
X97261838Y-97132168D01*
X97264624Y-97143701D01*
X97267254Y-97155467D01*
X97268510Y-97161437D01*
X97270935Y-97173538D01*
X97273204Y-97185842D01*
X97275316Y-97198351D01*
X97277272Y-97211064D01*
X97279071Y-97223981D01*
X97280714Y-97237103D01*
X97282201Y-97250428D01*
X97283531Y-97263958D01*
X97284704Y-97277692D01*
X97285721Y-97291630D01*
X97286582Y-97305772D01*
X97287286Y-97320119D01*
X97287833Y-97334669D01*
X97288225Y-97349424D01*
X97288459Y-97364383D01*
X97288538Y-97379546D01*
X97288469Y-97394591D01*
X97288263Y-97409439D01*
X97287919Y-97424091D01*
X97287438Y-97438546D01*
X97286820Y-97452804D01*
X97286065Y-97466867D01*
X97285172Y-97480732D01*
X97284141Y-97494401D01*
X97282973Y-97507874D01*
X97281668Y-97521150D01*
X97280226Y-97534229D01*
X97278646Y-97547112D01*
X97276928Y-97559798D01*
X97275074Y-97572288D01*
X97273082Y-97584581D01*
X97270952Y-97596678D01*
X97268700Y-97608562D01*
X97266281Y-97620217D01*
X97263693Y-97631643D01*
X97260938Y-97642840D01*
X97258015Y-97653808D01*
X97254924Y-97664547D01*
X97251664Y-97675057D01*
X97248237Y-97685338D01*
X97244643Y-97695390D01*
X97240880Y-97705213D01*
X97236949Y-97714807D01*
X97232850Y-97724173D01*
X97228584Y-97733309D01*
X97224149Y-97742216D01*
X97219547Y-97750894D01*
X97214776Y-97759344D01*
X97207297Y-97771523D01*
X97199423Y-97783149D01*
X97191154Y-97794220D01*
X97182490Y-97804738D01*
X97173431Y-97814702D01*
X97163977Y-97824113D01*
X97154129Y-97832969D01*
X97143885Y-97841272D01*
X97133246Y-97849020D01*
X97122212Y-97856215D01*
X97114637Y-97860704D01*
X97102958Y-97866946D01*
X97090820Y-97872574D01*
X97078223Y-97877588D01*
X97065166Y-97881988D01*
X97051650Y-97885774D01*
X97037674Y-97888946D01*
X97023239Y-97891504D01*
X97013361Y-97892868D01*
X97003278Y-97893960D01*
X96992992Y-97894778D01*
X96982501Y-97895324D01*
X96971805Y-97895597D01*
X96966381Y-97895631D01*
X96956327Y-97895495D01*
X96946437Y-97895085D01*
X96931910Y-97893960D01*
X96917752Y-97892220D01*
X96903963Y-97889867D01*
X96890544Y-97886899D01*
X96877494Y-97883318D01*
X96864812Y-97879123D01*
X96852501Y-97874313D01*
X96840558Y-97868890D01*
X96828985Y-97862853D01*
X96825209Y-97860704D01*
X96814123Y-97853879D01*
X96803399Y-97846499D01*
X96793035Y-97838566D01*
X96783031Y-97830079D01*
X96773388Y-97821038D01*
X96764106Y-97811443D01*
X96755185Y-97801294D01*
X96746624Y-97790591D01*
X96738423Y-97779335D01*
X96730584Y-97767525D01*
X96725558Y-97759344D01*
X96718315Y-97746584D01*
X96713682Y-97737791D01*
X96709205Y-97728769D01*
X96704885Y-97719519D01*
X96700722Y-97710039D01*
X96696715Y-97700330D01*
X96692864Y-97690393D01*
X96689170Y-97680226D01*
X96685632Y-97669830D01*
X96682251Y-97659206D01*
X96679026Y-97648352D01*
X96675958Y-97637270D01*
X96673046Y-97625958D01*
X96670291Y-97614418D01*
X96667692Y-97602648D01*
X96666451Y-97596678D01*
X96664085Y-97584581D01*
X96661871Y-97572288D01*
X96659811Y-97559798D01*
X96657903Y-97547112D01*
X96656147Y-97534229D01*
X96654544Y-97521150D01*
X96653094Y-97507874D01*
X96651796Y-97494401D01*
X96650652Y-97480732D01*
X96649659Y-97466867D01*
X96648820Y-97452804D01*
X96648133Y-97438546D01*
X96647599Y-97424091D01*
X96647217Y-97409439D01*
X96646988Y-97394591D01*
X96646912Y-97379546D01*
X96646914Y-97379057D01*
X96773918Y-97379057D01*
X96773958Y-97391810D01*
X96774078Y-97404359D01*
X96774278Y-97416707D01*
X96774559Y-97428852D01*
X96774920Y-97440796D01*
X96775360Y-97452536D01*
X96775881Y-97464075D01*
X96776482Y-97475411D01*
X96777164Y-97486545D01*
X96777925Y-97497477D01*
X96778766Y-97508207D01*
X96779688Y-97518734D01*
X96780690Y-97529059D01*
X96781772Y-97539182D01*
X96782934Y-97549102D01*
X96784176Y-97558820D01*
X96786209Y-97572975D01*
X96788461Y-97586678D01*
X96790932Y-97599931D01*
X96793621Y-97612733D01*
X96796530Y-97625084D01*
X96799658Y-97636985D01*
X96803004Y-97648434D01*
X96806570Y-97659433D01*
X96810355Y-97669981D01*
X96814358Y-97680078D01*
X96817149Y-97686559D01*
X96821530Y-97695909D01*
X96826156Y-97704817D01*
X96832705Y-97716007D01*
X96839689Y-97726410D01*
X96847108Y-97736027D01*
X96854962Y-97744858D01*
X96863251Y-97752903D01*
X96871975Y-97760161D01*
X96876500Y-97763496D01*
X96885968Y-97769506D01*
X96895932Y-97774716D01*
X96906393Y-97779123D01*
X96917349Y-97782730D01*
X96928802Y-97785535D01*
X96940751Y-97787538D01*
X96953196Y-97788740D01*
X96966137Y-97789141D01*
X96975935Y-97788918D01*
X96988565Y-97787926D01*
X97000699Y-97786140D01*
X97012337Y-97783560D01*
X97023478Y-97780186D01*
X97034124Y-97776019D01*
X97044273Y-97771058D01*
X97053927Y-97765303D01*
X97056263Y-97763740D01*
X97065334Y-97756997D01*
X97073985Y-97749467D01*
X97082217Y-97741151D01*
X97090029Y-97732049D01*
X97097421Y-97722161D01*
X97104394Y-97711487D01*
X97109347Y-97702966D01*
X97114065Y-97694002D01*
X97117079Y-97687780D01*
X97121405Y-97678023D01*
X97125500Y-97667802D01*
X97129362Y-97657117D01*
X97132993Y-97645969D01*
X97136392Y-97634357D01*
X97139559Y-97622281D01*
X97142494Y-97609742D01*
X97145198Y-97596739D01*
X97147669Y-97583272D01*
X97149909Y-97569342D01*
X97151273Y-97559797D01*
X97152574Y-97550046D01*
X97153792Y-97540090D01*
X97154925Y-97529927D01*
X97155975Y-97519558D01*
X97156940Y-97508983D01*
X97157822Y-97498202D01*
X97158619Y-97487215D01*
X97159333Y-97476022D01*
X97159963Y-97464623D01*
X97160508Y-97453017D01*
X97160970Y-97441206D01*
X97161348Y-97429188D01*
X97161642Y-97416965D01*
X97161852Y-97404535D01*
X97161978Y-97391899D01*
X97162020Y-97379057D01*
X97161978Y-97366306D01*
X97161852Y-97353759D01*
X97161642Y-97341416D01*
X97161348Y-97329278D01*
X97160970Y-97317343D01*
X97160508Y-97305613D01*
X97159963Y-97294087D01*
X97159333Y-97282765D01*
X97158619Y-97271647D01*
X97157822Y-97260733D01*
X97156940Y-97250024D01*
X97155975Y-97239518D01*
X97154925Y-97229217D01*
X97153792Y-97219120D01*
X97152574Y-97209228D01*
X97151273Y-97199539D01*
X97149188Y-97185345D01*
X97146871Y-97171615D01*
X97144322Y-97158349D01*
X97141542Y-97145546D01*
X97138529Y-97133207D01*
X97135285Y-97121332D01*
X97131809Y-97109920D01*
X97128101Y-97098972D01*
X97124161Y-97088488D01*
X97119989Y-97078467D01*
X97117079Y-97072044D01*
X97112519Y-97062742D01*
X97107722Y-97053886D01*
X97102690Y-97045477D01*
X97095613Y-97034959D01*
X97088116Y-97025235D01*
X97080199Y-97016305D01*
X97071862Y-97008169D01*
X97063105Y-97000826D01*
X97056263Y-96995840D01*
X97046733Y-96989887D01*
X97036708Y-96984727D01*
X97026186Y-96980362D01*
X97015169Y-96976789D01*
X97003655Y-96974011D01*
X96991645Y-96972027D01*
X96979139Y-96970836D01*
X96966137Y-96970439D01*
X96953196Y-96970836D01*
X96940751Y-96972027D01*
X96928802Y-96974011D01*
X96917349Y-96976789D01*
X96906393Y-96980362D01*
X96895932Y-96984727D01*
X96885968Y-96989887D01*
X96876500Y-96995840D01*
X96867558Y-97002588D01*
X96859052Y-97010129D01*
X96850980Y-97018463D01*
X96843344Y-97027592D01*
X96836143Y-97037514D01*
X96829376Y-97048230D01*
X96824587Y-97056789D01*
X96820043Y-97065793D01*
X96817149Y-97072044D01*
X96812999Y-97081756D01*
X96809069Y-97091931D01*
X96805357Y-97102570D01*
X96801865Y-97113672D01*
X96798591Y-97125239D01*
X96795536Y-97137268D01*
X96792700Y-97149762D01*
X96790084Y-97162719D01*
X96787686Y-97176140D01*
X96785507Y-97190025D01*
X96784176Y-97199539D01*
X96782343Y-97214148D01*
X96781221Y-97224143D01*
X96780179Y-97234342D01*
X96779217Y-97244746D01*
X96778336Y-97255353D01*
X96777534Y-97266165D01*
X96776813Y-97277180D01*
X96776172Y-97288400D01*
X96775611Y-97299824D01*
X96775130Y-97311452D01*
X96774729Y-97323285D01*
X96774409Y-97335321D01*
X96774168Y-97347562D01*
X96774008Y-97360007D01*
X96773928Y-97372656D01*
X96773918Y-97379057D01*
X96646914Y-97379057D01*
X96646979Y-97364472D01*
X96647183Y-97349596D01*
X96647521Y-97334918D01*
X96647995Y-97320439D01*
X96648605Y-97306159D01*
X96649350Y-97292076D01*
X96650231Y-97278193D01*
X96651247Y-97264508D01*
X96652398Y-97251021D01*
X96653685Y-97237732D01*
X96655108Y-97224643D01*
X96656666Y-97211751D01*
X96658360Y-97199058D01*
X96660188Y-97186564D01*
X96662153Y-97174267D01*
X96664253Y-97162170D01*
X96666531Y-97150288D01*
X96668970Y-97138639D01*
X96671569Y-97127222D01*
X96674328Y-97116038D01*
X96677247Y-97105088D01*
X96680327Y-97094369D01*
X96683567Y-97083884D01*
X96686967Y-97073632D01*
X96690528Y-97063612D01*
X96694249Y-97053825D01*
X96698130Y-97044271D01*
X96702172Y-97034950D01*
X96706373Y-97025861D01*
X96710735Y-97017006D01*
X96717579Y-97004158D01*
X96719940Y-96999993D01*
X96727325Y-96987857D01*
X96735101Y-96976270D01*
X96743268Y-96965234D01*
X96751825Y-96954747D01*
X96760773Y-96944809D01*
X96770112Y-96935421D01*
X96779841Y-96926582D01*
X96789962Y-96918293D01*
X96800472Y-96910554D01*
X96811374Y-96903364D01*
X96818859Y-96898876D01*
X96830489Y-96892634D01*
X96842575Y-96887006D01*
X96855116Y-96881992D01*
X96868112Y-96877593D01*
X96881563Y-96873807D01*
X96895469Y-96870634D01*
X96909830Y-96868076D01*
X96919657Y-96866712D01*
X96929686Y-96865621D01*
X96939918Y-96864802D01*
X96950351Y-96864256D01*
X96960987Y-96863983D01*
X96966381Y-96863949D01*
X96976525Y-96864085D01*
G37*
G36*
X101677093Y-97880000D02*
G01*
X101050610Y-97880000D01*
X101050610Y-97772777D01*
X101290945Y-97511926D01*
X101300511Y-97501614D01*
X101309884Y-97491469D01*
X101319064Y-97481492D01*
X101328051Y-97471683D01*
X101336844Y-97462041D01*
X101345445Y-97452566D01*
X101353852Y-97443259D01*
X101362066Y-97434119D01*
X101370086Y-97425147D01*
X101377914Y-97416342D01*
X101383025Y-97410565D01*
X101390519Y-97401975D01*
X101397799Y-97393423D01*
X101404865Y-97384910D01*
X101411716Y-97376436D01*
X101418352Y-97368000D01*
X101424773Y-97359603D01*
X101430980Y-97351245D01*
X101436972Y-97342925D01*
X101442749Y-97334644D01*
X101448312Y-97326401D01*
X101451901Y-97320928D01*
X101458835Y-97309933D01*
X101465350Y-97298931D01*
X101471444Y-97287920D01*
X101477119Y-97276903D01*
X101482374Y-97265878D01*
X101487209Y-97254845D01*
X101491625Y-97243804D01*
X101495621Y-97232756D01*
X101499170Y-97221582D01*
X101502246Y-97210163D01*
X101504848Y-97198501D01*
X101506978Y-97186594D01*
X101508634Y-97174443D01*
X101509817Y-97162048D01*
X101510527Y-97149408D01*
X101510764Y-97136524D01*
X101510580Y-97126659D01*
X101509836Y-97114746D01*
X101508520Y-97103299D01*
X101506631Y-97092316D01*
X101504169Y-97081799D01*
X101501135Y-97071746D01*
X101499040Y-97065938D01*
X101495132Y-97056548D01*
X101490735Y-97047610D01*
X101485849Y-97039126D01*
X101479340Y-97029544D01*
X101472127Y-97020613D01*
X101465579Y-97013670D01*
X101457235Y-97005988D01*
X101448325Y-96999061D01*
X101438848Y-96992890D01*
X101428805Y-96987475D01*
X101418195Y-96982815D01*
X101414532Y-96981430D01*
X101405130Y-96978264D01*
X101395393Y-96975634D01*
X101385323Y-96973541D01*
X101374919Y-96971985D01*
X101364181Y-96970965D01*
X101353109Y-96970482D01*
X101348586Y-96970439D01*
X101336471Y-96970671D01*
X101324578Y-96971366D01*
X101312909Y-96972526D01*
X101301463Y-96974149D01*
X101290240Y-96976235D01*
X101279240Y-96978785D01*
X101268464Y-96981799D01*
X101257911Y-96985277D01*
X101247581Y-96989218D01*
X101237475Y-96993623D01*
X101230861Y-96996817D01*
X101221060Y-97001846D01*
X101211350Y-97007133D01*
X101201729Y-97012677D01*
X101192198Y-97018479D01*
X101182758Y-97024538D01*
X101173408Y-97030855D01*
X101164148Y-97037429D01*
X101154978Y-97044262D01*
X101145898Y-97051351D01*
X101136909Y-97058699D01*
X101130966Y-97063740D01*
X101060868Y-96981919D01*
X101069589Y-96974287D01*
X101078500Y-96966811D01*
X101087601Y-96959489D01*
X101096894Y-96952323D01*
X101106378Y-96945312D01*
X101116052Y-96938456D01*
X101119975Y-96935757D01*
X101129940Y-96929113D01*
X101140144Y-96922767D01*
X101150587Y-96916719D01*
X101161267Y-96910970D01*
X101172187Y-96905518D01*
X101181094Y-96901372D01*
X101187875Y-96898387D01*
X101197038Y-96894522D01*
X101206330Y-96890862D01*
X101215753Y-96887408D01*
X101225305Y-96884160D01*
X101234987Y-96881119D01*
X101244798Y-96878283D01*
X101254740Y-96875654D01*
X101264811Y-96873230D01*
X101275012Y-96871055D01*
X101285343Y-96869170D01*
X101295803Y-96867575D01*
X101306393Y-96866270D01*
X101317113Y-96865254D01*
X101327963Y-96864529D01*
X101338943Y-96864094D01*
X101350052Y-96863949D01*
X101362305Y-96864112D01*
X101374335Y-96864602D01*
X101386142Y-96865418D01*
X101397725Y-96866560D01*
X101409085Y-96868028D01*
X101420222Y-96869823D01*
X101431136Y-96871943D01*
X101441826Y-96874391D01*
X101452293Y-96877164D01*
X101462537Y-96880264D01*
X101469242Y-96882512D01*
X101479084Y-96886090D01*
X101488642Y-96889956D01*
X101497918Y-96894110D01*
X101506909Y-96898552D01*
X101515617Y-96903281D01*
X101524042Y-96908297D01*
X101534835Y-96915434D01*
X101545124Y-96923082D01*
X101554909Y-96931241D01*
X101559612Y-96935512D01*
X101568630Y-96944416D01*
X101577121Y-96953785D01*
X101585086Y-96963619D01*
X101592524Y-96973920D01*
X101599435Y-96984685D01*
X101605820Y-96995917D01*
X101610263Y-97004646D01*
X101614409Y-97013637D01*
X101617009Y-97019776D01*
X101620632Y-97029184D01*
X101623899Y-97038816D01*
X101626809Y-97048670D01*
X101629363Y-97058748D01*
X101631560Y-97069049D01*
X101633401Y-97079574D01*
X101634886Y-97090321D01*
X101636014Y-97101292D01*
X101636787Y-97112486D01*
X101637202Y-97123904D01*
X101637281Y-97131639D01*
X101637120Y-97142535D01*
X101636637Y-97153332D01*
X101635832Y-97164030D01*
X101634705Y-97174630D01*
X101633256Y-97185131D01*
X101631485Y-97195533D01*
X101629392Y-97205836D01*
X101626977Y-97216041D01*
X101624240Y-97226146D01*
X101621181Y-97236153D01*
X101618963Y-97242770D01*
X101615452Y-97252647D01*
X101611696Y-97262493D01*
X101607695Y-97272310D01*
X101603450Y-97282097D01*
X101598960Y-97291853D01*
X101594225Y-97301580D01*
X101589245Y-97311276D01*
X101584021Y-97320943D01*
X101578552Y-97330579D01*
X101572839Y-97340186D01*
X101568893Y-97346573D01*
X101562785Y-97356105D01*
X101556457Y-97365650D01*
X101549910Y-97375207D01*
X101543145Y-97384778D01*
X101536160Y-97394361D01*
X101528957Y-97403958D01*
X101521534Y-97413567D01*
X101513893Y-97423189D01*
X101506033Y-97432824D01*
X101497953Y-97442472D01*
X101492445Y-97448911D01*
X101484092Y-97458564D01*
X101475610Y-97468291D01*
X101466999Y-97478091D01*
X101458259Y-97487963D01*
X101449390Y-97497909D01*
X101440393Y-97507927D01*
X101431267Y-97518018D01*
X101422012Y-97528183D01*
X101412628Y-97538420D01*
X101403116Y-97548731D01*
X101396702Y-97555645D01*
X101203750Y-97760565D01*
X101203750Y-97765938D01*
X101677093Y-97765938D01*
X101677093Y-97880000D01*
G37*
G36*
X102152519Y-96864085D02*
G01*
X102162495Y-96864491D01*
X102172303Y-96865169D01*
X102186700Y-96866693D01*
X102200719Y-96868826D01*
X102214360Y-96871570D01*
X102227624Y-96874923D01*
X102240510Y-96878886D01*
X102253018Y-96883458D01*
X102265148Y-96888640D01*
X102276900Y-96894432D01*
X102284525Y-96898632D01*
X102295700Y-96905368D01*
X102306510Y-96912662D01*
X102316955Y-96920515D01*
X102327035Y-96928925D01*
X102336750Y-96937894D01*
X102346100Y-96947421D01*
X102355085Y-96957506D01*
X102363705Y-96968149D01*
X102371961Y-96979351D01*
X102379851Y-96991110D01*
X102384909Y-96999260D01*
X102392197Y-97011932D01*
X102396861Y-97020672D01*
X102401368Y-97029644D01*
X102405719Y-97038849D01*
X102409913Y-97048286D01*
X102413950Y-97057957D01*
X102417831Y-97067860D01*
X102421556Y-97077996D01*
X102425124Y-97088365D01*
X102428536Y-97098967D01*
X102431791Y-97109801D01*
X102434890Y-97120868D01*
X102437833Y-97132168D01*
X102440619Y-97143701D01*
X102443248Y-97155467D01*
X102444504Y-97161437D01*
X102446929Y-97173538D01*
X102449198Y-97185842D01*
X102451310Y-97198351D01*
X102453266Y-97211064D01*
X102455066Y-97223981D01*
X102456709Y-97237103D01*
X102458195Y-97250428D01*
X102459525Y-97263958D01*
X102460698Y-97277692D01*
X102461716Y-97291630D01*
X102462576Y-97305772D01*
X102463280Y-97320119D01*
X102463828Y-97334669D01*
X102464219Y-97349424D01*
X102464454Y-97364383D01*
X102464532Y-97379546D01*
X102464463Y-97394591D01*
X102464257Y-97409439D01*
X102463914Y-97424091D01*
X102463433Y-97438546D01*
X102462815Y-97452804D01*
X102462059Y-97466867D01*
X102461166Y-97480732D01*
X102460136Y-97494401D01*
X102458968Y-97507874D01*
X102457663Y-97521150D01*
X102456220Y-97534229D01*
X102454640Y-97547112D01*
X102452923Y-97559798D01*
X102451068Y-97572288D01*
X102449076Y-97584581D01*
X102446946Y-97596678D01*
X102444695Y-97608562D01*
X102442275Y-97620217D01*
X102439688Y-97631643D01*
X102436933Y-97642840D01*
X102434009Y-97653808D01*
X102430918Y-97664547D01*
X102427659Y-97675057D01*
X102424232Y-97685338D01*
X102420637Y-97695390D01*
X102416874Y-97705213D01*
X102412943Y-97714807D01*
X102408845Y-97724173D01*
X102404578Y-97733309D01*
X102400143Y-97742216D01*
X102395541Y-97750894D01*
X102390771Y-97759344D01*
X102383292Y-97771523D01*
X102375418Y-97783149D01*
X102367149Y-97794220D01*
X102358485Y-97804738D01*
X102349426Y-97814702D01*
X102339972Y-97824113D01*
X102330123Y-97832969D01*
X102319879Y-97841272D01*
X102309240Y-97849020D01*
X102298206Y-97856215D01*
X102290631Y-97860704D01*
X102278952Y-97866946D01*
X102266815Y-97872574D01*
X102254217Y-97877588D01*
X102241160Y-97881988D01*
X102227644Y-97885774D01*
X102213669Y-97888946D01*
X102199234Y-97891504D01*
X102189355Y-97892868D01*
X102179273Y-97893960D01*
X102168986Y-97894778D01*
X102158495Y-97895324D01*
X102147800Y-97895597D01*
X102142376Y-97895631D01*
X102132322Y-97895495D01*
X102122432Y-97895085D01*
X102107904Y-97893960D01*
X102093747Y-97892220D01*
X102079958Y-97889867D01*
X102066538Y-97886899D01*
X102053488Y-97883318D01*
X102040807Y-97879123D01*
X102028495Y-97874313D01*
X102016552Y-97868890D01*
X102004979Y-97862853D01*
X102001203Y-97860704D01*
X101990118Y-97853879D01*
X101979393Y-97846499D01*
X101969029Y-97838566D01*
X101959026Y-97830079D01*
X101949383Y-97821038D01*
X101940101Y-97811443D01*
X101931179Y-97801294D01*
X101922618Y-97790591D01*
X101914418Y-97779335D01*
X101906578Y-97767525D01*
X101901552Y-97759344D01*
X101894309Y-97746584D01*
X101889676Y-97737791D01*
X101885200Y-97728769D01*
X101880880Y-97719519D01*
X101876716Y-97710039D01*
X101872709Y-97700330D01*
X101868858Y-97690393D01*
X101865164Y-97680226D01*
X101861627Y-97669830D01*
X101858245Y-97659206D01*
X101855021Y-97648352D01*
X101851952Y-97637270D01*
X101849040Y-97625958D01*
X101846285Y-97614418D01*
X101843686Y-97602648D01*
X101842445Y-97596678D01*
X101840079Y-97584581D01*
X101837866Y-97572288D01*
X101835805Y-97559798D01*
X101833897Y-97547112D01*
X101832141Y-97534229D01*
X101830539Y-97521150D01*
X101829088Y-97507874D01*
X101827791Y-97494401D01*
X101826646Y-97480732D01*
X101825654Y-97466867D01*
X101824814Y-97452804D01*
X101824127Y-97438546D01*
X101823593Y-97424091D01*
X101823211Y-97409439D01*
X101822982Y-97394591D01*
X101822906Y-97379546D01*
X101822908Y-97379057D01*
X101949912Y-97379057D01*
X101949952Y-97391810D01*
X101950073Y-97404359D01*
X101950273Y-97416707D01*
X101950553Y-97428852D01*
X101950914Y-97440796D01*
X101951355Y-97452536D01*
X101951876Y-97464075D01*
X101952477Y-97475411D01*
X101953158Y-97486545D01*
X101953919Y-97497477D01*
X101954761Y-97508207D01*
X101955683Y-97518734D01*
X101956684Y-97529059D01*
X101957766Y-97539182D01*
X101958928Y-97549102D01*
X101960170Y-97558820D01*
X101962203Y-97572975D01*
X101964455Y-97586678D01*
X101966926Y-97599931D01*
X101969616Y-97612733D01*
X101972525Y-97625084D01*
X101975652Y-97636985D01*
X101978999Y-97648434D01*
X101982564Y-97659433D01*
X101986349Y-97669981D01*
X101990353Y-97680078D01*
X101993143Y-97686559D01*
X101997525Y-97695909D01*
X102002151Y-97704817D01*
X102008699Y-97716007D01*
X102015683Y-97726410D01*
X102023102Y-97736027D01*
X102030956Y-97744858D01*
X102039245Y-97752903D01*
X102047969Y-97760161D01*
X102052494Y-97763496D01*
X102061962Y-97769506D01*
X102071927Y-97774716D01*
X102082387Y-97779123D01*
X102093344Y-97782730D01*
X102104797Y-97785535D01*
X102116745Y-97787538D01*
X102129190Y-97788740D01*
X102142131Y-97789141D01*
X102151929Y-97788918D01*
X102164560Y-97787926D01*
X102176693Y-97786140D01*
X102188331Y-97783560D01*
X102199473Y-97780186D01*
X102210118Y-97776019D01*
X102220268Y-97771058D01*
X102229921Y-97765303D01*
X102232257Y-97763740D01*
X102241328Y-97756997D01*
X102249980Y-97749467D01*
X102258212Y-97741151D01*
X102266024Y-97732049D01*
X102273416Y-97722161D01*
X102280388Y-97711487D01*
X102285342Y-97702966D01*
X102290060Y-97694002D01*
X102293073Y-97687780D01*
X102297400Y-97678023D01*
X102301494Y-97667802D01*
X102305357Y-97657117D01*
X102308987Y-97645969D01*
X102312386Y-97634357D01*
X102315553Y-97622281D01*
X102318489Y-97609742D01*
X102321192Y-97596739D01*
X102323663Y-97583272D01*
X102325903Y-97569342D01*
X102327267Y-97559797D01*
X102328569Y-97550046D01*
X102329786Y-97540090D01*
X102330920Y-97529927D01*
X102331969Y-97519558D01*
X102332935Y-97508983D01*
X102333816Y-97498202D01*
X102334614Y-97487215D01*
X102335327Y-97476022D01*
X102335957Y-97464623D01*
X102336503Y-97453017D01*
X102336965Y-97441206D01*
X102337342Y-97429188D01*
X102337636Y-97416965D01*
X102337846Y-97404535D01*
X102337972Y-97391899D01*
X102338014Y-97379057D01*
X102337972Y-97366306D01*
X102337846Y-97353759D01*
X102337636Y-97341416D01*
X102337342Y-97329278D01*
X102336965Y-97317343D01*
X102336503Y-97305613D01*
X102335957Y-97294087D01*
X102335327Y-97282765D01*
X102334614Y-97271647D01*
X102333816Y-97260733D01*
X102332935Y-97250024D01*
X102331969Y-97239518D01*
X102330920Y-97229217D01*
X102329786Y-97219120D01*
X102328569Y-97209228D01*
X102327267Y-97199539D01*
X102325182Y-97185345D01*
X102322865Y-97171615D01*
X102320317Y-97158349D01*
X102317536Y-97145546D01*
X102314523Y-97133207D01*
X102311279Y-97121332D01*
X102307803Y-97109920D01*
X102304095Y-97098972D01*
X102300155Y-97088488D01*
X102295983Y-97078467D01*
X102293073Y-97072044D01*
X102288513Y-97062742D01*
X102283717Y-97053886D01*
X102278684Y-97045477D01*
X102271607Y-97034959D01*
X102264110Y-97025235D01*
X102256193Y-97016305D01*
X102247856Y-97008169D01*
X102239100Y-97000826D01*
X102232257Y-96995840D01*
X102222728Y-96989887D01*
X102212702Y-96984727D01*
X102202181Y-96980362D01*
X102191163Y-96976789D01*
X102179649Y-96974011D01*
X102167640Y-96972027D01*
X102155134Y-96970836D01*
X102142131Y-96970439D01*
X102129190Y-96970836D01*
X102116745Y-96972027D01*
X102104797Y-96974011D01*
X102093344Y-96976789D01*
X102082387Y-96980362D01*
X102071927Y-96984727D01*
X102061962Y-96989887D01*
X102052494Y-96995840D01*
X102043553Y-97002588D01*
X102035046Y-97010129D01*
X102026975Y-97018463D01*
X102019338Y-97027592D01*
X102012137Y-97037514D01*
X102005371Y-97048230D01*
X102000581Y-97056789D01*
X101996037Y-97065793D01*
X101993143Y-97072044D01*
X101988994Y-97081756D01*
X101985063Y-97091931D01*
X101981352Y-97102570D01*
X101977859Y-97113672D01*
X101974585Y-97125239D01*
X101971531Y-97137268D01*
X101968695Y-97149762D01*
X101966078Y-97162719D01*
X101963680Y-97176140D01*
X101961501Y-97190025D01*
X101960170Y-97199539D01*
X101958337Y-97214148D01*
X101957215Y-97224143D01*
X101956173Y-97234342D01*
X101955212Y-97244746D01*
X101954330Y-97255353D01*
X101953529Y-97266165D01*
X101952807Y-97277180D01*
X101952166Y-97288400D01*
X101951605Y-97299824D01*
X101951124Y-97311452D01*
X101950724Y-97323285D01*
X101950403Y-97335321D01*
X101950163Y-97347562D01*
X101950002Y-97360007D01*
X101949922Y-97372656D01*
X101949912Y-97379057D01*
X101822908Y-97379057D01*
X101822974Y-97364472D01*
X101823177Y-97349596D01*
X101823516Y-97334918D01*
X101823990Y-97320439D01*
X101824599Y-97306159D01*
X101825345Y-97292076D01*
X101826225Y-97278193D01*
X101827241Y-97264508D01*
X101828393Y-97251021D01*
X101829680Y-97237732D01*
X101831102Y-97224643D01*
X101832660Y-97211751D01*
X101834354Y-97199058D01*
X101836183Y-97186564D01*
X101838147Y-97174267D01*
X101840247Y-97162170D01*
X101842526Y-97150288D01*
X101844964Y-97138639D01*
X101847563Y-97127222D01*
X101850322Y-97116038D01*
X101853242Y-97105088D01*
X101856321Y-97094369D01*
X101859561Y-97083884D01*
X101862962Y-97073632D01*
X101866522Y-97063612D01*
X101870243Y-97053825D01*
X101874124Y-97044271D01*
X101878166Y-97034950D01*
X101882368Y-97025861D01*
X101886730Y-97017006D01*
X101893573Y-97004158D01*
X101895935Y-96999993D01*
X101903320Y-96987857D01*
X101911096Y-96976270D01*
X101919262Y-96965234D01*
X101927820Y-96954747D01*
X101936768Y-96944809D01*
X101946106Y-96935421D01*
X101955836Y-96926582D01*
X101965956Y-96918293D01*
X101976467Y-96910554D01*
X101987368Y-96903364D01*
X101994853Y-96898876D01*
X102006484Y-96892634D01*
X102018569Y-96887006D01*
X102031110Y-96881992D01*
X102044106Y-96877593D01*
X102057557Y-96873807D01*
X102071463Y-96870634D01*
X102085824Y-96868076D01*
X102095651Y-96866712D01*
X102105681Y-96865621D01*
X102115912Y-96864802D01*
X102126346Y-96864256D01*
X102136982Y-96863983D01*
X102142376Y-96863949D01*
X102152519Y-96864085D01*
G37*
G36*
X103218754Y-97880000D02*
G01*
X102592271Y-97880000D01*
X102592271Y-97772777D01*
X102832606Y-97511926D01*
X102842172Y-97501614D01*
X102851545Y-97491469D01*
X102860725Y-97481492D01*
X102869712Y-97471683D01*
X102878505Y-97462041D01*
X102887105Y-97452566D01*
X102895513Y-97443259D01*
X102903726Y-97434119D01*
X102911747Y-97425147D01*
X102919575Y-97416342D01*
X102924685Y-97410565D01*
X102932180Y-97401975D01*
X102939460Y-97393423D01*
X102946526Y-97384910D01*
X102953376Y-97376436D01*
X102960012Y-97368000D01*
X102966434Y-97359603D01*
X102972641Y-97351245D01*
X102978633Y-97342925D01*
X102984410Y-97334644D01*
X102989973Y-97326401D01*
X102993562Y-97320928D01*
X103000496Y-97309933D01*
X103007011Y-97298931D01*
X103013105Y-97287920D01*
X103018780Y-97276903D01*
X103024035Y-97265878D01*
X103028870Y-97254845D01*
X103033286Y-97243804D01*
X103037281Y-97232756D01*
X103040831Y-97221582D01*
X103043907Y-97210163D01*
X103046509Y-97198501D01*
X103048639Y-97186594D01*
X103050295Y-97174443D01*
X103051478Y-97162048D01*
X103052188Y-97149408D01*
X103052424Y-97136524D01*
X103052241Y-97126659D01*
X103051497Y-97114746D01*
X103050181Y-97103299D01*
X103048291Y-97092316D01*
X103045830Y-97081799D01*
X103042796Y-97071746D01*
X103040701Y-97065938D01*
X103036793Y-97056548D01*
X103032396Y-97047610D01*
X103027510Y-97039126D01*
X103021001Y-97029544D01*
X103013788Y-97020613D01*
X103007240Y-97013670D01*
X102998896Y-97005988D01*
X102989986Y-96999061D01*
X102980509Y-96992890D01*
X102970466Y-96987475D01*
X102959855Y-96982815D01*
X102956193Y-96981430D01*
X102946790Y-96978264D01*
X102937054Y-96975634D01*
X102926984Y-96973541D01*
X102916580Y-96971985D01*
X102905842Y-96970965D01*
X102894770Y-96970482D01*
X102890247Y-96970439D01*
X102878131Y-96970671D01*
X102866239Y-96971366D01*
X102854570Y-96972526D01*
X102843124Y-96974149D01*
X102831901Y-96976235D01*
X102820901Y-96978785D01*
X102810125Y-96981799D01*
X102799572Y-96985277D01*
X102789242Y-96989218D01*
X102779136Y-96993623D01*
X102772522Y-96996817D01*
X102762721Y-97001846D01*
X102753010Y-97007133D01*
X102743390Y-97012677D01*
X102733859Y-97018479D01*
X102724419Y-97024538D01*
X102715069Y-97030855D01*
X102705809Y-97037429D01*
X102696639Y-97044262D01*
X102687559Y-97051351D01*
X102678570Y-97058699D01*
X102672627Y-97063740D01*
X102602529Y-96981919D01*
X102611249Y-96974287D01*
X102620160Y-96966811D01*
X102629262Y-96959489D01*
X102638555Y-96952323D01*
X102648038Y-96945312D01*
X102657713Y-96938456D01*
X102661636Y-96935757D01*
X102671601Y-96929113D01*
X102681805Y-96922767D01*
X102692247Y-96916719D01*
X102702928Y-96910970D01*
X102713848Y-96905518D01*
X102722755Y-96901372D01*
X102729535Y-96898387D01*
X102738698Y-96894522D01*
X102747991Y-96890862D01*
X102757413Y-96887408D01*
X102766966Y-96884160D01*
X102776648Y-96881119D01*
X102786459Y-96878283D01*
X102796401Y-96875654D01*
X102806472Y-96873230D01*
X102816673Y-96871055D01*
X102827004Y-96869170D01*
X102837464Y-96867575D01*
X102848054Y-96866270D01*
X102858774Y-96865254D01*
X102869624Y-96864529D01*
X102880603Y-96864094D01*
X102891713Y-96863949D01*
X102903966Y-96864112D01*
X102915996Y-96864602D01*
X102927802Y-96865418D01*
X102939386Y-96866560D01*
X102950746Y-96868028D01*
X102961883Y-96869823D01*
X102972797Y-96871943D01*
X102983487Y-96874391D01*
X102993954Y-96877164D01*
X103004198Y-96880264D01*
X103010903Y-96882512D01*
X103020745Y-96886090D01*
X103030303Y-96889956D01*
X103039578Y-96894110D01*
X103048570Y-96898552D01*
X103057278Y-96903281D01*
X103065703Y-96908297D01*
X103076496Y-96915434D01*
X103086784Y-96923082D01*
X103096569Y-96931241D01*
X103101273Y-96935512D01*
X103110291Y-96944416D01*
X103118782Y-96953785D01*
X103126747Y-96963619D01*
X103134185Y-96973920D01*
X103141096Y-96984685D01*
X103147481Y-96995917D01*
X103151924Y-97004646D01*
X103156070Y-97013637D01*
X103158670Y-97019776D01*
X103162293Y-97029184D01*
X103165559Y-97038816D01*
X103168470Y-97048670D01*
X103171023Y-97058748D01*
X103173221Y-97069049D01*
X103175062Y-97079574D01*
X103176547Y-97090321D01*
X103177675Y-97101292D01*
X103178447Y-97112486D01*
X103178863Y-97123904D01*
X103178942Y-97131639D01*
X103178781Y-97142535D01*
X103178298Y-97153332D01*
X103177493Y-97164030D01*
X103176366Y-97174630D01*
X103174917Y-97185131D01*
X103173146Y-97195533D01*
X103171053Y-97205836D01*
X103168638Y-97216041D01*
X103165901Y-97226146D01*
X103162842Y-97236153D01*
X103160624Y-97242770D01*
X103157113Y-97252647D01*
X103153357Y-97262493D01*
X103149356Y-97272310D01*
X103145111Y-97282097D01*
X103140621Y-97291853D01*
X103135886Y-97301580D01*
X103130906Y-97311276D01*
X103125682Y-97320943D01*
X103120213Y-97330579D01*
X103114499Y-97340186D01*
X103110554Y-97346573D01*
X103104446Y-97356105D01*
X103098118Y-97365650D01*
X103091571Y-97375207D01*
X103084806Y-97384778D01*
X103077821Y-97394361D01*
X103070618Y-97403958D01*
X103063195Y-97413567D01*
X103055554Y-97423189D01*
X103047693Y-97432824D01*
X103039614Y-97442472D01*
X103034106Y-97448911D01*
X103025753Y-97458564D01*
X103017271Y-97468291D01*
X103008660Y-97478091D01*
X102999920Y-97487963D01*
X102991051Y-97497909D01*
X102982054Y-97507927D01*
X102972928Y-97518018D01*
X102963673Y-97528183D01*
X102954289Y-97538420D01*
X102944776Y-97548731D01*
X102938363Y-97555645D01*
X102745411Y-97760565D01*
X102745411Y-97765938D01*
X103218754Y-97765938D01*
X103218754Y-97880000D01*
G37*
G36*
X103957344Y-97116496D02*
G01*
X103957096Y-97129113D01*
X103956352Y-97141440D01*
X103955112Y-97153476D01*
X103953375Y-97165223D01*
X103951143Y-97176679D01*
X103948414Y-97187846D01*
X103945189Y-97198722D01*
X103941468Y-97209309D01*
X103937301Y-97219521D01*
X103932737Y-97229398D01*
X103927776Y-97238938D01*
X103922418Y-97248143D01*
X103916663Y-97257012D01*
X103910511Y-97265546D01*
X103903962Y-97273743D01*
X103897016Y-97281605D01*
X103889754Y-97289073D01*
X103882133Y-97296213D01*
X103874153Y-97303025D01*
X103865814Y-97309509D01*
X103857117Y-97315665D01*
X103848061Y-97321492D01*
X103838646Y-97326992D01*
X103828872Y-97332163D01*
X103818778Y-97336929D01*
X103808402Y-97341337D01*
X103797743Y-97345386D01*
X103786802Y-97349077D01*
X103775578Y-97352408D01*
X103764072Y-97355381D01*
X103752283Y-97357995D01*
X103740212Y-97360251D01*
X103740212Y-97364403D01*
X103755187Y-97366446D01*
X103769705Y-97368853D01*
X103783764Y-97371621D01*
X103797365Y-97374753D01*
X103810508Y-97378246D01*
X103823194Y-97382103D01*
X103835421Y-97386322D01*
X103847191Y-97390903D01*
X103858502Y-97395847D01*
X103869356Y-97401154D01*
X103879751Y-97406823D01*
X103889689Y-97412855D01*
X103899169Y-97419249D01*
X103908190Y-97426005D01*
X103916754Y-97433125D01*
X103924860Y-97440607D01*
X103932520Y-97448414D01*
X103939686Y-97456509D01*
X103946358Y-97464893D01*
X103952536Y-97473564D01*
X103958219Y-97482524D01*
X103963408Y-97491772D01*
X103968103Y-97501308D01*
X103972304Y-97511132D01*
X103976011Y-97521244D01*
X103979223Y-97531644D01*
X103981941Y-97542333D01*
X103984165Y-97553309D01*
X103985895Y-97564574D01*
X103987130Y-97576127D01*
X103987872Y-97587968D01*
X103988119Y-97600097D01*
X103987921Y-97612228D01*
X103987329Y-97624166D01*
X103986341Y-97635910D01*
X103984959Y-97647461D01*
X103983181Y-97658819D01*
X103981009Y-97669984D01*
X103978442Y-97680956D01*
X103975479Y-97691734D01*
X103972122Y-97702319D01*
X103968370Y-97712711D01*
X103965648Y-97719532D01*
X103961277Y-97729568D01*
X103956498Y-97739341D01*
X103951311Y-97748853D01*
X103945716Y-97758103D01*
X103939713Y-97767091D01*
X103933303Y-97775818D01*
X103926484Y-97784282D01*
X103919258Y-97792484D01*
X103911623Y-97800425D01*
X103903581Y-97808103D01*
X103897993Y-97813077D01*
X103889309Y-97820252D01*
X103880199Y-97827122D01*
X103870664Y-97833687D01*
X103860704Y-97839947D01*
X103850319Y-97845903D01*
X103839509Y-97851554D01*
X103828275Y-97856900D01*
X103816615Y-97861941D01*
X103804530Y-97866677D01*
X103792019Y-97871108D01*
X103783443Y-97873893D01*
X103770214Y-97877778D01*
X103756538Y-97881281D01*
X103742416Y-97884401D01*
X103732753Y-97886269D01*
X103722892Y-97887968D01*
X103712832Y-97889496D01*
X103702574Y-97890855D01*
X103692117Y-97892043D01*
X103681462Y-97893062D01*
X103670609Y-97893912D01*
X103659557Y-97894591D01*
X103648306Y-97895100D01*
X103636858Y-97895440D01*
X103625210Y-97895610D01*
X103619312Y-97895631D01*
X103605372Y-97895528D01*
X103591577Y-97895219D01*
X103577929Y-97894704D01*
X103564426Y-97893982D01*
X103551070Y-97893055D01*
X103537859Y-97891922D01*
X103524794Y-97890582D01*
X103511876Y-97889036D01*
X103499103Y-97887285D01*
X103486476Y-97885327D01*
X103478140Y-97883907D01*
X103465798Y-97881542D01*
X103453593Y-97878841D01*
X103441526Y-97875806D01*
X103429596Y-97872436D01*
X103417804Y-97868730D01*
X103406149Y-97864690D01*
X103394632Y-97860316D01*
X103383251Y-97855606D01*
X103372009Y-97850561D01*
X103360903Y-97845182D01*
X103353576Y-97841409D01*
X103353576Y-97724661D01*
X103364882Y-97730309D01*
X103376359Y-97735712D01*
X103388008Y-97740871D01*
X103399829Y-97745784D01*
X103411822Y-97750453D01*
X103423987Y-97754878D01*
X103436323Y-97759057D01*
X103448831Y-97762992D01*
X103461510Y-97766682D01*
X103474362Y-97770127D01*
X103483025Y-97772288D01*
X103496027Y-97775300D01*
X103508931Y-97778016D01*
X103521735Y-97780435D01*
X103534442Y-97782558D01*
X103547049Y-97784385D01*
X103559558Y-97785915D01*
X103571967Y-97787150D01*
X103584279Y-97788088D01*
X103596491Y-97788730D01*
X103608605Y-97789075D01*
X103616625Y-97789141D01*
X103628290Y-97789025D01*
X103639655Y-97788677D01*
X103650719Y-97788098D01*
X103661482Y-97787286D01*
X103671945Y-97786243D01*
X103682107Y-97784968D01*
X103691969Y-97783461D01*
X103704651Y-97781091D01*
X103716798Y-97778309D01*
X103725558Y-97775952D01*
X103736843Y-97772418D01*
X103747616Y-97768533D01*
X103757878Y-97764297D01*
X103767629Y-97759710D01*
X103776868Y-97754772D01*
X103785596Y-97749482D01*
X103793812Y-97743842D01*
X103801517Y-97737850D01*
X103810512Y-97729797D01*
X103818719Y-97721206D01*
X103826140Y-97712079D01*
X103832773Y-97702416D01*
X103838619Y-97692216D01*
X103843678Y-97681479D01*
X103845481Y-97677034D01*
X103849562Y-97665529D01*
X103852329Y-97656024D01*
X103854653Y-97646253D01*
X103856534Y-97636214D01*
X103857973Y-97625908D01*
X103858969Y-97615335D01*
X103859523Y-97604495D01*
X103859647Y-97596189D01*
X103859361Y-97585034D01*
X103858502Y-97574284D01*
X103857071Y-97563938D01*
X103855068Y-97553996D01*
X103852492Y-97544459D01*
X103848467Y-97533107D01*
X103843547Y-97522387D01*
X103841329Y-97518276D01*
X103835299Y-97508405D01*
X103828506Y-97499094D01*
X103820950Y-97490344D01*
X103812630Y-97482155D01*
X103803548Y-97474526D01*
X103793702Y-97467457D01*
X103789549Y-97464787D01*
X103780894Y-97459707D01*
X103771781Y-97454971D01*
X103762209Y-97450579D01*
X103752180Y-97446530D01*
X103741693Y-97442824D01*
X103730748Y-97439462D01*
X103719345Y-97436443D01*
X103707484Y-97433768D01*
X103695195Y-97431421D01*
X103682510Y-97429387D01*
X103672735Y-97428067D01*
X103662738Y-97426922D01*
X103652517Y-97425954D01*
X103642073Y-97425162D01*
X103631405Y-97424546D01*
X103620514Y-97424106D01*
X103609400Y-97423842D01*
X103598063Y-97423754D01*
X103506716Y-97423754D01*
X103506716Y-97317264D01*
X103598063Y-97317264D01*
X103608395Y-97317142D01*
X103618508Y-97316775D01*
X103628402Y-97316163D01*
X103641253Y-97314966D01*
X103653715Y-97313335D01*
X103665788Y-97311268D01*
X103677472Y-97308767D01*
X103688766Y-97305830D01*
X103696981Y-97303342D01*
X103707568Y-97299678D01*
X103717711Y-97295648D01*
X103727412Y-97291252D01*
X103736671Y-97286489D01*
X103745486Y-97281360D01*
X103753859Y-97275865D01*
X103761790Y-97270003D01*
X103769277Y-97263775D01*
X103778090Y-97255452D01*
X103786212Y-97246663D01*
X103793642Y-97237410D01*
X103800380Y-97227692D01*
X103806426Y-97217508D01*
X103811781Y-97206860D01*
X103813729Y-97202470D01*
X103818092Y-97191159D01*
X103821715Y-97179515D01*
X103824081Y-97169959D01*
X103825974Y-97160189D01*
X103827394Y-97150206D01*
X103828340Y-97140009D01*
X103828813Y-97129598D01*
X103828872Y-97124312D01*
X103828568Y-97113201D01*
X103827656Y-97102459D01*
X103826135Y-97092087D01*
X103824007Y-97082085D01*
X103821270Y-97072452D01*
X103817924Y-97063189D01*
X103816416Y-97059588D01*
X103811467Y-97049181D01*
X103805780Y-97039392D01*
X103799354Y-97030221D01*
X103792190Y-97021669D01*
X103784288Y-97013735D01*
X103781489Y-97011228D01*
X103772654Y-97004135D01*
X103763183Y-96997695D01*
X103753076Y-96991908D01*
X103744169Y-96987583D01*
X103734820Y-96983712D01*
X103727023Y-96980942D01*
X103717010Y-96977916D01*
X103706663Y-96975403D01*
X103695982Y-96973403D01*
X103684968Y-96971916D01*
X103673619Y-96970942D01*
X103661936Y-96970480D01*
X103657170Y-96970439D01*
X103643540Y-96970641D01*
X103630219Y-96971246D01*
X103617207Y-96972255D01*
X103604505Y-96973668D01*
X103592111Y-96975484D01*
X103580027Y-96977703D01*
X103568252Y-96980327D01*
X103556786Y-96983353D01*
X103545629Y-96986784D01*
X103534781Y-96990618D01*
X103527721Y-96993398D01*
X103517279Y-96997779D01*
X103506927Y-97002405D01*
X103496665Y-97007276D01*
X103486494Y-97012392D01*
X103476412Y-97017752D01*
X103466421Y-97023357D01*
X103456520Y-97029206D01*
X103446709Y-97035301D01*
X103436988Y-97041640D01*
X103427357Y-97048224D01*
X103420987Y-97052749D01*
X103357728Y-96967020D01*
X103366032Y-96960381D01*
X103374610Y-96953896D01*
X103383463Y-96947567D01*
X103392590Y-96941393D01*
X103401991Y-96935374D01*
X103411667Y-96929510D01*
X103415614Y-96927208D01*
X103425755Y-96921515D01*
X103436183Y-96916036D01*
X103446898Y-96910772D01*
X103457898Y-96905722D01*
X103466905Y-96901837D01*
X103476094Y-96898090D01*
X103485467Y-96894480D01*
X103495008Y-96891033D01*
X103504701Y-96887778D01*
X103514547Y-96884714D01*
X103524546Y-96881840D01*
X103534697Y-96879157D01*
X103545001Y-96876665D01*
X103555458Y-96874364D01*
X103566067Y-96872254D01*
X103576894Y-96870307D01*
X103587881Y-96868620D01*
X103599029Y-96867193D01*
X103610336Y-96866025D01*
X103621804Y-96865117D01*
X103633432Y-96864468D01*
X103645221Y-96864079D01*
X103657170Y-96863949D01*
X103670931Y-96864115D01*
X103684369Y-96864610D01*
X103697486Y-96865437D01*
X103710281Y-96866594D01*
X103722754Y-96868082D01*
X103734905Y-96869900D01*
X103746734Y-96872049D01*
X103758241Y-96874528D01*
X103769425Y-96877338D01*
X103780288Y-96880479D01*
X103787351Y-96882756D01*
X103797680Y-96886413D01*
X103807690Y-96890332D01*
X103817383Y-96894513D01*
X103826758Y-96898956D01*
X103835816Y-96903661D01*
X103844556Y-96908628D01*
X103852978Y-96913856D01*
X103861082Y-96919347D01*
X103871394Y-96927075D01*
X103881140Y-96935268D01*
X103890311Y-96943893D01*
X103898894Y-96952915D01*
X103906889Y-96962333D01*
X103914296Y-96972149D01*
X103921116Y-96982361D01*
X103927348Y-96992971D01*
X103932992Y-97003977D01*
X103938049Y-97015380D01*
X103942571Y-97027058D01*
X103946491Y-97039010D01*
X103949807Y-97051238D01*
X103952520Y-97063740D01*
X103954631Y-97076517D01*
X103955818Y-97086280D01*
X103956666Y-97096197D01*
X103957175Y-97106270D01*
X103957344Y-97116496D01*
G37*
X96317731Y-106144295D02*
X96317731Y-106715723D01*
X96317731Y-106715723D02*
X96279636Y-106830009D01*
X96279636Y-106830009D02*
X96203445Y-106906200D01*
X96203445Y-106906200D02*
X96089160Y-106944295D01*
X96089160Y-106944295D02*
X96012969Y-106944295D01*
X97079636Y-106944295D02*
X96698684Y-106944295D01*
X96698684Y-106944295D02*
X96698684Y-106144295D01*
X97803446Y-106868104D02*
X97765350Y-106906200D01*
X97765350Y-106906200D02*
X97651065Y-106944295D01*
X97651065Y-106944295D02*
X97574874Y-106944295D01*
X97574874Y-106944295D02*
X97460588Y-106906200D01*
X97460588Y-106906200D02*
X97384398Y-106830009D01*
X97384398Y-106830009D02*
X97346303Y-106753819D01*
X97346303Y-106753819D02*
X97308207Y-106601438D01*
X97308207Y-106601438D02*
X97308207Y-106487152D01*
X97308207Y-106487152D02*
X97346303Y-106334771D01*
X97346303Y-106334771D02*
X97384398Y-106258580D01*
X97384398Y-106258580D02*
X97460588Y-106182390D01*
X97460588Y-106182390D02*
X97574874Y-106144295D01*
X97574874Y-106144295D02*
X97651065Y-106144295D01*
X97651065Y-106144295D02*
X97765350Y-106182390D01*
X97765350Y-106182390D02*
X97803446Y-106220485D01*
X98374874Y-106144295D02*
X98374874Y-106715723D01*
X98374874Y-106715723D02*
X98336779Y-106830009D01*
X98336779Y-106830009D02*
X98260588Y-106906200D01*
X98260588Y-106906200D02*
X98146303Y-106944295D01*
X98146303Y-106944295D02*
X98070112Y-106944295D01*
X99136779Y-106944295D02*
X98755827Y-106944295D01*
X98755827Y-106944295D02*
X98755827Y-106144295D01*
X99860589Y-106868104D02*
X99822493Y-106906200D01*
X99822493Y-106906200D02*
X99708208Y-106944295D01*
X99708208Y-106944295D02*
X99632017Y-106944295D01*
X99632017Y-106944295D02*
X99517731Y-106906200D01*
X99517731Y-106906200D02*
X99441541Y-106830009D01*
X99441541Y-106830009D02*
X99403446Y-106753819D01*
X99403446Y-106753819D02*
X99365350Y-106601438D01*
X99365350Y-106601438D02*
X99365350Y-106487152D01*
X99365350Y-106487152D02*
X99403446Y-106334771D01*
X99403446Y-106334771D02*
X99441541Y-106258580D01*
X99441541Y-106258580D02*
X99517731Y-106182390D01*
X99517731Y-106182390D02*
X99632017Y-106144295D01*
X99632017Y-106144295D02*
X99708208Y-106144295D01*
X99708208Y-106144295D02*
X99822493Y-106182390D01*
X99822493Y-106182390D02*
X99860589Y-106220485D01*
X100432017Y-106144295D02*
X100432017Y-106715723D01*
X100432017Y-106715723D02*
X100393922Y-106830009D01*
X100393922Y-106830009D02*
X100317731Y-106906200D01*
X100317731Y-106906200D02*
X100203446Y-106944295D01*
X100203446Y-106944295D02*
X100127255Y-106944295D01*
X101193922Y-106944295D02*
X100812970Y-106944295D01*
X100812970Y-106944295D02*
X100812970Y-106144295D01*
X101917732Y-106868104D02*
X101879636Y-106906200D01*
X101879636Y-106906200D02*
X101765351Y-106944295D01*
X101765351Y-106944295D02*
X101689160Y-106944295D01*
X101689160Y-106944295D02*
X101574874Y-106906200D01*
X101574874Y-106906200D02*
X101498684Y-106830009D01*
X101498684Y-106830009D02*
X101460589Y-106753819D01*
X101460589Y-106753819D02*
X101422493Y-106601438D01*
X101422493Y-106601438D02*
X101422493Y-106487152D01*
X101422493Y-106487152D02*
X101460589Y-106334771D01*
X101460589Y-106334771D02*
X101498684Y-106258580D01*
X101498684Y-106258580D02*
X101574874Y-106182390D01*
X101574874Y-106182390D02*
X101689160Y-106144295D01*
X101689160Y-106144295D02*
X101765351Y-106144295D01*
X101765351Y-106144295D02*
X101879636Y-106182390D01*
X101879636Y-106182390D02*
X101917732Y-106220485D01*
X102489160Y-106144295D02*
X102489160Y-106715723D01*
X102489160Y-106715723D02*
X102451065Y-106830009D01*
X102451065Y-106830009D02*
X102374874Y-106906200D01*
X102374874Y-106906200D02*
X102260589Y-106944295D01*
X102260589Y-106944295D02*
X102184398Y-106944295D01*
X103251065Y-106944295D02*
X102870113Y-106944295D01*
X102870113Y-106944295D02*
X102870113Y-106144295D01*
X103974875Y-106868104D02*
X103936779Y-106906200D01*
X103936779Y-106906200D02*
X103822494Y-106944295D01*
X103822494Y-106944295D02*
X103746303Y-106944295D01*
X103746303Y-106944295D02*
X103632017Y-106906200D01*
X103632017Y-106906200D02*
X103555827Y-106830009D01*
X103555827Y-106830009D02*
X103517732Y-106753819D01*
X103517732Y-106753819D02*
X103479636Y-106601438D01*
X103479636Y-106601438D02*
X103479636Y-106487152D01*
X103479636Y-106487152D02*
X103517732Y-106334771D01*
X103517732Y-106334771D02*
X103555827Y-106258580D01*
X103555827Y-106258580D02*
X103632017Y-106182390D01*
X103632017Y-106182390D02*
X103746303Y-106144295D01*
X103746303Y-106144295D02*
X103822494Y-106144295D01*
X103822494Y-106144295D02*
X103936779Y-106182390D01*
X103936779Y-106182390D02*
X103974875Y-106220485D01*
X82984653Y-96735056D02*
X83254027Y-97004430D01*
X83321371Y-96600369D02*
X82715279Y-97206460D01*
X82715279Y-97206460D02*
X82681608Y-97307475D01*
X82681608Y-97307475D02*
X82715279Y-97408491D01*
X82715279Y-97408491D02*
X82782623Y-97475834D01*
X83119341Y-97812552D02*
X83085669Y-97711537D01*
X83085669Y-97711537D02*
X83085669Y-97644193D01*
X83085669Y-97644193D02*
X83119341Y-97543178D01*
X83119341Y-97543178D02*
X83321371Y-97341147D01*
X83321371Y-97341147D02*
X83422387Y-97307476D01*
X83422387Y-97307476D02*
X83489730Y-97307476D01*
X83489730Y-97307476D02*
X83590745Y-97341147D01*
X83590745Y-97341147D02*
X83691761Y-97442163D01*
X83691761Y-97442163D02*
X83725432Y-97543178D01*
X83725432Y-97543178D02*
X83725432Y-97610522D01*
X83725432Y-97610522D02*
X83691761Y-97711537D01*
X83691761Y-97711537D02*
X83489730Y-97913567D01*
X83489730Y-97913567D02*
X83388715Y-97947239D01*
X83388715Y-97947239D02*
X83321371Y-97947239D01*
X83321371Y-97947239D02*
X83220356Y-97913567D01*
X83220356Y-97913567D02*
X83119341Y-97812552D01*
X83759104Y-98452315D02*
X83725432Y-98351300D01*
X83725432Y-98351300D02*
X83725432Y-98283957D01*
X83725432Y-98283957D02*
X83759104Y-98182941D01*
X83759104Y-98182941D02*
X83961135Y-97980911D01*
X83961135Y-97980911D02*
X84062150Y-97947239D01*
X84062150Y-97947239D02*
X84129493Y-97947239D01*
X84129493Y-97947239D02*
X84230509Y-97980911D01*
X84230509Y-97980911D02*
X84331524Y-98081926D01*
X84331524Y-98081926D02*
X84365196Y-98182941D01*
X84365196Y-98182941D02*
X84365196Y-98250285D01*
X84365196Y-98250285D02*
X84331524Y-98351300D01*
X84331524Y-98351300D02*
X84129493Y-98553331D01*
X84129493Y-98553331D02*
X84028478Y-98587002D01*
X84028478Y-98587002D02*
X83961135Y-98587002D01*
X83961135Y-98587002D02*
X83860119Y-98553331D01*
X83860119Y-98553331D02*
X83759104Y-98452315D01*
X84398867Y-99092079D02*
X84365196Y-98991063D01*
X84365196Y-98991063D02*
X84398867Y-98890048D01*
X84398867Y-98890048D02*
X85004959Y-98283957D01*
X84668242Y-99361453D02*
X85139646Y-98890049D01*
X85375349Y-98654346D02*
X85308005Y-98654346D01*
X85308005Y-98654346D02*
X85308005Y-98721690D01*
X85308005Y-98721690D02*
X85375349Y-98721690D01*
X85375349Y-98721690D02*
X85375349Y-98654346D01*
X85375349Y-98654346D02*
X85308005Y-98721690D01*
X85476363Y-99226766D02*
X85004959Y-99698170D01*
X85409020Y-99294109D02*
X85476363Y-99294109D01*
X85476363Y-99294109D02*
X85577379Y-99327781D01*
X85577379Y-99327781D02*
X85678394Y-99428796D01*
X85678394Y-99428796D02*
X85712066Y-99529811D01*
X85712066Y-99529811D02*
X85678394Y-99630827D01*
X85678394Y-99630827D02*
X85308005Y-100001216D01*
X86419173Y-100169575D02*
X85846753Y-100741995D01*
X85846753Y-100741995D02*
X85745738Y-100775666D01*
X85745738Y-100775666D02*
X85678394Y-100775666D01*
X85678394Y-100775666D02*
X85577379Y-100741995D01*
X85577379Y-100741995D02*
X85476364Y-100640979D01*
X85476364Y-100640979D02*
X85442692Y-100539964D01*
X85981440Y-100607308D02*
X85880425Y-100573636D01*
X85880425Y-100573636D02*
X85745738Y-100438949D01*
X85745738Y-100438949D02*
X85712066Y-100337934D01*
X85712066Y-100337934D02*
X85712066Y-100270590D01*
X85712066Y-100270590D02*
X85745738Y-100169575D01*
X85745738Y-100169575D02*
X85947768Y-99967544D01*
X85947768Y-99967544D02*
X86048783Y-99933873D01*
X86048783Y-99933873D02*
X86116127Y-99933873D01*
X86116127Y-99933873D02*
X86217142Y-99967544D01*
X86217142Y-99967544D02*
X86351829Y-100102231D01*
X86351829Y-100102231D02*
X86385501Y-100203247D01*
X86823234Y-101516445D02*
X87530341Y-100809338D01*
X87126280Y-101819491D02*
X87496669Y-101449102D01*
X87496669Y-101449102D02*
X87530341Y-101348086D01*
X87530341Y-101348086D02*
X87496669Y-101247071D01*
X87496669Y-101247071D02*
X87395654Y-101146056D01*
X87395654Y-101146056D02*
X87294638Y-101112384D01*
X87294638Y-101112384D02*
X87227295Y-101112384D01*
X87564012Y-102257224D02*
X87530341Y-102156208D01*
X87530341Y-102156208D02*
X87530341Y-102088865D01*
X87530341Y-102088865D02*
X87564012Y-101987850D01*
X87564012Y-101987850D02*
X87766043Y-101785819D01*
X87766043Y-101785819D02*
X87867058Y-101752147D01*
X87867058Y-101752147D02*
X87934402Y-101752147D01*
X87934402Y-101752147D02*
X88035417Y-101785819D01*
X88035417Y-101785819D02*
X88136432Y-101886834D01*
X88136432Y-101886834D02*
X88170104Y-101987850D01*
X88170104Y-101987850D02*
X88170104Y-102055193D01*
X88170104Y-102055193D02*
X88136432Y-102156208D01*
X88136432Y-102156208D02*
X87934402Y-102358239D01*
X87934402Y-102358239D02*
X87833386Y-102391911D01*
X87833386Y-102391911D02*
X87766043Y-102391911D01*
X87766043Y-102391911D02*
X87665028Y-102358239D01*
X87665028Y-102358239D02*
X87564012Y-102257224D01*
X88203776Y-102896987D02*
X88170104Y-102795972D01*
X88170104Y-102795972D02*
X88203776Y-102694957D01*
X88203776Y-102694957D02*
X88809867Y-102088865D01*
X88776196Y-103402064D02*
X88675181Y-103368392D01*
X88675181Y-103368392D02*
X88540494Y-103233705D01*
X88540494Y-103233705D02*
X88506822Y-103132690D01*
X88506822Y-103132690D02*
X88540494Y-103031674D01*
X88540494Y-103031674D02*
X88809868Y-102762300D01*
X88809868Y-102762300D02*
X88910883Y-102728629D01*
X88910883Y-102728629D02*
X89011898Y-102762300D01*
X89011898Y-102762300D02*
X89146585Y-102896987D01*
X89146585Y-102896987D02*
X89180257Y-102998003D01*
X89180257Y-102998003D02*
X89146585Y-103099018D01*
X89146585Y-103099018D02*
X89079242Y-103166361D01*
X89079242Y-103166361D02*
X88675181Y-102896987D01*
X110985056Y-103015346D02*
X111254430Y-102745972D01*
X110850369Y-102678628D02*
X111456460Y-103284720D01*
X111456460Y-103284720D02*
X111557475Y-103318391D01*
X111557475Y-103318391D02*
X111658491Y-103284720D01*
X111658491Y-103284720D02*
X111725834Y-103217376D01*
X112062552Y-102880658D02*
X111961537Y-102914330D01*
X111961537Y-102914330D02*
X111894193Y-102914330D01*
X111894193Y-102914330D02*
X111793178Y-102880658D01*
X111793178Y-102880658D02*
X111591147Y-102678628D01*
X111591147Y-102678628D02*
X111557476Y-102577612D01*
X111557476Y-102577612D02*
X111557476Y-102510269D01*
X111557476Y-102510269D02*
X111591147Y-102409254D01*
X111591147Y-102409254D02*
X111692163Y-102308238D01*
X111692163Y-102308238D02*
X111793178Y-102274567D01*
X111793178Y-102274567D02*
X111860522Y-102274567D01*
X111860522Y-102274567D02*
X111961537Y-102308238D01*
X111961537Y-102308238D02*
X112163567Y-102510269D01*
X112163567Y-102510269D02*
X112197239Y-102611284D01*
X112197239Y-102611284D02*
X112197239Y-102678628D01*
X112197239Y-102678628D02*
X112163567Y-102779643D01*
X112163567Y-102779643D02*
X112062552Y-102880658D01*
X112702315Y-102240895D02*
X112601300Y-102274567D01*
X112601300Y-102274567D02*
X112533957Y-102274567D01*
X112533957Y-102274567D02*
X112432941Y-102240895D01*
X112432941Y-102240895D02*
X112230911Y-102038864D01*
X112230911Y-102038864D02*
X112197239Y-101937849D01*
X112197239Y-101937849D02*
X112197239Y-101870506D01*
X112197239Y-101870506D02*
X112230911Y-101769490D01*
X112230911Y-101769490D02*
X112331926Y-101668475D01*
X112331926Y-101668475D02*
X112432941Y-101634803D01*
X112432941Y-101634803D02*
X112500285Y-101634803D01*
X112500285Y-101634803D02*
X112601300Y-101668475D01*
X112601300Y-101668475D02*
X112803331Y-101870506D01*
X112803331Y-101870506D02*
X112837002Y-101971521D01*
X112837002Y-101971521D02*
X112837002Y-102038864D01*
X112837002Y-102038864D02*
X112803331Y-102139880D01*
X112803331Y-102139880D02*
X112702315Y-102240895D01*
X113342079Y-101601132D02*
X113241063Y-101634803D01*
X113241063Y-101634803D02*
X113140048Y-101601132D01*
X113140048Y-101601132D02*
X112533957Y-100995040D01*
X113611453Y-101331757D02*
X113140049Y-100860353D01*
X112904346Y-100624650D02*
X112904346Y-100691994D01*
X112904346Y-100691994D02*
X112971690Y-100691994D01*
X112971690Y-100691994D02*
X112971690Y-100624650D01*
X112971690Y-100624650D02*
X112904346Y-100624650D01*
X112904346Y-100624650D02*
X112971690Y-100691994D01*
X113476766Y-100523636D02*
X113948170Y-100995040D01*
X113544109Y-100590979D02*
X113544109Y-100523636D01*
X113544109Y-100523636D02*
X113577781Y-100422620D01*
X113577781Y-100422620D02*
X113678796Y-100321605D01*
X113678796Y-100321605D02*
X113779811Y-100287933D01*
X113779811Y-100287933D02*
X113880827Y-100321605D01*
X113880827Y-100321605D02*
X114251216Y-100691994D01*
X114419575Y-99580826D02*
X114991995Y-100153246D01*
X114991995Y-100153246D02*
X115025666Y-100254261D01*
X115025666Y-100254261D02*
X115025666Y-100321605D01*
X115025666Y-100321605D02*
X114991995Y-100422620D01*
X114991995Y-100422620D02*
X114890979Y-100523635D01*
X114890979Y-100523635D02*
X114789964Y-100557307D01*
X114857308Y-100018559D02*
X114823636Y-100119574D01*
X114823636Y-100119574D02*
X114688949Y-100254261D01*
X114688949Y-100254261D02*
X114587934Y-100287933D01*
X114587934Y-100287933D02*
X114520590Y-100287933D01*
X114520590Y-100287933D02*
X114419575Y-100254261D01*
X114419575Y-100254261D02*
X114217544Y-100052231D01*
X114217544Y-100052231D02*
X114183873Y-99951216D01*
X114183873Y-99951216D02*
X114183873Y-99883872D01*
X114183873Y-99883872D02*
X114217544Y-99782857D01*
X114217544Y-99782857D02*
X114352231Y-99648170D01*
X114352231Y-99648170D02*
X114453247Y-99614498D01*
X115766445Y-99176765D02*
X115059338Y-98469658D01*
X116069491Y-98873719D02*
X115699102Y-98503330D01*
X115699102Y-98503330D02*
X115598086Y-98469658D01*
X115598086Y-98469658D02*
X115497071Y-98503330D01*
X115497071Y-98503330D02*
X115396056Y-98604345D01*
X115396056Y-98604345D02*
X115362384Y-98705361D01*
X115362384Y-98705361D02*
X115362384Y-98772704D01*
X116507224Y-98435987D02*
X116406208Y-98469658D01*
X116406208Y-98469658D02*
X116338865Y-98469658D01*
X116338865Y-98469658D02*
X116237850Y-98435987D01*
X116237850Y-98435987D02*
X116035819Y-98233956D01*
X116035819Y-98233956D02*
X116002147Y-98132941D01*
X116002147Y-98132941D02*
X116002147Y-98065597D01*
X116002147Y-98065597D02*
X116035819Y-97964582D01*
X116035819Y-97964582D02*
X116136834Y-97863567D01*
X116136834Y-97863567D02*
X116237850Y-97829895D01*
X116237850Y-97829895D02*
X116305193Y-97829895D01*
X116305193Y-97829895D02*
X116406208Y-97863567D01*
X116406208Y-97863567D02*
X116608239Y-98065597D01*
X116608239Y-98065597D02*
X116641911Y-98166613D01*
X116641911Y-98166613D02*
X116641911Y-98233956D01*
X116641911Y-98233956D02*
X116608239Y-98334971D01*
X116608239Y-98334971D02*
X116507224Y-98435987D01*
X117146987Y-97796223D02*
X117045972Y-97829895D01*
X117045972Y-97829895D02*
X116944957Y-97796223D01*
X116944957Y-97796223D02*
X116338865Y-97190132D01*
X117652064Y-97223803D02*
X117618392Y-97324818D01*
X117618392Y-97324818D02*
X117483705Y-97459505D01*
X117483705Y-97459505D02*
X117382690Y-97493177D01*
X117382690Y-97493177D02*
X117281674Y-97459505D01*
X117281674Y-97459505D02*
X117012300Y-97190131D01*
X117012300Y-97190131D02*
X116978629Y-97089116D01*
X116978629Y-97089116D02*
X117012300Y-96988101D01*
X117012300Y-96988101D02*
X117146987Y-96853414D01*
X117146987Y-96853414D02*
X117248003Y-96819742D01*
X117248003Y-96819742D02*
X117349018Y-96853414D01*
X117349018Y-96853414D02*
X117416361Y-96920757D01*
X117416361Y-96920757D02*
X117146987Y-97324818D01*
D11*
%TO.C,R3*%
X95385000Y-100572936D02*
X95385000Y-101027064D01*
X93915000Y-100572936D02*
X93915000Y-101027064D01*
%TO.C,R2*%
X104080000Y-101046359D02*
X104080000Y-101353641D01*
X103320000Y-101046359D02*
X103320000Y-101353641D01*
%TO.C,R1*%
X96680000Y-101046359D02*
X96680000Y-101353641D01*
X95920000Y-101046359D02*
X95920000Y-101353641D01*
%TO.C,J2*%
X95530000Y-105490000D02*
X95530000Y-107290000D01*
X95530000Y-111000000D02*
X95530000Y-109540000D01*
X104470000Y-111000000D02*
X104470000Y-109540000D01*
X104470000Y-111000000D02*
X95530000Y-111000000D01*
X104470000Y-105490000D02*
X104470000Y-107290000D01*
%TO.C,D2*%
X100002502Y-102535000D02*
X102287502Y-102535000D01*
X100002502Y-101065000D02*
X100002502Y-102535000D01*
X102287502Y-101065000D02*
X100002502Y-101065000D01*
%TO.C,D1*%
X97712500Y-102535000D02*
X99997500Y-102535000D01*
X99997500Y-102535000D02*
X99997500Y-101065000D01*
X99997500Y-101065000D02*
X97712500Y-101065000D01*
%TO.C,C1*%
X104590000Y-100636252D02*
X104590000Y-99213748D01*
X106410000Y-100636252D02*
X106410000Y-99213748D01*
%TD*%
M02*
