%TF.GenerationSoftware,KiCad,Pcbnew,7.0.7*%
%TF.CreationDate,2023-09-11T21:43:25+02:00*%
%TF.ProjectId,usb-board,7573622d-626f-4617-9264-2e6b69636164,rev?*%
%TF.SameCoordinates,Original*%
%TF.FileFunction,Copper,L1,Top*%
%TF.FilePolarity,Positive*%
%FSLAX46Y46*%
G04 Gerber Fmt 4.6, Leading zero omitted, Abs format (unit mm)*
G04 Created by KiCad (PCBNEW 7.0.7) date 2023-09-11 21:43:25*
%MOMM*%
%LPD*%
G01*
G04 APERTURE LIST*
G04 Aperture macros list*
%AMRoundRect*
0 Rectangle with rounded corners*
0 $1 Rounding radius*
0 $2 $3 $4 $5 $6 $7 $8 $9 X,Y pos of 4 corners*
0 Add a 4 corners polygon primitive as box body*
4,1,4,$2,$3,$4,$5,$6,$7,$8,$9,$2,$3,0*
0 Add four circle primitives for the rounded corners*
1,1,$1+$1,$2,$3*
1,1,$1+$1,$4,$5*
1,1,$1+$1,$6,$7*
1,1,$1+$1,$8,$9*
0 Add four rect primitives between the rounded corners*
20,1,$1+$1,$2,$3,$4,$5,0*
20,1,$1+$1,$4,$5,$6,$7,0*
20,1,$1+$1,$6,$7,$8,$9,0*
20,1,$1+$1,$8,$9,$2,$3,0*%
G04 Aperture macros list end*
%TA.AperFunction,SMDPad,CuDef*%
%ADD10RoundRect,0.250000X-0.450000X0.262500X-0.450000X-0.262500X0.450000X-0.262500X0.450000X0.262500X0*%
%TD*%
%TA.AperFunction,SMDPad,CuDef*%
%ADD11RoundRect,0.135000X-0.185000X0.135000X-0.185000X-0.135000X0.185000X-0.135000X0.185000X0.135000X0*%
%TD*%
%TA.AperFunction,ComponentPad*%
%ADD12O,0.900000X1.700000*%
%TD*%
%TA.AperFunction,ComponentPad*%
%ADD13O,0.900000X2.000000*%
%TD*%
%TA.AperFunction,SMDPad,CuDef*%
%ADD14R,0.600000X1.160000*%
%TD*%
%TA.AperFunction,SMDPad,CuDef*%
%ADD15R,0.300000X1.160000*%
%TD*%
%TA.AperFunction,ComponentPad*%
%ADD16O,1.350000X1.350000*%
%TD*%
%TA.AperFunction,ComponentPad*%
%ADD17R,1.350000X1.350000*%
%TD*%
%TA.AperFunction,SMDPad,CuDef*%
%ADD18RoundRect,0.218750X-0.218750X-0.256250X0.218750X-0.256250X0.218750X0.256250X-0.218750X0.256250X0*%
%TD*%
%TA.AperFunction,SMDPad,CuDef*%
%ADD19RoundRect,0.218750X0.218750X0.256250X-0.218750X0.256250X-0.218750X-0.256250X0.218750X-0.256250X0*%
%TD*%
%TA.AperFunction,SMDPad,CuDef*%
%ADD20RoundRect,0.250000X0.650000X-0.325000X0.650000X0.325000X-0.650000X0.325000X-0.650000X-0.325000X0*%
%TD*%
%TA.AperFunction,ViaPad*%
%ADD21C,0.500000*%
%TD*%
%TA.AperFunction,Conductor*%
%ADD22C,0.127000*%
%TD*%
%TA.AperFunction,Conductor*%
%ADD23C,0.250000*%
%TD*%
G04 APERTURE END LIST*
D10*
%TO.P,R3,1*%
%TO.N,GND*%
X94650000Y-99887500D03*
%TO.P,R3,2*%
%TO.N,Net-(J2-SHIELD)*%
X94650000Y-101712500D03*
%TD*%
D11*
%TO.P,R2,1*%
%TO.N,Net-(J2-CC2)*%
X103700000Y-100690000D03*
%TO.P,R2,2*%
%TO.N,GND*%
X103700000Y-101710000D03*
%TD*%
%TO.P,R1,1*%
%TO.N,Net-(J2-CC1)*%
X96300000Y-100690000D03*
%TO.P,R1,2*%
%TO.N,GND*%
X96300000Y-101710000D03*
%TD*%
D12*
%TO.P,J2,S1,SHIELD*%
%TO.N,Net-(J2-SHIELD)*%
X104320000Y-108400000D03*
D13*
X104320000Y-104230000D03*
D12*
X95680000Y-108400000D03*
D13*
X95680000Y-104230000D03*
D14*
%TO.P,J2,B12,GND*%
%TO.N,GND*%
X96800000Y-103650000D03*
%TO.P,J2,B9,VBUS*%
%TO.N,VBUS*%
X97600000Y-103650000D03*
D15*
%TO.P,J2,B8,SBU2*%
%TO.N,unconnected-(J2-SBU2-PadB8)*%
X98250000Y-103650000D03*
%TO.P,J2,B7,D-*%
%TO.N,Net-(J1-Pin_5)*%
X99250000Y-103650000D03*
%TO.P,J2,B6,D+*%
%TO.N,Net-(J1-Pin_4)*%
X100750000Y-103650000D03*
%TO.P,J2,B5,CC2*%
%TO.N,Net-(J2-CC2)*%
X101750000Y-103650000D03*
D14*
%TO.P,J2,B4,VBUS*%
%TO.N,VBUS*%
X102400000Y-103650000D03*
%TO.P,J2,B1,GND*%
%TO.N,GND*%
X103200000Y-103650000D03*
%TO.P,J2,A12,GND*%
X103200000Y-103650000D03*
%TO.P,J2,A9,VBUS*%
%TO.N,VBUS*%
X102400000Y-103650000D03*
D15*
%TO.P,J2,A8,SBU1*%
%TO.N,unconnected-(J2-SBU1-PadA8)*%
X101250000Y-103650000D03*
%TO.P,J2,A7,D-*%
%TO.N,Net-(J1-Pin_5)*%
X100250000Y-103650000D03*
%TO.P,J2,A6,D+*%
%TO.N,Net-(J1-Pin_4)*%
X99750000Y-103650000D03*
%TO.P,J2,A5,CC1*%
%TO.N,Net-(J2-CC1)*%
X98750000Y-103650000D03*
D14*
%TO.P,J2,A4,VBUS*%
%TO.N,VBUS*%
X97600000Y-103650000D03*
%TO.P,J2,A1,GND*%
%TO.N,GND*%
X96800000Y-103650000D03*
%TD*%
D16*
%TO.P,J1,6,Pin_6*%
%TO.N,GND*%
X95000000Y-94000000D03*
%TO.P,J1,5,Pin_5*%
%TO.N,Net-(J1-Pin_5)*%
X97000000Y-94000000D03*
%TO.P,J1,4,Pin_4*%
%TO.N,Net-(J1-Pin_4)*%
X99000000Y-94000000D03*
%TO.P,J1,3,Pin_3*%
%TO.N,VBUS*%
X101000000Y-94000000D03*
%TO.P,J1,2,Pin_2*%
%TO.N,Net-(D1-A)*%
X103000000Y-94000000D03*
D17*
%TO.P,J1,1,Pin_1*%
%TO.N,Net-(D2-A)*%
X105000000Y-94000000D03*
%TD*%
D18*
%TO.P,D2,1,K*%
%TO.N,GND*%
X100700002Y-101800000D03*
%TO.P,D2,2,A*%
%TO.N,Net-(D2-A)*%
X102275002Y-101800000D03*
%TD*%
D19*
%TO.P,D1,2,A*%
%TO.N,Net-(D1-A)*%
X97725000Y-101800000D03*
%TO.P,D1,1,K*%
%TO.N,GND*%
X99300000Y-101800000D03*
%TD*%
D20*
%TO.P,C1,1*%
%TO.N,Net-(J2-SHIELD)*%
X105500000Y-101400000D03*
%TO.P,C1,2*%
%TO.N,GND*%
X105500000Y-98450000D03*
%TD*%
D21*
%TO.N,Net-(D2-A)*%
X102275000Y-99475000D03*
X105000000Y-96750000D03*
%TO.N,Net-(D1-A)*%
X100000000Y-98500000D03*
X102000000Y-96500000D03*
%TO.N,Net-(J2-CC1)*%
X96300000Y-100150000D03*
%TO.N,Net-(J2-CC2)*%
X103700000Y-100100000D03*
%TO.N,Net-(J1-Pin_4)*%
X100500000Y-105350000D03*
%TO.N,Net-(J2-CC2)*%
X101550000Y-105650000D03*
%TO.N,Net-(J2-CC1)*%
X98750000Y-105250000D03*
%TO.N,GND*%
X95650000Y-99900000D03*
X94650000Y-99100000D03*
X94650000Y-100700000D03*
X105900000Y-97600000D03*
X105500000Y-99300000D03*
X106800000Y-98500000D03*
X93600000Y-99900000D03*
X96400000Y-105400000D03*
X103600000Y-105400000D03*
X104400000Y-102700000D03*
X103700000Y-102400000D03*
X95200000Y-102800000D03*
X95800000Y-102300000D03*
X100000000Y-101800000D03*
%TO.N,Net-(J1-Pin_5)*%
X99250000Y-104600000D03*
X100250000Y-104600000D03*
%TD*%
D22*
%TO.N,Net-(D2-A)*%
X102275002Y-99474998D02*
X102275000Y-99475000D01*
%TO.N,Net-(D1-A)*%
X103000000Y-95500000D02*
X103000000Y-94000000D01*
X102000000Y-96500000D02*
X103000000Y-95500000D01*
X97725000Y-100775000D02*
X100000000Y-98500000D01*
X97725000Y-101800000D02*
X97725000Y-100775000D01*
%TO.N,Net-(D2-A)*%
X105000000Y-96750000D02*
X105000000Y-93950000D01*
X102275002Y-101800000D02*
X102275002Y-99474998D01*
%TO.N,Net-(J2-CC1)*%
X96300000Y-100150000D02*
X96300000Y-100750000D01*
%TO.N,Net-(J2-CC2)*%
X103700000Y-100690000D02*
X103700000Y-100100000D01*
%TO.N,Net-(J1-Pin_4)*%
X100500000Y-105100000D02*
X100500000Y-105350000D01*
%TO.N,Net-(J2-CC2)*%
X101550000Y-104850000D02*
X101550000Y-105650000D01*
X101600000Y-104800000D02*
X101550000Y-104850000D01*
X101750000Y-103650000D02*
X101750000Y-104650000D01*
X101750000Y-104650000D02*
X101600000Y-104800000D01*
%TO.N,Net-(J2-CC1)*%
X98750000Y-103650000D02*
X98750000Y-105250000D01*
D23*
%TO.N,VBUS*%
X102100000Y-104550000D02*
X102100000Y-105150000D01*
X102250000Y-104400000D02*
X102100000Y-104550000D01*
X102400000Y-103650000D02*
X102250000Y-103800000D01*
X102250000Y-103800000D02*
X102250000Y-104400000D01*
D22*
%TO.N,GND*%
X96300000Y-101710000D02*
X96300000Y-101800000D01*
X96300000Y-101800000D02*
X95800000Y-102300000D01*
X103700000Y-102400000D02*
X103700000Y-101700000D01*
D23*
X95637500Y-99887500D02*
X95650000Y-99900000D01*
X94650000Y-99887500D02*
X95637500Y-99887500D01*
X94650000Y-99887500D02*
X94650000Y-99100000D01*
X94650000Y-99887500D02*
X94650000Y-100700000D01*
X105900000Y-98450000D02*
X105900000Y-97600000D01*
X105500000Y-98450000D02*
X105500000Y-99300000D01*
X106750000Y-98450000D02*
X106800000Y-98500000D01*
X105500000Y-98450000D02*
X106750000Y-98450000D01*
X93612500Y-99887500D02*
X93600000Y-99900000D01*
X94650000Y-99887500D02*
X93612500Y-99887500D01*
%TO.N,Net-(J2-SHIELD)*%
X95680000Y-108400000D02*
X104300000Y-108400000D01*
X95680000Y-108780000D02*
X95700000Y-108800000D01*
X95680000Y-104230000D02*
X95680000Y-108780000D01*
X95700000Y-104100000D02*
X95700000Y-104600000D01*
X94650000Y-103050000D02*
X95700000Y-104100000D01*
X94650000Y-101712500D02*
X94650000Y-103050000D01*
X104300000Y-103700000D02*
X104300000Y-108400000D01*
X105500000Y-101400000D02*
X105375000Y-101525000D01*
X105375000Y-101525000D02*
X105375000Y-102625000D01*
X105375000Y-102625000D02*
X104300000Y-103700000D01*
%TO.N,GND*%
X96400000Y-104800000D02*
X96400000Y-105400000D01*
X96800000Y-103650000D02*
X96400000Y-104050000D01*
X96400000Y-104050000D02*
X96400000Y-104800000D01*
X103600000Y-104900000D02*
X103600000Y-105400000D01*
X103200000Y-103650000D02*
X103600000Y-104050000D01*
X103600000Y-104050000D02*
X103600000Y-104900000D01*
X104200000Y-102700000D02*
X104400000Y-102700000D01*
X104000000Y-102900000D02*
X104200000Y-102700000D01*
X103200000Y-103650000D02*
X103250000Y-103650000D01*
X103250000Y-103650000D02*
X104000000Y-102900000D01*
X103700000Y-102600000D02*
X103700000Y-102400000D01*
X103600000Y-102700000D02*
X103700000Y-102600000D01*
X103200000Y-103100000D02*
X103600000Y-102700000D01*
X103200000Y-103650000D02*
X103200000Y-103100000D01*
X95900000Y-102800000D02*
X95200000Y-102800000D01*
X96300000Y-103200000D02*
X95900000Y-102800000D01*
X96800000Y-103650000D02*
X96750000Y-103650000D01*
X96750000Y-103650000D02*
X96300000Y-103200000D01*
X95900000Y-102300000D02*
X95800000Y-102300000D01*
X96300000Y-102700000D02*
X95900000Y-102300000D01*
X96800000Y-103650000D02*
X96800000Y-103200000D01*
X96800000Y-103200000D02*
X96300000Y-102700000D01*
%TO.N,VBUS*%
X102400000Y-103650000D02*
X102400000Y-104100000D01*
X97600000Y-104100000D02*
X98200000Y-104700000D01*
X97600000Y-103650000D02*
X97600000Y-104100000D01*
%TO.N,GND*%
X96800000Y-103650000D02*
X96800000Y-103400000D01*
%TO.N,VBUS*%
X97600000Y-103200000D02*
X96900000Y-102500000D01*
X97600000Y-103650000D02*
X97600000Y-103200000D01*
X98100000Y-102600000D02*
X98500000Y-102600000D01*
X98000000Y-102700000D02*
X98100000Y-102600000D01*
X97600000Y-103650000D02*
X97600000Y-103100000D01*
X97600000Y-103100000D02*
X98000000Y-102700000D01*
X102400000Y-103100000D02*
X103000000Y-102500000D01*
X102400000Y-103650000D02*
X102400000Y-103100000D01*
X101834000Y-102500000D02*
X101500000Y-102500000D01*
X102400000Y-103066000D02*
X101834000Y-102500000D01*
X102400000Y-103650000D02*
X102400000Y-103066000D01*
D22*
%TO.N,GND*%
X100000000Y-101800000D02*
X100700000Y-101800000D01*
X99300000Y-101800000D02*
X100000000Y-101800000D01*
%TO.N,Net-(J1-Pin_5)*%
X99250000Y-103650000D02*
X99250000Y-104600000D01*
%TO.N,Net-(J1-Pin_4)*%
X99750000Y-104850000D02*
X100000000Y-105100000D01*
X99750000Y-103650000D02*
X99750000Y-104850000D01*
X100000000Y-105100000D02*
X100500000Y-105100000D01*
X100750000Y-104850000D02*
X100500000Y-105100000D01*
X100750000Y-103650000D02*
X100750000Y-104850000D01*
%TO.N,Net-(J1-Pin_5)*%
X100250000Y-103650000D02*
X100250000Y-104600000D01*
%TD*%
%TA.AperFunction,Conductor*%
%TO.N,VBUS*%
G36*
X100720869Y-93018806D02*
G01*
X100739175Y-93063000D01*
X100720869Y-93107194D01*
X100702096Y-93120096D01*
X100534954Y-93194513D01*
X100534948Y-93194516D01*
X100377646Y-93308804D01*
X100377639Y-93308810D01*
X100247538Y-93453301D01*
X100247537Y-93453303D01*
X100150313Y-93621701D01*
X100090230Y-93806619D01*
X100083044Y-93875000D01*
X100541634Y-93875000D01*
X100585828Y-93893306D01*
X100604134Y-93937500D01*
X100603365Y-93947268D01*
X100595014Y-94000000D01*
X100603364Y-94052724D01*
X100592198Y-94099237D01*
X100551411Y-94124231D01*
X100541634Y-94125000D01*
X100083044Y-94125000D01*
X100090230Y-94193380D01*
X100150313Y-94378298D01*
X100247537Y-94546696D01*
X100247538Y-94546698D01*
X100377643Y-94691194D01*
X100377644Y-94691195D01*
X100534946Y-94805482D01*
X100712581Y-94884571D01*
X100712590Y-94884574D01*
X100874999Y-94919095D01*
X100875000Y-94919094D01*
X100875000Y-94458366D01*
X100893306Y-94414172D01*
X100937500Y-94395866D01*
X100947278Y-94396636D01*
X100960185Y-94398680D01*
X100968519Y-94400000D01*
X100968521Y-94400000D01*
X101031479Y-94400000D01*
X101031481Y-94400000D01*
X101031484Y-94399999D01*
X101031489Y-94399999D01*
X101044687Y-94397908D01*
X101052720Y-94396636D01*
X101099234Y-94407801D01*
X101124229Y-94448587D01*
X101124999Y-94458366D01*
X101124999Y-94919094D01*
X101125000Y-94919095D01*
X101287409Y-94884574D01*
X101287418Y-94884571D01*
X101465053Y-94805482D01*
X101622355Y-94691195D01*
X101622356Y-94691194D01*
X101752461Y-94546698D01*
X101752462Y-94546696D01*
X101849686Y-94378298D01*
X101909769Y-94193380D01*
X101916956Y-94125000D01*
X101458366Y-94125000D01*
X101414172Y-94106694D01*
X101395866Y-94062500D01*
X101396634Y-94052731D01*
X101404986Y-94000000D01*
X101396635Y-93947275D01*
X101407802Y-93900763D01*
X101448589Y-93875769D01*
X101458366Y-93875000D01*
X101916956Y-93875000D01*
X101909769Y-93806619D01*
X101849686Y-93621701D01*
X101752462Y-93453303D01*
X101752461Y-93453301D01*
X101622356Y-93308805D01*
X101622355Y-93308804D01*
X101465053Y-93194517D01*
X101297904Y-93120097D01*
X101264976Y-93085398D01*
X101266228Y-93037579D01*
X101300927Y-93004651D01*
X101323325Y-93000500D01*
X113766798Y-93000500D01*
X113810992Y-93018806D01*
X114481194Y-93689008D01*
X114499500Y-93733202D01*
X114499500Y-96802509D01*
X114485804Y-96841552D01*
X113082109Y-98596170D01*
X113040207Y-98619245D01*
X112994262Y-98605931D01*
X112971187Y-98564029D01*
X112971629Y-98547015D01*
X112980156Y-98495010D01*
X112980155Y-98495009D01*
X112975274Y-98404990D01*
X112970422Y-98315499D01*
X112922327Y-98142277D01*
X112838119Y-97983444D01*
X112721735Y-97846426D01*
X112610650Y-97761981D01*
X112578619Y-97737631D01*
X112487477Y-97695465D01*
X112415459Y-97662146D01*
X112415460Y-97662146D01*
X112371566Y-97652484D01*
X112239887Y-97623500D01*
X112105184Y-97623500D01*
X112105183Y-97623500D01*
X111971278Y-97638063D01*
X111971272Y-97638064D01*
X111800913Y-97695465D01*
X111646874Y-97788149D01*
X111646873Y-97788149D01*
X111516357Y-97911781D01*
X111415469Y-98060580D01*
X111348931Y-98227580D01*
X111319845Y-98404990D01*
X111319844Y-98404990D01*
X111329577Y-98584494D01*
X111329577Y-98584498D01*
X111329578Y-98584501D01*
X111342746Y-98631928D01*
X111377673Y-98757724D01*
X111377675Y-98757728D01*
X111446202Y-98886982D01*
X111461881Y-98916556D01*
X111578265Y-99053574D01*
X111666357Y-99120540D01*
X111721380Y-99162368D01*
X111721381Y-99162368D01*
X111721382Y-99162369D01*
X111884541Y-99237854D01*
X112060113Y-99276500D01*
X112060116Y-99276500D01*
X112194812Y-99276500D01*
X112194816Y-99276500D01*
X112328721Y-99261937D01*
X112429205Y-99228080D01*
X112476929Y-99231316D01*
X112508388Y-99267351D01*
X112505152Y-99315077D01*
X112497964Y-99326351D01*
X110737289Y-101527196D01*
X110700742Y-101549439D01*
X105956510Y-102498286D01*
X105944253Y-102499500D01*
X105928039Y-102499500D01*
X105881500Y-102513163D01*
X105878827Y-102513821D01*
X105866744Y-102516238D01*
X105866742Y-102516239D01*
X105846671Y-102523342D01*
X105845051Y-102523866D01*
X105789949Y-102540046D01*
X105789942Y-102540049D01*
X105784353Y-102543641D01*
X105771424Y-102549977D01*
X105765995Y-102551899D01*
X105765158Y-102552196D01*
X105726607Y-102580055D01*
X105680065Y-102591103D01*
X105639343Y-102566005D01*
X105627500Y-102529398D01*
X105627500Y-102164999D01*
X105645806Y-102120805D01*
X105690000Y-102102499D01*
X106185826Y-102102499D01*
X106259204Y-102091809D01*
X106372390Y-102036476D01*
X106461476Y-101947390D01*
X106516809Y-101834204D01*
X106527500Y-101760827D01*
X106527499Y-101039174D01*
X106516809Y-100965796D01*
X106461476Y-100852610D01*
X106372390Y-100763524D01*
X106259204Y-100708191D01*
X106259202Y-100708190D01*
X106259201Y-100708190D01*
X106200913Y-100699698D01*
X106185827Y-100697500D01*
X106185826Y-100697500D01*
X104814174Y-100697500D01*
X104740798Y-100708190D01*
X104740797Y-100708190D01*
X104740796Y-100708191D01*
X104629672Y-100762516D01*
X104627608Y-100763525D01*
X104538525Y-100852608D01*
X104483190Y-100965798D01*
X104472500Y-101039173D01*
X104472500Y-101760825D01*
X104483190Y-101834201D01*
X104483191Y-101834204D01*
X104538524Y-101947390D01*
X104627610Y-102036476D01*
X104740796Y-102091809D01*
X104814173Y-102102500D01*
X105059999Y-102102499D01*
X105104193Y-102120805D01*
X105122499Y-102164999D01*
X105122500Y-102494522D01*
X105104194Y-102538716D01*
X104911016Y-102731893D01*
X104866822Y-102750199D01*
X104822628Y-102731893D01*
X104805092Y-102697479D01*
X104785646Y-102574696D01*
X104728050Y-102461658D01*
X104638342Y-102371950D01*
X104525304Y-102314354D01*
X104400000Y-102294508D01*
X104274695Y-102314354D01*
X104274691Y-102314355D01*
X104182222Y-102361471D01*
X104134534Y-102365224D01*
X104098160Y-102334157D01*
X104092118Y-102315564D01*
X104085646Y-102274696D01*
X104028050Y-102161658D01*
X104024032Y-102157640D01*
X104005726Y-102113446D01*
X104024032Y-102069252D01*
X104033504Y-102061479D01*
X104074251Y-102034253D01*
X104089906Y-102010825D01*
X104132270Y-101947423D01*
X104147500Y-101870856D01*
X104147500Y-101549144D01*
X104132270Y-101472577D01*
X104132269Y-101472575D01*
X104074252Y-101385747D01*
X103987424Y-101327730D01*
X103987422Y-101327729D01*
X103910856Y-101312500D01*
X103489144Y-101312500D01*
X103412577Y-101327729D01*
X103412575Y-101327730D01*
X103325747Y-101385747D01*
X103267730Y-101472575D01*
X103267729Y-101472577D01*
X103252500Y-101549143D01*
X103252500Y-101870856D01*
X103267729Y-101947422D01*
X103267730Y-101947424D01*
X103325747Y-102034252D01*
X103366495Y-102061479D01*
X103393071Y-102101253D01*
X103383739Y-102148169D01*
X103375969Y-102157637D01*
X103371952Y-102161654D01*
X103314354Y-102274694D01*
X103314354Y-102274695D01*
X103294508Y-102400000D01*
X103314354Y-102525304D01*
X103314355Y-102525308D01*
X103328590Y-102553245D01*
X103332343Y-102600933D01*
X103317096Y-102625813D01*
X103043395Y-102899514D01*
X103033927Y-102907285D01*
X103017956Y-102917957D01*
X103013604Y-102922310D01*
X103011665Y-102920371D01*
X102980341Y-102941300D01*
X102968151Y-102942500D01*
X102887442Y-102942500D01*
X102868847Y-102946199D01*
X102850251Y-102949898D01*
X102850250Y-102949898D01*
X102808077Y-102978077D01*
X102779898Y-103020250D01*
X102779898Y-103020251D01*
X102772500Y-103057442D01*
X102772500Y-104119854D01*
X102754194Y-104164048D01*
X102734901Y-104177179D01*
X102601278Y-104235220D01*
X102483893Y-104330721D01*
X102483890Y-104330724D01*
X102396622Y-104454353D01*
X102345945Y-104596944D01*
X102336115Y-104740668D01*
X102335619Y-104747921D01*
X102363490Y-104882045D01*
X102366408Y-104896084D01*
X102366408Y-104896086D01*
X102402452Y-104965647D01*
X102436029Y-105030447D01*
X102524050Y-105124694D01*
X102539321Y-105141045D01*
X102573218Y-105161658D01*
X102668618Y-105219672D01*
X102668624Y-105219673D01*
X102668625Y-105219674D01*
X102686542Y-105224694D01*
X102814332Y-105260499D01*
X102814332Y-105260500D01*
X102814335Y-105260500D01*
X102927657Y-105260500D01*
X102927658Y-105260500D01*
X103039920Y-105245070D01*
X103127836Y-105206881D01*
X103175664Y-105206064D01*
X103210061Y-105239306D01*
X103214467Y-105273984D01*
X103214354Y-105274695D01*
X103214354Y-105274696D01*
X103194508Y-105400000D01*
X103206434Y-105475298D01*
X103214354Y-105525304D01*
X103214354Y-105525305D01*
X103250688Y-105596613D01*
X103271950Y-105638342D01*
X103361658Y-105728050D01*
X103474696Y-105785646D01*
X103600000Y-105805492D01*
X103725304Y-105785646D01*
X103838342Y-105728050D01*
X103928050Y-105638342D01*
X103929311Y-105635866D01*
X103930728Y-105634656D01*
X103930943Y-105634361D01*
X103931013Y-105634412D01*
X103965684Y-105604799D01*
X104013372Y-105608550D01*
X104044440Y-105644923D01*
X104047500Y-105664239D01*
X104047500Y-107450352D01*
X104029194Y-107494546D01*
X104023048Y-107499937D01*
X103908120Y-107588123D01*
X103815553Y-107708762D01*
X103757366Y-107849238D01*
X103757363Y-107849248D01*
X103742500Y-107962146D01*
X103742500Y-108085000D01*
X103724194Y-108129194D01*
X103680000Y-108147500D01*
X96320000Y-108147500D01*
X96275806Y-108129194D01*
X96257500Y-108085000D01*
X96257500Y-107962157D01*
X96257500Y-107962151D01*
X96242635Y-107849242D01*
X96184445Y-107708759D01*
X96091878Y-107588122D01*
X96091876Y-107588121D01*
X96091876Y-107588120D01*
X95971238Y-107495552D01*
X95971071Y-107495483D01*
X95971006Y-107495418D01*
X95967691Y-107493504D01*
X95968204Y-107492615D01*
X95937253Y-107461651D01*
X95932500Y-107437745D01*
X95932500Y-105624987D01*
X95950806Y-105580793D01*
X95995000Y-105562487D01*
X96039194Y-105580793D01*
X96050688Y-105596613D01*
X96070688Y-105635867D01*
X96071950Y-105638342D01*
X96161658Y-105728050D01*
X96274696Y-105785646D01*
X96400000Y-105805492D01*
X96525304Y-105785646D01*
X96638342Y-105728050D01*
X96728050Y-105638342D01*
X96785646Y-105525304D01*
X96805492Y-105400000D01*
X96786140Y-105277816D01*
X96797307Y-105231304D01*
X96838094Y-105206310D01*
X96880343Y-105214640D01*
X96888618Y-105219672D01*
X96888624Y-105219673D01*
X96888625Y-105219674D01*
X96906542Y-105224694D01*
X97034332Y-105260499D01*
X97034332Y-105260500D01*
X97034335Y-105260500D01*
X97147657Y-105260500D01*
X97147658Y-105260500D01*
X97259920Y-105245070D01*
X97398720Y-105184780D01*
X97516108Y-105089278D01*
X97603377Y-104965647D01*
X97654054Y-104823056D01*
X97664381Y-104672079D01*
X97633592Y-104523915D01*
X97563971Y-104389553D01*
X97460680Y-104278956D01*
X97460679Y-104278955D01*
X97460678Y-104278954D01*
X97400825Y-104242557D01*
X97972500Y-104242557D01*
X97979898Y-104279748D01*
X97979898Y-104279749D01*
X98008077Y-104321922D01*
X98024256Y-104332732D01*
X98050252Y-104350102D01*
X98087442Y-104357500D01*
X98087443Y-104357500D01*
X98412557Y-104357500D01*
X98412558Y-104357500D01*
X98449748Y-104350102D01*
X98461776Y-104342064D01*
X98508691Y-104332732D01*
X98548466Y-104359306D01*
X98559000Y-104394031D01*
X98559000Y-104859528D01*
X98540694Y-104903722D01*
X98524875Y-104915215D01*
X98511659Y-104921948D01*
X98511658Y-104921950D01*
X98421950Y-105011657D01*
X98364354Y-105124694D01*
X98364354Y-105124695D01*
X98345674Y-105242641D01*
X98344508Y-105250000D01*
X98360346Y-105350000D01*
X98364354Y-105375304D01*
X98364354Y-105375305D01*
X98376937Y-105400000D01*
X98421950Y-105488342D01*
X98511658Y-105578050D01*
X98624696Y-105635646D01*
X98750000Y-105655492D01*
X98875304Y-105635646D01*
X98988342Y-105578050D01*
X99078050Y-105488342D01*
X99135646Y-105375304D01*
X99155492Y-105250000D01*
X99135646Y-105124696D01*
X99135644Y-105124692D01*
X99135643Y-105124689D01*
X99119832Y-105093660D01*
X99115225Y-105084619D01*
X99111472Y-105036933D01*
X99142538Y-105000558D01*
X99180688Y-104994514D01*
X99250000Y-105005492D01*
X99375304Y-104985646D01*
X99488342Y-104928050D01*
X99488345Y-104928046D01*
X99490395Y-104926558D01*
X99492049Y-104926160D01*
X99492724Y-104925817D01*
X99492806Y-104925978D01*
X99536908Y-104915388D01*
X99575999Y-104938150D01*
X99592885Y-104959324D01*
X99594913Y-104962182D01*
X99599725Y-104969840D01*
X99606117Y-104976232D01*
X99608454Y-104978847D01*
X99627851Y-105003170D01*
X99628322Y-105003397D01*
X99645398Y-105015513D01*
X99834486Y-105204601D01*
X99846601Y-105221673D01*
X99846829Y-105222148D01*
X99846830Y-105222149D01*
X99871155Y-105241548D01*
X99873766Y-105243881D01*
X99880160Y-105250275D01*
X99887172Y-105254680D01*
X99887806Y-105255079D01*
X99890668Y-105257109D01*
X99894919Y-105260499D01*
X99914997Y-105276511D01*
X99915499Y-105276625D01*
X99934851Y-105284639D01*
X99935294Y-105284918D01*
X99966219Y-105288401D01*
X99969667Y-105288988D01*
X99978477Y-105291000D01*
X99978479Y-105291000D01*
X99987517Y-105291000D01*
X99991019Y-105291197D01*
X100003782Y-105292634D01*
X100021935Y-105294680D01*
X100021941Y-105294677D01*
X100025244Y-105294306D01*
X100071210Y-105307547D01*
X100093974Y-105346636D01*
X100114352Y-105475298D01*
X100114354Y-105475305D01*
X100139830Y-105525304D01*
X100171950Y-105588342D01*
X100261658Y-105678050D01*
X100374696Y-105735646D01*
X100500000Y-105755492D01*
X100625304Y-105735646D01*
X100738342Y-105678050D01*
X100828050Y-105588342D01*
X100885646Y-105475304D01*
X100905492Y-105350000D01*
X100885646Y-105224696D01*
X100828050Y-105111658D01*
X100828049Y-105111657D01*
X100825817Y-105107276D01*
X100828120Y-105106102D01*
X100818969Y-105068044D01*
X100836507Y-105033606D01*
X100854602Y-105015511D01*
X100871679Y-105003396D01*
X100872149Y-105003170D01*
X100891548Y-104978842D01*
X100893885Y-104976229D01*
X100900275Y-104969840D01*
X100905082Y-104962189D01*
X100907114Y-104959324D01*
X100910561Y-104955002D01*
X100926511Y-104935003D01*
X100926625Y-104934500D01*
X100934644Y-104915141D01*
X100934918Y-104914706D01*
X100938401Y-104883779D01*
X100938988Y-104880332D01*
X100941000Y-104871521D01*
X100941000Y-104862482D01*
X100941197Y-104858980D01*
X100941884Y-104852877D01*
X100944680Y-104828065D01*
X100944507Y-104827570D01*
X100941000Y-104806928D01*
X100941000Y-104394031D01*
X100959306Y-104349837D01*
X101003500Y-104331531D01*
X101038222Y-104342064D01*
X101050252Y-104350102D01*
X101087442Y-104357500D01*
X101087443Y-104357500D01*
X101412557Y-104357500D01*
X101412558Y-104357500D01*
X101449748Y-104350102D01*
X101461776Y-104342064D01*
X101508691Y-104332732D01*
X101548466Y-104359306D01*
X101559000Y-104394031D01*
X101559000Y-104544995D01*
X101540694Y-104589189D01*
X101461853Y-104668029D01*
X101461853Y-104668030D01*
X101461852Y-104668032D01*
X101445393Y-104684490D01*
X101428328Y-104696600D01*
X101427850Y-104696829D01*
X101408455Y-104721150D01*
X101406121Y-104723762D01*
X101399725Y-104730159D01*
X101399724Y-104730160D01*
X101394916Y-104737812D01*
X101392889Y-104740668D01*
X101373489Y-104764996D01*
X101373488Y-104764998D01*
X101373370Y-104765516D01*
X101365365Y-104784843D01*
X101365082Y-104785293D01*
X101365081Y-104785295D01*
X101361598Y-104816211D01*
X101361011Y-104819666D01*
X101359000Y-104828477D01*
X101359000Y-104837516D01*
X101358803Y-104841017D01*
X101355320Y-104871935D01*
X101355492Y-104872427D01*
X101359000Y-104893071D01*
X101359000Y-105259528D01*
X101340694Y-105303722D01*
X101324875Y-105315215D01*
X101311659Y-105321948D01*
X101311658Y-105321950D01*
X101221950Y-105411657D01*
X101164354Y-105524694D01*
X101164354Y-105524695D01*
X101146355Y-105638341D01*
X101144508Y-105650000D01*
X101148951Y-105678050D01*
X101164354Y-105775304D01*
X101164354Y-105775305D01*
X101221949Y-105888341D01*
X101221950Y-105888342D01*
X101311658Y-105978050D01*
X101424696Y-106035646D01*
X101550000Y-106055492D01*
X101675304Y-106035646D01*
X101788342Y-105978050D01*
X101878050Y-105888342D01*
X101935646Y-105775304D01*
X101955492Y-105650000D01*
X101935646Y-105524696D01*
X101878050Y-105411658D01*
X101788342Y-105321950D01*
X101788341Y-105321949D01*
X101788340Y-105321948D01*
X101775125Y-105315215D01*
X101744059Y-105278841D01*
X101741000Y-105259528D01*
X101741000Y-104955002D01*
X101759305Y-104910809D01*
X101854602Y-104815511D01*
X101871679Y-104803396D01*
X101872149Y-104803170D01*
X101891548Y-104778842D01*
X101893885Y-104776229D01*
X101900275Y-104769840D01*
X101905082Y-104762189D01*
X101907114Y-104759324D01*
X101926511Y-104735003D01*
X101926625Y-104734500D01*
X101934644Y-104715141D01*
X101934918Y-104714706D01*
X101938401Y-104683779D01*
X101938988Y-104680332D01*
X101940874Y-104672075D01*
X101941000Y-104671521D01*
X101941000Y-104662482D01*
X101941197Y-104658980D01*
X101941884Y-104652877D01*
X101944680Y-104628065D01*
X101944506Y-104627570D01*
X101941000Y-104606929D01*
X101941000Y-104389354D01*
X101959306Y-104345160D01*
X101968777Y-104337387D01*
X101991922Y-104321922D01*
X102020101Y-104279749D01*
X102020102Y-104279748D01*
X102027500Y-104242558D01*
X102027500Y-103057442D01*
X102020102Y-103020252D01*
X102000000Y-102990167D01*
X101991922Y-102978077D01*
X101949748Y-102949898D01*
X101946279Y-102949208D01*
X101912558Y-102942500D01*
X101587442Y-102942500D01*
X101568847Y-102946199D01*
X101550251Y-102949898D01*
X101550250Y-102949898D01*
X101534723Y-102960274D01*
X101487807Y-102969606D01*
X101465277Y-102960274D01*
X101449748Y-102949898D01*
X101446279Y-102949208D01*
X101412558Y-102942500D01*
X101087442Y-102942500D01*
X101068847Y-102946199D01*
X101050251Y-102949898D01*
X101050250Y-102949898D01*
X101034723Y-102960274D01*
X100987807Y-102969606D01*
X100965277Y-102960274D01*
X100949748Y-102949898D01*
X100946279Y-102949208D01*
X100912558Y-102942500D01*
X100587442Y-102942500D01*
X100568847Y-102946199D01*
X100550251Y-102949898D01*
X100550250Y-102949898D01*
X100534723Y-102960274D01*
X100487807Y-102969606D01*
X100465277Y-102960274D01*
X100449748Y-102949898D01*
X100446279Y-102949208D01*
X100412558Y-102942500D01*
X100087442Y-102942500D01*
X100068847Y-102946199D01*
X100050251Y-102949898D01*
X100050250Y-102949898D01*
X100034723Y-102960274D01*
X99987807Y-102969606D01*
X99965277Y-102960274D01*
X99949748Y-102949898D01*
X99946279Y-102949208D01*
X99912558Y-102942500D01*
X99587442Y-102942500D01*
X99568847Y-102946199D01*
X99550251Y-102949898D01*
X99550250Y-102949898D01*
X99534723Y-102960274D01*
X99487807Y-102969606D01*
X99465277Y-102960274D01*
X99449748Y-102949898D01*
X99446279Y-102949208D01*
X99412558Y-102942500D01*
X99087442Y-102942500D01*
X99068847Y-102946199D01*
X99050251Y-102949898D01*
X99050250Y-102949898D01*
X99034723Y-102960274D01*
X98987807Y-102969606D01*
X98965277Y-102960274D01*
X98949748Y-102949898D01*
X98946279Y-102949208D01*
X98912558Y-102942500D01*
X98587442Y-102942500D01*
X98568847Y-102946199D01*
X98550251Y-102949898D01*
X98550250Y-102949898D01*
X98534723Y-102960274D01*
X98487807Y-102969606D01*
X98465277Y-102960274D01*
X98449748Y-102949898D01*
X98446279Y-102949208D01*
X98412558Y-102942500D01*
X98087442Y-102942500D01*
X98068847Y-102946199D01*
X98050251Y-102949898D01*
X98050250Y-102949898D01*
X98008077Y-102978077D01*
X97979898Y-103020250D01*
X97979898Y-103020251D01*
X97972500Y-103057442D01*
X97972500Y-104242557D01*
X97400825Y-104242557D01*
X97374481Y-104226537D01*
X97331382Y-104200328D01*
X97331375Y-104200326D01*
X97273137Y-104184008D01*
X97235521Y-104154458D01*
X97227500Y-104123826D01*
X97227500Y-103057442D01*
X97226517Y-103052500D01*
X97220102Y-103020252D01*
X97200000Y-102990167D01*
X97191922Y-102978077D01*
X97149748Y-102949898D01*
X97146279Y-102949208D01*
X97112558Y-102942500D01*
X97112557Y-102942500D01*
X96925477Y-102942500D01*
X96881283Y-102924194D01*
X96210142Y-102253053D01*
X96192606Y-102218640D01*
X96191964Y-102214588D01*
X96203128Y-102168073D01*
X96209493Y-102160620D01*
X96244309Y-102125805D01*
X96288503Y-102107500D01*
X96510856Y-102107500D01*
X96564599Y-102096810D01*
X97160000Y-102096810D01*
X97160001Y-102096818D01*
X97166639Y-102147248D01*
X97171484Y-102157637D01*
X97218244Y-102257915D01*
X97218244Y-102257916D01*
X97304584Y-102344255D01*
X97304585Y-102344255D01*
X97304586Y-102344256D01*
X97415252Y-102395861D01*
X97465681Y-102402500D01*
X97984318Y-102402499D01*
X98034748Y-102395861D01*
X98145414Y-102344256D01*
X98231756Y-102257914D01*
X98283361Y-102147248D01*
X98290000Y-102096819D01*
X98290000Y-102096810D01*
X98735000Y-102096810D01*
X98735001Y-102096818D01*
X98741639Y-102147248D01*
X98746484Y-102157637D01*
X98793244Y-102257915D01*
X98793244Y-102257916D01*
X98879584Y-102344255D01*
X98879585Y-102344255D01*
X98879586Y-102344256D01*
X98990252Y-102395861D01*
X99040681Y-102402500D01*
X99559318Y-102402499D01*
X99609748Y-102395861D01*
X99720414Y-102344256D01*
X99720415Y-102344255D01*
X99720416Y-102344255D01*
X99806753Y-102257917D01*
X99806756Y-102257914D01*
X99822906Y-102223278D01*
X99858171Y-102190963D01*
X99889325Y-102187963D01*
X99908267Y-102190963D01*
X99999997Y-102205492D01*
X100000000Y-102205492D01*
X100000003Y-102205492D01*
X100091733Y-102190963D01*
X100110674Y-102187963D01*
X100157187Y-102199129D01*
X100177095Y-102223279D01*
X100193246Y-102257915D01*
X100279586Y-102344255D01*
X100279587Y-102344255D01*
X100279588Y-102344256D01*
X100390254Y-102395861D01*
X100440683Y-102402500D01*
X100959320Y-102402499D01*
X101009750Y-102395861D01*
X101120416Y-102344256D01*
X101206758Y-102257914D01*
X101258363Y-102147248D01*
X101265002Y-102096819D01*
X101265002Y-102096810D01*
X101710002Y-102096810D01*
X101710003Y-102096818D01*
X101716641Y-102147248D01*
X101721486Y-102157637D01*
X101768246Y-102257915D01*
X101854586Y-102344255D01*
X101854587Y-102344255D01*
X101854588Y-102344256D01*
X101965254Y-102395861D01*
X102015683Y-102402500D01*
X102534320Y-102402499D01*
X102584750Y-102395861D01*
X102695416Y-102344256D01*
X102781758Y-102257914D01*
X102833363Y-102147248D01*
X102840002Y-102096819D01*
X102840001Y-101503182D01*
X102833363Y-101452752D01*
X102781758Y-101342086D01*
X102781757Y-101342085D01*
X102781757Y-101342084D01*
X102695417Y-101255744D01*
X102584749Y-101204138D01*
X102534327Y-101197500D01*
X102534321Y-101197500D01*
X102528502Y-101197500D01*
X102484308Y-101179194D01*
X102466002Y-101135000D01*
X102466002Y-100850856D01*
X103252500Y-100850856D01*
X103267729Y-100927422D01*
X103267730Y-100927424D01*
X103325747Y-101014252D01*
X103412575Y-101072269D01*
X103412577Y-101072270D01*
X103489144Y-101087500D01*
X103910856Y-101087500D01*
X103987423Y-101072270D01*
X104074252Y-101014252D01*
X104132270Y-100927423D01*
X104147500Y-100850856D01*
X104147500Y-100529144D01*
X104132270Y-100452577D01*
X104074252Y-100365748D01*
X104074250Y-100365747D01*
X104074250Y-100365746D01*
X104069897Y-100361393D01*
X104071192Y-100360097D01*
X104048969Y-100326836D01*
X104054580Y-100286272D01*
X104085646Y-100225304D01*
X104105492Y-100100000D01*
X104089654Y-100000002D01*
X108194532Y-100000002D01*
X108214364Y-100226688D01*
X108214367Y-100226704D01*
X108273259Y-100446492D01*
X108273260Y-100446494D01*
X108369431Y-100652733D01*
X108499953Y-100839140D01*
X108660859Y-101000046D01*
X108675075Y-101010000D01*
X108847266Y-101130568D01*
X108847265Y-101130568D01*
X108950385Y-101178653D01*
X109053504Y-101226739D01*
X109053506Y-101226739D01*
X109053507Y-101226740D01*
X109273295Y-101285632D01*
X109273301Y-101285633D01*
X109273308Y-101285635D01*
X109443216Y-101300500D01*
X109556784Y-101300500D01*
X109726692Y-101285635D01*
X109726701Y-101285632D01*
X109726704Y-101285632D01*
X109946492Y-101226740D01*
X109946491Y-101226740D01*
X109946496Y-101226739D01*
X110152734Y-101130568D01*
X110339139Y-101000047D01*
X110500047Y-100839139D01*
X110630568Y-100652734D01*
X110726739Y-100446496D01*
X110746596Y-100372388D01*
X110785632Y-100226704D01*
X110785632Y-100226701D01*
X110785635Y-100226692D01*
X110803307Y-100024696D01*
X110805468Y-100000002D01*
X110805468Y-99999997D01*
X110793365Y-99861658D01*
X110785635Y-99773308D01*
X110785271Y-99771950D01*
X110726740Y-99553507D01*
X110726739Y-99553505D01*
X110721332Y-99541910D01*
X110630568Y-99347266D01*
X110597470Y-99299997D01*
X110500046Y-99160859D01*
X110339140Y-98999953D01*
X110220035Y-98916556D01*
X110152734Y-98869432D01*
X110152732Y-98869431D01*
X110152734Y-98869431D01*
X109946494Y-98773260D01*
X109946492Y-98773259D01*
X109726704Y-98714367D01*
X109726688Y-98714364D01*
X109556784Y-98699500D01*
X109443216Y-98699500D01*
X109273311Y-98714364D01*
X109273295Y-98714367D01*
X109053507Y-98773259D01*
X109053505Y-98773260D01*
X108847266Y-98869431D01*
X108660859Y-98999953D01*
X108499953Y-99160859D01*
X108369431Y-99347266D01*
X108273260Y-99553505D01*
X108273259Y-99553507D01*
X108214367Y-99773295D01*
X108214364Y-99773311D01*
X108194532Y-99999997D01*
X108194532Y-100000002D01*
X104089654Y-100000002D01*
X104085646Y-99974696D01*
X104028050Y-99861658D01*
X103938342Y-99771950D01*
X103825304Y-99714354D01*
X103700000Y-99694508D01*
X103574695Y-99714354D01*
X103574694Y-99714354D01*
X103461657Y-99771950D01*
X103371950Y-99861657D01*
X103314354Y-99974694D01*
X103314354Y-99974695D01*
X103294508Y-100100000D01*
X103314354Y-100225304D01*
X103314355Y-100225308D01*
X103345418Y-100286272D01*
X103349171Y-100333960D01*
X103329135Y-100360431D01*
X103330100Y-100361396D01*
X103325750Y-100365745D01*
X103267729Y-100452578D01*
X103252500Y-100529143D01*
X103252500Y-100850856D01*
X102466002Y-100850856D01*
X102466002Y-99865471D01*
X102484308Y-99821277D01*
X102500128Y-99809783D01*
X102502517Y-99808565D01*
X102513342Y-99803050D01*
X102603050Y-99713342D01*
X102660646Y-99600304D01*
X102680492Y-99475000D01*
X102660646Y-99349696D01*
X102603050Y-99236658D01*
X102513342Y-99146950D01*
X102400304Y-99089354D01*
X102275000Y-99069508D01*
X102149695Y-99089354D01*
X102149694Y-99089354D01*
X102036657Y-99146950D01*
X101946950Y-99236657D01*
X101889354Y-99349694D01*
X101889354Y-99349695D01*
X101869508Y-99475000D01*
X101889354Y-99600304D01*
X101889354Y-99600305D01*
X101946950Y-99713342D01*
X102036658Y-99803050D01*
X102049876Y-99809785D01*
X102080943Y-99846159D01*
X102084002Y-99865473D01*
X102084002Y-101135000D01*
X102065696Y-101179194D01*
X102021510Y-101197500D01*
X102015695Y-101197500D01*
X102015690Y-101197500D01*
X102015684Y-101197501D01*
X101965254Y-101204139D01*
X101965252Y-101204139D01*
X101965251Y-101204140D01*
X101854586Y-101255744D01*
X101854585Y-101255744D01*
X101768246Y-101342083D01*
X101768246Y-101342084D01*
X101716640Y-101452752D01*
X101710002Y-101503174D01*
X101710002Y-102096809D01*
X101710002Y-102096810D01*
X101265002Y-102096810D01*
X101265001Y-101503182D01*
X101258363Y-101452752D01*
X101206758Y-101342086D01*
X101206757Y-101342085D01*
X101206757Y-101342084D01*
X101120417Y-101255744D01*
X101009749Y-101204138D01*
X100959321Y-101197500D01*
X100440692Y-101197500D01*
X100440690Y-101197500D01*
X100440684Y-101197501D01*
X100390254Y-101204139D01*
X100390252Y-101204139D01*
X100390251Y-101204140D01*
X100279586Y-101255744D01*
X100193247Y-101342083D01*
X100177095Y-101376721D01*
X100141826Y-101409037D01*
X100110674Y-101412036D01*
X100000000Y-101394508D01*
X99889326Y-101412036D01*
X99842813Y-101400869D01*
X99822906Y-101376720D01*
X99806756Y-101342086D01*
X99806754Y-101342084D01*
X99806754Y-101342083D01*
X99720415Y-101255744D01*
X99609747Y-101204138D01*
X99559319Y-101197500D01*
X99040690Y-101197500D01*
X99040688Y-101197500D01*
X99040682Y-101197501D01*
X98990252Y-101204139D01*
X98990250Y-101204139D01*
X98990249Y-101204140D01*
X98879584Y-101255744D01*
X98879583Y-101255745D01*
X98793244Y-101342083D01*
X98793244Y-101342084D01*
X98741638Y-101452752D01*
X98735000Y-101503174D01*
X98735000Y-102096809D01*
X98735000Y-102096810D01*
X98290000Y-102096810D01*
X98289999Y-101503182D01*
X98283361Y-101452752D01*
X98231756Y-101342086D01*
X98231755Y-101342085D01*
X98231755Y-101342084D01*
X98145415Y-101255744D01*
X98034747Y-101204138D01*
X97984325Y-101197500D01*
X97984319Y-101197500D01*
X97978500Y-101197500D01*
X97934306Y-101179194D01*
X97916000Y-101135000D01*
X97916000Y-100880002D01*
X97934305Y-100835809D01*
X99860614Y-98909499D01*
X99904807Y-98891194D01*
X99914577Y-98891962D01*
X100000000Y-98905492D01*
X100125304Y-98885646D01*
X100238342Y-98828050D01*
X100255567Y-98810825D01*
X104472500Y-98810825D01*
X104483190Y-98884201D01*
X104483191Y-98884204D01*
X104538524Y-98997390D01*
X104627610Y-99086476D01*
X104740796Y-99141809D01*
X104814173Y-99152500D01*
X105044691Y-99152499D01*
X105088885Y-99170805D01*
X105107191Y-99214999D01*
X105106422Y-99224776D01*
X105094508Y-99299999D01*
X105114354Y-99425304D01*
X105114354Y-99425305D01*
X105139675Y-99475000D01*
X105171950Y-99538342D01*
X105261658Y-99628050D01*
X105374696Y-99685646D01*
X105500000Y-99705492D01*
X105625304Y-99685646D01*
X105738342Y-99628050D01*
X105828050Y-99538342D01*
X105885646Y-99425304D01*
X105905492Y-99300000D01*
X105905492Y-99299997D01*
X105905492Y-99299996D01*
X105893578Y-99224776D01*
X105904744Y-99178263D01*
X105945531Y-99153269D01*
X105955308Y-99152499D01*
X106185826Y-99152499D01*
X106259204Y-99141809D01*
X106372390Y-99086476D01*
X106461476Y-98997390D01*
X106516809Y-98884204D01*
X106516809Y-98884201D01*
X106518940Y-98879843D01*
X106520996Y-98880848D01*
X106546498Y-98850083D01*
X106594125Y-98845626D01*
X106604065Y-98849658D01*
X106674691Y-98885644D01*
X106674693Y-98885644D01*
X106674696Y-98885646D01*
X106800000Y-98905492D01*
X106925304Y-98885646D01*
X107038342Y-98828050D01*
X107128050Y-98738342D01*
X107185646Y-98625304D01*
X107205492Y-98500000D01*
X107185646Y-98374696D01*
X107128050Y-98261658D01*
X107038342Y-98171950D01*
X106925304Y-98114354D01*
X106800000Y-98094508D01*
X106674695Y-98114354D01*
X106674691Y-98114355D01*
X106618373Y-98143051D01*
X106570685Y-98146804D01*
X106534311Y-98115737D01*
X106528461Y-98091374D01*
X106527663Y-98091432D01*
X106527499Y-98089179D01*
X106527499Y-98089174D01*
X106516809Y-98015796D01*
X106461476Y-97902610D01*
X106372390Y-97813524D01*
X106320417Y-97788116D01*
X106288756Y-97752262D01*
X106286139Y-97722191D01*
X106305492Y-97600003D01*
X106305492Y-97600002D01*
X106305492Y-97600000D01*
X106285646Y-97474696D01*
X106228050Y-97361658D01*
X106138342Y-97271950D01*
X106025304Y-97214354D01*
X105900000Y-97194508D01*
X105774695Y-97214354D01*
X105774694Y-97214354D01*
X105661657Y-97271950D01*
X105571950Y-97361657D01*
X105514354Y-97474694D01*
X105514354Y-97474695D01*
X105494508Y-97600000D01*
X105506422Y-97675223D01*
X105495254Y-97721737D01*
X105454468Y-97746731D01*
X105444691Y-97747500D01*
X104814174Y-97747500D01*
X104740798Y-97758190D01*
X104740797Y-97758190D01*
X104740796Y-97758191D01*
X104679516Y-97788149D01*
X104627608Y-97813525D01*
X104538525Y-97902608D01*
X104483190Y-98015798D01*
X104472500Y-98089173D01*
X104472500Y-98810825D01*
X100255567Y-98810825D01*
X100328050Y-98738342D01*
X100385646Y-98625304D01*
X100405492Y-98500000D01*
X100385646Y-98374696D01*
X100328050Y-98261658D01*
X100238342Y-98171950D01*
X100125304Y-98114354D01*
X100000000Y-98094508D01*
X99874695Y-98114354D01*
X99874694Y-98114354D01*
X99761657Y-98171950D01*
X99671950Y-98261657D01*
X99614354Y-98374694D01*
X99614354Y-98374695D01*
X99594508Y-98500000D01*
X99608035Y-98585415D01*
X99596867Y-98631928D01*
X99590498Y-98639385D01*
X97620395Y-100609488D01*
X97603326Y-100621601D01*
X97602850Y-100621829D01*
X97583455Y-100646150D01*
X97581121Y-100648762D01*
X97574725Y-100655159D01*
X97574724Y-100655160D01*
X97569916Y-100662812D01*
X97567889Y-100665668D01*
X97548489Y-100689996D01*
X97548488Y-100689998D01*
X97548370Y-100690516D01*
X97540365Y-100709843D01*
X97540082Y-100710293D01*
X97540081Y-100710295D01*
X97536598Y-100741211D01*
X97536011Y-100744666D01*
X97534000Y-100753477D01*
X97534000Y-100762516D01*
X97533803Y-100766017D01*
X97530320Y-100796935D01*
X97530492Y-100797427D01*
X97534000Y-100818071D01*
X97534000Y-101135000D01*
X97515694Y-101179194D01*
X97471508Y-101197500D01*
X97465693Y-101197500D01*
X97465688Y-101197500D01*
X97465682Y-101197501D01*
X97415252Y-101204139D01*
X97415250Y-101204139D01*
X97415249Y-101204140D01*
X97304584Y-101255744D01*
X97304584Y-101255745D01*
X97218244Y-101342084D01*
X97166638Y-101452752D01*
X97160000Y-101503174D01*
X97160000Y-102096809D01*
X97160000Y-102096810D01*
X96564599Y-102096810D01*
X96587423Y-102092270D01*
X96674252Y-102034252D01*
X96732270Y-101947423D01*
X96747500Y-101870856D01*
X96747500Y-101549144D01*
X96732270Y-101472577D01*
X96732269Y-101472575D01*
X96674252Y-101385747D01*
X96587424Y-101327730D01*
X96587422Y-101327729D01*
X96510856Y-101312500D01*
X96089144Y-101312500D01*
X96012577Y-101327729D01*
X96012575Y-101327730D01*
X95925747Y-101385747D01*
X95867730Y-101472575D01*
X95867729Y-101472577D01*
X95852500Y-101549143D01*
X95852500Y-101832812D01*
X95834194Y-101877006D01*
X95799777Y-101894542D01*
X95674701Y-101914352D01*
X95674691Y-101914355D01*
X95568373Y-101968527D01*
X95520685Y-101972280D01*
X95484311Y-101941213D01*
X95477499Y-101912842D01*
X95477499Y-101414174D01*
X95466809Y-101340796D01*
X95411476Y-101227610D01*
X95322390Y-101138524D01*
X95209204Y-101083191D01*
X95209202Y-101083190D01*
X95209201Y-101083190D01*
X95150913Y-101074698D01*
X95135827Y-101072500D01*
X95135826Y-101072500D01*
X94994780Y-101072500D01*
X94950586Y-101054194D01*
X94932280Y-101010000D01*
X94950586Y-100965806D01*
X94950596Y-100965796D01*
X94978050Y-100938342D01*
X95035646Y-100825304D01*
X95055492Y-100700000D01*
X95039618Y-100599775D01*
X95050786Y-100553262D01*
X95091572Y-100528268D01*
X95101349Y-100527499D01*
X95135826Y-100527499D01*
X95209204Y-100516809D01*
X95322390Y-100461476D01*
X95411476Y-100372390D01*
X95440097Y-100313844D01*
X95475950Y-100282182D01*
X95519766Y-100284901D01*
X95520018Y-100284126D01*
X95523026Y-100285103D01*
X95523694Y-100285145D01*
X95524594Y-100285594D01*
X95524696Y-100285646D01*
X95650000Y-100305492D01*
X95775304Y-100285646D01*
X95834190Y-100255641D01*
X95881877Y-100251888D01*
X95918251Y-100282954D01*
X95918252Y-100282955D01*
X95919941Y-100286270D01*
X95928799Y-100303655D01*
X95932551Y-100351343D01*
X95925077Y-100366751D01*
X95867730Y-100452575D01*
X95867729Y-100452577D01*
X95852500Y-100529143D01*
X95852500Y-100850856D01*
X95867729Y-100927422D01*
X95867730Y-100927424D01*
X95925747Y-101014252D01*
X96012575Y-101072269D01*
X96012577Y-101072270D01*
X96089144Y-101087500D01*
X96510856Y-101087500D01*
X96587423Y-101072270D01*
X96674252Y-101014252D01*
X96732270Y-100927423D01*
X96747500Y-100850856D01*
X96747500Y-100529144D01*
X96732270Y-100452577D01*
X96728207Y-100446496D01*
X96674922Y-100366750D01*
X96665590Y-100319834D01*
X96671202Y-100303652D01*
X96685643Y-100275310D01*
X96685643Y-100275309D01*
X96685646Y-100275304D01*
X96705492Y-100150000D01*
X96685646Y-100024696D01*
X96628050Y-99911658D01*
X96538342Y-99821950D01*
X96425304Y-99764354D01*
X96300000Y-99744508D01*
X96174695Y-99764354D01*
X96174691Y-99764355D01*
X96115809Y-99794358D01*
X96068121Y-99798111D01*
X96031747Y-99767044D01*
X95978050Y-99661658D01*
X95888342Y-99571950D01*
X95775304Y-99514354D01*
X95749379Y-99510248D01*
X95650000Y-99494508D01*
X95649999Y-99494508D01*
X95621938Y-99498952D01*
X95524696Y-99514354D01*
X95524694Y-99514354D01*
X95519838Y-99515124D01*
X95519584Y-99513525D01*
X95478058Y-99510248D01*
X95450296Y-99482017D01*
X95411477Y-99402611D01*
X95322391Y-99313525D01*
X95322390Y-99313524D01*
X95209204Y-99258191D01*
X95209202Y-99258190D01*
X95209201Y-99258190D01*
X95150913Y-99249698D01*
X95135827Y-99247500D01*
X95135826Y-99247500D01*
X95105309Y-99247500D01*
X95061115Y-99229194D01*
X95042809Y-99185000D01*
X95043578Y-99175223D01*
X95045614Y-99162368D01*
X95055492Y-99100000D01*
X95035646Y-98974696D01*
X94978050Y-98861658D01*
X94888342Y-98771950D01*
X94775304Y-98714354D01*
X94650000Y-98694508D01*
X94649999Y-98694508D01*
X94524695Y-98714354D01*
X94524694Y-98714354D01*
X94411657Y-98771950D01*
X94321950Y-98861657D01*
X94264354Y-98974694D01*
X94264354Y-98974695D01*
X94244508Y-99100000D01*
X94256422Y-99175223D01*
X94245254Y-99221737D01*
X94204468Y-99246731D01*
X94194693Y-99247500D01*
X94164173Y-99247500D01*
X94090798Y-99258190D01*
X94090797Y-99258190D01*
X94090796Y-99258191D01*
X94005282Y-99299996D01*
X93977608Y-99313525D01*
X93888524Y-99402609D01*
X93888522Y-99402612D01*
X93840147Y-99501565D01*
X93804291Y-99533229D01*
X93756548Y-99530264D01*
X93755672Y-99529827D01*
X93725304Y-99514354D01*
X93600000Y-99494508D01*
X93474695Y-99514354D01*
X93474694Y-99514354D01*
X93361657Y-99571950D01*
X93271950Y-99661657D01*
X93214354Y-99774694D01*
X93214354Y-99774695D01*
X93194508Y-99900000D01*
X93214354Y-100025304D01*
X93214354Y-100025305D01*
X93252414Y-100100000D01*
X93271950Y-100138342D01*
X93361658Y-100228050D01*
X93474696Y-100285646D01*
X93600000Y-100305492D01*
X93725304Y-100285646D01*
X93765408Y-100265210D01*
X93813096Y-100261458D01*
X93849471Y-100292524D01*
X93849932Y-100293449D01*
X93888522Y-100372388D01*
X93888524Y-100372390D01*
X93977610Y-100461476D01*
X94090796Y-100516809D01*
X94164173Y-100527500D01*
X94198650Y-100527499D01*
X94242844Y-100545804D01*
X94261151Y-100589997D01*
X94260382Y-100599772D01*
X94244508Y-100700000D01*
X94254569Y-100763524D01*
X94264354Y-100825304D01*
X94264354Y-100825305D01*
X94321950Y-100938342D01*
X94349414Y-100965806D01*
X94367720Y-101010000D01*
X94349414Y-101054194D01*
X94305220Y-101072500D01*
X94164174Y-101072500D01*
X94090798Y-101083190D01*
X94090797Y-101083190D01*
X94090796Y-101083191D01*
X93977610Y-101138524D01*
X93977608Y-101138525D01*
X93888525Y-101227608D01*
X93833190Y-101340798D01*
X93822500Y-101414173D01*
X93822500Y-102010825D01*
X93833190Y-102084201D01*
X93833191Y-102084204D01*
X93888524Y-102197390D01*
X93977610Y-102286476D01*
X94090796Y-102341809D01*
X94164173Y-102352500D01*
X94335000Y-102352499D01*
X94379194Y-102370805D01*
X94397500Y-102414999D01*
X94397500Y-102546051D01*
X94379194Y-102590245D01*
X94335000Y-102608551D01*
X94301212Y-102598631D01*
X94289498Y-102591103D01*
X94282801Y-102586799D01*
X94281400Y-102585844D01*
X94273390Y-102580055D01*
X94234840Y-102552195D01*
X94234838Y-102552194D01*
X94232319Y-102551302D01*
X94228572Y-102549976D01*
X94215641Y-102543638D01*
X94210053Y-102540047D01*
X94154948Y-102523866D01*
X94153327Y-102523341D01*
X94133268Y-102516242D01*
X94133258Y-102516239D01*
X94121162Y-102513819D01*
X94118490Y-102513160D01*
X94071961Y-102499500D01*
X94055747Y-102499500D01*
X94043490Y-102498286D01*
X89299256Y-101549439D01*
X89262709Y-101527196D01*
X88040954Y-100000002D01*
X89194532Y-100000002D01*
X89214364Y-100226688D01*
X89214367Y-100226704D01*
X89273259Y-100446492D01*
X89273260Y-100446494D01*
X89369431Y-100652733D01*
X89499953Y-100839140D01*
X89660859Y-101000046D01*
X89675075Y-101010000D01*
X89847266Y-101130568D01*
X89847265Y-101130568D01*
X89950384Y-101178653D01*
X90053504Y-101226739D01*
X90053506Y-101226739D01*
X90053507Y-101226740D01*
X90273295Y-101285632D01*
X90273301Y-101285633D01*
X90273308Y-101285635D01*
X90443216Y-101300500D01*
X90556784Y-101300500D01*
X90726692Y-101285635D01*
X90726701Y-101285632D01*
X90726704Y-101285632D01*
X90946492Y-101226740D01*
X90946491Y-101226740D01*
X90946496Y-101226739D01*
X91152734Y-101130568D01*
X91339139Y-101000047D01*
X91500047Y-100839139D01*
X91630568Y-100652734D01*
X91726739Y-100446496D01*
X91746596Y-100372388D01*
X91785632Y-100226704D01*
X91785632Y-100226701D01*
X91785635Y-100226692D01*
X91803307Y-100024696D01*
X91805468Y-100000002D01*
X91805468Y-99999997D01*
X91793365Y-99861658D01*
X91785635Y-99773308D01*
X91785271Y-99771950D01*
X91726740Y-99553507D01*
X91726739Y-99553505D01*
X91721332Y-99541910D01*
X91630568Y-99347266D01*
X91597470Y-99299997D01*
X91500046Y-99160859D01*
X91339140Y-98999953D01*
X91220035Y-98916556D01*
X91152734Y-98869432D01*
X91152732Y-98869431D01*
X91152734Y-98869431D01*
X90946494Y-98773260D01*
X90946492Y-98773259D01*
X90726704Y-98714367D01*
X90726688Y-98714364D01*
X90556784Y-98699500D01*
X90443216Y-98699500D01*
X90273311Y-98714364D01*
X90273295Y-98714367D01*
X90053507Y-98773259D01*
X90053505Y-98773260D01*
X89847266Y-98869431D01*
X89660859Y-98999953D01*
X89499953Y-99160859D01*
X89369431Y-99347266D01*
X89273260Y-99553505D01*
X89273259Y-99553507D01*
X89214367Y-99773295D01*
X89214364Y-99773311D01*
X89194532Y-99999997D01*
X89194532Y-100000002D01*
X88040954Y-100000002D01*
X87413998Y-99216307D01*
X87400684Y-99170362D01*
X87423759Y-99128460D01*
X87469704Y-99115146D01*
X87489041Y-99120538D01*
X87634541Y-99187854D01*
X87810113Y-99226500D01*
X87810116Y-99226500D01*
X87944812Y-99226500D01*
X87944816Y-99226500D01*
X88078721Y-99211937D01*
X88249085Y-99154535D01*
X88403126Y-99061851D01*
X88533642Y-98938220D01*
X88634529Y-98789423D01*
X88701070Y-98622416D01*
X88730155Y-98445010D01*
X88720422Y-98265499D01*
X88672327Y-98092277D01*
X88670681Y-98089173D01*
X88588118Y-97933443D01*
X88561928Y-97902610D01*
X88471735Y-97796426D01*
X88373484Y-97721737D01*
X88328619Y-97687631D01*
X88237477Y-97645465D01*
X88165459Y-97612146D01*
X88165460Y-97612146D01*
X88110288Y-97600002D01*
X87989887Y-97573500D01*
X87855184Y-97573500D01*
X87855183Y-97573500D01*
X87721278Y-97588063D01*
X87721272Y-97588064D01*
X87550913Y-97645465D01*
X87396874Y-97738149D01*
X87396873Y-97738149D01*
X87266357Y-97861781D01*
X87165469Y-98010580D01*
X87098931Y-98177580D01*
X87098930Y-98177582D01*
X87098930Y-98177584D01*
X87084517Y-98265499D01*
X87069845Y-98354990D01*
X87069844Y-98354990D01*
X87079577Y-98534494D01*
X87079577Y-98534498D01*
X87079578Y-98534501D01*
X87093714Y-98585415D01*
X87110082Y-98644367D01*
X87104266Y-98691847D01*
X87066580Y-98721309D01*
X87019100Y-98715493D01*
X87001056Y-98700130D01*
X86996558Y-98694508D01*
X85514196Y-96841554D01*
X85500500Y-96802511D01*
X85500500Y-95124335D01*
X86499500Y-95124335D01*
X86540429Y-95369614D01*
X86621172Y-95604810D01*
X86702301Y-95754723D01*
X86739525Y-95823508D01*
X86739526Y-95823510D01*
X86892257Y-96019738D01*
X86892260Y-96019742D01*
X87075211Y-96188161D01*
X87075213Y-96188162D01*
X87075215Y-96188164D01*
X87283393Y-96324173D01*
X87511119Y-96424063D01*
X87752179Y-96485108D01*
X87937933Y-96500500D01*
X87937935Y-96500500D01*
X88062065Y-96500500D01*
X88062067Y-96500500D01*
X88068101Y-96500000D01*
X101594508Y-96500000D01*
X101614354Y-96625304D01*
X101614354Y-96625305D01*
X101671949Y-96738341D01*
X101671950Y-96738342D01*
X101761658Y-96828050D01*
X101874696Y-96885646D01*
X102000000Y-96905492D01*
X102125304Y-96885646D01*
X102238342Y-96828050D01*
X102328050Y-96738342D01*
X102385646Y-96625304D01*
X102405492Y-96500000D01*
X102391963Y-96414582D01*
X102403130Y-96368070D01*
X102409494Y-96360619D01*
X103104600Y-95665512D01*
X103121677Y-95653396D01*
X103122149Y-95653170D01*
X103141559Y-95628829D01*
X103143870Y-95626242D01*
X103150275Y-95619839D01*
X103155085Y-95612182D01*
X103157095Y-95609348D01*
X103176511Y-95585003D01*
X103176626Y-95584497D01*
X103184640Y-95565148D01*
X103184919Y-95564706D01*
X103188404Y-95533766D01*
X103188984Y-95530352D01*
X103191000Y-95521521D01*
X103191000Y-95512484D01*
X103191197Y-95508983D01*
X103191920Y-95502560D01*
X103194680Y-95478065D01*
X103194506Y-95477570D01*
X103191000Y-95456929D01*
X103191000Y-94827723D01*
X103209306Y-94783529D01*
X103232856Y-94768730D01*
X103350395Y-94727603D01*
X103414126Y-94687558D01*
X104197500Y-94687558D01*
X104204898Y-94724747D01*
X104204898Y-94724748D01*
X104204898Y-94724749D01*
X104233077Y-94766922D01*
X104257704Y-94783377D01*
X104275252Y-94795102D01*
X104312442Y-94802500D01*
X104746500Y-94802500D01*
X104790694Y-94820806D01*
X104809000Y-94865000D01*
X104809000Y-96359528D01*
X104790694Y-96403722D01*
X104774875Y-96415215D01*
X104761659Y-96421948D01*
X104761658Y-96421950D01*
X104671950Y-96511657D01*
X104614354Y-96624694D01*
X104614354Y-96624695D01*
X104594508Y-96750000D01*
X104614354Y-96875304D01*
X104614354Y-96875305D01*
X104671949Y-96988341D01*
X104671950Y-96988342D01*
X104761658Y-97078050D01*
X104874696Y-97135646D01*
X105000000Y-97155492D01*
X105125304Y-97135646D01*
X105238342Y-97078050D01*
X105328050Y-96988342D01*
X105385646Y-96875304D01*
X105405492Y-96750000D01*
X105385646Y-96624696D01*
X105328050Y-96511658D01*
X105238342Y-96421950D01*
X105238340Y-96421948D01*
X105225125Y-96415215D01*
X105194059Y-96378841D01*
X105191000Y-96359528D01*
X105191000Y-95124335D01*
X110499500Y-95124335D01*
X110540429Y-95369614D01*
X110621172Y-95604810D01*
X110702301Y-95754723D01*
X110739525Y-95823508D01*
X110739526Y-95823510D01*
X110892257Y-96019738D01*
X110892260Y-96019742D01*
X111075211Y-96188161D01*
X111075213Y-96188162D01*
X111075215Y-96188164D01*
X111283393Y-96324173D01*
X111511119Y-96424063D01*
X111752179Y-96485108D01*
X111937933Y-96500500D01*
X111937935Y-96500500D01*
X112062065Y-96500500D01*
X112062067Y-96500500D01*
X112247821Y-96485108D01*
X112488881Y-96424063D01*
X112716607Y-96324173D01*
X112924785Y-96188164D01*
X113107738Y-96019744D01*
X113260474Y-95823509D01*
X113378828Y-95604810D01*
X113459571Y-95369614D01*
X113500500Y-95124335D01*
X113500500Y-94875665D01*
X113459571Y-94630386D01*
X113378828Y-94395190D01*
X113260474Y-94176491D01*
X113260473Y-94176489D01*
X113107742Y-93980261D01*
X113107739Y-93980257D01*
X112924788Y-93811838D01*
X112924783Y-93811835D01*
X112916799Y-93806619D01*
X112716607Y-93675827D01*
X112488881Y-93575937D01*
X112247821Y-93514892D01*
X112062067Y-93499500D01*
X111937933Y-93499500D01*
X111752179Y-93514892D01*
X111511119Y-93575937D01*
X111511117Y-93575937D01*
X111511116Y-93575938D01*
X111283390Y-93675828D01*
X111283387Y-93675830D01*
X111075216Y-93811835D01*
X111075211Y-93811838D01*
X110892260Y-93980257D01*
X110892257Y-93980261D01*
X110739526Y-94176489D01*
X110739525Y-94176491D01*
X110658396Y-94326404D01*
X110621172Y-94395190D01*
X110540429Y-94630386D01*
X110499500Y-94875665D01*
X110499500Y-95124335D01*
X105191000Y-95124335D01*
X105191000Y-94865000D01*
X105209306Y-94820806D01*
X105253500Y-94802500D01*
X105687557Y-94802500D01*
X105687558Y-94802500D01*
X105724748Y-94795102D01*
X105766922Y-94766922D01*
X105795102Y-94724748D01*
X105802500Y-94687558D01*
X105802500Y-93312442D01*
X105795102Y-93275252D01*
X105795101Y-93275250D01*
X105766922Y-93233077D01*
X105724748Y-93204898D01*
X105724747Y-93204898D01*
X105687558Y-93197500D01*
X104312442Y-93197500D01*
X104293847Y-93201199D01*
X104275251Y-93204898D01*
X104275250Y-93204898D01*
X104233077Y-93233077D01*
X104204898Y-93275250D01*
X104204898Y-93275251D01*
X104204897Y-93275252D01*
X104204898Y-93275252D01*
X104197500Y-93312442D01*
X104197500Y-94687558D01*
X103414126Y-94687558D01*
X103503517Y-94631390D01*
X103631390Y-94503517D01*
X103727603Y-94350395D01*
X103787330Y-94179703D01*
X103807578Y-94000000D01*
X103787330Y-93820297D01*
X103727603Y-93649605D01*
X103681315Y-93575938D01*
X103631391Y-93496484D01*
X103503515Y-93368608D01*
X103350396Y-93272397D01*
X103179703Y-93212670D01*
X103179699Y-93212669D01*
X103000000Y-93192422D01*
X102820300Y-93212669D01*
X102820296Y-93212670D01*
X102649603Y-93272397D01*
X102496484Y-93368608D01*
X102368608Y-93496484D01*
X102272397Y-93649603D01*
X102212670Y-93820296D01*
X102212669Y-93820300D01*
X102192422Y-94000000D01*
X102212669Y-94179699D01*
X102212670Y-94179703D01*
X102272397Y-94350396D01*
X102368608Y-94503515D01*
X102496484Y-94631391D01*
X102649603Y-94727602D01*
X102649605Y-94727603D01*
X102767142Y-94768730D01*
X102802810Y-94800605D01*
X102809000Y-94827723D01*
X102809000Y-95394996D01*
X102790694Y-95439190D01*
X102139385Y-96090498D01*
X102095191Y-96108804D01*
X102085415Y-96108035D01*
X102000000Y-96094508D01*
X101874695Y-96114354D01*
X101874694Y-96114354D01*
X101761657Y-96171950D01*
X101671950Y-96261657D01*
X101614354Y-96374694D01*
X101614354Y-96374695D01*
X101594508Y-96500000D01*
X88068101Y-96500000D01*
X88247821Y-96485108D01*
X88488881Y-96424063D01*
X88716607Y-96324173D01*
X88924785Y-96188164D01*
X89107738Y-96019744D01*
X89260474Y-95823509D01*
X89378828Y-95604810D01*
X89459571Y-95369614D01*
X89500500Y-95124335D01*
X89500500Y-94875665D01*
X89459571Y-94630386D01*
X89378828Y-94395190D01*
X89260474Y-94176491D01*
X89260473Y-94176489D01*
X89123106Y-94000000D01*
X94192422Y-94000000D01*
X94212669Y-94179699D01*
X94212670Y-94179703D01*
X94272397Y-94350396D01*
X94368608Y-94503515D01*
X94496484Y-94631391D01*
X94649603Y-94727602D01*
X94649605Y-94727603D01*
X94820297Y-94787330D01*
X95000000Y-94807578D01*
X95179703Y-94787330D01*
X95350395Y-94727603D01*
X95503517Y-94631390D01*
X95631390Y-94503517D01*
X95727603Y-94350395D01*
X95787330Y-94179703D01*
X95807578Y-94000000D01*
X96192422Y-94000000D01*
X96212669Y-94179699D01*
X96212670Y-94179703D01*
X96272397Y-94350396D01*
X96368608Y-94503515D01*
X96496484Y-94631391D01*
X96649603Y-94727602D01*
X96649605Y-94727603D01*
X96820297Y-94787330D01*
X97000000Y-94807578D01*
X97179703Y-94787330D01*
X97350395Y-94727603D01*
X97503517Y-94631390D01*
X97631390Y-94503517D01*
X97727603Y-94350395D01*
X97787330Y-94179703D01*
X97807578Y-94000000D01*
X98192422Y-94000000D01*
X98212669Y-94179699D01*
X98212670Y-94179703D01*
X98272397Y-94350396D01*
X98368608Y-94503515D01*
X98496484Y-94631391D01*
X98649603Y-94727602D01*
X98649605Y-94727603D01*
X98820297Y-94787330D01*
X99000000Y-94807578D01*
X99179703Y-94787330D01*
X99350395Y-94727603D01*
X99503517Y-94631390D01*
X99631390Y-94503517D01*
X99727603Y-94350395D01*
X99787330Y-94179703D01*
X99807578Y-94000000D01*
X99787330Y-93820297D01*
X99727603Y-93649605D01*
X99681315Y-93575938D01*
X99631391Y-93496484D01*
X99503515Y-93368608D01*
X99350396Y-93272397D01*
X99179703Y-93212670D01*
X99179699Y-93212669D01*
X99000000Y-93192422D01*
X98820300Y-93212669D01*
X98820296Y-93212670D01*
X98649603Y-93272397D01*
X98496484Y-93368608D01*
X98368608Y-93496484D01*
X98272397Y-93649603D01*
X98212670Y-93820296D01*
X98212669Y-93820300D01*
X98192422Y-94000000D01*
X97807578Y-94000000D01*
X97787330Y-93820297D01*
X97727603Y-93649605D01*
X97681315Y-93575938D01*
X97631391Y-93496484D01*
X97503515Y-93368608D01*
X97350396Y-93272397D01*
X97179703Y-93212670D01*
X97179699Y-93212669D01*
X97000000Y-93192422D01*
X96820300Y-93212669D01*
X96820296Y-93212670D01*
X96649603Y-93272397D01*
X96496484Y-93368608D01*
X96368608Y-93496484D01*
X96272397Y-93649603D01*
X96212670Y-93820296D01*
X96212669Y-93820300D01*
X96192422Y-94000000D01*
X95807578Y-94000000D01*
X95787330Y-93820297D01*
X95727603Y-93649605D01*
X95681315Y-93575938D01*
X95631391Y-93496484D01*
X95503515Y-93368608D01*
X95350396Y-93272397D01*
X95179703Y-93212670D01*
X95179699Y-93212669D01*
X95000000Y-93192422D01*
X94820300Y-93212669D01*
X94820296Y-93212670D01*
X94649603Y-93272397D01*
X94496484Y-93368608D01*
X94368608Y-93496484D01*
X94272397Y-93649603D01*
X94212670Y-93820296D01*
X94212669Y-93820300D01*
X94192422Y-94000000D01*
X89123106Y-94000000D01*
X89107742Y-93980261D01*
X89107739Y-93980257D01*
X88924788Y-93811838D01*
X88924783Y-93811835D01*
X88916799Y-93806619D01*
X88716607Y-93675827D01*
X88488881Y-93575937D01*
X88247821Y-93514892D01*
X88062067Y-93499500D01*
X87937933Y-93499500D01*
X87752179Y-93514892D01*
X87511119Y-93575937D01*
X87511117Y-93575937D01*
X87511116Y-93575938D01*
X87283390Y-93675828D01*
X87283387Y-93675830D01*
X87075216Y-93811835D01*
X87075211Y-93811838D01*
X86892260Y-93980257D01*
X86892257Y-93980261D01*
X86739526Y-94176489D01*
X86739525Y-94176491D01*
X86658396Y-94326404D01*
X86621172Y-94395190D01*
X86540429Y-94630386D01*
X86499500Y-94875665D01*
X86499500Y-95124335D01*
X85500500Y-95124335D01*
X85500500Y-93733201D01*
X85518805Y-93689008D01*
X86189008Y-93018806D01*
X86233202Y-93000500D01*
X100676675Y-93000500D01*
X100720869Y-93018806D01*
G37*
%TD.AperFunction*%
%TD*%
M02*
