M48
; DRILL file {KiCad 7.0.7} date Mo 11 Sep 2023 21:43:36 CEST
; FORMAT={-:-/ absolute / metric / decimal}
; #@! TF.CreationDate,2023-09-11T21:43:36+02:00
; #@! TF.GenerationSoftware,Kicad,Pcbnew,7.0.7
; #@! TF.FileFunction,Plated,1,2,PTH
FMAT,2
METRIC
; #@! TA.AperFunction,Plated,PTH,ViaDrill
T1C0.300
; #@! TA.AperFunction,Plated,PTH,ComponentDrill
T2C0.600
; #@! TA.AperFunction,Plated,PTH,ComponentDrill
T3C0.800
%
G90
G05
T1
X93.6Y-99.9
X94.65Y-99.1
X94.65Y-100.7
X95.2Y-102.8
X95.65Y-99.9
X95.8Y-102.3
X96.3Y-100.15
X96.4Y-105.4
X98.75Y-105.25
X99.25Y-104.6
X100.0Y-98.5
X100.0Y-101.8
X100.25Y-104.6
X100.5Y-105.35
X101.55Y-105.65
X102.0Y-96.5
X102.275Y-99.475
X103.6Y-105.4
X103.7Y-100.1
X103.7Y-102.4
X104.4Y-102.7
X105.0Y-96.75
X105.5Y-99.3
X105.9Y-97.6
X106.8Y-98.5
T3
X95.0Y-94.0
X97.0Y-94.0
X99.0Y-94.0
X101.0Y-94.0
X103.0Y-94.0
X105.0Y-94.0
T2
G00X95.68Y-104.78
M15
G01X95.68Y-103.68
M16
G05
G00X95.68Y-108.8
M15
G01X95.68Y-108.0
M16
G05
G00X104.32Y-104.78
M15
G01X104.32Y-103.68
M16
G05
G00X104.32Y-108.8
M15
G01X104.32Y-108.0
M16
G05
T0
M30
