%TF.GenerationSoftware,KiCad,Pcbnew,7.0.7*%
%TF.CreationDate,2023-09-11T21:43:25+02:00*%
%TF.ProjectId,usb-board,7573622d-626f-4617-9264-2e6b69636164,rev?*%
%TF.SameCoordinates,Original*%
%TF.FileFunction,Copper,L2,Bot*%
%TF.FilePolarity,Positive*%
%FSLAX46Y46*%
G04 Gerber Fmt 4.6, Leading zero omitted, Abs format (unit mm)*
G04 Created by KiCad (PCBNEW 7.0.7) date 2023-09-11 21:43:25*
%MOMM*%
%LPD*%
G01*
G04 APERTURE LIST*
%TA.AperFunction,ComponentPad*%
%ADD10O,0.900000X1.700000*%
%TD*%
%TA.AperFunction,ComponentPad*%
%ADD11O,0.900000X2.000000*%
%TD*%
%TA.AperFunction,ComponentPad*%
%ADD12O,1.350000X1.350000*%
%TD*%
%TA.AperFunction,ComponentPad*%
%ADD13R,1.350000X1.350000*%
%TD*%
%TA.AperFunction,ViaPad*%
%ADD14C,0.500000*%
%TD*%
%TA.AperFunction,Conductor*%
%ADD15C,0.127000*%
%TD*%
G04 APERTURE END LIST*
D10*
%TO.P,J2,S1,SHIELD*%
%TO.N,Net-(J2-SHIELD)*%
X104320000Y-108400000D03*
D11*
X104320000Y-104230000D03*
D10*
X95680000Y-108400000D03*
D11*
X95680000Y-104230000D03*
%TD*%
D12*
%TO.P,J1,6,Pin_6*%
%TO.N,GND*%
X95000000Y-94000000D03*
%TO.P,J1,5,Pin_5*%
%TO.N,Net-(J1-Pin_5)*%
X97000000Y-94000000D03*
%TO.P,J1,4,Pin_4*%
%TO.N,Net-(J1-Pin_4)*%
X99000000Y-94000000D03*
%TO.P,J1,3,Pin_3*%
%TO.N,VBUS*%
X101000000Y-94000000D03*
%TO.P,J1,2,Pin_2*%
%TO.N,Net-(D1-A)*%
X103000000Y-94000000D03*
D13*
%TO.P,J1,1,Pin_1*%
%TO.N,Net-(D2-A)*%
X105000000Y-94000000D03*
%TD*%
D14*
%TO.N,Net-(D2-A)*%
X102275000Y-99475000D03*
X105000000Y-96750000D03*
%TO.N,Net-(D1-A)*%
X100000000Y-98500000D03*
X102000000Y-96500000D03*
%TO.N,Net-(J2-CC1)*%
X96300000Y-100150000D03*
%TO.N,Net-(J2-CC2)*%
X103700000Y-100100000D03*
%TO.N,Net-(J1-Pin_4)*%
X100500000Y-105350000D03*
%TO.N,Net-(J2-CC2)*%
X101550000Y-105650000D03*
%TO.N,Net-(J2-CC1)*%
X98750000Y-105250000D03*
%TO.N,GND*%
X95650000Y-99900000D03*
X94650000Y-99100000D03*
X94650000Y-100700000D03*
X105900000Y-97600000D03*
X105500000Y-99300000D03*
X106800000Y-98500000D03*
X93600000Y-99900000D03*
X96400000Y-105400000D03*
X103600000Y-105400000D03*
X104400000Y-102700000D03*
X103700000Y-102400000D03*
X95200000Y-102800000D03*
X95800000Y-102300000D03*
X100000000Y-101800000D03*
%TO.N,Net-(J1-Pin_5)*%
X99250000Y-104600000D03*
X100250000Y-104600000D03*
%TD*%
D15*
%TO.N,Net-(D2-A)*%
X102275000Y-99475000D02*
X105000000Y-96750000D01*
%TO.N,Net-(J2-CC1)*%
X98150000Y-103300000D02*
X98150000Y-104650000D01*
X98150000Y-103200000D02*
X98150000Y-103300000D01*
X98150000Y-103300000D02*
X98150000Y-102000000D01*
X98150000Y-102000000D02*
X97550000Y-101400000D01*
X98150000Y-104650000D02*
X98750000Y-105250000D01*
%TO.N,Net-(D1-A)*%
X100000000Y-98500000D02*
X102000000Y-96500000D01*
%TO.N,Net-(J1-Pin_5)*%
X99750000Y-104600000D02*
X100250000Y-104600000D01*
X99250000Y-104600000D02*
X99750000Y-104600000D01*
X99750000Y-104600000D02*
X99750000Y-102659210D01*
X98746000Y-101655210D02*
X98746000Y-95746000D01*
X99750000Y-102659210D02*
X98746000Y-101655210D01*
X98746000Y-95746000D02*
X97000000Y-94000000D01*
%TO.N,Net-(J2-CC1)*%
X97550000Y-101400000D02*
X96300000Y-100150000D01*
%TO.N,Net-(J2-CC2)*%
X101550000Y-103800000D02*
X102350000Y-103000000D01*
X101550000Y-105650000D02*
X101550000Y-103800000D01*
X102350000Y-101450000D02*
X103700000Y-100100000D01*
X102350000Y-103000000D02*
X102350000Y-101450000D01*
%TO.N,Net-(J1-Pin_4)*%
X99000000Y-94000000D02*
X99000000Y-101550000D01*
X99000000Y-101550000D02*
X100750000Y-103300000D01*
X100750000Y-103300000D02*
X100750000Y-105100000D01*
X100750000Y-105100000D02*
X100500000Y-105350000D01*
%TD*%
%TA.AperFunction,Conductor*%
%TO.N,GND*%
G36*
X94720869Y-93018806D02*
G01*
X94739175Y-93063000D01*
X94720869Y-93107194D01*
X94702096Y-93120096D01*
X94534954Y-93194513D01*
X94534948Y-93194516D01*
X94377646Y-93308804D01*
X94377639Y-93308810D01*
X94247538Y-93453301D01*
X94247537Y-93453303D01*
X94150313Y-93621701D01*
X94090230Y-93806619D01*
X94083044Y-93875000D01*
X94541634Y-93875000D01*
X94585828Y-93893306D01*
X94604134Y-93937500D01*
X94603365Y-93947268D01*
X94595014Y-94000000D01*
X94603364Y-94052724D01*
X94592198Y-94099237D01*
X94551411Y-94124231D01*
X94541634Y-94125000D01*
X94083044Y-94125000D01*
X94090230Y-94193380D01*
X94150313Y-94378298D01*
X94247537Y-94546696D01*
X94247538Y-94546698D01*
X94377643Y-94691194D01*
X94377644Y-94691195D01*
X94534946Y-94805482D01*
X94712581Y-94884571D01*
X94712590Y-94884574D01*
X94874999Y-94919095D01*
X94875000Y-94919094D01*
X94875000Y-94458366D01*
X94893306Y-94414172D01*
X94937500Y-94395866D01*
X94947278Y-94396636D01*
X94960185Y-94398680D01*
X94968519Y-94400000D01*
X94968521Y-94400000D01*
X95031479Y-94400000D01*
X95031481Y-94400000D01*
X95031484Y-94399999D01*
X95031489Y-94399999D01*
X95044687Y-94397908D01*
X95052720Y-94396636D01*
X95099234Y-94407801D01*
X95124229Y-94448587D01*
X95124999Y-94458366D01*
X95124999Y-94919094D01*
X95125000Y-94919095D01*
X95287409Y-94884574D01*
X95287418Y-94884571D01*
X95465053Y-94805482D01*
X95622355Y-94691195D01*
X95622356Y-94691194D01*
X95752461Y-94546698D01*
X95752462Y-94546696D01*
X95849686Y-94378298D01*
X95909769Y-94193380D01*
X95916956Y-94125000D01*
X95458366Y-94125000D01*
X95414172Y-94106694D01*
X95395866Y-94062500D01*
X95396634Y-94052731D01*
X95404986Y-94000000D01*
X95396635Y-93947275D01*
X95407802Y-93900763D01*
X95448589Y-93875769D01*
X95458366Y-93875000D01*
X95916956Y-93875000D01*
X95909769Y-93806619D01*
X95849686Y-93621701D01*
X95752462Y-93453303D01*
X95752461Y-93453301D01*
X95622356Y-93308805D01*
X95622355Y-93308804D01*
X95465053Y-93194517D01*
X95297904Y-93120097D01*
X95264976Y-93085398D01*
X95266228Y-93037579D01*
X95300927Y-93004651D01*
X95323325Y-93000500D01*
X113766798Y-93000500D01*
X113810992Y-93018806D01*
X114481194Y-93689008D01*
X114499500Y-93733202D01*
X114499500Y-96802509D01*
X114485804Y-96841552D01*
X113082109Y-98596170D01*
X113040207Y-98619245D01*
X112994262Y-98605931D01*
X112971187Y-98564029D01*
X112971629Y-98547015D01*
X112980156Y-98495010D01*
X112980155Y-98495009D01*
X112974089Y-98383132D01*
X112970422Y-98315499D01*
X112922327Y-98142277D01*
X112838119Y-97983444D01*
X112721735Y-97846426D01*
X112645073Y-97788149D01*
X112578619Y-97737631D01*
X112487477Y-97695465D01*
X112415459Y-97662146D01*
X112415460Y-97662146D01*
X112371566Y-97652484D01*
X112239887Y-97623500D01*
X112105184Y-97623500D01*
X112105183Y-97623500D01*
X111971278Y-97638063D01*
X111971272Y-97638064D01*
X111800913Y-97695465D01*
X111646874Y-97788149D01*
X111646873Y-97788149D01*
X111516357Y-97911781D01*
X111415469Y-98060580D01*
X111348931Y-98227580D01*
X111348930Y-98227582D01*
X111348930Y-98227584D01*
X111325898Y-98368070D01*
X111319845Y-98404990D01*
X111319844Y-98404990D01*
X111329577Y-98584494D01*
X111329577Y-98584498D01*
X111329578Y-98584501D01*
X111346200Y-98644367D01*
X111377673Y-98757724D01*
X111377675Y-98757728D01*
X111456015Y-98905491D01*
X111461881Y-98916556D01*
X111578265Y-99053574D01*
X111666357Y-99120540D01*
X111721380Y-99162368D01*
X111721381Y-99162368D01*
X111721382Y-99162369D01*
X111884541Y-99237854D01*
X112060113Y-99276500D01*
X112060116Y-99276500D01*
X112194812Y-99276500D01*
X112194816Y-99276500D01*
X112328721Y-99261937D01*
X112429205Y-99228080D01*
X112476929Y-99231316D01*
X112508388Y-99267351D01*
X112505152Y-99315077D01*
X112497964Y-99326351D01*
X110737289Y-101527196D01*
X110700742Y-101549439D01*
X105956510Y-102498286D01*
X105944253Y-102499500D01*
X105928039Y-102499500D01*
X105881500Y-102513163D01*
X105878827Y-102513821D01*
X105866744Y-102516238D01*
X105866742Y-102516239D01*
X105846671Y-102523342D01*
X105845051Y-102523866D01*
X105789949Y-102540046D01*
X105789942Y-102540049D01*
X105784353Y-102543641D01*
X105771424Y-102549977D01*
X105765995Y-102551899D01*
X105765158Y-102552196D01*
X105718607Y-102585837D01*
X105717203Y-102586794D01*
X105706057Y-102593958D01*
X105668871Y-102617857D01*
X105664518Y-102622881D01*
X105653899Y-102632602D01*
X105648512Y-102636495D01*
X105648511Y-102636496D01*
X105613313Y-102681902D01*
X105612232Y-102683221D01*
X105574624Y-102726623D01*
X105574621Y-102726628D01*
X105571861Y-102732672D01*
X105564414Y-102744987D01*
X105560338Y-102750245D01*
X105560335Y-102750252D01*
X105539355Y-102803736D01*
X105538690Y-102805305D01*
X105514835Y-102857541D01*
X105514835Y-102857543D01*
X105513888Y-102864124D01*
X105510213Y-102878033D01*
X105507786Y-102884222D01*
X105507784Y-102884232D01*
X105502724Y-102941446D01*
X105502527Y-102943139D01*
X105499500Y-102964197D01*
X105499500Y-102976532D01*
X105499378Y-102979286D01*
X105495106Y-103027589D01*
X105495107Y-103027592D01*
X105498286Y-103043492D01*
X105499499Y-103055746D01*
X105499500Y-109437000D01*
X105481194Y-109481194D01*
X105437000Y-109499500D01*
X104384734Y-109499500D01*
X104340540Y-109481194D01*
X104322234Y-109437000D01*
X104340540Y-109392806D01*
X104376576Y-109375035D01*
X104470751Y-109362636D01*
X104470751Y-109362635D01*
X104470758Y-109362635D01*
X104611241Y-109304445D01*
X104731878Y-109211878D01*
X104824445Y-109091241D01*
X104882635Y-108950758D01*
X104897500Y-108837849D01*
X104897500Y-107962151D01*
X104882635Y-107849242D01*
X104824445Y-107708759D01*
X104731878Y-107588122D01*
X104731876Y-107588121D01*
X104731876Y-107588120D01*
X104611243Y-107495556D01*
X104611242Y-107495555D01*
X104470758Y-107437365D01*
X104470755Y-107437364D01*
X104470754Y-107437364D01*
X104470751Y-107437363D01*
X104320003Y-107417517D01*
X104319997Y-107417517D01*
X104169248Y-107437363D01*
X104169238Y-107437366D01*
X104028762Y-107495553D01*
X103908122Y-107588122D01*
X103815553Y-107708762D01*
X103757366Y-107849238D01*
X103757363Y-107849248D01*
X103742500Y-107962146D01*
X103742500Y-108837853D01*
X103757363Y-108950751D01*
X103757364Y-108950757D01*
X103757365Y-108950758D01*
X103815555Y-109091241D01*
X103908122Y-109211878D01*
X104028758Y-109304445D01*
X104169242Y-109362635D01*
X104169246Y-109362635D01*
X104169248Y-109362636D01*
X104263424Y-109375035D01*
X104304851Y-109398952D01*
X104317231Y-109445158D01*
X104293314Y-109486585D01*
X104255266Y-109499500D01*
X95744734Y-109499500D01*
X95700540Y-109481194D01*
X95682234Y-109437000D01*
X95700540Y-109392806D01*
X95736576Y-109375035D01*
X95830751Y-109362636D01*
X95830751Y-109362635D01*
X95830758Y-109362635D01*
X95971241Y-109304445D01*
X96091878Y-109211878D01*
X96184445Y-109091241D01*
X96242635Y-108950758D01*
X96257500Y-108837849D01*
X96257500Y-107962151D01*
X96242635Y-107849242D01*
X96184445Y-107708759D01*
X96091878Y-107588122D01*
X96091876Y-107588121D01*
X96091876Y-107588120D01*
X95971243Y-107495556D01*
X95971242Y-107495555D01*
X95830758Y-107437365D01*
X95830755Y-107437364D01*
X95830754Y-107437364D01*
X95830751Y-107437363D01*
X95680003Y-107417517D01*
X95679997Y-107417517D01*
X95529248Y-107437363D01*
X95529238Y-107437366D01*
X95388762Y-107495553D01*
X95268122Y-107588122D01*
X95175553Y-107708762D01*
X95117366Y-107849238D01*
X95117363Y-107849248D01*
X95102500Y-107962146D01*
X95102500Y-108837853D01*
X95117363Y-108950751D01*
X95117364Y-108950757D01*
X95117365Y-108950758D01*
X95175555Y-109091241D01*
X95268122Y-109211878D01*
X95388758Y-109304445D01*
X95529242Y-109362635D01*
X95529246Y-109362635D01*
X95529248Y-109362636D01*
X95623424Y-109375035D01*
X95664851Y-109398952D01*
X95677231Y-109445158D01*
X95653314Y-109486585D01*
X95615266Y-109499500D01*
X94563000Y-109499500D01*
X94518806Y-109481194D01*
X94500500Y-109437000D01*
X94500500Y-104817853D01*
X95102500Y-104817853D01*
X95117363Y-104930751D01*
X95117366Y-104930761D01*
X95158657Y-105030447D01*
X95175555Y-105071241D01*
X95223554Y-105133795D01*
X95262675Y-105184780D01*
X95268122Y-105191878D01*
X95388758Y-105284445D01*
X95529242Y-105342635D01*
X95529246Y-105342635D01*
X95529248Y-105342636D01*
X95679997Y-105362483D01*
X95680000Y-105362483D01*
X95680003Y-105362483D01*
X95830751Y-105342636D01*
X95830751Y-105342635D01*
X95830758Y-105342635D01*
X95971241Y-105284445D01*
X96091878Y-105191878D01*
X96097325Y-105184780D01*
X96112398Y-105165135D01*
X96184445Y-105071241D01*
X96242635Y-104930758D01*
X96257500Y-104817849D01*
X96257500Y-104747921D01*
X96555619Y-104747921D01*
X96579536Y-104863017D01*
X96586408Y-104896084D01*
X96586408Y-104896086D01*
X96622452Y-104965647D01*
X96656029Y-105030447D01*
X96751931Y-105133132D01*
X96759321Y-105141045D01*
X96781952Y-105154807D01*
X96888618Y-105219672D01*
X96888624Y-105219673D01*
X96888625Y-105219674D01*
X96906542Y-105224694D01*
X97034332Y-105260499D01*
X97034332Y-105260500D01*
X97034335Y-105260500D01*
X97147657Y-105260500D01*
X97147658Y-105260500D01*
X97259920Y-105245070D01*
X97398720Y-105184780D01*
X97516108Y-105089278D01*
X97603377Y-104965647D01*
X97654054Y-104823056D01*
X97664381Y-104672079D01*
X97633592Y-104523915D01*
X97563971Y-104389553D01*
X97460680Y-104278956D01*
X97460679Y-104278955D01*
X97460678Y-104278954D01*
X97354448Y-104214355D01*
X97331382Y-104200328D01*
X97331378Y-104200327D01*
X97331374Y-104200325D01*
X97185667Y-104159500D01*
X97185665Y-104159500D01*
X97072342Y-104159500D01*
X97072336Y-104159500D01*
X96960082Y-104174929D01*
X96960079Y-104174930D01*
X96960080Y-104174930D01*
X96821280Y-104235220D01*
X96821279Y-104235220D01*
X96821276Y-104235222D01*
X96703893Y-104330721D01*
X96703890Y-104330724D01*
X96616622Y-104454353D01*
X96565945Y-104596944D01*
X96555619Y-104747916D01*
X96555619Y-104747921D01*
X96257500Y-104747921D01*
X96257500Y-103642151D01*
X96242635Y-103529242D01*
X96184445Y-103388759D01*
X96091878Y-103268122D01*
X96091876Y-103268121D01*
X96091876Y-103268120D01*
X95989155Y-103189300D01*
X95971242Y-103175555D01*
X95830758Y-103117365D01*
X95830755Y-103117364D01*
X95830754Y-103117364D01*
X95830751Y-103117363D01*
X95680003Y-103097517D01*
X95679997Y-103097517D01*
X95529248Y-103117363D01*
X95529238Y-103117366D01*
X95388762Y-103175553D01*
X95388759Y-103175554D01*
X95388759Y-103175555D01*
X95268122Y-103268122D01*
X95218761Y-103332452D01*
X95175553Y-103388762D01*
X95117366Y-103529238D01*
X95117363Y-103529248D01*
X95102500Y-103642146D01*
X95102500Y-104817853D01*
X94500500Y-104817853D01*
X94500500Y-103055750D01*
X94501714Y-103043492D01*
X94504894Y-103027593D01*
X94503558Y-103012482D01*
X94500622Y-102979279D01*
X94500500Y-102976524D01*
X94500500Y-102964206D01*
X94500500Y-102964201D01*
X94497468Y-102943121D01*
X94497278Y-102941484D01*
X94492216Y-102884230D01*
X94489787Y-102878038D01*
X94486110Y-102864116D01*
X94485165Y-102857545D01*
X94485165Y-102857544D01*
X94461309Y-102805306D01*
X94460648Y-102803750D01*
X94439662Y-102750247D01*
X94435585Y-102744987D01*
X94428135Y-102732667D01*
X94425377Y-102726627D01*
X94387750Y-102683203D01*
X94386684Y-102681902D01*
X94351488Y-102636496D01*
X94351486Y-102636495D01*
X94351486Y-102636494D01*
X94346103Y-102632604D01*
X94335475Y-102622874D01*
X94331127Y-102617856D01*
X94318408Y-102609682D01*
X94282784Y-102586788D01*
X94281400Y-102585844D01*
X94234840Y-102552195D01*
X94234838Y-102552194D01*
X94232319Y-102551302D01*
X94228572Y-102549976D01*
X94215641Y-102543638D01*
X94210053Y-102540047D01*
X94154948Y-102523866D01*
X94153327Y-102523341D01*
X94133268Y-102516242D01*
X94133258Y-102516239D01*
X94121162Y-102513819D01*
X94118490Y-102513160D01*
X94071961Y-102499500D01*
X94055747Y-102499500D01*
X94043490Y-102498286D01*
X89299256Y-101549439D01*
X89262709Y-101527196D01*
X88040954Y-100000002D01*
X89194532Y-100000002D01*
X89214364Y-100226688D01*
X89214367Y-100226704D01*
X89273259Y-100446492D01*
X89273260Y-100446494D01*
X89369431Y-100652733D01*
X89499953Y-100839140D01*
X89660859Y-101000046D01*
X89728674Y-101047530D01*
X89847266Y-101130568D01*
X89847265Y-101130568D01*
X89950384Y-101178653D01*
X90053504Y-101226739D01*
X90053506Y-101226739D01*
X90053507Y-101226740D01*
X90273295Y-101285632D01*
X90273301Y-101285633D01*
X90273308Y-101285635D01*
X90443216Y-101300500D01*
X90556784Y-101300500D01*
X90726692Y-101285635D01*
X90726701Y-101285632D01*
X90726704Y-101285632D01*
X90946492Y-101226740D01*
X90946491Y-101226740D01*
X90946496Y-101226739D01*
X91152734Y-101130568D01*
X91339139Y-101000047D01*
X91500047Y-100839139D01*
X91630568Y-100652734D01*
X91726739Y-100446496D01*
X91785635Y-100226692D01*
X91792345Y-100150000D01*
X95894508Y-100150000D01*
X95914354Y-100275304D01*
X95914354Y-100275305D01*
X95971949Y-100388342D01*
X95971950Y-100388342D01*
X96061658Y-100478050D01*
X96174696Y-100535646D01*
X96300000Y-100555492D01*
X96300001Y-100555491D01*
X96300003Y-100555492D01*
X96385414Y-100541964D01*
X96431927Y-100553130D01*
X96439385Y-100559500D01*
X97940694Y-102060809D01*
X97959000Y-102105003D01*
X97959000Y-104606929D01*
X97955493Y-104627571D01*
X97955320Y-104628064D01*
X97958803Y-104658980D01*
X97959000Y-104662482D01*
X97959000Y-104671522D01*
X97961011Y-104680334D01*
X97961598Y-104683789D01*
X97965081Y-104714706D01*
X97965361Y-104715151D01*
X97973370Y-104734484D01*
X97973488Y-104735000D01*
X97973489Y-104735003D01*
X97992885Y-104759324D01*
X97994916Y-104762186D01*
X97999725Y-104769840D01*
X98006117Y-104776232D01*
X98008454Y-104778847D01*
X98027851Y-104803170D01*
X98028322Y-104803397D01*
X98045398Y-104815513D01*
X98340498Y-105110613D01*
X98358804Y-105154807D01*
X98358035Y-105164583D01*
X98345289Y-105245070D01*
X98344508Y-105250000D01*
X98359180Y-105342635D01*
X98364354Y-105375304D01*
X98364354Y-105375305D01*
X98382877Y-105411657D01*
X98421950Y-105488342D01*
X98511658Y-105578050D01*
X98624696Y-105635646D01*
X98750000Y-105655492D01*
X98875304Y-105635646D01*
X98988342Y-105578050D01*
X99078050Y-105488342D01*
X99135646Y-105375304D01*
X99155492Y-105250000D01*
X99135646Y-105124696D01*
X99135644Y-105124692D01*
X99135643Y-105124689D01*
X99119832Y-105093660D01*
X99115225Y-105084619D01*
X99111472Y-105036933D01*
X99142538Y-105000558D01*
X99180688Y-104994514D01*
X99250000Y-105005492D01*
X99375304Y-104985646D01*
X99488342Y-104928050D01*
X99578050Y-104838342D01*
X99584783Y-104825126D01*
X99621158Y-104794059D01*
X99640472Y-104791000D01*
X99706405Y-104791000D01*
X99728479Y-104791000D01*
X99859528Y-104791000D01*
X99903722Y-104809306D01*
X99915216Y-104825126D01*
X99921950Y-104838342D01*
X100011658Y-104928050D01*
X100124696Y-104985646D01*
X100153119Y-104990147D01*
X100193905Y-105015141D01*
X100205072Y-105061655D01*
X100187536Y-105096071D01*
X100171950Y-105111657D01*
X100114354Y-105224694D01*
X100114354Y-105224695D01*
X100094508Y-105350000D01*
X100114354Y-105475304D01*
X100114354Y-105475305D01*
X100166705Y-105578049D01*
X100171950Y-105588342D01*
X100261658Y-105678050D01*
X100374696Y-105735646D01*
X100500000Y-105755492D01*
X100625304Y-105735646D01*
X100738342Y-105678050D01*
X100766392Y-105650000D01*
X101144508Y-105650000D01*
X101148951Y-105678050D01*
X101164354Y-105775304D01*
X101164354Y-105775305D01*
X101221949Y-105888341D01*
X101221950Y-105888342D01*
X101311658Y-105978050D01*
X101424696Y-106035646D01*
X101550000Y-106055492D01*
X101675304Y-106035646D01*
X101788342Y-105978050D01*
X101878050Y-105888342D01*
X101935646Y-105775304D01*
X101955492Y-105650000D01*
X101935646Y-105524696D01*
X101878050Y-105411658D01*
X101788342Y-105321950D01*
X101788341Y-105321949D01*
X101788340Y-105321948D01*
X101775125Y-105315215D01*
X101744059Y-105278841D01*
X101741000Y-105259528D01*
X101741000Y-104747921D01*
X102335619Y-104747921D01*
X102359536Y-104863017D01*
X102366408Y-104896084D01*
X102366408Y-104896086D01*
X102402452Y-104965647D01*
X102436029Y-105030447D01*
X102531931Y-105133132D01*
X102539321Y-105141045D01*
X102561952Y-105154807D01*
X102668618Y-105219672D01*
X102668624Y-105219673D01*
X102668625Y-105219674D01*
X102686542Y-105224694D01*
X102814332Y-105260499D01*
X102814332Y-105260500D01*
X102814335Y-105260500D01*
X102927657Y-105260500D01*
X102927658Y-105260500D01*
X103039920Y-105245070D01*
X103178720Y-105184780D01*
X103296108Y-105089278D01*
X103383377Y-104965647D01*
X103434054Y-104823056D01*
X103434410Y-104817853D01*
X103742500Y-104817853D01*
X103757363Y-104930751D01*
X103757366Y-104930761D01*
X103798657Y-105030447D01*
X103815555Y-105071241D01*
X103863554Y-105133795D01*
X103902675Y-105184780D01*
X103908122Y-105191878D01*
X104028758Y-105284445D01*
X104169242Y-105342635D01*
X104169246Y-105342635D01*
X104169248Y-105342636D01*
X104319997Y-105362483D01*
X104320000Y-105362483D01*
X104320003Y-105362483D01*
X104470751Y-105342636D01*
X104470751Y-105342635D01*
X104470758Y-105342635D01*
X104611241Y-105284445D01*
X104731878Y-105191878D01*
X104737325Y-105184780D01*
X104752398Y-105165135D01*
X104824445Y-105071241D01*
X104882635Y-104930758D01*
X104897500Y-104817849D01*
X104897500Y-103642151D01*
X104882635Y-103529242D01*
X104824445Y-103388759D01*
X104731878Y-103268122D01*
X104731876Y-103268121D01*
X104731876Y-103268120D01*
X104629155Y-103189300D01*
X104611242Y-103175555D01*
X104470758Y-103117365D01*
X104470755Y-103117364D01*
X104470754Y-103117364D01*
X104470751Y-103117363D01*
X104320003Y-103097517D01*
X104319997Y-103097517D01*
X104169248Y-103117363D01*
X104169238Y-103117366D01*
X104028762Y-103175553D01*
X104028759Y-103175554D01*
X104028759Y-103175555D01*
X103908122Y-103268122D01*
X103858761Y-103332452D01*
X103815553Y-103388762D01*
X103757366Y-103529238D01*
X103757363Y-103529248D01*
X103742500Y-103642146D01*
X103742500Y-104817853D01*
X103434410Y-104817853D01*
X103444381Y-104672079D01*
X103413592Y-104523915D01*
X103343971Y-104389553D01*
X103240680Y-104278956D01*
X103240679Y-104278955D01*
X103240678Y-104278954D01*
X103134448Y-104214355D01*
X103111382Y-104200328D01*
X103111378Y-104200327D01*
X103111374Y-104200325D01*
X102965667Y-104159500D01*
X102965665Y-104159500D01*
X102852342Y-104159500D01*
X102852336Y-104159500D01*
X102740082Y-104174929D01*
X102740079Y-104174930D01*
X102740080Y-104174930D01*
X102601280Y-104235220D01*
X102601279Y-104235220D01*
X102601276Y-104235222D01*
X102483893Y-104330721D01*
X102483890Y-104330724D01*
X102396622Y-104454353D01*
X102345945Y-104596944D01*
X102335619Y-104747916D01*
X102335619Y-104747921D01*
X101741000Y-104747921D01*
X101741000Y-103905002D01*
X101759305Y-103860809D01*
X102454602Y-103165511D01*
X102471679Y-103153396D01*
X102472149Y-103153170D01*
X102491548Y-103128842D01*
X102493885Y-103126229D01*
X102500275Y-103119840D01*
X102505082Y-103112189D01*
X102507114Y-103109324D01*
X102526511Y-103085003D01*
X102526625Y-103084500D01*
X102534644Y-103065141D01*
X102534918Y-103064706D01*
X102538401Y-103033779D01*
X102538988Y-103030332D01*
X102539614Y-103027593D01*
X102541000Y-103021521D01*
X102541000Y-103012482D01*
X102541197Y-103008980D01*
X102541884Y-103002877D01*
X102544680Y-102978065D01*
X102544506Y-102977570D01*
X102541000Y-102956929D01*
X102541000Y-102309622D01*
X102541000Y-101554998D01*
X102559303Y-101510810D01*
X103560614Y-100509499D01*
X103604807Y-100491194D01*
X103614577Y-100491962D01*
X103700000Y-100505492D01*
X103825304Y-100485646D01*
X103938342Y-100428050D01*
X104028050Y-100338342D01*
X104085646Y-100225304D01*
X104105492Y-100100000D01*
X104089654Y-100000002D01*
X108194532Y-100000002D01*
X108214364Y-100226688D01*
X108214367Y-100226704D01*
X108273259Y-100446492D01*
X108273260Y-100446494D01*
X108369431Y-100652733D01*
X108499953Y-100839140D01*
X108660859Y-101000046D01*
X108728674Y-101047530D01*
X108847266Y-101130568D01*
X108847265Y-101130568D01*
X108950385Y-101178653D01*
X109053504Y-101226739D01*
X109053506Y-101226739D01*
X109053507Y-101226740D01*
X109273295Y-101285632D01*
X109273301Y-101285633D01*
X109273308Y-101285635D01*
X109443216Y-101300500D01*
X109556784Y-101300500D01*
X109726692Y-101285635D01*
X109726701Y-101285632D01*
X109726704Y-101285632D01*
X109946492Y-101226740D01*
X109946491Y-101226740D01*
X109946496Y-101226739D01*
X110152734Y-101130568D01*
X110339139Y-101000047D01*
X110500047Y-100839139D01*
X110630568Y-100652734D01*
X110726739Y-100446496D01*
X110785635Y-100226692D01*
X110803307Y-100024696D01*
X110805468Y-100000002D01*
X110805468Y-99999997D01*
X110793365Y-99861658D01*
X110785635Y-99773308D01*
X110785271Y-99771950D01*
X110726740Y-99553507D01*
X110726739Y-99553505D01*
X110690131Y-99475000D01*
X110630568Y-99347266D01*
X110581017Y-99276499D01*
X110500046Y-99160859D01*
X110339140Y-98999953D01*
X110175890Y-98885646D01*
X110152734Y-98869432D01*
X110152732Y-98869431D01*
X110152734Y-98869431D01*
X109946494Y-98773260D01*
X109946492Y-98773259D01*
X109726704Y-98714367D01*
X109726688Y-98714364D01*
X109556784Y-98699500D01*
X109443216Y-98699500D01*
X109273311Y-98714364D01*
X109273295Y-98714367D01*
X109053507Y-98773259D01*
X109053505Y-98773260D01*
X108847266Y-98869431D01*
X108660859Y-98999953D01*
X108499953Y-99160859D01*
X108369431Y-99347266D01*
X108273260Y-99553505D01*
X108273259Y-99553507D01*
X108214367Y-99773295D01*
X108214364Y-99773311D01*
X108194532Y-99999997D01*
X108194532Y-100000002D01*
X104089654Y-100000002D01*
X104085646Y-99974696D01*
X104028050Y-99861658D01*
X103938342Y-99771950D01*
X103825304Y-99714354D01*
X103700000Y-99694508D01*
X103574695Y-99714354D01*
X103574694Y-99714354D01*
X103461657Y-99771950D01*
X103371950Y-99861657D01*
X103314354Y-99974694D01*
X103314354Y-99974695D01*
X103294508Y-100100000D01*
X103308035Y-100185415D01*
X103296867Y-100231928D01*
X103290498Y-100239385D01*
X102245395Y-101284488D01*
X102228326Y-101296601D01*
X102227850Y-101296829D01*
X102208455Y-101321150D01*
X102206121Y-101323762D01*
X102199725Y-101330159D01*
X102199724Y-101330160D01*
X102194916Y-101337812D01*
X102192889Y-101340668D01*
X102173489Y-101364996D01*
X102173488Y-101364998D01*
X102173370Y-101365516D01*
X102165365Y-101384843D01*
X102165082Y-101385293D01*
X102165081Y-101385295D01*
X102161598Y-101416211D01*
X102161011Y-101419666D01*
X102159000Y-101428477D01*
X102159000Y-101437516D01*
X102158803Y-101441017D01*
X102155320Y-101471935D01*
X102155492Y-101472427D01*
X102159000Y-101493071D01*
X102159000Y-102894996D01*
X102140694Y-102939190D01*
X101445395Y-103634488D01*
X101428326Y-103646601D01*
X101427850Y-103646829D01*
X101408455Y-103671150D01*
X101406121Y-103673762D01*
X101399725Y-103680159D01*
X101399724Y-103680160D01*
X101394916Y-103687812D01*
X101392889Y-103690668D01*
X101373489Y-103714996D01*
X101373488Y-103714998D01*
X101373370Y-103715516D01*
X101365365Y-103734843D01*
X101365082Y-103735293D01*
X101365081Y-103735295D01*
X101361598Y-103766211D01*
X101361011Y-103769666D01*
X101359000Y-103778477D01*
X101359000Y-103787516D01*
X101358803Y-103791017D01*
X101355320Y-103821935D01*
X101355492Y-103822427D01*
X101359000Y-103843071D01*
X101359000Y-105259528D01*
X101340694Y-105303722D01*
X101324875Y-105315215D01*
X101311659Y-105321948D01*
X101311658Y-105321950D01*
X101221950Y-105411657D01*
X101164354Y-105524694D01*
X101164354Y-105524695D01*
X101146782Y-105635645D01*
X101144508Y-105650000D01*
X100766392Y-105650000D01*
X100828050Y-105588342D01*
X100885646Y-105475304D01*
X100905492Y-105350000D01*
X100891646Y-105262579D01*
X100900453Y-105219557D01*
X100905082Y-105212188D01*
X100907114Y-105209324D01*
X100926511Y-105185003D01*
X100926625Y-105184500D01*
X100934644Y-105165141D01*
X100934918Y-105164706D01*
X100938401Y-105133779D01*
X100938988Y-105130332D01*
X100941000Y-105121521D01*
X100941000Y-105112482D01*
X100941197Y-105108980D01*
X100942651Y-105096071D01*
X100944680Y-105078065D01*
X100944508Y-105077575D01*
X100940999Y-105056933D01*
X100940999Y-103343072D01*
X100944509Y-103322424D01*
X100944541Y-103322331D01*
X100944680Y-103321935D01*
X100941197Y-103291016D01*
X100941000Y-103287515D01*
X100941000Y-103278479D01*
X100940999Y-103278476D01*
X100938990Y-103269671D01*
X100938402Y-103266213D01*
X100934919Y-103235295D01*
X100934919Y-103235293D01*
X100934642Y-103234853D01*
X100926625Y-103215500D01*
X100926511Y-103214997D01*
X100907109Y-103190668D01*
X100905083Y-103187812D01*
X100900275Y-103180160D01*
X100893881Y-103173766D01*
X100891544Y-103171151D01*
X100877202Y-103153167D01*
X100872149Y-103146830D01*
X100872148Y-103146829D01*
X100871828Y-103146675D01*
X100871671Y-103146600D01*
X100854601Y-103134486D01*
X99209306Y-101489191D01*
X99191000Y-101444997D01*
X99191000Y-99475000D01*
X101869508Y-99475000D01*
X101889354Y-99600304D01*
X101889354Y-99600305D01*
X101946949Y-99713341D01*
X101946950Y-99713342D01*
X102036658Y-99803050D01*
X102149696Y-99860646D01*
X102275000Y-99880492D01*
X102400304Y-99860646D01*
X102513342Y-99803050D01*
X102603050Y-99713342D01*
X102660646Y-99600304D01*
X102680492Y-99475000D01*
X102666963Y-99389582D01*
X102678130Y-99343070D01*
X102684494Y-99335619D01*
X104860614Y-97159499D01*
X104904807Y-97141194D01*
X104914577Y-97141962D01*
X105000000Y-97155492D01*
X105125304Y-97135646D01*
X105238342Y-97078050D01*
X105328050Y-96988342D01*
X105385646Y-96875304D01*
X105405492Y-96750000D01*
X105385646Y-96624696D01*
X105328050Y-96511658D01*
X105238342Y-96421950D01*
X105125304Y-96364354D01*
X105000000Y-96344508D01*
X104874695Y-96364354D01*
X104874694Y-96364354D01*
X104761657Y-96421950D01*
X104671950Y-96511657D01*
X104614354Y-96624694D01*
X104614354Y-96624695D01*
X104594508Y-96750000D01*
X104608035Y-96835415D01*
X104596867Y-96881928D01*
X104590498Y-96889385D01*
X102414385Y-99065498D01*
X102370191Y-99083804D01*
X102360415Y-99083035D01*
X102275000Y-99069508D01*
X102149695Y-99089354D01*
X102149694Y-99089354D01*
X102036657Y-99146950D01*
X101946950Y-99236657D01*
X101889354Y-99349694D01*
X101889354Y-99349695D01*
X101869508Y-99475000D01*
X99191000Y-99475000D01*
X99191000Y-98500000D01*
X99594508Y-98500000D01*
X99614354Y-98625304D01*
X99614354Y-98625305D01*
X99659733Y-98714365D01*
X99671950Y-98738342D01*
X99761658Y-98828050D01*
X99874696Y-98885646D01*
X100000000Y-98905492D01*
X100125304Y-98885646D01*
X100238342Y-98828050D01*
X100328050Y-98738342D01*
X100385646Y-98625304D01*
X100405492Y-98500000D01*
X100391963Y-98414582D01*
X100403130Y-98368070D01*
X100409494Y-98360619D01*
X101860614Y-96909499D01*
X101904807Y-96891194D01*
X101914577Y-96891962D01*
X102000000Y-96905492D01*
X102125304Y-96885646D01*
X102238342Y-96828050D01*
X102328050Y-96738342D01*
X102385646Y-96625304D01*
X102405492Y-96500000D01*
X102385646Y-96374696D01*
X102328050Y-96261658D01*
X102238342Y-96171950D01*
X102125304Y-96114354D01*
X102000000Y-96094508D01*
X101874695Y-96114354D01*
X101874694Y-96114354D01*
X101761657Y-96171950D01*
X101671950Y-96261657D01*
X101614354Y-96374694D01*
X101614354Y-96374695D01*
X101594508Y-96500000D01*
X101608035Y-96585415D01*
X101596867Y-96631928D01*
X101590498Y-96639385D01*
X100139385Y-98090498D01*
X100095191Y-98108804D01*
X100085415Y-98108035D01*
X100000000Y-98094508D01*
X99874695Y-98114354D01*
X99874694Y-98114354D01*
X99761657Y-98171950D01*
X99671950Y-98261657D01*
X99614354Y-98374694D01*
X99614354Y-98374695D01*
X99594508Y-98500000D01*
X99191000Y-98500000D01*
X99191000Y-95124335D01*
X110499500Y-95124335D01*
X110540429Y-95369614D01*
X110621172Y-95604810D01*
X110702301Y-95754723D01*
X110739525Y-95823508D01*
X110739526Y-95823510D01*
X110892257Y-96019738D01*
X110892260Y-96019742D01*
X111075211Y-96188161D01*
X111075213Y-96188162D01*
X111075215Y-96188164D01*
X111283393Y-96324173D01*
X111511119Y-96424063D01*
X111752179Y-96485108D01*
X111937933Y-96500500D01*
X111937935Y-96500500D01*
X112062065Y-96500500D01*
X112062067Y-96500500D01*
X112247821Y-96485108D01*
X112488881Y-96424063D01*
X112716607Y-96324173D01*
X112924785Y-96188164D01*
X113107738Y-96019744D01*
X113260474Y-95823509D01*
X113378828Y-95604810D01*
X113459571Y-95369614D01*
X113500500Y-95124335D01*
X113500500Y-94875665D01*
X113459571Y-94630386D01*
X113378828Y-94395190D01*
X113260474Y-94176491D01*
X113260473Y-94176489D01*
X113107742Y-93980261D01*
X113107739Y-93980257D01*
X112924788Y-93811838D01*
X112924783Y-93811835D01*
X112916799Y-93806619D01*
X112716607Y-93675827D01*
X112488881Y-93575937D01*
X112247821Y-93514892D01*
X112062067Y-93499500D01*
X111937933Y-93499500D01*
X111752179Y-93514892D01*
X111511119Y-93575937D01*
X111511117Y-93575937D01*
X111511116Y-93575938D01*
X111283390Y-93675828D01*
X111283387Y-93675830D01*
X111075216Y-93811835D01*
X111075211Y-93811838D01*
X110892260Y-93980257D01*
X110892257Y-93980261D01*
X110739526Y-94176489D01*
X110739525Y-94176491D01*
X110658396Y-94326404D01*
X110621172Y-94395190D01*
X110540429Y-94630386D01*
X110499500Y-94875665D01*
X110499500Y-95124335D01*
X99191000Y-95124335D01*
X99191000Y-94827723D01*
X99209306Y-94783529D01*
X99232856Y-94768730D01*
X99350395Y-94727603D01*
X99503517Y-94631390D01*
X99631390Y-94503517D01*
X99727603Y-94350395D01*
X99787330Y-94179703D01*
X99807578Y-94000000D01*
X100192422Y-94000000D01*
X100212669Y-94179699D01*
X100212670Y-94179703D01*
X100272397Y-94350396D01*
X100368608Y-94503515D01*
X100496484Y-94631391D01*
X100649603Y-94727602D01*
X100649605Y-94727603D01*
X100820297Y-94787330D01*
X101000000Y-94807578D01*
X101179703Y-94787330D01*
X101350395Y-94727603D01*
X101503517Y-94631390D01*
X101631390Y-94503517D01*
X101727603Y-94350395D01*
X101787330Y-94179703D01*
X101807578Y-94000000D01*
X102192422Y-94000000D01*
X102212669Y-94179699D01*
X102212670Y-94179703D01*
X102272397Y-94350396D01*
X102368608Y-94503515D01*
X102496484Y-94631391D01*
X102649603Y-94727602D01*
X102649605Y-94727603D01*
X102820297Y-94787330D01*
X103000000Y-94807578D01*
X103179703Y-94787330D01*
X103350395Y-94727603D01*
X103414126Y-94687558D01*
X104197500Y-94687558D01*
X104204256Y-94721521D01*
X104204898Y-94724748D01*
X104204898Y-94724749D01*
X104233077Y-94766922D01*
X104257704Y-94783377D01*
X104275252Y-94795102D01*
X104312442Y-94802500D01*
X104312443Y-94802500D01*
X105687557Y-94802500D01*
X105687558Y-94802500D01*
X105724748Y-94795102D01*
X105766922Y-94766922D01*
X105795102Y-94724748D01*
X105802500Y-94687558D01*
X105802500Y-93312442D01*
X105795102Y-93275252D01*
X105795101Y-93275250D01*
X105766922Y-93233077D01*
X105724748Y-93204898D01*
X105724747Y-93204898D01*
X105687558Y-93197500D01*
X104312442Y-93197500D01*
X104293847Y-93201199D01*
X104275251Y-93204898D01*
X104275250Y-93204898D01*
X104233077Y-93233077D01*
X104204898Y-93275250D01*
X104204898Y-93275251D01*
X104204897Y-93275252D01*
X104204898Y-93275252D01*
X104197500Y-93312442D01*
X104197500Y-94687558D01*
X103414126Y-94687558D01*
X103503517Y-94631390D01*
X103631390Y-94503517D01*
X103727603Y-94350395D01*
X103787330Y-94179703D01*
X103807578Y-94000000D01*
X103787330Y-93820297D01*
X103727603Y-93649605D01*
X103681315Y-93575938D01*
X103631391Y-93496484D01*
X103503515Y-93368608D01*
X103350396Y-93272397D01*
X103179703Y-93212670D01*
X103179699Y-93212669D01*
X103000000Y-93192422D01*
X102820300Y-93212669D01*
X102820296Y-93212670D01*
X102649603Y-93272397D01*
X102496484Y-93368608D01*
X102368608Y-93496484D01*
X102272397Y-93649603D01*
X102212670Y-93820296D01*
X102212669Y-93820300D01*
X102192422Y-94000000D01*
X101807578Y-94000000D01*
X101787330Y-93820297D01*
X101727603Y-93649605D01*
X101681315Y-93575938D01*
X101631391Y-93496484D01*
X101503515Y-93368608D01*
X101350396Y-93272397D01*
X101179703Y-93212670D01*
X101179699Y-93212669D01*
X101000000Y-93192422D01*
X100820300Y-93212669D01*
X100820296Y-93212670D01*
X100649603Y-93272397D01*
X100496484Y-93368608D01*
X100368608Y-93496484D01*
X100272397Y-93649603D01*
X100212670Y-93820296D01*
X100212669Y-93820300D01*
X100192422Y-94000000D01*
X99807578Y-94000000D01*
X99787330Y-93820297D01*
X99727603Y-93649605D01*
X99681315Y-93575938D01*
X99631391Y-93496484D01*
X99503515Y-93368608D01*
X99350396Y-93272397D01*
X99179703Y-93212670D01*
X99179699Y-93212669D01*
X99000000Y-93192422D01*
X98820300Y-93212669D01*
X98820296Y-93212670D01*
X98649603Y-93272397D01*
X98496484Y-93368608D01*
X98368608Y-93496484D01*
X98272397Y-93649603D01*
X98212670Y-93820296D01*
X98212669Y-93820300D01*
X98192422Y-94000000D01*
X98212669Y-94179699D01*
X98212670Y-94179703D01*
X98272397Y-94350396D01*
X98368608Y-94503515D01*
X98496484Y-94631391D01*
X98649603Y-94727602D01*
X98649605Y-94727603D01*
X98767142Y-94768730D01*
X98802810Y-94800605D01*
X98809000Y-94827723D01*
X98809000Y-95387997D01*
X98790694Y-95432191D01*
X98746500Y-95450497D01*
X98702306Y-95432191D01*
X97721521Y-94451406D01*
X97703215Y-94407212D01*
X97712794Y-94373961D01*
X97727603Y-94350395D01*
X97787330Y-94179703D01*
X97807578Y-94000000D01*
X97787330Y-93820297D01*
X97727603Y-93649605D01*
X97681315Y-93575938D01*
X97631391Y-93496484D01*
X97503515Y-93368608D01*
X97350396Y-93272397D01*
X97179703Y-93212670D01*
X97179699Y-93212669D01*
X97000000Y-93192422D01*
X96820300Y-93212669D01*
X96820296Y-93212670D01*
X96649603Y-93272397D01*
X96496484Y-93368608D01*
X96368608Y-93496484D01*
X96272397Y-93649603D01*
X96212670Y-93820296D01*
X96212669Y-93820300D01*
X96192422Y-94000000D01*
X96212669Y-94179699D01*
X96212670Y-94179703D01*
X96272397Y-94350396D01*
X96368608Y-94503515D01*
X96496484Y-94631391D01*
X96649603Y-94727602D01*
X96649605Y-94727603D01*
X96820297Y-94787330D01*
X97000000Y-94807578D01*
X97179703Y-94787330D01*
X97350395Y-94727603D01*
X97373960Y-94712795D01*
X97421117Y-94704781D01*
X97451406Y-94721521D01*
X98536694Y-95806809D01*
X98555000Y-95851003D01*
X98555000Y-101612139D01*
X98551493Y-101632781D01*
X98551320Y-101633274D01*
X98554803Y-101664190D01*
X98555000Y-101667692D01*
X98555000Y-101676732D01*
X98557011Y-101685544D01*
X98557598Y-101688999D01*
X98561081Y-101719916D01*
X98561361Y-101720361D01*
X98569370Y-101739694D01*
X98569488Y-101740210D01*
X98569489Y-101740213D01*
X98588885Y-101764534D01*
X98590916Y-101767396D01*
X98595725Y-101775050D01*
X98602117Y-101781442D01*
X98604454Y-101784057D01*
X98623851Y-101808380D01*
X98624322Y-101808607D01*
X98641398Y-101820723D01*
X99540693Y-102720018D01*
X99558999Y-102764212D01*
X99559000Y-104205961D01*
X99540694Y-104250155D01*
X99496500Y-104268461D01*
X99468126Y-104261649D01*
X99375308Y-104214355D01*
X99375304Y-104214354D01*
X99322312Y-104205961D01*
X99250000Y-104194508D01*
X99249999Y-104194508D01*
X99124695Y-104214354D01*
X99124694Y-104214354D01*
X99011657Y-104271950D01*
X98921950Y-104361657D01*
X98864354Y-104474694D01*
X98864354Y-104474695D01*
X98844508Y-104600000D01*
X98864354Y-104725304D01*
X98864354Y-104725305D01*
X98869031Y-104734484D01*
X98884774Y-104765380D01*
X98888527Y-104813067D01*
X98857461Y-104849442D01*
X98819310Y-104855485D01*
X98750000Y-104844508D01*
X98664583Y-104858035D01*
X98618069Y-104846867D01*
X98610613Y-104840498D01*
X98359305Y-104589190D01*
X98341000Y-104544998D01*
X98341000Y-103278479D01*
X98341000Y-103278478D01*
X98341000Y-102043071D01*
X98344508Y-102022427D01*
X98344531Y-102022360D01*
X98344680Y-102021935D01*
X98342365Y-102001391D01*
X98341197Y-101991017D01*
X98341000Y-101987516D01*
X98341000Y-101978477D01*
X98338988Y-101969667D01*
X98338401Y-101966219D01*
X98334918Y-101935294D01*
X98334639Y-101934851D01*
X98326625Y-101915498D01*
X98326511Y-101914997D01*
X98307109Y-101890668D01*
X98305079Y-101887806D01*
X98304680Y-101887172D01*
X98300275Y-101880160D01*
X98293881Y-101873766D01*
X98291544Y-101871151D01*
X98272148Y-101846829D01*
X98271828Y-101846675D01*
X98271671Y-101846600D01*
X98254601Y-101834486D01*
X96709500Y-100289385D01*
X96691194Y-100245191D01*
X96691964Y-100235414D01*
X96705492Y-100150003D01*
X96705492Y-100150002D01*
X96705492Y-100150000D01*
X96685646Y-100024696D01*
X96628050Y-99911658D01*
X96538342Y-99821950D01*
X96425304Y-99764354D01*
X96300000Y-99744508D01*
X96174695Y-99764354D01*
X96174694Y-99764354D01*
X96061657Y-99821950D01*
X95971950Y-99911657D01*
X95914354Y-100024694D01*
X95914354Y-100024695D01*
X95894508Y-100150000D01*
X91792345Y-100150000D01*
X91803307Y-100024696D01*
X91805468Y-100000002D01*
X91805468Y-99999997D01*
X91793365Y-99861658D01*
X91785635Y-99773308D01*
X91785271Y-99771950D01*
X91726740Y-99553507D01*
X91726739Y-99553505D01*
X91690131Y-99475000D01*
X91630568Y-99347266D01*
X91581017Y-99276499D01*
X91500046Y-99160859D01*
X91339140Y-98999953D01*
X91175890Y-98885646D01*
X91152734Y-98869432D01*
X91152732Y-98869431D01*
X91152734Y-98869431D01*
X90946494Y-98773260D01*
X90946492Y-98773259D01*
X90726704Y-98714367D01*
X90726688Y-98714364D01*
X90556784Y-98699500D01*
X90443216Y-98699500D01*
X90273311Y-98714364D01*
X90273295Y-98714367D01*
X90053507Y-98773259D01*
X90053505Y-98773260D01*
X89847266Y-98869431D01*
X89660859Y-98999953D01*
X89499953Y-99160859D01*
X89369431Y-99347266D01*
X89273260Y-99553505D01*
X89273259Y-99553507D01*
X89214367Y-99773295D01*
X89214364Y-99773311D01*
X89194532Y-99999997D01*
X89194532Y-100000002D01*
X88040954Y-100000002D01*
X87413998Y-99216307D01*
X87400684Y-99170362D01*
X87423759Y-99128460D01*
X87469704Y-99115146D01*
X87489041Y-99120538D01*
X87634541Y-99187854D01*
X87810113Y-99226500D01*
X87810116Y-99226500D01*
X87944812Y-99226500D01*
X87944816Y-99226500D01*
X88078721Y-99211937D01*
X88249085Y-99154535D01*
X88403126Y-99061851D01*
X88533642Y-98938220D01*
X88634529Y-98789423D01*
X88701070Y-98622416D01*
X88730155Y-98445010D01*
X88720422Y-98265499D01*
X88672327Y-98092277D01*
X88588119Y-97933444D01*
X88471735Y-97796426D01*
X88394392Y-97737631D01*
X88328619Y-97687631D01*
X88237477Y-97645465D01*
X88165459Y-97612146D01*
X88165460Y-97612146D01*
X88121566Y-97602484D01*
X87989887Y-97573500D01*
X87855184Y-97573500D01*
X87855183Y-97573500D01*
X87721278Y-97588063D01*
X87721272Y-97588064D01*
X87550913Y-97645465D01*
X87396874Y-97738149D01*
X87396873Y-97738149D01*
X87266357Y-97861781D01*
X87165469Y-98010580D01*
X87098931Y-98177580D01*
X87098930Y-98177582D01*
X87098930Y-98177584D01*
X87084517Y-98265499D01*
X87069845Y-98354990D01*
X87069844Y-98354990D01*
X87079577Y-98534494D01*
X87079577Y-98534498D01*
X87079578Y-98534501D01*
X87096700Y-98596170D01*
X87110082Y-98644367D01*
X87104266Y-98691847D01*
X87066580Y-98721309D01*
X87019100Y-98715493D01*
X87001056Y-98700130D01*
X86941195Y-98625304D01*
X85514196Y-96841554D01*
X85500500Y-96802511D01*
X85500500Y-95124335D01*
X86499500Y-95124335D01*
X86540429Y-95369614D01*
X86621172Y-95604810D01*
X86702301Y-95754723D01*
X86739525Y-95823508D01*
X86739526Y-95823510D01*
X86892257Y-96019738D01*
X86892260Y-96019742D01*
X87075211Y-96188161D01*
X87075213Y-96188162D01*
X87075215Y-96188164D01*
X87283393Y-96324173D01*
X87511119Y-96424063D01*
X87752179Y-96485108D01*
X87937933Y-96500500D01*
X87937935Y-96500500D01*
X88062065Y-96500500D01*
X88062067Y-96500500D01*
X88247821Y-96485108D01*
X88488881Y-96424063D01*
X88716607Y-96324173D01*
X88924785Y-96188164D01*
X89107738Y-96019744D01*
X89260474Y-95823509D01*
X89378828Y-95604810D01*
X89459571Y-95369614D01*
X89500500Y-95124335D01*
X89500500Y-94875665D01*
X89459571Y-94630386D01*
X89378828Y-94395190D01*
X89260474Y-94176491D01*
X89260473Y-94176489D01*
X89107742Y-93980261D01*
X89107739Y-93980257D01*
X88924788Y-93811838D01*
X88924783Y-93811835D01*
X88916799Y-93806619D01*
X88716607Y-93675827D01*
X88488881Y-93575937D01*
X88247821Y-93514892D01*
X88062067Y-93499500D01*
X87937933Y-93499500D01*
X87752179Y-93514892D01*
X87511119Y-93575937D01*
X87511117Y-93575937D01*
X87511116Y-93575938D01*
X87283390Y-93675828D01*
X87283387Y-93675830D01*
X87075216Y-93811835D01*
X87075211Y-93811838D01*
X86892260Y-93980257D01*
X86892257Y-93980261D01*
X86739526Y-94176489D01*
X86739525Y-94176491D01*
X86658396Y-94326404D01*
X86621172Y-94395190D01*
X86540429Y-94630386D01*
X86499500Y-94875665D01*
X86499500Y-95124335D01*
X85500500Y-95124335D01*
X85500500Y-93733201D01*
X85518805Y-93689008D01*
X86189008Y-93018806D01*
X86233202Y-93000500D01*
X94676675Y-93000500D01*
X94720869Y-93018806D01*
G37*
%TD.AperFunction*%
%TD*%
M02*
