%TF.GenerationSoftware,KiCad,Pcbnew,7.0.8*%
%TF.CreationDate,2023-10-15T21:23:35+02:00*%
%TF.ProjectId,blinkekatze,626c696e-6b65-46b6-9174-7a652e6b6963,rev?*%
%TF.SameCoordinates,Original*%
%TF.FileFunction,Copper,L2,Inr*%
%TF.FilePolarity,Positive*%
%FSLAX46Y46*%
G04 Gerber Fmt 4.6, Leading zero omitted, Abs format (unit mm)*
G04 Created by KiCad (PCBNEW 7.0.8) date 2023-10-15 21:23:35*
%MOMM*%
%LPD*%
G01*
G04 APERTURE LIST*
G04 Aperture macros list*
%AMHorizOval*
0 Thick line with rounded ends*
0 $1 width*
0 $2 $3 position (X,Y) of the first rounded end (center of the circle)*
0 $4 $5 position (X,Y) of the second rounded end (center of the circle)*
0 Add line between two ends*
20,1,$1,$2,$3,$4,$5,0*
0 Add two circle primitives to create the rounded ends*
1,1,$1,$2,$3*
1,1,$1,$4,$5*%
%AMRotRect*
0 Rectangle, with rotation*
0 The origin of the aperture is its center*
0 $1 length*
0 $2 width*
0 $3 Rotation angle, in degrees counterclockwise*
0 Add horizontal line*
21,1,$1,$2,0,0,$3*%
G04 Aperture macros list end*
%TA.AperFunction,ComponentPad*%
%ADD10R,1.700000X1.700000*%
%TD*%
%TA.AperFunction,ComponentPad*%
%ADD11O,1.700000X1.700000*%
%TD*%
%TA.AperFunction,ComponentPad*%
%ADD12C,0.600000*%
%TD*%
%TA.AperFunction,ComponentPad*%
%ADD13RotRect,1.700000X1.700000X145.000000*%
%TD*%
%TA.AperFunction,ComponentPad*%
%ADD14HorizOval,1.700000X0.000000X0.000000X0.000000X0.000000X0*%
%TD*%
%TA.AperFunction,ComponentPad*%
%ADD15C,3.000000*%
%TD*%
%TA.AperFunction,ViaPad*%
%ADD16C,0.450000*%
%TD*%
G04 APERTURE END LIST*
D10*
%TO.N,/Logic/EN*%
%TO.C,J2*%
X92600000Y-78030000D03*
D11*
%TO.N,GND*%
X92600000Y-75490000D03*
%TO.N,/Logic/IO9*%
X92600000Y-72950000D03*
%TD*%
D10*
%TO.N,/Charger/PWR_ON*%
%TO.C,J1*%
X68850000Y-107900000D03*
D11*
%TO.N,/USB/VBAT*%
X71390000Y-107900000D03*
%TD*%
D12*
%TO.N,GND*%
%TO.C,U9*%
X91600000Y-98345002D03*
X90700000Y-97845002D03*
X92500000Y-97845002D03*
X91600000Y-97345002D03*
%TD*%
D13*
%TO.N,GND*%
%TO.C,J3*%
X125502981Y-120868127D03*
D14*
%TO.N,/Battery/SCL*%
X126959865Y-118787481D03*
%TO.N,/Battery/SDA*%
X128416749Y-116706835D03*
%TD*%
D15*
%TO.N,GND1*%
%TO.C,BTT2*%
X102500000Y-123000000D03*
X97500000Y-123000000D03*
X100000000Y-130600000D03*
%TD*%
%TO.N,+BATT*%
%TO.C,BTT1*%
X97500000Y-77000000D03*
X102500000Y-77000000D03*
X100000000Y-69400000D03*
%TD*%
D16*
%TO.N,GND1*%
X106350000Y-128250000D03*
X108400000Y-121400000D03*
X106750000Y-127850000D03*
X107400000Y-129350000D03*
X104000000Y-130250000D03*
X106900000Y-122350000D03*
X106850000Y-128700000D03*
X106850000Y-129400000D03*
%TO.N,GND*%
X113576294Y-128456774D03*
X102275000Y-95949998D03*
X102274998Y-98150000D03*
X113950001Y-82250000D03*
X73489999Y-104665000D03*
X116725000Y-75625001D03*
X115350000Y-124350000D03*
X115100000Y-97500000D03*
X125220871Y-110265756D03*
X102274999Y-97049998D03*
X115175000Y-79300000D03*
X112162237Y-93918882D03*
X95700000Y-112900000D03*
X100699997Y-99049998D03*
X104474999Y-98150001D03*
X74650000Y-95800000D03*
X78800000Y-103400000D03*
X110272507Y-108909298D03*
X81900000Y-92600000D03*
X117350000Y-71775000D03*
X111100000Y-75475000D03*
X93918882Y-87837763D03*
X107999999Y-100325000D03*
X114676294Y-128006774D03*
X79400000Y-103400000D03*
X103375000Y-97049999D03*
X112900000Y-104300000D03*
X89727493Y-91090702D03*
X110350000Y-77300000D03*
X73950000Y-95800000D03*
X104300000Y-87100000D03*
X99036066Y-86436415D03*
X99024998Y-96450001D03*
X89750000Y-67950000D03*
X75100000Y-95350000D03*
X75139999Y-104664999D03*
X107999999Y-99200002D03*
X104475001Y-95950001D03*
X73450000Y-95350000D03*
X103374998Y-98149998D03*
X98425000Y-96500001D03*
X76450000Y-103250000D03*
X100156641Y-108279992D03*
X107150000Y-72175000D03*
X107275000Y-72825000D03*
X116925001Y-74424999D03*
X114176294Y-128256774D03*
X107024999Y-95749999D03*
X76450000Y-103750000D03*
X114575000Y-80775001D03*
X74640001Y-104215001D03*
X109675000Y-69175000D03*
X116200000Y-74125000D03*
X114874999Y-80025000D03*
X97250004Y-90799995D03*
X111625000Y-76775000D03*
X128495871Y-109390756D03*
X114800000Y-127300000D03*
X76450000Y-97750000D03*
X113650000Y-83000000D03*
X117800000Y-74650000D03*
X116125000Y-77100000D03*
X100963934Y-113563585D03*
X113350000Y-83724999D03*
X87837763Y-106081118D03*
X104075001Y-101650001D03*
X114275000Y-81525000D03*
X101200000Y-99450003D03*
X108909298Y-89727493D03*
X96796486Y-108944716D03*
X109200000Y-88850000D03*
X73940000Y-104215000D03*
X86436415Y-100963934D03*
X101324856Y-111469863D03*
X113750000Y-84475000D03*
X100299998Y-99650000D03*
X91490002Y-94894999D03*
X106081118Y-112162237D03*
X103375000Y-95950000D03*
X107224999Y-101700000D03*
X103800000Y-81000000D03*
X78200000Y-103400000D03*
X100700001Y-98350001D03*
X109049999Y-77850000D03*
X109574999Y-79150000D03*
X109824999Y-76025000D03*
X101124999Y-94450002D03*
X93099999Y-69050001D03*
X112725000Y-79375000D03*
X88400000Y-69050000D03*
X116425001Y-76350000D03*
X100262497Y-93600000D03*
X107993750Y-101150000D03*
X101299998Y-98650000D03*
X99587497Y-93599999D03*
X110875001Y-78600000D03*
X113563585Y-99036066D03*
X104625001Y-93900000D03*
X104474999Y-97050000D03*
X107074997Y-99700002D03*
X91090702Y-110272507D03*
X91099999Y-71049996D03*
X76450000Y-98250000D03*
X106437497Y-101124999D03*
X96354478Y-110926414D03*
X117600001Y-72500000D03*
X109275000Y-69625000D03*
X101450000Y-110250000D03*
X115800000Y-77825000D03*
X113000000Y-91950000D03*
X113475000Y-77525001D03*
X115500001Y-78575000D03*
X76450000Y-96250000D03*
X87100000Y-95700000D03*
%TO.N,+3V3*%
X115725000Y-71700000D03*
X92299999Y-67150002D03*
X87800000Y-98650000D03*
X87800000Y-97850000D03*
X81300000Y-98700000D03*
X82000000Y-96800000D03*
X82000000Y-98700000D03*
X127595871Y-109015756D03*
X82000000Y-97750000D03*
X96350000Y-115575000D03*
X124895871Y-111165756D03*
X90300000Y-73550000D03*
X113500000Y-70800000D03*
X87800000Y-97050000D03*
X81300000Y-96800000D03*
X106475000Y-71950000D03*
X128720871Y-112040756D03*
X81300000Y-97750000D03*
X127195871Y-113790756D03*
X109800000Y-85800000D03*
X116450000Y-71400001D03*
%TO.N,Net-(U8-REGN)*%
X103750000Y-100500000D03*
X103549998Y-92475000D03*
%TO.N,Net-(U2-VCC)*%
X107500000Y-122100000D03*
X106200000Y-125850000D03*
%TO.N,Net-(U1-IO6)*%
X106900000Y-77700000D03*
X111500000Y-92800000D03*
%TO.N,Net-(U1-IO7)*%
X106500000Y-78600000D03*
X110400000Y-92800000D03*
%TO.N,/Charger/VLED*%
X101116718Y-86494614D03*
X98883282Y-113505386D03*
X93800000Y-112050000D03*
X108760111Y-110339388D03*
X106200000Y-87950000D03*
X113505386Y-101116718D03*
X95863425Y-87095301D03*
X105449998Y-101850000D03*
X89660612Y-108760111D03*
X87095301Y-104136575D03*
X106025000Y-101600001D03*
X104136575Y-112904699D03*
X87950000Y-93800000D03*
X91239889Y-89660612D03*
X110339388Y-91239889D03*
X112050000Y-106200000D03*
X112904699Y-95863425D03*
X106093749Y-100550000D03*
X87050000Y-99450000D03*
%TO.N,VBUS*%
X78800000Y-100900000D03*
X78800000Y-102600000D03*
X78200000Y-100900000D03*
X105849999Y-99625000D03*
X79400000Y-102600000D03*
X106450000Y-99800002D03*
X79400000Y-100900000D03*
X78200000Y-102600000D03*
X81150000Y-92150000D03*
X105724999Y-98825000D03*
X105100000Y-98850001D03*
%TO.N,/Charger/PWR_ON*%
X104599997Y-92600000D03*
X76900000Y-105100000D03*
%TO.N,Net-(U1-IO10)*%
X108500000Y-80500000D03*
X104500000Y-89700000D03*
%TO.N,+BATT*%
X109650000Y-120900000D03*
X108450000Y-118300000D03*
%TO.N,Net-(U1-TXD0)*%
X103200000Y-87800000D03*
X82800000Y-96050000D03*
X106300000Y-83450000D03*
X96850000Y-88400000D03*
%TO.N,Net-(U1-RXD0)*%
X102600000Y-87200000D03*
X107100000Y-83250000D03*
X95850000Y-88400000D03*
X82400000Y-95550000D03*
%TO.N,/Battery/SDA*%
X105700001Y-92200000D03*
X111800000Y-107289600D03*
X109800000Y-82500000D03*
X103350000Y-111483200D03*
X105700000Y-90950000D03*
X105700001Y-89299999D03*
X103350000Y-117150000D03*
%TO.N,/Battery/SCL*%
X106300000Y-92900000D03*
X111100000Y-83000000D03*
X102666800Y-116636800D03*
X102666800Y-112325000D03*
X104600000Y-91650000D03*
X106300000Y-91600000D03*
%TO.N,/Charger/~{CHARGE_ENABLE}*%
X109100000Y-80200000D03*
X104024999Y-93062503D03*
%TO.N,Net-(U1-IO5)*%
X103650000Y-89800000D03*
X108000000Y-81000000D03*
%TO.N,/Battery/BAT+*%
X100549999Y-95249997D03*
X100675000Y-80350000D03*
X100675000Y-79650000D03*
X98850000Y-78850000D03*
X101399998Y-95150000D03*
X100675000Y-78950000D03*
X99249997Y-95250003D03*
X99925000Y-95175001D03*
X98850001Y-80250000D03*
X98850000Y-79550001D03*
%TO.N,/Logic/EN*%
X89450000Y-72300000D03*
X93450000Y-67400000D03*
%TO.N,Net-(U1-IO4)*%
X107500000Y-76600000D03*
X124100000Y-111100000D03*
%TD*%
%TA.AperFunction,Conductor*%
%TO.N,GND*%
G36*
X100958475Y-66016357D02*
G01*
X102072221Y-66066445D01*
X103183726Y-66153027D01*
X104291794Y-66276009D01*
X105395234Y-66435260D01*
X106492858Y-66630607D01*
X107583486Y-66861841D01*
X108665946Y-67128714D01*
X109739072Y-67430937D01*
X110801712Y-67768187D01*
X111852721Y-68140100D01*
X112890970Y-68546276D01*
X113915341Y-68986279D01*
X114924734Y-69459635D01*
X115918062Y-69965835D01*
X116894258Y-70504335D01*
X117852270Y-71074556D01*
X118791070Y-71675884D01*
X119339742Y-72053256D01*
X119365781Y-72093383D01*
X119361995Y-72128841D01*
X112956738Y-87462641D01*
X112951810Y-87472084D01*
X112942294Y-87487049D01*
X112929803Y-87526785D01*
X112928827Y-87529458D01*
X112924375Y-87540116D01*
X112918856Y-87561468D01*
X112918412Y-87563018D01*
X112902774Y-87612767D01*
X112902495Y-87619291D01*
X112900565Y-87632249D01*
X112897414Y-87644443D01*
X112897413Y-87644444D01*
X112899109Y-87696303D01*
X112899097Y-87698660D01*
X112897139Y-87744429D01*
X112900028Y-87757406D01*
X112901486Y-87768928D01*
X112902098Y-87787592D01*
X112902121Y-87788291D01*
X112902122Y-87788293D01*
X112916373Y-87831547D01*
X112917197Y-87834537D01*
X112925773Y-87873064D01*
X112925774Y-87873065D01*
X112935046Y-87890839D01*
X112938989Y-87900178D01*
X112947163Y-87924984D01*
X112947165Y-87924987D01*
X112947166Y-87924989D01*
X112969419Y-87957245D01*
X112971406Y-87960541D01*
X112986726Y-87989909D01*
X113006299Y-88011233D01*
X113009002Y-88014621D01*
X113028891Y-88043449D01*
X113028892Y-88043450D01*
X113028893Y-88043451D01*
X113048303Y-88059188D01*
X113055909Y-88066502D01*
X113548238Y-88627302D01*
X114038607Y-89238471D01*
X114501429Y-89870757D01*
X114935794Y-90522920D01*
X115340851Y-91193679D01*
X115715805Y-91881719D01*
X116059920Y-92585691D01*
X116317210Y-93177078D01*
X116372520Y-93304210D01*
X116652992Y-94035869D01*
X116900786Y-94779231D01*
X117115416Y-95532839D01*
X117296461Y-96295212D01*
X117443564Y-97064854D01*
X117556438Y-97840257D01*
X117634861Y-98619898D01*
X117678679Y-99402246D01*
X117687513Y-100160574D01*
X117687807Y-100185767D01*
X117662225Y-100968925D01*
X117601985Y-101750181D01*
X117507205Y-102528003D01*
X117378175Y-103300232D01*
X117364765Y-103368743D01*
X117369185Y-103416479D01*
X117370978Y-103435848D01*
X117375519Y-103497019D01*
X117375519Y-103497021D01*
X117375520Y-103497025D01*
X117376353Y-103501032D01*
X117376031Y-103501098D01*
X117377752Y-103509010D01*
X117378033Y-103512053D01*
X117400705Y-103569161D01*
X117418956Y-103621439D01*
X117421082Y-103624561D01*
X117427504Y-103636663D01*
X117431139Y-103645819D01*
X117431144Y-103645827D01*
X117464663Y-103688702D01*
X117465876Y-103690363D01*
X117493114Y-103730375D01*
X117493116Y-103730377D01*
X117501111Y-103737267D01*
X117509549Y-103746118D01*
X117519781Y-103759207D01*
X117536634Y-103771281D01*
X117558898Y-103787232D01*
X117561086Y-103788954D01*
X117592941Y-103816407D01*
X117592942Y-103816407D01*
X117592944Y-103816409D01*
X117608536Y-103823931D01*
X117617769Y-103829410D01*
X117636776Y-103843028D01*
X117636777Y-103843028D01*
X117636778Y-103843029D01*
X117658477Y-103850608D01*
X117676214Y-103856804D01*
X117679482Y-103858158D01*
X117711637Y-103873672D01*
X117775053Y-103885717D01*
X124781081Y-105256935D01*
X124782847Y-105257412D01*
X124784091Y-105257653D01*
X124784093Y-105257654D01*
X124854171Y-105271240D01*
X124888999Y-105278057D01*
X124889002Y-105278057D01*
X124889165Y-105278089D01*
X124890933Y-105278367D01*
X124925384Y-105285047D01*
X124956438Y-105282115D01*
X124965453Y-105281919D01*
X124993889Y-105283356D01*
X124996615Y-105283494D01*
X124996615Y-105283493D01*
X124996616Y-105283494D01*
X125030078Y-105275477D01*
X125034411Y-105274757D01*
X125068669Y-105271525D01*
X125097649Y-105259959D01*
X125106231Y-105257234D01*
X125136578Y-105249965D01*
X125166422Y-105232848D01*
X125170383Y-105230934D01*
X125202340Y-105218182D01*
X125203249Y-105217468D01*
X125203888Y-105217289D01*
X125206209Y-105215953D01*
X125206550Y-105216545D01*
X125249315Y-105204584D01*
X125274308Y-105213234D01*
X125330929Y-105247666D01*
X125419580Y-105272504D01*
X125470027Y-105286639D01*
X125470027Y-105286640D01*
X125470030Y-105286640D01*
X125578206Y-105286640D01*
X125578207Y-105286640D01*
X125685369Y-105271911D01*
X125799596Y-105222294D01*
X125847423Y-105221479D01*
X125870172Y-105236961D01*
X125943724Y-105315716D01*
X126067149Y-105390772D01*
X126155800Y-105415610D01*
X126206247Y-105429745D01*
X126206247Y-105429746D01*
X126206250Y-105429746D01*
X126314426Y-105429746D01*
X126314427Y-105429746D01*
X126421589Y-105415017D01*
X126554087Y-105357465D01*
X126554097Y-105357456D01*
X126556157Y-105356205D01*
X126557445Y-105356005D01*
X126558008Y-105355761D01*
X126558072Y-105355908D01*
X126603429Y-105348883D01*
X126634309Y-105366947D01*
X126729024Y-105468362D01*
X126729025Y-105468363D01*
X126852451Y-105543420D01*
X126941102Y-105568258D01*
X126991549Y-105582393D01*
X126991549Y-105582394D01*
X126991552Y-105582394D01*
X127099728Y-105582394D01*
X127099729Y-105582394D01*
X127206891Y-105567665D01*
X127321118Y-105518048D01*
X127368945Y-105517233D01*
X127391694Y-105532715D01*
X127465246Y-105611470D01*
X127588671Y-105686526D01*
X127677322Y-105711364D01*
X127727769Y-105725499D01*
X127727769Y-105725500D01*
X127727772Y-105725500D01*
X127835948Y-105725500D01*
X127835949Y-105725500D01*
X127943111Y-105710771D01*
X128057338Y-105661154D01*
X128105165Y-105660339D01*
X128127914Y-105675821D01*
X128201467Y-105754577D01*
X128324892Y-105829633D01*
X128413543Y-105854471D01*
X128463990Y-105868606D01*
X128463990Y-105868607D01*
X128463993Y-105868607D01*
X128572169Y-105868607D01*
X128572170Y-105868607D01*
X128679332Y-105853878D01*
X128793559Y-105804261D01*
X128841385Y-105803445D01*
X128864134Y-105818928D01*
X128937687Y-105897684D01*
X129061112Y-105972740D01*
X129149763Y-105997578D01*
X129200210Y-106011713D01*
X129200210Y-106011714D01*
X129200213Y-106011714D01*
X129308389Y-106011714D01*
X129308390Y-106011714D01*
X129387073Y-106000899D01*
X129433349Y-106013016D01*
X129450078Y-106032213D01*
X129458837Y-106047810D01*
X129485369Y-106073720D01*
X129488096Y-106076756D01*
X129511007Y-106105899D01*
X129511009Y-106105901D01*
X129534108Y-106122355D01*
X129541512Y-106128544D01*
X129561807Y-106148362D01*
X129594546Y-106165737D01*
X129598032Y-106167891D01*
X129628228Y-106189401D01*
X129628229Y-106189401D01*
X129628230Y-106189402D01*
X129646349Y-106195676D01*
X129655033Y-106198683D01*
X129663883Y-106202535D01*
X129688934Y-106215831D01*
X129688936Y-106215831D01*
X129688938Y-106215832D01*
X129696267Y-106217335D01*
X129725258Y-106223281D01*
X129729193Y-106224362D01*
X129730053Y-106224660D01*
X129762301Y-106230880D01*
X129829914Y-106244750D01*
X129829916Y-106244750D01*
X129829921Y-106244751D01*
X129829925Y-106244750D01*
X129834062Y-106244996D01*
X129838133Y-106245508D01*
X130250149Y-106324983D01*
X133143596Y-106883109D01*
X133183522Y-106909454D01*
X133193126Y-106956316D01*
X133192930Y-106957290D01*
X133079405Y-107499316D01*
X132814405Y-108585015D01*
X132513795Y-109661398D01*
X132177900Y-110727297D01*
X131807085Y-111781556D01*
X131401752Y-112823031D01*
X130962340Y-113850594D01*
X130489327Y-114863128D01*
X129983225Y-115859535D01*
X129514117Y-116712330D01*
X129476777Y-116742230D01*
X129429232Y-116736969D01*
X129399332Y-116699629D01*
X129397157Y-116688340D01*
X129380106Y-116515211D01*
X129324211Y-116330952D01*
X129233443Y-116161137D01*
X129111290Y-116012294D01*
X128962447Y-115890141D01*
X128962441Y-115890137D01*
X128855444Y-115832947D01*
X128792632Y-115799373D01*
X128674860Y-115763646D01*
X128608371Y-115743477D01*
X128416749Y-115724605D01*
X128225126Y-115743477D01*
X128107353Y-115779204D01*
X128040866Y-115799373D01*
X128040864Y-115799373D01*
X128040864Y-115799374D01*
X127871056Y-115890137D01*
X127871050Y-115890141D01*
X127722208Y-116012294D01*
X127600055Y-116161136D01*
X127600051Y-116161142D01*
X127509288Y-116330950D01*
X127453391Y-116515212D01*
X127434519Y-116706834D01*
X127434519Y-116706835D01*
X127453391Y-116898457D01*
X127462882Y-116929744D01*
X127509287Y-117082718D01*
X127517543Y-117098164D01*
X127600051Y-117252527D01*
X127600055Y-117252533D01*
X127722208Y-117401376D01*
X127871051Y-117523529D01*
X127871053Y-117523530D01*
X127871056Y-117523532D01*
X127893718Y-117535645D01*
X128040866Y-117614297D01*
X128225125Y-117670192D01*
X128416749Y-117689065D01*
X128608373Y-117670192D01*
X128792632Y-117614297D01*
X128875472Y-117570017D01*
X128923074Y-117565329D01*
X128960052Y-117595675D01*
X128964741Y-117643280D01*
X128958672Y-117657048D01*
X128873988Y-117799664D01*
X128272055Y-118741283D01*
X128004919Y-119130315D01*
X127964811Y-119156385D01*
X127918017Y-119146459D01*
X127891947Y-119106351D01*
X127893586Y-119076798D01*
X127923222Y-118979105D01*
X127942095Y-118787481D01*
X127940580Y-118772103D01*
X127931541Y-118680321D01*
X127923222Y-118595857D01*
X127867327Y-118411598D01*
X127776559Y-118241783D01*
X127654406Y-118092940D01*
X127505563Y-117970787D01*
X127505557Y-117970783D01*
X127398560Y-117913593D01*
X127335748Y-117880019D01*
X127189808Y-117835748D01*
X127151487Y-117824123D01*
X126959865Y-117805251D01*
X126768242Y-117824123D01*
X126650469Y-117859850D01*
X126583982Y-117880019D01*
X126583980Y-117880019D01*
X126583980Y-117880020D01*
X126414172Y-117970783D01*
X126414166Y-117970787D01*
X126265324Y-118092940D01*
X126143171Y-118241782D01*
X126143167Y-118241788D01*
X126052404Y-118411596D01*
X126052403Y-118411598D01*
X126048245Y-118425305D01*
X125996507Y-118595858D01*
X125977635Y-118787480D01*
X125977635Y-118787481D01*
X125996507Y-118979103D01*
X125996508Y-118979105D01*
X126052403Y-119163364D01*
X126052404Y-119163365D01*
X126143167Y-119333173D01*
X126143171Y-119333179D01*
X126265324Y-119482022D01*
X126414167Y-119604175D01*
X126414169Y-119604176D01*
X126414172Y-119604178D01*
X126458356Y-119627794D01*
X126583982Y-119694943D01*
X126768241Y-119750838D01*
X126959865Y-119769711D01*
X127151489Y-119750838D01*
X127335748Y-119694943D01*
X127505563Y-119604175D01*
X127563600Y-119556544D01*
X127609374Y-119542658D01*
X127651561Y-119565207D01*
X127665448Y-119610982D01*
X127654773Y-119640234D01*
X127641880Y-119659012D01*
X127639440Y-119662566D01*
X127625468Y-119681543D01*
X127158226Y-120316142D01*
X127117281Y-120340876D01*
X127070839Y-120329415D01*
X127060919Y-120319172D01*
X127060478Y-120319566D01*
X127057871Y-120316641D01*
X127012771Y-120277248D01*
X127012767Y-120277245D01*
X126482097Y-119905665D01*
X125958949Y-120652798D01*
X125884742Y-120537329D01*
X125776081Y-120443175D01*
X125645296Y-120383447D01*
X125547052Y-120369321D01*
X126072520Y-119618876D01*
X125541859Y-119247304D01*
X125541843Y-119247294D01*
X125489400Y-119218388D01*
X125350230Y-119182278D01*
X125206527Y-119186840D01*
X125069924Y-119231703D01*
X124951501Y-119313231D01*
X124951495Y-119313236D01*
X124912102Y-119358336D01*
X124912099Y-119358340D01*
X124540519Y-119889009D01*
X125291657Y-120414962D01*
X125229881Y-120443175D01*
X125121220Y-120537329D01*
X125043488Y-120658283D01*
X125002981Y-120796238D01*
X125002981Y-120823217D01*
X124253730Y-120298586D01*
X123882158Y-120829248D01*
X123882148Y-120829264D01*
X123853242Y-120881707D01*
X123817132Y-121020876D01*
X123821694Y-121164580D01*
X123866557Y-121301183D01*
X123948085Y-121419606D01*
X123948090Y-121419612D01*
X123993190Y-121459005D01*
X123993194Y-121459008D01*
X124523863Y-121830587D01*
X125047011Y-121083453D01*
X125121220Y-121198925D01*
X125229881Y-121293079D01*
X125360666Y-121352807D01*
X125458907Y-121366932D01*
X124933440Y-122117375D01*
X125360356Y-122416306D01*
X125386057Y-122456650D01*
X125375704Y-122503352D01*
X125370935Y-122509344D01*
X124816354Y-123124729D01*
X124041256Y-123929831D01*
X123240064Y-124708970D01*
X122415361Y-125459742D01*
X122365466Y-125502150D01*
X122326870Y-125560966D01*
X122291208Y-125614581D01*
X122290648Y-125615723D01*
X122288724Y-125619096D01*
X122286506Y-125622476D01*
X122267761Y-125684134D01*
X122261536Y-125702597D01*
X122230070Y-125738627D01*
X122210822Y-125744548D01*
X122101935Y-125759514D01*
X122023851Y-125793431D01*
X121969437Y-125817067D01*
X121969435Y-125817068D01*
X121969434Y-125817069D01*
X121857382Y-125908231D01*
X121857379Y-125908234D01*
X121774074Y-126026249D01*
X121726616Y-126159787D01*
X121694568Y-126195299D01*
X121667725Y-126201357D01*
X121614076Y-126201357D01*
X121506921Y-126216085D01*
X121447558Y-126241870D01*
X121374422Y-126273638D01*
X121374420Y-126273639D01*
X121374419Y-126273640D01*
X121262367Y-126364802D01*
X121262364Y-126364805D01*
X121179059Y-126482820D01*
X121131601Y-126616358D01*
X121099553Y-126651870D01*
X121072710Y-126657928D01*
X121019061Y-126657928D01*
X120911906Y-126672656D01*
X120852543Y-126698441D01*
X120779407Y-126730209D01*
X120779405Y-126730210D01*
X120779404Y-126730211D01*
X120667352Y-126821373D01*
X120667349Y-126821376D01*
X120584044Y-126939391D01*
X120536585Y-127072930D01*
X120504537Y-127108442D01*
X120477694Y-127114500D01*
X120424045Y-127114500D01*
X120316890Y-127129228D01*
X120257527Y-127155013D01*
X120184391Y-127186781D01*
X120184389Y-127186782D01*
X120184388Y-127186783D01*
X120072336Y-127277945D01*
X120072333Y-127277948D01*
X119989028Y-127395963D01*
X119940653Y-127532079D01*
X119940653Y-127532081D01*
X119939887Y-127543276D01*
X119918607Y-127586117D01*
X119877533Y-127601509D01*
X119789363Y-127601509D01*
X119682208Y-127616237D01*
X119622845Y-127642022D01*
X119549709Y-127673790D01*
X119549707Y-127673791D01*
X119549706Y-127673792D01*
X119437654Y-127764954D01*
X119437651Y-127764957D01*
X119354346Y-127882972D01*
X119306888Y-128016510D01*
X119274840Y-128052022D01*
X119247997Y-128058080D01*
X119194348Y-128058080D01*
X119087193Y-128072808D01*
X119027830Y-128098593D01*
X118954694Y-128130361D01*
X118954692Y-128130362D01*
X118954691Y-128130363D01*
X118842639Y-128221525D01*
X118842636Y-128221528D01*
X118759331Y-128339542D01*
X118752953Y-128357490D01*
X118720904Y-128393002D01*
X118698279Y-128398917D01*
X118670643Y-128400785D01*
X118614965Y-128403625D01*
X118608979Y-128403931D01*
X118608976Y-128403931D01*
X118604951Y-128404672D01*
X118604880Y-128404286D01*
X118597294Y-128405745D01*
X118594716Y-128405920D01*
X118536662Y-128427316D01*
X118483587Y-128444479D01*
X118480813Y-128446275D01*
X118468471Y-128452448D01*
X118459674Y-128455690D01*
X118459672Y-128455691D01*
X118418459Y-128486293D01*
X118416374Y-128487714D01*
X117472397Y-129076846D01*
X116497239Y-129641338D01*
X115503875Y-130173140D01*
X114493402Y-130671667D01*
X114358172Y-130732887D01*
X114310362Y-130734437D01*
X114275708Y-130702269D01*
X114274672Y-130700039D01*
X114274672Y-130700036D01*
X109968096Y-121424335D01*
X115749500Y-121424335D01*
X115790429Y-121669614D01*
X115871172Y-121904810D01*
X115930449Y-122014344D01*
X115989525Y-122123508D01*
X115989526Y-122123510D01*
X116135973Y-122311664D01*
X116142262Y-122319744D01*
X116156201Y-122332576D01*
X116325211Y-122488161D01*
X116325213Y-122488162D01*
X116325215Y-122488164D01*
X116533393Y-122624173D01*
X116761119Y-122724063D01*
X117002179Y-122785108D01*
X117187933Y-122800500D01*
X117187935Y-122800500D01*
X117312065Y-122800500D01*
X117312067Y-122800500D01*
X117497821Y-122785108D01*
X117738881Y-122724063D01*
X117966607Y-122624173D01*
X118174785Y-122488164D01*
X118357738Y-122319744D01*
X118510474Y-122123509D01*
X118628828Y-121904810D01*
X118709571Y-121669614D01*
X118750500Y-121424335D01*
X118750500Y-121175665D01*
X118709571Y-120930386D01*
X118628828Y-120695190D01*
X118510474Y-120476491D01*
X118510473Y-120476489D01*
X118357742Y-120280261D01*
X118357739Y-120280257D01*
X118174788Y-120111838D01*
X118174783Y-120111835D01*
X117966612Y-119975830D01*
X117966609Y-119975828D01*
X117960616Y-119973199D01*
X117738881Y-119875937D01*
X117497821Y-119814892D01*
X117312067Y-119799500D01*
X117187933Y-119799500D01*
X117002179Y-119814892D01*
X116761119Y-119875937D01*
X116761117Y-119875937D01*
X116761116Y-119875938D01*
X116533390Y-119975828D01*
X116533387Y-119975830D01*
X116325216Y-120111835D01*
X116325211Y-120111838D01*
X116142260Y-120280257D01*
X116142257Y-120280261D01*
X115989526Y-120476489D01*
X115989525Y-120476491D01*
X115908396Y-120626404D01*
X115902468Y-120637361D01*
X115871173Y-120695189D01*
X115871172Y-120695190D01*
X115800861Y-120900000D01*
X115790429Y-120930386D01*
X115749500Y-121175665D01*
X115749500Y-121424335D01*
X109968096Y-121424335D01*
X109898967Y-121275441D01*
X109896961Y-121227650D01*
X109911462Y-121204930D01*
X109941033Y-121175359D01*
X109978050Y-121138342D01*
X110035646Y-121025304D01*
X110055492Y-120900000D01*
X110035646Y-120774696D01*
X109978050Y-120661658D01*
X109888342Y-120571950D01*
X109775304Y-120514354D01*
X109650000Y-120494508D01*
X109649999Y-120494508D01*
X109590769Y-120503888D01*
X109544255Y-120492720D01*
X109524305Y-120468476D01*
X109523414Y-120466556D01*
X108694089Y-118680318D01*
X108692083Y-118632528D01*
X108706584Y-118609808D01*
X108720535Y-118595857D01*
X108778050Y-118538342D01*
X108835646Y-118425304D01*
X108855492Y-118300000D01*
X108835646Y-118174696D01*
X108778050Y-118061658D01*
X108688342Y-117971950D01*
X108575304Y-117914354D01*
X108450000Y-117894508D01*
X108449999Y-117894508D01*
X108384116Y-117904942D01*
X108337603Y-117893774D01*
X108317652Y-117869531D01*
X108301639Y-117835041D01*
X108147132Y-117502257D01*
X108145064Y-117498073D01*
X108111099Y-117454992D01*
X108074348Y-117424372D01*
X108074344Y-117424369D01*
X108074340Y-117424366D01*
X108050777Y-117408672D01*
X108050774Y-117408671D01*
X107977527Y-117394213D01*
X107929897Y-117398547D01*
X107929890Y-117398548D01*
X107880306Y-117413187D01*
X107880304Y-117413188D01*
X103980977Y-119460337D01*
X103951925Y-119467500D01*
X98824006Y-119467500D01*
X98808848Y-119465634D01*
X93652906Y-118176648D01*
X93640113Y-118171916D01*
X90569880Y-116636800D01*
X102261308Y-116636800D01*
X102281154Y-116762104D01*
X102281154Y-116762105D01*
X102338750Y-116875142D01*
X102428458Y-116964850D01*
X102541496Y-117022446D01*
X102666800Y-117042292D01*
X102792104Y-117022446D01*
X102870571Y-116982464D01*
X102918256Y-116978712D01*
X102954631Y-117009778D01*
X102960674Y-117047930D01*
X102944508Y-117149999D01*
X102964354Y-117275304D01*
X102964354Y-117275305D01*
X102994292Y-117334061D01*
X103021950Y-117388342D01*
X103111658Y-117478050D01*
X103224696Y-117535646D01*
X103350000Y-117555492D01*
X103475304Y-117535646D01*
X103588342Y-117478050D01*
X103678050Y-117388342D01*
X103735646Y-117275304D01*
X103755492Y-117150000D01*
X103735646Y-117024696D01*
X103678050Y-116911658D01*
X103588342Y-116821950D01*
X103475304Y-116764354D01*
X103350000Y-116744508D01*
X103224695Y-116764354D01*
X103224691Y-116764355D01*
X103146230Y-116804334D01*
X103098542Y-116808087D01*
X103062168Y-116777020D01*
X103056126Y-116738869D01*
X103072292Y-116636803D01*
X103072292Y-116636802D01*
X103072292Y-116636800D01*
X103052446Y-116511496D01*
X102994850Y-116398458D01*
X102905142Y-116308750D01*
X102792104Y-116251154D01*
X102666800Y-116231308D01*
X102541495Y-116251154D01*
X102541494Y-116251154D01*
X102428457Y-116308750D01*
X102338750Y-116398457D01*
X102281154Y-116511494D01*
X102281154Y-116511495D01*
X102261308Y-116636800D01*
X90569880Y-116636800D01*
X89364950Y-116034335D01*
X114409500Y-116034335D01*
X114450429Y-116279614D01*
X114531172Y-116514810D01*
X114612301Y-116664723D01*
X114649525Y-116733508D01*
X114649526Y-116733510D01*
X114802257Y-116929738D01*
X114802260Y-116929742D01*
X114985211Y-117098161D01*
X114985213Y-117098162D01*
X114985215Y-117098164D01*
X115193393Y-117234173D01*
X115421119Y-117334063D01*
X115662179Y-117395108D01*
X115847933Y-117410500D01*
X115847935Y-117410500D01*
X115972065Y-117410500D01*
X115972067Y-117410500D01*
X116157821Y-117395108D01*
X116398881Y-117334063D01*
X116626607Y-117234173D01*
X116834785Y-117098164D01*
X117017738Y-116929744D01*
X117170474Y-116733509D01*
X117288828Y-116514810D01*
X117369571Y-116279614D01*
X117410500Y-116034335D01*
X117410500Y-115785665D01*
X117369571Y-115540386D01*
X117288828Y-115305190D01*
X117170474Y-115086491D01*
X117170473Y-115086489D01*
X117017742Y-114890261D01*
X117017739Y-114890257D01*
X116834788Y-114721838D01*
X116834783Y-114721835D01*
X116626612Y-114585830D01*
X116626609Y-114585828D01*
X116464288Y-114514627D01*
X116398881Y-114485937D01*
X116157821Y-114424892D01*
X115972067Y-114409500D01*
X115847933Y-114409500D01*
X115662179Y-114424892D01*
X115421119Y-114485937D01*
X115421117Y-114485937D01*
X115421116Y-114485938D01*
X115193390Y-114585828D01*
X115193387Y-114585830D01*
X114985216Y-114721835D01*
X114985211Y-114721838D01*
X114802260Y-114890257D01*
X114802257Y-114890261D01*
X114649526Y-115086489D01*
X114649525Y-115086491D01*
X114531173Y-115305189D01*
X114531172Y-115305190D01*
X114450429Y-115540385D01*
X114443163Y-115583931D01*
X114409500Y-115785665D01*
X114409500Y-116034335D01*
X89364950Y-116034335D01*
X88487558Y-115595639D01*
X88471315Y-115583931D01*
X88462387Y-115575003D01*
X95993106Y-115575003D01*
X96010572Y-115685282D01*
X96010574Y-115685287D01*
X96040224Y-115743478D01*
X96061267Y-115784777D01*
X96140223Y-115863733D01*
X96239714Y-115914426D01*
X96239717Y-115914427D01*
X96349997Y-115931894D01*
X96350000Y-115931894D01*
X96350003Y-115931894D01*
X96460282Y-115914427D01*
X96460283Y-115914426D01*
X96460286Y-115914426D01*
X96559777Y-115863733D01*
X96638733Y-115784777D01*
X96689426Y-115685286D01*
X96703625Y-115595639D01*
X96706894Y-115575003D01*
X96706894Y-115574996D01*
X96689427Y-115464717D01*
X96689425Y-115464712D01*
X96638733Y-115365223D01*
X96559776Y-115286266D01*
X96460287Y-115235574D01*
X96460282Y-115235572D01*
X96350003Y-115218106D01*
X96349997Y-115218106D01*
X96239717Y-115235572D01*
X96239712Y-115235574D01*
X96140223Y-115286266D01*
X96061266Y-115365223D01*
X96010574Y-115464712D01*
X96010572Y-115464717D01*
X95993106Y-115574996D01*
X95993106Y-115575003D01*
X88462387Y-115575003D01*
X86392770Y-113505386D01*
X98477790Y-113505386D01*
X98497636Y-113630690D01*
X98497636Y-113630691D01*
X98522999Y-113680468D01*
X98555232Y-113743728D01*
X98644940Y-113833436D01*
X98757978Y-113891032D01*
X98883282Y-113910878D01*
X99008586Y-113891032D01*
X99121624Y-113833436D01*
X99164301Y-113790759D01*
X126838977Y-113790759D01*
X126856443Y-113901038D01*
X126856445Y-113901043D01*
X126907137Y-114000532D01*
X126907138Y-114000533D01*
X126986094Y-114079489D01*
X127085585Y-114130182D01*
X127085588Y-114130183D01*
X127195868Y-114147650D01*
X127195871Y-114147650D01*
X127195874Y-114147650D01*
X127306153Y-114130183D01*
X127306154Y-114130182D01*
X127306157Y-114130182D01*
X127405648Y-114079489D01*
X127484604Y-114000533D01*
X127535297Y-113901042D01*
X127535298Y-113901038D01*
X127552765Y-113790759D01*
X127552765Y-113790752D01*
X127535298Y-113680473D01*
X127535296Y-113680468D01*
X127484604Y-113580979D01*
X127405647Y-113502022D01*
X127306158Y-113451330D01*
X127306153Y-113451328D01*
X127195874Y-113433862D01*
X127195868Y-113433862D01*
X127085588Y-113451328D01*
X127085583Y-113451330D01*
X126986094Y-113502022D01*
X126907137Y-113580979D01*
X126856445Y-113680468D01*
X126856443Y-113680473D01*
X126838977Y-113790752D01*
X126838977Y-113790759D01*
X99164301Y-113790759D01*
X99211332Y-113743728D01*
X99268928Y-113630690D01*
X99288774Y-113505386D01*
X99268928Y-113380082D01*
X99211332Y-113267044D01*
X99121624Y-113177336D01*
X99008586Y-113119740D01*
X98883282Y-113099894D01*
X98757977Y-113119740D01*
X98757976Y-113119740D01*
X98644939Y-113177336D01*
X98555232Y-113267043D01*
X98497636Y-113380080D01*
X98497636Y-113380081D01*
X98477790Y-113505386D01*
X86392770Y-113505386D01*
X85792083Y-112904699D01*
X103731083Y-112904699D01*
X103750929Y-113030003D01*
X103750929Y-113030004D01*
X103786540Y-113099894D01*
X103808525Y-113143041D01*
X103898233Y-113232749D01*
X104011271Y-113290345D01*
X104136575Y-113310191D01*
X104261879Y-113290345D01*
X104374917Y-113232749D01*
X104464625Y-113143041D01*
X104522221Y-113030003D01*
X104542067Y-112904699D01*
X104522221Y-112779395D01*
X104464625Y-112666357D01*
X104374917Y-112576649D01*
X104261879Y-112519053D01*
X104136575Y-112499207D01*
X104011270Y-112519053D01*
X104011269Y-112519053D01*
X103898232Y-112576649D01*
X103808525Y-112666356D01*
X103750929Y-112779393D01*
X103750929Y-112779394D01*
X103731083Y-112904699D01*
X85792083Y-112904699D01*
X84937384Y-112050000D01*
X93394508Y-112050000D01*
X93414354Y-112175304D01*
X93414354Y-112175305D01*
X93434433Y-112214712D01*
X93471950Y-112288342D01*
X93561658Y-112378050D01*
X93674696Y-112435646D01*
X93800000Y-112455492D01*
X93925304Y-112435646D01*
X94038342Y-112378050D01*
X94091389Y-112325003D01*
X102309906Y-112325003D01*
X102327372Y-112435282D01*
X102327374Y-112435287D01*
X102337669Y-112455492D01*
X102378067Y-112534777D01*
X102457023Y-112613733D01*
X102556514Y-112664426D01*
X102556517Y-112664427D01*
X102666797Y-112681894D01*
X102666800Y-112681894D01*
X102666803Y-112681894D01*
X102777082Y-112664427D01*
X102777083Y-112664426D01*
X102777086Y-112664426D01*
X102876577Y-112613733D01*
X102955533Y-112534777D01*
X103006226Y-112435286D01*
X103006227Y-112435282D01*
X103023694Y-112325003D01*
X103023694Y-112324996D01*
X103006227Y-112214717D01*
X103006225Y-112214712D01*
X102955533Y-112115223D01*
X102876576Y-112036266D01*
X102777087Y-111985574D01*
X102777082Y-111985572D01*
X102666803Y-111968106D01*
X102666797Y-111968106D01*
X102556517Y-111985572D01*
X102556512Y-111985574D01*
X102457023Y-112036266D01*
X102378066Y-112115223D01*
X102327374Y-112214712D01*
X102327372Y-112214717D01*
X102309906Y-112324996D01*
X102309906Y-112325003D01*
X94091389Y-112325003D01*
X94128050Y-112288342D01*
X94185646Y-112175304D01*
X94205492Y-112050000D01*
X94185646Y-111924696D01*
X94128050Y-111811658D01*
X94038342Y-111721950D01*
X93925304Y-111664354D01*
X93800000Y-111644508D01*
X93674695Y-111664354D01*
X93674694Y-111664354D01*
X93561657Y-111721950D01*
X93471950Y-111811657D01*
X93414354Y-111924694D01*
X93414354Y-111924695D01*
X93394508Y-112050000D01*
X84937384Y-112050000D01*
X84370587Y-111483203D01*
X102993106Y-111483203D01*
X103010572Y-111593482D01*
X103010574Y-111593487D01*
X103061266Y-111692976D01*
X103061267Y-111692977D01*
X103140223Y-111771933D01*
X103239714Y-111822626D01*
X103239717Y-111822627D01*
X103349997Y-111840094D01*
X103350000Y-111840094D01*
X103350003Y-111840094D01*
X103460282Y-111822627D01*
X103460283Y-111822626D01*
X103460286Y-111822626D01*
X103559777Y-111771933D01*
X103638733Y-111692977D01*
X103689426Y-111593486D01*
X103689427Y-111593482D01*
X103706894Y-111483203D01*
X103706894Y-111483196D01*
X103689427Y-111372917D01*
X103689425Y-111372912D01*
X103638733Y-111273423D01*
X103559776Y-111194466D01*
X103460287Y-111143774D01*
X103460282Y-111143772D01*
X103350003Y-111126306D01*
X103349997Y-111126306D01*
X103239717Y-111143772D01*
X103239712Y-111143774D01*
X103140223Y-111194466D01*
X103061266Y-111273423D01*
X103010574Y-111372912D01*
X103010572Y-111372917D01*
X102993106Y-111483196D01*
X102993106Y-111483203D01*
X84370587Y-111483203D01*
X83706217Y-110818833D01*
X119695701Y-110818833D01*
X119715533Y-111045519D01*
X119715536Y-111045535D01*
X119774428Y-111265323D01*
X119774429Y-111265325D01*
X119870600Y-111471564D01*
X120001122Y-111657971D01*
X120162028Y-111818877D01*
X120179312Y-111830979D01*
X120348435Y-111949399D01*
X120348434Y-111949399D01*
X120426012Y-111985574D01*
X120554673Y-112045570D01*
X120554675Y-112045570D01*
X120554676Y-112045571D01*
X120774464Y-112104463D01*
X120774470Y-112104464D01*
X120774477Y-112104466D01*
X120944385Y-112119331D01*
X121057953Y-112119331D01*
X121227861Y-112104466D01*
X121227870Y-112104463D01*
X121227873Y-112104463D01*
X121447661Y-112045571D01*
X121447660Y-112045571D01*
X121447665Y-112045570D01*
X121457982Y-112040759D01*
X128363977Y-112040759D01*
X128381443Y-112151038D01*
X128381445Y-112151043D01*
X128432137Y-112250532D01*
X128432138Y-112250533D01*
X128511094Y-112329489D01*
X128610585Y-112380182D01*
X128610588Y-112380183D01*
X128720868Y-112397650D01*
X128720871Y-112397650D01*
X128720874Y-112397650D01*
X128831153Y-112380183D01*
X128831154Y-112380182D01*
X128831157Y-112380182D01*
X128930648Y-112329489D01*
X129009604Y-112250533D01*
X129060297Y-112151042D01*
X129065320Y-112119331D01*
X129077765Y-112040759D01*
X129077765Y-112040752D01*
X129060298Y-111930473D01*
X129060296Y-111930468D01*
X129009604Y-111830979D01*
X128930647Y-111752022D01*
X128831158Y-111701330D01*
X128831153Y-111701328D01*
X128720874Y-111683862D01*
X128720868Y-111683862D01*
X128610588Y-111701328D01*
X128610583Y-111701330D01*
X128511094Y-111752022D01*
X128432137Y-111830979D01*
X128381445Y-111930468D01*
X128381443Y-111930473D01*
X128363977Y-112040752D01*
X128363977Y-112040759D01*
X121457982Y-112040759D01*
X121653903Y-111949399D01*
X121840308Y-111818878D01*
X122001216Y-111657970D01*
X122131737Y-111471565D01*
X122227908Y-111265327D01*
X122272206Y-111100003D01*
X123743106Y-111100003D01*
X123760572Y-111210282D01*
X123760574Y-111210287D01*
X123811266Y-111309776D01*
X123811267Y-111309777D01*
X123890223Y-111388733D01*
X123989714Y-111439426D01*
X123989717Y-111439427D01*
X124099997Y-111456894D01*
X124100000Y-111456894D01*
X124100003Y-111456894D01*
X124210282Y-111439427D01*
X124210283Y-111439426D01*
X124210286Y-111439426D01*
X124309777Y-111388733D01*
X124388733Y-111309777D01*
X124433423Y-111222066D01*
X124469797Y-111191000D01*
X124517485Y-111194753D01*
X124548552Y-111231127D01*
X124550842Y-111240664D01*
X124556445Y-111276043D01*
X124605805Y-111372917D01*
X124607138Y-111375533D01*
X124686094Y-111454489D01*
X124785585Y-111505182D01*
X124785588Y-111505183D01*
X124895868Y-111522650D01*
X124895871Y-111522650D01*
X124895874Y-111522650D01*
X125006153Y-111505183D01*
X125006154Y-111505182D01*
X125006157Y-111505182D01*
X125105648Y-111454489D01*
X125184604Y-111375533D01*
X125235297Y-111276042D01*
X125235712Y-111273423D01*
X125252765Y-111165759D01*
X125252765Y-111165752D01*
X125235298Y-111055473D01*
X125235296Y-111055468D01*
X125184604Y-110955979D01*
X125105647Y-110877022D01*
X125006158Y-110826330D01*
X125006153Y-110826328D01*
X124895874Y-110808862D01*
X124895868Y-110808862D01*
X124785588Y-110826328D01*
X124785583Y-110826330D01*
X124686094Y-110877022D01*
X124607138Y-110955978D01*
X124562447Y-111043689D01*
X124526072Y-111074755D01*
X124478384Y-111071002D01*
X124447318Y-111034627D01*
X124445031Y-111025103D01*
X124439426Y-110989714D01*
X124388733Y-110890223D01*
X124309777Y-110811267D01*
X124309776Y-110811266D01*
X124210287Y-110760574D01*
X124210282Y-110760572D01*
X124100003Y-110743106D01*
X124099997Y-110743106D01*
X123989717Y-110760572D01*
X123989712Y-110760574D01*
X123890223Y-110811266D01*
X123811266Y-110890223D01*
X123760574Y-110989712D01*
X123760572Y-110989717D01*
X123743106Y-111099996D01*
X123743106Y-111100003D01*
X122272206Y-111100003D01*
X122272208Y-111099996D01*
X122286801Y-111045535D01*
X122286801Y-111045532D01*
X122286804Y-111045523D01*
X122306637Y-110818831D01*
X122286804Y-110592139D01*
X122282943Y-110577730D01*
X122227909Y-110372338D01*
X122227908Y-110372336D01*
X122131737Y-110166097D01*
X122001215Y-109979690D01*
X121840309Y-109818784D01*
X121721716Y-109735746D01*
X121653903Y-109688263D01*
X121653901Y-109688262D01*
X121653903Y-109688262D01*
X121447663Y-109592091D01*
X121447661Y-109592090D01*
X121227873Y-109533198D01*
X121227857Y-109533195D01*
X121057953Y-109518331D01*
X120944385Y-109518331D01*
X120774480Y-109533195D01*
X120774464Y-109533198D01*
X120554676Y-109592090D01*
X120554674Y-109592091D01*
X120348435Y-109688262D01*
X120162028Y-109818784D01*
X120001122Y-109979690D01*
X119870600Y-110166097D01*
X119774429Y-110372336D01*
X119774428Y-110372338D01*
X119715536Y-110592126D01*
X119715533Y-110592142D01*
X119695701Y-110818828D01*
X119695701Y-110818833D01*
X83706217Y-110818833D01*
X83400385Y-110513001D01*
X83357402Y-110484281D01*
X83357397Y-110484278D01*
X83313205Y-110465973D01*
X83286025Y-110457992D01*
X83211792Y-110465974D01*
X83167613Y-110484274D01*
X83167586Y-110484286D01*
X83142742Y-110497852D01*
X83142740Y-110497854D01*
X83095891Y-110555988D01*
X83077585Y-110600185D01*
X83067500Y-110650887D01*
X83067500Y-119752772D01*
X83049194Y-119796966D01*
X83005000Y-119815272D01*
X82999839Y-119815059D01*
X82893569Y-119806253D01*
X82812067Y-119799500D01*
X82687933Y-119799500D01*
X82502179Y-119814892D01*
X82261119Y-119875937D01*
X82261117Y-119875937D01*
X82261116Y-119875938D01*
X82033390Y-119975828D01*
X82033387Y-119975830D01*
X81825216Y-120111835D01*
X81825211Y-120111838D01*
X81642260Y-120280257D01*
X81642257Y-120280261D01*
X81489526Y-120476489D01*
X81489525Y-120476491D01*
X81408396Y-120626404D01*
X81402468Y-120637361D01*
X81371173Y-120695189D01*
X81371172Y-120695190D01*
X81300861Y-120900000D01*
X81290429Y-120930386D01*
X81249500Y-121175665D01*
X81249500Y-121424335D01*
X81290429Y-121669614D01*
X81371172Y-121904810D01*
X81430449Y-122014344D01*
X81489525Y-122123508D01*
X81489526Y-122123510D01*
X81635973Y-122311664D01*
X81642262Y-122319744D01*
X81656201Y-122332576D01*
X81825211Y-122488161D01*
X81825213Y-122488162D01*
X81825215Y-122488164D01*
X82033393Y-122624173D01*
X82261119Y-122724063D01*
X82502179Y-122785108D01*
X82687933Y-122800500D01*
X82687935Y-122800500D01*
X82812065Y-122800500D01*
X82812067Y-122800500D01*
X82997821Y-122785108D01*
X82997825Y-122785106D01*
X82999839Y-122784940D01*
X83045394Y-122799534D01*
X83067287Y-122842066D01*
X83067500Y-122847227D01*
X83067500Y-122999999D01*
X83067500Y-123575835D01*
X83067906Y-123583159D01*
X83067907Y-123583165D01*
X83067907Y-123583167D01*
X83069835Y-123600523D01*
X83078901Y-123624438D01*
X83077449Y-123672252D01*
X83042613Y-123705034D01*
X83040029Y-123705949D01*
X82858533Y-123765789D01*
X82858523Y-123765793D01*
X82858521Y-123765794D01*
X82814359Y-123785283D01*
X82502777Y-123922786D01*
X82163948Y-124113527D01*
X81845199Y-124336234D01*
X81845198Y-124336234D01*
X81549547Y-124588801D01*
X81449512Y-124692600D01*
X81433736Y-124708970D01*
X81425643Y-124717367D01*
X81424322Y-124718658D01*
X81409552Y-124732274D01*
X81400956Y-124742831D01*
X81399230Y-124744779D01*
X81368927Y-124776238D01*
X81368924Y-124776242D01*
X81361400Y-124789854D01*
X81355172Y-124799073D01*
X79671113Y-126867765D01*
X79629015Y-126890481D01*
X79584932Y-126878148D01*
X79204759Y-126590499D01*
X78415965Y-125955594D01*
X77646568Y-125297316D01*
X76897261Y-124616259D01*
X76168716Y-123913035D01*
X75461591Y-123188276D01*
X75148246Y-122847227D01*
X74790432Y-122457777D01*
X74788376Y-122455293D01*
X74761477Y-122419149D01*
X74761476Y-122419148D01*
X74748503Y-122409379D01*
X74739449Y-122401045D01*
X74732676Y-122393448D01*
X74691914Y-122366689D01*
X74690293Y-122365548D01*
X74646506Y-122332576D01*
X74637635Y-122329238D01*
X74625349Y-122322991D01*
X74622507Y-122321125D01*
X74593872Y-122311664D01*
X74557653Y-122280417D01*
X74552288Y-122265036D01*
X74551001Y-122258844D01*
X74522934Y-122123774D01*
X74456474Y-121995513D01*
X74357875Y-121889939D01*
X74357874Y-121889938D01*
X74234448Y-121814881D01*
X74144407Y-121789653D01*
X74106790Y-121760103D01*
X74098915Y-121725205D01*
X74103057Y-121664660D01*
X74103056Y-121664656D01*
X74099067Y-121645461D01*
X74073667Y-121523225D01*
X74007207Y-121394964D01*
X73908608Y-121289390D01*
X73908607Y-121289389D01*
X73785181Y-121214332D01*
X73663065Y-121180117D01*
X73625448Y-121150567D01*
X73617573Y-121115670D01*
X73623838Y-121024075D01*
X73623837Y-121024071D01*
X73607666Y-120946251D01*
X73594448Y-120882640D01*
X73527988Y-120754379D01*
X73429389Y-120648805D01*
X73429388Y-120648804D01*
X73305962Y-120573747D01*
X73215920Y-120548519D01*
X73178303Y-120518969D01*
X73170428Y-120484071D01*
X73174570Y-120423527D01*
X73174569Y-120423523D01*
X73171829Y-120410337D01*
X73145180Y-120282092D01*
X73078720Y-120153831D01*
X72980121Y-120048257D01*
X72980120Y-120048256D01*
X72856694Y-119973199D01*
X72766652Y-119947971D01*
X72729035Y-119918421D01*
X72721160Y-119883523D01*
X72725302Y-119822978D01*
X72725301Y-119822974D01*
X72720423Y-119799500D01*
X72695912Y-119681543D01*
X72629452Y-119553282D01*
X72530853Y-119447708D01*
X72530852Y-119447707D01*
X72407426Y-119372650D01*
X72317385Y-119347422D01*
X72279768Y-119317872D01*
X72271893Y-119282974D01*
X72276035Y-119222430D01*
X72276034Y-119222426D01*
X72263761Y-119163364D01*
X72246645Y-119080995D01*
X72180185Y-118952734D01*
X72081586Y-118847160D01*
X72081585Y-118847159D01*
X71958159Y-118772102D01*
X71877274Y-118749440D01*
X71839657Y-118719890D01*
X71831719Y-118692472D01*
X71831051Y-118679485D01*
X71808754Y-118615855D01*
X71789490Y-118557534D01*
X71789488Y-118557531D01*
X71787707Y-118553842D01*
X71788011Y-118553695D01*
X71784444Y-118546477D01*
X71783457Y-118543661D01*
X71749786Y-118496759D01*
X71748783Y-118495274D01*
X71191181Y-117616252D01*
X70656844Y-116713010D01*
X70150843Y-115793595D01*
X69673666Y-114858896D01*
X69225774Y-113909816D01*
X68807601Y-112947272D01*
X68419549Y-111972194D01*
X68061994Y-110985526D01*
X67850323Y-110339388D01*
X108354619Y-110339388D01*
X108374465Y-110464692D01*
X108374465Y-110464693D01*
X108399080Y-110513002D01*
X108432061Y-110577730D01*
X108521769Y-110667438D01*
X108634807Y-110725034D01*
X108760111Y-110744880D01*
X108885415Y-110725034D01*
X108998453Y-110667438D01*
X109088161Y-110577730D01*
X109145757Y-110464692D01*
X109165603Y-110339388D01*
X109145757Y-110214084D01*
X109088161Y-110101046D01*
X108998453Y-110011338D01*
X108885415Y-109953742D01*
X108760111Y-109933896D01*
X108634806Y-109953742D01*
X108634805Y-109953742D01*
X108521768Y-110011338D01*
X108432061Y-110101045D01*
X108374465Y-110214082D01*
X108374465Y-110214083D01*
X108354619Y-110339388D01*
X67850323Y-110339388D01*
X67735282Y-109988220D01*
X67439729Y-108981240D01*
X67382864Y-108762557D01*
X67872500Y-108762557D01*
X67879898Y-108799748D01*
X67879898Y-108799749D01*
X67908077Y-108841922D01*
X67936257Y-108860750D01*
X67950252Y-108870102D01*
X67987442Y-108877500D01*
X67987443Y-108877500D01*
X69712557Y-108877500D01*
X69712558Y-108877500D01*
X69749748Y-108870102D01*
X69791922Y-108841922D01*
X69820102Y-108799748D01*
X69827500Y-108762558D01*
X69827500Y-107900000D01*
X70407770Y-107900000D01*
X70426642Y-108091622D01*
X70426643Y-108091624D01*
X70482538Y-108275883D01*
X70482539Y-108275884D01*
X70573302Y-108445692D01*
X70573306Y-108445698D01*
X70695459Y-108594541D01*
X70844302Y-108716694D01*
X70844304Y-108716695D01*
X70844307Y-108716697D01*
X70888491Y-108740313D01*
X71014117Y-108807462D01*
X71198376Y-108863357D01*
X71390000Y-108882230D01*
X71581624Y-108863357D01*
X71765883Y-108807462D01*
X71854470Y-108760111D01*
X89255120Y-108760111D01*
X89274966Y-108885415D01*
X89274966Y-108885416D01*
X89285186Y-108905473D01*
X89332562Y-108998453D01*
X89422270Y-109088161D01*
X89535308Y-109145757D01*
X89660612Y-109165603D01*
X89785916Y-109145757D01*
X89898954Y-109088161D01*
X89971356Y-109015759D01*
X127238977Y-109015759D01*
X127256443Y-109126038D01*
X127256445Y-109126043D01*
X127276602Y-109165603D01*
X127307138Y-109225533D01*
X127386094Y-109304489D01*
X127485585Y-109355182D01*
X127485588Y-109355183D01*
X127595868Y-109372650D01*
X127595871Y-109372650D01*
X127595874Y-109372650D01*
X127706153Y-109355183D01*
X127706154Y-109355182D01*
X127706157Y-109355182D01*
X127805648Y-109304489D01*
X127884604Y-109225533D01*
X127935297Y-109126042D01*
X127935298Y-109126038D01*
X127952765Y-109015759D01*
X127952765Y-109015752D01*
X127935298Y-108905473D01*
X127935296Y-108905468D01*
X127884604Y-108805979D01*
X127805647Y-108727022D01*
X127706158Y-108676330D01*
X127706153Y-108676328D01*
X127595874Y-108658862D01*
X127595868Y-108658862D01*
X127485588Y-108676328D01*
X127485583Y-108676330D01*
X127386094Y-108727022D01*
X127307137Y-108805979D01*
X127256445Y-108905468D01*
X127256443Y-108905473D01*
X127238977Y-109015752D01*
X127238977Y-109015759D01*
X89971356Y-109015759D01*
X89988662Y-108998453D01*
X90046258Y-108885415D01*
X90066104Y-108760111D01*
X90046258Y-108634807D01*
X89988662Y-108521769D01*
X89898954Y-108432061D01*
X89785916Y-108374465D01*
X89660612Y-108354619D01*
X89535307Y-108374465D01*
X89535306Y-108374465D01*
X89422269Y-108432061D01*
X89332562Y-108521768D01*
X89274966Y-108634805D01*
X89274966Y-108634806D01*
X89255120Y-108760111D01*
X71854470Y-108760111D01*
X71935698Y-108716694D01*
X72084541Y-108594541D01*
X72206694Y-108445698D01*
X72297462Y-108275883D01*
X72353357Y-108091624D01*
X72372230Y-107900000D01*
X72353357Y-107708376D01*
X72297462Y-107524117D01*
X72206694Y-107354302D01*
X72153597Y-107289603D01*
X111443106Y-107289603D01*
X111460572Y-107399882D01*
X111460574Y-107399887D01*
X111511266Y-107499376D01*
X111511267Y-107499377D01*
X111590223Y-107578333D01*
X111689714Y-107629026D01*
X111689717Y-107629027D01*
X111799997Y-107646494D01*
X111800000Y-107646494D01*
X111800003Y-107646494D01*
X111910282Y-107629027D01*
X111910283Y-107629026D01*
X111910286Y-107629026D01*
X112009777Y-107578333D01*
X112088733Y-107499377D01*
X112139426Y-107399886D01*
X112139427Y-107399882D01*
X112156894Y-107289603D01*
X112156894Y-107289596D01*
X112139427Y-107179317D01*
X112139425Y-107179312D01*
X112088733Y-107079823D01*
X112009776Y-107000866D01*
X111910287Y-106950174D01*
X111910282Y-106950172D01*
X111800003Y-106932706D01*
X111799997Y-106932706D01*
X111689717Y-106950172D01*
X111689712Y-106950174D01*
X111590223Y-107000866D01*
X111511266Y-107079823D01*
X111460574Y-107179312D01*
X111460572Y-107179317D01*
X111443106Y-107289596D01*
X111443106Y-107289603D01*
X72153597Y-107289603D01*
X72084541Y-107205459D01*
X71935698Y-107083306D01*
X71935692Y-107083302D01*
X71781465Y-107000867D01*
X71765883Y-106992538D01*
X71646476Y-106956316D01*
X71581622Y-106936642D01*
X71390000Y-106917770D01*
X71198377Y-106936642D01*
X71080604Y-106972369D01*
X71014117Y-106992538D01*
X71014115Y-106992538D01*
X71014115Y-106992539D01*
X70844307Y-107083302D01*
X70844301Y-107083306D01*
X70695459Y-107205459D01*
X70573306Y-107354301D01*
X70573302Y-107354307D01*
X70482539Y-107524115D01*
X70426642Y-107708377D01*
X70407770Y-107899999D01*
X70407770Y-107900000D01*
X69827500Y-107900000D01*
X69827500Y-107037442D01*
X69820102Y-107000252D01*
X69820101Y-107000250D01*
X69791922Y-106958077D01*
X69749748Y-106929898D01*
X69712558Y-106922500D01*
X67987442Y-106922500D01*
X67968847Y-106926199D01*
X67950251Y-106929898D01*
X67950250Y-106929898D01*
X67908077Y-106958077D01*
X67879898Y-107000250D01*
X67879898Y-107000251D01*
X67872500Y-107037442D01*
X67872500Y-108762557D01*
X67382864Y-108762557D01*
X67175619Y-107965559D01*
X66943209Y-106942160D01*
X66871740Y-106574940D01*
X66881266Y-106528062D01*
X66921149Y-106501651D01*
X66933089Y-106500500D01*
X72471961Y-106500500D01*
X72502375Y-106491569D01*
X72511076Y-106489676D01*
X72542457Y-106485165D01*
X72571289Y-106471996D01*
X72579631Y-106468884D01*
X72610053Y-106459953D01*
X72636729Y-106442808D01*
X72644534Y-106438547D01*
X72673373Y-106425377D01*
X72697333Y-106404614D01*
X72704451Y-106399285D01*
X72731128Y-106382143D01*
X72751883Y-106358189D01*
X72758190Y-106351883D01*
X72782143Y-106331128D01*
X72799285Y-106304451D01*
X72804614Y-106297333D01*
X72825377Y-106273373D01*
X72838547Y-106244534D01*
X72842808Y-106236729D01*
X72859953Y-106210053D01*
X72862904Y-106200000D01*
X111644508Y-106200000D01*
X111664354Y-106325304D01*
X111664354Y-106325305D01*
X111681110Y-106358190D01*
X111721950Y-106438342D01*
X111811658Y-106528050D01*
X111924696Y-106585646D01*
X112050000Y-106605492D01*
X112175304Y-106585646D01*
X112288342Y-106528050D01*
X112378050Y-106438342D01*
X112435646Y-106325304D01*
X112455492Y-106200000D01*
X112435646Y-106074696D01*
X112378050Y-105961658D01*
X112288342Y-105871950D01*
X112175304Y-105814354D01*
X112050000Y-105794508D01*
X111924695Y-105814354D01*
X111924694Y-105814354D01*
X111811657Y-105871950D01*
X111721950Y-105961657D01*
X111664354Y-106074694D01*
X111664354Y-106074695D01*
X111644508Y-106200000D01*
X72862904Y-106200000D01*
X72868884Y-106179631D01*
X72871996Y-106171289D01*
X72885165Y-106142457D01*
X72889676Y-106111076D01*
X72891569Y-106102375D01*
X72900500Y-106071961D01*
X72900500Y-105928039D01*
X72900500Y-105100003D01*
X76543106Y-105100003D01*
X76560572Y-105210282D01*
X76560574Y-105210287D01*
X76599478Y-105286640D01*
X76611267Y-105309777D01*
X76690223Y-105388733D01*
X76789714Y-105439426D01*
X76789717Y-105439427D01*
X76899997Y-105456894D01*
X76900000Y-105456894D01*
X76900003Y-105456894D01*
X77010282Y-105439427D01*
X77010283Y-105439426D01*
X77010286Y-105439426D01*
X77109777Y-105388733D01*
X77188733Y-105309777D01*
X77239426Y-105210286D01*
X77239449Y-105210141D01*
X77256894Y-105100003D01*
X77256894Y-105099996D01*
X77239427Y-104989717D01*
X77239425Y-104989712D01*
X77188733Y-104890223D01*
X77109776Y-104811266D01*
X77010287Y-104760574D01*
X77010282Y-104760572D01*
X76900003Y-104743106D01*
X76899997Y-104743106D01*
X76789717Y-104760572D01*
X76789712Y-104760574D01*
X76690223Y-104811266D01*
X76611266Y-104890223D01*
X76560574Y-104989712D01*
X76560572Y-104989717D01*
X76543106Y-105099996D01*
X76543106Y-105100003D01*
X72900500Y-105100003D01*
X72900500Y-104136575D01*
X86689809Y-104136575D01*
X86709655Y-104261879D01*
X86709655Y-104261880D01*
X86726531Y-104295000D01*
X86767251Y-104374917D01*
X86856959Y-104464625D01*
X86969997Y-104522221D01*
X87095301Y-104542067D01*
X87220605Y-104522221D01*
X87333643Y-104464625D01*
X87423351Y-104374917D01*
X87480947Y-104261879D01*
X87500793Y-104136575D01*
X87480947Y-104011271D01*
X87423351Y-103898233D01*
X87333643Y-103808525D01*
X87220605Y-103750929D01*
X87095301Y-103731083D01*
X86969996Y-103750929D01*
X86969995Y-103750929D01*
X86856958Y-103808525D01*
X86767251Y-103898232D01*
X86709655Y-104011269D01*
X86709655Y-104011270D01*
X86689809Y-104136575D01*
X72900500Y-104136575D01*
X72900500Y-102600003D01*
X77843106Y-102600003D01*
X77860572Y-102710282D01*
X77860574Y-102710287D01*
X77910848Y-102808955D01*
X77911267Y-102809777D01*
X77990223Y-102888733D01*
X78089714Y-102939426D01*
X78089717Y-102939427D01*
X78199997Y-102956894D01*
X78200000Y-102956894D01*
X78200003Y-102956894D01*
X78310282Y-102939427D01*
X78310283Y-102939426D01*
X78310286Y-102939426D01*
X78409777Y-102888733D01*
X78455806Y-102842704D01*
X78500000Y-102824398D01*
X78544194Y-102842704D01*
X78590223Y-102888733D01*
X78689714Y-102939426D01*
X78689717Y-102939427D01*
X78799997Y-102956894D01*
X78800000Y-102956894D01*
X78800003Y-102956894D01*
X78910282Y-102939427D01*
X78910283Y-102939426D01*
X78910286Y-102939426D01*
X79009777Y-102888733D01*
X79055806Y-102842704D01*
X79100000Y-102824398D01*
X79144194Y-102842704D01*
X79190223Y-102888733D01*
X79289714Y-102939426D01*
X79289717Y-102939427D01*
X79399997Y-102956894D01*
X79400000Y-102956894D01*
X79400003Y-102956894D01*
X79510282Y-102939427D01*
X79510283Y-102939426D01*
X79510286Y-102939426D01*
X79609777Y-102888733D01*
X79688733Y-102809777D01*
X79739426Y-102710286D01*
X79746112Y-102668075D01*
X79756894Y-102600003D01*
X79756894Y-102599996D01*
X79739427Y-102489717D01*
X79739425Y-102489712D01*
X79688733Y-102390223D01*
X79609776Y-102311266D01*
X79510287Y-102260574D01*
X79510282Y-102260572D01*
X79400003Y-102243106D01*
X79399997Y-102243106D01*
X79289717Y-102260572D01*
X79289712Y-102260574D01*
X79190223Y-102311266D01*
X79144194Y-102357296D01*
X79100000Y-102375602D01*
X79055806Y-102357296D01*
X79009776Y-102311266D01*
X78910287Y-102260574D01*
X78910282Y-102260572D01*
X78800003Y-102243106D01*
X78799997Y-102243106D01*
X78689717Y-102260572D01*
X78689712Y-102260574D01*
X78590223Y-102311266D01*
X78544194Y-102357296D01*
X78500000Y-102375602D01*
X78455806Y-102357296D01*
X78409776Y-102311266D01*
X78310287Y-102260574D01*
X78310282Y-102260572D01*
X78200003Y-102243106D01*
X78199997Y-102243106D01*
X78089717Y-102260572D01*
X78089712Y-102260574D01*
X77990223Y-102311266D01*
X77911266Y-102390223D01*
X77860574Y-102489712D01*
X77860572Y-102489717D01*
X77843106Y-102599996D01*
X77843106Y-102600003D01*
X72900500Y-102600003D01*
X72900500Y-100900003D01*
X77843106Y-100900003D01*
X77860572Y-101010282D01*
X77860574Y-101010287D01*
X77911266Y-101109776D01*
X77911267Y-101109777D01*
X77990223Y-101188733D01*
X78089714Y-101239426D01*
X78089717Y-101239427D01*
X78199997Y-101256894D01*
X78200000Y-101256894D01*
X78200003Y-101256894D01*
X78310282Y-101239427D01*
X78310283Y-101239426D01*
X78310286Y-101239426D01*
X78409777Y-101188733D01*
X78455806Y-101142704D01*
X78500000Y-101124398D01*
X78544194Y-101142704D01*
X78590223Y-101188733D01*
X78689714Y-101239426D01*
X78689717Y-101239427D01*
X78799997Y-101256894D01*
X78800000Y-101256894D01*
X78800003Y-101256894D01*
X78910282Y-101239427D01*
X78910283Y-101239426D01*
X78910286Y-101239426D01*
X79009777Y-101188733D01*
X79055806Y-101142704D01*
X79100000Y-101124398D01*
X79144194Y-101142704D01*
X79190223Y-101188733D01*
X79289714Y-101239426D01*
X79289717Y-101239427D01*
X79399997Y-101256894D01*
X79400000Y-101256894D01*
X79400003Y-101256894D01*
X79510282Y-101239427D01*
X79510283Y-101239426D01*
X79510286Y-101239426D01*
X79609777Y-101188733D01*
X79688733Y-101109777D01*
X79739426Y-101010286D01*
X79742415Y-100991414D01*
X79756894Y-100900003D01*
X79756894Y-100899996D01*
X79739427Y-100789717D01*
X79739425Y-100789712D01*
X79688733Y-100690223D01*
X79609776Y-100611266D01*
X79510287Y-100560574D01*
X79510282Y-100560572D01*
X79400003Y-100543106D01*
X79399997Y-100543106D01*
X79289717Y-100560572D01*
X79289712Y-100560574D01*
X79190223Y-100611266D01*
X79144194Y-100657296D01*
X79100000Y-100675602D01*
X79055806Y-100657296D01*
X79009776Y-100611266D01*
X78910287Y-100560574D01*
X78910282Y-100560572D01*
X78800003Y-100543106D01*
X78799997Y-100543106D01*
X78689717Y-100560572D01*
X78689712Y-100560574D01*
X78590223Y-100611266D01*
X78544194Y-100657296D01*
X78500000Y-100675602D01*
X78455806Y-100657296D01*
X78409776Y-100611266D01*
X78310287Y-100560574D01*
X78310282Y-100560572D01*
X78200003Y-100543106D01*
X78199997Y-100543106D01*
X78089717Y-100560572D01*
X78089712Y-100560574D01*
X77990223Y-100611266D01*
X77911266Y-100690223D01*
X77860574Y-100789712D01*
X77860572Y-100789717D01*
X77843106Y-100899996D01*
X77843106Y-100900003D01*
X72900500Y-100900003D01*
X72900500Y-99450003D01*
X86693106Y-99450003D01*
X86710572Y-99560282D01*
X86710574Y-99560287D01*
X86711274Y-99561660D01*
X86761267Y-99659777D01*
X86840223Y-99738733D01*
X86939714Y-99789426D01*
X86939717Y-99789427D01*
X87049997Y-99806894D01*
X87050000Y-99806894D01*
X87050003Y-99806894D01*
X87125109Y-99794998D01*
X89340000Y-99794998D01*
X89340000Y-104294999D01*
X89340000Y-104295000D01*
X93840002Y-104294999D01*
X93840000Y-99795001D01*
X93839999Y-99795000D01*
X89340003Y-99794998D01*
X89340001Y-99794998D01*
X89340000Y-99794998D01*
X87125109Y-99794998D01*
X87160282Y-99789427D01*
X87160283Y-99789426D01*
X87160286Y-99789426D01*
X87237664Y-99750000D01*
X98150000Y-99750000D01*
X98150000Y-104249998D01*
X98150000Y-104249999D01*
X102649999Y-104249998D01*
X102649998Y-101850000D01*
X105044506Y-101850000D01*
X105064352Y-101975304D01*
X105064352Y-101975305D01*
X105079734Y-102005493D01*
X105121948Y-102088342D01*
X105211656Y-102178050D01*
X105324694Y-102235646D01*
X105449998Y-102255492D01*
X105575302Y-102235646D01*
X105688340Y-102178050D01*
X105778048Y-102088342D01*
X105816287Y-102013293D01*
X105852661Y-101982227D01*
X105894561Y-101985524D01*
X105895016Y-101984126D01*
X105899692Y-101985645D01*
X105899696Y-101985647D01*
X106025000Y-102005493D01*
X106150304Y-101985647D01*
X106263342Y-101928051D01*
X106353050Y-101838343D01*
X106410646Y-101725305D01*
X106430492Y-101600001D01*
X106410646Y-101474697D01*
X106353050Y-101361659D01*
X106263342Y-101271951D01*
X106150304Y-101214355D01*
X106025000Y-101194509D01*
X105899695Y-101214355D01*
X105899694Y-101214355D01*
X105786657Y-101271951D01*
X105696950Y-101361658D01*
X105658710Y-101436707D01*
X105622335Y-101467773D01*
X105580435Y-101464477D01*
X105579982Y-101465875D01*
X105575302Y-101464354D01*
X105449998Y-101444508D01*
X105324693Y-101464354D01*
X105324692Y-101464354D01*
X105211655Y-101521950D01*
X105121948Y-101611657D01*
X105064352Y-101724694D01*
X105064352Y-101724695D01*
X105044506Y-101850000D01*
X102649998Y-101850000D01*
X102649998Y-101116718D01*
X113099894Y-101116718D01*
X113119740Y-101242022D01*
X113119740Y-101242023D01*
X113177336Y-101355060D01*
X113267044Y-101444768D01*
X113380082Y-101502364D01*
X113505386Y-101522210D01*
X113630690Y-101502364D01*
X113743728Y-101444768D01*
X113833436Y-101355060D01*
X113891032Y-101242022D01*
X113910878Y-101116718D01*
X113891032Y-100991414D01*
X113833436Y-100878376D01*
X113743728Y-100788668D01*
X113630690Y-100731072D01*
X113505386Y-100711226D01*
X113380081Y-100731072D01*
X113380080Y-100731072D01*
X113267043Y-100788668D01*
X113177336Y-100878375D01*
X113119740Y-100991412D01*
X113119740Y-100991413D01*
X113099894Y-101116718D01*
X102649998Y-101116718D01*
X102649998Y-100500003D01*
X103393106Y-100500003D01*
X103410572Y-100610282D01*
X103410574Y-100610287D01*
X103461266Y-100709776D01*
X103461267Y-100709777D01*
X103540223Y-100788733D01*
X103639714Y-100839426D01*
X103639717Y-100839427D01*
X103749997Y-100856894D01*
X103750000Y-100856894D01*
X103750003Y-100856894D01*
X103860282Y-100839427D01*
X103860283Y-100839426D01*
X103860286Y-100839426D01*
X103959777Y-100788733D01*
X104038733Y-100709777D01*
X104089426Y-100610286D01*
X104089427Y-100610282D01*
X104106894Y-100500003D01*
X104106894Y-100499996D01*
X104089427Y-100389717D01*
X104089425Y-100389712D01*
X104038733Y-100290223D01*
X103959776Y-100211266D01*
X103860287Y-100160574D01*
X103860282Y-100160572D01*
X103750003Y-100143106D01*
X103749997Y-100143106D01*
X103639717Y-100160572D01*
X103639712Y-100160574D01*
X103540223Y-100211266D01*
X103461266Y-100290223D01*
X103410574Y-100389712D01*
X103410572Y-100389717D01*
X103393106Y-100499996D01*
X103393106Y-100500003D01*
X102649998Y-100500003D01*
X102649998Y-99750001D01*
X102649997Y-99750000D01*
X98150000Y-99750000D01*
X87237664Y-99750000D01*
X87259777Y-99738733D01*
X87338733Y-99659777D01*
X87389426Y-99560286D01*
X87399023Y-99499694D01*
X87406894Y-99450003D01*
X87406894Y-99449996D01*
X87389427Y-99339717D01*
X87389425Y-99339712D01*
X87338733Y-99240223D01*
X87259776Y-99161266D01*
X87160287Y-99110574D01*
X87160282Y-99110572D01*
X87050003Y-99093106D01*
X87049997Y-99093106D01*
X86939717Y-99110572D01*
X86939712Y-99110574D01*
X86840223Y-99161266D01*
X86761266Y-99240223D01*
X86710574Y-99339712D01*
X86710572Y-99339717D01*
X86693106Y-99449996D01*
X86693106Y-99450003D01*
X72900500Y-99450003D01*
X72900500Y-99061662D01*
X91236890Y-99061662D01*
X91236891Y-99061663D01*
X91250690Y-99070334D01*
X91250694Y-99070336D01*
X91420856Y-99129878D01*
X91420860Y-99129879D01*
X91600000Y-99150063D01*
X91779139Y-99129879D01*
X91779143Y-99129878D01*
X91949305Y-99070336D01*
X91949306Y-99070336D01*
X91963108Y-99061663D01*
X91751446Y-98850001D01*
X104694508Y-98850001D01*
X104714354Y-98975305D01*
X104714354Y-98975306D01*
X104730449Y-99006894D01*
X104771950Y-99088343D01*
X104861658Y-99178051D01*
X104974696Y-99235647D01*
X105100000Y-99255493D01*
X105225304Y-99235647D01*
X105338342Y-99178051D01*
X105380806Y-99135587D01*
X105425000Y-99117281D01*
X105469194Y-99135587D01*
X105486657Y-99153050D01*
X105588144Y-99204760D01*
X105619211Y-99241134D01*
X105615458Y-99288822D01*
X105603964Y-99304642D01*
X105521949Y-99386657D01*
X105464353Y-99499694D01*
X105464353Y-99499695D01*
X105444507Y-99625000D01*
X105464353Y-99750304D01*
X105464353Y-99750305D01*
X105493187Y-99806894D01*
X105521949Y-99863342D01*
X105611657Y-99953050D01*
X105724695Y-100010646D01*
X105849999Y-100030492D01*
X105975303Y-100010646D01*
X106024832Y-99985408D01*
X106072518Y-99981654D01*
X106108893Y-100012720D01*
X106108893Y-100012721D01*
X106121948Y-100038342D01*
X106123006Y-100039400D01*
X106123389Y-100040325D01*
X106124840Y-100042322D01*
X106124360Y-100042670D01*
X106141312Y-100083594D01*
X106123006Y-100127788D01*
X106088589Y-100145324D01*
X105968450Y-100164352D01*
X105968443Y-100164354D01*
X105855406Y-100221950D01*
X105765699Y-100311657D01*
X105708103Y-100424694D01*
X105708103Y-100424695D01*
X105688257Y-100550000D01*
X105708103Y-100675304D01*
X105708103Y-100675305D01*
X105725667Y-100709776D01*
X105765699Y-100788342D01*
X105855407Y-100878050D01*
X105968445Y-100935646D01*
X106093749Y-100955492D01*
X106219053Y-100935646D01*
X106332091Y-100878050D01*
X106421799Y-100788342D01*
X106479395Y-100675304D01*
X106499241Y-100550000D01*
X106479395Y-100424696D01*
X106421799Y-100311658D01*
X106420742Y-100310601D01*
X106420358Y-100309674D01*
X106418909Y-100307680D01*
X106419387Y-100307332D01*
X106402436Y-100266407D01*
X106420742Y-100222213D01*
X106455156Y-100204677D01*
X106575304Y-100185648D01*
X106688342Y-100128052D01*
X106778050Y-100038344D01*
X106835646Y-99925306D01*
X106855492Y-99800002D01*
X106835646Y-99674698D01*
X106778050Y-99561660D01*
X106688342Y-99471952D01*
X106575304Y-99414356D01*
X106450000Y-99394510D01*
X106324695Y-99414356D01*
X106324691Y-99414358D01*
X106275165Y-99439592D01*
X106227477Y-99443345D01*
X106191103Y-99412278D01*
X106178049Y-99386658D01*
X106088340Y-99296949D01*
X105986853Y-99245239D01*
X105955786Y-99208865D01*
X105959539Y-99161177D01*
X105971030Y-99145360D01*
X106053049Y-99063342D01*
X106110645Y-98950304D01*
X106130491Y-98825000D01*
X106110645Y-98699696D01*
X106053049Y-98586658D01*
X105963341Y-98496950D01*
X105850303Y-98439354D01*
X105724999Y-98419508D01*
X105599694Y-98439354D01*
X105599693Y-98439354D01*
X105486656Y-98496950D01*
X105444193Y-98539414D01*
X105399999Y-98557720D01*
X105355805Y-98539414D01*
X105338342Y-98521951D01*
X105225304Y-98464355D01*
X105100000Y-98444509D01*
X104974695Y-98464355D01*
X104974694Y-98464355D01*
X104861657Y-98521951D01*
X104771950Y-98611658D01*
X104714354Y-98724695D01*
X104714354Y-98724696D01*
X104694508Y-98850001D01*
X91751446Y-98850001D01*
X91600000Y-98698555D01*
X91236890Y-99061662D01*
X72900500Y-99061662D01*
X72900500Y-98700003D01*
X80943106Y-98700003D01*
X80960572Y-98810282D01*
X80960574Y-98810287D01*
X80991771Y-98871514D01*
X81011267Y-98909777D01*
X81090223Y-98988733D01*
X81189714Y-99039426D01*
X81189717Y-99039427D01*
X81299997Y-99056894D01*
X81300000Y-99056894D01*
X81300003Y-99056894D01*
X81410282Y-99039427D01*
X81410283Y-99039426D01*
X81410286Y-99039426D01*
X81509777Y-98988733D01*
X81588733Y-98909777D01*
X81594312Y-98898828D01*
X81630686Y-98867761D01*
X81678374Y-98871514D01*
X81705688Y-98898828D01*
X81711267Y-98909777D01*
X81790223Y-98988733D01*
X81889714Y-99039426D01*
X81889717Y-99039427D01*
X81999997Y-99056894D01*
X82000000Y-99056894D01*
X82000003Y-99056894D01*
X82110282Y-99039427D01*
X82110283Y-99039426D01*
X82110286Y-99039426D01*
X82209777Y-98988733D01*
X82288733Y-98909777D01*
X82339426Y-98810286D01*
X82339427Y-98810282D01*
X82356894Y-98700003D01*
X82356894Y-98699996D01*
X82348976Y-98650003D01*
X87443106Y-98650003D01*
X87460572Y-98760282D01*
X87460574Y-98760287D01*
X87511266Y-98859776D01*
X87511267Y-98859777D01*
X87590223Y-98938733D01*
X87689714Y-98989426D01*
X87689717Y-98989427D01*
X87799997Y-99006894D01*
X87800000Y-99006894D01*
X87800003Y-99006894D01*
X87910282Y-98989427D01*
X87910283Y-98989426D01*
X87910286Y-98989426D01*
X88009777Y-98938733D01*
X88088733Y-98859777D01*
X88139426Y-98760286D01*
X88145063Y-98724696D01*
X88156894Y-98650003D01*
X88156894Y-98649996D01*
X88142903Y-98561662D01*
X90336890Y-98561662D01*
X90336891Y-98561663D01*
X90350690Y-98570334D01*
X90350694Y-98570336D01*
X90520856Y-98629878D01*
X90520860Y-98629879D01*
X90699999Y-98650063D01*
X90803615Y-98638388D01*
X90849582Y-98651630D01*
X90869606Y-98679850D01*
X90874665Y-98694307D01*
X90874666Y-98694309D01*
X90883337Y-98708110D01*
X91246445Y-98345002D01*
X91444709Y-98345002D01*
X91465514Y-98422647D01*
X91522355Y-98479488D01*
X91580254Y-98495002D01*
X91619746Y-98495002D01*
X91677645Y-98479488D01*
X91734486Y-98422648D01*
X91755291Y-98345002D01*
X91953553Y-98345002D01*
X92316661Y-98708110D01*
X92325334Y-98694308D01*
X92325335Y-98694305D01*
X92330392Y-98679854D01*
X92362266Y-98644185D01*
X92396383Y-98638388D01*
X92500000Y-98650063D01*
X92679139Y-98629879D01*
X92679143Y-98629878D01*
X92849305Y-98570336D01*
X92849306Y-98570336D01*
X92863108Y-98561663D01*
X92300000Y-97998555D01*
X91953553Y-98345002D01*
X91755291Y-98345002D01*
X91734486Y-98267357D01*
X91677645Y-98210516D01*
X91619746Y-98195002D01*
X91580254Y-98195002D01*
X91522355Y-98210516D01*
X91465514Y-98267356D01*
X91444709Y-98345002D01*
X91246445Y-98345002D01*
X91246446Y-98345001D01*
X90900000Y-97998555D01*
X90336890Y-98561662D01*
X88142903Y-98561662D01*
X88139427Y-98539717D01*
X88139425Y-98539712D01*
X88088733Y-98440223D01*
X88009776Y-98361266D01*
X87910287Y-98310574D01*
X87906799Y-98309441D01*
X87870425Y-98278374D01*
X87866672Y-98230686D01*
X87897739Y-98194312D01*
X87906799Y-98190559D01*
X87910281Y-98189426D01*
X87910286Y-98189426D01*
X88009777Y-98138733D01*
X88088733Y-98059777D01*
X88139426Y-97960286D01*
X88141241Y-97948828D01*
X88156894Y-97850003D01*
X88156894Y-97849996D01*
X88156103Y-97845002D01*
X89894938Y-97845002D01*
X89915122Y-98024141D01*
X89915123Y-98024145D01*
X89974662Y-98194300D01*
X89974664Y-98194305D01*
X89983337Y-98208109D01*
X90346446Y-97845002D01*
X90544709Y-97845002D01*
X90565514Y-97922647D01*
X90622355Y-97979488D01*
X90680254Y-97995002D01*
X90719746Y-97995002D01*
X90777645Y-97979488D01*
X90834486Y-97922648D01*
X90855291Y-97845002D01*
X91453553Y-97845002D01*
X91600000Y-97991449D01*
X91746447Y-97845002D01*
X92344709Y-97845002D01*
X92365514Y-97922647D01*
X92422355Y-97979488D01*
X92480254Y-97995002D01*
X92519746Y-97995002D01*
X92577645Y-97979488D01*
X92634486Y-97922648D01*
X92655291Y-97845002D01*
X92853553Y-97845002D01*
X93216661Y-98208110D01*
X93225334Y-98194308D01*
X93225334Y-98194307D01*
X93284876Y-98024145D01*
X93284877Y-98024141D01*
X93305061Y-97845002D01*
X93284877Y-97665862D01*
X93284876Y-97665858D01*
X93225334Y-97495696D01*
X93225332Y-97495692D01*
X93216661Y-97481893D01*
X93216660Y-97481892D01*
X92853553Y-97845001D01*
X92853553Y-97845002D01*
X92655291Y-97845002D01*
X92634486Y-97767357D01*
X92577645Y-97710516D01*
X92519746Y-97695002D01*
X92480254Y-97695002D01*
X92422355Y-97710516D01*
X92365514Y-97767356D01*
X92344709Y-97845002D01*
X91746447Y-97845002D01*
X91600000Y-97698555D01*
X91453553Y-97845002D01*
X90855291Y-97845002D01*
X90834486Y-97767357D01*
X90777645Y-97710516D01*
X90719746Y-97695002D01*
X90680254Y-97695002D01*
X90622355Y-97710516D01*
X90565514Y-97767356D01*
X90544709Y-97845002D01*
X90346446Y-97845002D01*
X90346447Y-97845001D01*
X89983338Y-97481893D01*
X89974664Y-97495699D01*
X89974662Y-97495702D01*
X89915123Y-97665858D01*
X89915122Y-97665862D01*
X89894938Y-97845002D01*
X88156103Y-97845002D01*
X88139427Y-97739717D01*
X88139425Y-97739712D01*
X88088733Y-97640223D01*
X88009776Y-97561266D01*
X87910287Y-97510574D01*
X87906799Y-97509441D01*
X87870425Y-97478374D01*
X87866672Y-97430686D01*
X87897739Y-97394312D01*
X87906799Y-97390559D01*
X87910281Y-97389426D01*
X87910286Y-97389426D01*
X88009777Y-97338733D01*
X88088733Y-97259777D01*
X88139426Y-97160286D01*
X88139427Y-97160282D01*
X88144486Y-97128340D01*
X90336891Y-97128340D01*
X90900000Y-97691449D01*
X91246447Y-97345002D01*
X91444709Y-97345002D01*
X91465514Y-97422647D01*
X91522355Y-97479488D01*
X91580254Y-97495002D01*
X91619746Y-97495002D01*
X91677645Y-97479488D01*
X91734486Y-97422648D01*
X91755291Y-97345002D01*
X91953553Y-97345002D01*
X92300000Y-97691449D01*
X92500000Y-97491449D01*
X92863108Y-97128340D01*
X92849303Y-97119666D01*
X92849298Y-97119664D01*
X92679143Y-97060125D01*
X92679139Y-97060124D01*
X92500000Y-97039940D01*
X92499999Y-97039940D01*
X92396382Y-97051614D01*
X92350417Y-97038371D01*
X92330392Y-97010148D01*
X92325336Y-96995698D01*
X92316661Y-96981893D01*
X92316660Y-96981892D01*
X91953553Y-97345001D01*
X91953553Y-97345002D01*
X91755291Y-97345002D01*
X91734486Y-97267357D01*
X91677645Y-97210516D01*
X91619746Y-97195002D01*
X91580254Y-97195002D01*
X91522355Y-97210516D01*
X91465514Y-97267356D01*
X91444709Y-97345002D01*
X91246447Y-97345002D01*
X91246447Y-97345001D01*
X90883338Y-96981893D01*
X90874664Y-96995699D01*
X90874661Y-96995705D01*
X90869606Y-97010151D01*
X90837730Y-97045818D01*
X90803617Y-97051614D01*
X90700001Y-97039940D01*
X90700000Y-97039940D01*
X90520860Y-97060124D01*
X90520856Y-97060125D01*
X90350700Y-97119664D01*
X90350697Y-97119666D01*
X90336891Y-97128340D01*
X88144486Y-97128340D01*
X88156894Y-97050003D01*
X88156894Y-97049996D01*
X88139427Y-96939717D01*
X88139425Y-96939712D01*
X88088733Y-96840223D01*
X88009776Y-96761266D01*
X87910287Y-96710574D01*
X87910282Y-96710572D01*
X87800003Y-96693106D01*
X87799997Y-96693106D01*
X87689717Y-96710572D01*
X87689712Y-96710574D01*
X87590223Y-96761266D01*
X87511266Y-96840223D01*
X87460574Y-96939712D01*
X87460572Y-96939717D01*
X87443106Y-97049996D01*
X87443106Y-97050003D01*
X87460572Y-97160282D01*
X87460574Y-97160287D01*
X87486167Y-97210516D01*
X87511267Y-97259777D01*
X87590223Y-97338733D01*
X87689714Y-97389426D01*
X87689715Y-97389426D01*
X87693202Y-97390560D01*
X87729575Y-97421628D01*
X87733326Y-97469316D01*
X87702258Y-97505689D01*
X87693202Y-97509440D01*
X87689715Y-97510573D01*
X87590223Y-97561266D01*
X87511266Y-97640223D01*
X87460574Y-97739712D01*
X87460572Y-97739717D01*
X87443106Y-97849996D01*
X87443106Y-97850003D01*
X87460572Y-97960282D01*
X87460574Y-97960287D01*
X87511266Y-98059776D01*
X87511267Y-98059777D01*
X87590223Y-98138733D01*
X87689714Y-98189426D01*
X87689715Y-98189426D01*
X87693202Y-98190560D01*
X87729575Y-98221628D01*
X87733326Y-98269316D01*
X87702258Y-98305689D01*
X87693202Y-98309440D01*
X87689715Y-98310573D01*
X87590223Y-98361266D01*
X87511266Y-98440223D01*
X87460574Y-98539712D01*
X87460572Y-98539717D01*
X87443106Y-98649996D01*
X87443106Y-98650003D01*
X82348976Y-98650003D01*
X82339427Y-98589717D01*
X82339425Y-98589712D01*
X82288733Y-98490223D01*
X82209776Y-98411266D01*
X82110287Y-98360574D01*
X82110282Y-98360572D01*
X82000003Y-98343106D01*
X81999997Y-98343106D01*
X81889717Y-98360572D01*
X81889712Y-98360574D01*
X81790223Y-98411266D01*
X81711266Y-98490223D01*
X81705687Y-98501173D01*
X81669312Y-98532238D01*
X81621624Y-98528484D01*
X81594313Y-98501173D01*
X81588733Y-98490223D01*
X81509776Y-98411266D01*
X81410287Y-98360574D01*
X81410282Y-98360572D01*
X81300003Y-98343106D01*
X81299997Y-98343106D01*
X81189717Y-98360572D01*
X81189712Y-98360574D01*
X81090223Y-98411266D01*
X81011266Y-98490223D01*
X80960574Y-98589712D01*
X80960572Y-98589717D01*
X80943106Y-98699996D01*
X80943106Y-98700003D01*
X72900500Y-98700003D01*
X72900500Y-97750003D01*
X80943106Y-97750003D01*
X80960572Y-97860282D01*
X80960574Y-97860287D01*
X81005688Y-97948828D01*
X81011267Y-97959777D01*
X81090223Y-98038733D01*
X81189714Y-98089426D01*
X81189717Y-98089427D01*
X81299997Y-98106894D01*
X81300000Y-98106894D01*
X81300003Y-98106894D01*
X81410282Y-98089427D01*
X81410283Y-98089426D01*
X81410286Y-98089426D01*
X81509777Y-98038733D01*
X81588733Y-97959777D01*
X81594312Y-97948828D01*
X81630686Y-97917761D01*
X81678374Y-97921514D01*
X81705688Y-97948828D01*
X81711267Y-97959777D01*
X81790223Y-98038733D01*
X81889714Y-98089426D01*
X81889717Y-98089427D01*
X81999997Y-98106894D01*
X82000000Y-98106894D01*
X82000003Y-98106894D01*
X82110282Y-98089427D01*
X82110283Y-98089426D01*
X82110286Y-98089426D01*
X82209777Y-98038733D01*
X82288733Y-97959777D01*
X82339426Y-97860286D01*
X82341055Y-97850003D01*
X82356894Y-97750003D01*
X82356894Y-97749996D01*
X82339427Y-97639717D01*
X82339425Y-97639712D01*
X82288733Y-97540223D01*
X82209776Y-97461266D01*
X82110287Y-97410574D01*
X82110282Y-97410572D01*
X82000003Y-97393106D01*
X81999997Y-97393106D01*
X81889717Y-97410572D01*
X81889712Y-97410574D01*
X81790223Y-97461266D01*
X81711266Y-97540223D01*
X81705687Y-97551173D01*
X81669312Y-97582238D01*
X81621624Y-97578484D01*
X81594313Y-97551173D01*
X81588733Y-97540223D01*
X81509776Y-97461266D01*
X81410287Y-97410574D01*
X81410282Y-97410572D01*
X81300003Y-97393106D01*
X81299997Y-97393106D01*
X81189717Y-97410572D01*
X81189712Y-97410574D01*
X81090223Y-97461266D01*
X81011266Y-97540223D01*
X80960574Y-97639712D01*
X80960572Y-97639717D01*
X80943106Y-97749996D01*
X80943106Y-97750003D01*
X72900500Y-97750003D01*
X72900500Y-96800003D01*
X80943106Y-96800003D01*
X80960572Y-96910282D01*
X80960574Y-96910287D01*
X81005688Y-96998828D01*
X81011267Y-97009777D01*
X81090223Y-97088733D01*
X81189714Y-97139426D01*
X81189717Y-97139427D01*
X81299997Y-97156894D01*
X81300000Y-97156894D01*
X81300003Y-97156894D01*
X81410282Y-97139427D01*
X81410283Y-97139426D01*
X81410286Y-97139426D01*
X81509777Y-97088733D01*
X81588733Y-97009777D01*
X81594312Y-96998828D01*
X81630686Y-96967761D01*
X81678374Y-96971514D01*
X81705688Y-96998828D01*
X81711267Y-97009777D01*
X81790223Y-97088733D01*
X81889714Y-97139426D01*
X81889717Y-97139427D01*
X81999997Y-97156894D01*
X82000000Y-97156894D01*
X82000003Y-97156894D01*
X82110282Y-97139427D01*
X82110283Y-97139426D01*
X82110286Y-97139426D01*
X82209777Y-97088733D01*
X82288733Y-97009777D01*
X82339426Y-96910286D01*
X82339427Y-96910282D01*
X82356894Y-96800003D01*
X82356894Y-96799996D01*
X82339427Y-96689717D01*
X82339425Y-96689712D01*
X82308155Y-96628340D01*
X91236891Y-96628340D01*
X91599999Y-96991449D01*
X91963108Y-96628340D01*
X91949303Y-96619666D01*
X91949298Y-96619664D01*
X91779143Y-96560125D01*
X91779139Y-96560124D01*
X91600000Y-96539940D01*
X91420860Y-96560124D01*
X91420856Y-96560125D01*
X91250700Y-96619664D01*
X91250697Y-96619666D01*
X91236891Y-96628340D01*
X82308155Y-96628340D01*
X82288733Y-96590223D01*
X82209776Y-96511266D01*
X82110287Y-96460574D01*
X82110282Y-96460572D01*
X82000003Y-96443106D01*
X81999997Y-96443106D01*
X81889717Y-96460572D01*
X81889712Y-96460574D01*
X81790223Y-96511266D01*
X81711266Y-96590223D01*
X81705687Y-96601173D01*
X81669312Y-96632238D01*
X81621624Y-96628484D01*
X81594313Y-96601173D01*
X81588733Y-96590223D01*
X81509776Y-96511266D01*
X81410287Y-96460574D01*
X81410282Y-96460572D01*
X81300003Y-96443106D01*
X81299997Y-96443106D01*
X81189717Y-96460572D01*
X81189712Y-96460574D01*
X81090223Y-96511266D01*
X81011266Y-96590223D01*
X80960574Y-96689712D01*
X80960572Y-96689717D01*
X80943106Y-96799996D01*
X80943106Y-96800003D01*
X72900500Y-96800003D01*
X72900500Y-95550003D01*
X82043106Y-95550003D01*
X82060572Y-95660282D01*
X82060574Y-95660287D01*
X82111266Y-95759776D01*
X82190223Y-95838733D01*
X82289712Y-95889425D01*
X82289714Y-95889426D01*
X82400000Y-95906894D01*
X82400003Y-95906893D01*
X82402431Y-95907278D01*
X82443217Y-95932272D01*
X82454385Y-95978786D01*
X82443106Y-96050002D01*
X82443106Y-96050003D01*
X82460572Y-96160282D01*
X82460574Y-96160287D01*
X82505812Y-96249071D01*
X82511267Y-96259777D01*
X82590223Y-96338733D01*
X82689714Y-96389426D01*
X82689717Y-96389427D01*
X82799997Y-96406894D01*
X82800000Y-96406894D01*
X82800003Y-96406894D01*
X82910282Y-96389427D01*
X82910283Y-96389426D01*
X82910286Y-96389426D01*
X83009777Y-96338733D01*
X83088733Y-96259777D01*
X83139426Y-96160286D01*
X83156894Y-96050000D01*
X83156894Y-96049996D01*
X83139427Y-95939717D01*
X83139425Y-95939712D01*
X83100555Y-95863425D01*
X112499207Y-95863425D01*
X112519053Y-95988729D01*
X112519053Y-95988730D01*
X112550270Y-96049996D01*
X112576649Y-96101767D01*
X112666357Y-96191475D01*
X112779395Y-96249071D01*
X112904699Y-96268917D01*
X113030003Y-96249071D01*
X113143041Y-96191475D01*
X113232749Y-96101767D01*
X113290345Y-95988729D01*
X113310191Y-95863425D01*
X113290345Y-95738121D01*
X113232749Y-95625083D01*
X113143041Y-95535375D01*
X113030003Y-95477779D01*
X112904699Y-95457933D01*
X112779394Y-95477779D01*
X112779393Y-95477779D01*
X112666356Y-95535375D01*
X112576649Y-95625082D01*
X112519053Y-95738119D01*
X112519053Y-95738120D01*
X112499207Y-95863425D01*
X83100555Y-95863425D01*
X83088733Y-95840223D01*
X83009776Y-95761266D01*
X82910287Y-95710574D01*
X82910282Y-95710572D01*
X82797568Y-95692720D01*
X82756781Y-95667726D01*
X82745615Y-95621213D01*
X82745615Y-95621212D01*
X82756894Y-95550002D01*
X82756894Y-95549996D01*
X82739427Y-95439717D01*
X82739425Y-95439712D01*
X82688733Y-95340223D01*
X82609776Y-95261266D01*
X82587671Y-95250003D01*
X98844505Y-95250003D01*
X98864351Y-95375307D01*
X98864351Y-95375308D01*
X98906451Y-95457933D01*
X98921947Y-95488345D01*
X99011655Y-95578053D01*
X99124693Y-95635649D01*
X99249997Y-95655495D01*
X99375301Y-95635649D01*
X99488339Y-95578053D01*
X99578047Y-95488345D01*
X99578048Y-95488342D01*
X99580805Y-95485586D01*
X99624999Y-95467280D01*
X99669193Y-95485586D01*
X99686658Y-95503051D01*
X99799696Y-95560647D01*
X99925000Y-95580493D01*
X100050304Y-95560647D01*
X100163342Y-95503051D01*
X100163342Y-95503050D01*
X100167724Y-95500818D01*
X100168419Y-95502183D01*
X100209130Y-95492406D01*
X100243553Y-95509943D01*
X100311657Y-95578047D01*
X100424695Y-95635643D01*
X100549999Y-95655489D01*
X100675303Y-95635643D01*
X100788341Y-95578047D01*
X100878049Y-95488339D01*
X100935645Y-95375301D01*
X100936300Y-95371164D01*
X100961288Y-95330379D01*
X101007801Y-95319207D01*
X101048590Y-95344197D01*
X101053718Y-95352564D01*
X101071948Y-95388342D01*
X101161656Y-95478050D01*
X101274694Y-95535646D01*
X101399998Y-95555492D01*
X101525302Y-95535646D01*
X101638340Y-95478050D01*
X101728048Y-95388342D01*
X101785644Y-95275304D01*
X101805490Y-95150000D01*
X101785644Y-95024696D01*
X101728048Y-94911658D01*
X101638340Y-94821950D01*
X101525302Y-94764354D01*
X101399998Y-94744508D01*
X101274693Y-94764354D01*
X101274692Y-94764354D01*
X101161655Y-94821950D01*
X101071948Y-94911657D01*
X101014352Y-95024694D01*
X101014350Y-95024701D01*
X101013696Y-95028835D01*
X100988702Y-95069621D01*
X100942188Y-95080787D01*
X100901402Y-95055793D01*
X100896278Y-95047431D01*
X100878049Y-95011655D01*
X100788341Y-94921947D01*
X100675303Y-94864351D01*
X100549999Y-94844505D01*
X100424694Y-94864351D01*
X100424693Y-94864351D01*
X100307275Y-94924180D01*
X100306581Y-94922819D01*
X100265846Y-94932588D01*
X100231445Y-94915054D01*
X100163342Y-94846951D01*
X100050304Y-94789355D01*
X99925000Y-94769509D01*
X99799695Y-94789355D01*
X99799694Y-94789355D01*
X99686657Y-94846951D01*
X99594191Y-94939417D01*
X99549997Y-94957723D01*
X99505803Y-94939417D01*
X99488339Y-94921953D01*
X99375301Y-94864357D01*
X99249997Y-94844511D01*
X99124692Y-94864357D01*
X99124691Y-94864357D01*
X99011654Y-94921953D01*
X98921947Y-95011660D01*
X98864351Y-95124697D01*
X98864351Y-95124698D01*
X98844505Y-95250003D01*
X82587671Y-95250003D01*
X82510287Y-95210574D01*
X82510282Y-95210572D01*
X82400003Y-95193106D01*
X82399997Y-95193106D01*
X82289717Y-95210572D01*
X82289712Y-95210574D01*
X82190223Y-95261266D01*
X82111266Y-95340223D01*
X82060574Y-95439712D01*
X82060572Y-95439717D01*
X82043106Y-95549996D01*
X82043106Y-95550003D01*
X72900500Y-95550003D01*
X72900500Y-93964201D01*
X72900500Y-93928039D01*
X72891570Y-93897627D01*
X72889676Y-93888919D01*
X72885165Y-93857543D01*
X72871998Y-93828712D01*
X72868882Y-93820356D01*
X72862905Y-93800000D01*
X87544508Y-93800000D01*
X87564354Y-93925304D01*
X87564354Y-93925305D01*
X87589961Y-93975561D01*
X87621950Y-94038342D01*
X87711658Y-94128050D01*
X87824696Y-94185646D01*
X87950000Y-94205492D01*
X88075304Y-94185646D01*
X88188342Y-94128050D01*
X88278050Y-94038342D01*
X88335646Y-93925304D01*
X88355492Y-93800000D01*
X88335646Y-93674696D01*
X88278050Y-93561658D01*
X88188342Y-93471950D01*
X88075304Y-93414354D01*
X87950000Y-93394508D01*
X87824695Y-93414354D01*
X87824694Y-93414354D01*
X87711657Y-93471950D01*
X87621950Y-93561657D01*
X87564354Y-93674694D01*
X87564354Y-93674695D01*
X87544508Y-93800000D01*
X72862905Y-93800000D01*
X72859953Y-93789948D01*
X72859953Y-93789947D01*
X72850741Y-93775612D01*
X72842814Y-93763277D01*
X72838541Y-93755452D01*
X72825378Y-93726629D01*
X72825377Y-93726628D01*
X72825377Y-93726627D01*
X72804624Y-93702677D01*
X72799279Y-93695537D01*
X72782144Y-93668873D01*
X72782143Y-93668872D01*
X72758182Y-93648109D01*
X72751883Y-93641809D01*
X72731130Y-93617859D01*
X72731128Y-93617857D01*
X72704457Y-93600716D01*
X72697320Y-93595373D01*
X72673375Y-93574624D01*
X72673366Y-93574619D01*
X72644544Y-93561456D01*
X72636720Y-93557184D01*
X72610051Y-93540046D01*
X72610052Y-93540046D01*
X72579641Y-93531117D01*
X72571289Y-93528002D01*
X72557822Y-93521851D01*
X72542460Y-93514836D01*
X72542457Y-93514835D01*
X72542455Y-93514834D01*
X72542453Y-93514834D01*
X72511079Y-93510322D01*
X72502371Y-93508428D01*
X72471961Y-93499500D01*
X72435799Y-93499500D01*
X66935281Y-93499500D01*
X66891087Y-93481194D01*
X66872781Y-93437000D01*
X66873970Y-93424866D01*
X66952568Y-93027730D01*
X67155770Y-92150003D01*
X80793106Y-92150003D01*
X80810572Y-92260282D01*
X80810574Y-92260287D01*
X80856130Y-92349696D01*
X80861267Y-92359777D01*
X80940223Y-92438733D01*
X81039714Y-92489426D01*
X81039717Y-92489427D01*
X81149997Y-92506894D01*
X81150000Y-92506894D01*
X81150003Y-92506894D01*
X81260282Y-92489427D01*
X81260283Y-92489426D01*
X81260286Y-92489426D01*
X81288599Y-92475000D01*
X103144506Y-92475000D01*
X103164352Y-92600304D01*
X103164352Y-92600305D01*
X103188436Y-92647572D01*
X103221948Y-92713342D01*
X103311656Y-92803050D01*
X103424694Y-92860646D01*
X103549998Y-92880492D01*
X103565899Y-92877973D01*
X103612411Y-92889138D01*
X103637407Y-92929923D01*
X103637408Y-92949480D01*
X103619674Y-93061451D01*
X103619507Y-93062503D01*
X103634457Y-93156894D01*
X103639353Y-93187807D01*
X103639353Y-93187808D01*
X103665654Y-93239425D01*
X103696949Y-93300845D01*
X103786657Y-93390553D01*
X103899695Y-93448149D01*
X104024999Y-93467995D01*
X104150303Y-93448149D01*
X104263341Y-93390553D01*
X104353049Y-93300845D01*
X104410645Y-93187807D01*
X104430491Y-93062503D01*
X104430324Y-93061450D01*
X104430491Y-93060755D01*
X104430491Y-93057584D01*
X104431252Y-93057584D01*
X104441492Y-93014937D01*
X104482278Y-92989943D01*
X104501829Y-92989943D01*
X104599997Y-93005492D01*
X104725301Y-92985646D01*
X104838339Y-92928050D01*
X104866386Y-92900003D01*
X105943106Y-92900003D01*
X105960572Y-93010282D01*
X105960574Y-93010287D01*
X106011266Y-93109776D01*
X106011267Y-93109777D01*
X106090223Y-93188733D01*
X106189714Y-93239426D01*
X106189717Y-93239427D01*
X106299997Y-93256894D01*
X106300000Y-93256894D01*
X106300003Y-93256894D01*
X106410282Y-93239427D01*
X106410283Y-93239426D01*
X106410286Y-93239426D01*
X106509777Y-93188733D01*
X106588733Y-93109777D01*
X106639426Y-93010286D01*
X106639507Y-93009776D01*
X106656894Y-92900003D01*
X106656894Y-92899996D01*
X106641056Y-92800003D01*
X110043106Y-92800003D01*
X110060572Y-92910282D01*
X110060574Y-92910287D01*
X110111266Y-93009776D01*
X110111267Y-93009777D01*
X110190223Y-93088733D01*
X110289714Y-93139426D01*
X110289717Y-93139427D01*
X110399997Y-93156894D01*
X110400000Y-93156894D01*
X110400003Y-93156894D01*
X110510282Y-93139427D01*
X110510283Y-93139426D01*
X110510286Y-93139426D01*
X110609777Y-93088733D01*
X110688733Y-93009777D01*
X110739426Y-92910286D01*
X110741055Y-92900003D01*
X110756894Y-92800003D01*
X111143106Y-92800003D01*
X111160572Y-92910282D01*
X111160574Y-92910287D01*
X111211266Y-93009776D01*
X111211267Y-93009777D01*
X111290223Y-93088733D01*
X111389714Y-93139426D01*
X111389717Y-93139427D01*
X111499997Y-93156894D01*
X111500000Y-93156894D01*
X111500003Y-93156894D01*
X111610282Y-93139427D01*
X111610283Y-93139426D01*
X111610286Y-93139426D01*
X111709777Y-93088733D01*
X111788733Y-93009777D01*
X111839426Y-92910286D01*
X111841055Y-92900003D01*
X111856894Y-92800003D01*
X111856894Y-92799996D01*
X111839427Y-92689717D01*
X111839425Y-92689712D01*
X111788733Y-92590223D01*
X111709776Y-92511266D01*
X111610287Y-92460574D01*
X111610282Y-92460572D01*
X111500003Y-92443106D01*
X111499997Y-92443106D01*
X111389717Y-92460572D01*
X111389712Y-92460574D01*
X111290223Y-92511266D01*
X111211266Y-92590223D01*
X111160574Y-92689712D01*
X111160572Y-92689717D01*
X111143106Y-92799996D01*
X111143106Y-92800003D01*
X110756894Y-92800003D01*
X110756894Y-92799996D01*
X110739427Y-92689717D01*
X110739425Y-92689712D01*
X110688733Y-92590223D01*
X110609776Y-92511266D01*
X110510287Y-92460574D01*
X110510282Y-92460572D01*
X110400003Y-92443106D01*
X110399997Y-92443106D01*
X110289717Y-92460572D01*
X110289712Y-92460574D01*
X110190223Y-92511266D01*
X110111266Y-92590223D01*
X110060574Y-92689712D01*
X110060572Y-92689717D01*
X110043106Y-92799996D01*
X110043106Y-92800003D01*
X106641056Y-92800003D01*
X106639427Y-92789717D01*
X106639425Y-92789712D01*
X106588733Y-92690223D01*
X106509776Y-92611266D01*
X106410287Y-92560574D01*
X106410282Y-92560572D01*
X106300003Y-92543106D01*
X106299997Y-92543106D01*
X106189717Y-92560572D01*
X106189712Y-92560574D01*
X106090223Y-92611266D01*
X106011266Y-92690223D01*
X105960574Y-92789712D01*
X105960572Y-92789717D01*
X105943106Y-92899996D01*
X105943106Y-92900003D01*
X104866386Y-92900003D01*
X104928047Y-92838342D01*
X104985643Y-92725304D01*
X105005489Y-92600000D01*
X104985643Y-92474696D01*
X104928047Y-92361658D01*
X104838339Y-92271950D01*
X104725301Y-92214354D01*
X104634691Y-92200003D01*
X105343107Y-92200003D01*
X105360573Y-92310282D01*
X105360575Y-92310287D01*
X105411267Y-92409776D01*
X105411268Y-92409777D01*
X105490224Y-92488733D01*
X105589715Y-92539426D01*
X105589718Y-92539427D01*
X105699998Y-92556894D01*
X105700001Y-92556894D01*
X105700004Y-92556894D01*
X105810283Y-92539427D01*
X105810284Y-92539426D01*
X105810287Y-92539426D01*
X105909778Y-92488733D01*
X105988734Y-92409777D01*
X106039427Y-92310286D01*
X106045499Y-92271950D01*
X106056895Y-92200003D01*
X106056895Y-92199996D01*
X106039428Y-92089717D01*
X106039427Y-92089715D01*
X106039427Y-92089714D01*
X106007702Y-92027451D01*
X106003950Y-91979766D01*
X106035016Y-91943391D01*
X106082704Y-91939638D01*
X106091765Y-91943391D01*
X106174691Y-91985644D01*
X106174693Y-91985644D01*
X106174696Y-91985646D01*
X106300000Y-92005492D01*
X106425304Y-91985646D01*
X106538342Y-91928050D01*
X106628050Y-91838342D01*
X106685646Y-91725304D01*
X106705492Y-91600000D01*
X106685646Y-91474696D01*
X106628050Y-91361658D01*
X106538342Y-91271950D01*
X106475419Y-91239889D01*
X109933896Y-91239889D01*
X109953742Y-91365193D01*
X109953742Y-91365194D01*
X109991972Y-91440223D01*
X110011338Y-91478231D01*
X110101046Y-91567939D01*
X110214084Y-91625535D01*
X110339388Y-91645381D01*
X110464692Y-91625535D01*
X110577730Y-91567939D01*
X110667438Y-91478231D01*
X110725034Y-91365193D01*
X110744880Y-91239889D01*
X110725034Y-91114585D01*
X110667438Y-91001547D01*
X110577730Y-90911839D01*
X110464692Y-90854243D01*
X110339388Y-90834397D01*
X110214083Y-90854243D01*
X110214082Y-90854243D01*
X110101045Y-90911839D01*
X110011338Y-91001546D01*
X109953742Y-91114583D01*
X109953742Y-91114584D01*
X109933896Y-91239889D01*
X106475419Y-91239889D01*
X106425304Y-91214354D01*
X106300000Y-91194508D01*
X106174695Y-91214354D01*
X106174694Y-91214354D01*
X106061657Y-91271950D01*
X105971950Y-91361657D01*
X105914354Y-91474694D01*
X105914354Y-91474695D01*
X105894508Y-91600000D01*
X105914354Y-91725304D01*
X105914354Y-91725305D01*
X105956609Y-91808233D01*
X105960362Y-91855921D01*
X105929296Y-91892296D01*
X105881608Y-91896049D01*
X105872547Y-91892296D01*
X105810288Y-91860574D01*
X105810283Y-91860572D01*
X105700004Y-91843106D01*
X105699998Y-91843106D01*
X105589718Y-91860572D01*
X105589713Y-91860574D01*
X105490224Y-91911266D01*
X105411267Y-91990223D01*
X105360575Y-92089712D01*
X105360573Y-92089717D01*
X105343107Y-92199996D01*
X105343107Y-92200003D01*
X104634691Y-92200003D01*
X104599997Y-92194508D01*
X104474692Y-92214354D01*
X104474691Y-92214354D01*
X104361654Y-92271950D01*
X104271947Y-92361657D01*
X104214351Y-92474694D01*
X104214351Y-92474695D01*
X104214302Y-92475003D01*
X104196772Y-92585691D01*
X104194505Y-92600002D01*
X104194505Y-92600004D01*
X104194672Y-92601060D01*
X104194505Y-92601755D01*
X104194505Y-92604919D01*
X104193745Y-92604919D01*
X104183498Y-92647572D01*
X104142708Y-92672560D01*
X104123166Y-92672559D01*
X104024999Y-92657011D01*
X104024998Y-92657011D01*
X104018646Y-92658017D01*
X104009095Y-92659529D01*
X103962582Y-92648362D01*
X103937588Y-92607576D01*
X103937589Y-92588022D01*
X103937959Y-92585690D01*
X103953205Y-92489427D01*
X103955490Y-92475003D01*
X103955490Y-92475002D01*
X103955442Y-92474696D01*
X103935644Y-92349696D01*
X103878048Y-92236658D01*
X103788340Y-92146950D01*
X103675302Y-92089354D01*
X103549998Y-92069508D01*
X103424693Y-92089354D01*
X103424692Y-92089354D01*
X103311655Y-92146950D01*
X103221948Y-92236657D01*
X103164352Y-92349694D01*
X103164352Y-92349695D01*
X103144506Y-92475000D01*
X81288599Y-92475000D01*
X81359777Y-92438733D01*
X81438733Y-92359777D01*
X81489426Y-92260286D01*
X81489427Y-92260282D01*
X81506894Y-92150003D01*
X81506894Y-92149996D01*
X81489427Y-92039717D01*
X81489425Y-92039712D01*
X81438733Y-91940223D01*
X81359776Y-91861266D01*
X81260287Y-91810574D01*
X81260282Y-91810572D01*
X81150003Y-91793106D01*
X81149997Y-91793106D01*
X81039717Y-91810572D01*
X81039712Y-91810574D01*
X80940223Y-91861266D01*
X80861266Y-91940223D01*
X80810574Y-92039712D01*
X80810572Y-92039717D01*
X80793106Y-92149996D01*
X80793106Y-92150003D01*
X67155770Y-92150003D01*
X67196637Y-91973479D01*
X67282555Y-91650003D01*
X104243106Y-91650003D01*
X104260572Y-91760282D01*
X104260574Y-91760287D01*
X104309302Y-91855921D01*
X104311267Y-91859777D01*
X104390223Y-91938733D01*
X104489714Y-91989426D01*
X104489717Y-91989427D01*
X104599997Y-92006894D01*
X104600000Y-92006894D01*
X104600003Y-92006894D01*
X104710282Y-91989427D01*
X104710283Y-91989426D01*
X104710286Y-91989426D01*
X104809777Y-91938733D01*
X104888733Y-91859777D01*
X104939426Y-91760286D01*
X104956894Y-91650000D01*
X104956894Y-91649996D01*
X104939427Y-91539717D01*
X104939425Y-91539712D01*
X104888733Y-91440223D01*
X104809776Y-91361266D01*
X104710287Y-91310574D01*
X104710282Y-91310572D01*
X104600003Y-91293106D01*
X104599997Y-91293106D01*
X104489717Y-91310572D01*
X104489712Y-91310574D01*
X104390223Y-91361266D01*
X104311266Y-91440223D01*
X104260574Y-91539712D01*
X104260572Y-91539717D01*
X104243106Y-91649996D01*
X104243106Y-91650003D01*
X67282555Y-91650003D01*
X67468482Y-90950003D01*
X105343106Y-90950003D01*
X105360572Y-91060282D01*
X105360574Y-91060287D01*
X105411266Y-91159776D01*
X105411267Y-91159777D01*
X105490223Y-91238733D01*
X105589714Y-91289426D01*
X105589717Y-91289427D01*
X105699997Y-91306894D01*
X105700000Y-91306894D01*
X105700003Y-91306894D01*
X105810282Y-91289427D01*
X105810283Y-91289426D01*
X105810286Y-91289426D01*
X105909777Y-91238733D01*
X105988733Y-91159777D01*
X106039426Y-91060286D01*
X106039427Y-91060282D01*
X106056894Y-90950003D01*
X106056894Y-90949996D01*
X106039427Y-90839717D01*
X106039425Y-90839712D01*
X105988733Y-90740223D01*
X105909776Y-90661266D01*
X105810287Y-90610574D01*
X105810282Y-90610572D01*
X105700003Y-90593106D01*
X105699997Y-90593106D01*
X105589717Y-90610572D01*
X105589712Y-90610574D01*
X105490223Y-90661266D01*
X105411266Y-90740223D01*
X105360574Y-90839712D01*
X105360572Y-90839717D01*
X105343106Y-90949996D01*
X105343106Y-90950003D01*
X67468482Y-90950003D01*
X67474431Y-90927607D01*
X67785664Y-89891195D01*
X67863062Y-89660612D01*
X90834397Y-89660612D01*
X90854243Y-89785916D01*
X90854243Y-89785917D01*
X90897472Y-89870757D01*
X90911839Y-89898954D01*
X91001547Y-89988662D01*
X91114585Y-90046258D01*
X91239889Y-90066104D01*
X91365193Y-90046258D01*
X91478231Y-89988662D01*
X91567939Y-89898954D01*
X91618357Y-89800003D01*
X103293106Y-89800003D01*
X103310572Y-89910282D01*
X103310574Y-89910287D01*
X103361266Y-90009776D01*
X103361267Y-90009777D01*
X103440223Y-90088733D01*
X103539714Y-90139426D01*
X103539717Y-90139427D01*
X103649997Y-90156894D01*
X103650000Y-90156894D01*
X103650003Y-90156894D01*
X103760282Y-90139427D01*
X103760283Y-90139426D01*
X103760286Y-90139426D01*
X103859777Y-90088733D01*
X103938733Y-90009777D01*
X103989426Y-89910286D01*
X104005265Y-89810286D01*
X104006894Y-89800003D01*
X104006894Y-89799996D01*
X103991056Y-89700003D01*
X104143106Y-89700003D01*
X104160572Y-89810282D01*
X104160574Y-89810287D01*
X104191385Y-89870757D01*
X104211267Y-89909777D01*
X104290223Y-89988733D01*
X104389714Y-90039426D01*
X104389717Y-90039427D01*
X104499997Y-90056894D01*
X104500000Y-90056894D01*
X104500003Y-90056894D01*
X104610282Y-90039427D01*
X104610283Y-90039426D01*
X104610286Y-90039426D01*
X104709777Y-89988733D01*
X104788733Y-89909777D01*
X104839426Y-89810286D01*
X104841055Y-89800003D01*
X104856894Y-89700003D01*
X104856894Y-89699996D01*
X104839427Y-89589717D01*
X104839425Y-89589712D01*
X104788733Y-89490223D01*
X104709776Y-89411266D01*
X104610287Y-89360574D01*
X104610282Y-89360572D01*
X104500003Y-89343106D01*
X104499997Y-89343106D01*
X104389717Y-89360572D01*
X104389712Y-89360574D01*
X104290223Y-89411266D01*
X104211266Y-89490223D01*
X104160574Y-89589712D01*
X104160572Y-89589717D01*
X104143106Y-89699996D01*
X104143106Y-89700003D01*
X103991056Y-89700003D01*
X103989427Y-89689717D01*
X103989425Y-89689712D01*
X103938733Y-89590223D01*
X103859776Y-89511266D01*
X103760287Y-89460574D01*
X103760282Y-89460572D01*
X103650003Y-89443106D01*
X103649997Y-89443106D01*
X103539717Y-89460572D01*
X103539712Y-89460574D01*
X103440223Y-89511266D01*
X103361266Y-89590223D01*
X103310574Y-89689712D01*
X103310572Y-89689717D01*
X103293106Y-89799996D01*
X103293106Y-89800003D01*
X91618357Y-89800003D01*
X91625535Y-89785916D01*
X91645381Y-89660612D01*
X91625535Y-89535308D01*
X91567939Y-89422270D01*
X91478231Y-89332562D01*
X91414329Y-89300002D01*
X105343107Y-89300002D01*
X105360573Y-89410281D01*
X105360575Y-89410286D01*
X105411267Y-89509775D01*
X105490224Y-89588732D01*
X105584963Y-89637004D01*
X105589715Y-89639425D01*
X105589718Y-89639426D01*
X105699998Y-89656893D01*
X105700001Y-89656893D01*
X105700004Y-89656893D01*
X105810283Y-89639426D01*
X105810284Y-89639425D01*
X105810287Y-89639425D01*
X105909778Y-89588732D01*
X105988734Y-89509776D01*
X106039427Y-89410285D01*
X106039428Y-89410281D01*
X106056895Y-89300002D01*
X106056895Y-89299995D01*
X106039428Y-89189716D01*
X106039426Y-89189711D01*
X105988734Y-89090222D01*
X105909777Y-89011265D01*
X105810288Y-88960573D01*
X105810283Y-88960571D01*
X105700004Y-88943105D01*
X105699998Y-88943105D01*
X105589718Y-88960571D01*
X105589713Y-88960573D01*
X105490224Y-89011265D01*
X105411267Y-89090222D01*
X105360575Y-89189711D01*
X105360573Y-89189716D01*
X105343107Y-89299995D01*
X105343107Y-89300002D01*
X91414329Y-89300002D01*
X91365193Y-89274966D01*
X91239889Y-89255120D01*
X91114584Y-89274966D01*
X91114583Y-89274966D01*
X91001546Y-89332562D01*
X90911839Y-89422269D01*
X90854243Y-89535306D01*
X90854243Y-89535307D01*
X90834397Y-89660612D01*
X67863062Y-89660612D01*
X68130014Y-88865310D01*
X68303013Y-88400003D01*
X95493106Y-88400003D01*
X95510572Y-88510282D01*
X95510574Y-88510287D01*
X95561266Y-88609776D01*
X95561267Y-88609777D01*
X95640223Y-88688733D01*
X95739714Y-88739426D01*
X95739717Y-88739427D01*
X95849997Y-88756894D01*
X95850000Y-88756894D01*
X95850003Y-88756894D01*
X95960282Y-88739427D01*
X95960283Y-88739426D01*
X95960286Y-88739426D01*
X96059777Y-88688733D01*
X96138733Y-88609777D01*
X96189426Y-88510286D01*
X96206894Y-88400003D01*
X96493106Y-88400003D01*
X96510572Y-88510282D01*
X96510574Y-88510287D01*
X96561266Y-88609776D01*
X96561267Y-88609777D01*
X96640223Y-88688733D01*
X96739714Y-88739426D01*
X96739717Y-88739427D01*
X96849997Y-88756894D01*
X96850000Y-88756894D01*
X96850003Y-88756894D01*
X96960282Y-88739427D01*
X96960283Y-88739426D01*
X96960286Y-88739426D01*
X97059777Y-88688733D01*
X97138733Y-88609777D01*
X97189426Y-88510286D01*
X97206894Y-88400000D01*
X97206894Y-88399996D01*
X97189427Y-88289717D01*
X97189425Y-88289712D01*
X97138733Y-88190223D01*
X97059776Y-88111266D01*
X96960287Y-88060574D01*
X96960282Y-88060572D01*
X96850003Y-88043106D01*
X96849997Y-88043106D01*
X96739717Y-88060572D01*
X96739712Y-88060574D01*
X96640223Y-88111266D01*
X96561266Y-88190223D01*
X96510574Y-88289712D01*
X96510572Y-88289717D01*
X96493106Y-88399996D01*
X96493106Y-88400003D01*
X96206894Y-88400003D01*
X96206894Y-88400000D01*
X96206894Y-88399996D01*
X96189427Y-88289717D01*
X96189425Y-88289712D01*
X96138733Y-88190223D01*
X96059776Y-88111266D01*
X95960287Y-88060574D01*
X95960282Y-88060572D01*
X95850003Y-88043106D01*
X95849997Y-88043106D01*
X95739717Y-88060572D01*
X95739712Y-88060574D01*
X95640223Y-88111266D01*
X95561266Y-88190223D01*
X95510574Y-88289712D01*
X95510572Y-88289717D01*
X95493106Y-88399996D01*
X95493106Y-88400003D01*
X68303013Y-88400003D01*
X68507126Y-87851011D01*
X68527978Y-87800003D01*
X102843106Y-87800003D01*
X102860572Y-87910282D01*
X102860574Y-87910287D01*
X102911266Y-88009776D01*
X102911267Y-88009777D01*
X102990223Y-88088733D01*
X103089714Y-88139426D01*
X103089717Y-88139427D01*
X103199997Y-88156894D01*
X103200000Y-88156894D01*
X103200003Y-88156894D01*
X103310282Y-88139427D01*
X103310283Y-88139426D01*
X103310286Y-88139426D01*
X103409777Y-88088733D01*
X103488733Y-88009777D01*
X103519191Y-87950000D01*
X105794508Y-87950000D01*
X105814354Y-88075304D01*
X105814354Y-88075305D01*
X105832678Y-88111267D01*
X105871950Y-88188342D01*
X105961658Y-88278050D01*
X106074696Y-88335646D01*
X106200000Y-88355492D01*
X106325304Y-88335646D01*
X106438342Y-88278050D01*
X106528050Y-88188342D01*
X106585646Y-88075304D01*
X106605492Y-87950000D01*
X106585646Y-87824696D01*
X106528050Y-87711658D01*
X106438342Y-87621950D01*
X106325304Y-87564354D01*
X106200000Y-87544508D01*
X106074695Y-87564354D01*
X106074694Y-87564354D01*
X105961657Y-87621950D01*
X105871950Y-87711657D01*
X105814354Y-87824694D01*
X105814354Y-87824695D01*
X105794508Y-87950000D01*
X103519191Y-87950000D01*
X103539426Y-87910286D01*
X103541027Y-87900180D01*
X103556894Y-87800003D01*
X103556894Y-87799996D01*
X103539427Y-87689717D01*
X103539425Y-87689712D01*
X103488733Y-87590223D01*
X103409776Y-87511266D01*
X103310287Y-87460574D01*
X103310282Y-87460572D01*
X103200003Y-87443106D01*
X103199997Y-87443106D01*
X103089717Y-87460572D01*
X103089712Y-87460574D01*
X102990223Y-87511266D01*
X102911266Y-87590223D01*
X102860574Y-87689712D01*
X102860572Y-87689717D01*
X102843106Y-87799996D01*
X102843106Y-87800003D01*
X68527978Y-87800003D01*
X68816063Y-87095301D01*
X95457933Y-87095301D01*
X95477779Y-87220605D01*
X95477779Y-87220606D01*
X95523472Y-87310282D01*
X95535375Y-87333643D01*
X95625083Y-87423351D01*
X95738121Y-87480947D01*
X95863425Y-87500793D01*
X95988729Y-87480947D01*
X96101767Y-87423351D01*
X96191475Y-87333643D01*
X96249071Y-87220605D01*
X96252334Y-87200003D01*
X102243106Y-87200003D01*
X102260572Y-87310282D01*
X102260574Y-87310287D01*
X102299954Y-87387574D01*
X102311267Y-87409777D01*
X102390223Y-87488733D01*
X102489714Y-87539426D01*
X102489717Y-87539427D01*
X102599997Y-87556894D01*
X102600000Y-87556894D01*
X102600003Y-87556894D01*
X102710282Y-87539427D01*
X102710283Y-87539426D01*
X102710286Y-87539426D01*
X102809777Y-87488733D01*
X102888733Y-87409777D01*
X102939426Y-87310286D01*
X102949969Y-87243722D01*
X102956894Y-87200003D01*
X102956894Y-87199996D01*
X102939427Y-87089717D01*
X102939425Y-87089712D01*
X102888733Y-86990223D01*
X102809776Y-86911266D01*
X102710287Y-86860574D01*
X102710282Y-86860572D01*
X102600003Y-86843106D01*
X102599997Y-86843106D01*
X102489717Y-86860572D01*
X102489712Y-86860574D01*
X102390223Y-86911266D01*
X102311266Y-86990223D01*
X102260574Y-87089712D01*
X102260572Y-87089717D01*
X102243106Y-87199996D01*
X102243106Y-87200003D01*
X96252334Y-87200003D01*
X96268917Y-87095301D01*
X96249071Y-86969997D01*
X96191475Y-86856959D01*
X96101767Y-86767251D01*
X95988729Y-86709655D01*
X95863425Y-86689809D01*
X95738120Y-86709655D01*
X95738119Y-86709655D01*
X95625082Y-86767251D01*
X95535375Y-86856958D01*
X95477779Y-86969995D01*
X95477779Y-86969996D01*
X95457933Y-87095301D01*
X68816063Y-87095301D01*
X68916611Y-86849344D01*
X69075103Y-86494614D01*
X100711226Y-86494614D01*
X100731072Y-86619918D01*
X100731072Y-86619919D01*
X100766683Y-86689809D01*
X100788668Y-86732956D01*
X100878376Y-86822664D01*
X100991414Y-86880260D01*
X101116718Y-86900106D01*
X101242022Y-86880260D01*
X101355060Y-86822664D01*
X101444768Y-86732956D01*
X101502364Y-86619918D01*
X101522210Y-86494614D01*
X101502364Y-86369310D01*
X101444768Y-86256272D01*
X101355060Y-86166564D01*
X101242022Y-86108968D01*
X101116718Y-86089122D01*
X100991413Y-86108968D01*
X100991412Y-86108968D01*
X100878375Y-86166564D01*
X100788668Y-86256271D01*
X100731072Y-86369308D01*
X100731072Y-86369309D01*
X100711226Y-86494614D01*
X69075103Y-86494614D01*
X69358047Y-85861341D01*
X69387851Y-85800003D01*
X109443106Y-85800003D01*
X109460572Y-85910282D01*
X109460574Y-85910287D01*
X109493404Y-85974719D01*
X109511267Y-86009777D01*
X109590223Y-86088733D01*
X109689714Y-86139426D01*
X109689717Y-86139427D01*
X109799997Y-86156894D01*
X109800000Y-86156894D01*
X109800003Y-86156894D01*
X109910282Y-86139427D01*
X109910283Y-86139426D01*
X109910286Y-86139426D01*
X110009777Y-86088733D01*
X110088733Y-86009777D01*
X110139426Y-85910286D01*
X110139427Y-85910282D01*
X110156894Y-85800003D01*
X110156894Y-85799996D01*
X110139427Y-85689717D01*
X110139425Y-85689712D01*
X110088733Y-85590223D01*
X110009776Y-85511266D01*
X109910287Y-85460574D01*
X109910282Y-85460572D01*
X109800003Y-85443106D01*
X109799997Y-85443106D01*
X109689717Y-85460572D01*
X109689712Y-85460574D01*
X109590223Y-85511266D01*
X109511266Y-85590223D01*
X109460574Y-85689712D01*
X109460572Y-85689717D01*
X109443106Y-85799996D01*
X109443106Y-85800003D01*
X69387851Y-85800003D01*
X69830980Y-84888021D01*
X70185446Y-84214432D01*
X82589597Y-84214432D01*
X82630526Y-84459711D01*
X82711269Y-84694907D01*
X82792398Y-84844820D01*
X82829622Y-84913605D01*
X82829623Y-84913607D01*
X82982354Y-85109835D01*
X82982357Y-85109839D01*
X83165308Y-85278258D01*
X83165310Y-85278259D01*
X83165312Y-85278261D01*
X83373490Y-85414270D01*
X83601216Y-85514160D01*
X83842276Y-85575205D01*
X84028030Y-85590597D01*
X84028032Y-85590597D01*
X84152162Y-85590597D01*
X84152164Y-85590597D01*
X84337918Y-85575205D01*
X84578978Y-85514160D01*
X84806704Y-85414270D01*
X85014882Y-85278261D01*
X85197835Y-85109841D01*
X85350571Y-84913606D01*
X85468925Y-84694907D01*
X85549668Y-84459711D01*
X85590597Y-84214432D01*
X85590597Y-83965762D01*
X85549668Y-83720483D01*
X85468925Y-83485287D01*
X85449830Y-83450003D01*
X105943106Y-83450003D01*
X105960572Y-83560282D01*
X105960574Y-83560287D01*
X106011266Y-83659776D01*
X106011267Y-83659777D01*
X106090223Y-83738733D01*
X106189714Y-83789426D01*
X106189717Y-83789427D01*
X106299997Y-83806894D01*
X106300000Y-83806894D01*
X106300003Y-83806894D01*
X106410282Y-83789427D01*
X106410283Y-83789426D01*
X106410286Y-83789426D01*
X106509777Y-83738733D01*
X106588733Y-83659777D01*
X106639426Y-83560286D01*
X106651305Y-83485287D01*
X106656894Y-83450003D01*
X106656894Y-83449999D01*
X106655786Y-83443008D01*
X106651240Y-83414305D01*
X106662406Y-83367793D01*
X106684506Y-83354248D01*
X106650293Y-83346035D01*
X106650050Y-83345750D01*
X106715491Y-83345750D01*
X106749705Y-83353964D01*
X106768658Y-83376153D01*
X106788099Y-83414307D01*
X106811267Y-83459777D01*
X106890223Y-83538733D01*
X106989714Y-83589426D01*
X106989717Y-83589427D01*
X107099997Y-83606894D01*
X107100000Y-83606894D01*
X107100003Y-83606894D01*
X107210282Y-83589427D01*
X107210283Y-83589426D01*
X107210286Y-83589426D01*
X107309777Y-83538733D01*
X107388733Y-83459777D01*
X107439426Y-83360286D01*
X107439427Y-83360282D01*
X107456894Y-83250003D01*
X107456894Y-83249996D01*
X107439427Y-83139717D01*
X107439425Y-83139712D01*
X107388733Y-83040223D01*
X107348513Y-83000003D01*
X110743106Y-83000003D01*
X110760572Y-83110282D01*
X110760574Y-83110287D01*
X110786550Y-83161267D01*
X110811267Y-83209777D01*
X110890223Y-83288733D01*
X110989714Y-83339426D01*
X110989717Y-83339427D01*
X111099997Y-83356894D01*
X111100000Y-83356894D01*
X111100003Y-83356894D01*
X111210282Y-83339427D01*
X111210283Y-83339426D01*
X111210286Y-83339426D01*
X111309777Y-83288733D01*
X111388733Y-83209777D01*
X111439426Y-83110286D01*
X111442147Y-83093106D01*
X111456894Y-83000003D01*
X111456894Y-82999996D01*
X111439427Y-82889717D01*
X111439425Y-82889712D01*
X111388733Y-82790223D01*
X111309776Y-82711266D01*
X111210287Y-82660574D01*
X111210282Y-82660572D01*
X111100003Y-82643106D01*
X111099997Y-82643106D01*
X110989717Y-82660572D01*
X110989712Y-82660574D01*
X110890223Y-82711266D01*
X110811266Y-82790223D01*
X110760574Y-82889712D01*
X110760572Y-82889717D01*
X110743106Y-82999996D01*
X110743106Y-83000003D01*
X107348513Y-83000003D01*
X107309776Y-82961266D01*
X107210287Y-82910574D01*
X107210282Y-82910572D01*
X107100003Y-82893106D01*
X107099997Y-82893106D01*
X106989717Y-82910572D01*
X106989712Y-82910574D01*
X106890223Y-82961266D01*
X106811266Y-83040223D01*
X106760574Y-83139712D01*
X106760572Y-83139717D01*
X106743106Y-83249996D01*
X106743106Y-83250003D01*
X106748759Y-83285694D01*
X106737593Y-83332207D01*
X106715491Y-83345750D01*
X106650050Y-83345750D01*
X106631341Y-83323846D01*
X106613450Y-83288733D01*
X106588733Y-83240223D01*
X106509777Y-83161267D01*
X106509776Y-83161266D01*
X106410287Y-83110574D01*
X106410282Y-83110572D01*
X106300003Y-83093106D01*
X106299997Y-83093106D01*
X106189717Y-83110572D01*
X106189712Y-83110574D01*
X106090223Y-83161266D01*
X106011266Y-83240223D01*
X105960574Y-83339712D01*
X105960572Y-83339717D01*
X105943106Y-83449996D01*
X105943106Y-83450003D01*
X85449830Y-83450003D01*
X85350571Y-83266588D01*
X85350570Y-83266586D01*
X85197839Y-83070358D01*
X85197836Y-83070354D01*
X85014885Y-82901935D01*
X85014880Y-82901932D01*
X84806709Y-82765927D01*
X84806706Y-82765925D01*
X84682099Y-82711267D01*
X84578978Y-82666034D01*
X84337918Y-82604989D01*
X84152164Y-82589597D01*
X84028030Y-82589597D01*
X83842276Y-82604989D01*
X83601216Y-82666034D01*
X83601214Y-82666034D01*
X83601213Y-82666035D01*
X83373487Y-82765925D01*
X83373484Y-82765927D01*
X83165313Y-82901932D01*
X83165308Y-82901935D01*
X82982357Y-83070354D01*
X82982354Y-83070358D01*
X82829623Y-83266586D01*
X82829622Y-83266588D01*
X82770329Y-83376153D01*
X82725075Y-83459777D01*
X82711270Y-83485286D01*
X82711269Y-83485287D01*
X82675518Y-83589427D01*
X82630526Y-83720483D01*
X82589597Y-83965762D01*
X82589597Y-84214432D01*
X70185446Y-84214432D01*
X70334920Y-83930389D01*
X70869349Y-82989431D01*
X71168507Y-82500003D01*
X109443106Y-82500003D01*
X109460572Y-82610282D01*
X109460574Y-82610287D01*
X109488979Y-82666035D01*
X109511267Y-82709777D01*
X109590223Y-82788733D01*
X109689714Y-82839426D01*
X109689717Y-82839427D01*
X109799997Y-82856894D01*
X109800000Y-82856894D01*
X109800003Y-82856894D01*
X109910282Y-82839427D01*
X109910283Y-82839426D01*
X109910286Y-82839426D01*
X110009777Y-82788733D01*
X110088733Y-82709777D01*
X110139426Y-82610286D01*
X110156894Y-82500000D01*
X110156894Y-82499996D01*
X110139427Y-82389717D01*
X110139425Y-82389712D01*
X110088733Y-82290223D01*
X110009776Y-82211266D01*
X109910287Y-82160574D01*
X109910282Y-82160572D01*
X109800003Y-82143106D01*
X109799997Y-82143106D01*
X109689717Y-82160572D01*
X109689712Y-82160574D01*
X109590223Y-82211266D01*
X109511266Y-82290223D01*
X109460574Y-82389712D01*
X109460572Y-82389717D01*
X109443106Y-82499996D01*
X109443106Y-82500003D01*
X71168507Y-82500003D01*
X71433715Y-82066118D01*
X72027437Y-81161402D01*
X72140933Y-81000003D01*
X107643106Y-81000003D01*
X107660572Y-81110282D01*
X107660574Y-81110287D01*
X107711266Y-81209776D01*
X107711267Y-81209777D01*
X107790223Y-81288733D01*
X107889714Y-81339426D01*
X107889717Y-81339427D01*
X107999997Y-81356894D01*
X108000000Y-81356894D01*
X108000003Y-81356894D01*
X108110282Y-81339427D01*
X108110283Y-81339426D01*
X108110286Y-81339426D01*
X108209777Y-81288733D01*
X108288733Y-81209777D01*
X108339426Y-81110286D01*
X108339427Y-81110282D01*
X108356894Y-81000003D01*
X108356894Y-80999996D01*
X108343420Y-80914927D01*
X108354586Y-80868414D01*
X108395373Y-80843420D01*
X108414927Y-80843420D01*
X108499997Y-80856894D01*
X108500000Y-80856894D01*
X108500003Y-80856894D01*
X108610282Y-80839427D01*
X108610283Y-80839426D01*
X108610286Y-80839426D01*
X108709777Y-80788733D01*
X108788733Y-80709777D01*
X108839426Y-80610286D01*
X108847577Y-80558823D01*
X108872570Y-80518039D01*
X108919084Y-80506871D01*
X108937679Y-80512913D01*
X108989714Y-80539426D01*
X108989715Y-80539426D01*
X108989717Y-80539427D01*
X109099997Y-80556894D01*
X109100000Y-80556894D01*
X109100003Y-80556894D01*
X109210282Y-80539427D01*
X109210283Y-80539426D01*
X109210286Y-80539426D01*
X109309777Y-80488733D01*
X109388733Y-80409777D01*
X109439426Y-80310286D01*
X109442604Y-80290223D01*
X109456894Y-80200003D01*
X109456894Y-80199996D01*
X109439427Y-80089717D01*
X109439425Y-80089712D01*
X109388733Y-79990223D01*
X109309776Y-79911266D01*
X109210287Y-79860574D01*
X109210282Y-79860572D01*
X109100003Y-79843106D01*
X109099997Y-79843106D01*
X108989717Y-79860572D01*
X108989712Y-79860574D01*
X108890223Y-79911266D01*
X108811266Y-79990223D01*
X108760574Y-80089712D01*
X108760572Y-80089717D01*
X108752422Y-80141175D01*
X108727428Y-80181961D01*
X108680914Y-80193127D01*
X108662318Y-80187085D01*
X108610287Y-80160574D01*
X108610282Y-80160572D01*
X108500003Y-80143106D01*
X108499997Y-80143106D01*
X108389717Y-80160572D01*
X108389712Y-80160574D01*
X108290223Y-80211266D01*
X108211266Y-80290223D01*
X108160574Y-80389712D01*
X108160572Y-80389717D01*
X108143106Y-80499996D01*
X108143106Y-80499997D01*
X108143106Y-80500000D01*
X108149351Y-80539426D01*
X108156580Y-80585072D01*
X108145412Y-80631586D01*
X108104626Y-80656580D01*
X108085072Y-80656580D01*
X108046179Y-80650420D01*
X108000000Y-80643106D01*
X107999998Y-80643106D01*
X107999997Y-80643106D01*
X107889717Y-80660572D01*
X107889712Y-80660574D01*
X107790223Y-80711266D01*
X107711266Y-80790223D01*
X107660574Y-80889712D01*
X107660572Y-80889717D01*
X107643106Y-80999996D01*
X107643106Y-81000003D01*
X72140933Y-81000003D01*
X72649901Y-80276216D01*
X72687930Y-80225667D01*
X73296129Y-79417236D01*
X73297081Y-79416038D01*
X73335090Y-79370733D01*
X73336634Y-79367203D01*
X73338309Y-79363917D01*
X73340916Y-79359467D01*
X73340921Y-79359461D01*
X73365254Y-79301784D01*
X73392776Y-79238878D01*
X73393046Y-79236765D01*
X73401388Y-79171332D01*
X73425136Y-79129808D01*
X73438486Y-79121910D01*
X73443772Y-79119614D01*
X73521582Y-79085817D01*
X73633638Y-78994652D01*
X73716944Y-78876635D01*
X73717761Y-78874335D01*
X81249500Y-78874335D01*
X81290429Y-79119614D01*
X81371172Y-79354810D01*
X81408993Y-79424697D01*
X81489525Y-79573508D01*
X81489526Y-79573510D01*
X81642257Y-79769738D01*
X81642260Y-79769742D01*
X81825211Y-79938161D01*
X81825213Y-79938162D01*
X81825215Y-79938164D01*
X82033393Y-80074173D01*
X82261119Y-80174063D01*
X82502179Y-80235108D01*
X82687933Y-80250500D01*
X82687935Y-80250500D01*
X82812065Y-80250500D01*
X82812067Y-80250500D01*
X82997821Y-80235108D01*
X83238881Y-80174063D01*
X83466607Y-80074173D01*
X83674785Y-79938164D01*
X83857738Y-79769744D01*
X84010474Y-79573509D01*
X84128828Y-79354810D01*
X84209571Y-79119614D01*
X84229709Y-78998930D01*
X87875798Y-78998930D01*
X87895630Y-79225616D01*
X87895633Y-79225632D01*
X87954525Y-79445420D01*
X87954526Y-79445422D01*
X88050697Y-79651661D01*
X88181219Y-79838068D01*
X88342125Y-79998974D01*
X88360239Y-80011657D01*
X88528532Y-80129496D01*
X88528531Y-80129496D01*
X88624101Y-80174061D01*
X88734770Y-80225667D01*
X88734772Y-80225667D01*
X88734773Y-80225668D01*
X88954561Y-80284560D01*
X88954567Y-80284561D01*
X88954574Y-80284563D01*
X89124482Y-80299428D01*
X89238050Y-80299428D01*
X89407958Y-80284563D01*
X89407967Y-80284560D01*
X89407970Y-80284560D01*
X89572811Y-80240391D01*
X89627762Y-80225667D01*
X89834000Y-80129496D01*
X90020405Y-79998975D01*
X90181313Y-79838067D01*
X90311834Y-79651662D01*
X90359240Y-79550001D01*
X98444508Y-79550001D01*
X98464354Y-79675305D01*
X98464354Y-79675306D01*
X98521950Y-79788343D01*
X98589414Y-79855807D01*
X98607720Y-79900001D01*
X98589414Y-79944195D01*
X98521951Y-80011657D01*
X98464355Y-80124694D01*
X98464355Y-80124695D01*
X98444509Y-80250000D01*
X98464355Y-80375304D01*
X98464355Y-80375305D01*
X98481919Y-80409776D01*
X98521951Y-80488342D01*
X98611659Y-80578050D01*
X98724697Y-80635646D01*
X98850001Y-80655492D01*
X98975305Y-80635646D01*
X99088343Y-80578050D01*
X99178051Y-80488342D01*
X99235647Y-80375304D01*
X99239655Y-80350000D01*
X100269508Y-80350000D01*
X100289354Y-80475304D01*
X100289354Y-80475305D01*
X100322025Y-80539425D01*
X100346950Y-80588342D01*
X100436658Y-80678050D01*
X100549696Y-80735646D01*
X100675000Y-80755492D01*
X100800304Y-80735646D01*
X100913342Y-80678050D01*
X101003050Y-80588342D01*
X101060646Y-80475304D01*
X101080492Y-80350000D01*
X101060646Y-80224696D01*
X101003050Y-80111658D01*
X100935586Y-80044194D01*
X100917280Y-80000000D01*
X100935586Y-79955806D01*
X100953231Y-79938161D01*
X101003050Y-79888342D01*
X101060646Y-79775304D01*
X101080492Y-79650000D01*
X101060646Y-79524696D01*
X101003050Y-79411658D01*
X100935586Y-79344194D01*
X100917280Y-79300000D01*
X100935586Y-79255806D01*
X100965776Y-79225616D01*
X101003050Y-79188342D01*
X101060646Y-79075304D01*
X101080492Y-78950000D01*
X101060646Y-78824696D01*
X101003050Y-78711658D01*
X100913342Y-78621950D01*
X100800304Y-78564354D01*
X100675000Y-78544508D01*
X100549695Y-78564354D01*
X100549694Y-78564354D01*
X100436657Y-78621950D01*
X100346950Y-78711657D01*
X100289354Y-78824694D01*
X100289354Y-78824695D01*
X100269508Y-78950000D01*
X100289354Y-79075304D01*
X100289354Y-79075305D01*
X100346950Y-79188342D01*
X100414414Y-79255806D01*
X100432720Y-79300000D01*
X100414414Y-79344194D01*
X100346950Y-79411657D01*
X100289354Y-79524694D01*
X100289354Y-79524695D01*
X100269508Y-79650000D01*
X100289354Y-79775304D01*
X100289354Y-79775305D01*
X100346950Y-79888342D01*
X100414414Y-79955806D01*
X100432720Y-80000000D01*
X100414414Y-80044194D01*
X100346950Y-80111657D01*
X100289354Y-80224694D01*
X100289354Y-80224695D01*
X100269508Y-80350000D01*
X99239655Y-80350000D01*
X99255493Y-80250000D01*
X99235647Y-80124696D01*
X99178051Y-80011658D01*
X99110587Y-79944194D01*
X99092281Y-79900000D01*
X99110587Y-79855806D01*
X99128326Y-79838067D01*
X99178050Y-79788343D01*
X99235646Y-79675305D01*
X99255492Y-79550001D01*
X99235646Y-79424697D01*
X99178050Y-79311659D01*
X99110585Y-79244194D01*
X99092279Y-79200000D01*
X99110584Y-79155807D01*
X99178050Y-79088342D01*
X99235646Y-78975304D01*
X99255492Y-78850000D01*
X99235646Y-78724696D01*
X99178050Y-78611658D01*
X99088342Y-78521950D01*
X98975304Y-78464354D01*
X98850000Y-78444508D01*
X98724695Y-78464354D01*
X98724694Y-78464354D01*
X98611657Y-78521950D01*
X98521950Y-78611657D01*
X98464354Y-78724694D01*
X98464354Y-78724695D01*
X98444508Y-78850000D01*
X98464354Y-78975304D01*
X98464354Y-78975305D01*
X98521950Y-79088342D01*
X98589414Y-79155806D01*
X98607720Y-79200000D01*
X98589414Y-79244194D01*
X98521950Y-79311658D01*
X98464354Y-79424695D01*
X98464354Y-79424696D01*
X98444508Y-79550001D01*
X90359240Y-79550001D01*
X90408005Y-79445424D01*
X90446971Y-79300000D01*
X90466898Y-79225632D01*
X90466898Y-79225629D01*
X90466901Y-79225620D01*
X90486631Y-79000102D01*
X90486734Y-78998930D01*
X90486734Y-78998925D01*
X90477428Y-78892557D01*
X91622500Y-78892557D01*
X91629898Y-78929748D01*
X91629898Y-78929749D01*
X91658077Y-78971922D01*
X91686257Y-78990750D01*
X91700252Y-79000102D01*
X91737442Y-79007500D01*
X91737443Y-79007500D01*
X93462557Y-79007500D01*
X93462558Y-79007500D01*
X93499748Y-79000102D01*
X93541922Y-78971922D01*
X93570102Y-78929748D01*
X93577500Y-78892558D01*
X93577500Y-77167442D01*
X93570102Y-77130252D01*
X93570101Y-77130250D01*
X93541922Y-77088077D01*
X93499748Y-77059898D01*
X93462558Y-77052500D01*
X91737442Y-77052500D01*
X91718847Y-77056199D01*
X91700251Y-77059898D01*
X91700250Y-77059898D01*
X91658077Y-77088077D01*
X91629898Y-77130250D01*
X91629898Y-77130251D01*
X91622500Y-77167442D01*
X91622500Y-78892557D01*
X90477428Y-78892557D01*
X90476035Y-78876634D01*
X90466901Y-78772236D01*
X90458402Y-78740519D01*
X90408006Y-78552435D01*
X90408005Y-78552433D01*
X90311834Y-78346194D01*
X90181312Y-78159787D01*
X90020406Y-77998881D01*
X89893149Y-77909776D01*
X89834000Y-77868360D01*
X89833998Y-77868359D01*
X89834000Y-77868359D01*
X89627760Y-77772188D01*
X89627758Y-77772187D01*
X89407970Y-77713295D01*
X89407954Y-77713292D01*
X89238050Y-77698428D01*
X89124482Y-77698428D01*
X88954577Y-77713292D01*
X88954561Y-77713295D01*
X88734773Y-77772187D01*
X88734771Y-77772188D01*
X88528532Y-77868359D01*
X88342125Y-77998881D01*
X88181219Y-78159787D01*
X88050697Y-78346194D01*
X87954526Y-78552433D01*
X87954525Y-78552435D01*
X87895633Y-78772223D01*
X87895630Y-78772239D01*
X87875798Y-78998925D01*
X87875798Y-78998930D01*
X84229709Y-78998930D01*
X84250500Y-78874335D01*
X84250500Y-78625665D01*
X84209571Y-78380386D01*
X84128828Y-78145190D01*
X84010474Y-77926491D01*
X84010473Y-77926489D01*
X83857742Y-77730261D01*
X83857739Y-77730257D01*
X83674788Y-77561838D01*
X83674783Y-77561835D01*
X83672141Y-77560109D01*
X83466607Y-77425827D01*
X83238881Y-77325937D01*
X82997821Y-77264892D01*
X82812067Y-77249500D01*
X82687933Y-77249500D01*
X82502179Y-77264892D01*
X82261119Y-77325937D01*
X82261117Y-77325937D01*
X82261116Y-77325938D01*
X82033390Y-77425828D01*
X82033387Y-77425830D01*
X81825216Y-77561835D01*
X81825211Y-77561838D01*
X81642260Y-77730257D01*
X81642257Y-77730261D01*
X81489526Y-77926489D01*
X81489525Y-77926491D01*
X81419519Y-78055853D01*
X81383816Y-78121827D01*
X81371173Y-78145189D01*
X81371172Y-78145190D01*
X81290429Y-78380385D01*
X81281661Y-78432932D01*
X81249500Y-78625665D01*
X81249500Y-78874335D01*
X73717761Y-78874335D01*
X73765319Y-78740519D01*
X73771673Y-78647624D01*
X73792951Y-78604783D01*
X73825517Y-78589972D01*
X73843049Y-78587562D01*
X73886049Y-78581652D01*
X74018547Y-78524100D01*
X74130603Y-78432935D01*
X74213909Y-78314918D01*
X74262284Y-78178802D01*
X74270909Y-78052699D01*
X74292187Y-78009859D01*
X74324751Y-77995048D01*
X74416145Y-77982487D01*
X74548643Y-77924935D01*
X74660699Y-77833770D01*
X74744005Y-77715753D01*
X74792380Y-77579637D01*
X74798734Y-77486743D01*
X74820012Y-77443902D01*
X74852578Y-77429091D01*
X74913111Y-77420771D01*
X75045609Y-77363219D01*
X75157665Y-77272054D01*
X75240971Y-77154037D01*
X75289346Y-77017921D01*
X75290572Y-77000004D01*
X95867467Y-77000004D01*
X95887564Y-77255377D01*
X95887565Y-77255381D01*
X95929269Y-77429091D01*
X95947369Y-77504480D01*
X96045402Y-77741154D01*
X96080730Y-77798804D01*
X96179251Y-77959576D01*
X96179255Y-77959582D01*
X96345621Y-78154372D01*
X96345627Y-78154378D01*
X96540417Y-78320744D01*
X96540421Y-78320747D01*
X96758846Y-78454598D01*
X96995520Y-78552631D01*
X97244616Y-78612434D01*
X97244618Y-78612434D01*
X97244622Y-78612435D01*
X97499996Y-78632533D01*
X97500000Y-78632533D01*
X97500004Y-78632533D01*
X97755377Y-78612435D01*
X97755379Y-78612434D01*
X97755384Y-78612434D01*
X98004480Y-78552631D01*
X98241154Y-78454598D01*
X98459579Y-78320747D01*
X98625097Y-78179381D01*
X98654372Y-78154378D01*
X98654378Y-78154372D01*
X98756603Y-78034682D01*
X98820747Y-77959579D01*
X98954598Y-77741154D01*
X99052631Y-77504480D01*
X99112434Y-77255384D01*
X99112898Y-77249500D01*
X99132533Y-77000004D01*
X100867467Y-77000004D01*
X100887564Y-77255377D01*
X100887565Y-77255381D01*
X100929269Y-77429091D01*
X100947369Y-77504480D01*
X101045402Y-77741154D01*
X101080730Y-77798804D01*
X101179251Y-77959576D01*
X101179255Y-77959582D01*
X101345621Y-78154372D01*
X101345627Y-78154378D01*
X101540417Y-78320744D01*
X101540421Y-78320747D01*
X101758846Y-78454598D01*
X101995520Y-78552631D01*
X102244616Y-78612434D01*
X102244618Y-78612434D01*
X102244622Y-78612435D01*
X102499996Y-78632533D01*
X102500000Y-78632533D01*
X102500004Y-78632533D01*
X102755377Y-78612435D01*
X102755379Y-78612434D01*
X102755384Y-78612434D01*
X102807163Y-78600003D01*
X106143106Y-78600003D01*
X106160572Y-78710282D01*
X106160574Y-78710287D01*
X106211266Y-78809776D01*
X106211267Y-78809777D01*
X106290223Y-78888733D01*
X106389714Y-78939426D01*
X106389717Y-78939427D01*
X106499997Y-78956894D01*
X106500000Y-78956894D01*
X106500003Y-78956894D01*
X106610282Y-78939427D01*
X106610283Y-78939426D01*
X106610286Y-78939426D01*
X106709777Y-78888733D01*
X106788733Y-78809777D01*
X106839426Y-78710286D01*
X106849351Y-78647625D01*
X106856894Y-78600003D01*
X106856894Y-78599996D01*
X106839427Y-78489717D01*
X106839425Y-78489712D01*
X106788733Y-78390223D01*
X106709776Y-78311266D01*
X106610287Y-78260574D01*
X106610282Y-78260572D01*
X106500003Y-78243106D01*
X106499997Y-78243106D01*
X106389717Y-78260572D01*
X106389712Y-78260574D01*
X106290223Y-78311266D01*
X106211266Y-78390223D01*
X106160574Y-78489712D01*
X106160572Y-78489717D01*
X106143106Y-78599996D01*
X106143106Y-78600003D01*
X102807163Y-78600003D01*
X103004480Y-78552631D01*
X103241154Y-78454598D01*
X103459579Y-78320747D01*
X103625097Y-78179381D01*
X103654372Y-78154378D01*
X103654378Y-78154372D01*
X103756603Y-78034682D01*
X103820747Y-77959579D01*
X103954598Y-77741154D01*
X103971643Y-77700003D01*
X106543106Y-77700003D01*
X106560572Y-77810282D01*
X106560574Y-77810287D01*
X106590164Y-77868360D01*
X106611267Y-77909777D01*
X106690223Y-77988733D01*
X106789714Y-78039426D01*
X106789717Y-78039427D01*
X106899997Y-78056894D01*
X106900000Y-78056894D01*
X106900003Y-78056894D01*
X107010282Y-78039427D01*
X107010283Y-78039426D01*
X107010286Y-78039426D01*
X107109777Y-77988733D01*
X107188733Y-77909777D01*
X107239426Y-77810286D01*
X107241245Y-77798804D01*
X107256894Y-77700003D01*
X107256894Y-77699996D01*
X107239427Y-77589717D01*
X107239425Y-77589712D01*
X107188733Y-77490223D01*
X107109776Y-77411266D01*
X107010287Y-77360574D01*
X107010282Y-77360572D01*
X106900003Y-77343106D01*
X106899997Y-77343106D01*
X106789717Y-77360572D01*
X106789712Y-77360574D01*
X106690223Y-77411266D01*
X106611266Y-77490223D01*
X106560574Y-77589712D01*
X106560572Y-77589717D01*
X106543106Y-77699996D01*
X106543106Y-77700003D01*
X103971643Y-77700003D01*
X104052631Y-77504480D01*
X104112434Y-77255384D01*
X104112898Y-77249500D01*
X104132533Y-77000004D01*
X104132533Y-76999995D01*
X104112435Y-76744622D01*
X104112434Y-76744618D01*
X104104203Y-76710334D01*
X104077715Y-76600003D01*
X107143106Y-76600003D01*
X107160572Y-76710282D01*
X107160574Y-76710287D01*
X107207345Y-76802080D01*
X107211267Y-76809777D01*
X107290223Y-76888733D01*
X107389714Y-76939426D01*
X107389717Y-76939427D01*
X107499997Y-76956894D01*
X107500000Y-76956894D01*
X107500003Y-76956894D01*
X107610282Y-76939427D01*
X107610283Y-76939426D01*
X107610286Y-76939426D01*
X107709777Y-76888733D01*
X107788733Y-76809777D01*
X107839426Y-76710286D01*
X107839427Y-76710282D01*
X107856894Y-76600003D01*
X107856894Y-76599996D01*
X107839427Y-76489717D01*
X107839425Y-76489712D01*
X107788733Y-76390223D01*
X107709776Y-76311266D01*
X107610287Y-76260574D01*
X107610282Y-76260572D01*
X107500003Y-76243106D01*
X107499997Y-76243106D01*
X107389717Y-76260572D01*
X107389712Y-76260574D01*
X107290223Y-76311266D01*
X107211266Y-76390223D01*
X107160574Y-76489712D01*
X107160572Y-76489717D01*
X107143106Y-76599996D01*
X107143106Y-76600003D01*
X104077715Y-76600003D01*
X104052631Y-76495520D01*
X103954598Y-76258846D01*
X103820747Y-76040421D01*
X103812361Y-76030602D01*
X103654378Y-75845627D01*
X103654372Y-75845621D01*
X103459582Y-75679255D01*
X103459576Y-75679251D01*
X103268058Y-75561889D01*
X103241154Y-75545402D01*
X103004480Y-75447369D01*
X103004474Y-75447367D01*
X103004473Y-75447367D01*
X102755381Y-75387565D01*
X102755377Y-75387564D01*
X102500004Y-75367467D01*
X102499996Y-75367467D01*
X102244622Y-75387564D01*
X102244618Y-75387565D01*
X101995526Y-75447367D01*
X101995522Y-75447368D01*
X101995520Y-75447369D01*
X101758846Y-75545402D01*
X101758844Y-75545403D01*
X101540423Y-75679251D01*
X101540417Y-75679255D01*
X101345627Y-75845621D01*
X101345621Y-75845627D01*
X101179255Y-76040417D01*
X101179251Y-76040423D01*
X101056729Y-76240362D01*
X101045402Y-76258846D01*
X100963415Y-76456783D01*
X100947367Y-76495526D01*
X100887565Y-76744618D01*
X100887564Y-76744622D01*
X100867467Y-76999995D01*
X100867467Y-77000004D01*
X99132533Y-77000004D01*
X99132533Y-76999995D01*
X99112435Y-76744622D01*
X99112434Y-76744618D01*
X99104203Y-76710334D01*
X99052631Y-76495520D01*
X98954598Y-76258846D01*
X98820747Y-76040421D01*
X98812361Y-76030602D01*
X98654378Y-75845627D01*
X98654372Y-75845621D01*
X98459582Y-75679255D01*
X98459576Y-75679251D01*
X98268058Y-75561889D01*
X98241154Y-75545402D01*
X98004480Y-75447369D01*
X98004474Y-75447367D01*
X98004473Y-75447367D01*
X97755381Y-75387565D01*
X97755377Y-75387564D01*
X97500004Y-75367467D01*
X97499996Y-75367467D01*
X97244622Y-75387564D01*
X97244618Y-75387565D01*
X96995526Y-75447367D01*
X96995522Y-75447368D01*
X96995520Y-75447369D01*
X96758846Y-75545402D01*
X96758844Y-75545403D01*
X96540423Y-75679251D01*
X96540417Y-75679255D01*
X96345627Y-75845621D01*
X96345621Y-75845627D01*
X96179255Y-76040417D01*
X96179251Y-76040423D01*
X96056729Y-76240362D01*
X96045402Y-76258846D01*
X95963415Y-76456783D01*
X95947367Y-76495526D01*
X95887565Y-76744618D01*
X95887564Y-76744622D01*
X95867467Y-76999995D01*
X95867467Y-77000004D01*
X75290572Y-77000004D01*
X75295700Y-76925026D01*
X75316978Y-76882185D01*
X75349544Y-76867374D01*
X75367076Y-76864964D01*
X75410076Y-76859054D01*
X75542574Y-76801502D01*
X75654630Y-76710337D01*
X75737936Y-76592320D01*
X75786311Y-76456204D01*
X75792665Y-76363309D01*
X75813943Y-76320468D01*
X75846509Y-76305657D01*
X75864041Y-76303247D01*
X75907041Y-76297337D01*
X76039539Y-76239785D01*
X76151595Y-76148620D01*
X76234901Y-76030603D01*
X76283276Y-75894487D01*
X76285758Y-75858198D01*
X76307035Y-75815355D01*
X76332527Y-75801935D01*
X76334424Y-75801446D01*
X76337568Y-75800638D01*
X76387283Y-75788299D01*
X76399348Y-75785306D01*
X76399354Y-75785302D01*
X76401869Y-75784315D01*
X76405503Y-75783138D01*
X76409378Y-75782141D01*
X76464171Y-75749467D01*
X76514680Y-75721543D01*
X76515467Y-75720784D01*
X76526833Y-75712100D01*
X76532991Y-75708430D01*
X76569650Y-75668880D01*
X76571176Y-75667346D01*
X77257645Y-75024318D01*
X77971263Y-74392693D01*
X78702415Y-73781451D01*
X79450520Y-73191078D01*
X79755617Y-72963974D01*
X79801997Y-72952271D01*
X79843070Y-72976791D01*
X79844141Y-72978274D01*
X80549814Y-73986589D01*
X81166737Y-74868093D01*
X81183586Y-74892167D01*
X81189523Y-74902688D01*
X81194064Y-74912939D01*
X81194065Y-74912940D01*
X81224056Y-74950122D01*
X81225335Y-74951822D01*
X81235473Y-74966307D01*
X81235475Y-74966309D01*
X81235477Y-74966312D01*
X81246377Y-74977931D01*
X81247909Y-74979692D01*
X81355874Y-75113544D01*
X81355886Y-75113558D01*
X81624882Y-75387149D01*
X81919406Y-75633062D01*
X82236616Y-75848924D01*
X82236620Y-75848926D01*
X82573463Y-76032657D01*
X82926692Y-76182486D01*
X83111829Y-76240363D01*
X83292905Y-76296971D01*
X83365572Y-76312066D01*
X83668578Y-76375010D01*
X84050090Y-76415851D01*
X84433768Y-76419100D01*
X84815917Y-76384727D01*
X85192857Y-76313062D01*
X85560958Y-76204795D01*
X85916674Y-76060970D01*
X86256580Y-75882971D01*
X86474522Y-75740001D01*
X91269363Y-75740001D01*
X91326567Y-75953487D01*
X91326568Y-75953489D01*
X91426398Y-76167575D01*
X91561892Y-76361081D01*
X91728918Y-76528107D01*
X91922426Y-76663603D01*
X92136503Y-76763428D01*
X92136519Y-76763434D01*
X92349998Y-76820635D01*
X92350000Y-76820634D01*
X92350000Y-75925501D01*
X92457685Y-75974680D01*
X92564237Y-75990000D01*
X92635763Y-75990000D01*
X92742315Y-75974680D01*
X92850000Y-75925501D01*
X92850000Y-76820634D01*
X92850001Y-76820635D01*
X93063480Y-76763434D01*
X93063496Y-76763428D01*
X93277573Y-76663603D01*
X93471081Y-76528107D01*
X93638107Y-76361081D01*
X93773601Y-76167575D01*
X93873431Y-75953489D01*
X93873432Y-75953487D01*
X93930636Y-75740001D01*
X93930636Y-75740000D01*
X93033686Y-75740000D01*
X93059493Y-75699844D01*
X93100000Y-75561889D01*
X93100000Y-75418111D01*
X93059493Y-75280156D01*
X93033686Y-75240000D01*
X93930636Y-75240000D01*
X93930636Y-75239998D01*
X93873432Y-75026512D01*
X93873431Y-75026510D01*
X93773600Y-74812422D01*
X93638109Y-74618920D01*
X93471081Y-74451892D01*
X93277575Y-74316398D01*
X93063489Y-74216568D01*
X93063487Y-74216567D01*
X92850001Y-74159363D01*
X92850000Y-74159364D01*
X92850000Y-75054498D01*
X92742315Y-75005320D01*
X92635763Y-74990000D01*
X92564237Y-74990000D01*
X92457685Y-75005320D01*
X92350000Y-75054498D01*
X92350000Y-74159364D01*
X92349998Y-74159363D01*
X92136512Y-74216567D01*
X92136510Y-74216568D01*
X91922422Y-74316399D01*
X91728920Y-74451890D01*
X91561890Y-74618920D01*
X91426399Y-74812422D01*
X91326568Y-75026510D01*
X91326567Y-75026512D01*
X91269363Y-75239998D01*
X91269364Y-75240000D01*
X92166314Y-75240000D01*
X92140507Y-75280156D01*
X92100000Y-75418111D01*
X92100000Y-75561889D01*
X92140507Y-75699844D01*
X92166314Y-75740000D01*
X91269364Y-75740000D01*
X91269363Y-75740001D01*
X86474522Y-75740001D01*
X86577402Y-75672512D01*
X86876050Y-75431621D01*
X87149650Y-75162617D01*
X87395564Y-74868091D01*
X87611426Y-74550880D01*
X87795157Y-74214037D01*
X87944986Y-73860808D01*
X88042149Y-73550003D01*
X89943106Y-73550003D01*
X89960572Y-73660282D01*
X89960574Y-73660287D01*
X90007439Y-73752265D01*
X90011267Y-73759777D01*
X90090223Y-73838733D01*
X90189714Y-73889426D01*
X90189717Y-73889427D01*
X90299997Y-73906894D01*
X90300000Y-73906894D01*
X90300003Y-73906894D01*
X90410282Y-73889427D01*
X90410283Y-73889426D01*
X90410286Y-73889426D01*
X90509777Y-73838733D01*
X90588733Y-73759777D01*
X90639426Y-73660286D01*
X90642423Y-73641365D01*
X90656894Y-73550003D01*
X90656894Y-73549996D01*
X90639427Y-73439717D01*
X90639425Y-73439712D01*
X90588733Y-73340223D01*
X90509776Y-73261266D01*
X90410287Y-73210574D01*
X90410282Y-73210572D01*
X90300003Y-73193106D01*
X90299997Y-73193106D01*
X90189717Y-73210572D01*
X90189712Y-73210574D01*
X90090223Y-73261266D01*
X90011266Y-73340223D01*
X89960574Y-73439712D01*
X89960572Y-73439717D01*
X89943106Y-73549996D01*
X89943106Y-73550003D01*
X88042149Y-73550003D01*
X88059471Y-73494594D01*
X88137510Y-73118922D01*
X88155593Y-72950000D01*
X91617770Y-72950000D01*
X91636642Y-73141622D01*
X91651645Y-73191078D01*
X91692538Y-73325883D01*
X91692539Y-73325884D01*
X91783302Y-73495692D01*
X91783306Y-73495698D01*
X91905459Y-73644541D01*
X92054302Y-73766694D01*
X92054304Y-73766695D01*
X92054307Y-73766697D01*
X92084928Y-73783064D01*
X92224117Y-73857462D01*
X92408376Y-73913357D01*
X92600000Y-73932230D01*
X92791624Y-73913357D01*
X92975883Y-73857462D01*
X93145698Y-73766694D01*
X93294541Y-73644541D01*
X93416694Y-73495698D01*
X93507462Y-73325883D01*
X93563357Y-73141624D01*
X93582230Y-72950000D01*
X93563357Y-72758376D01*
X93507462Y-72574117D01*
X93419893Y-72410286D01*
X93416697Y-72404307D01*
X93416693Y-72404301D01*
X93375192Y-72353732D01*
X93294541Y-72255459D01*
X93145698Y-72133306D01*
X93145692Y-72133302D01*
X93009087Y-72060286D01*
X92975883Y-72042538D01*
X92858111Y-72006811D01*
X92791622Y-71986642D01*
X92600000Y-71967770D01*
X92408377Y-71986642D01*
X92290604Y-72022369D01*
X92224117Y-72042538D01*
X92224115Y-72042538D01*
X92224115Y-72042539D01*
X92054307Y-72133302D01*
X92054301Y-72133306D01*
X91905459Y-72255459D01*
X91783306Y-72404301D01*
X91783302Y-72404307D01*
X91726928Y-72509777D01*
X91692538Y-72574117D01*
X91672727Y-72639425D01*
X91636642Y-72758377D01*
X91617770Y-72949999D01*
X91617770Y-72950000D01*
X88155593Y-72950000D01*
X88178351Y-72737410D01*
X88181600Y-72353732D01*
X88176767Y-72300003D01*
X89093106Y-72300003D01*
X89110572Y-72410282D01*
X89110574Y-72410287D01*
X89161266Y-72509776D01*
X89161267Y-72509777D01*
X89240223Y-72588733D01*
X89339714Y-72639426D01*
X89339717Y-72639427D01*
X89449997Y-72656894D01*
X89450000Y-72656894D01*
X89450003Y-72656894D01*
X89560282Y-72639427D01*
X89560283Y-72639426D01*
X89560286Y-72639426D01*
X89659777Y-72588733D01*
X89738733Y-72509777D01*
X89789426Y-72410286D01*
X89798383Y-72353736D01*
X89806894Y-72300003D01*
X89806894Y-72299996D01*
X89789427Y-72189717D01*
X89789425Y-72189712D01*
X89738733Y-72090223D01*
X89659776Y-72011266D01*
X89560287Y-71960574D01*
X89560282Y-71960572D01*
X89493550Y-71950003D01*
X106118106Y-71950003D01*
X106135572Y-72060282D01*
X106135574Y-72060287D01*
X106178570Y-72144671D01*
X106186267Y-72159777D01*
X106265223Y-72238733D01*
X106364714Y-72289426D01*
X106364717Y-72289427D01*
X106474997Y-72306894D01*
X106475000Y-72306894D01*
X106475003Y-72306894D01*
X106585282Y-72289427D01*
X106585283Y-72289426D01*
X106585286Y-72289426D01*
X106684777Y-72238733D01*
X106763733Y-72159777D01*
X106814426Y-72060286D01*
X106815540Y-72053255D01*
X106831894Y-71950003D01*
X106831894Y-71949996D01*
X106814427Y-71839717D01*
X106814425Y-71839712D01*
X106763733Y-71740223D01*
X106723510Y-71700000D01*
X115319508Y-71700000D01*
X115339354Y-71825304D01*
X115339354Y-71825305D01*
X115362037Y-71869822D01*
X115396950Y-71938342D01*
X115486658Y-72028050D01*
X115599696Y-72085646D01*
X115725000Y-72105492D01*
X115850304Y-72085646D01*
X115963342Y-72028050D01*
X116053050Y-71938342D01*
X116110646Y-71825304D01*
X116118985Y-71772650D01*
X116143978Y-71731867D01*
X116190492Y-71720699D01*
X116209090Y-71726742D01*
X116211656Y-71728049D01*
X116211658Y-71728051D01*
X116324696Y-71785647D01*
X116450000Y-71805493D01*
X116575304Y-71785647D01*
X116688342Y-71728051D01*
X116778050Y-71638343D01*
X116835646Y-71525305D01*
X116855492Y-71400001D01*
X116835646Y-71274697D01*
X116778050Y-71161659D01*
X116688342Y-71071951D01*
X116575304Y-71014355D01*
X116450000Y-70994509D01*
X116324695Y-71014355D01*
X116324694Y-71014355D01*
X116211657Y-71071951D01*
X116121950Y-71161658D01*
X116064354Y-71274695D01*
X116064352Y-71274702D01*
X116056014Y-71327348D01*
X116031020Y-71368134D01*
X115984506Y-71379300D01*
X115965910Y-71373258D01*
X115850308Y-71314355D01*
X115850304Y-71314354D01*
X115725000Y-71294508D01*
X115599695Y-71314354D01*
X115599694Y-71314354D01*
X115486657Y-71371950D01*
X115396950Y-71461657D01*
X115339354Y-71574694D01*
X115339354Y-71574695D01*
X115319508Y-71700000D01*
X106723510Y-71700000D01*
X106684776Y-71661266D01*
X106585287Y-71610574D01*
X106585282Y-71610572D01*
X106475003Y-71593106D01*
X106474997Y-71593106D01*
X106364717Y-71610572D01*
X106364712Y-71610574D01*
X106265223Y-71661266D01*
X106186266Y-71740223D01*
X106135574Y-71839712D01*
X106135572Y-71839717D01*
X106118106Y-71949996D01*
X106118106Y-71950003D01*
X89493550Y-71950003D01*
X89450003Y-71943106D01*
X89449997Y-71943106D01*
X89339717Y-71960572D01*
X89339712Y-71960574D01*
X89240223Y-72011266D01*
X89161266Y-72090223D01*
X89110574Y-72189712D01*
X89110572Y-72189717D01*
X89093106Y-72299996D01*
X89093106Y-72300003D01*
X88176767Y-72300003D01*
X88147227Y-71971583D01*
X88088229Y-71661266D01*
X88075565Y-71594658D01*
X88075560Y-71594636D01*
X88012225Y-71379300D01*
X87967295Y-71226542D01*
X87823470Y-70870826D01*
X87645471Y-70530920D01*
X87435012Y-70210098D01*
X87317638Y-70064583D01*
X86802613Y-69400004D01*
X98367467Y-69400004D01*
X98387564Y-69655377D01*
X98387565Y-69655381D01*
X98387566Y-69655384D01*
X98447369Y-69904480D01*
X98545402Y-70141154D01*
X98545403Y-70141155D01*
X98679251Y-70359576D01*
X98679255Y-70359582D01*
X98845621Y-70554372D01*
X98845627Y-70554378D01*
X99005979Y-70691331D01*
X99040421Y-70720747D01*
X99258846Y-70854598D01*
X99495520Y-70952631D01*
X99744616Y-71012434D01*
X99744618Y-71012434D01*
X99744622Y-71012435D01*
X99999996Y-71032533D01*
X100000000Y-71032533D01*
X100000004Y-71032533D01*
X100255377Y-71012435D01*
X100255379Y-71012434D01*
X100255384Y-71012434D01*
X100504480Y-70952631D01*
X100741154Y-70854598D01*
X100830245Y-70800003D01*
X113143106Y-70800003D01*
X113160572Y-70910282D01*
X113160574Y-70910287D01*
X113211266Y-71009776D01*
X113211267Y-71009777D01*
X113290223Y-71088733D01*
X113389714Y-71139426D01*
X113389717Y-71139427D01*
X113499997Y-71156894D01*
X113500000Y-71156894D01*
X113500003Y-71156894D01*
X113610282Y-71139427D01*
X113610283Y-71139426D01*
X113610286Y-71139426D01*
X113709777Y-71088733D01*
X113788733Y-71009777D01*
X113839426Y-70910286D01*
X113844322Y-70879374D01*
X113856894Y-70800003D01*
X113856894Y-70799996D01*
X113839427Y-70689717D01*
X113839425Y-70689712D01*
X113788733Y-70590223D01*
X113709776Y-70511266D01*
X113610287Y-70460574D01*
X113610282Y-70460572D01*
X113500003Y-70443106D01*
X113499997Y-70443106D01*
X113389717Y-70460572D01*
X113389712Y-70460574D01*
X113290223Y-70511266D01*
X113211266Y-70590223D01*
X113160574Y-70689712D01*
X113160572Y-70689717D01*
X113143106Y-70799996D01*
X113143106Y-70800003D01*
X100830245Y-70800003D01*
X100959579Y-70720747D01*
X101112403Y-70590223D01*
X101154372Y-70554378D01*
X101154378Y-70554372D01*
X101320744Y-70359582D01*
X101320747Y-70359579D01*
X101454598Y-70141154D01*
X101552631Y-69904480D01*
X101612434Y-69655384D01*
X101618643Y-69576500D01*
X101632533Y-69400004D01*
X101632533Y-69399995D01*
X101612435Y-69144622D01*
X101612434Y-69144618D01*
X101604346Y-69110930D01*
X101552631Y-68895520D01*
X101473711Y-68704990D01*
X105969844Y-68704990D01*
X105979577Y-68884494D01*
X105979577Y-68884498D01*
X105979578Y-68884501D01*
X106006891Y-68982872D01*
X106027673Y-69057724D01*
X106027675Y-69057728D01*
X106111881Y-69216556D01*
X106228265Y-69353574D01*
X106304926Y-69411850D01*
X106371380Y-69462368D01*
X106371381Y-69462368D01*
X106371382Y-69462369D01*
X106534541Y-69537854D01*
X106710113Y-69576500D01*
X106710116Y-69576500D01*
X106844812Y-69576500D01*
X106844816Y-69576500D01*
X106978721Y-69561937D01*
X107149085Y-69504535D01*
X107303126Y-69411851D01*
X107433642Y-69288220D01*
X107534529Y-69139423D01*
X107601070Y-68972416D01*
X107630155Y-68795010D01*
X107620422Y-68615499D01*
X107572327Y-68442277D01*
X107488119Y-68283444D01*
X107371735Y-68146426D01*
X107295073Y-68088149D01*
X107228619Y-68037631D01*
X107137477Y-67995465D01*
X107065459Y-67962146D01*
X107065460Y-67962146D01*
X107021566Y-67952484D01*
X106889887Y-67923500D01*
X106755184Y-67923500D01*
X106755183Y-67923500D01*
X106621278Y-67938063D01*
X106621272Y-67938064D01*
X106450913Y-67995465D01*
X106296874Y-68088149D01*
X106296873Y-68088149D01*
X106166357Y-68211781D01*
X106065469Y-68360580D01*
X105998931Y-68527580D01*
X105998930Y-68527582D01*
X105998930Y-68527584D01*
X105977410Y-68658846D01*
X105969845Y-68704990D01*
X105969844Y-68704990D01*
X101473711Y-68704990D01*
X101454598Y-68658846D01*
X101320747Y-68440421D01*
X101300016Y-68416148D01*
X101154378Y-68245627D01*
X101154372Y-68245621D01*
X100959582Y-68079255D01*
X100959576Y-68079251D01*
X100891658Y-68037631D01*
X100741154Y-67945402D01*
X100504480Y-67847369D01*
X100504474Y-67847367D01*
X100504473Y-67847367D01*
X100255381Y-67787565D01*
X100255377Y-67787564D01*
X100000004Y-67767467D01*
X99999996Y-67767467D01*
X99744622Y-67787564D01*
X99744618Y-67787565D01*
X99495526Y-67847367D01*
X99495522Y-67847368D01*
X99495520Y-67847369D01*
X99276564Y-67938063D01*
X99258844Y-67945403D01*
X99040423Y-68079251D01*
X99040417Y-68079255D01*
X98845627Y-68245621D01*
X98845621Y-68245627D01*
X98679255Y-68440417D01*
X98679251Y-68440423D01*
X98545403Y-68658844D01*
X98545402Y-68658846D01*
X98451934Y-68884501D01*
X98447367Y-68895526D01*
X98387565Y-69144618D01*
X98387564Y-69144622D01*
X98367467Y-69399995D01*
X98367467Y-69400004D01*
X86802613Y-69400004D01*
X86471248Y-68972416D01*
X86426302Y-68914419D01*
X86413700Y-68868273D01*
X86437419Y-68826732D01*
X86450544Y-68818922D01*
X86818504Y-68657151D01*
X87853261Y-68242159D01*
X88901069Y-67861321D01*
X89960802Y-67515046D01*
X91031319Y-67203706D01*
X91084073Y-67190223D01*
X91829984Y-66999580D01*
X91877335Y-67006372D01*
X91906014Y-67044656D01*
X91907192Y-67069910D01*
X91894507Y-67150001D01*
X91914353Y-67275306D01*
X91914353Y-67275307D01*
X91929415Y-67304867D01*
X91971949Y-67388344D01*
X92061657Y-67478052D01*
X92174695Y-67535648D01*
X92299999Y-67555494D01*
X92425303Y-67535648D01*
X92538341Y-67478052D01*
X92616390Y-67400003D01*
X93093106Y-67400003D01*
X93110572Y-67510282D01*
X93110574Y-67510287D01*
X93161266Y-67609776D01*
X93161267Y-67609777D01*
X93240223Y-67688733D01*
X93339714Y-67739426D01*
X93339717Y-67739427D01*
X93449997Y-67756894D01*
X93450000Y-67756894D01*
X93450003Y-67756894D01*
X93560282Y-67739427D01*
X93560283Y-67739426D01*
X93560286Y-67739426D01*
X93659777Y-67688733D01*
X93738733Y-67609777D01*
X93789426Y-67510286D01*
X93792709Y-67489559D01*
X93806894Y-67400003D01*
X93806894Y-67399996D01*
X93789427Y-67289717D01*
X93789425Y-67289712D01*
X93738733Y-67190223D01*
X93659776Y-67111266D01*
X93560287Y-67060574D01*
X93560282Y-67060572D01*
X93450003Y-67043106D01*
X93449997Y-67043106D01*
X93339717Y-67060572D01*
X93339712Y-67060574D01*
X93240223Y-67111266D01*
X93161266Y-67190223D01*
X93110574Y-67289712D01*
X93110572Y-67289717D01*
X93093106Y-67399996D01*
X93093106Y-67400003D01*
X92616390Y-67400003D01*
X92628049Y-67388344D01*
X92685645Y-67275306D01*
X92705491Y-67150002D01*
X92685645Y-67024698D01*
X92628049Y-66911660D01*
X92628047Y-66911656D01*
X92625159Y-66907682D01*
X92626220Y-66906910D01*
X92609980Y-66867703D01*
X92628286Y-66823509D01*
X92658998Y-66806675D01*
X93200092Y-66687135D01*
X94296015Y-66482460D01*
X95398060Y-66313830D01*
X96505042Y-66181428D01*
X97615771Y-66085397D01*
X98729051Y-66025838D01*
X99843685Y-66002816D01*
X100958475Y-66016357D01*
G37*
%TD.AperFunction*%
%TD*%
%TA.AperFunction,Conductor*%
%TO.N,GND1*%
G36*
X83306694Y-110606694D02*
G01*
X88399997Y-115699998D01*
X88399998Y-115699999D01*
X88399999Y-115699999D01*
X88400000Y-115700000D01*
X93600000Y-118300000D01*
X98800000Y-119600000D01*
X104000000Y-119600000D01*
X107941897Y-117530503D01*
X107989533Y-117526169D01*
X108026284Y-117556789D01*
X108027635Y-117559522D01*
X108198357Y-117927231D01*
X108200364Y-117975024D01*
X108185864Y-117997744D01*
X108121949Y-118061659D01*
X108064354Y-118174694D01*
X108064354Y-118174695D01*
X108044508Y-118300000D01*
X108064354Y-118425304D01*
X108064354Y-118425305D01*
X108121950Y-118538342D01*
X108211658Y-118628050D01*
X108324696Y-118685646D01*
X108450000Y-118705492D01*
X108505582Y-118696688D01*
X108552093Y-118707854D01*
X108572046Y-118732099D01*
X109403235Y-120522353D01*
X109405242Y-120570146D01*
X109390741Y-120592866D01*
X109321950Y-120661657D01*
X109264354Y-120774694D01*
X109264354Y-120774695D01*
X109244508Y-120900000D01*
X109264354Y-121025304D01*
X109264354Y-121025305D01*
X109290242Y-121076112D01*
X109321950Y-121138342D01*
X109411658Y-121228050D01*
X109524696Y-121285646D01*
X109650000Y-121305492D01*
X109712235Y-121295634D01*
X109758746Y-121306800D01*
X109778699Y-121331045D01*
X114154493Y-130755833D01*
X114156500Y-130803626D01*
X114124124Y-130838840D01*
X114123582Y-130839089D01*
X113466934Y-131136368D01*
X112425602Y-131566731D01*
X111370554Y-131962281D01*
X110302956Y-132322583D01*
X109223982Y-132647238D01*
X108134824Y-132935890D01*
X107036683Y-133188219D01*
X105930769Y-133403947D01*
X104818302Y-133582837D01*
X103700508Y-133724691D01*
X102578621Y-133829353D01*
X101453878Y-133896707D01*
X100327518Y-133926679D01*
X99200784Y-133919236D01*
X98074918Y-133874386D01*
X96951163Y-133792180D01*
X95830756Y-133672706D01*
X94714934Y-133516098D01*
X93604928Y-133322527D01*
X92501960Y-133092207D01*
X91407248Y-132825393D01*
X90321998Y-132522378D01*
X89247408Y-132183497D01*
X88184662Y-131809123D01*
X87134932Y-131399670D01*
X86713080Y-131218764D01*
X86679678Y-131184522D01*
X86680272Y-131136690D01*
X86685676Y-131126706D01*
X87132638Y-130454990D01*
X88169844Y-130454990D01*
X88179577Y-130634494D01*
X88179577Y-130634498D01*
X88179578Y-130634501D01*
X88208086Y-130737177D01*
X88227673Y-130807724D01*
X88227675Y-130807728D01*
X88304665Y-130952946D01*
X88311881Y-130966556D01*
X88428265Y-131103574D01*
X88504926Y-131161850D01*
X88571380Y-131212368D01*
X88571381Y-131212368D01*
X88571382Y-131212369D01*
X88734541Y-131287854D01*
X88910113Y-131326500D01*
X88910116Y-131326500D01*
X89044812Y-131326500D01*
X89044816Y-131326500D01*
X89178721Y-131311937D01*
X89349085Y-131254535D01*
X89503126Y-131161851D01*
X89633642Y-131038220D01*
X89734529Y-130889423D01*
X89801070Y-130722416D01*
X89821140Y-130600000D01*
X97994891Y-130600000D01*
X98015299Y-130885349D01*
X98015300Y-130885355D01*
X98076112Y-131164904D01*
X98176089Y-131432952D01*
X98176090Y-131432955D01*
X98313194Y-131684043D01*
X98313199Y-131684049D01*
X98419882Y-131826562D01*
X99209408Y-131037035D01*
X99216284Y-131052478D01*
X99327486Y-131205534D01*
X99468080Y-131332126D01*
X99565298Y-131388254D01*
X98773436Y-132180116D01*
X98915958Y-132286805D01*
X99167044Y-132423909D01*
X99167047Y-132423910D01*
X99435095Y-132523887D01*
X99714644Y-132584699D01*
X99714650Y-132584700D01*
X100000000Y-132605108D01*
X100285349Y-132584700D01*
X100285355Y-132584699D01*
X100564904Y-132523887D01*
X100832952Y-132423910D01*
X100832955Y-132423909D01*
X101084041Y-132286805D01*
X101226561Y-132180115D01*
X100434701Y-131388254D01*
X100531920Y-131332126D01*
X100672514Y-131205534D01*
X100783716Y-131052479D01*
X100790591Y-131037037D01*
X101580115Y-131826561D01*
X101686805Y-131684041D01*
X101823909Y-131432955D01*
X101823910Y-131432952D01*
X101923887Y-131164904D01*
X101984699Y-130885355D01*
X101984700Y-130885349D01*
X102005108Y-130600000D01*
X101984700Y-130314650D01*
X101984699Y-130314644D01*
X101923887Y-130035095D01*
X101823910Y-129767047D01*
X101823909Y-129767044D01*
X101686805Y-129515958D01*
X101580116Y-129373436D01*
X100790590Y-130162961D01*
X100783716Y-130147522D01*
X100672514Y-129994466D01*
X100531920Y-129867874D01*
X100434699Y-129811744D01*
X101226562Y-129019882D01*
X101084049Y-128913199D01*
X101084043Y-128913194D01*
X100832955Y-128776090D01*
X100832952Y-128776089D01*
X100564904Y-128676112D01*
X100285355Y-128615300D01*
X100285349Y-128615299D01*
X100000000Y-128594891D01*
X99714650Y-128615299D01*
X99714644Y-128615300D01*
X99435095Y-128676112D01*
X99167047Y-128776089D01*
X99167044Y-128776090D01*
X98915956Y-128913194D01*
X98915950Y-128913199D01*
X98773436Y-129019882D01*
X99565298Y-129811744D01*
X99468080Y-129867874D01*
X99327486Y-129994466D01*
X99216284Y-130147521D01*
X99209408Y-130162962D01*
X98419882Y-129373436D01*
X98313199Y-129515950D01*
X98313194Y-129515956D01*
X98176090Y-129767044D01*
X98176089Y-129767047D01*
X98076112Y-130035095D01*
X98015300Y-130314644D01*
X98015299Y-130314650D01*
X97994891Y-130600000D01*
X89821140Y-130600000D01*
X89830155Y-130545010D01*
X89826446Y-130476612D01*
X89820422Y-130365505D01*
X89820422Y-130365499D01*
X89772327Y-130192277D01*
X89688119Y-130033444D01*
X89571735Y-129896426D01*
X89495073Y-129838149D01*
X89428619Y-129787631D01*
X89337477Y-129745465D01*
X89265459Y-129712146D01*
X89265460Y-129712146D01*
X89221566Y-129702484D01*
X89089887Y-129673500D01*
X88955184Y-129673500D01*
X88955183Y-129673500D01*
X88821278Y-129688063D01*
X88821272Y-129688064D01*
X88650913Y-129745465D01*
X88496874Y-129838149D01*
X88496873Y-129838149D01*
X88366357Y-129961781D01*
X88265469Y-130110580D01*
X88198931Y-130277580D01*
X88198930Y-130277582D01*
X88198930Y-130277584D01*
X88184517Y-130365499D01*
X88169845Y-130454990D01*
X88169844Y-130454990D01*
X87132638Y-130454990D01*
X87683268Y-129627477D01*
X87691783Y-129617241D01*
X87695790Y-129613356D01*
X87723005Y-129567824D01*
X87723790Y-129566580D01*
X87736515Y-129547459D01*
X87741199Y-129537616D01*
X87742582Y-129535035D01*
X87753981Y-129515956D01*
X87829300Y-129389891D01*
X87995502Y-129038363D01*
X88126834Y-128672375D01*
X88222056Y-128295377D01*
X88280273Y-127910922D01*
X88300936Y-127522633D01*
X88283848Y-127134171D01*
X88229173Y-126749196D01*
X88137424Y-126371337D01*
X88009467Y-126004156D01*
X88009462Y-126004145D01*
X88009459Y-126004137D01*
X87938313Y-125850003D01*
X105843106Y-125850003D01*
X105860572Y-125960282D01*
X105860574Y-125960287D01*
X105911266Y-126059776D01*
X105911267Y-126059777D01*
X105990223Y-126138733D01*
X106089714Y-126189426D01*
X106089717Y-126189427D01*
X106199997Y-126206894D01*
X106200000Y-126206894D01*
X106200003Y-126206894D01*
X106310282Y-126189427D01*
X106310283Y-126189426D01*
X106310286Y-126189426D01*
X106409777Y-126138733D01*
X106488733Y-126059777D01*
X106539426Y-125960286D01*
X106539427Y-125960282D01*
X106556894Y-125850003D01*
X106556894Y-125849996D01*
X106539427Y-125739717D01*
X106539425Y-125739712D01*
X106488733Y-125640223D01*
X106409776Y-125561266D01*
X106310287Y-125510574D01*
X106310282Y-125510572D01*
X106200003Y-125493106D01*
X106199997Y-125493106D01*
X106089717Y-125510572D01*
X106089712Y-125510574D01*
X105990223Y-125561266D01*
X105911266Y-125640223D01*
X105860574Y-125739712D01*
X105860572Y-125739717D01*
X105843106Y-125849996D01*
X105843106Y-125850003D01*
X87938313Y-125850003D01*
X87846512Y-125651123D01*
X87846504Y-125651108D01*
X87802070Y-125575196D01*
X87650081Y-125315537D01*
X87435725Y-125019489D01*
X87422041Y-125000589D01*
X87422034Y-125000581D01*
X87164542Y-124709246D01*
X87164536Y-124709239D01*
X87140448Y-124686805D01*
X86879989Y-124444230D01*
X86879981Y-124444224D01*
X86879978Y-124444221D01*
X86879978Y-124444220D01*
X86571098Y-124208071D01*
X86571080Y-124208058D01*
X86240740Y-124002963D01*
X86240736Y-124002961D01*
X85892061Y-123830863D01*
X85528346Y-123693388D01*
X85152987Y-123591824D01*
X84769579Y-123527143D01*
X84510987Y-123509009D01*
X84381692Y-123499943D01*
X84381691Y-123499943D01*
X83992999Y-123510484D01*
X83607167Y-123558666D01*
X83607151Y-123558669D01*
X83276222Y-123633143D01*
X83229087Y-123624987D01*
X83201525Y-123585890D01*
X83200000Y-123572168D01*
X83200000Y-123000000D01*
X95494891Y-123000000D01*
X95515299Y-123285349D01*
X95515300Y-123285355D01*
X95576112Y-123564904D01*
X95676089Y-123832952D01*
X95676090Y-123832955D01*
X95813194Y-124084043D01*
X95813199Y-124084049D01*
X95919882Y-124226562D01*
X96709408Y-123437035D01*
X96716284Y-123452478D01*
X96827486Y-123605534D01*
X96968080Y-123732126D01*
X97065298Y-123788254D01*
X96273436Y-124580116D01*
X96415958Y-124686805D01*
X96667044Y-124823909D01*
X96667047Y-124823910D01*
X96935095Y-124923887D01*
X97214644Y-124984699D01*
X97214650Y-124984700D01*
X97500000Y-125005108D01*
X97785349Y-124984700D01*
X97785355Y-124984699D01*
X98064904Y-124923887D01*
X98332952Y-124823910D01*
X98332955Y-124823909D01*
X98584041Y-124686805D01*
X98726561Y-124580115D01*
X97934701Y-123788254D01*
X98031920Y-123732126D01*
X98172514Y-123605534D01*
X98283716Y-123452479D01*
X98290591Y-123437037D01*
X99080115Y-124226561D01*
X99186805Y-124084041D01*
X99323909Y-123832955D01*
X99323910Y-123832952D01*
X99423887Y-123564904D01*
X99484699Y-123285355D01*
X99484700Y-123285349D01*
X99505108Y-123000000D01*
X100494891Y-123000000D01*
X100515299Y-123285349D01*
X100515300Y-123285355D01*
X100576112Y-123564904D01*
X100676089Y-123832952D01*
X100676090Y-123832955D01*
X100813194Y-124084043D01*
X100813199Y-124084049D01*
X100919882Y-124226562D01*
X101709408Y-123437035D01*
X101716284Y-123452478D01*
X101827486Y-123605534D01*
X101968080Y-123732126D01*
X102065298Y-123788254D01*
X101273436Y-124580116D01*
X101415958Y-124686805D01*
X101667044Y-124823909D01*
X101667047Y-124823910D01*
X101935095Y-124923887D01*
X102214644Y-124984699D01*
X102214650Y-124984700D01*
X102500000Y-125005108D01*
X102785349Y-124984700D01*
X102785355Y-124984699D01*
X103064904Y-124923887D01*
X103332952Y-124823910D01*
X103332955Y-124823909D01*
X103584041Y-124686805D01*
X103726561Y-124580115D01*
X102934701Y-123788254D01*
X103031920Y-123732126D01*
X103172514Y-123605534D01*
X103283716Y-123452479D01*
X103290591Y-123437037D01*
X104080115Y-124226561D01*
X104186805Y-124084041D01*
X104323909Y-123832955D01*
X104323910Y-123832952D01*
X104423887Y-123564904D01*
X104484699Y-123285355D01*
X104484700Y-123285349D01*
X104505108Y-123000000D01*
X104484700Y-122714650D01*
X104484699Y-122714644D01*
X104423887Y-122435095D01*
X104323910Y-122167047D01*
X104323909Y-122167044D01*
X104287300Y-122100000D01*
X107094508Y-122100000D01*
X107114354Y-122225304D01*
X107114354Y-122225305D01*
X107162471Y-122319738D01*
X107171950Y-122338342D01*
X107261658Y-122428050D01*
X107374696Y-122485646D01*
X107500000Y-122505492D01*
X107625304Y-122485646D01*
X107738342Y-122428050D01*
X107828050Y-122338342D01*
X107885646Y-122225304D01*
X107905492Y-122100000D01*
X107885646Y-121974696D01*
X107828050Y-121861658D01*
X107738342Y-121771950D01*
X107625304Y-121714354D01*
X107500000Y-121694508D01*
X107374695Y-121714354D01*
X107374694Y-121714354D01*
X107261657Y-121771950D01*
X107171950Y-121861657D01*
X107114354Y-121974694D01*
X107114354Y-121974695D01*
X107094508Y-122100000D01*
X104287300Y-122100000D01*
X104186805Y-121915958D01*
X104080116Y-121773436D01*
X103290590Y-122562961D01*
X103283716Y-122547522D01*
X103172514Y-122394466D01*
X103031920Y-122267874D01*
X102934699Y-122211744D01*
X103726562Y-121419882D01*
X103584049Y-121313199D01*
X103584043Y-121313194D01*
X103332955Y-121176090D01*
X103332952Y-121176089D01*
X103064904Y-121076112D01*
X102785355Y-121015300D01*
X102785349Y-121015299D01*
X102500000Y-120994891D01*
X102214650Y-121015299D01*
X102214644Y-121015300D01*
X101935095Y-121076112D01*
X101667047Y-121176089D01*
X101667044Y-121176090D01*
X101415956Y-121313194D01*
X101415950Y-121313199D01*
X101273436Y-121419882D01*
X102065298Y-122211744D01*
X101968080Y-122267874D01*
X101827486Y-122394466D01*
X101716284Y-122547521D01*
X101709408Y-122562962D01*
X100919882Y-121773436D01*
X100813199Y-121915950D01*
X100813194Y-121915956D01*
X100676090Y-122167044D01*
X100676089Y-122167047D01*
X100576112Y-122435095D01*
X100515300Y-122714644D01*
X100515299Y-122714650D01*
X100494891Y-123000000D01*
X99505108Y-123000000D01*
X99484700Y-122714650D01*
X99484699Y-122714644D01*
X99423887Y-122435095D01*
X99323910Y-122167047D01*
X99323909Y-122167044D01*
X99186805Y-121915958D01*
X99080116Y-121773436D01*
X98290590Y-122562961D01*
X98283716Y-122547522D01*
X98172514Y-122394466D01*
X98031920Y-122267874D01*
X97934699Y-122211744D01*
X98726562Y-121419882D01*
X98584049Y-121313199D01*
X98584043Y-121313194D01*
X98332955Y-121176090D01*
X98332952Y-121176089D01*
X98064904Y-121076112D01*
X97785355Y-121015300D01*
X97785349Y-121015299D01*
X97500000Y-120994891D01*
X97214650Y-121015299D01*
X97214644Y-121015300D01*
X96935095Y-121076112D01*
X96667047Y-121176089D01*
X96667044Y-121176090D01*
X96415956Y-121313194D01*
X96415950Y-121313199D01*
X96273436Y-121419882D01*
X97065298Y-122211744D01*
X96968080Y-122267874D01*
X96827486Y-122394466D01*
X96716284Y-122547521D01*
X96709408Y-122562962D01*
X95919882Y-121773436D01*
X95813199Y-121915950D01*
X95813194Y-121915956D01*
X95676090Y-122167044D01*
X95676089Y-122167047D01*
X95576112Y-122435095D01*
X95515300Y-122714644D01*
X95515299Y-122714650D01*
X95494891Y-123000000D01*
X83200000Y-123000000D01*
X83200000Y-122781950D01*
X83218306Y-122737756D01*
X83237394Y-122724714D01*
X83238874Y-122724064D01*
X83238881Y-122724063D01*
X83466607Y-122624173D01*
X83674785Y-122488164D01*
X83857738Y-122319744D01*
X84010474Y-122123509D01*
X84128828Y-121904810D01*
X84209571Y-121669614D01*
X84250500Y-121424335D01*
X84250500Y-121175665D01*
X84209571Y-120930386D01*
X84128828Y-120695190D01*
X84010474Y-120476491D01*
X84010473Y-120476489D01*
X83857742Y-120280261D01*
X83857739Y-120280257D01*
X83674788Y-120111838D01*
X83674783Y-120111835D01*
X83466612Y-119975830D01*
X83466609Y-119975828D01*
X83466607Y-119975827D01*
X83238881Y-119875937D01*
X83238879Y-119875936D01*
X83237394Y-119875285D01*
X83204276Y-119840768D01*
X83200000Y-119818049D01*
X83200000Y-110650888D01*
X83218306Y-110606694D01*
X83262500Y-110588388D01*
X83306694Y-110606694D01*
G37*
%TD.AperFunction*%
%TD*%
M02*
