%TF.GenerationSoftware,KiCad,Pcbnew,7.0.8*%
%TF.CreationDate,2023-10-15T21:23:35+02:00*%
%TF.ProjectId,blinkekatze,626c696e-6b65-46b6-9174-7a652e6b6963,rev?*%
%TF.SameCoordinates,Original*%
%TF.FileFunction,Copper,L1,Top*%
%TF.FilePolarity,Positive*%
%FSLAX46Y46*%
G04 Gerber Fmt 4.6, Leading zero omitted, Abs format (unit mm)*
G04 Created by KiCad (PCBNEW 7.0.8) date 2023-10-15 21:23:35*
%MOMM*%
%LPD*%
G01*
G04 APERTURE LIST*
G04 Aperture macros list*
%AMRoundRect*
0 Rectangle with rounded corners*
0 $1 Rounding radius*
0 $2 $3 $4 $5 $6 $7 $8 $9 X,Y pos of 4 corners*
0 Add a 4 corners polygon primitive as box body*
4,1,4,$2,$3,$4,$5,$6,$7,$8,$9,$2,$3,0*
0 Add four circle primitives for the rounded corners*
1,1,$1+$1,$2,$3*
1,1,$1+$1,$4,$5*
1,1,$1+$1,$6,$7*
1,1,$1+$1,$8,$9*
0 Add four rect primitives between the rounded corners*
20,1,$1+$1,$2,$3,$4,$5,0*
20,1,$1+$1,$4,$5,$6,$7,0*
20,1,$1+$1,$6,$7,$8,$9,0*
20,1,$1+$1,$8,$9,$2,$3,0*%
%AMHorizOval*
0 Thick line with rounded ends*
0 $1 width*
0 $2 $3 position (X,Y) of the first rounded end (center of the circle)*
0 $4 $5 position (X,Y) of the second rounded end (center of the circle)*
0 Add line between two ends*
20,1,$1,$2,$3,$4,$5,0*
0 Add two circle primitives to create the rounded ends*
1,1,$1,$2,$3*
1,1,$1,$4,$5*%
%AMRotRect*
0 Rectangle, with rotation*
0 The origin of the aperture is its center*
0 $1 length*
0 $2 width*
0 $3 Rotation angle, in degrees counterclockwise*
0 Add horizontal line*
21,1,$1,$2,0,0,$3*%
%AMOutline4P*
0 Free polygon, 4 corners , with rotation*
0 The origin of the aperture is its center*
0 number of corners: always 4*
0 $1 to $8 corner X, Y*
0 $9 Rotation angle, in degrees counterclockwise*
0 create outline with 4 corners*
4,1,4,$1,$2,$3,$4,$5,$6,$7,$8,$1,$2,$9*%
%AMOutline5P*
0 Free polygon, 5 corners , with rotation*
0 The origin of the aperture is its center*
0 number of corners: always 5*
0 $1 to $10 corner X, Y*
0 $11 Rotation angle, in degrees counterclockwise*
0 create outline with 5 corners*
4,1,5,$1,$2,$3,$4,$5,$6,$7,$8,$9,$10,$1,$2,$11*%
%AMOutline6P*
0 Free polygon, 6 corners , with rotation*
0 The origin of the aperture is its center*
0 number of corners: always 6*
0 $1 to $12 corner X, Y*
0 $13 Rotation angle, in degrees counterclockwise*
0 create outline with 6 corners*
4,1,6,$1,$2,$3,$4,$5,$6,$7,$8,$9,$10,$11,$12,$1,$2,$13*%
%AMOutline7P*
0 Free polygon, 7 corners , with rotation*
0 The origin of the aperture is its center*
0 number of corners: always 7*
0 $1 to $14 corner X, Y*
0 $15 Rotation angle, in degrees counterclockwise*
0 create outline with 7 corners*
4,1,7,$1,$2,$3,$4,$5,$6,$7,$8,$9,$10,$11,$12,$13,$14,$1,$2,$15*%
%AMOutline8P*
0 Free polygon, 8 corners , with rotation*
0 The origin of the aperture is its center*
0 number of corners: always 8*
0 $1 to $16 corner X, Y*
0 $17 Rotation angle, in degrees counterclockwise*
0 create outline with 8 corners*
4,1,8,$1,$2,$3,$4,$5,$6,$7,$8,$9,$10,$11,$12,$13,$14,$15,$16,$1,$2,$17*%
%AMFreePoly0*
4,1,21,-0.125000,1.200000,0.125000,1.200000,0.125000,1.700000,0.375000,1.700000,0.375000,1.200000,0.825000,1.200000,0.825000,-1.200000,0.375000,-1.200000,0.375000,-1.700000,0.125000,-1.700000,0.125000,-1.200000,-0.125000,-1.200000,-0.125000,-1.700000,-0.375000,-1.700000,-0.375000,-1.200000,-0.825000,-1.200000,-0.825000,1.200000,-0.375000,1.200000,-0.375000,1.700000,-0.125000,1.700000,
-0.125000,1.200000,-0.125000,1.200000,$1*%
G04 Aperture macros list end*
%TA.AperFunction,EtchedComponent*%
%ADD10C,0.500000*%
%TD*%
%TA.AperFunction,SMDPad,CuDef*%
%ADD11RoundRect,0.135000X0.222580X-0.053927X0.119255X0.195520X-0.222580X0.053927X-0.119255X-0.195520X0*%
%TD*%
%TA.AperFunction,SMDPad,CuDef*%
%ADD12RoundRect,0.135000X0.119255X-0.195520X0.222580X0.053927X-0.119255X0.195520X-0.222580X-0.053927X0*%
%TD*%
%TA.AperFunction,ComponentPad*%
%ADD13R,1.700000X1.700000*%
%TD*%
%TA.AperFunction,ComponentPad*%
%ADD14O,1.700000X1.700000*%
%TD*%
%TA.AperFunction,SMDPad,CuDef*%
%ADD15RoundRect,0.087500X0.087500X-0.187500X0.087500X0.187500X-0.087500X0.187500X-0.087500X-0.187500X0*%
%TD*%
%TA.AperFunction,SMDPad,CuDef*%
%ADD16RoundRect,0.087500X0.187500X-0.087500X0.187500X0.087500X-0.187500X0.087500X-0.187500X-0.087500X0*%
%TD*%
%TA.AperFunction,SMDPad,CuDef*%
%ADD17RotRect,0.350000X0.350000X247.500000*%
%TD*%
%TA.AperFunction,SMDPad,CuDef*%
%ADD18R,1.200000X3.700000*%
%TD*%
%TA.AperFunction,SMDPad,CuDef*%
%ADD19RoundRect,0.075000X-0.250000X-0.075000X0.250000X-0.075000X0.250000X0.075000X-0.250000X0.075000X0*%
%TD*%
%TA.AperFunction,SMDPad,CuDef*%
%ADD20RotRect,1.300000X0.900000X45.000000*%
%TD*%
%TA.AperFunction,SMDPad,CuDef*%
%ADD21RotRect,2.200000X1.200000X45.000000*%
%TD*%
%TA.AperFunction,SMDPad,CuDef*%
%ADD22RotRect,1.500000X1.300000X45.000000*%
%TD*%
%TA.AperFunction,SMDPad,CuDef*%
%ADD23RotRect,2.400000X0.800000X45.000000*%
%TD*%
%TA.AperFunction,SMDPad,CuDef*%
%ADD24RoundRect,0.135000X0.135000X0.185000X-0.135000X0.185000X-0.135000X-0.185000X0.135000X-0.185000X0*%
%TD*%
%TA.AperFunction,SMDPad,CuDef*%
%ADD25R,1.300000X0.900000*%
%TD*%
%TA.AperFunction,SMDPad,CuDef*%
%ADD26R,2.200000X1.200000*%
%TD*%
%TA.AperFunction,SMDPad,CuDef*%
%ADD27R,1.500000X1.300000*%
%TD*%
%TA.AperFunction,SMDPad,CuDef*%
%ADD28R,2.400000X0.800000*%
%TD*%
%TA.AperFunction,SMDPad,CuDef*%
%ADD29RotRect,1.300000X0.900000X67.500000*%
%TD*%
%TA.AperFunction,SMDPad,CuDef*%
%ADD30RotRect,2.200000X1.200000X67.500000*%
%TD*%
%TA.AperFunction,SMDPad,CuDef*%
%ADD31RotRect,1.500000X1.300000X67.500000*%
%TD*%
%TA.AperFunction,SMDPad,CuDef*%
%ADD32RotRect,2.400000X0.800000X67.500000*%
%TD*%
%TA.AperFunction,SMDPad,CuDef*%
%ADD33RoundRect,0.140000X0.194399X0.103484X-0.064287X0.210635X-0.194399X-0.103484X0.064287X-0.210635X0*%
%TD*%
%TA.AperFunction,SMDPad,CuDef*%
%ADD34RoundRect,0.225000X0.250000X-0.225000X0.250000X0.225000X-0.250000X0.225000X-0.250000X-0.225000X0*%
%TD*%
%TA.AperFunction,SMDPad,CuDef*%
%ADD35RoundRect,0.140000X0.210635X-0.064287X0.103484X0.194399X-0.210635X0.064287X-0.103484X-0.194399X0*%
%TD*%
%TA.AperFunction,SMDPad,CuDef*%
%ADD36RoundRect,0.250000X-0.425000X0.450000X-0.425000X-0.450000X0.425000X-0.450000X0.425000X0.450000X0*%
%TD*%
%TA.AperFunction,SMDPad,CuDef*%
%ADD37RoundRect,0.140000X-0.170000X0.140000X-0.170000X-0.140000X0.170000X-0.140000X0.170000X0.140000X0*%
%TD*%
%TA.AperFunction,SMDPad,CuDef*%
%ADD38RoundRect,0.140000X-0.140000X-0.170000X0.140000X-0.170000X0.140000X0.170000X-0.140000X0.170000X0*%
%TD*%
%TA.AperFunction,SMDPad,CuDef*%
%ADD39RoundRect,0.140000X-0.219203X-0.021213X-0.021213X-0.219203X0.219203X0.021213X0.021213X0.219203X0*%
%TD*%
%TA.AperFunction,SMDPad,CuDef*%
%ADD40RoundRect,0.135000X-0.135000X-0.185000X0.135000X-0.185000X0.135000X0.185000X-0.135000X0.185000X0*%
%TD*%
%TA.AperFunction,SMDPad,CuDef*%
%ADD41RoundRect,0.140000X0.064287X0.210635X-0.194399X0.103484X-0.064287X-0.210635X0.194399X-0.103484X0*%
%TD*%
%TA.AperFunction,SMDPad,CuDef*%
%ADD42RotRect,1.300000X0.900000X22.500000*%
%TD*%
%TA.AperFunction,SMDPad,CuDef*%
%ADD43RotRect,2.200000X1.200000X22.500000*%
%TD*%
%TA.AperFunction,SMDPad,CuDef*%
%ADD44RotRect,1.500000X1.300000X22.500000*%
%TD*%
%TA.AperFunction,SMDPad,CuDef*%
%ADD45RotRect,2.400000X0.800000X22.500000*%
%TD*%
%TA.AperFunction,SMDPad,CuDef*%
%ADD46RoundRect,0.140000X-0.210635X0.064287X-0.103484X-0.194399X0.210635X-0.064287X0.103484X0.194399X0*%
%TD*%
%TA.AperFunction,SMDPad,CuDef*%
%ADD47RoundRect,0.140000X-0.194399X-0.103484X0.064287X-0.210635X0.194399X0.103484X-0.064287X0.210635X0*%
%TD*%
%TA.AperFunction,SMDPad,CuDef*%
%ADD48RoundRect,0.250000X-0.250000X-0.475000X0.250000X-0.475000X0.250000X0.475000X-0.250000X0.475000X0*%
%TD*%
%TA.AperFunction,SMDPad,CuDef*%
%ADD49RoundRect,0.140000X0.021213X-0.219203X0.219203X-0.021213X-0.021213X0.219203X-0.219203X0.021213X0*%
%TD*%
%TA.AperFunction,SMDPad,CuDef*%
%ADD50RoundRect,0.140000X-0.103484X0.194399X-0.210635X-0.064287X0.103484X-0.194399X0.210635X0.064287X0*%
%TD*%
%TA.AperFunction,SMDPad,CuDef*%
%ADD51RoundRect,0.150000X-0.485377X-0.363408X0.600182X0.086245X0.485377X0.363408X-0.600182X-0.086245X0*%
%TD*%
%TA.AperFunction,SMDPad,CuDef*%
%ADD52RoundRect,0.250000X-0.070311X-0.516200X0.414726X-0.315291X0.070311X0.516200X-0.414726X0.315291X0*%
%TD*%
%TA.AperFunction,SMDPad,CuDef*%
%ADD53RoundRect,0.140000X-0.064287X-0.210635X0.194399X-0.103484X0.064287X0.210635X-0.194399X0.103484X0*%
%TD*%
%TA.AperFunction,SMDPad,CuDef*%
%ADD54RoundRect,0.135000X-0.222580X0.053927X-0.119255X-0.195520X0.222580X-0.053927X0.119255X0.195520X0*%
%TD*%
%TA.AperFunction,SMDPad,CuDef*%
%ADD55RoundRect,0.135000X-0.053927X-0.222580X0.195520X-0.119255X0.053927X0.222580X-0.195520X0.119255X0*%
%TD*%
%TA.AperFunction,SMDPad,CuDef*%
%ADD56RoundRect,0.140000X-0.021213X0.219203X-0.219203X0.021213X0.021213X-0.219203X0.219203X-0.021213X0*%
%TD*%
%TA.AperFunction,SMDPad,CuDef*%
%ADD57RoundRect,0.135000X0.185000X-0.135000X0.185000X0.135000X-0.185000X0.135000X-0.185000X-0.135000X0*%
%TD*%
%TA.AperFunction,SMDPad,CuDef*%
%ADD58RoundRect,0.250000X0.375000X0.625000X-0.375000X0.625000X-0.375000X-0.625000X0.375000X-0.625000X0*%
%TD*%
%TA.AperFunction,SMDPad,CuDef*%
%ADD59RoundRect,0.135000X-0.185000X0.135000X-0.185000X-0.135000X0.185000X-0.135000X0.185000X0.135000X0*%
%TD*%
%TA.AperFunction,SMDPad,CuDef*%
%ADD60RotRect,1.300000X0.900000X247.500000*%
%TD*%
%TA.AperFunction,SMDPad,CuDef*%
%ADD61RotRect,2.200000X1.200000X247.500000*%
%TD*%
%TA.AperFunction,SMDPad,CuDef*%
%ADD62RotRect,1.500000X1.300000X247.500000*%
%TD*%
%TA.AperFunction,SMDPad,CuDef*%
%ADD63RotRect,2.400000X0.800000X247.500000*%
%TD*%
%TA.AperFunction,SMDPad,CuDef*%
%ADD64RotRect,1.300000X0.900000X337.500000*%
%TD*%
%TA.AperFunction,SMDPad,CuDef*%
%ADD65RotRect,2.200000X1.200000X337.500000*%
%TD*%
%TA.AperFunction,SMDPad,CuDef*%
%ADD66RotRect,1.500000X1.300000X337.500000*%
%TD*%
%TA.AperFunction,SMDPad,CuDef*%
%ADD67RotRect,2.400000X0.800000X337.500000*%
%TD*%
%TA.AperFunction,SMDPad,CuDef*%
%ADD68RoundRect,0.140000X0.170000X-0.140000X0.170000X0.140000X-0.170000X0.140000X-0.170000X-0.140000X0*%
%TD*%
%TA.AperFunction,SMDPad,CuDef*%
%ADD69RoundRect,0.135000X0.053927X0.222580X-0.195520X0.119255X-0.053927X-0.222580X0.195520X-0.119255X0*%
%TD*%
%TA.AperFunction,SMDPad,CuDef*%
%ADD70RotRect,1.300000X0.900000X202.500000*%
%TD*%
%TA.AperFunction,SMDPad,CuDef*%
%ADD71RotRect,2.200000X1.200000X202.500000*%
%TD*%
%TA.AperFunction,SMDPad,CuDef*%
%ADD72RotRect,1.500000X1.300000X202.500000*%
%TD*%
%TA.AperFunction,SMDPad,CuDef*%
%ADD73RotRect,2.400000X0.800000X202.500000*%
%TD*%
%TA.AperFunction,SMDPad,CuDef*%
%ADD74RoundRect,0.135000X0.195520X0.119255X-0.053927X0.222580X-0.195520X-0.119255X0.053927X-0.222580X0*%
%TD*%
%TA.AperFunction,SMDPad,CuDef*%
%ADD75RoundRect,0.225000X-0.250000X0.225000X-0.250000X-0.225000X0.250000X-0.225000X0.250000X0.225000X0*%
%TD*%
%TA.AperFunction,SMDPad,CuDef*%
%ADD76RoundRect,0.140000X0.140000X0.170000X-0.140000X0.170000X-0.140000X-0.170000X0.140000X-0.170000X0*%
%TD*%
%TA.AperFunction,SMDPad,CuDef*%
%ADD77RoundRect,0.150000X0.334707X-0.416086X-0.057543X0.530891X-0.334707X0.416086X0.057543X-0.530891X0*%
%TD*%
%TA.AperFunction,SMDPad,CuDef*%
%ADD78RotRect,1.300000X0.900000X157.500000*%
%TD*%
%TA.AperFunction,SMDPad,CuDef*%
%ADD79RotRect,2.200000X1.200000X157.500000*%
%TD*%
%TA.AperFunction,SMDPad,CuDef*%
%ADD80RotRect,1.500000X1.300000X157.500000*%
%TD*%
%TA.AperFunction,SMDPad,CuDef*%
%ADD81RotRect,2.400000X0.800000X157.500000*%
%TD*%
%TA.AperFunction,SMDPad,CuDef*%
%ADD82RotRect,0.800000X0.400000X247.500000*%
%TD*%
%TA.AperFunction,SMDPad,CuDef*%
%ADD83RotRect,0.800000X0.400000X337.500000*%
%TD*%
%TA.AperFunction,SMDPad,CuDef*%
%ADD84Outline5P,-0.725000X0.145000X-0.145000X0.725000X0.725000X0.725000X0.725000X-0.725000X-0.725000X-0.725000X247.500000*%
%TD*%
%TA.AperFunction,SMDPad,CuDef*%
%ADD85RotRect,1.450000X1.450000X247.500000*%
%TD*%
%TA.AperFunction,SMDPad,CuDef*%
%ADD86Outline4P,-0.350000X-0.350000X0.350000X-0.350000X0.350000X0.350000X-0.350000X0.350000X247.500000*%
%TD*%
%TA.AperFunction,SMDPad,CuDef*%
%ADD87RotRect,1.300000X0.900000X225.000000*%
%TD*%
%TA.AperFunction,SMDPad,CuDef*%
%ADD88RotRect,2.200000X1.200000X225.000000*%
%TD*%
%TA.AperFunction,SMDPad,CuDef*%
%ADD89RotRect,1.500000X1.300000X225.000000*%
%TD*%
%TA.AperFunction,SMDPad,CuDef*%
%ADD90RotRect,2.400000X0.800000X225.000000*%
%TD*%
%TA.AperFunction,SMDPad,CuDef*%
%ADD91RotRect,1.500000X1.500000X22.500000*%
%TD*%
%TA.AperFunction,SMDPad,CuDef*%
%ADD92R,0.240000X0.600000*%
%TD*%
%TA.AperFunction,ComponentPad*%
%ADD93C,0.600000*%
%TD*%
%TA.AperFunction,SMDPad,CuDef*%
%ADD94FreePoly0,90.000000*%
%TD*%
%TA.AperFunction,SMDPad,CuDef*%
%ADD95RoundRect,0.135000X-0.119255X0.195520X-0.222580X-0.053927X0.119255X-0.195520X0.222580X0.053927X0*%
%TD*%
%TA.AperFunction,SMDPad,CuDef*%
%ADD96RotRect,1.300000X0.900000X292.500000*%
%TD*%
%TA.AperFunction,SMDPad,CuDef*%
%ADD97RotRect,2.200000X1.200000X292.500000*%
%TD*%
%TA.AperFunction,SMDPad,CuDef*%
%ADD98RotRect,1.500000X1.300000X292.500000*%
%TD*%
%TA.AperFunction,SMDPad,CuDef*%
%ADD99RotRect,2.400000X0.800000X292.500000*%
%TD*%
%TA.AperFunction,SMDPad,CuDef*%
%ADD100RotRect,1.300000X0.900000X135.000000*%
%TD*%
%TA.AperFunction,SMDPad,CuDef*%
%ADD101RotRect,2.200000X1.200000X135.000000*%
%TD*%
%TA.AperFunction,SMDPad,CuDef*%
%ADD102RotRect,1.500000X1.300000X135.000000*%
%TD*%
%TA.AperFunction,SMDPad,CuDef*%
%ADD103RotRect,2.400000X0.800000X135.000000*%
%TD*%
%TA.AperFunction,SMDPad,CuDef*%
%ADD104R,0.650000X0.300000*%
%TD*%
%TA.AperFunction,SMDPad,CuDef*%
%ADD105R,1.150000X0.300000*%
%TD*%
%TA.AperFunction,SMDPad,CuDef*%
%ADD106RoundRect,0.062500X0.350000X0.062500X-0.350000X0.062500X-0.350000X-0.062500X0.350000X-0.062500X0*%
%TD*%
%TA.AperFunction,SMDPad,CuDef*%
%ADD107RoundRect,0.062500X0.062500X0.350000X-0.062500X0.350000X-0.062500X-0.350000X0.062500X-0.350000X0*%
%TD*%
%TA.AperFunction,SMDPad,CuDef*%
%ADD108R,2.700000X2.700000*%
%TD*%
%TA.AperFunction,SMDPad,CuDef*%
%ADD109R,0.900000X1.300000*%
%TD*%
%TA.AperFunction,SMDPad,CuDef*%
%ADD110R,1.200000X2.200000*%
%TD*%
%TA.AperFunction,SMDPad,CuDef*%
%ADD111R,1.300000X1.500000*%
%TD*%
%TA.AperFunction,SMDPad,CuDef*%
%ADD112R,0.800000X2.400000*%
%TD*%
%TA.AperFunction,SMDPad,CuDef*%
%ADD113RoundRect,0.140000X0.103484X-0.194399X0.210635X0.064287X-0.103484X0.194399X-0.210635X-0.064287X0*%
%TD*%
%TA.AperFunction,ComponentPad*%
%ADD114RotRect,1.700000X1.700000X145.000000*%
%TD*%
%TA.AperFunction,ComponentPad*%
%ADD115HorizOval,1.700000X0.000000X0.000000X0.000000X0.000000X0*%
%TD*%
%TA.AperFunction,SMDPad,CuDef*%
%ADD116RoundRect,0.140000X0.219203X0.021213X0.021213X0.219203X-0.219203X-0.021213X-0.021213X-0.219203X0*%
%TD*%
%TA.AperFunction,SMDPad,CuDef*%
%ADD117C,0.245000*%
%TD*%
%TA.AperFunction,SMDPad,CuDef*%
%ADD118RotRect,0.450000X0.950000X112.500000*%
%TD*%
%TA.AperFunction,SMDPad,CuDef*%
%ADD119RotRect,0.350000X2.300000X112.500000*%
%TD*%
%TA.AperFunction,SMDPad,CuDef*%
%ADD120RotRect,1.300000X0.350000X112.500000*%
%TD*%
%TA.AperFunction,SMDPad,CuDef*%
%ADD121RoundRect,0.135000X0.035355X-0.226274X0.226274X-0.035355X-0.035355X0.226274X-0.226274X0.035355X0*%
%TD*%
%TA.AperFunction,SMDPad,CuDef*%
%ADD122RotRect,2.000000X2.000000X22.500000*%
%TD*%
%TA.AperFunction,SMDPad,CuDef*%
%ADD123RoundRect,0.150000X-0.057543X-0.530891X0.334707X0.416086X0.057543X0.530891X-0.334707X-0.416086X0*%
%TD*%
%TA.AperFunction,SMDPad,CuDef*%
%ADD124RotRect,1.300000X0.900000X315.000000*%
%TD*%
%TA.AperFunction,SMDPad,CuDef*%
%ADD125RotRect,2.200000X1.200000X315.000000*%
%TD*%
%TA.AperFunction,SMDPad,CuDef*%
%ADD126RotRect,1.500000X1.300000X315.000000*%
%TD*%
%TA.AperFunction,SMDPad,CuDef*%
%ADD127RotRect,2.400000X0.800000X315.000000*%
%TD*%
%TA.AperFunction,SMDPad,CuDef*%
%ADD128RotRect,1.300000X0.900000X112.500000*%
%TD*%
%TA.AperFunction,SMDPad,CuDef*%
%ADD129RotRect,2.200000X1.200000X112.500000*%
%TD*%
%TA.AperFunction,SMDPad,CuDef*%
%ADD130RotRect,1.500000X1.300000X112.500000*%
%TD*%
%TA.AperFunction,SMDPad,CuDef*%
%ADD131RotRect,2.400000X0.800000X112.500000*%
%TD*%
%TA.AperFunction,ComponentPad*%
%ADD132C,3.000000*%
%TD*%
%TA.AperFunction,ViaPad*%
%ADD133C,0.450000*%
%TD*%
%TA.AperFunction,Conductor*%
%ADD134C,0.127000*%
%TD*%
%TA.AperFunction,Conductor*%
%ADD135C,0.500000*%
%TD*%
%TA.AperFunction,Conductor*%
%ADD136C,0.250000*%
%TD*%
%TA.AperFunction,Conductor*%
%ADD137C,0.280000*%
%TD*%
%TA.AperFunction,Conductor*%
%ADD138C,1.000000*%
%TD*%
G04 APERTURE END LIST*
%TO.C,REF\u002A\u002A*%
D10*
X62600000Y-137650000D02*
G75*
G03*
X62600000Y-137650000I-250000J0D01*
G01*
X62600000Y-62350000D02*
G75*
G03*
X62600000Y-62350000I-250000J0D01*
G01*
X137900000Y-62350000D02*
G75*
G03*
X137900000Y-62350000I-250000J0D01*
G01*
X137900000Y-137650000D02*
G75*
G03*
X137900000Y-137650000I-250000J0D01*
G01*
%TD*%
D11*
%TO.P,R6,1*%
%TO.N,Net-(Q1-S)*%
X108354952Y-126567013D03*
%TO.P,R6,2*%
%TO.N,Net-(U2-SRN)*%
X107964614Y-125624655D03*
%TD*%
D12*
%TO.P,R23,1*%
%TO.N,Net-(U1-IO10)*%
X106109662Y-73842358D03*
%TO.P,R23,2*%
%TO.N,GND*%
X106500000Y-72900000D03*
%TD*%
D13*
%TO.P,J2,1,Pin_1*%
%TO.N,/Logic/EN*%
X92600000Y-78030000D03*
D14*
%TO.P,J2,2,Pin_2*%
%TO.N,GND*%
X92600000Y-75490000D03*
%TO.P,J2,3,Pin_3*%
%TO.N,/Logic/IO9*%
X92600000Y-72950000D03*
%TD*%
D15*
%TO.P,U10,1,VDD_IO*%
%TO.N,+3V3*%
X98658209Y-111478945D03*
%TO.P,U10,2,NC*%
%TO.N,unconnected-(U10-NC-Pad2)*%
X99158209Y-111478945D03*
%TO.P,U10,3,NC*%
%TO.N,unconnected-(U10-NC-Pad3)*%
X99658209Y-111478945D03*
%TO.P,U10,4,SCL/SPC*%
%TO.N,/Battery/SCL*%
X100158209Y-111478945D03*
%TO.P,U10,5,GND*%
%TO.N,GND*%
X100658209Y-111478945D03*
D16*
%TO.P,U10,6,SDA/SDI/SDO*%
%TO.N,/Battery/SDA*%
X100883209Y-110753945D03*
%TO.P,U10,7,SDO/SA0*%
%TO.N,GND*%
X100883209Y-110253945D03*
%TO.P,U10,8,CS*%
%TO.N,+3V3*%
X100883209Y-109753945D03*
D15*
%TO.P,U10,9,INT2*%
%TO.N,Net-(U1-IO6)*%
X100658209Y-109028945D03*
%TO.P,U10,10,GND*%
%TO.N,GND*%
X100158209Y-109028945D03*
%TO.P,U10,11,INT1*%
%TO.N,Net-(U1-IO7)*%
X99658209Y-109028945D03*
%TO.P,U10,12,GND*%
%TO.N,GND*%
X99158209Y-109028945D03*
%TO.P,U10,13,ADC3*%
%TO.N,unconnected-(U10-ADC3-Pad13)*%
X98658209Y-109028945D03*
D16*
%TO.P,U10,14,VDD*%
%TO.N,+3V3*%
X98433209Y-109753945D03*
%TO.P,U10,15,ADC2*%
%TO.N,unconnected-(U10-ADC2-Pad15)*%
X98433209Y-110253945D03*
%TO.P,U10,16,ADC1*%
%TO.N,unconnected-(U10-ADC1-Pad16)*%
X98433209Y-110753945D03*
%TD*%
D17*
%TO.P,U5,1,GND*%
%TO.N,GND*%
X128197488Y-111098957D03*
%TO.P,U5,2,CSB*%
%TO.N,+3V3*%
X127948744Y-111699479D03*
%TO.P,U5,3,SDA*%
%TO.N,/Battery/SDA*%
X127700000Y-112300000D03*
%TO.P,U5,4,SCK*%
%TO.N,/Battery/SCL*%
X127451255Y-112900522D03*
%TO.P,U5,5,SDO*%
%TO.N,Net-(U1-IO4)*%
X126111630Y-112345631D03*
%TO.P,U5,6,VDDIO*%
%TO.N,+3V3*%
X126360374Y-111745109D03*
%TO.P,U5,7,GND*%
%TO.N,GND*%
X126609118Y-111144588D03*
%TO.P,U5,8,VDD*%
%TO.N,+3V3*%
X126857863Y-110544066D03*
%TD*%
D18*
%TO.P,L4,1*%
%TO.N,Net-(U9-L1)*%
X93000000Y-102045001D03*
%TO.P,L4,2*%
%TO.N,Net-(U9-L2)*%
X90200000Y-102045001D03*
%TD*%
D19*
%TO.P,U7,1,VDD*%
%TO.N,+3V3*%
X98850003Y-89199996D03*
%TO.P,U7,2,NC*%
%TO.N,unconnected-(U7-NC-Pad2)*%
X98850003Y-89849996D03*
%TO.P,U7,3,GND*%
%TO.N,GND*%
X98850003Y-90499996D03*
%TO.P,U7,4,SCL*%
%TO.N,/Battery/SCL*%
X100650003Y-90499996D03*
%TO.P,U7,5,INT*%
%TO.N,Net-(U1-IO5)*%
X100650003Y-89849996D03*
%TO.P,U7,6,SDA*%
%TO.N,/Battery/SDA*%
X100650003Y-89199996D03*
%TD*%
D20*
%TO.P,D15,1,DIN*%
%TO.N,Net-(D14-DOUT)*%
X90411701Y-88190381D03*
D21*
%TO.P,D15,2,VDD*%
%TO.N,/Charger/VLED*%
X88997487Y-87412563D03*
D22*
%TO.P,D15,3,DOUT*%
%TO.N,Net-(D15-DOUT)*%
X87300431Y-89180330D03*
D23*
%TO.P,D15,4,VSS*%
%TO.N,GND*%
X88714645Y-89958148D03*
%TD*%
D24*
%TO.P,R14,1*%
%TO.N,Net-(U8-TS)*%
X102122502Y-93900000D03*
%TO.P,R14,2*%
%TO.N,GND*%
X101102502Y-93900000D03*
%TD*%
D25*
%TO.P,D13,1,DIN*%
%TO.N,Net-(D12-DOUT)*%
X101500000Y-84850000D03*
D26*
%TO.P,D13,2,VDD*%
%TO.N,/Charger/VLED*%
X101050000Y-83300000D03*
D27*
%TO.P,D13,3,DOUT*%
%TO.N,Net-(D13-DOUT)*%
X98600000Y-83350000D03*
D28*
%TO.P,D13,4,VSS*%
%TO.N,GND*%
X99050000Y-84900000D03*
%TD*%
D29*
%TO.P,D16,1,DIN*%
%TO.N,Net-(D15-DOUT)*%
X86609323Y-92789462D03*
D30*
%TO.P,D16,2,VDD*%
%TO.N,/Charger/VLED*%
X85005102Y-92612048D03*
D31*
%TO.P,D16,3,DOUT*%
%TO.N,Net-(D1-DIN)*%
X84113721Y-94894687D03*
D32*
%TO.P,D16,4,VSS*%
%TO.N,GND*%
X85717942Y-95072101D03*
%TD*%
D33*
%TO.P,C5,1*%
%TO.N,GND*%
X95186924Y-112707376D03*
%TO.P,C5,2*%
%TO.N,/Charger/VLED*%
X94300000Y-112340000D03*
%TD*%
D34*
%TO.P,C32,1*%
%TO.N,/Battery/BAT+*%
X99912503Y-95874998D03*
%TO.P,C32,2*%
%TO.N,GND*%
X99912503Y-94324998D03*
%TD*%
D35*
%TO.P,C26,1*%
%TO.N,Net-(Q1-S)*%
X110217376Y-123736924D03*
%TO.P,C26,2*%
%TO.N,Net-(U4-VDD)*%
X109850000Y-122850000D03*
%TD*%
D36*
%TO.P,C17,1*%
%TO.N,VBUS*%
X78800000Y-101750000D03*
%TO.P,C17,2*%
%TO.N,GND*%
X78800000Y-104450000D03*
%TD*%
D37*
%TO.P,C72,1*%
%TO.N,GND*%
X94099999Y-98284999D03*
%TO.P,C72,2*%
%TO.N,/Charger/VSYS*%
X94099999Y-99244999D03*
%TD*%
D38*
%TO.P,C73,1*%
%TO.N,GND*%
X91140000Y-95344996D03*
%TO.P,C73,2*%
%TO.N,/Charger/VSYS*%
X92100000Y-95344996D03*
%TD*%
D39*
%TO.P,C12,1*%
%TO.N,GND*%
X109270589Y-90170589D03*
%TO.P,C12,2*%
%TO.N,/Charger/VLED*%
X109949411Y-90849411D03*
%TD*%
D37*
%TO.P,C74,1*%
%TO.N,GND*%
X89140001Y-98285001D03*
%TO.P,C74,2*%
%TO.N,+3V3*%
X89140001Y-99245001D03*
%TD*%
D40*
%TO.P,R19,1*%
%TO.N,/Logic/LED2*%
X78579999Y-99500000D03*
%TO.P,R19,2*%
%TO.N,Net-(U1-TXD0)*%
X79599999Y-99500000D03*
%TD*%
D41*
%TO.P,C20,1*%
%TO.N,GND1*%
X107252823Y-123906239D03*
%TO.P,C20,2*%
%TO.N,Net-(U2-SRP)*%
X106365899Y-124273615D03*
%TD*%
D42*
%TO.P,D14,1,DIN*%
%TO.N,Net-(D13-DOUT)*%
X95561100Y-85411272D03*
D43*
%TO.P,D14,2,VDD*%
%TO.N,/Charger/VLED*%
X94552195Y-84151467D03*
D44*
%TO.P,D14,3,DOUT*%
%TO.N,Net-(D14-DOUT)*%
X92307824Y-85135235D03*
D45*
%TO.P,D14,4,VSS*%
%TO.N,GND*%
X93316730Y-86395041D03*
%TD*%
D46*
%TO.P,C68,1*%
%TO.N,+3V3*%
X92516313Y-67656537D03*
%TO.P,C68,2*%
%TO.N,GND*%
X92883689Y-68543461D03*
%TD*%
D47*
%TO.P,C13,1*%
%TO.N,GND*%
X104826538Y-87346312D03*
%TO.P,C13,2*%
%TO.N,/Charger/VLED*%
X105713462Y-87713688D03*
%TD*%
D48*
%TO.P,C28,1*%
%TO.N,/Charger/VLED*%
X105312502Y-100725001D03*
%TO.P,C28,2*%
%TO.N,GND*%
X107212502Y-100725001D03*
%TD*%
D49*
%TO.P,C16,1*%
%TO.N,GND*%
X90190589Y-90679411D03*
%TO.P,C16,2*%
%TO.N,/Charger/VLED*%
X90869411Y-90000589D03*
%TD*%
D50*
%TO.P,C9,1*%
%TO.N,GND*%
X112713688Y-104736538D03*
%TO.P,C9,2*%
%TO.N,/Charger/VLED*%
X112346312Y-105623462D03*
%TD*%
D51*
%TO.P,Q1,1,G*%
%TO.N,Net-(Q1-G)*%
X110904177Y-126939846D03*
%TO.P,Q1,2,S*%
%TO.N,Net-(Q1-S)*%
X111631275Y-128695217D03*
%TO.P,Q1,3,D*%
%TO.N,Net-(Q1-D)*%
X113000000Y-127100000D03*
%TD*%
D52*
%TO.P,R4,1*%
%TO.N,GND1*%
X107604997Y-128382178D03*
%TO.P,R4,2*%
%TO.N,Net-(Q1-S)*%
X109291077Y-127683780D03*
%TD*%
D53*
%TO.P,C21,1*%
%TO.N,Net-(U2-SRP)*%
X106710970Y-125158954D03*
%TO.P,C21,2*%
%TO.N,Net-(U2-SRN)*%
X107597894Y-124791578D03*
%TD*%
D40*
%TO.P,R48,1*%
%TO.N,+3V3*%
X89190004Y-95345001D03*
%TO.P,R48,2*%
%TO.N,Net-(U9-FB)*%
X90210004Y-95345001D03*
%TD*%
D54*
%TO.P,R9,1*%
%TO.N,Net-(U2-TS)*%
X104910294Y-122170565D03*
%TO.P,R9,2*%
%TO.N,Net-(U2-VCC)*%
X105300632Y-123112923D03*
%TD*%
D55*
%TO.P,R11,1*%
%TO.N,+BATT*%
X110228821Y-121345169D03*
%TO.P,R11,2*%
%TO.N,Net-(U4-VDD)*%
X111171179Y-120954831D03*
%TD*%
D46*
%TO.P,C23,1*%
%TO.N,Net-(U2-BAT)*%
X108571915Y-120296683D03*
%TO.P,C23,2*%
%TO.N,GND1*%
X108939291Y-121183607D03*
%TD*%
D13*
%TO.P,J1,1,Pin_1*%
%TO.N,/Charger/PWR_ON*%
X68850000Y-107900000D03*
D14*
%TO.P,J1,2,Pin_2*%
%TO.N,/USB/VBAT*%
X71390000Y-107900000D03*
%TD*%
D34*
%TO.P,C31,1*%
%TO.N,/Charger/VSYS*%
X98412503Y-97374999D03*
%TO.P,C31,2*%
%TO.N,GND*%
X98412503Y-95824999D03*
%TD*%
D56*
%TO.P,C8,1*%
%TO.N,GND*%
X109829411Y-109310589D03*
%TO.P,C8,2*%
%TO.N,/Charger/VLED*%
X109150589Y-109989411D03*
%TD*%
D57*
%TO.P,R15,1*%
%TO.N,Net-(U8-D+)*%
X107512504Y-96395000D03*
%TO.P,R15,2*%
%TO.N,GND*%
X107512504Y-95375000D03*
%TD*%
D58*
%TO.P,F1,1*%
%TO.N,+BATT*%
X102550000Y-79600000D03*
%TO.P,F1,2*%
%TO.N,/Battery/BAT+*%
X99750000Y-79600000D03*
%TD*%
D59*
%TO.P,R22,1*%
%TO.N,+3V3*%
X101800005Y-88689996D03*
%TO.P,R22,2*%
%TO.N,Net-(U1-IO5)*%
X101800005Y-89709996D03*
%TD*%
D41*
%TO.P,C7,1*%
%TO.N,GND*%
X105566924Y-112342624D03*
%TO.P,C7,2*%
%TO.N,/Charger/VLED*%
X104680000Y-112710000D03*
%TD*%
D60*
%TO.P,D8,1,DIN*%
%TO.N,Net-(D7-DOUT)*%
X113440677Y-107160538D03*
D61*
%TO.P,D8,2,VDD*%
%TO.N,/Charger/VLED*%
X115044898Y-107337952D03*
D62*
%TO.P,D8,3,DOUT*%
%TO.N,Net-(D8-DOUT)*%
X115936279Y-105055313D03*
D63*
%TO.P,D8,4,VSS*%
%TO.N,GND*%
X114332058Y-104877899D03*
%TD*%
D64*
%TO.P,D12,1,DIN*%
%TO.N,/LEDs/DIN*%
X107210538Y-86609323D03*
D65*
%TO.P,D12,2,VDD*%
%TO.N,/Charger/VLED*%
X107387952Y-85005102D03*
D66*
%TO.P,D12,3,DOUT*%
%TO.N,Net-(D12-DOUT)*%
X105105313Y-84113721D03*
D67*
%TO.P,D12,4,VSS*%
%TO.N,GND*%
X104927899Y-85717942D03*
%TD*%
D38*
%TO.P,C14,1*%
%TO.N,GND*%
X99540000Y-86460000D03*
%TO.P,C14,2*%
%TO.N,/Charger/VLED*%
X100500000Y-86460000D03*
%TD*%
D68*
%TO.P,C2,1*%
%TO.N,GND*%
X86450000Y-100410000D03*
%TO.P,C2,2*%
%TO.N,/Charger/VLED*%
X86450000Y-99450000D03*
%TD*%
D69*
%TO.P,R12,1*%
%TO.N,Net-(Q1-G)*%
X106863761Y-119413107D03*
%TO.P,R12,2*%
%TO.N,/Battery/DSG*%
X105921403Y-119803445D03*
%TD*%
D70*
%TO.P,D6,1,DIN*%
%TO.N,Net-(D5-DOUT)*%
X104388900Y-114588728D03*
D71*
%TO.P,D6,2,VDD*%
%TO.N,/Charger/VLED*%
X105397805Y-115848533D03*
D72*
%TO.P,D6,3,DOUT*%
%TO.N,Net-(D6-DOUT)*%
X107642176Y-114864765D03*
D73*
%TO.P,D6,4,VSS*%
%TO.N,GND*%
X106633270Y-113604959D03*
%TD*%
D68*
%TO.P,C71,1*%
%TO.N,GND*%
X94100001Y-97325000D03*
%TO.P,C71,2*%
%TO.N,/Charger/VSYS*%
X94100001Y-96365000D03*
%TD*%
D74*
%TO.P,R46,1*%
%TO.N,+3V3*%
X115142358Y-71440338D03*
%TO.P,R46,2*%
%TO.N,/Battery/SCL*%
X114200000Y-71050000D03*
%TD*%
D75*
%TO.P,C30,1*%
%TO.N,/Charger/VSYS*%
X99912502Y-97325000D03*
%TO.P,C30,2*%
%TO.N,GND*%
X99912502Y-98875000D03*
%TD*%
D57*
%TO.P,R18,1*%
%TO.N,VBUS*%
X106512500Y-98315000D03*
%TO.P,R18,2*%
%TO.N,Net-(U8-D-)*%
X106512500Y-97295000D03*
%TD*%
D76*
%TO.P,C6,1*%
%TO.N,GND*%
X100410000Y-113530000D03*
%TO.P,C6,2*%
%TO.N,/Charger/VLED*%
X99450000Y-113530000D03*
%TD*%
D77*
%TO.P,U4,1,DO*%
%TO.N,Net-(Q1-G)*%
X111994629Y-124627097D03*
%TO.P,U4,2,VM*%
%TO.N,Net-(U4-VM)*%
X112872314Y-124263548D03*
%TO.P,U4,3,CO*%
%TO.N,Net-(Q2-G)*%
X113750000Y-123899999D03*
%TO.P,U4,4,NC*%
%TO.N,unconnected-(U4-NC-Pad4)*%
X112879395Y-121798173D03*
%TO.P,U4,5,VDD*%
%TO.N,Net-(U4-VDD)*%
X112001710Y-122161722D03*
%TO.P,U4,6,VSS*%
%TO.N,Net-(Q1-S)*%
X111124024Y-122525271D03*
%TD*%
D78*
%TO.P,D4,1,DIN*%
%TO.N,Net-(D3-DOUT)*%
X92789462Y-113440677D03*
D79*
%TO.P,D4,2,VDD*%
%TO.N,/Charger/VLED*%
X92612048Y-115044898D03*
D80*
%TO.P,D4,3,DOUT*%
%TO.N,Net-(D4-DOUT)*%
X94894687Y-115936279D03*
D81*
%TO.P,D4,4,VSS*%
%TO.N,GND*%
X95072101Y-114332058D03*
%TD*%
D82*
%TO.P,U1,1,GND*%
%TO.N,GND*%
X117218479Y-73764617D03*
%TO.P,U1,2,GND*%
X116479376Y-73458471D03*
%TO.P,U1,3,3V3*%
%TO.N,+3V3*%
X115740272Y-73152324D03*
%TO.P,U1,4*%
%TO.N,N/C*%
X115001169Y-72846177D03*
%TO.P,U1,5,IO2*%
%TO.N,/Battery/SCL*%
X114262065Y-72540031D03*
%TO.P,U1,6,IO3*%
%TO.N,/LEDs/DIN*%
X113522961Y-72233884D03*
%TO.P,U1,7*%
%TO.N,N/C*%
X112783858Y-71927737D03*
%TO.P,U1,8,EN*%
%TO.N,/Logic/EN*%
X112044754Y-71621590D03*
%TO.P,U1,9*%
%TO.N,N/C*%
X111305650Y-71315444D03*
%TO.P,U1,10*%
X110566547Y-71009297D03*
%TO.P,U1,11,GND*%
%TO.N,GND*%
X109827443Y-70703150D03*
D83*
%TO.P,U1,12,IO0*%
%TO.N,Net-(U1-IO0)*%
X108575000Y-71375002D03*
%TO.P,U1,13,IO1*%
%TO.N,/Charger/~{CHARGE_ENABLE}*%
X108268853Y-72114106D03*
%TO.P,U1,14,GND*%
%TO.N,GND*%
X107962706Y-72853210D03*
%TO.P,U1,15*%
%TO.N,N/C*%
X107656560Y-73592313D03*
%TO.P,U1,16,IO10*%
%TO.N,Net-(U1-IO10)*%
X107350413Y-74331417D03*
%TO.P,U1,17*%
%TO.N,N/C*%
X107044266Y-75070521D03*
%TO.P,U1,18,IO4*%
%TO.N,Net-(U1-IO4)*%
X106738119Y-75809624D03*
%TO.P,U1,19,IO5*%
%TO.N,Net-(U1-IO5)*%
X106431973Y-76548728D03*
%TO.P,U1,20,IO6*%
%TO.N,Net-(U1-IO6)*%
X106125826Y-77287831D03*
%TO.P,U1,21,IO7*%
%TO.N,Net-(U1-IO7)*%
X105819679Y-78026935D03*
%TO.P,U1,22,IO8*%
%TO.N,/Battery/SDA*%
X105513532Y-78766039D03*
%TO.P,U1,23,IO9*%
%TO.N,/Logic/IO9*%
X105207386Y-79505142D03*
%TO.P,U1,24*%
%TO.N,N/C*%
X104901239Y-80244246D03*
D82*
%TO.P,U1,25*%
X105311779Y-81604929D03*
%TO.P,U1,26,IO18/D-*%
%TO.N,/Logic/USB_D-*%
X106050882Y-81911075D03*
%TO.P,U1,27,IO19/D+*%
%TO.N,/Logic/USB_D+*%
X106789986Y-82217222D03*
%TO.P,U1,28*%
%TO.N,N/C*%
X107529089Y-82523369D03*
%TO.P,U1,29*%
X108268193Y-82829515D03*
%TO.P,U1,30,RXD0*%
%TO.N,Net-(U1-RXD0)*%
X109007297Y-83135662D03*
%TO.P,U1,31,TXD0*%
%TO.N,Net-(U1-TXD0)*%
X109746400Y-83441809D03*
%TO.P,U1,32*%
%TO.N,N/C*%
X110485504Y-83747956D03*
%TO.P,U1,33*%
X111224608Y-84054102D03*
%TO.P,U1,34*%
X111963711Y-84360249D03*
%TO.P,U1,35*%
X112702815Y-84666396D03*
D83*
%TO.P,U1,36,GND*%
%TO.N,GND*%
X113955258Y-83994544D03*
%TO.P,U1,37,GND*%
X114261405Y-83255440D03*
%TO.P,U1,38,GND*%
X114567552Y-82516336D03*
%TO.P,U1,39,GND*%
X114873698Y-81777233D03*
%TO.P,U1,40,GND*%
X115179845Y-81038129D03*
%TO.P,U1,41,GND*%
X115485992Y-80299025D03*
%TO.P,U1,42,GND*%
X115792139Y-79559922D03*
%TO.P,U1,43,GND*%
X116098285Y-78820818D03*
%TO.P,U1,44,GND*%
X116404432Y-78081715D03*
%TO.P,U1,45,GND*%
X116710579Y-77342611D03*
%TO.P,U1,46,GND*%
X117016726Y-76603507D03*
%TO.P,U1,47,GND*%
X117322872Y-75864404D03*
%TO.P,U1,48,GND*%
X117629019Y-75125300D03*
D84*
%TO.P,U1,49,GND*%
X113845591Y-76615911D03*
D85*
X112020929Y-75860111D03*
X110196267Y-75104311D03*
X113089791Y-78440573D03*
X111265129Y-77684773D03*
X109440467Y-76928973D03*
X112333991Y-80265235D03*
X110509329Y-79509435D03*
X108684667Y-78753635D03*
D86*
%TO.P,U1,50,GND*%
X113561366Y-85076139D03*
%TO.P,U1,51,GND*%
X104414959Y-81287573D03*
%TO.P,U1,52,GND*%
X108968892Y-70293407D03*
%TO.P,U1,53,GND*%
X118115299Y-74081973D03*
%TD*%
D69*
%TO.P,R10,1*%
%TO.N,+BATT*%
X109531569Y-121934078D03*
%TO.P,R10,2*%
%TO.N,Net-(U2-REGIN)*%
X108589211Y-122324416D03*
%TD*%
D87*
%TO.P,D7,1,DIN*%
%TO.N,Net-(D6-DOUT)*%
X109638299Y-111809619D03*
D88*
%TO.P,D7,2,VDD*%
%TO.N,/Charger/VLED*%
X111052513Y-112587437D03*
D89*
%TO.P,D7,3,DOUT*%
%TO.N,Net-(D7-DOUT)*%
X112749569Y-110819670D03*
D90*
%TO.P,D7,4,VSS*%
%TO.N,GND*%
X111335355Y-110041852D03*
%TD*%
D47*
%TO.P,C70,1*%
%TO.N,+3V3*%
X127361097Y-109638605D03*
%TO.P,C70,2*%
%TO.N,GND*%
X128248021Y-110005981D03*
%TD*%
D91*
%TO.P,TP5,1,1*%
%TO.N,Net-(Q1-S)*%
X110288260Y-125354900D03*
%TD*%
D37*
%TO.P,C67,1*%
%TO.N,+3V3*%
X97710004Y-89400000D03*
%TO.P,C67,2*%
%TO.N,GND*%
X97710004Y-90360000D03*
%TD*%
D68*
%TO.P,C27,1*%
%TO.N,Net-(C27-Pad1)*%
X103112500Y-101105001D03*
%TO.P,C27,2*%
%TO.N,Net-(U8-BTST)*%
X103112500Y-100145001D03*
%TD*%
D92*
%TO.P,U9,1,VOUT*%
%TO.N,+3V3*%
X90600000Y-99245002D03*
%TO.P,U9,2,L2*%
%TO.N,Net-(U9-L2)*%
X91100000Y-99245002D03*
%TO.P,U9,3,PGND*%
%TO.N,GND*%
X91600000Y-99245002D03*
%TO.P,U9,4,L1*%
%TO.N,Net-(U9-L1)*%
X92100000Y-99245002D03*
%TO.P,U9,5,VIN*%
%TO.N,/Charger/VSYS*%
X92600000Y-99245002D03*
%TO.P,U9,6,EN*%
X92600000Y-96445002D03*
%TO.P,U9,7,PS/SYNC*%
X92100000Y-96445002D03*
%TO.P,U9,8,VINA*%
X91600000Y-96445002D03*
%TO.P,U9,9,GND*%
%TO.N,GND*%
X91100000Y-96445002D03*
%TO.P,U9,10,FB*%
%TO.N,Net-(U9-FB)*%
X90600000Y-96445002D03*
D93*
%TO.P,U9,11,PGND*%
%TO.N,GND*%
X91600000Y-98345002D03*
X90700000Y-97845002D03*
D94*
X91600000Y-97845002D03*
D93*
X92500000Y-97845002D03*
X91600000Y-97345002D03*
%TD*%
D53*
%TO.P,C15,1*%
%TO.N,GND*%
X94386538Y-87653688D03*
%TO.P,C15,2*%
%TO.N,/Charger/VLED*%
X95273462Y-87286312D03*
%TD*%
D95*
%TO.P,R45,1*%
%TO.N,+3V3*%
X105745169Y-74678821D03*
%TO.P,R45,2*%
%TO.N,/Battery/SDA*%
X105354831Y-75621179D03*
%TD*%
D54*
%TO.P,R7,1*%
%TO.N,+BATT*%
X107852470Y-118559789D03*
%TO.P,R7,2*%
%TO.N,Net-(U2-BAT)*%
X108242808Y-119502147D03*
%TD*%
D96*
%TO.P,D10,1,DIN*%
%TO.N,Net-(D10-DIN)*%
X114588728Y-95611100D03*
D97*
%TO.P,D10,2,VDD*%
%TO.N,/Charger/VLED*%
X115848533Y-94602195D03*
D98*
%TO.P,D10,3,DOUT*%
%TO.N,Net-(D10-DOUT)*%
X114864765Y-92357824D03*
D99*
%TO.P,D10,4,VSS*%
%TO.N,GND*%
X113604959Y-93366730D03*
%TD*%
D100*
%TO.P,D3,1,DIN*%
%TO.N,Net-(D2-DOUT)*%
X88190381Y-109588299D03*
D101*
%TO.P,D3,2,VDD*%
%TO.N,/Charger/VLED*%
X87412563Y-111002513D03*
D102*
%TO.P,D3,3,DOUT*%
%TO.N,Net-(D3-DOUT)*%
X89180330Y-112699569D03*
D103*
%TO.P,D3,4,VSS*%
%TO.N,GND*%
X89958148Y-111285355D03*
%TD*%
D50*
%TO.P,C69,1*%
%TO.N,GND*%
X125820871Y-110515757D03*
%TO.P,C69,2*%
%TO.N,+3V3*%
X125453495Y-111402681D03*
%TD*%
D76*
%TO.P,C33,1*%
%TO.N,GND*%
X107434996Y-99199998D03*
%TO.P,C33,2*%
%TO.N,VBUS*%
X106474996Y-99199998D03*
%TD*%
D57*
%TO.P,R43,1*%
%TO.N,+3V3*%
X90300000Y-73010000D03*
%TO.P,R43,2*%
%TO.N,/Logic/IO9*%
X90300000Y-71990000D03*
%TD*%
D37*
%TO.P,C10,1*%
%TO.N,GND*%
X113530000Y-99590000D03*
%TO.P,C10,2*%
%TO.N,/Charger/VLED*%
X113530000Y-100550000D03*
%TD*%
D74*
%TO.P,R21,1*%
%TO.N,+3V3*%
X126679541Y-113574555D03*
%TO.P,R21,2*%
%TO.N,Net-(U1-IO4)*%
X125737183Y-113184217D03*
%TD*%
D104*
%TO.P,J4,1,Pin_1*%
%TO.N,GND*%
X77100000Y-96250000D03*
%TO.P,J4,2,Pin_2*%
%TO.N,/Logic/USB_D-*%
X77100000Y-96750000D03*
%TO.P,J4,3,Pin_3*%
%TO.N,/Logic/USB_D+*%
X77100000Y-97250000D03*
%TO.P,J4,4,Pin_4*%
%TO.N,GND*%
X77100000Y-97750000D03*
%TO.P,J4,5,Pin_5*%
X77100000Y-98250000D03*
%TO.P,J4,6,Pin_6*%
%TO.N,/Logic/LED1*%
X77100000Y-98750000D03*
%TO.P,J4,7,Pin_7*%
%TO.N,/Logic/LED2*%
X77100000Y-99250000D03*
%TO.P,J4,8,Pin_8*%
%TO.N,/USB/VBAT*%
X77100000Y-99750000D03*
%TO.P,J4,9,Pin_9*%
%TO.N,/Charger/PWR_ON*%
X77100000Y-100250000D03*
%TO.P,J4,10,Pin_10*%
%TO.N,VBUS*%
X77100000Y-100750000D03*
%TO.P,J4,11,Pin_11*%
X77100000Y-101250000D03*
%TO.P,J4,12,Pin_12*%
X77100000Y-101750000D03*
%TO.P,J4,13,Pin_13*%
X77100000Y-102250000D03*
%TO.P,J4,14,Pin_14*%
X77100000Y-102750000D03*
%TO.P,J4,15,Pin_15*%
%TO.N,GND*%
X77100000Y-103250000D03*
%TO.P,J4,16,Pin_16*%
X77100000Y-103750000D03*
D105*
%TO.P,J4,MP,MountPin*%
X74290000Y-95365000D03*
X74290000Y-104635000D03*
%TD*%
D11*
%TO.P,R8,1*%
%TO.N,GND*%
X115095169Y-123871179D03*
%TO.P,R8,2*%
%TO.N,Net-(U4-VM)*%
X114704831Y-122928821D03*
%TD*%
D40*
%TO.P,R13,1*%
%TO.N,Net-(U8-TS)*%
X102102502Y-92900002D03*
%TO.P,R13,2*%
%TO.N,Net-(U8-REGN)*%
X103122502Y-92900002D03*
%TD*%
%TO.P,R49,1*%
%TO.N,Net-(U9-FB)*%
X90190002Y-94344999D03*
%TO.P,R49,2*%
%TO.N,GND*%
X91210002Y-94344999D03*
%TD*%
D68*
%TO.P,C75,1*%
%TO.N,GND*%
X89140000Y-97395001D03*
%TO.P,C75,2*%
%TO.N,+3V3*%
X89140000Y-96435001D03*
%TD*%
D37*
%TO.P,C29,1*%
%TO.N,Net-(U8-REGN)*%
X104062499Y-100174999D03*
%TO.P,C29,2*%
%TO.N,GND*%
X104062499Y-101134999D03*
%TD*%
D74*
%TO.P,R44,1*%
%TO.N,+3V3*%
X112950000Y-70550000D03*
%TO.P,R44,2*%
%TO.N,/Logic/EN*%
X112007642Y-70159662D03*
%TD*%
D106*
%TO.P,U8,1,VBUS*%
%TO.N,VBUS*%
X105337500Y-98299999D03*
%TO.P,U8,2,D+*%
%TO.N,Net-(U8-D+)*%
X105337500Y-97799999D03*
%TO.P,U8,3,D-*%
%TO.N,Net-(U8-D-)*%
X105337500Y-97299999D03*
%TO.P,U8,4,STAT*%
%TO.N,unconnected-(U8-STAT-Pad4)*%
X105337500Y-96799999D03*
%TO.P,U8,5,SCL*%
%TO.N,/Battery/SCL*%
X105337500Y-96299999D03*
%TO.P,U8,6,SDA*%
%TO.N,/Battery/SDA*%
X105337500Y-95799999D03*
D107*
%TO.P,U8,7,INT*%
%TO.N,unconnected-(U8-INT-Pad7)*%
X104625000Y-95087499D03*
%TO.P,U8,8,OTG*%
%TO.N,+3V3*%
X104125000Y-95087499D03*
%TO.P,U8,9,~{CE}*%
%TO.N,/Charger/~{CHARGE_ENABLE}*%
X103625000Y-95087499D03*
%TO.P,U8,10,ILIM*%
%TO.N,Net-(U8-ILIM)*%
X103125000Y-95087499D03*
%TO.P,U8,11,TS*%
%TO.N,Net-(U8-TS)*%
X102625000Y-95087499D03*
%TO.P,U8,12,QON*%
%TO.N,/Charger/PWR_ON*%
X102125000Y-95087499D03*
D106*
%TO.P,U8,13,BAT*%
%TO.N,/Battery/BAT+*%
X101412500Y-95799999D03*
%TO.P,U8,14,BAT*%
X101412500Y-96299999D03*
%TO.P,U8,15,SYS*%
%TO.N,/Charger/VSYS*%
X101412500Y-96799999D03*
%TO.P,U8,16,SYS*%
X101412500Y-97299999D03*
%TO.P,U8,17,PGND*%
%TO.N,GND*%
X101412500Y-97799999D03*
%TO.P,U8,18,PGND*%
X101412500Y-98299999D03*
D107*
%TO.P,U8,19,SW*%
%TO.N,Net-(C27-Pad1)*%
X102125000Y-99012499D03*
%TO.P,U8,20,SW*%
X102625000Y-99012499D03*
%TO.P,U8,21,BTST*%
%TO.N,Net-(U8-BTST)*%
X103125000Y-99012499D03*
%TO.P,U8,22,REGN*%
%TO.N,Net-(U8-REGN)*%
X103625000Y-99012499D03*
%TO.P,U8,23,PMID*%
%TO.N,/Charger/VLED*%
X104125000Y-99012499D03*
%TO.P,U8,24,VBUS*%
%TO.N,VBUS*%
X104625000Y-99012499D03*
D108*
%TO.P,U8,25,PGND*%
%TO.N,GND*%
X103375000Y-97049999D03*
%TD*%
D109*
%TO.P,D1,1,DIN*%
%TO.N,Net-(D1-DIN)*%
X84850000Y-98500000D03*
D110*
%TO.P,D1,2,VDD*%
%TO.N,/Charger/VLED*%
X83300000Y-98950000D03*
D111*
%TO.P,D1,3,DOUT*%
%TO.N,Net-(D1-DOUT)*%
X83350000Y-101400000D03*
D112*
%TO.P,D1,4,VSS*%
%TO.N,GND*%
X84900000Y-100950000D03*
%TD*%
D46*
%TO.P,C11,1*%
%TO.N,GND*%
X112336312Y-94456538D03*
%TO.P,C11,2*%
%TO.N,/Charger/VLED*%
X112703688Y-95343462D03*
%TD*%
D113*
%TO.P,C1,1*%
%TO.N,GND*%
X87332624Y-95186924D03*
%TO.P,C1,2*%
%TO.N,/Charger/VLED*%
X87700000Y-94300000D03*
%TD*%
D25*
%TO.P,D5,1,DIN*%
%TO.N,Net-(D4-DOUT)*%
X98500000Y-115150000D03*
D26*
%TO.P,D5,2,VDD*%
%TO.N,/Charger/VLED*%
X98950000Y-116700000D03*
D27*
%TO.P,D5,3,DOUT*%
%TO.N,Net-(D5-DOUT)*%
X101400000Y-116650000D03*
D28*
%TO.P,D5,4,VSS*%
%TO.N,GND*%
X100950000Y-115100000D03*
%TD*%
D68*
%TO.P,C19,1*%
%TO.N,+3V3*%
X97366666Y-109877370D03*
%TO.P,C19,2*%
%TO.N,GND*%
X97366666Y-108917370D03*
%TD*%
D40*
%TO.P,R20,1*%
%TO.N,/Logic/LED1*%
X78590000Y-98500000D03*
%TO.P,R20,2*%
%TO.N,Net-(U1-RXD0)*%
X79610000Y-98500000D03*
%TD*%
D114*
%TO.P,J3,1,Pin_1*%
%TO.N,GND*%
X125502981Y-120868127D03*
D115*
%TO.P,J3,2,Pin_2*%
%TO.N,/Battery/SCL*%
X126959865Y-118787481D03*
%TO.P,J3,3,Pin_3*%
%TO.N,/Battery/SDA*%
X128416749Y-116706835D03*
%TD*%
D11*
%TO.P,R5,1*%
%TO.N,GND1*%
X107473439Y-126921323D03*
%TO.P,R5,2*%
%TO.N,Net-(U2-SRP)*%
X107083101Y-125978965D03*
%TD*%
D41*
%TO.P,C24,1*%
%TO.N,Net-(U2-REGIN)*%
X108943522Y-123205928D03*
%TO.P,C24,2*%
%TO.N,GND1*%
X108056598Y-123573304D03*
%TD*%
D116*
%TO.P,C4,1*%
%TO.N,GND*%
X90668822Y-109808822D03*
%TO.P,C4,2*%
%TO.N,/Charger/VLED*%
X89990000Y-109130000D03*
%TD*%
D57*
%TO.P,R16,1*%
%TO.N,Net-(U8-D-)*%
X106512501Y-96399998D03*
%TO.P,R16,2*%
%TO.N,GND*%
X106512501Y-95379998D03*
%TD*%
D51*
%TO.P,Q2,1,G*%
%TO.N,Net-(Q2-G)*%
X113170314Y-125981080D03*
%TO.P,Q2,2,S*%
%TO.N,GND*%
X113897412Y-127736451D03*
%TO.P,Q2,3,D*%
%TO.N,Net-(Q1-D)*%
X115266137Y-126141234D03*
%TD*%
D117*
%TO.P,U2,A1,SRP*%
%TO.N,Net-(U2-SRP)*%
X105979322Y-122268956D03*
%TO.P,U2,A3,SCL*%
%TO.N,/Battery/SCL*%
X105596639Y-121345077D03*
%TO.P,U2,B1,SRN*%
%TO.N,Net-(U2-SRN)*%
X106441262Y-122077614D03*
%TO.P,U2,B2,TS*%
%TO.N,Net-(U2-TS)*%
X106249920Y-121615675D03*
%TO.P,U2,B3,SDA*%
%TO.N,/Battery/SDA*%
X106058579Y-121153735D03*
%TO.P,U2,C1,VSS*%
%TO.N,GND1*%
X106903202Y-121886273D03*
%TO.P,U2,C2,VSS*%
X106711860Y-121424333D03*
%TO.P,U2,C3,SE*%
%TO.N,unconnected-(U2-SE-PadC3)*%
X106520518Y-120962393D03*
%TO.P,U2,D1,VCC*%
%TO.N,Net-(U2-VCC)*%
X107365141Y-121694931D03*
%TO.P,U2,D2,CE*%
%TO.N,/Battery/DSG*%
X107173800Y-121232991D03*
%TO.P,U2,E1,REGIN*%
%TO.N,Net-(U2-REGIN)*%
X107827081Y-121503589D03*
%TO.P,U2,E2,BAT*%
%TO.N,Net-(U2-BAT)*%
X107635740Y-121041650D03*
%TO.P,U2,E3,NC*%
%TO.N,unconnected-(U2-NC-PadE3)*%
X107444398Y-120579710D03*
%TD*%
D118*
%TO.P,U6,1,VDD*%
%TO.N,+3V3*%
X90904668Y-68888910D03*
%TO.P,U6,2,L/R*%
%TO.N,GND*%
X89657431Y-69405533D03*
%TO.P,U6,3,CLK*%
%TO.N,/Logic/IO9*%
X89982712Y-70190830D03*
%TO.P,U6,4,DATA*%
%TO.N,Net-(U1-IO0)*%
X91229949Y-69674207D03*
D119*
%TO.P,U6,5,GND*%
%TO.N,GND*%
X90912477Y-70671622D03*
D120*
X88849998Y-70199999D03*
X92037382Y-68879741D03*
D119*
X89974903Y-68408118D03*
%TD*%
D47*
%TO.P,C66,1*%
%TO.N,GND*%
X110255359Y-69432624D03*
%TO.P,C66,2*%
%TO.N,/Logic/EN*%
X111142283Y-69800000D03*
%TD*%
D57*
%TO.P,R17,1*%
%TO.N,VBUS*%
X107512503Y-98270001D03*
%TO.P,R17,2*%
%TO.N,Net-(U8-D+)*%
X107512503Y-97250001D03*
%TD*%
D121*
%TO.P,R1,1*%
%TO.N,/Charger/PWR_ON*%
X103489376Y-91260624D03*
%TO.P,R1,2*%
%TO.N,Net-(U1-IO10)*%
X104210624Y-90539376D03*
%TD*%
D109*
%TO.P,D9,1,DIN*%
%TO.N,Net-(D8-DOUT)*%
X115150000Y-101450000D03*
D110*
%TO.P,D9,2,VDD*%
%TO.N,/Charger/VLED*%
X116700000Y-101000000D03*
D111*
%TO.P,D9,3,DOUT*%
%TO.N,Net-(D10-DIN)*%
X116650000Y-98550000D03*
D112*
%TO.P,D9,4,VSS*%
%TO.N,GND*%
X115100000Y-99000000D03*
%TD*%
D18*
%TO.P,L2,1*%
%TO.N,Net-(C27-Pad1)*%
X101812502Y-102000001D03*
%TO.P,L2,2*%
%TO.N,/Charger/VSYS*%
X99012502Y-102000001D03*
%TD*%
D122*
%TO.P,TP4,1,1*%
%TO.N,Net-(U2-BAT)*%
X110250000Y-119150000D03*
%TD*%
%TO.P,TP3,1,1*%
%TO.N,GND1*%
X104000000Y-130250000D03*
%TD*%
D123*
%TO.P,U3,1,IO1*%
%TO.N,/Logic/USB_D-*%
X80174025Y-93074728D03*
%TO.P,U3,2,VN*%
%TO.N,GND*%
X81051711Y-93438277D03*
%TO.P,U3,3,IO2*%
%TO.N,/Logic/USB_D+*%
X81929396Y-93801826D03*
%TO.P,U3,4,IO3*%
%TO.N,unconnected-(U3-IO3-Pad4)*%
X82800001Y-91700000D03*
%TO.P,U3,5,VP*%
%TO.N,VBUS*%
X81922315Y-91336451D03*
%TO.P,U3,6,IO4*%
%TO.N,unconnected-(U3-IO4-Pad6)*%
X81044630Y-90972902D03*
%TD*%
D53*
%TO.P,C22,1*%
%TO.N,Net-(U2-SRN)*%
X108420147Y-124450990D03*
%TO.P,C22,2*%
%TO.N,GND1*%
X109307071Y-124083614D03*
%TD*%
D124*
%TO.P,D11,1,DIN*%
%TO.N,Net-(D10-DOUT)*%
X111759619Y-90361701D03*
D125*
%TO.P,D11,2,VDD*%
%TO.N,/Charger/VLED*%
X112537437Y-88947487D03*
D126*
%TO.P,D11,3,DOUT*%
%TO.N,unconnected-(D11-DOUT-Pad3)*%
X110769670Y-87250431D03*
D127*
%TO.P,D11,4,VSS*%
%TO.N,GND*%
X109991852Y-88664645D03*
%TD*%
D57*
%TO.P,R2,1*%
%TO.N,/USB/VBAT*%
X75750000Y-94360000D03*
%TO.P,R2,2*%
%TO.N,/Battery/BAT+*%
X75750000Y-93340000D03*
%TD*%
D35*
%TO.P,C3,1*%
%TO.N,GND*%
X87617376Y-105516924D03*
%TO.P,C3,2*%
%TO.N,/Charger/VLED*%
X87250000Y-104630000D03*
%TD*%
D128*
%TO.P,D2,1,DIN*%
%TO.N,Net-(D1-DOUT)*%
X85411272Y-104388900D03*
D129*
%TO.P,D2,2,VDD*%
%TO.N,/Charger/VLED*%
X84151467Y-105397805D03*
D130*
%TO.P,D2,3,DOUT*%
%TO.N,Net-(D2-DOUT)*%
X85135235Y-107642176D03*
D131*
%TO.P,D2,4,VSS*%
%TO.N,GND*%
X86395041Y-106633270D03*
%TD*%
D47*
%TO.P,C65,1*%
%TO.N,+3V3*%
X116225000Y-71925000D03*
%TO.P,C65,2*%
%TO.N,GND*%
X117111924Y-72292376D03*
%TD*%
D40*
%TO.P,R3,1*%
%TO.N,Net-(U8-ILIM)*%
X103102502Y-93900000D03*
%TO.P,R3,2*%
%TO.N,GND*%
X104122502Y-93900000D03*
%TD*%
D38*
%TO.P,C18,1*%
%TO.N,GND*%
X96387254Y-111517650D03*
%TO.P,C18,2*%
%TO.N,+3V3*%
X97347254Y-111517650D03*
%TD*%
D53*
%TO.P,C25,1*%
%TO.N,GND1*%
X106880035Y-123032380D03*
%TO.P,C25,2*%
%TO.N,Net-(U2-VCC)*%
X107766959Y-122665004D03*
%TD*%
D132*
%TO.P,BTT2,1,1*%
%TO.N,GND1*%
X102500000Y-123000000D03*
X97500000Y-123000000D03*
X100000000Y-130600000D03*
%TD*%
%TO.P,BTT1,1,1*%
%TO.N,+BATT*%
X97500000Y-77000000D03*
X102500000Y-77000000D03*
X100000000Y-69400000D03*
%TD*%
D133*
%TO.N,GND1*%
X106350000Y-128250000D03*
X108400000Y-121400000D03*
X106750000Y-127850000D03*
X107400000Y-129350000D03*
X104000000Y-130250000D03*
X106900000Y-122350000D03*
X106850000Y-128700000D03*
X106850000Y-129400000D03*
%TO.N,GND*%
X113576294Y-128456774D03*
X102275000Y-95949998D03*
X102274998Y-98150000D03*
X113950001Y-82250000D03*
X73489999Y-104665000D03*
X116725000Y-75625001D03*
X115350000Y-124350000D03*
X115100000Y-97500000D03*
X125220871Y-110265756D03*
X102274999Y-97049998D03*
X115175000Y-79300000D03*
X112162237Y-93918882D03*
X95700000Y-112900000D03*
X100699997Y-99049998D03*
X104474999Y-98150001D03*
X74650000Y-95800000D03*
X78800000Y-103400000D03*
X110272507Y-108909298D03*
X81900000Y-92600000D03*
X117350000Y-71775000D03*
X111100000Y-75475000D03*
X93918882Y-87837763D03*
X107999999Y-100325000D03*
X114676294Y-128006774D03*
X79400000Y-103400000D03*
X103375000Y-97049999D03*
X112900000Y-104300000D03*
X89727493Y-91090702D03*
X110350000Y-77300000D03*
X73950000Y-95800000D03*
X104300000Y-87100000D03*
X99036066Y-86436415D03*
X99024998Y-96450001D03*
X89750000Y-67950000D03*
X75100000Y-95350000D03*
X75139999Y-104664999D03*
X107999999Y-99200002D03*
X104475001Y-95950001D03*
X73450000Y-95350000D03*
X103374998Y-98149998D03*
X98425000Y-96500001D03*
X76450000Y-103250000D03*
X100156641Y-108279992D03*
X107150000Y-72175000D03*
X107275000Y-72825000D03*
X116925001Y-74424999D03*
X114176294Y-128256774D03*
X107024999Y-95749999D03*
X76450000Y-103750000D03*
X114575000Y-80775001D03*
X74640001Y-104215001D03*
X109675000Y-69175000D03*
X116200000Y-74125000D03*
X114874999Y-80025000D03*
X97250004Y-90799995D03*
X111625000Y-76775000D03*
X128495871Y-109390756D03*
X114800000Y-127300000D03*
X76450000Y-97750000D03*
X113650000Y-83000000D03*
X117800000Y-74650000D03*
X116125000Y-77100000D03*
X100963934Y-113563585D03*
X113350000Y-83724999D03*
X87837763Y-106081118D03*
X104075001Y-101650001D03*
X114275000Y-81525000D03*
X101200000Y-99450003D03*
X108909298Y-89727493D03*
X96796486Y-108944716D03*
X109200000Y-88850000D03*
X73940000Y-104215000D03*
X86436415Y-100963934D03*
X101324856Y-111469863D03*
X113750000Y-84475000D03*
X100299998Y-99650000D03*
X91490002Y-94894999D03*
X106081118Y-112162237D03*
X103375000Y-95950000D03*
X107224999Y-101700000D03*
X103800000Y-81000000D03*
X78200000Y-103400000D03*
X100700001Y-98350001D03*
X109049999Y-77850000D03*
X109574999Y-79150000D03*
X109824999Y-76025000D03*
X101124999Y-94450002D03*
X93099999Y-69050001D03*
X112725000Y-79375000D03*
X88400000Y-69050000D03*
X116425001Y-76350000D03*
X100262497Y-93600000D03*
X107993750Y-101150000D03*
X101299998Y-98650000D03*
X99587497Y-93599999D03*
X110875001Y-78600000D03*
X113563585Y-99036066D03*
X104625001Y-93900000D03*
X104474999Y-97050000D03*
X107074997Y-99700002D03*
X91090702Y-110272507D03*
X91099999Y-71049996D03*
X76450000Y-98250000D03*
X106437497Y-101124999D03*
X96354478Y-110926414D03*
X117600001Y-72500000D03*
X109275000Y-69625000D03*
X101450000Y-110250000D03*
X115800000Y-77825000D03*
X113000000Y-91950000D03*
X113475000Y-77525001D03*
X115500001Y-78575000D03*
X76450000Y-96250000D03*
X87100000Y-95700000D03*
%TO.N,+3V3*%
X115725000Y-71700000D03*
X92299999Y-67150002D03*
X87800000Y-98650000D03*
X87800000Y-97850000D03*
X81300000Y-98700000D03*
X82000000Y-96800000D03*
X82000000Y-98700000D03*
X127595871Y-109015756D03*
X82000000Y-97750000D03*
X96350000Y-115575000D03*
X124895871Y-111165756D03*
X90300000Y-73550000D03*
X113500000Y-70800000D03*
X87800000Y-97050000D03*
X81300000Y-96800000D03*
X106475000Y-71950000D03*
X128720871Y-112040756D03*
X81300000Y-97750000D03*
X127195871Y-113790756D03*
X109800000Y-85800000D03*
X116450000Y-71400001D03*
%TO.N,Net-(U8-REGN)*%
X103750000Y-100500000D03*
X103549998Y-92475000D03*
%TO.N,Net-(U2-VCC)*%
X107500000Y-122100000D03*
X106200000Y-125850000D03*
%TO.N,Net-(U1-IO6)*%
X106900000Y-77700000D03*
X111500000Y-92800000D03*
%TO.N,Net-(U1-IO7)*%
X106500000Y-78600000D03*
X110400000Y-92800000D03*
%TO.N,/Charger/VLED*%
X101116718Y-86494614D03*
X98883282Y-113505386D03*
X93800000Y-112050000D03*
X108760111Y-110339388D03*
X106200000Y-87950000D03*
X113505386Y-101116718D03*
X95863425Y-87095301D03*
X105449998Y-101850000D03*
X89660612Y-108760111D03*
X87095301Y-104136575D03*
X106025000Y-101600001D03*
X104136575Y-112904699D03*
X87950000Y-93800000D03*
X91239889Y-89660612D03*
X110339388Y-91239889D03*
X112050000Y-106200000D03*
X112904699Y-95863425D03*
X106093749Y-100550000D03*
X87050000Y-99450000D03*
%TO.N,VBUS*%
X78800000Y-100900000D03*
X78800000Y-102600000D03*
X78200000Y-100900000D03*
X105849999Y-99625000D03*
X79400000Y-102600000D03*
X106450000Y-99800002D03*
X79400000Y-100900000D03*
X78200000Y-102600000D03*
X81150000Y-92150000D03*
X105724999Y-98825000D03*
X105100000Y-98850001D03*
%TO.N,/Charger/PWR_ON*%
X104599997Y-92600000D03*
X76900000Y-105100000D03*
%TO.N,Net-(U1-IO10)*%
X108500000Y-80500000D03*
X104500000Y-89700000D03*
%TO.N,+BATT*%
X109650000Y-120900000D03*
X108450000Y-118300000D03*
%TO.N,Net-(U1-TXD0)*%
X103200000Y-87800000D03*
X82800000Y-96050000D03*
X106300000Y-83450000D03*
X96850000Y-88400000D03*
%TO.N,Net-(U1-RXD0)*%
X102600000Y-87200000D03*
X107100000Y-83250000D03*
X95850000Y-88400000D03*
X82400000Y-95550000D03*
%TO.N,/Battery/SDA*%
X105700001Y-92200000D03*
X111800000Y-107289600D03*
X109800000Y-82500000D03*
X103350000Y-111483200D03*
X105700000Y-90950000D03*
X105700001Y-89299999D03*
X103350000Y-117150000D03*
%TO.N,/Battery/SCL*%
X106300000Y-92900000D03*
X111100000Y-83000000D03*
X102666800Y-116636800D03*
X102666800Y-112325000D03*
X104600000Y-91650000D03*
X106300000Y-91600000D03*
%TO.N,/Charger/~{CHARGE_ENABLE}*%
X109100000Y-80200000D03*
X104024999Y-93062503D03*
%TO.N,Net-(U1-IO5)*%
X103650000Y-89800000D03*
X108000000Y-81000000D03*
%TO.N,/Battery/BAT+*%
X100549999Y-95249997D03*
X100675000Y-80350000D03*
X100675000Y-79650000D03*
X98850000Y-78850000D03*
X101399998Y-95150000D03*
X100675000Y-78950000D03*
X99249997Y-95250003D03*
X99925000Y-95175001D03*
X98850001Y-80250000D03*
X98850000Y-79550001D03*
%TO.N,/Logic/EN*%
X89450000Y-72300000D03*
X93450000Y-67400000D03*
%TO.N,Net-(U1-IO4)*%
X107500000Y-76600000D03*
X124100000Y-111100000D03*
%TD*%
D134*
%TO.N,/Charger/VSYS*%
X93079999Y-95344998D02*
X92090000Y-95345001D01*
D135*
X94181147Y-99244997D02*
X94790000Y-98636145D01*
X98380760Y-97375000D02*
X98021907Y-97016145D01*
X97973850Y-96973850D02*
X98000000Y-97000000D01*
D134*
X91600002Y-95885002D02*
X92090002Y-95394997D01*
D135*
X93190003Y-99245000D02*
X94139999Y-99244996D01*
D134*
X92600000Y-95855000D02*
X92090000Y-95345001D01*
D135*
X94790002Y-96973850D02*
X94161147Y-96345003D01*
X94161147Y-96345003D02*
X94090005Y-96345000D01*
D134*
X92600001Y-96445000D02*
X92600000Y-95855000D01*
D135*
X94100001Y-99244998D02*
X94181147Y-99244997D01*
D134*
X92100002Y-95405000D02*
X92090002Y-95394997D01*
X92100001Y-96445001D02*
X92100002Y-95405000D01*
D135*
X94790000Y-98636145D02*
X94790002Y-96973850D01*
D136*
X93190003Y-99245000D02*
X93040002Y-99244998D01*
D134*
X91600001Y-96445000D02*
X91600002Y-95885002D01*
D135*
X98412500Y-97375000D02*
X98380760Y-97375000D01*
D136*
X94100001Y-99244998D02*
X93190003Y-99245000D01*
X93040002Y-99244998D02*
X92890005Y-99244999D01*
D135*
X94790002Y-96973850D02*
X97973850Y-96973850D01*
X94139999Y-99244996D02*
X94140002Y-99244997D01*
D134*
X94100003Y-96364999D02*
X93079999Y-95344998D01*
X92600000Y-99245001D02*
X92889999Y-99244998D01*
D136*
X92890005Y-99244999D02*
X92889999Y-99244998D01*
%TO.N,GND1*%
X107604997Y-128382178D02*
X106750000Y-127850000D01*
X107604997Y-128382178D02*
X106850000Y-128700000D01*
D134*
X107473439Y-126921323D02*
X107865408Y-127083681D01*
X106880035Y-123032380D02*
X106900000Y-122350000D01*
D136*
X107604997Y-128382178D02*
X106850000Y-129400000D01*
D134*
X108056598Y-123573304D02*
X109300000Y-124100000D01*
X107865408Y-127083681D02*
X108248091Y-128007560D01*
X108939291Y-121183607D02*
X108400000Y-121400000D01*
X108248091Y-128007560D02*
X108193972Y-128138217D01*
X106903202Y-121886273D02*
X106700000Y-121400000D01*
X106880035Y-123032380D02*
X107250000Y-123900000D01*
D136*
X107604997Y-128382178D02*
X106350000Y-128250000D01*
D134*
X107252823Y-123906239D02*
X108050000Y-123550000D01*
D136*
X107604997Y-128382178D02*
X107400000Y-129350000D01*
D134*
X106900000Y-122350000D02*
X106900000Y-121900000D01*
X108193972Y-128138217D02*
X107639644Y-128367827D01*
%TO.N,GND*%
X113545014Y-99599107D02*
X113563585Y-99036065D01*
X78650000Y-103750000D02*
X78700000Y-103800000D01*
D136*
X100624998Y-98875000D02*
X100699999Y-98950001D01*
X117322873Y-75864403D02*
X116725000Y-75625001D01*
D134*
X112667376Y-104813076D02*
X112900000Y-104300000D01*
X125820871Y-110515757D02*
X125220871Y-110265756D01*
D136*
X117111924Y-72292376D02*
X117600001Y-72500000D01*
D134*
X91140004Y-95245000D02*
X91490002Y-94894999D01*
D136*
X107434999Y-99340001D02*
X107074997Y-99700002D01*
D134*
X104122499Y-93900000D02*
X104625001Y-93900000D01*
D136*
X106462498Y-101150001D02*
X106437497Y-101124999D01*
D135*
X81051711Y-93438277D02*
X81900000Y-92600000D01*
D134*
X90138755Y-90705703D02*
X89205431Y-89737945D01*
X115095169Y-123871179D02*
X115350000Y-124350000D01*
X77100000Y-103250000D02*
X76450000Y-103250000D01*
X112360546Y-94446171D02*
X113611805Y-93954237D01*
D136*
X107212503Y-101687500D02*
X107224999Y-101700000D01*
D134*
X90705703Y-109861245D02*
X89737945Y-110794569D01*
X112020930Y-75860110D02*
X111625000Y-76775000D01*
D136*
X116479377Y-73458470D02*
X116200000Y-74125000D01*
X100249999Y-93612497D02*
X100262497Y-93600000D01*
X75124999Y-104650000D02*
X75139999Y-104664999D01*
X98412502Y-95837502D02*
X99024998Y-96450001D01*
X100299999Y-99150001D02*
X100299998Y-99650000D01*
D134*
X91139999Y-94344998D02*
X91090003Y-94295002D01*
X95186924Y-112667376D02*
X95700000Y-112900000D01*
D136*
X107303210Y-72853210D02*
X107275000Y-72825000D01*
D134*
X109861245Y-109294297D02*
X110794569Y-110262055D01*
X109440468Y-76928973D02*
X110350000Y-77300000D01*
D136*
X113561367Y-85076138D02*
X113750000Y-84475000D01*
X109800000Y-70700000D02*
X109109940Y-70414167D01*
D135*
X94099998Y-98284999D02*
X92029999Y-98284997D01*
D136*
X73465000Y-95365000D02*
X73450000Y-95350000D01*
X113323706Y-127943225D02*
X113576294Y-128456774D01*
D134*
X99599107Y-86454986D02*
X99623455Y-85110718D01*
D136*
X107206249Y-101149999D02*
X107993750Y-101150000D01*
X107225000Y-101150000D02*
X106462498Y-101150001D01*
X107434999Y-99200000D02*
X107999999Y-99200002D01*
D134*
X78350000Y-103250000D02*
X78750000Y-103250000D01*
X91140004Y-95344999D02*
X91140004Y-95245000D01*
X91099998Y-95355000D02*
X91090000Y-95345000D01*
X115100000Y-99000000D02*
X115100000Y-97500000D01*
X87332624Y-95186924D02*
X87100000Y-95700000D01*
X104813076Y-87332624D02*
X105350000Y-86100000D01*
X92883687Y-68543461D02*
X93099999Y-69050001D01*
X106655000Y-95380001D02*
X107024999Y-95749999D01*
X77100000Y-103750000D02*
X76450000Y-103750000D01*
D136*
X113955258Y-83994542D02*
X113750000Y-84475000D01*
D134*
X101446055Y-110253945D02*
X101450000Y-110250000D01*
X126609118Y-111144588D02*
X125770871Y-110715756D01*
D136*
X98412498Y-96487502D02*
X98425000Y-96500001D01*
D135*
X90580002Y-98285002D02*
X90690004Y-98395002D01*
D134*
X94446171Y-87639454D02*
X93954237Y-86388195D01*
X109861245Y-109294297D02*
X110272507Y-108909298D01*
D136*
X92360000Y-97324999D02*
X92339999Y-97344998D01*
D134*
X77100000Y-103250000D02*
X78050000Y-103250000D01*
D135*
X89140002Y-98285000D02*
X90580002Y-98285002D01*
D136*
X117111924Y-72292376D02*
X117350000Y-71775000D01*
X99912504Y-98875000D02*
X100624998Y-98875000D01*
X75085000Y-95365000D02*
X75100000Y-95350000D01*
X114873698Y-81777232D02*
X114275000Y-81525000D01*
D134*
X112725000Y-79375000D02*
X112350000Y-80275000D01*
D136*
X117629019Y-75125299D02*
X117800000Y-74650000D01*
X74300000Y-104650000D02*
X73505001Y-104649999D01*
D134*
X91100002Y-96445000D02*
X91099998Y-95355000D01*
X99158210Y-109028945D02*
X98964884Y-108544024D01*
X97366665Y-108917369D02*
X96796486Y-108944716D01*
D136*
X107962706Y-72853208D02*
X107303210Y-72853210D01*
X74650000Y-104224998D02*
X74640001Y-104215001D01*
X98412502Y-95824998D02*
X98412502Y-95837502D01*
X115792140Y-79559922D02*
X115175000Y-79300000D01*
D134*
X113475000Y-77525001D02*
X112725000Y-79375000D01*
D136*
X118115299Y-74081972D02*
X117800000Y-74650000D01*
D134*
X110196269Y-75104310D02*
X111100000Y-75475000D01*
X104414959Y-81287573D02*
X103800000Y-81000000D01*
X105553829Y-112360546D02*
X106045763Y-113611805D01*
X109550000Y-88500000D02*
X109200000Y-88850000D01*
X128197488Y-111098956D02*
X128320871Y-109965756D01*
D136*
X99574998Y-94325000D02*
X99574999Y-93612498D01*
D135*
X92029999Y-98284997D02*
X91889999Y-98144999D01*
D134*
X105553829Y-112360546D02*
X106081119Y-112162236D01*
X86454986Y-100400893D02*
X86436415Y-100963935D01*
X97710004Y-90360000D02*
X97690000Y-90360000D01*
X110255359Y-69432624D02*
X109675000Y-69175000D01*
D136*
X89140002Y-98285000D02*
X90680004Y-98285000D01*
D134*
X87639454Y-105553829D02*
X87837764Y-106081119D01*
X107400000Y-95375002D02*
X107024999Y-95749999D01*
X104062499Y-101135001D02*
X104062501Y-101637503D01*
X109991852Y-88664645D02*
X109550000Y-88500000D01*
D136*
X74300000Y-104650000D02*
X75124999Y-104650000D01*
D135*
X92360000Y-97324999D02*
X91940001Y-97745001D01*
D134*
X88849998Y-70199999D02*
X88400000Y-69050000D01*
D136*
X73950000Y-104649999D02*
X73950000Y-104225000D01*
X114423706Y-127493225D02*
X114676294Y-128006774D01*
D134*
X89657433Y-69405532D02*
X89350000Y-68650000D01*
D136*
X100699999Y-98950001D02*
X100699997Y-99049998D01*
D134*
X100400893Y-113545014D02*
X100963935Y-113563585D01*
X109049999Y-77850000D02*
X109824999Y-76025000D01*
X98850004Y-90499998D02*
X97650004Y-90499998D01*
D136*
X91600000Y-99245002D02*
X91600000Y-98305000D01*
X73940000Y-95365000D02*
X73940000Y-95790000D01*
X114261406Y-83255439D02*
X113650000Y-83000000D01*
D134*
X86454986Y-100400893D02*
X85110718Y-100376545D01*
X100883209Y-110253945D02*
X101446055Y-110253945D01*
X110875001Y-78600000D02*
X110500000Y-79524999D01*
D136*
X92479999Y-98285000D02*
X92439999Y-98245003D01*
X107212502Y-100324999D02*
X107999999Y-100325000D01*
X89140001Y-97394998D02*
X90740000Y-97395001D01*
D134*
X87639454Y-105553829D02*
X86388195Y-106045763D01*
X113604959Y-93366730D02*
X113000000Y-91950000D01*
X106500000Y-72825000D02*
X107150000Y-72175000D01*
X92883687Y-68543461D02*
X92049998Y-68899997D01*
D136*
X99912504Y-98875000D02*
X100025000Y-98875001D01*
D134*
X100158210Y-109028944D02*
X100156641Y-108279992D01*
X97690000Y-90360000D02*
X97250004Y-90799995D01*
X101102500Y-94427504D02*
X101124999Y-94450002D01*
X77100000Y-103750000D02*
X78650000Y-103750000D01*
X111625000Y-76775000D02*
X110875001Y-78600000D01*
D135*
X94100000Y-97325000D02*
X92310001Y-97325000D01*
D134*
X128248021Y-110005981D02*
X128495871Y-109390756D01*
D136*
X113923706Y-127743225D02*
X114176294Y-128256774D01*
X108968893Y-70293406D02*
X109275000Y-69625000D01*
D134*
X90912480Y-70671624D02*
X91099999Y-71049996D01*
X89974904Y-68408118D02*
X89750000Y-67950000D01*
X78200000Y-103400000D02*
X78350000Y-103250000D01*
D136*
X113897412Y-127736451D02*
X114800000Y-127300000D01*
D134*
X106512503Y-95380002D02*
X106655000Y-95380001D01*
D136*
X98412502Y-95824998D02*
X98412498Y-96487502D01*
X116479377Y-73458470D02*
X117125001Y-72250000D01*
D134*
X77100000Y-97750000D02*
X76450000Y-97750000D01*
D136*
X107434999Y-99200000D02*
X107434999Y-99340001D01*
X73940000Y-95790000D02*
X73950000Y-95800000D01*
X116710580Y-77342611D02*
X116125000Y-77100000D01*
X115485993Y-80299024D02*
X114874999Y-80025000D01*
X74290000Y-95365000D02*
X75085000Y-95365000D01*
D134*
X94446171Y-87639454D02*
X93918881Y-87837764D01*
X104813076Y-87332624D02*
X104300000Y-87100000D01*
X100658209Y-111478945D02*
X101324856Y-111469863D01*
D136*
X116098286Y-78820817D02*
X115500001Y-78575000D01*
X91600000Y-98305000D02*
X91565000Y-98269999D01*
D134*
X98964884Y-108544024D02*
X97934125Y-108550026D01*
X91140004Y-95344999D02*
X91139999Y-94344998D01*
X104062501Y-101637503D02*
X104075001Y-101650001D01*
D136*
X116404432Y-78081714D02*
X115800000Y-77825000D01*
X90680004Y-98285000D02*
X90690002Y-98294998D01*
D135*
X92310001Y-97325000D02*
X92139999Y-97494999D01*
D134*
X113545014Y-99599107D02*
X114889282Y-99623455D01*
D136*
X74640000Y-95790000D02*
X74650000Y-95800000D01*
X115179846Y-81038128D02*
X114575000Y-80775001D01*
D134*
X112667376Y-104813076D02*
X113900000Y-105350000D01*
D136*
X100249999Y-94325000D02*
X100249999Y-93612497D01*
X117218480Y-73764616D02*
X116925001Y-74424999D01*
D134*
X108684668Y-78753634D02*
X109049999Y-77850000D01*
X87332624Y-95186924D02*
X86100000Y-94650000D01*
D136*
X100699997Y-99049998D02*
X100800000Y-99050000D01*
X74640000Y-95365000D02*
X74640000Y-95790000D01*
X117016728Y-76603506D02*
X116425001Y-76350000D01*
D134*
X109294297Y-90138755D02*
X110262055Y-89205431D01*
X113845592Y-76615910D02*
X113475000Y-77525001D01*
X90705703Y-109861245D02*
X91090702Y-110272507D01*
D136*
X114567552Y-82516334D02*
X113950001Y-82250000D01*
X73505001Y-104649999D02*
X73489999Y-104665000D01*
X99574999Y-93612498D02*
X99587497Y-93599999D01*
D134*
X90138755Y-90705703D02*
X89727493Y-91090702D01*
X95186924Y-112667376D02*
X94650000Y-113900000D01*
D136*
X100025000Y-98875001D02*
X100299999Y-99150001D01*
D134*
X96387254Y-111517650D02*
X96354478Y-110926414D01*
D136*
X100800000Y-99050000D02*
X101200000Y-99450003D01*
D134*
X109574999Y-79150000D02*
X108650000Y-78774999D01*
D136*
X107212501Y-100725000D02*
X107212503Y-101687500D01*
D134*
X112360546Y-94446171D02*
X112162236Y-93918881D01*
X106500000Y-72900000D02*
X106500000Y-72825000D01*
D136*
X74650000Y-104650001D02*
X74650000Y-104224998D01*
D134*
X78750000Y-103250000D02*
X78800000Y-103400000D01*
D135*
X89140001Y-97394998D02*
X90840002Y-97394998D01*
D134*
X101102502Y-93900000D02*
X101102500Y-94427504D01*
X99599107Y-86454986D02*
X99036065Y-86436415D01*
D136*
X74290000Y-95365000D02*
X73465000Y-95365000D01*
D134*
X97934125Y-108550026D02*
X97381157Y-108970415D01*
X78050000Y-103250000D02*
X78200000Y-103400000D01*
D136*
X73950000Y-104225000D02*
X73940000Y-104215000D01*
D134*
X109824999Y-76025000D02*
X110200000Y-75100000D01*
X77100000Y-98250000D02*
X76450000Y-98250000D01*
X109294297Y-90138755D02*
X108909298Y-89727493D01*
X100400893Y-113545014D02*
X100376545Y-114889282D01*
X77100000Y-96250000D02*
X76450000Y-96250000D01*
X78800000Y-103400000D02*
X78800000Y-103300000D01*
D136*
X113955258Y-83994542D02*
X113350000Y-83724999D01*
D134*
X107512500Y-95375001D02*
X107400000Y-95375002D01*
%TO.N,+3V3*%
X98658209Y-111478945D02*
X98658209Y-111266791D01*
D135*
X88452999Y-97031999D02*
X89040001Y-96445000D01*
D134*
X97347254Y-111517650D02*
X97347254Y-114577746D01*
D135*
X88452999Y-97850000D02*
X88452999Y-97031999D01*
D134*
X126360373Y-111745110D02*
X125420871Y-111365755D01*
X92516311Y-67656539D02*
X92299999Y-67150002D01*
D136*
X116224999Y-71925000D02*
X115725000Y-71700000D01*
X89139999Y-99245000D02*
X90089999Y-99245000D01*
D134*
X90290001Y-99245003D02*
X90590000Y-99244999D01*
X112950000Y-70550000D02*
X113500000Y-70800000D01*
X98433210Y-109753944D02*
X97305979Y-109805190D01*
X98658209Y-111266791D02*
X99200000Y-110725000D01*
X101800005Y-88689996D02*
X99510004Y-88689996D01*
D135*
X88452999Y-98639147D02*
X88442146Y-98650000D01*
D134*
X97347254Y-114577746D02*
X96350000Y-115575000D01*
X92516311Y-67656539D02*
X91943462Y-67656538D01*
X106139996Y-88689996D02*
X106625000Y-89175000D01*
X105350000Y-74283652D02*
X105350000Y-73550000D01*
D135*
X88442146Y-98650000D02*
X87800000Y-98650000D01*
D134*
X98658210Y-111478944D02*
X97359536Y-111505082D01*
X101800005Y-88689996D02*
X106139996Y-88689996D01*
X104800000Y-94450002D02*
X104492205Y-94449998D01*
D135*
X87818001Y-97031999D02*
X87800000Y-97050000D01*
D134*
X98850004Y-89199999D02*
X97600006Y-89199997D01*
D135*
X89040001Y-96445000D02*
X89140000Y-96445000D01*
D134*
X91943462Y-67656538D02*
X91249996Y-68350000D01*
X105150000Y-92400000D02*
X105150000Y-94100000D01*
X99150000Y-109753945D02*
X100871055Y-109753945D01*
D135*
X90089999Y-99245000D02*
X89140001Y-99245003D01*
D136*
X90290001Y-99245003D02*
X90290003Y-99245000D01*
X115740273Y-73152323D02*
X116250000Y-71900000D01*
D134*
X115725000Y-71700000D02*
X115700000Y-71700000D01*
D135*
X88452999Y-98639147D02*
X88452999Y-97850000D01*
D134*
X127948744Y-111699479D02*
X128720871Y-112040756D01*
X127361098Y-109638606D02*
X126870871Y-110565756D01*
X90300000Y-73010000D02*
X90300000Y-73550000D01*
X105150000Y-90650000D02*
X106625000Y-89175000D01*
X105150000Y-94100000D02*
X104800000Y-94450002D01*
X99200000Y-110725000D02*
X99200000Y-109803945D01*
X91250000Y-68550001D02*
X91049999Y-68750001D01*
X105745169Y-74678821D02*
X105350000Y-74283652D01*
D135*
X89058853Y-99245001D02*
X88452999Y-98639147D01*
D134*
X105350000Y-73075000D02*
X106475000Y-71950000D01*
D135*
X88452999Y-97850000D02*
X87800000Y-97850000D01*
D134*
X104125000Y-94817204D02*
X104125000Y-95087501D01*
D136*
X116224999Y-71925000D02*
X116450000Y-71400001D01*
D134*
X99200000Y-109803945D02*
X99150000Y-109753945D01*
X91249996Y-68350000D02*
X91250000Y-68550001D01*
X109800000Y-86000000D02*
X109800000Y-85800000D01*
X89140000Y-96435000D02*
X89140000Y-95344999D01*
X126679541Y-113574555D02*
X127195871Y-113790756D01*
X115700000Y-71700000D02*
X115350000Y-71350000D01*
X90590000Y-99244999D02*
X90590000Y-99244999D01*
X98433209Y-109753945D02*
X99150000Y-109753945D01*
X125453495Y-111402681D02*
X124895871Y-111165756D01*
X99510004Y-88689996D02*
X99000000Y-89200000D01*
D135*
X88452999Y-97031999D02*
X87818001Y-97031999D01*
D134*
X127361097Y-109638605D02*
X127595871Y-109015756D01*
X104492205Y-94449998D02*
X104125000Y-94817204D01*
X105350000Y-73550000D02*
X105350000Y-73075000D01*
X106625000Y-89175000D02*
X109800000Y-86000000D01*
D136*
X90089999Y-99245000D02*
X90290001Y-99245003D01*
D135*
X89140001Y-99245003D02*
X89140001Y-99244999D01*
D134*
X105150000Y-92400000D02*
X105150000Y-90650000D01*
D135*
X89139999Y-99245000D02*
X89058853Y-99245001D01*
D134*
%TO.N,Net-(D1-DOUT)*%
X83044386Y-101329289D02*
X85362889Y-104101219D01*
%TO.N,/LEDs/DIN*%
X110500000Y-82100000D02*
X110300000Y-83150000D01*
X107210538Y-86609323D02*
X107840677Y-86609323D01*
X110300000Y-83150000D02*
X109850000Y-84250000D01*
X109850000Y-84250000D02*
X109500000Y-84950000D01*
X107840677Y-86609323D02*
X109500000Y-84950000D01*
X113522961Y-72233884D02*
X113522961Y-74877039D01*
X113522961Y-74877039D02*
X110500000Y-82100000D01*
%TO.N,Net-(D2-DOUT)*%
X84843752Y-107716736D02*
X88046542Y-109390413D01*
%TO.N,Net-(D3-DOUT)*%
X88950520Y-112929379D02*
X92550000Y-113250000D01*
%TO.N,Net-(D4-DOUT)*%
X94900909Y-116515623D02*
X98349091Y-115434377D01*
%TO.N,Net-(D5-DOUT)*%
X101329289Y-116955614D02*
X104101219Y-114637111D01*
%TO.N,Net-(D6-DOUT)*%
X107716736Y-115156248D02*
X109390413Y-111953458D01*
%TO.N,Net-(D7-DOUT)*%
X112929379Y-111049480D02*
X113250000Y-107450000D01*
%TO.N,Net-(D8-DOUT)*%
X116173642Y-105260529D02*
X115092396Y-101812347D01*
%TO.N,Net-(D10-DIN)*%
X116955614Y-98670711D02*
X114637111Y-95898781D01*
%TO.N,Net-(D10-DOUT)*%
X115156248Y-92283264D02*
X111953458Y-90609587D01*
%TO.N,Net-(D1-DIN)*%
X84981246Y-98348182D02*
X83900000Y-94900000D01*
%TO.N,Net-(D12-DOUT)*%
X105260529Y-83826358D02*
X101812347Y-84907604D01*
%TO.N,Net-(D13-DOUT)*%
X98670711Y-83044386D02*
X95898781Y-85362889D01*
%TO.N,Net-(D14-DOUT)*%
X92283264Y-84843752D02*
X90609587Y-88046542D01*
%TO.N,Net-(D15-DOUT)*%
X87070621Y-88950520D02*
X86750000Y-92550000D01*
%TO.N,Net-(U8-REGN)*%
X103624997Y-99700000D02*
X104024998Y-100100000D01*
X103122501Y-92899999D02*
X103125000Y-92900000D01*
X104062499Y-100174999D02*
X103750000Y-100500000D01*
X103125000Y-92900000D02*
X103549998Y-92475000D01*
X103624999Y-99012500D02*
X103624997Y-99700000D01*
%TO.N,Net-(Q2-G)*%
X113750000Y-123899999D02*
X113700000Y-125750000D01*
%TO.N,Net-(Q1-G)*%
X111994629Y-124627097D02*
X112000000Y-123200000D01*
X106863761Y-119413107D02*
X107200000Y-118300000D01*
X110300000Y-117100000D02*
X108150000Y-117900000D01*
X113650000Y-122500000D02*
X113750000Y-122150000D01*
X112000000Y-123200000D02*
X113650000Y-122500000D01*
X111800000Y-117500000D02*
X110300000Y-117100000D01*
X113750000Y-122150000D02*
X111800000Y-117500000D01*
X110904177Y-126939846D02*
X111700000Y-126250000D01*
X111700000Y-126250000D02*
X112050000Y-125100000D01*
X107200000Y-118300000D02*
X108150000Y-117900000D01*
%TO.N,Net-(U2-VCC)*%
X107766959Y-122665004D02*
X107500000Y-122100000D01*
X105300000Y-123550000D02*
X106200000Y-125850000D01*
X107500000Y-122100000D02*
X107350000Y-121700000D01*
X105300632Y-123112923D02*
X105300632Y-123549368D01*
X105300632Y-123549368D02*
X105300000Y-123550000D01*
%TO.N,Net-(U1-IO6)*%
X100658209Y-109028945D02*
X102771055Y-109028945D01*
X106125826Y-77287831D02*
X106900000Y-77700000D01*
X104471055Y-109028945D02*
X106800000Y-106700000D01*
X106800000Y-106700000D02*
X111500000Y-102000000D01*
X102771055Y-109028945D02*
X104471055Y-109028945D01*
X111500000Y-102000000D02*
X111500000Y-92800000D01*
%TO.N,Net-(U1-IO7)*%
X105819679Y-78026935D02*
X106500000Y-78600000D01*
X99658209Y-107941791D02*
X100100000Y-107500000D01*
X99658209Y-109028945D02*
X99658209Y-107941791D01*
X110400000Y-101400000D02*
X110400000Y-92800000D01*
X104300000Y-107500000D02*
X110400000Y-101400000D01*
X100100000Y-107500000D02*
X104300000Y-107500000D01*
D137*
%TO.N,/Logic/USB_D-*%
X77100000Y-96750000D02*
X78050000Y-96750000D01*
X105643940Y-82318017D02*
X106050882Y-81911075D01*
X80950000Y-89950000D02*
X83774416Y-89950000D01*
X78050000Y-96750000D02*
X80250000Y-94550000D01*
X80250000Y-93000000D02*
X80200000Y-92950000D01*
X80250000Y-94550000D02*
X80250000Y-93000000D01*
X80174025Y-93074728D02*
X80174025Y-90725975D01*
X92331415Y-81393000D02*
X102668584Y-81393000D01*
X102668584Y-81393000D02*
X103593601Y-82318017D01*
X103593601Y-82318017D02*
X105643940Y-82318017D01*
X80174025Y-90725975D02*
X80950000Y-89950000D01*
X83774416Y-89950000D02*
X92331415Y-81393000D01*
%TO.N,/Logic/USB_D+*%
X77100000Y-97250000D02*
X78125584Y-97250000D01*
X83600000Y-92131222D02*
X83600000Y-90700000D01*
X83600000Y-90700000D02*
X92500000Y-81800000D01*
X81929396Y-93801826D02*
X83600000Y-92131222D01*
X92500000Y-81800000D02*
X102500000Y-81800000D01*
X78125584Y-97250000D02*
X80625584Y-94750000D01*
X103425017Y-82725017D02*
X106282191Y-82725017D01*
X102500000Y-81800000D02*
X103425017Y-82725017D01*
X106282191Y-82725017D02*
X106789986Y-82217222D01*
X80625584Y-94750000D02*
X81150000Y-94750000D01*
X81150000Y-94750000D02*
X81900000Y-94000000D01*
D134*
%TO.N,/Charger/VLED*%
X112727922Y-95333095D02*
X115945258Y-94095658D01*
X104666905Y-112727922D02*
X105904342Y-115945258D01*
X100559107Y-86454986D02*
X101116718Y-86494614D01*
X113545014Y-100462021D02*
X116990991Y-100550000D01*
D136*
X104398232Y-99643001D02*
X104124999Y-99642999D01*
X104124997Y-99012501D02*
X104124998Y-99369771D01*
D134*
X90817577Y-90026880D02*
X91239889Y-89660611D01*
D136*
X105312500Y-100725001D02*
X105312502Y-100912498D01*
D134*
X86454986Y-99440893D02*
X83009009Y-99352914D01*
D136*
X105312500Y-100725001D02*
X105312501Y-100887502D01*
X105312500Y-100725001D02*
X105312501Y-100237503D01*
X105312501Y-100237503D02*
X104824999Y-99749998D01*
D134*
X112727922Y-95333095D02*
X112904699Y-95863425D01*
D136*
X104515114Y-99759884D02*
X104398232Y-99643001D01*
D134*
X95333095Y-87272078D02*
X95863425Y-87095301D01*
X113545014Y-100559107D02*
X113505386Y-101116718D01*
D136*
X105312500Y-100725001D02*
X105312501Y-100412498D01*
D134*
X87700000Y-94300000D02*
X84550000Y-92900000D01*
X90026880Y-109182423D02*
X87527996Y-111556887D01*
X112300000Y-105700000D02*
X115450000Y-107100000D01*
X87272078Y-104666905D02*
X84054742Y-105904342D01*
X109973120Y-90817577D02*
X110339389Y-91239889D01*
X87700000Y-94300000D02*
X87950000Y-93800000D01*
X99440893Y-113545014D02*
X99352914Y-116990991D01*
D136*
X104824999Y-99749998D02*
X104505228Y-99749999D01*
D134*
X105700000Y-87700000D02*
X106200000Y-87950000D01*
X90817577Y-90026880D02*
X88443113Y-87527996D01*
X109973120Y-90817577D02*
X112472004Y-88443113D01*
D136*
X104124998Y-99369771D02*
X104515114Y-99759884D01*
X105324999Y-100569771D02*
X105325001Y-100750000D01*
D134*
X87272078Y-104666905D02*
X87095301Y-104136575D01*
D136*
X104505228Y-99749999D02*
X104398232Y-99643001D01*
D134*
X109182423Y-109973120D02*
X108760111Y-110339389D01*
X94300000Y-112300000D02*
X92900000Y-115450000D01*
X94300000Y-112300000D02*
X93800000Y-112050000D01*
X105700000Y-87700000D02*
X107100000Y-84550000D01*
D136*
X105312501Y-100887502D02*
X106025000Y-101600001D01*
D134*
X104666905Y-112727922D02*
X104136575Y-112904699D01*
D136*
X104515114Y-99759884D02*
X105324999Y-100569771D01*
D134*
X109182423Y-109973120D02*
X111556887Y-112472004D01*
D136*
X105312500Y-100725001D02*
X105312499Y-101712501D01*
D134*
X95333095Y-87272078D02*
X94095658Y-84054742D01*
D136*
X104515114Y-99759884D02*
X104749998Y-99994769D01*
X105306250Y-100550001D02*
X106093749Y-100550000D01*
D134*
X86450000Y-99450000D02*
X87050000Y-99450000D01*
D136*
X105312502Y-99987501D02*
X105075001Y-99749998D01*
D134*
X100559107Y-86454986D02*
X100647086Y-83009009D01*
D136*
X105312499Y-101712501D02*
X105449998Y-101850000D01*
X105075001Y-99749998D02*
X104824999Y-99749998D01*
X104749998Y-99994769D02*
X104749999Y-100350000D01*
D134*
X90026880Y-109182423D02*
X89660611Y-108760111D01*
D136*
X105312500Y-100725001D02*
X105312502Y-99987501D01*
D134*
X112300000Y-105700000D02*
X112050000Y-106200000D01*
D136*
X104124999Y-99642999D02*
X104124999Y-98999999D01*
D134*
X99440893Y-113545014D02*
X98883282Y-113505386D01*
D136*
X104749999Y-100350000D02*
X105099997Y-100700000D01*
X104398232Y-99643001D02*
X104275000Y-99642999D01*
D134*
%TO.N,VBUS*%
X78200000Y-100900000D02*
X78350000Y-100750000D01*
X78800000Y-100900000D02*
X78600000Y-100800000D01*
D136*
X105724999Y-98450000D02*
X105574998Y-98299998D01*
D134*
X78450000Y-102750000D02*
X78500000Y-102700000D01*
D136*
X106474998Y-99199998D02*
X106099999Y-98825000D01*
D134*
X78050000Y-100750000D02*
X78200000Y-100900000D01*
D136*
X104624999Y-99012501D02*
X104625000Y-99250001D01*
D134*
X106474998Y-99199998D02*
X106475000Y-98200000D01*
X77100000Y-102250000D02*
X78550000Y-102250000D01*
X77100000Y-100750000D02*
X78050000Y-100750000D01*
D136*
X106099999Y-98825000D02*
X105724999Y-98450000D01*
D134*
X106512499Y-98315000D02*
X107510001Y-98315000D01*
X78050000Y-102750000D02*
X78200000Y-102600000D01*
D135*
X81922315Y-91336451D02*
X81150000Y-92150000D01*
D134*
X107510001Y-98315000D02*
X107524999Y-98300000D01*
D136*
X105724999Y-98825000D02*
X105724999Y-98450000D01*
X106099999Y-98825000D02*
X105724999Y-98825000D01*
D134*
X78550000Y-102250000D02*
X78600000Y-102200000D01*
D136*
X105100000Y-99250001D02*
X105100000Y-98850001D01*
D134*
X78350000Y-102750000D02*
X78450000Y-102750000D01*
X77100000Y-102750000D02*
X78050000Y-102750000D01*
X77100000Y-101250000D02*
X78450000Y-101250000D01*
X78200000Y-102600000D02*
X78350000Y-102750000D01*
D136*
X105849998Y-99250002D02*
X105849999Y-99625000D01*
X105100000Y-99250001D02*
X105849998Y-99250002D01*
X104625000Y-99250001D02*
X105100000Y-99250001D01*
X106475000Y-99775000D02*
X106450000Y-99800002D01*
D134*
X78450000Y-101750000D02*
X78500000Y-101800000D01*
D136*
X105849998Y-99250002D02*
X106424999Y-99250000D01*
D134*
X77100000Y-101750000D02*
X78450000Y-101750000D01*
X78550000Y-100750000D02*
X78800000Y-100900000D01*
D136*
X105574998Y-98299998D02*
X105524999Y-98300000D01*
D134*
X78450000Y-101250000D02*
X78500000Y-101200000D01*
X78350000Y-100750000D02*
X78550000Y-100750000D01*
D136*
X106474998Y-99199998D02*
X106475000Y-99775000D01*
D134*
%TO.N,Net-(U2-SRP)*%
X106050000Y-123500000D02*
X106000000Y-122300000D01*
X106365899Y-124273615D02*
X106050000Y-123500000D01*
X107083101Y-125978965D02*
X106350000Y-124250000D01*
%TO.N,Net-(U2-SRN)*%
X106950000Y-124400000D02*
X106350000Y-123000000D01*
X107964614Y-125624655D02*
X107600000Y-124800000D01*
X106350000Y-123000000D02*
X106400000Y-122050000D01*
X108420147Y-124450990D02*
X107600000Y-124800000D01*
X107597894Y-124791578D02*
X106950000Y-124400000D01*
%TO.N,Net-(U2-BAT)*%
X108571915Y-120296683D02*
X108200000Y-119500000D01*
X107635740Y-121041650D02*
X108600000Y-120500000D01*
X108571915Y-120296683D02*
X109750000Y-119800000D01*
%TO.N,Net-(U2-REGIN)*%
X108589211Y-122324416D02*
X108950000Y-123200000D01*
X108589211Y-122324416D02*
X107850000Y-121500000D01*
D135*
%TO.N,Net-(Q1-S)*%
X111631275Y-128695217D02*
X109300000Y-127700000D01*
X111765637Y-128497608D02*
X109434362Y-127502391D01*
D134*
X110217376Y-123736924D02*
X111350000Y-123000000D01*
X110217376Y-123736924D02*
X110650000Y-124700000D01*
X108571449Y-127873622D02*
X108702106Y-127927741D01*
D135*
X111415637Y-128797608D02*
X109084362Y-127802391D01*
D134*
X108354951Y-126567012D02*
X108345712Y-126570839D01*
D135*
X109291077Y-127683780D02*
X109291077Y-126583923D01*
D134*
X108702106Y-127927741D02*
X109256433Y-127698131D01*
X108188764Y-126949742D02*
X108571449Y-127873622D01*
X108345712Y-126570839D02*
X108188764Y-126949742D01*
D135*
X109291077Y-126583923D02*
X110175000Y-125700000D01*
D134*
%TO.N,Net-(U4-VDD)*%
X112001710Y-122161722D02*
X111300000Y-120850000D01*
X111000000Y-121600000D02*
X111800000Y-121800000D01*
X110350000Y-121900000D02*
X111000000Y-121600000D01*
X110350000Y-121900000D02*
X109850000Y-122850000D01*
%TO.N,Net-(C27-Pad1)*%
X102674998Y-102000002D02*
X101875000Y-101999997D01*
X103112499Y-101562499D02*
X102674998Y-102000002D01*
X103112500Y-101105000D02*
X103112499Y-101562499D01*
%TO.N,Net-(U8-BTST)*%
X103112499Y-98962498D02*
X103125000Y-98950000D01*
X103112499Y-100145000D02*
X103112499Y-98962498D01*
%TO.N,/Charger/PWR_ON*%
X77100000Y-100250000D02*
X76775000Y-100250000D01*
X76000000Y-105109210D02*
X76890790Y-105109210D01*
X76000000Y-101025000D02*
X76000000Y-105109210D01*
X102000000Y-92150000D02*
X102249998Y-91900001D01*
X102249998Y-91900001D02*
X103000000Y-91900000D01*
X103000000Y-91900000D02*
X103500000Y-91899999D01*
X72059210Y-109050000D02*
X69950000Y-109050000D01*
X101624999Y-92524999D02*
X102000000Y-92150000D01*
X76890790Y-105109210D02*
X76900000Y-105100000D01*
X101625000Y-93474998D02*
X101624999Y-92524999D01*
X76775000Y-100250000D02*
X76000000Y-101025000D01*
X69950000Y-109050000D02*
X68850000Y-107950000D01*
X101624996Y-94024999D02*
X101625000Y-93474998D01*
X76000000Y-105109210D02*
X72059210Y-109050000D01*
X103500000Y-91899999D02*
X103549999Y-91899999D01*
X103489376Y-91889375D02*
X103500000Y-91899999D01*
X102125000Y-95087498D02*
X102124998Y-94875001D01*
X103489376Y-91260624D02*
X103489376Y-91889375D01*
X103549999Y-91899999D02*
X103899999Y-91899998D01*
X102124998Y-94875001D02*
X101624999Y-94375000D01*
X101624999Y-94375000D02*
X101624996Y-94024999D01*
X103899999Y-91899998D02*
X104599997Y-92600000D01*
D135*
%TO.N,Net-(Q1-D)*%
X113000000Y-127100000D02*
X115300000Y-126100000D01*
D134*
%TO.N,Net-(U1-IO10)*%
X107350413Y-74331417D02*
X108350000Y-75331004D01*
X107350413Y-74331417D02*
X106100000Y-73800000D01*
X108350000Y-76150000D02*
X107200000Y-79000000D01*
X107196000Y-79496000D02*
X107800000Y-80100000D01*
X104210624Y-90539376D02*
X104210624Y-89989376D01*
X108350000Y-75331004D02*
X108350000Y-76150000D01*
X107800000Y-80100000D02*
X108500000Y-80500000D01*
X107196000Y-79200000D02*
X107196000Y-79004000D01*
X107196000Y-79004000D02*
X107200000Y-79000000D01*
X107196000Y-79200000D02*
X107196000Y-79496000D01*
X104210624Y-89989376D02*
X104500000Y-89700000D01*
%TO.N,Net-(U8-ILIM)*%
X103125000Y-95087504D02*
X103125000Y-93900002D01*
X103125000Y-93900002D02*
X103074998Y-93850002D01*
%TO.N,Net-(U4-VM)*%
X112872314Y-124263548D02*
X112850000Y-123550000D01*
X113650000Y-122900000D02*
X114650000Y-122850000D01*
X113000000Y-123200000D02*
X113650000Y-122900000D01*
X112850000Y-123550000D02*
X113000000Y-123200000D01*
%TO.N,Net-(U2-TS)*%
X106249920Y-121615675D02*
X104900000Y-122200000D01*
%TO.N,+BATT*%
X107852470Y-118559789D02*
X108450000Y-118300000D01*
X110000000Y-121200000D02*
X109650000Y-120900000D01*
D138*
X102550000Y-79600000D02*
X102550000Y-77000000D01*
D134*
X109531569Y-121934078D02*
X110300000Y-121400000D01*
X110228821Y-121345169D02*
X110000000Y-121200000D01*
%TO.N,/Battery/DSG*%
X106750000Y-120300000D02*
X105900000Y-119800000D01*
X107173800Y-121232991D02*
X106750000Y-120300000D01*
%TO.N,Net-(U8-TS)*%
X102625000Y-94400001D02*
X102074998Y-93850001D01*
X102122501Y-93899998D02*
X102122501Y-92897504D01*
X102122501Y-92897504D02*
X102074999Y-92850000D01*
X102624998Y-95087498D02*
X102625000Y-94400001D01*
%TO.N,Net-(U8-D+)*%
X107512504Y-97250000D02*
X107512503Y-96412496D01*
X107512503Y-96412496D02*
X107524999Y-96400001D01*
X105337500Y-97799999D02*
X106974999Y-97800001D01*
X106974999Y-97800001D02*
X107524999Y-97250001D01*
%TO.N,Net-(U8-D-)*%
X105337501Y-97300001D02*
X106524998Y-97300001D01*
X106512501Y-96412501D02*
X106524999Y-96399999D01*
X106512501Y-97295002D02*
X106512501Y-96412501D01*
%TO.N,/Logic/LED2*%
X77100000Y-99250000D02*
X78450000Y-99250000D01*
X78450000Y-99250000D02*
X78600000Y-99400000D01*
%TO.N,Net-(U1-TXD0)*%
X80400000Y-98800000D02*
X80400000Y-97950000D01*
X108888209Y-84300000D02*
X108150000Y-84300000D01*
X80400000Y-96700000D02*
X80900000Y-96200000D01*
X80200000Y-99000000D02*
X80400000Y-98800000D01*
X80400000Y-97950000D02*
X80400000Y-96700000D01*
X108150000Y-84300000D02*
X106300000Y-83450000D01*
X81050000Y-96050000D02*
X82800000Y-96050000D01*
X97450000Y-87800000D02*
X96850000Y-88400000D01*
X79700000Y-99500000D02*
X80200000Y-99000000D01*
X80900000Y-96200000D02*
X81050000Y-96050000D01*
X109746400Y-83441809D02*
X108888209Y-84300000D01*
X103200000Y-87800000D02*
X97450000Y-87800000D01*
X79599999Y-99500000D02*
X79700000Y-99500000D01*
%TO.N,/Logic/LED1*%
X77100000Y-98750000D02*
X78450000Y-98750000D01*
X78450000Y-98750000D02*
X78650000Y-98550000D01*
%TO.N,Net-(U1-RXD0)*%
X80000000Y-97800000D02*
X80000000Y-96650000D01*
X80000000Y-96650000D02*
X80850000Y-95800000D01*
X79610000Y-98500000D02*
X80000000Y-98110000D01*
X97050000Y-87200000D02*
X95850000Y-88400000D01*
X109007297Y-83135662D02*
X108442959Y-83700000D01*
X80000000Y-98110000D02*
X80000000Y-97800000D01*
X80850000Y-95800000D02*
X81100000Y-95550000D01*
X108200000Y-83700000D02*
X107100000Y-83250000D01*
X108442959Y-83700000D02*
X108200000Y-83700000D01*
X102600000Y-87200000D02*
X97050000Y-87200000D01*
X81100000Y-95550000D02*
X82400000Y-95550000D01*
%TO.N,/Battery/SDA*%
X107400000Y-81400000D02*
X106100000Y-80100000D01*
X105599998Y-89199996D02*
X105700001Y-89299999D01*
X105513532Y-78766039D02*
X106100000Y-79352507D01*
X105700001Y-92200000D02*
X105700001Y-90950001D01*
X106100000Y-79352507D02*
X106100000Y-79900000D01*
X105183091Y-75916909D02*
X105400000Y-75700000D01*
X106058579Y-121153735D02*
X103350000Y-118445156D01*
X111789600Y-107300000D02*
X111800000Y-107289600D01*
X128400000Y-113000000D02*
X128400000Y-116700000D01*
X106100000Y-80100000D02*
X106100000Y-79900000D01*
X127700000Y-112300000D02*
X128400000Y-113000000D01*
X105699999Y-94250001D02*
X105700001Y-93299998D01*
X105337499Y-94612500D02*
X105699999Y-94250001D01*
X100883209Y-110753945D02*
X102620745Y-110753945D01*
X100650003Y-89199996D02*
X105599998Y-89199996D01*
X109800000Y-82500000D02*
X107400000Y-81400000D01*
X103350000Y-111483200D02*
X107533200Y-107300000D01*
X103350000Y-118445156D02*
X103350000Y-117150000D01*
X105513532Y-78766039D02*
X105183091Y-78435598D01*
X107533200Y-107300000D02*
X111789600Y-107300000D01*
X105700001Y-93299998D02*
X105700001Y-92200000D01*
X102620745Y-110753945D02*
X103350000Y-111483200D01*
X105337500Y-95799999D02*
X105337499Y-94612500D01*
X105700001Y-90950001D02*
X105700000Y-90950000D01*
X105183091Y-78435598D02*
X105183091Y-75916909D01*
%TO.N,/Battery/SCL*%
X100158209Y-111478945D02*
X100158209Y-112158209D01*
X126959865Y-118787481D02*
X126959865Y-115540135D01*
X105337498Y-96300003D02*
X105832174Y-96299999D01*
X114262065Y-71112065D02*
X114150000Y-71000000D01*
X106300000Y-93900000D02*
X106300000Y-94550000D01*
X105974999Y-96157175D02*
X105975000Y-94874999D01*
X105832174Y-96299999D02*
X105974999Y-96157175D01*
X100350000Y-112350000D02*
X102641800Y-112350000D01*
X127700000Y-113200000D02*
X127400000Y-112900000D01*
X105975000Y-94874999D02*
X106300000Y-94550000D01*
X126959865Y-115540135D02*
X127700000Y-114800000D01*
X102641800Y-112350000D02*
X102666800Y-112325000D01*
X106300000Y-91600000D02*
X106300000Y-92900000D01*
X111100000Y-83000000D02*
X111609794Y-83000000D01*
X102666800Y-118415238D02*
X102666800Y-116636800D01*
X111609794Y-83000000D02*
X113454897Y-81154897D01*
X114262065Y-72540031D02*
X114262065Y-71112065D01*
X100158209Y-112158209D02*
X100350000Y-112350000D01*
X105596639Y-121345077D02*
X102666800Y-118415238D01*
X103449996Y-90499996D02*
X104600000Y-91650000D01*
X106300000Y-92900000D02*
X106300000Y-93900000D01*
X100650003Y-90499996D02*
X103449996Y-90499996D01*
X115350000Y-76600000D02*
X113454897Y-81154897D01*
X114262065Y-72540031D02*
X115350000Y-76600000D01*
X127700000Y-114800000D02*
X127700000Y-113200000D01*
%TO.N,Net-(U9-FB)*%
X90600001Y-95754999D02*
X90190001Y-95345001D01*
X90210002Y-95344998D02*
X90210000Y-94365003D01*
X90599999Y-96445001D02*
X90600001Y-95754999D01*
X90210000Y-94365003D02*
X90190000Y-94344998D01*
%TO.N,/Charger/~{CHARGE_ENABLE}*%
X109500000Y-74050000D02*
X109500000Y-73345253D01*
X107800000Y-79600000D02*
X107500000Y-79300000D01*
X103949999Y-93124998D02*
X104012499Y-93062501D01*
X107450000Y-79150000D02*
X109500000Y-74050000D01*
X103624999Y-95087502D02*
X103624998Y-93449999D01*
X103624998Y-93449999D02*
X103949999Y-93124998D01*
X107450000Y-79250000D02*
X107450000Y-79150000D01*
X109500000Y-73345253D02*
X108268853Y-72114106D01*
X107800000Y-79600000D02*
X109100000Y-80200000D01*
X107500000Y-79300000D02*
X107450000Y-79250000D01*
%TO.N,Net-(U1-IO5)*%
X106850000Y-79750000D02*
X106850000Y-79100000D01*
X106850000Y-79100000D02*
X107400000Y-77750000D01*
X103559996Y-89709996D02*
X103650000Y-89800000D01*
X108000000Y-80900000D02*
X106850000Y-79750000D01*
X107400000Y-77750000D02*
X107400000Y-77516755D01*
X107400000Y-77516755D02*
X106431973Y-76548728D01*
X101800005Y-89709996D02*
X103559996Y-89709996D01*
X100650003Y-89849996D02*
X101800004Y-89849996D01*
X101800004Y-89849996D02*
X101900000Y-89750000D01*
X108000000Y-81000000D02*
X108000000Y-80900000D01*
D136*
%TO.N,/Battery/BAT+*%
X99912501Y-95874999D02*
X99874999Y-95875001D01*
X100625000Y-79600000D02*
X100675000Y-79650000D01*
X100625000Y-78900000D02*
X100675000Y-78950000D01*
X99750000Y-80300000D02*
X100625000Y-80300000D01*
X98900000Y-80300000D02*
X98850001Y-80250000D01*
X101412499Y-95800000D02*
X101412498Y-95162500D01*
X101412499Y-95800000D02*
X99974997Y-95800000D01*
X99775000Y-79600000D02*
X98900001Y-79600000D01*
X98900001Y-79600000D02*
X98850000Y-79550001D01*
X99912501Y-95874999D02*
X99912501Y-95187497D01*
X100625000Y-80300000D02*
X100675000Y-80350000D01*
D134*
X84350000Y-87250000D02*
X91350000Y-80250000D01*
D136*
X101412498Y-96299998D02*
X100374999Y-96300001D01*
X101412498Y-95162500D02*
X101399998Y-95150000D01*
X100374999Y-96300001D02*
X100024998Y-95950002D01*
X99874999Y-95875001D02*
X99249997Y-95250003D01*
X99775000Y-78900000D02*
X98900000Y-78900000D01*
X98900000Y-78900000D02*
X98850000Y-78850000D01*
X99912501Y-95187497D02*
X99925000Y-95175001D01*
D134*
X75750000Y-93340000D02*
X75750000Y-92500000D01*
D136*
X99912501Y-95874999D02*
X99924998Y-95875000D01*
X99750000Y-78900000D02*
X100625000Y-78900000D01*
D134*
X91350000Y-80250000D02*
X98850001Y-80250000D01*
X81000000Y-87250000D02*
X84350000Y-87250000D01*
D136*
X99924998Y-95875000D02*
X100549999Y-95249997D01*
X99750000Y-79600000D02*
X100625000Y-79600000D01*
X99775001Y-80300000D02*
X98900000Y-80300000D01*
D134*
X75750000Y-92500000D02*
X81000000Y-87250000D01*
%TO.N,/USB/VBAT*%
X75746000Y-100779000D02*
X75746000Y-105004000D01*
X72800000Y-107950000D02*
X71350000Y-107950000D01*
X76775000Y-99750000D02*
X75746000Y-100779000D01*
X75750000Y-98700000D02*
X76800000Y-99750000D01*
X75750000Y-94360000D02*
X75750000Y-98700000D01*
X77100000Y-99750000D02*
X76775000Y-99750000D01*
X75746000Y-105004000D02*
X72800000Y-107950000D01*
%TO.N,/Logic/EN*%
X111142283Y-69800000D02*
X111142283Y-69464459D01*
X111142283Y-69800000D02*
X112000000Y-70175000D01*
X104950000Y-67400000D02*
X93450000Y-67400000D01*
X111142283Y-69464459D02*
X109077824Y-67400000D01*
X89450000Y-74900000D02*
X92600000Y-78050000D01*
X112044754Y-70144754D02*
X112000000Y-70100000D01*
X89450000Y-72300000D02*
X89450000Y-74900000D01*
X112044754Y-71621590D02*
X112044754Y-70144754D01*
X109077824Y-67400000D02*
X104950000Y-67400000D01*
%TO.N,/Logic/IO9*%
X89549999Y-71250000D02*
X89549999Y-70623546D01*
X102650000Y-72950000D02*
X92600000Y-72950000D01*
X105207386Y-79505142D02*
X104500000Y-78797756D01*
X104500000Y-74800000D02*
X102650000Y-72950000D01*
X89549999Y-70623546D02*
X89982713Y-70190832D01*
X92600000Y-72950000D02*
X91250001Y-72950000D01*
X91250001Y-72950000D02*
X89549999Y-71250000D01*
X104500000Y-78797756D02*
X104500000Y-74800000D01*
%TO.N,Net-(U1-IO0)*%
X93575002Y-71375002D02*
X91874207Y-69674209D01*
X91874207Y-69674209D02*
X91229951Y-69674207D01*
X108575000Y-71375002D02*
X93575002Y-71375002D01*
%TO.N,Net-(U1-IO4)*%
X126111630Y-112345631D02*
X125345631Y-112345631D01*
X125737183Y-113184217D02*
X126120871Y-112315756D01*
X106738119Y-75809624D02*
X107500000Y-76600000D01*
X125345631Y-112345631D02*
X124100000Y-111100000D01*
%TD*%
%TA.AperFunction,Conductor*%
%TO.N,Net-(C27-Pad1)*%
G36*
X102245176Y-98550768D02*
G01*
X102274998Y-98555492D01*
X102304819Y-98550768D01*
X102314594Y-98550000D01*
X102762502Y-98550000D01*
X102806696Y-98568306D01*
X102825002Y-98612500D01*
X102824999Y-99578555D01*
X102811834Y-99616926D01*
X102474999Y-100050000D01*
X102474999Y-103787499D01*
X102456693Y-103831693D01*
X102412499Y-103849999D01*
X101237498Y-103849999D01*
X101193304Y-103831693D01*
X101174998Y-103787499D01*
X101174998Y-100125884D01*
X101193303Y-100081694D01*
X101874997Y-99400002D01*
X101874997Y-98663274D01*
X101893303Y-98619080D01*
X101893303Y-98619079D01*
X101900385Y-98611998D01*
X101923251Y-98577775D01*
X101963025Y-98551201D01*
X101975218Y-98550000D01*
X102235402Y-98550000D01*
X102245176Y-98550768D01*
G37*
%TD.AperFunction*%
%TD*%
%TA.AperFunction,Conductor*%
%TO.N,VBUS*%
G36*
X79681694Y-100618306D02*
G01*
X79700000Y-100662500D01*
X79700000Y-102837500D01*
X79681694Y-102881694D01*
X79637500Y-102900000D01*
X77962500Y-102900000D01*
X77918306Y-102881694D01*
X77900000Y-102837500D01*
X77900000Y-100662500D01*
X77918306Y-100618306D01*
X77962500Y-100600000D01*
X79637500Y-100600000D01*
X79681694Y-100618306D01*
G37*
%TD.AperFunction*%
%TD*%
%TA.AperFunction,Conductor*%
%TO.N,/Charger/VSYS*%
G36*
X101806692Y-96668306D02*
G01*
X101824998Y-96712500D01*
X101824998Y-97437502D01*
X101806692Y-97481696D01*
X101762498Y-97500002D01*
X100875000Y-97500000D01*
X100874999Y-97500000D01*
X100807915Y-97587207D01*
X100802205Y-97593364D01*
X100800248Y-97595502D01*
X100750018Y-97662474D01*
X100489724Y-98000853D01*
X100468563Y-98018432D01*
X100461658Y-98021950D01*
X100461658Y-98021951D01*
X100384417Y-98099192D01*
X100340223Y-98117498D01*
X99650884Y-98117498D01*
X99640798Y-98119504D01*
X99600177Y-98127584D01*
X99557546Y-98145243D01*
X99533635Y-98150000D01*
X99525000Y-98150000D01*
X99524997Y-98150002D01*
X99274999Y-98399997D01*
X99274999Y-98408637D01*
X99270241Y-98432555D01*
X99252586Y-98475175D01*
X99252586Y-98475176D01*
X99242499Y-98525884D01*
X99242499Y-99174112D01*
X99252584Y-99224816D01*
X99252584Y-99224817D01*
X99270241Y-99267443D01*
X99274999Y-99291361D01*
X99274999Y-99299998D01*
X99668400Y-100086802D01*
X99674998Y-100114753D01*
X99675000Y-103787500D01*
X99656694Y-103831694D01*
X99612500Y-103850000D01*
X98387498Y-103850000D01*
X98343304Y-103831694D01*
X98324998Y-103787500D01*
X98325000Y-100050000D01*
X97876159Y-97755943D01*
X97874996Y-97743942D01*
X97874997Y-96912499D01*
X97893303Y-96868305D01*
X97937496Y-96849999D01*
X98214729Y-96849999D01*
X98243101Y-96856810D01*
X98299696Y-96885647D01*
X98425000Y-96905493D01*
X98550304Y-96885647D01*
X98606898Y-96856810D01*
X98635268Y-96849999D01*
X98985409Y-96849999D01*
X98995166Y-96850768D01*
X99020387Y-96854762D01*
X99024997Y-96855493D01*
X99024998Y-96855493D01*
X99025000Y-96855493D01*
X99032985Y-96854227D01*
X99054829Y-96850768D01*
X99064585Y-96849999D01*
X100374999Y-96850001D01*
X100914657Y-96653761D01*
X100936004Y-96650000D01*
X101762498Y-96650000D01*
X101806692Y-96668306D01*
G37*
%TD.AperFunction*%
%TD*%
%TA.AperFunction,Conductor*%
%TO.N,GND*%
G36*
X79681694Y-103118306D02*
G01*
X79700000Y-103162500D01*
X79700000Y-105337500D01*
X79681694Y-105381694D01*
X79637500Y-105400000D01*
X77962500Y-105400000D01*
X77918306Y-105381694D01*
X77900000Y-105337500D01*
X77900000Y-103162500D01*
X77918306Y-103118306D01*
X77962500Y-103100000D01*
X79637500Y-103100000D01*
X79681694Y-103118306D01*
G37*
%TD.AperFunction*%
%TD*%
%TA.AperFunction,Conductor*%
%TO.N,GND*%
G36*
X101806693Y-97668306D02*
G01*
X101824999Y-97712500D01*
X101824999Y-98474112D01*
X101806693Y-98518306D01*
X100943304Y-99381695D01*
X100899110Y-99400001D01*
X99600887Y-99400001D01*
X99556694Y-99381695D01*
X99474999Y-99300000D01*
X99393305Y-99218306D01*
X99374999Y-99174112D01*
X99374999Y-98525884D01*
X99393303Y-98481696D01*
X99606694Y-98268303D01*
X99650884Y-98249998D01*
X100474998Y-98249998D01*
X100906250Y-97675000D01*
X100947411Y-97650628D01*
X100956250Y-97650000D01*
X101762499Y-97650000D01*
X101806693Y-97668306D01*
G37*
%TD.AperFunction*%
%TD*%
%TA.AperFunction,Conductor*%
%TO.N,Net-(U9-L1)*%
G36*
X92271694Y-98913305D02*
G01*
X92290000Y-98957499D01*
X92290000Y-99594998D01*
X92290001Y-99594999D01*
X92439999Y-99745001D01*
X93314113Y-99745001D01*
X93358306Y-99763306D01*
X93621695Y-100026696D01*
X93640001Y-100070889D01*
X93640001Y-103882500D01*
X93621695Y-103926694D01*
X93577501Y-103945000D01*
X92002501Y-103945000D01*
X91958307Y-103926694D01*
X91940001Y-103882500D01*
X91940003Y-100144998D01*
X91939999Y-99744997D01*
X91939999Y-98957499D01*
X91958305Y-98913305D01*
X92002498Y-98894999D01*
X92227501Y-98894999D01*
X92271694Y-98913305D01*
G37*
%TD.AperFunction*%
%TD*%
%TA.AperFunction,Conductor*%
%TO.N,Net-(U9-L2)*%
G36*
X91221695Y-98913305D02*
G01*
X91240001Y-98957499D01*
X91240001Y-103882500D01*
X91221695Y-103926694D01*
X91177501Y-103945000D01*
X89602499Y-103945000D01*
X89558305Y-103926694D01*
X89539999Y-103882500D01*
X89539999Y-100070884D01*
X89558303Y-100026696D01*
X89821694Y-99763303D01*
X89865887Y-99744998D01*
X90790000Y-99745000D01*
X90939999Y-99594999D01*
X90940000Y-98957497D01*
X90958306Y-98913305D01*
X91002498Y-98894999D01*
X91177501Y-98894999D01*
X91221695Y-98913305D01*
G37*
%TD.AperFunction*%
%TD*%
M02*
