%TF.GenerationSoftware,KiCad,Pcbnew,7.0.8*%
%TF.CreationDate,2023-10-15T21:23:35+02:00*%
%TF.ProjectId,blinkekatze,626c696e-6b65-46b6-9174-7a652e6b6963,rev?*%
%TF.SameCoordinates,Original*%
%TF.FileFunction,Paste,Top*%
%TF.FilePolarity,Positive*%
%FSLAX46Y46*%
G04 Gerber Fmt 4.6, Leading zero omitted, Abs format (unit mm)*
G04 Created by KiCad (PCBNEW 7.0.8) date 2023-10-15 21:23:35*
%MOMM*%
%LPD*%
G01*
G04 APERTURE LIST*
G04 Aperture macros list*
%AMRoundRect*
0 Rectangle with rounded corners*
0 $1 Rounding radius*
0 $2 $3 $4 $5 $6 $7 $8 $9 X,Y pos of 4 corners*
0 Add a 4 corners polygon primitive as box body*
4,1,4,$2,$3,$4,$5,$6,$7,$8,$9,$2,$3,0*
0 Add four circle primitives for the rounded corners*
1,1,$1+$1,$2,$3*
1,1,$1+$1,$4,$5*
1,1,$1+$1,$6,$7*
1,1,$1+$1,$8,$9*
0 Add four rect primitives between the rounded corners*
20,1,$1+$1,$2,$3,$4,$5,0*
20,1,$1+$1,$4,$5,$6,$7,0*
20,1,$1+$1,$6,$7,$8,$9,0*
20,1,$1+$1,$8,$9,$2,$3,0*%
%AMRotRect*
0 Rectangle, with rotation*
0 The origin of the aperture is its center*
0 $1 length*
0 $2 width*
0 $3 Rotation angle, in degrees counterclockwise*
0 Add horizontal line*
21,1,$1,$2,0,0,$3*%
%AMFreePoly0*
4,1,6,0.580000,-0.580000,-0.580000,-0.580000,-0.580000,0.084940,-0.084940,0.580000,0.580000,0.580000,0.580000,-0.580000,0.580000,-0.580000,$1*%
%AMFreePoly1*
4,1,5,0.280000,-0.280000,-0.280000,-0.280000,-0.280000,0.280000,0.280000,0.280000,0.280000,-0.280000,0.280000,-0.280000,$1*%
G04 Aperture macros list end*
%ADD10RoundRect,0.081000X0.213341X-0.057754X0.110017X0.191693X-0.213341X0.057754X-0.110017X-0.191693X0*%
%ADD11RoundRect,0.081000X0.110017X-0.191693X0.213341X0.057754X-0.110017X0.191693X-0.213341X-0.057754X0*%
%ADD12RoundRect,0.032500X0.107500X-0.187500X0.107500X0.187500X-0.107500X0.187500X-0.107500X-0.187500X0*%
%ADD13RoundRect,0.052500X0.167500X-0.087500X0.167500X0.087500X-0.167500X0.087500X-0.167500X-0.087500X0*%
%ADD14RotRect,0.280000X0.280000X247.500000*%
%ADD15R,0.960000X2.960000*%
%ADD16RoundRect,0.010000X-0.250000X-0.110000X0.250000X-0.110000X0.250000X0.110000X-0.250000X0.110000X0*%
%ADD17RotRect,1.040000X0.720000X45.000000*%
%ADD18RotRect,1.760000X0.960000X45.000000*%
%ADD19RotRect,1.200000X1.040000X45.000000*%
%ADD20RotRect,1.920000X0.640000X45.000000*%
%ADD21RoundRect,0.081000X0.135000X0.175000X-0.135000X0.175000X-0.135000X-0.175000X0.135000X-0.175000X0*%
%ADD22R,1.040000X0.720000*%
%ADD23R,1.760000X0.960000*%
%ADD24R,1.200000X1.040000*%
%ADD25R,1.920000X0.640000*%
%ADD26RotRect,1.040000X0.720000X67.500000*%
%ADD27RotRect,1.760000X0.960000X67.500000*%
%ADD28RotRect,1.200000X1.040000X67.500000*%
%ADD29RotRect,1.920000X0.640000X67.500000*%
%ADD30RoundRect,0.084000X0.192103X0.097941X-0.066583X0.205092X-0.192103X-0.097941X0.066583X-0.205092X0*%
%ADD31RoundRect,0.135000X0.245000X-0.225000X0.245000X0.225000X-0.245000X0.225000X-0.245000X-0.225000X0*%
%ADD32RoundRect,0.084000X0.205092X-0.066583X0.097941X0.192103X-0.205092X0.066583X-0.097941X-0.192103X0*%
%ADD33RoundRect,0.110000X-0.430000X0.450000X-0.430000X-0.450000X0.430000X-0.450000X0.430000X0.450000X0*%
%ADD34RoundRect,0.084000X-0.164000X0.140000X-0.164000X-0.140000X0.164000X-0.140000X0.164000X0.140000X0*%
%ADD35RoundRect,0.084000X-0.140000X-0.164000X0.140000X-0.164000X0.140000X0.164000X-0.140000X0.164000X0*%
%ADD36RoundRect,0.084000X-0.214960X-0.016971X-0.016971X-0.214960X0.214960X0.016971X0.016971X0.214960X0*%
%ADD37RoundRect,0.081000X-0.135000X-0.175000X0.135000X-0.175000X0.135000X0.175000X-0.135000X0.175000X0*%
%ADD38RoundRect,0.084000X0.066583X0.205092X-0.192103X0.097941X-0.066583X-0.205092X0.192103X-0.097941X0*%
%ADD39RotRect,1.040000X0.720000X22.500000*%
%ADD40RotRect,1.760000X0.960000X22.500000*%
%ADD41RotRect,1.200000X1.040000X22.500000*%
%ADD42RotRect,1.920000X0.640000X22.500000*%
%ADD43RoundRect,0.084000X-0.205092X0.066583X-0.097941X-0.192103X0.205092X-0.066583X0.097941X0.192103X0*%
%ADD44RoundRect,0.084000X-0.192103X-0.097941X0.066583X-0.205092X0.192103X0.097941X-0.066583X0.205092X0*%
%ADD45RoundRect,0.150000X-0.250000X-0.430000X0.250000X-0.430000X0.250000X0.430000X-0.250000X0.430000X0*%
%ADD46RoundRect,0.084000X0.016971X-0.214960X0.214960X-0.016971X-0.016971X0.214960X-0.214960X0.016971X0*%
%ADD47RoundRect,0.084000X-0.097941X0.192103X-0.205092X-0.066583X0.097941X-0.192103X0.205092X0.066583X0*%
%ADD48RoundRect,0.002500X-0.451892X-0.444248X0.633667X0.005405X0.451892X0.444248X-0.633667X-0.005405X0*%
%ADD49RoundRect,0.147500X-0.084661X-0.481555X0.400375X-0.280646X0.084661X0.481555X-0.400375X0.280646X0*%
%ADD50RoundRect,0.084000X-0.066583X-0.205092X0.192103X-0.097941X0.066583X0.205092X-0.192103X0.097941X0*%
%ADD51RoundRect,0.081000X-0.213341X0.057754X-0.110017X-0.191693X0.213341X-0.057754X0.110017X0.191693X0*%
%ADD52RoundRect,0.081000X-0.057754X-0.213341X0.191693X-0.110017X0.057754X0.213341X-0.191693X0.110017X0*%
%ADD53RoundRect,0.084000X-0.016971X0.214960X-0.214960X0.016971X0.016971X-0.214960X0.214960X-0.016971X0*%
%ADD54RoundRect,0.081000X0.175000X-0.135000X0.175000X0.135000X-0.175000X0.135000X-0.175000X-0.135000X0*%
%ADD55RoundRect,0.125000X0.375000X0.575000X-0.375000X0.575000X-0.375000X-0.575000X0.375000X-0.575000X0*%
%ADD56RoundRect,0.081000X-0.175000X0.135000X-0.175000X-0.135000X0.175000X-0.135000X0.175000X0.135000X0*%
%ADD57RotRect,1.040000X0.720000X247.500000*%
%ADD58RotRect,1.760000X0.960000X247.500000*%
%ADD59RotRect,1.200000X1.040000X247.500000*%
%ADD60RotRect,1.920000X0.640000X247.500000*%
%ADD61RotRect,1.040000X0.720000X337.500000*%
%ADD62RotRect,1.760000X0.960000X337.500000*%
%ADD63RotRect,1.200000X1.040000X337.500000*%
%ADD64RotRect,1.920000X0.640000X337.500000*%
%ADD65RoundRect,0.084000X0.164000X-0.140000X0.164000X0.140000X-0.164000X0.140000X-0.164000X-0.140000X0*%
%ADD66RoundRect,0.081000X0.057754X0.213341X-0.191693X0.110017X-0.057754X-0.213341X0.191693X-0.110017X0*%
%ADD67RotRect,1.040000X0.720000X202.500000*%
%ADD68RotRect,1.760000X0.960000X202.500000*%
%ADD69RotRect,1.200000X1.040000X202.500000*%
%ADD70RotRect,1.920000X0.640000X202.500000*%
%ADD71RoundRect,0.081000X0.191693X0.110017X-0.057754X0.213341X-0.191693X-0.110017X0.057754X-0.213341X0*%
%ADD72RoundRect,0.135000X-0.245000X0.225000X-0.245000X-0.225000X0.245000X-0.225000X0.245000X0.225000X0*%
%ADD73RoundRect,0.084000X0.140000X0.164000X-0.140000X0.164000X-0.140000X-0.164000X0.140000X-0.164000X0*%
%ADD74RoundRect,0.017500X0.401688X-0.388341X0.009438X0.558635X-0.401688X0.388341X-0.009438X-0.558635X0*%
%ADD75RotRect,1.040000X0.720000X157.500000*%
%ADD76RotRect,1.760000X0.960000X157.500000*%
%ADD77RotRect,1.200000X1.040000X157.500000*%
%ADD78RotRect,1.920000X0.640000X157.500000*%
%ADD79RotRect,0.640000X0.320000X247.500000*%
%ADD80RotRect,0.640000X0.320000X337.500000*%
%ADD81FreePoly0,247.500000*%
%ADD82RotRect,1.160000X1.160000X247.500000*%
%ADD83FreePoly1,247.500000*%
%ADD84RotRect,1.040000X0.720000X225.000000*%
%ADD85RotRect,1.760000X0.960000X225.000000*%
%ADD86RotRect,1.200000X1.040000X225.000000*%
%ADD87RotRect,1.920000X0.640000X225.000000*%
%ADD88RoundRect,0.025000X0.145000X-0.100000X0.145000X0.100000X-0.145000X0.100000X-0.145000X-0.100000X0*%
%ADD89RoundRect,0.106000X0.424000X-0.644000X0.424000X0.644000X-0.424000X0.644000X-0.424000X-0.644000X0*%
%ADD90R,0.192000X0.480000*%
%ADD91RoundRect,0.081000X-0.110017X0.191693X-0.213341X-0.057754X0.110017X-0.191693X0.213341X0.057754X0*%
%ADD92RotRect,1.040000X0.720000X292.500000*%
%ADD93RotRect,1.760000X0.960000X292.500000*%
%ADD94RotRect,1.200000X1.040000X292.500000*%
%ADD95RotRect,1.920000X0.640000X292.500000*%
%ADD96RotRect,1.040000X0.720000X135.000000*%
%ADD97RotRect,1.760000X0.960000X135.000000*%
%ADD98RotRect,1.200000X1.040000X135.000000*%
%ADD99RotRect,1.920000X0.640000X135.000000*%
%ADD100R,0.520000X0.240000*%
%ADD101R,0.920000X0.240000*%
%ADD102RoundRect,0.250000X0.295000X0.295000X-0.295000X0.295000X-0.295000X-0.295000X0.295000X-0.295000X0*%
%ADD103RoundRect,0.000000X0.330000X0.100000X-0.330000X0.100000X-0.330000X-0.100000X0.330000X-0.100000X0*%
%ADD104RoundRect,0.037500X0.062500X0.292500X-0.062500X0.292500X-0.062500X-0.292500X0.062500X-0.292500X0*%
%ADD105R,0.720000X1.040000*%
%ADD106R,0.960000X1.760000*%
%ADD107R,1.040000X1.200000*%
%ADD108R,0.640000X1.920000*%
%ADD109RoundRect,0.084000X0.097941X-0.192103X0.205092X0.066583X-0.097941X0.192103X-0.205092X-0.066583X0*%
%ADD110RoundRect,0.084000X0.214960X0.016971X0.016971X0.214960X-0.214960X-0.016971X-0.016971X-0.214960X0*%
%ADD111C,0.196000*%
%ADD112RotRect,0.360000X0.760000X112.500000*%
%ADD113RotRect,0.280000X1.840000X112.500000*%
%ADD114RotRect,1.040000X0.280000X112.500000*%
%ADD115RoundRect,0.081000X0.028284X-0.219203X0.219203X-0.028284X-0.028284X0.219203X-0.219203X0.028284X0*%
%ADD116RoundRect,0.017500X0.009438X-0.558635X0.401688X0.388341X-0.009438X0.558635X-0.401688X-0.388341X0*%
%ADD117RotRect,1.040000X0.720000X315.000000*%
%ADD118RotRect,1.760000X0.960000X315.000000*%
%ADD119RotRect,1.200000X1.040000X315.000000*%
%ADD120RotRect,1.920000X0.640000X315.000000*%
%ADD121RotRect,1.040000X0.720000X112.500000*%
%ADD122RotRect,1.760000X0.960000X112.500000*%
%ADD123RotRect,1.200000X1.040000X112.500000*%
%ADD124RotRect,1.920000X0.640000X112.500000*%
G04 APERTURE END LIST*
D10*
%TO.C,R6*%
X108354952Y-126567013D03*
X107964614Y-125624655D03*
%TD*%
D11*
%TO.C,R23*%
X106109662Y-73842358D03*
X106500000Y-72900000D03*
%TD*%
D12*
%TO.C,U10*%
X98658209Y-111478945D03*
X99158209Y-111478945D03*
X99658209Y-111478945D03*
X100158209Y-111478945D03*
X100658209Y-111478945D03*
D13*
X100883209Y-110753945D03*
X100883209Y-110253945D03*
X100883209Y-109753945D03*
D12*
X100658209Y-109028945D03*
X100158209Y-109028945D03*
X99658209Y-109028945D03*
X99158209Y-109028945D03*
X98658209Y-109028945D03*
D13*
X98433209Y-109753945D03*
X98433209Y-110253945D03*
X98433209Y-110753945D03*
%TD*%
D14*
%TO.C,U5*%
X128197488Y-111098957D03*
X127948744Y-111699479D03*
X127700000Y-112300000D03*
X127451255Y-112900522D03*
X126111630Y-112345631D03*
X126360374Y-111745109D03*
X126609118Y-111144588D03*
X126857863Y-110544066D03*
%TD*%
D15*
%TO.C,L4*%
X93000000Y-102045001D03*
X90200000Y-102045001D03*
%TD*%
D16*
%TO.C,U7*%
X98850003Y-89199996D03*
X98850003Y-89849996D03*
X98850003Y-90499996D03*
X100650003Y-90499996D03*
X100650003Y-89849996D03*
X100650003Y-89199996D03*
%TD*%
D17*
%TO.C,D15*%
X90411701Y-88190381D03*
D18*
X88997487Y-87412563D03*
D19*
X87300431Y-89180330D03*
D20*
X88714645Y-89958148D03*
%TD*%
D21*
%TO.C,R14*%
X102122502Y-93900000D03*
X101102502Y-93900000D03*
%TD*%
D22*
%TO.C,D13*%
X101500000Y-84850000D03*
D23*
X101050000Y-83300000D03*
D24*
X98600000Y-83350000D03*
D25*
X99050000Y-84900000D03*
%TD*%
D26*
%TO.C,D16*%
X86609323Y-92789462D03*
D27*
X85005102Y-92612048D03*
D28*
X84113721Y-94894687D03*
D29*
X85717942Y-95072101D03*
%TD*%
D30*
%TO.C,C5*%
X95186924Y-112707376D03*
X94300000Y-112340000D03*
%TD*%
D31*
%TO.C,C32*%
X99912503Y-95874998D03*
X99912503Y-94324998D03*
%TD*%
D32*
%TO.C,C26*%
X110217376Y-123736924D03*
X109850000Y-122850000D03*
%TD*%
D33*
%TO.C,C17*%
X78800000Y-101750000D03*
X78800000Y-104450000D03*
%TD*%
D34*
%TO.C,C72*%
X94099999Y-98284999D03*
X94099999Y-99244999D03*
%TD*%
D35*
%TO.C,C73*%
X91140000Y-95344996D03*
X92100000Y-95344996D03*
%TD*%
D36*
%TO.C,C12*%
X109270589Y-90170589D03*
X109949411Y-90849411D03*
%TD*%
D34*
%TO.C,C74*%
X89140001Y-98285001D03*
X89140001Y-99245001D03*
%TD*%
D37*
%TO.C,R19*%
X78579999Y-99500000D03*
X79599999Y-99500000D03*
%TD*%
D38*
%TO.C,C20*%
X107252823Y-123906239D03*
X106365899Y-124273615D03*
%TD*%
D39*
%TO.C,D14*%
X95561100Y-85411272D03*
D40*
X94552195Y-84151467D03*
D41*
X92307824Y-85135235D03*
D42*
X93316730Y-86395041D03*
%TD*%
D43*
%TO.C,C68*%
X92516313Y-67656537D03*
X92883689Y-68543461D03*
%TD*%
D44*
%TO.C,C13*%
X104826538Y-87346312D03*
X105713462Y-87713688D03*
%TD*%
D45*
%TO.C,C28*%
X105312502Y-100725001D03*
X107212502Y-100725001D03*
%TD*%
D46*
%TO.C,C16*%
X90190589Y-90679411D03*
X90869411Y-90000589D03*
%TD*%
D47*
%TO.C,C9*%
X112713688Y-104736538D03*
X112346312Y-105623462D03*
%TD*%
D48*
%TO.C,Q1*%
X110904177Y-126939846D03*
X111631275Y-128695217D03*
X113000000Y-127100000D03*
%TD*%
D49*
%TO.C,R4*%
X107604997Y-128382178D03*
X109291077Y-127683780D03*
%TD*%
D50*
%TO.C,C21*%
X106710970Y-125158954D03*
X107597894Y-124791578D03*
%TD*%
D37*
%TO.C,R48*%
X89190004Y-95345001D03*
X90210004Y-95345001D03*
%TD*%
D51*
%TO.C,R9*%
X104910294Y-122170565D03*
X105300632Y-123112923D03*
%TD*%
D52*
%TO.C,R11*%
X110228821Y-121345169D03*
X111171179Y-120954831D03*
%TD*%
D43*
%TO.C,C23*%
X108571915Y-120296683D03*
X108939291Y-121183607D03*
%TD*%
D31*
%TO.C,C31*%
X98412503Y-97374999D03*
X98412503Y-95824999D03*
%TD*%
D53*
%TO.C,C8*%
X109829411Y-109310589D03*
X109150589Y-109989411D03*
%TD*%
D54*
%TO.C,R15*%
X107512504Y-96395000D03*
X107512504Y-95375000D03*
%TD*%
D55*
%TO.C,F1*%
X102550000Y-79600000D03*
X99750000Y-79600000D03*
%TD*%
D56*
%TO.C,R22*%
X101800005Y-88689996D03*
X101800005Y-89709996D03*
%TD*%
D38*
%TO.C,C7*%
X105566924Y-112342624D03*
X104680000Y-112710000D03*
%TD*%
D57*
%TO.C,D8*%
X113440677Y-107160538D03*
D58*
X115044898Y-107337952D03*
D59*
X115936279Y-105055313D03*
D60*
X114332058Y-104877899D03*
%TD*%
D61*
%TO.C,D12*%
X107210538Y-86609323D03*
D62*
X107387952Y-85005102D03*
D63*
X105105313Y-84113721D03*
D64*
X104927899Y-85717942D03*
%TD*%
D35*
%TO.C,C14*%
X99540000Y-86460000D03*
X100500000Y-86460000D03*
%TD*%
D65*
%TO.C,C2*%
X86450000Y-100410000D03*
X86450000Y-99450000D03*
%TD*%
D66*
%TO.C,R12*%
X106863761Y-119413107D03*
X105921403Y-119803445D03*
%TD*%
D67*
%TO.C,D6*%
X104388900Y-114588728D03*
D68*
X105397805Y-115848533D03*
D69*
X107642176Y-114864765D03*
D70*
X106633270Y-113604959D03*
%TD*%
D65*
%TO.C,C71*%
X94100001Y-97325000D03*
X94100001Y-96365000D03*
%TD*%
D71*
%TO.C,R46*%
X115142358Y-71440338D03*
X114200000Y-71050000D03*
%TD*%
D72*
%TO.C,C30*%
X99912502Y-97325000D03*
X99912502Y-98875000D03*
%TD*%
D54*
%TO.C,R18*%
X106512500Y-98315000D03*
X106512500Y-97295000D03*
%TD*%
D73*
%TO.C,C6*%
X100410000Y-113530000D03*
X99450000Y-113530000D03*
%TD*%
D74*
%TO.C,U4*%
X111994629Y-124627097D03*
X112872314Y-124263548D03*
X113750000Y-123899999D03*
X112879395Y-121798173D03*
X112001710Y-122161722D03*
X111124024Y-122525271D03*
%TD*%
D75*
%TO.C,D4*%
X92789462Y-113440677D03*
D76*
X92612048Y-115044898D03*
D77*
X94894687Y-115936279D03*
D78*
X95072101Y-114332058D03*
%TD*%
D79*
%TO.C,U1*%
X117218479Y-73764617D03*
X116479376Y-73458471D03*
X115740272Y-73152324D03*
X115001169Y-72846177D03*
X114262065Y-72540031D03*
X113522961Y-72233884D03*
X112783858Y-71927737D03*
X112044754Y-71621590D03*
X111305650Y-71315444D03*
X110566547Y-71009297D03*
X109827443Y-70703150D03*
D80*
X108575000Y-71375002D03*
X108268853Y-72114106D03*
X107962706Y-72853210D03*
X107656560Y-73592313D03*
X107350413Y-74331417D03*
X107044266Y-75070521D03*
X106738119Y-75809624D03*
X106431973Y-76548728D03*
X106125826Y-77287831D03*
X105819679Y-78026935D03*
X105513532Y-78766039D03*
X105207386Y-79505142D03*
X104901239Y-80244246D03*
D79*
X105311779Y-81604929D03*
X106050882Y-81911075D03*
X106789986Y-82217222D03*
X107529089Y-82523369D03*
X108268193Y-82829515D03*
X109007297Y-83135662D03*
X109746400Y-83441809D03*
X110485504Y-83747956D03*
X111224608Y-84054102D03*
X111963711Y-84360249D03*
X112702815Y-84666396D03*
D80*
X113955258Y-83994544D03*
X114261405Y-83255440D03*
X114567552Y-82516336D03*
X114873698Y-81777233D03*
X115179845Y-81038129D03*
X115485992Y-80299025D03*
X115792139Y-79559922D03*
X116098285Y-78820818D03*
X116404432Y-78081715D03*
X116710579Y-77342611D03*
X117016726Y-76603507D03*
X117322872Y-75864404D03*
X117629019Y-75125300D03*
D81*
X113845591Y-76615911D03*
D82*
X112020929Y-75860111D03*
X110196267Y-75104311D03*
X113089791Y-78440573D03*
X111265129Y-77684773D03*
X109440467Y-76928973D03*
X112333991Y-80265235D03*
X110509329Y-79509435D03*
X108684667Y-78753635D03*
D83*
X113561366Y-85076139D03*
X104414959Y-81287573D03*
X108968892Y-70293407D03*
X118115299Y-74081973D03*
%TD*%
D66*
%TO.C,R10*%
X109531569Y-121934078D03*
X108589211Y-122324416D03*
%TD*%
D84*
%TO.C,D7*%
X109638299Y-111809619D03*
D85*
X111052513Y-112587437D03*
D86*
X112749569Y-110819670D03*
D87*
X111335355Y-110041852D03*
%TD*%
D44*
%TO.C,C70*%
X127361097Y-109638605D03*
X128248021Y-110005981D03*
%TD*%
D34*
%TO.C,C67*%
X97710004Y-89400000D03*
X97710004Y-90360000D03*
%TD*%
D65*
%TO.C,C27*%
X103112500Y-101105001D03*
X103112500Y-100145001D03*
%TD*%
D88*
%TO.C,U9*%
X90070000Y-98095002D03*
X93130000Y-98095002D03*
D89*
X90970000Y-97845002D03*
X92230000Y-97845002D03*
D88*
X90070000Y-97595002D03*
X93130000Y-97595002D03*
D90*
X90600000Y-99245002D03*
X91100000Y-99245002D03*
X91600000Y-99245002D03*
X92100000Y-99245002D03*
X92600000Y-99245002D03*
X92600000Y-96445002D03*
X92100000Y-96445002D03*
X91600000Y-96445002D03*
X91100000Y-96445002D03*
X90600000Y-96445002D03*
%TD*%
D50*
%TO.C,C15*%
X94386538Y-87653688D03*
X95273462Y-87286312D03*
%TD*%
D91*
%TO.C,R45*%
X105745169Y-74678821D03*
X105354831Y-75621179D03*
%TD*%
D51*
%TO.C,R7*%
X107852470Y-118559789D03*
X108242808Y-119502147D03*
%TD*%
D92*
%TO.C,D10*%
X114588728Y-95611100D03*
D93*
X115848533Y-94602195D03*
D94*
X114864765Y-92357824D03*
D95*
X113604959Y-93366730D03*
%TD*%
D96*
%TO.C,D3*%
X88190381Y-109588299D03*
D97*
X87412563Y-111002513D03*
D98*
X89180330Y-112699569D03*
D99*
X89958148Y-111285355D03*
%TD*%
D47*
%TO.C,C69*%
X125820871Y-110515757D03*
X125453495Y-111402681D03*
%TD*%
D73*
%TO.C,C33*%
X107434996Y-99199998D03*
X106474996Y-99199998D03*
%TD*%
D54*
%TO.C,R43*%
X90300000Y-73010000D03*
X90300000Y-71990000D03*
%TD*%
D34*
%TO.C,C10*%
X113530000Y-99590000D03*
X113530000Y-100550000D03*
%TD*%
D71*
%TO.C,R21*%
X126679541Y-113574555D03*
X125737183Y-113184217D03*
%TD*%
D100*
%TO.C,J4*%
X77100000Y-96250000D03*
X77100000Y-96750000D03*
X77100000Y-97250000D03*
X77100000Y-97750000D03*
X77100000Y-98250000D03*
X77100000Y-98750000D03*
X77100000Y-99250000D03*
X77100000Y-99750000D03*
X77100000Y-100250000D03*
X77100000Y-100750000D03*
X77100000Y-101250000D03*
X77100000Y-101750000D03*
X77100000Y-102250000D03*
X77100000Y-102750000D03*
X77100000Y-103250000D03*
X77100000Y-103750000D03*
D101*
X74290000Y-95365000D03*
X74290000Y-104635000D03*
%TD*%
D10*
%TO.C,R8*%
X115095169Y-123871179D03*
X114704831Y-122928821D03*
%TD*%
D37*
%TO.C,R13*%
X102102502Y-92900002D03*
X103122502Y-92900002D03*
%TD*%
%TO.C,R49*%
X90190002Y-94344999D03*
X91210002Y-94344999D03*
%TD*%
D65*
%TO.C,C75*%
X89140000Y-97395001D03*
X89140000Y-96435001D03*
%TD*%
D34*
%TO.C,C29*%
X104062499Y-100174999D03*
X104062499Y-101134999D03*
%TD*%
D71*
%TO.C,R44*%
X112950000Y-70550000D03*
X112007642Y-70159662D03*
%TD*%
D102*
%TO.C,U8*%
X104050000Y-97724999D03*
X104050000Y-96374999D03*
X102700000Y-97724999D03*
X102700000Y-96374999D03*
D103*
X105337500Y-98299999D03*
X105337500Y-97799999D03*
X105337500Y-97299999D03*
X105337500Y-96799999D03*
X105337500Y-96299999D03*
X105337500Y-95799999D03*
D104*
X104625000Y-95087499D03*
X104125000Y-95087499D03*
X103625000Y-95087499D03*
X103125000Y-95087499D03*
X102625000Y-95087499D03*
X102125000Y-95087499D03*
D103*
X101412500Y-95799999D03*
X101412500Y-96299999D03*
X101412500Y-96799999D03*
X101412500Y-97299999D03*
X101412500Y-97799999D03*
X101412500Y-98299999D03*
D104*
X102125000Y-99012499D03*
X102625000Y-99012499D03*
X103125000Y-99012499D03*
X103625000Y-99012499D03*
X104125000Y-99012499D03*
X104625000Y-99012499D03*
%TD*%
D105*
%TO.C,D1*%
X84850000Y-98500000D03*
D106*
X83300000Y-98950000D03*
D107*
X83350000Y-101400000D03*
D108*
X84900000Y-100950000D03*
%TD*%
D43*
%TO.C,C11*%
X112336312Y-94456538D03*
X112703688Y-95343462D03*
%TD*%
D109*
%TO.C,C1*%
X87332624Y-95186924D03*
X87700000Y-94300000D03*
%TD*%
D22*
%TO.C,D5*%
X98500000Y-115150000D03*
D23*
X98950000Y-116700000D03*
D24*
X101400000Y-116650000D03*
D25*
X100950000Y-115100000D03*
%TD*%
D65*
%TO.C,C19*%
X97366666Y-109877370D03*
X97366666Y-108917370D03*
%TD*%
D37*
%TO.C,R20*%
X78590000Y-98500000D03*
X79610000Y-98500000D03*
%TD*%
D10*
%TO.C,R5*%
X107473439Y-126921323D03*
X107083101Y-125978965D03*
%TD*%
D38*
%TO.C,C24*%
X108943522Y-123205928D03*
X108056598Y-123573304D03*
%TD*%
D110*
%TO.C,C4*%
X90668822Y-109808822D03*
X89990000Y-109130000D03*
%TD*%
D54*
%TO.C,R16*%
X106512501Y-96399998D03*
X106512501Y-95379998D03*
%TD*%
D48*
%TO.C,Q2*%
X113170314Y-125981080D03*
X113897412Y-127736451D03*
X115266137Y-126141234D03*
%TD*%
D111*
%TO.C,U2*%
X105979322Y-122268956D03*
X105596639Y-121345077D03*
X106441262Y-122077614D03*
X106249920Y-121615675D03*
X106058579Y-121153735D03*
X106903202Y-121886273D03*
X106711860Y-121424333D03*
X106520518Y-120962393D03*
X107365141Y-121694931D03*
X107173800Y-121232991D03*
X107827081Y-121503589D03*
X107635740Y-121041650D03*
X107444398Y-120579710D03*
%TD*%
D112*
%TO.C,U6*%
X90904668Y-68888910D03*
X89657431Y-69405533D03*
X89982712Y-70190830D03*
X91229949Y-69674207D03*
D113*
X90912477Y-70671622D03*
D114*
X88849998Y-70199999D03*
X92037382Y-68879741D03*
D113*
X89974903Y-68408118D03*
%TD*%
D44*
%TO.C,C66*%
X110255359Y-69432624D03*
X111142283Y-69800000D03*
%TD*%
D54*
%TO.C,R17*%
X107512503Y-98270001D03*
X107512503Y-97250001D03*
%TD*%
D115*
%TO.C,R1*%
X103489376Y-91260624D03*
X104210624Y-90539376D03*
%TD*%
D105*
%TO.C,D9*%
X115150000Y-101450000D03*
D106*
X116700000Y-101000000D03*
D107*
X116650000Y-98550000D03*
D108*
X115100000Y-99000000D03*
%TD*%
D15*
%TO.C,L2*%
X101812502Y-102000001D03*
X99012502Y-102000001D03*
%TD*%
D116*
%TO.C,U3*%
X80174025Y-93074728D03*
X81051711Y-93438277D03*
X81929396Y-93801826D03*
X82800001Y-91700000D03*
X81922315Y-91336451D03*
X81044630Y-90972902D03*
%TD*%
D50*
%TO.C,C22*%
X108420147Y-124450990D03*
X109307071Y-124083614D03*
%TD*%
D117*
%TO.C,D11*%
X111759619Y-90361701D03*
D118*
X112537437Y-88947487D03*
D119*
X110769670Y-87250431D03*
D120*
X109991852Y-88664645D03*
%TD*%
D54*
%TO.C,R2*%
X75750000Y-94360000D03*
X75750000Y-93340000D03*
%TD*%
D32*
%TO.C,C3*%
X87617376Y-105516924D03*
X87250000Y-104630000D03*
%TD*%
D121*
%TO.C,D2*%
X85411272Y-104388900D03*
D122*
X84151467Y-105397805D03*
D123*
X85135235Y-107642176D03*
D124*
X86395041Y-106633270D03*
%TD*%
D44*
%TO.C,C65*%
X116225000Y-71925000D03*
X117111924Y-72292376D03*
%TD*%
D37*
%TO.C,R3*%
X103102502Y-93900000D03*
X104122502Y-93900000D03*
%TD*%
D35*
%TO.C,C18*%
X96387254Y-111517650D03*
X97347254Y-111517650D03*
%TD*%
D50*
%TO.C,C25*%
X106880035Y-123032380D03*
X107766959Y-122665004D03*
%TD*%
M02*
