M48
; DRILL file {KiCad 7.0.8} date So 15 Okt 2023 21:23:48 CEST
; FORMAT={-:-/ absolute / metric / decimal}
; #@! TF.CreationDate,2023-10-15T21:23:48+02:00
; #@! TF.GenerationSoftware,Kicad,Pcbnew,7.0.8
; #@! TF.FileFunction,NonPlated,1,4,NPTH
FMAT,2
METRIC
; #@! TA.AperFunction,NonPlated,NPTH,ComponentDrill
T1C0.550
; #@! TA.AperFunction,NonPlated,NPTH,ComponentDrill
T2C1.152
; #@! TA.AperFunction,NonPlated,NPTH,ComponentDrill
T3C2.100
; #@! TA.AperFunction,NonPlated,NPTH,ComponentDrill
T4C2.500
%
G90
G05
T1
X71.747Y-119.259
X72.196Y-119.859
X72.645Y-120.46
X73.095Y-121.06
X73.246Y-78.633
X73.574Y-121.701
X73.743Y-78.071
X74.023Y-122.301
X74.273Y-77.472
X74.77Y-76.91
X75.267Y-76.348
X75.764Y-75.787
X119.23Y-128.584
X119.825Y-128.127
X120.46Y-127.64
X121.055Y-127.183
X121.65Y-126.727
X122.245Y-126.27
X125.542Y-104.761
X126.278Y-104.904
X127.064Y-105.057
X127.8Y-105.2
X128.536Y-105.343
X129.272Y-105.486
T2
X66.0Y-62.0
X66.0Y-138.0
X89.0Y-130.5
X106.8Y-68.75
X134.0Y-62.0
X134.0Y-138.5
T3
X89.181Y-78.999
X121.001Y-110.819
T4
X82.75Y-78.75
X82.75Y-121.3
X84.09Y-84.09
X115.91Y-115.91
X117.25Y-121.3
T0
M30
