%TF.GenerationSoftware,KiCad,Pcbnew,7.0.8*%
%TF.CreationDate,2023-10-15T21:23:35+02:00*%
%TF.ProjectId,blinkekatze,626c696e-6b65-46b6-9174-7a652e6b6963,rev?*%
%TF.SameCoordinates,Original*%
%TF.FileFunction,Profile,NP*%
%FSLAX46Y46*%
G04 Gerber Fmt 4.6, Leading zero omitted, Abs format (unit mm)*
G04 Created by KiCad (PCBNEW 7.0.8) date 2023-10-15 21:23:35*
%MOMM*%
%LPD*%
G01*
G04 APERTURE LIST*
%TA.AperFunction,Profile*%
%ADD10C,0.100000*%
%TD*%
G04 APERTURE END LIST*
D10*
X74402924Y-122775691D02*
G75*
G03*
X79716270Y-127605073I25571776J22796791D01*
G01*
X72400000Y-106000000D02*
X66250000Y-106000000D01*
X117869778Y-103394261D02*
G75*
G03*
X113400000Y-87700000I-17869778J3394261D01*
G01*
X122439998Y-71230002D02*
G75*
G03*
X74580000Y-73800000I-22457918J-28698938D01*
G01*
X124950000Y-104780000D02*
X125330000Y-102820000D01*
X122744435Y-125836906D02*
X124090000Y-127420000D01*
X71160001Y-77640001D02*
G75*
G03*
X69520000Y-120080000I28836479J-22366009D01*
G01*
X71334913Y-118777084D02*
X69520000Y-120080000D01*
X76214849Y-75315410D02*
X74580000Y-73800000D01*
X72400000Y-94000000D02*
X66250000Y-94000000D01*
X115699999Y-87300001D02*
X122440000Y-71230000D01*
X86925000Y-70375000D02*
X85588991Y-68651039D01*
X120113073Y-101801171D02*
G75*
G03*
X115699998Y-87300002I-20113073J1801171D01*
G01*
X113400000Y-87700000D02*
X120000000Y-71900000D01*
X81625000Y-74650000D02*
X79921826Y-72216383D01*
X129860000Y-105740000D02*
X130260000Y-103790000D01*
X72400000Y-94000000D02*
X72400000Y-106000000D01*
X58500000Y-58500000D02*
X141500000Y-58500000D01*
X141500000Y-141500000D01*
X58500000Y-141500000D01*
X58500000Y-58500000D01*
X125330000Y-102820000D02*
X120113066Y-101801170D01*
X72610000Y-124110001D02*
G75*
G03*
X119939999Y-130569999I27389490J24057951D01*
G01*
X81775100Y-125076015D02*
X79716270Y-127605074D01*
X87299986Y-129299993D02*
G75*
G03*
X81775100Y-125076015I-3004186J1795793D01*
G01*
X74402927Y-122775688D02*
X72610000Y-124110000D01*
X130260000Y-103790000D02*
X136043297Y-104906911D01*
X79921826Y-72216384D02*
G75*
G03*
X76214849Y-75315410I20078174J-27783616D01*
G01*
X124089997Y-127419997D02*
G75*
G03*
X136043297Y-104906911I-23500147J26907217D01*
G01*
X117869769Y-103394259D02*
X124950000Y-104780000D01*
X85894507Y-131412237D02*
G75*
G03*
X118700277Y-128900425I14093743J31414687D01*
G01*
X72905396Y-79104196D02*
G75*
G03*
X66250001Y-94000000I26994604J-20995804D01*
G01*
X87299999Y-129300000D02*
X85894507Y-131412239D01*
X119999999Y-71900001D02*
G75*
G03*
X85588991Y-68651040I-20011749J-28097549D01*
G01*
X72905396Y-79104196D02*
X71160000Y-77640000D01*
X118700277Y-128900426D02*
X119940000Y-130570000D01*
X81625000Y-74650000D02*
G75*
G03*
X86925000Y-70375000I2650000J2137500D01*
G01*
X129860000Y-105740000D02*
X133800000Y-106500000D01*
X66250014Y-105999998D02*
G75*
G03*
X71334913Y-118777084I33724786J6021098D01*
G01*
X122744436Y-125836908D02*
G75*
G03*
X133799999Y-106500000I-22756176J25839348D01*
G01*
M02*
