%TF.GenerationSoftware,KiCad,Pcbnew,7.0.8*%
%TF.CreationDate,2023-10-15T21:23:35+02:00*%
%TF.ProjectId,blinkekatze,626c696e-6b65-46b6-9174-7a652e6b6963,rev?*%
%TF.SameCoordinates,Original*%
%TF.FileFunction,Soldermask,Bot*%
%TF.FilePolarity,Negative*%
%FSLAX46Y46*%
G04 Gerber Fmt 4.6, Leading zero omitted, Abs format (unit mm)*
G04 Created by KiCad (PCBNEW 7.0.8) date 2023-10-15 21:23:35*
%MOMM*%
%LPD*%
G01*
G04 APERTURE LIST*
G04 Aperture macros list*
%AMHorizOval*
0 Thick line with rounded ends*
0 $1 width*
0 $2 $3 position (X,Y) of the first rounded end (center of the circle)*
0 $4 $5 position (X,Y) of the second rounded end (center of the circle)*
0 Add line between two ends*
20,1,$1,$2,$3,$4,$5,0*
0 Add two circle primitives to create the rounded ends*
1,1,$1,$2,$3*
1,1,$1,$4,$5*%
%AMRotRect*
0 Rectangle, with rotation*
0 The origin of the aperture is its center*
0 $1 length*
0 $2 width*
0 $3 Rotation angle, in degrees counterclockwise*
0 Add horizontal line*
21,1,$1,$2,0,0,$3*%
G04 Aperture macros list end*
%ADD10R,1.700000X1.700000*%
%ADD11O,1.700000X1.700000*%
%ADD12C,2.500000*%
%ADD13C,0.550000*%
%ADD14C,2.100000*%
%ADD15C,1.152000*%
%ADD16RotRect,1.700000X1.700000X145.000000*%
%ADD17HorizOval,1.700000X0.000000X0.000000X0.000000X0.000000X0*%
%ADD18C,3.000000*%
G04 APERTURE END LIST*
D10*
%TO.C,J2*%
X92600000Y-78030000D03*
D11*
X92600000Y-75490000D03*
X92600000Y-72950000D03*
%TD*%
D12*
%TO.C,H3*%
X84090097Y-84090097D03*
%TD*%
D13*
%TO.C,REF\u002A\u002A*%
X74023120Y-122301408D03*
X73573853Y-121700859D03*
X73094634Y-121060274D03*
X72645366Y-120459726D03*
X72196098Y-119859177D03*
X71746831Y-119258629D03*
%TD*%
%TO.C,REF\u002A\u002A*%
X73245973Y-78632598D03*
X73742938Y-78070881D03*
X74273034Y-77471716D03*
X74770000Y-76910000D03*
X75266965Y-76348283D03*
X75763930Y-75786566D03*
%TD*%
D14*
%TO.C,H2*%
X121001169Y-110818831D03*
%TD*%
D12*
%TO.C,H9*%
X82750000Y-121300000D03*
%TD*%
%TO.C,H8*%
X117250000Y-121300000D03*
%TD*%
D10*
%TO.C,J1*%
X68850000Y-107900000D03*
D11*
X71390000Y-107900000D03*
%TD*%
D15*
%TO.C,REF\u002A\u002A*%
X134000000Y-138500000D03*
%TD*%
%TO.C,REF\u002A\u002A*%
X66000000Y-62000000D03*
%TD*%
%TO.C,REF\u002A\u002A*%
X134000000Y-62000000D03*
%TD*%
D14*
%TO.C,H1*%
X89181266Y-78998928D03*
%TD*%
D13*
%TO.C,REF\u002A\u002A*%
X125542258Y-104761140D03*
X126278478Y-104904246D03*
X127063780Y-105056894D03*
X127800000Y-105200000D03*
X128536221Y-105343107D03*
X129272441Y-105486214D03*
%TD*%
%TO.C,REF\u002A\u002A*%
X119230303Y-128583580D03*
X119825318Y-128127009D03*
X120460000Y-127640000D03*
X121055016Y-127183428D03*
X121650031Y-126726857D03*
X122245046Y-126270286D03*
%TD*%
D12*
%TO.C,H4*%
X115910000Y-115910000D03*
%TD*%
%TO.C,H7*%
X82750000Y-78750000D03*
%TD*%
D16*
%TO.C,J3*%
X125502981Y-120868127D03*
D17*
X126959865Y-118787481D03*
X128416749Y-116706835D03*
%TD*%
D15*
%TO.C,H5*%
X89000000Y-130500000D03*
%TD*%
%TO.C,H6*%
X106800000Y-68750000D03*
%TD*%
%TO.C,REF\u002A\u002A*%
X66000000Y-138000000D03*
%TD*%
D18*
%TO.C,BTT2*%
X102500000Y-123000000D03*
X97500000Y-123000000D03*
X100000000Y-130600000D03*
%TD*%
%TO.C,BTT1*%
X97500000Y-77000000D03*
X102500000Y-77000000D03*
X100000000Y-69400000D03*
%TD*%
M02*
