M48
; DRILL file {KiCad 7.0.8} date So 15 Okt 2023 21:23:48 CEST
; FORMAT={-:-/ absolute / metric / decimal}
; #@! TF.CreationDate,2023-10-15T21:23:48+02:00
; #@! TF.GenerationSoftware,Kicad,Pcbnew,7.0.8
; #@! TF.FileFunction,Plated,1,4,PTH
FMAT,2
METRIC
; #@! TA.AperFunction,Plated,PTH,ViaDrill
T1C0.200
; #@! TA.AperFunction,Plated,PTH,ViaDrill
T2C0.300
; #@! TA.AperFunction,Plated,PTH,ComponentDrill
T3C0.300
; #@! TA.AperFunction,Plated,PTH,ComponentDrill
T4C1.000
; #@! TA.AperFunction,Plated,PTH,ComponentDrill
T5C1.800
%
G90
G05
T1
X73.45Y-95.35
X73.49Y-104.665
X73.94Y-104.215
X73.95Y-95.8
X74.64Y-104.215
X74.65Y-95.8
X75.1Y-95.35
X75.14Y-104.665
X76.45Y-96.25
X76.45Y-97.75
X76.45Y-98.25
X76.45Y-103.25
X76.45Y-103.75
X76.9Y-105.1
X78.2Y-100.9
X78.2Y-102.6
X78.2Y-103.4
X78.8Y-100.9
X78.8Y-102.6
X78.8Y-103.4
X79.4Y-100.9
X79.4Y-102.6
X79.4Y-103.4
X81.15Y-92.15
X81.3Y-96.8
X81.3Y-97.75
X81.3Y-98.7
X81.9Y-92.6
X82.0Y-96.8
X82.0Y-97.75
X82.0Y-98.7
X82.4Y-95.55
X82.8Y-96.05
X87.05Y-99.45
X87.8Y-97.05
X87.8Y-97.85
X87.8Y-98.65
X88.4Y-69.05
X89.45Y-72.3
X90.3Y-73.55
X93.45Y-67.4
X95.85Y-88.4
X96.35Y-115.575
X96.85Y-88.4
X101.45Y-110.25
X102.6Y-87.2
X102.667Y-112.325
X103.2Y-87.8
X103.35Y-111.483
X103.65Y-89.8
X103.75Y-100.5
X103.8Y-81.0
X104.5Y-89.7
X104.6Y-91.65
X105.7Y-90.95
X105.7Y-89.3
X105.7Y-92.2
X106.2Y-125.85
X106.3Y-83.45
X106.3Y-92.9
X106.475Y-71.95
X106.5Y-78.6
X106.9Y-77.7
X107.1Y-83.25
X107.15Y-72.175
X107.5Y-76.6
X108.0Y-81.0
X108.5Y-80.5
X109.1Y-80.2
X109.2Y-88.85
X109.675Y-69.175
X109.8Y-82.5
X109.8Y-85.8
X110.4Y-92.8
X111.1Y-83.0
X111.5Y-92.8
X111.8Y-107.29
X113.0Y-91.95
X113.5Y-70.8
X115.1Y-97.5
X124.1Y-111.1
X124.896Y-111.166
X125.221Y-110.266
X127.196Y-113.791
X127.596Y-109.016
X128.496Y-109.391
X128.721Y-112.041
T2
X86.436Y-100.964
X87.095Y-104.137
X87.1Y-95.7
X87.838Y-106.081
X87.95Y-93.8
X89.661Y-108.76
X89.727Y-91.091
X89.75Y-67.95
X91.091Y-110.273
X91.1Y-71.05
X91.24Y-89.661
X91.49Y-94.895
X92.3Y-67.15
X93.1Y-69.05
X93.8Y-112.05
X93.919Y-87.838
X95.7Y-112.9
X95.863Y-87.095
X96.354Y-110.926
X96.796Y-108.945
X97.25Y-90.8
X98.425Y-96.5
X98.85Y-78.85
X98.85Y-79.55
X98.85Y-80.25
X98.883Y-113.505
X99.025Y-96.45
X99.036Y-86.436
X99.25Y-95.25
X99.587Y-93.6
X99.925Y-95.175
X100.157Y-108.28
X100.262Y-93.6
X100.3Y-99.65
X100.55Y-95.25
X100.675Y-78.95
X100.675Y-79.65
X100.675Y-80.35
X100.7Y-99.05
X100.7Y-98.35
X100.964Y-113.564
X101.117Y-86.495
X101.125Y-94.45
X101.2Y-99.45
X101.3Y-98.65
X101.325Y-111.47
X101.4Y-95.15
X102.275Y-98.15
X102.275Y-97.05
X102.275Y-95.95
X102.667Y-116.637
X103.35Y-117.15
X103.375Y-98.15
X103.375Y-95.95
X103.375Y-97.05
X103.55Y-92.475
X104.0Y-130.25
X104.025Y-93.063
X104.075Y-101.65
X104.137Y-112.905
X104.3Y-87.1
X104.475Y-97.05
X104.475Y-98.15
X104.475Y-95.95
X104.6Y-92.6
X104.625Y-93.9
X105.1Y-98.85
X105.45Y-101.85
X105.725Y-98.825
X105.85Y-99.625
X106.025Y-101.6
X106.081Y-112.162
X106.094Y-100.55
X106.2Y-87.95
X106.3Y-91.6
X106.35Y-128.25
X106.437Y-101.125
X106.45Y-99.8
X106.75Y-127.85
X106.85Y-128.7
X106.85Y-129.4
X106.9Y-122.35
X107.025Y-95.75
X107.075Y-99.7
X107.225Y-101.7
X107.275Y-72.825
X107.4Y-129.35
X107.5Y-122.1
X107.994Y-101.15
X108.0Y-99.2
X108.0Y-100.325
X108.4Y-121.4
X108.45Y-118.3
X108.76Y-110.339
X108.909Y-89.727
X109.05Y-77.85
X109.275Y-69.625
X109.575Y-79.15
X109.65Y-120.9
X109.825Y-76.025
X110.273Y-108.909
X110.339Y-91.24
X110.35Y-77.3
X110.875Y-78.6
X111.1Y-75.475
X111.625Y-76.775
X112.05Y-106.2
X112.162Y-93.919
X112.725Y-79.375
X112.9Y-104.3
X112.905Y-95.863
X113.35Y-83.725
X113.475Y-77.525
X113.505Y-101.117
X113.564Y-99.036
X113.576Y-128.457
X113.65Y-83.0
X113.75Y-84.475
X113.95Y-82.25
X114.176Y-128.257
X114.275Y-81.525
X114.575Y-80.775
X114.676Y-128.007
X114.8Y-127.3
X114.875Y-80.025
X115.175Y-79.3
X115.35Y-124.35
X115.5Y-78.575
X115.725Y-71.7
X115.8Y-77.825
X116.125Y-77.1
X116.2Y-74.125
X116.425Y-76.35
X116.45Y-71.4
X116.725Y-75.625
X116.925Y-74.425
X117.35Y-71.775
X117.6Y-72.5
X117.8Y-74.65
T3
X90.7Y-97.845
X91.6Y-97.345
X91.6Y-98.345
X92.5Y-97.845
T4
X68.85Y-107.9
X71.39Y-107.9
X92.6Y-72.95
X92.6Y-75.49
X92.6Y-78.03
X125.503Y-120.868
X126.96Y-118.787
X128.417Y-116.707
T5
X97.5Y-77.0
X97.5Y-123.0
X100.0Y-69.4
X100.0Y-130.6
X102.5Y-77.0
X102.5Y-123.0
T0
M30
