%TF.GenerationSoftware,KiCad,Pcbnew,7.0.8*%
%TF.CreationDate,2023-10-15T21:47:16+02:00*%
%TF.ProjectId,usb-board,7573622d-626f-4617-9264-2e6b69636164,rev?*%
%TF.SameCoordinates,Original*%
%TF.FileFunction,Legend,Bot*%
%TF.FilePolarity,Positive*%
%FSLAX46Y46*%
G04 Gerber Fmt 4.6, Leading zero omitted, Abs format (unit mm)*
G04 Created by KiCad (PCBNEW 7.0.8) date 2023-10-15 21:47:16*
%MOMM*%
%LPD*%
G01*
G04 APERTURE LIST*
%ADD10C,0.150000*%
G04 APERTURE END LIST*
D10*
G36*
X94357571Y-97155000D02*
G01*
X94984054Y-97155000D01*
X94984054Y-97047777D01*
X94743719Y-96786926D01*
X94734153Y-96776614D01*
X94724780Y-96766469D01*
X94715600Y-96756492D01*
X94706613Y-96746683D01*
X94697820Y-96737041D01*
X94689219Y-96727566D01*
X94680812Y-96718259D01*
X94672599Y-96709119D01*
X94664578Y-96700147D01*
X94656750Y-96691342D01*
X94651639Y-96685565D01*
X94644145Y-96676975D01*
X94636865Y-96668423D01*
X94629799Y-96659910D01*
X94622949Y-96651436D01*
X94616312Y-96643000D01*
X94609891Y-96634603D01*
X94603684Y-96626245D01*
X94597692Y-96617925D01*
X94591915Y-96609644D01*
X94586352Y-96601401D01*
X94582763Y-96595928D01*
X94575829Y-96584933D01*
X94569314Y-96573931D01*
X94563220Y-96562920D01*
X94557545Y-96551903D01*
X94552290Y-96540878D01*
X94547455Y-96529845D01*
X94543039Y-96518804D01*
X94539043Y-96507756D01*
X94535494Y-96496582D01*
X94532418Y-96485163D01*
X94529816Y-96473501D01*
X94527686Y-96461594D01*
X94526030Y-96449443D01*
X94524847Y-96437048D01*
X94524137Y-96424408D01*
X94523900Y-96411524D01*
X94524084Y-96401659D01*
X94524828Y-96389746D01*
X94526144Y-96378299D01*
X94528033Y-96367316D01*
X94530495Y-96356799D01*
X94533529Y-96346746D01*
X94535624Y-96340938D01*
X94539532Y-96331548D01*
X94543929Y-96322610D01*
X94548815Y-96314126D01*
X94555324Y-96304544D01*
X94562537Y-96295613D01*
X94569085Y-96288670D01*
X94577429Y-96280988D01*
X94586339Y-96274061D01*
X94595816Y-96267890D01*
X94605859Y-96262475D01*
X94616469Y-96257815D01*
X94620132Y-96256430D01*
X94629534Y-96253264D01*
X94639271Y-96250634D01*
X94649341Y-96248541D01*
X94659745Y-96246985D01*
X94670483Y-96245965D01*
X94681555Y-96245482D01*
X94686078Y-96245439D01*
X94698193Y-96245671D01*
X94710086Y-96246366D01*
X94721755Y-96247526D01*
X94733201Y-96249149D01*
X94744424Y-96251235D01*
X94755424Y-96253785D01*
X94766200Y-96256799D01*
X94776753Y-96260277D01*
X94787083Y-96264218D01*
X94797189Y-96268623D01*
X94803803Y-96271817D01*
X94813604Y-96276846D01*
X94823314Y-96282133D01*
X94832935Y-96287677D01*
X94842466Y-96293479D01*
X94851906Y-96299538D01*
X94861256Y-96305855D01*
X94870516Y-96312429D01*
X94879686Y-96319262D01*
X94888766Y-96326351D01*
X94897755Y-96333699D01*
X94903698Y-96338740D01*
X94973796Y-96256919D01*
X94965075Y-96249287D01*
X94956164Y-96241811D01*
X94947063Y-96234489D01*
X94937770Y-96227323D01*
X94928286Y-96220312D01*
X94918612Y-96213456D01*
X94914689Y-96210757D01*
X94904724Y-96204113D01*
X94894520Y-96197767D01*
X94884078Y-96191719D01*
X94873397Y-96185970D01*
X94862477Y-96180518D01*
X94853570Y-96176372D01*
X94846789Y-96173387D01*
X94837627Y-96169522D01*
X94828334Y-96165862D01*
X94818911Y-96162408D01*
X94809359Y-96159160D01*
X94799677Y-96156119D01*
X94789866Y-96153283D01*
X94779924Y-96150654D01*
X94769853Y-96148230D01*
X94759652Y-96146055D01*
X94749321Y-96144170D01*
X94738861Y-96142575D01*
X94728271Y-96141270D01*
X94717551Y-96140254D01*
X94706701Y-96139529D01*
X94695721Y-96139094D01*
X94684612Y-96138949D01*
X94672359Y-96139112D01*
X94660329Y-96139602D01*
X94648522Y-96140418D01*
X94636939Y-96141560D01*
X94625579Y-96143028D01*
X94614442Y-96144823D01*
X94603528Y-96146943D01*
X94592838Y-96149391D01*
X94582371Y-96152164D01*
X94572127Y-96155264D01*
X94565422Y-96157512D01*
X94555580Y-96161090D01*
X94546022Y-96164956D01*
X94536747Y-96169110D01*
X94527755Y-96173552D01*
X94519047Y-96178281D01*
X94510622Y-96183297D01*
X94499829Y-96190434D01*
X94489540Y-96198082D01*
X94479755Y-96206241D01*
X94475052Y-96210512D01*
X94466034Y-96219416D01*
X94457543Y-96228785D01*
X94449578Y-96238619D01*
X94442140Y-96248920D01*
X94435229Y-96259685D01*
X94428844Y-96270917D01*
X94424401Y-96279646D01*
X94420255Y-96288637D01*
X94417655Y-96294776D01*
X94414032Y-96304184D01*
X94410765Y-96313816D01*
X94407855Y-96323670D01*
X94405301Y-96333748D01*
X94403104Y-96344049D01*
X94401263Y-96354574D01*
X94399778Y-96365321D01*
X94398650Y-96376292D01*
X94397878Y-96387486D01*
X94397462Y-96398904D01*
X94397383Y-96406639D01*
X94397544Y-96417535D01*
X94398027Y-96428332D01*
X94398832Y-96439030D01*
X94399959Y-96449630D01*
X94401408Y-96460131D01*
X94403179Y-96470533D01*
X94405272Y-96480836D01*
X94407687Y-96491041D01*
X94410424Y-96501146D01*
X94413483Y-96511153D01*
X94415701Y-96517770D01*
X94419212Y-96527647D01*
X94422968Y-96537493D01*
X94426969Y-96547310D01*
X94431214Y-96557097D01*
X94435704Y-96566853D01*
X94440439Y-96576580D01*
X94445419Y-96586276D01*
X94450643Y-96595943D01*
X94456112Y-96605579D01*
X94461826Y-96615186D01*
X94465771Y-96621573D01*
X94471879Y-96631105D01*
X94478207Y-96640650D01*
X94484754Y-96650207D01*
X94491519Y-96659778D01*
X94498504Y-96669361D01*
X94505707Y-96678958D01*
X94513130Y-96688567D01*
X94520771Y-96698189D01*
X94528631Y-96707824D01*
X94536711Y-96717472D01*
X94542219Y-96723911D01*
X94550572Y-96733564D01*
X94559054Y-96743291D01*
X94567665Y-96753091D01*
X94576405Y-96762963D01*
X94585274Y-96772909D01*
X94594271Y-96782927D01*
X94603397Y-96793018D01*
X94612652Y-96803183D01*
X94622036Y-96813420D01*
X94631549Y-96823731D01*
X94637962Y-96830645D01*
X94830914Y-97035565D01*
X94830914Y-97040938D01*
X94357571Y-97040938D01*
X94357571Y-97155000D01*
G37*
G36*
X93897682Y-96138983D02*
G01*
X93908318Y-96139256D01*
X93918752Y-96139802D01*
X93928984Y-96140621D01*
X93939013Y-96141712D01*
X93948840Y-96143076D01*
X93963201Y-96145634D01*
X93977107Y-96148807D01*
X93990558Y-96152593D01*
X94003554Y-96156992D01*
X94016095Y-96162006D01*
X94028180Y-96167634D01*
X94039811Y-96173876D01*
X94047296Y-96178364D01*
X94058197Y-96185554D01*
X94068708Y-96193293D01*
X94078828Y-96201582D01*
X94088558Y-96210421D01*
X94097896Y-96219809D01*
X94106844Y-96229747D01*
X94115402Y-96240234D01*
X94123568Y-96251270D01*
X94131344Y-96262857D01*
X94138729Y-96274993D01*
X94141091Y-96279158D01*
X94147934Y-96292006D01*
X94152296Y-96300861D01*
X94156498Y-96309950D01*
X94160540Y-96319271D01*
X94164421Y-96328825D01*
X94168142Y-96338612D01*
X94171702Y-96348632D01*
X94175103Y-96358884D01*
X94178343Y-96369369D01*
X94181422Y-96380088D01*
X94184342Y-96391038D01*
X94187101Y-96402222D01*
X94189700Y-96413639D01*
X94192138Y-96425288D01*
X94194417Y-96437170D01*
X94196517Y-96449267D01*
X94198481Y-96461564D01*
X94200310Y-96474058D01*
X94202004Y-96486751D01*
X94203562Y-96499643D01*
X94204984Y-96512732D01*
X94206271Y-96526021D01*
X94207423Y-96539508D01*
X94208439Y-96553193D01*
X94209319Y-96567076D01*
X94210065Y-96581159D01*
X94210674Y-96595439D01*
X94211148Y-96609918D01*
X94211487Y-96624596D01*
X94211690Y-96639472D01*
X94211758Y-96654546D01*
X94211682Y-96669591D01*
X94211453Y-96684439D01*
X94211071Y-96699091D01*
X94210537Y-96713546D01*
X94209850Y-96727804D01*
X94209010Y-96741867D01*
X94208018Y-96755732D01*
X94206873Y-96769401D01*
X94205576Y-96782874D01*
X94204125Y-96796150D01*
X94202523Y-96809229D01*
X94200767Y-96822112D01*
X94198859Y-96834798D01*
X94196798Y-96847288D01*
X94194585Y-96859581D01*
X94192219Y-96871678D01*
X94190978Y-96877648D01*
X94188379Y-96889418D01*
X94185624Y-96900958D01*
X94182712Y-96912270D01*
X94179643Y-96923352D01*
X94176419Y-96934206D01*
X94173037Y-96944830D01*
X94169500Y-96955226D01*
X94165806Y-96965393D01*
X94161955Y-96975330D01*
X94157948Y-96985039D01*
X94153784Y-96994519D01*
X94149464Y-97003769D01*
X94144988Y-97012791D01*
X94140355Y-97021584D01*
X94133112Y-97034344D01*
X94128086Y-97042525D01*
X94120246Y-97054335D01*
X94112046Y-97065591D01*
X94103485Y-97076294D01*
X94094563Y-97086443D01*
X94085281Y-97096038D01*
X94075638Y-97105079D01*
X94065635Y-97113566D01*
X94055271Y-97121499D01*
X94044546Y-97128879D01*
X94033461Y-97135704D01*
X94029685Y-97137853D01*
X94018112Y-97143890D01*
X94006169Y-97149313D01*
X93993857Y-97154123D01*
X93981176Y-97158318D01*
X93968126Y-97161899D01*
X93954706Y-97164867D01*
X93940918Y-97167220D01*
X93926760Y-97168960D01*
X93912232Y-97170085D01*
X93902342Y-97170495D01*
X93892288Y-97170631D01*
X93886864Y-97170597D01*
X93876169Y-97170324D01*
X93865678Y-97169778D01*
X93855391Y-97168960D01*
X93845309Y-97167868D01*
X93835430Y-97166504D01*
X93820995Y-97163946D01*
X93807020Y-97160774D01*
X93793504Y-97156988D01*
X93780447Y-97152588D01*
X93767850Y-97147574D01*
X93755712Y-97141946D01*
X93744033Y-97135704D01*
X93736458Y-97131215D01*
X93725424Y-97124020D01*
X93714785Y-97116272D01*
X93704541Y-97107969D01*
X93694692Y-97099113D01*
X93685238Y-97089702D01*
X93676179Y-97079738D01*
X93667515Y-97069220D01*
X93659246Y-97058149D01*
X93651372Y-97046523D01*
X93643893Y-97034344D01*
X93639123Y-97025894D01*
X93634521Y-97017216D01*
X93630086Y-97008309D01*
X93625819Y-96999173D01*
X93621721Y-96989807D01*
X93617790Y-96980213D01*
X93614027Y-96970390D01*
X93610432Y-96960338D01*
X93607005Y-96950057D01*
X93603746Y-96939547D01*
X93600655Y-96928808D01*
X93597732Y-96917840D01*
X93594976Y-96906643D01*
X93592389Y-96895217D01*
X93589969Y-96883562D01*
X93587718Y-96871678D01*
X93585588Y-96859581D01*
X93583596Y-96847288D01*
X93581741Y-96834798D01*
X93580024Y-96822112D01*
X93578444Y-96809229D01*
X93577001Y-96796150D01*
X93575696Y-96782874D01*
X93574528Y-96769401D01*
X93573498Y-96755732D01*
X93572605Y-96741867D01*
X93571849Y-96727804D01*
X93571231Y-96713546D01*
X93570750Y-96699091D01*
X93570407Y-96684439D01*
X93570201Y-96669591D01*
X93570132Y-96654546D01*
X93570135Y-96654057D01*
X93696650Y-96654057D01*
X93696692Y-96666899D01*
X93696818Y-96679535D01*
X93697028Y-96691965D01*
X93697322Y-96704188D01*
X93697699Y-96716206D01*
X93698161Y-96728017D01*
X93698707Y-96739623D01*
X93699337Y-96751022D01*
X93700050Y-96762215D01*
X93700848Y-96773202D01*
X93701729Y-96783983D01*
X93702695Y-96794558D01*
X93703744Y-96804927D01*
X93704878Y-96815090D01*
X93706095Y-96825046D01*
X93707397Y-96834797D01*
X93708761Y-96844342D01*
X93711001Y-96858272D01*
X93713472Y-96871739D01*
X93716175Y-96884742D01*
X93719111Y-96897281D01*
X93722278Y-96909357D01*
X93725677Y-96920969D01*
X93729307Y-96932117D01*
X93733170Y-96942802D01*
X93737264Y-96953023D01*
X93741591Y-96962780D01*
X93744604Y-96969002D01*
X93749322Y-96977966D01*
X93754276Y-96986487D01*
X93761248Y-96997161D01*
X93768640Y-97007049D01*
X93776452Y-97016151D01*
X93784684Y-97024467D01*
X93793336Y-97031997D01*
X93802407Y-97038740D01*
X93804743Y-97040303D01*
X93814396Y-97046058D01*
X93824546Y-97051019D01*
X93835191Y-97055186D01*
X93846333Y-97058560D01*
X93857971Y-97061140D01*
X93870105Y-97062926D01*
X93882735Y-97063918D01*
X93892533Y-97064141D01*
X93905474Y-97063740D01*
X93917919Y-97062538D01*
X93929867Y-97060535D01*
X93941320Y-97057730D01*
X93952277Y-97054123D01*
X93962737Y-97049716D01*
X93972702Y-97044506D01*
X93982170Y-97038496D01*
X93986695Y-97035161D01*
X93995419Y-97027903D01*
X94003708Y-97019858D01*
X94011562Y-97011027D01*
X94018981Y-97001410D01*
X94025965Y-96991007D01*
X94032513Y-96979817D01*
X94037139Y-96970909D01*
X94041521Y-96961559D01*
X94044311Y-96955078D01*
X94048315Y-96944981D01*
X94052100Y-96934433D01*
X94055665Y-96923434D01*
X94059012Y-96911985D01*
X94062140Y-96900084D01*
X94065048Y-96887733D01*
X94067738Y-96874931D01*
X94070209Y-96861678D01*
X94072461Y-96847975D01*
X94074494Y-96833820D01*
X94075736Y-96824102D01*
X94076898Y-96814182D01*
X94077980Y-96804059D01*
X94078982Y-96793734D01*
X94079903Y-96783207D01*
X94080745Y-96772477D01*
X94081506Y-96761545D01*
X94082187Y-96750411D01*
X94082788Y-96739075D01*
X94083309Y-96727536D01*
X94083750Y-96715796D01*
X94084111Y-96703852D01*
X94084391Y-96691707D01*
X94084591Y-96679359D01*
X94084712Y-96666810D01*
X94084752Y-96654057D01*
X94084742Y-96647656D01*
X94084662Y-96635007D01*
X94084501Y-96622562D01*
X94084261Y-96610321D01*
X94083940Y-96598285D01*
X94083540Y-96586452D01*
X94083059Y-96574824D01*
X94082498Y-96563400D01*
X94081857Y-96552180D01*
X94081135Y-96541165D01*
X94080334Y-96530353D01*
X94079452Y-96519746D01*
X94078491Y-96509342D01*
X94077449Y-96499143D01*
X94076327Y-96489148D01*
X94074494Y-96474539D01*
X94073163Y-96465025D01*
X94070984Y-96451140D01*
X94068586Y-96437719D01*
X94065969Y-96424762D01*
X94063133Y-96412268D01*
X94060079Y-96400239D01*
X94056805Y-96388672D01*
X94053312Y-96377570D01*
X94049601Y-96366931D01*
X94045670Y-96356756D01*
X94041521Y-96347044D01*
X94038627Y-96340793D01*
X94034083Y-96331789D01*
X94029293Y-96323230D01*
X94022527Y-96312514D01*
X94015326Y-96302592D01*
X94007689Y-96293463D01*
X93999618Y-96285129D01*
X93991111Y-96277588D01*
X93982170Y-96270840D01*
X93972702Y-96264887D01*
X93962737Y-96259727D01*
X93952277Y-96255362D01*
X93941320Y-96251789D01*
X93929867Y-96249011D01*
X93917919Y-96247027D01*
X93905474Y-96245836D01*
X93892533Y-96245439D01*
X93879531Y-96245836D01*
X93867025Y-96247027D01*
X93855015Y-96249011D01*
X93843501Y-96251789D01*
X93832483Y-96255362D01*
X93821962Y-96259727D01*
X93811936Y-96264887D01*
X93802407Y-96270840D01*
X93795564Y-96275826D01*
X93786808Y-96283169D01*
X93778471Y-96291305D01*
X93770554Y-96300235D01*
X93763057Y-96309959D01*
X93755980Y-96320477D01*
X93750947Y-96328886D01*
X93746151Y-96337742D01*
X93741591Y-96347044D01*
X93738681Y-96353467D01*
X93734509Y-96363488D01*
X93730569Y-96373972D01*
X93726861Y-96384920D01*
X93723385Y-96396332D01*
X93720141Y-96408207D01*
X93717128Y-96420546D01*
X93714347Y-96433349D01*
X93711799Y-96446615D01*
X93709482Y-96460345D01*
X93707397Y-96474539D01*
X93706095Y-96484228D01*
X93704878Y-96494120D01*
X93703744Y-96504217D01*
X93702695Y-96514518D01*
X93701729Y-96525024D01*
X93700848Y-96535733D01*
X93700050Y-96546647D01*
X93699337Y-96557765D01*
X93698707Y-96569087D01*
X93698161Y-96580613D01*
X93697699Y-96592343D01*
X93697322Y-96604278D01*
X93697028Y-96616416D01*
X93696818Y-96628759D01*
X93696692Y-96641306D01*
X93696650Y-96654057D01*
X93570135Y-96654057D01*
X93570210Y-96639383D01*
X93570445Y-96624424D01*
X93570836Y-96609669D01*
X93571384Y-96595119D01*
X93572088Y-96580772D01*
X93572949Y-96566630D01*
X93573966Y-96552692D01*
X93575139Y-96538958D01*
X93576469Y-96525428D01*
X93577955Y-96512103D01*
X93579598Y-96498981D01*
X93581398Y-96486064D01*
X93583354Y-96473351D01*
X93585466Y-96460842D01*
X93587735Y-96448538D01*
X93590160Y-96436437D01*
X93591416Y-96430467D01*
X93594045Y-96418701D01*
X93596831Y-96407168D01*
X93599774Y-96395868D01*
X93602873Y-96384801D01*
X93606128Y-96373967D01*
X93609540Y-96363365D01*
X93613108Y-96352996D01*
X93616833Y-96342860D01*
X93620714Y-96332957D01*
X93624751Y-96323286D01*
X93628945Y-96313849D01*
X93633296Y-96304644D01*
X93637803Y-96295672D01*
X93642467Y-96286932D01*
X93649755Y-96274260D01*
X93654813Y-96266110D01*
X93662703Y-96254351D01*
X93670959Y-96243149D01*
X93679579Y-96232506D01*
X93688564Y-96222421D01*
X93697914Y-96212894D01*
X93707629Y-96203925D01*
X93717709Y-96195515D01*
X93728154Y-96187662D01*
X93738964Y-96180368D01*
X93750139Y-96173632D01*
X93757764Y-96169432D01*
X93769516Y-96163640D01*
X93781646Y-96158458D01*
X93794154Y-96153886D01*
X93807040Y-96149923D01*
X93820304Y-96146570D01*
X93833945Y-96143826D01*
X93847964Y-96141693D01*
X93862361Y-96140169D01*
X93872169Y-96139491D01*
X93882145Y-96139085D01*
X93892288Y-96138949D01*
X93897682Y-96138983D01*
G37*
G36*
X92815910Y-97155000D02*
G01*
X93442393Y-97155000D01*
X93442393Y-97047777D01*
X93202058Y-96786926D01*
X93192492Y-96776614D01*
X93183119Y-96766469D01*
X93173939Y-96756492D01*
X93164952Y-96746683D01*
X93156159Y-96737041D01*
X93147559Y-96727566D01*
X93139152Y-96718259D01*
X93130938Y-96709119D01*
X93122917Y-96700147D01*
X93115090Y-96691342D01*
X93109979Y-96685565D01*
X93102484Y-96676975D01*
X93095204Y-96668423D01*
X93088138Y-96659910D01*
X93081288Y-96651436D01*
X93074652Y-96643000D01*
X93068230Y-96634603D01*
X93062023Y-96626245D01*
X93056031Y-96617925D01*
X93050254Y-96609644D01*
X93044691Y-96601401D01*
X93041102Y-96595928D01*
X93034168Y-96584933D01*
X93027653Y-96573931D01*
X93021559Y-96562920D01*
X93015884Y-96551903D01*
X93010629Y-96540878D01*
X93005794Y-96529845D01*
X93001378Y-96518804D01*
X92997383Y-96507756D01*
X92993833Y-96496582D01*
X92990758Y-96485163D01*
X92988155Y-96473501D01*
X92986025Y-96461594D01*
X92984369Y-96449443D01*
X92983186Y-96437048D01*
X92982476Y-96424408D01*
X92982240Y-96411524D01*
X92982423Y-96401659D01*
X92983167Y-96389746D01*
X92984484Y-96378299D01*
X92986373Y-96367316D01*
X92988834Y-96356799D01*
X92991868Y-96346746D01*
X92993963Y-96340938D01*
X92997871Y-96331548D01*
X93002268Y-96322610D01*
X93007154Y-96314126D01*
X93013663Y-96304544D01*
X93020876Y-96295613D01*
X93027424Y-96288670D01*
X93035768Y-96280988D01*
X93044678Y-96274061D01*
X93054155Y-96267890D01*
X93064198Y-96262475D01*
X93074809Y-96257815D01*
X93078471Y-96256430D01*
X93087874Y-96253264D01*
X93097610Y-96250634D01*
X93107680Y-96248541D01*
X93118084Y-96246985D01*
X93128822Y-96245965D01*
X93139894Y-96245482D01*
X93144417Y-96245439D01*
X93156533Y-96245671D01*
X93168425Y-96246366D01*
X93180094Y-96247526D01*
X93191540Y-96249149D01*
X93202763Y-96251235D01*
X93213763Y-96253785D01*
X93224539Y-96256799D01*
X93235092Y-96260277D01*
X93245422Y-96264218D01*
X93255528Y-96268623D01*
X93262142Y-96271817D01*
X93271943Y-96276846D01*
X93281654Y-96282133D01*
X93291274Y-96287677D01*
X93300805Y-96293479D01*
X93310245Y-96299538D01*
X93319595Y-96305855D01*
X93328855Y-96312429D01*
X93338025Y-96319262D01*
X93347105Y-96326351D01*
X93356094Y-96333699D01*
X93362037Y-96338740D01*
X93432135Y-96256919D01*
X93423415Y-96249287D01*
X93414504Y-96241811D01*
X93405402Y-96234489D01*
X93396109Y-96227323D01*
X93386626Y-96220312D01*
X93376951Y-96213456D01*
X93373028Y-96210757D01*
X93363063Y-96204113D01*
X93352859Y-96197767D01*
X93342417Y-96191719D01*
X93331736Y-96185970D01*
X93320816Y-96180518D01*
X93311909Y-96176372D01*
X93305129Y-96173387D01*
X93295966Y-96169522D01*
X93286673Y-96165862D01*
X93277251Y-96162408D01*
X93267698Y-96159160D01*
X93258016Y-96156119D01*
X93248205Y-96153283D01*
X93238263Y-96150654D01*
X93228192Y-96148230D01*
X93217991Y-96146055D01*
X93207660Y-96144170D01*
X93197200Y-96142575D01*
X93186610Y-96141270D01*
X93175890Y-96140254D01*
X93165040Y-96139529D01*
X93154061Y-96139094D01*
X93142951Y-96138949D01*
X93130698Y-96139112D01*
X93118668Y-96139602D01*
X93106862Y-96140418D01*
X93095278Y-96141560D01*
X93083918Y-96143028D01*
X93072781Y-96144823D01*
X93061867Y-96146943D01*
X93051177Y-96149391D01*
X93040710Y-96152164D01*
X93030466Y-96155264D01*
X93023761Y-96157512D01*
X93013919Y-96161090D01*
X93004361Y-96164956D01*
X92995086Y-96169110D01*
X92986094Y-96173552D01*
X92977386Y-96178281D01*
X92968961Y-96183297D01*
X92958168Y-96190434D01*
X92947880Y-96198082D01*
X92938095Y-96206241D01*
X92933391Y-96210512D01*
X92924373Y-96219416D01*
X92915882Y-96228785D01*
X92907917Y-96238619D01*
X92900479Y-96248920D01*
X92893568Y-96259685D01*
X92887183Y-96270917D01*
X92882740Y-96279646D01*
X92878594Y-96288637D01*
X92875994Y-96294776D01*
X92872371Y-96304184D01*
X92869105Y-96313816D01*
X92866194Y-96323670D01*
X92863641Y-96333748D01*
X92861443Y-96344049D01*
X92859602Y-96354574D01*
X92858117Y-96365321D01*
X92856989Y-96376292D01*
X92856217Y-96387486D01*
X92855801Y-96398904D01*
X92855722Y-96406639D01*
X92855883Y-96417535D01*
X92856366Y-96428332D01*
X92857171Y-96439030D01*
X92858298Y-96449630D01*
X92859747Y-96460131D01*
X92861518Y-96470533D01*
X92863611Y-96480836D01*
X92866026Y-96491041D01*
X92868763Y-96501146D01*
X92871822Y-96511153D01*
X92874040Y-96517770D01*
X92877551Y-96527647D01*
X92881307Y-96537493D01*
X92885308Y-96547310D01*
X92889553Y-96557097D01*
X92894043Y-96566853D01*
X92898778Y-96576580D01*
X92903758Y-96586276D01*
X92908982Y-96595943D01*
X92914451Y-96605579D01*
X92920165Y-96615186D01*
X92924110Y-96621573D01*
X92930218Y-96631105D01*
X92936546Y-96640650D01*
X92943093Y-96650207D01*
X92949858Y-96659778D01*
X92956843Y-96669361D01*
X92964046Y-96678958D01*
X92971469Y-96688567D01*
X92979110Y-96698189D01*
X92986971Y-96707824D01*
X92995050Y-96717472D01*
X93000558Y-96723911D01*
X93008911Y-96733564D01*
X93017393Y-96743291D01*
X93026004Y-96753091D01*
X93034744Y-96762963D01*
X93043613Y-96772909D01*
X93052610Y-96782927D01*
X93061736Y-96793018D01*
X93070991Y-96803183D01*
X93080375Y-96813420D01*
X93089888Y-96823731D01*
X93096301Y-96830645D01*
X93289253Y-97035565D01*
X93289253Y-97040938D01*
X92815910Y-97040938D01*
X92815910Y-97155000D01*
G37*
G36*
X92077320Y-96391496D02*
G01*
X92077568Y-96404113D01*
X92078312Y-96416440D01*
X92079552Y-96428476D01*
X92081289Y-96440223D01*
X92083521Y-96451679D01*
X92086250Y-96462846D01*
X92089475Y-96473722D01*
X92093196Y-96484309D01*
X92097363Y-96494521D01*
X92101927Y-96504398D01*
X92106888Y-96513938D01*
X92112247Y-96523143D01*
X92118002Y-96532012D01*
X92124153Y-96540546D01*
X92130702Y-96548743D01*
X92137648Y-96556605D01*
X92144910Y-96564073D01*
X92152531Y-96571213D01*
X92160511Y-96578025D01*
X92168850Y-96584509D01*
X92177547Y-96590665D01*
X92186603Y-96596492D01*
X92196018Y-96601992D01*
X92205792Y-96607163D01*
X92215886Y-96611929D01*
X92226262Y-96616337D01*
X92236921Y-96620386D01*
X92247862Y-96624077D01*
X92259086Y-96627408D01*
X92270592Y-96630381D01*
X92282381Y-96632995D01*
X92294452Y-96635251D01*
X92294452Y-96639403D01*
X92279477Y-96641446D01*
X92264959Y-96643853D01*
X92250900Y-96646621D01*
X92237299Y-96649753D01*
X92224156Y-96653246D01*
X92211470Y-96657103D01*
X92199243Y-96661322D01*
X92187473Y-96665903D01*
X92176162Y-96670847D01*
X92165308Y-96676154D01*
X92154913Y-96681823D01*
X92144975Y-96687855D01*
X92135495Y-96694249D01*
X92126474Y-96701005D01*
X92117910Y-96708125D01*
X92109804Y-96715607D01*
X92102144Y-96723414D01*
X92094978Y-96731509D01*
X92088306Y-96739893D01*
X92082128Y-96748564D01*
X92076445Y-96757524D01*
X92071256Y-96766772D01*
X92066561Y-96776308D01*
X92062360Y-96786132D01*
X92058653Y-96796244D01*
X92055441Y-96806644D01*
X92052723Y-96817333D01*
X92050499Y-96828309D01*
X92048769Y-96839574D01*
X92047534Y-96851127D01*
X92046792Y-96862968D01*
X92046545Y-96875097D01*
X92046743Y-96887228D01*
X92047335Y-96899166D01*
X92048323Y-96910910D01*
X92049705Y-96922461D01*
X92051483Y-96933819D01*
X92053655Y-96944984D01*
X92056222Y-96955956D01*
X92059185Y-96966734D01*
X92062542Y-96977319D01*
X92066295Y-96987711D01*
X92069016Y-96994532D01*
X92073387Y-97004568D01*
X92078166Y-97014341D01*
X92083353Y-97023853D01*
X92088948Y-97033103D01*
X92094951Y-97042091D01*
X92101362Y-97050818D01*
X92108180Y-97059282D01*
X92115406Y-97067484D01*
X92123041Y-97075425D01*
X92131083Y-97083103D01*
X92136671Y-97088077D01*
X92145356Y-97095252D01*
X92154465Y-97102122D01*
X92164000Y-97108687D01*
X92173960Y-97114947D01*
X92184345Y-97120903D01*
X92195155Y-97126554D01*
X92206390Y-97131900D01*
X92218049Y-97136941D01*
X92230134Y-97141677D01*
X92242645Y-97146108D01*
X92251221Y-97148893D01*
X92264450Y-97152778D01*
X92278126Y-97156281D01*
X92292248Y-97159401D01*
X92301911Y-97161269D01*
X92311772Y-97162968D01*
X92321832Y-97164496D01*
X92332090Y-97165855D01*
X92342547Y-97167043D01*
X92353202Y-97168062D01*
X92364055Y-97168912D01*
X92375107Y-97169591D01*
X92386358Y-97170100D01*
X92397806Y-97170440D01*
X92409454Y-97170610D01*
X92415352Y-97170631D01*
X92429292Y-97170528D01*
X92443087Y-97170219D01*
X92456735Y-97169704D01*
X92470238Y-97168982D01*
X92483594Y-97168055D01*
X92496805Y-97166922D01*
X92509870Y-97165582D01*
X92522788Y-97164036D01*
X92535561Y-97162285D01*
X92548188Y-97160327D01*
X92556524Y-97158907D01*
X92568866Y-97156542D01*
X92581071Y-97153841D01*
X92593138Y-97150806D01*
X92605068Y-97147436D01*
X92616860Y-97143730D01*
X92628515Y-97139690D01*
X92640032Y-97135316D01*
X92651413Y-97130606D01*
X92662655Y-97125561D01*
X92673761Y-97120182D01*
X92681088Y-97116409D01*
X92681088Y-96999661D01*
X92669782Y-97005309D01*
X92658305Y-97010712D01*
X92646656Y-97015871D01*
X92634835Y-97020784D01*
X92622842Y-97025453D01*
X92610677Y-97029878D01*
X92598341Y-97034057D01*
X92585833Y-97037992D01*
X92573154Y-97041682D01*
X92560302Y-97045127D01*
X92551639Y-97047288D01*
X92538637Y-97050300D01*
X92525733Y-97053016D01*
X92512929Y-97055435D01*
X92500222Y-97057558D01*
X92487615Y-97059385D01*
X92475106Y-97060915D01*
X92462697Y-97062150D01*
X92450385Y-97063088D01*
X92438173Y-97063730D01*
X92426059Y-97064075D01*
X92418039Y-97064141D01*
X92406374Y-97064025D01*
X92395009Y-97063677D01*
X92383945Y-97063098D01*
X92373182Y-97062286D01*
X92362719Y-97061243D01*
X92352557Y-97059968D01*
X92342695Y-97058461D01*
X92330013Y-97056091D01*
X92317866Y-97053309D01*
X92309106Y-97050952D01*
X92297821Y-97047418D01*
X92287048Y-97043533D01*
X92276786Y-97039297D01*
X92267035Y-97034710D01*
X92257796Y-97029772D01*
X92249068Y-97024482D01*
X92240852Y-97018842D01*
X92233147Y-97012850D01*
X92224152Y-97004797D01*
X92215945Y-96996206D01*
X92208524Y-96987079D01*
X92201891Y-96977416D01*
X92196045Y-96967216D01*
X92190986Y-96956479D01*
X92189183Y-96952034D01*
X92185102Y-96940529D01*
X92182335Y-96931024D01*
X92180011Y-96921253D01*
X92178130Y-96911214D01*
X92176691Y-96900908D01*
X92175695Y-96890335D01*
X92175141Y-96879495D01*
X92175017Y-96871189D01*
X92175303Y-96860034D01*
X92176162Y-96849284D01*
X92177593Y-96838938D01*
X92179596Y-96828996D01*
X92182172Y-96819459D01*
X92186197Y-96808107D01*
X92191117Y-96797387D01*
X92193335Y-96793276D01*
X92199365Y-96783405D01*
X92206158Y-96774094D01*
X92213714Y-96765344D01*
X92222034Y-96757155D01*
X92231116Y-96749526D01*
X92240963Y-96742457D01*
X92245115Y-96739787D01*
X92253770Y-96734707D01*
X92262883Y-96729971D01*
X92272455Y-96725579D01*
X92282484Y-96721530D01*
X92292971Y-96717824D01*
X92303916Y-96714462D01*
X92315319Y-96711443D01*
X92327180Y-96708768D01*
X92339469Y-96706421D01*
X92352154Y-96704387D01*
X92361929Y-96703067D01*
X92371926Y-96701922D01*
X92382147Y-96700954D01*
X92392592Y-96700162D01*
X92403259Y-96699546D01*
X92414150Y-96699106D01*
X92425264Y-96698842D01*
X92436601Y-96698754D01*
X92527948Y-96698754D01*
X92527948Y-96592264D01*
X92436601Y-96592264D01*
X92426269Y-96592142D01*
X92416156Y-96591775D01*
X92406262Y-96591163D01*
X92393411Y-96589966D01*
X92380949Y-96588335D01*
X92368876Y-96586268D01*
X92357192Y-96583767D01*
X92345898Y-96580830D01*
X92337683Y-96578342D01*
X92327096Y-96574678D01*
X92316953Y-96570648D01*
X92307252Y-96566252D01*
X92297993Y-96561489D01*
X92289178Y-96556360D01*
X92280805Y-96550865D01*
X92272874Y-96545003D01*
X92265387Y-96538775D01*
X92256574Y-96530452D01*
X92248452Y-96521663D01*
X92241022Y-96512410D01*
X92234284Y-96502692D01*
X92228238Y-96492508D01*
X92222883Y-96481860D01*
X92220935Y-96477470D01*
X92216572Y-96466159D01*
X92212949Y-96454515D01*
X92210583Y-96444959D01*
X92208690Y-96435189D01*
X92207270Y-96425206D01*
X92206324Y-96415009D01*
X92205851Y-96404598D01*
X92205792Y-96399312D01*
X92206096Y-96388201D01*
X92207008Y-96377459D01*
X92208529Y-96367087D01*
X92210657Y-96357085D01*
X92213394Y-96347452D01*
X92216740Y-96338189D01*
X92218248Y-96334588D01*
X92223197Y-96324181D01*
X92228884Y-96314392D01*
X92235310Y-96305221D01*
X92242474Y-96296669D01*
X92250376Y-96288735D01*
X92253175Y-96286228D01*
X92262010Y-96279135D01*
X92271481Y-96272695D01*
X92281588Y-96266908D01*
X92290495Y-96262583D01*
X92299844Y-96258712D01*
X92307641Y-96255942D01*
X92317654Y-96252916D01*
X92328001Y-96250403D01*
X92338682Y-96248403D01*
X92349696Y-96246916D01*
X92361045Y-96245942D01*
X92372728Y-96245480D01*
X92377494Y-96245439D01*
X92391124Y-96245641D01*
X92404445Y-96246246D01*
X92417457Y-96247255D01*
X92430159Y-96248668D01*
X92442553Y-96250484D01*
X92454637Y-96252703D01*
X92466412Y-96255327D01*
X92477878Y-96258353D01*
X92489035Y-96261784D01*
X92499883Y-96265618D01*
X92506943Y-96268398D01*
X92517385Y-96272779D01*
X92527737Y-96277405D01*
X92537999Y-96282276D01*
X92548170Y-96287392D01*
X92558252Y-96292752D01*
X92568243Y-96298357D01*
X92578144Y-96304206D01*
X92587955Y-96310301D01*
X92597676Y-96316640D01*
X92607307Y-96323224D01*
X92613677Y-96327749D01*
X92676936Y-96242020D01*
X92668632Y-96235381D01*
X92660054Y-96228896D01*
X92651201Y-96222567D01*
X92642074Y-96216393D01*
X92632673Y-96210374D01*
X92622997Y-96204510D01*
X92619050Y-96202208D01*
X92608909Y-96196515D01*
X92598481Y-96191036D01*
X92587766Y-96185772D01*
X92576766Y-96180722D01*
X92567759Y-96176837D01*
X92558570Y-96173090D01*
X92549197Y-96169480D01*
X92539656Y-96166033D01*
X92529963Y-96162778D01*
X92520117Y-96159714D01*
X92510118Y-96156840D01*
X92499967Y-96154157D01*
X92489663Y-96151665D01*
X92479206Y-96149364D01*
X92468597Y-96147254D01*
X92457770Y-96145307D01*
X92446783Y-96143620D01*
X92435636Y-96142193D01*
X92424328Y-96141025D01*
X92412860Y-96140117D01*
X92401232Y-96139468D01*
X92389443Y-96139079D01*
X92377494Y-96138949D01*
X92363733Y-96139115D01*
X92350295Y-96139610D01*
X92337178Y-96140437D01*
X92324383Y-96141594D01*
X92311910Y-96143082D01*
X92299759Y-96144900D01*
X92287930Y-96147049D01*
X92276424Y-96149528D01*
X92265239Y-96152338D01*
X92254376Y-96155479D01*
X92247313Y-96157756D01*
X92236985Y-96161413D01*
X92226974Y-96165332D01*
X92217281Y-96169513D01*
X92207906Y-96173956D01*
X92198848Y-96178661D01*
X92190108Y-96183628D01*
X92181686Y-96188856D01*
X92173582Y-96194347D01*
X92163270Y-96202075D01*
X92153524Y-96210268D01*
X92144353Y-96218893D01*
X92135770Y-96227915D01*
X92127775Y-96237333D01*
X92120368Y-96247149D01*
X92113548Y-96257361D01*
X92107316Y-96267971D01*
X92101672Y-96278977D01*
X92096615Y-96290380D01*
X92092093Y-96302058D01*
X92088173Y-96314010D01*
X92084857Y-96326238D01*
X92082144Y-96338740D01*
X92080033Y-96351517D01*
X92078846Y-96361280D01*
X92077998Y-96371197D01*
X92077489Y-96381270D01*
X92077320Y-96391496D01*
G37*
G36*
X103463224Y-94425000D02*
G01*
X103130076Y-94425000D01*
X103120613Y-94424922D01*
X103106650Y-94424517D01*
X103092967Y-94423763D01*
X103079562Y-94422662D01*
X103066437Y-94421213D01*
X103053590Y-94419416D01*
X103041023Y-94417272D01*
X103028735Y-94414779D01*
X103016726Y-94411939D01*
X103004996Y-94408751D01*
X102993545Y-94405216D01*
X102986045Y-94402645D01*
X102975063Y-94398534D01*
X102964403Y-94394118D01*
X102954066Y-94389398D01*
X102944050Y-94384372D01*
X102934356Y-94379042D01*
X102924985Y-94373407D01*
X102915935Y-94367467D01*
X102907208Y-94361223D01*
X102898802Y-94354673D01*
X102890718Y-94347819D01*
X102885515Y-94343084D01*
X102878003Y-94335741D01*
X102870843Y-94328111D01*
X102864035Y-94320194D01*
X102857579Y-94311989D01*
X102851476Y-94303496D01*
X102845724Y-94294715D01*
X102840325Y-94285647D01*
X102835277Y-94276291D01*
X102830582Y-94266647D01*
X102826238Y-94256716D01*
X102823517Y-94249912D01*
X102819765Y-94239490D01*
X102816407Y-94228811D01*
X102813445Y-94217875D01*
X102810878Y-94206681D01*
X102808705Y-94195229D01*
X102806928Y-94183520D01*
X102805545Y-94171553D01*
X102804558Y-94159328D01*
X102803965Y-94146846D01*
X102803768Y-94134106D01*
X102803842Y-94128977D01*
X102938590Y-94128977D01*
X102938762Y-94139247D01*
X102939277Y-94149295D01*
X102940135Y-94159122D01*
X102941692Y-94171095D01*
X102943785Y-94182721D01*
X102946414Y-94194002D01*
X102949581Y-94204937D01*
X102951010Y-94209203D01*
X102955067Y-94219536D01*
X102959816Y-94229392D01*
X102965257Y-94238770D01*
X102971389Y-94247672D01*
X102978213Y-94256096D01*
X102985729Y-94264043D01*
X102993908Y-94271414D01*
X103002873Y-94278259D01*
X103012626Y-94284580D01*
X103023167Y-94290376D01*
X103032165Y-94294635D01*
X103041668Y-94298558D01*
X103051674Y-94302145D01*
X103054243Y-94302987D01*
X103064898Y-94306086D01*
X103076163Y-94308757D01*
X103088040Y-94311001D01*
X103100527Y-94312818D01*
X103110293Y-94313900D01*
X103120402Y-94314741D01*
X103130855Y-94315342D01*
X103141651Y-94315703D01*
X103152791Y-94315823D01*
X103335484Y-94315823D01*
X103335484Y-93955809D01*
X103161095Y-93955809D01*
X103157162Y-93955821D01*
X103145605Y-93956007D01*
X103134413Y-93956417D01*
X103123586Y-93957049D01*
X103113124Y-93957905D01*
X103103026Y-93958984D01*
X103090131Y-93960770D01*
X103077885Y-93962953D01*
X103066287Y-93965533D01*
X103055338Y-93968510D01*
X103044977Y-93971788D01*
X103035142Y-93975394D01*
X103025834Y-93979329D01*
X103014940Y-93984709D01*
X103004868Y-93990601D01*
X102995620Y-93997007D01*
X102987194Y-94003925D01*
X102984015Y-94006801D01*
X102976569Y-94014318D01*
X102969838Y-94022300D01*
X102963822Y-94030747D01*
X102958522Y-94039660D01*
X102953938Y-94049037D01*
X102950069Y-94058879D01*
X102948679Y-94062903D01*
X102945596Y-94073170D01*
X102943074Y-94083735D01*
X102941112Y-94094598D01*
X102939711Y-94105760D01*
X102938870Y-94117219D01*
X102938590Y-94128977D01*
X102803842Y-94128977D01*
X102803925Y-94123226D01*
X102804395Y-94112660D01*
X102805178Y-94102406D01*
X102806275Y-94092467D01*
X102808225Y-94079701D01*
X102810733Y-94067493D01*
X102813797Y-94055842D01*
X102817419Y-94044748D01*
X102821598Y-94034211D01*
X102826261Y-94024113D01*
X102831337Y-94014458D01*
X102836825Y-94005245D01*
X102842725Y-93996475D01*
X102849037Y-93988148D01*
X102855761Y-93980264D01*
X102862897Y-93972822D01*
X102870446Y-93965823D01*
X102878311Y-93959228D01*
X102886520Y-93953000D01*
X102895073Y-93947138D01*
X102903968Y-93941643D01*
X102913208Y-93936514D01*
X102922790Y-93931751D01*
X102932717Y-93927355D01*
X102942986Y-93923325D01*
X102953458Y-93919589D01*
X102964113Y-93916074D01*
X102974952Y-93912780D01*
X102985973Y-93909708D01*
X102997178Y-93906857D01*
X103008565Y-93904228D01*
X103020136Y-93901820D01*
X103031891Y-93899633D01*
X103031891Y-93892794D01*
X103020201Y-93891069D01*
X103008825Y-93888948D01*
X102997762Y-93886429D01*
X102987011Y-93883513D01*
X102976573Y-93880201D01*
X102966449Y-93876491D01*
X102956637Y-93872385D01*
X102947138Y-93867882D01*
X102944814Y-93866697D01*
X102935753Y-93861784D01*
X102927065Y-93856588D01*
X102918751Y-93851110D01*
X102910811Y-93845349D01*
X102901412Y-93837751D01*
X102892598Y-93829712D01*
X102884368Y-93821231D01*
X102881240Y-93817686D01*
X102873828Y-93808522D01*
X102867000Y-93798929D01*
X102860757Y-93788906D01*
X102855098Y-93778454D01*
X102850023Y-93767573D01*
X102845533Y-93756263D01*
X102842385Y-93746958D01*
X102839656Y-93737486D01*
X102837347Y-93727846D01*
X102835458Y-93718039D01*
X102833989Y-93708063D01*
X102832940Y-93697919D01*
X102832310Y-93687607D01*
X102832271Y-93685676D01*
X102962526Y-93685676D01*
X102962568Y-93690645D01*
X102963040Y-93702733D01*
X102964037Y-93714344D01*
X102965559Y-93725478D01*
X102967605Y-93736135D01*
X102970176Y-93746315D01*
X102973272Y-93756018D01*
X102975362Y-93761607D01*
X102979378Y-93770520D01*
X102985080Y-93780555D01*
X102991743Y-93789869D01*
X102999368Y-93798461D01*
X103007955Y-93806332D01*
X103012578Y-93810002D01*
X103020884Y-93815736D01*
X103029942Y-93820993D01*
X103039751Y-93825773D01*
X103050312Y-93830075D01*
X103061623Y-93833901D01*
X103071214Y-93836618D01*
X103078704Y-93838408D01*
X103089199Y-93840520D01*
X103100274Y-93842320D01*
X103111929Y-93843806D01*
X103124164Y-93844980D01*
X103136979Y-93845840D01*
X103146971Y-93846280D01*
X103157289Y-93846544D01*
X103167934Y-93846632D01*
X103335484Y-93846632D01*
X103335484Y-93533757D01*
X103182344Y-93533757D01*
X103168326Y-93533896D01*
X103154787Y-93534311D01*
X103141726Y-93535002D01*
X103129145Y-93535971D01*
X103117043Y-93537216D01*
X103105419Y-93538738D01*
X103094275Y-93540536D01*
X103083609Y-93542611D01*
X103073422Y-93544963D01*
X103063715Y-93547591D01*
X103050051Y-93552053D01*
X103037465Y-93557137D01*
X103025957Y-93562843D01*
X103015526Y-93569173D01*
X103006055Y-93576173D01*
X102997514Y-93583985D01*
X102989906Y-93592608D01*
X102983229Y-93602042D01*
X102977484Y-93612288D01*
X102972670Y-93623346D01*
X102968788Y-93635215D01*
X102965838Y-93647895D01*
X102963820Y-93661387D01*
X102962733Y-93675690D01*
X102962526Y-93685676D01*
X102832271Y-93685676D01*
X102832100Y-93677128D01*
X102832189Y-93668422D01*
X102832655Y-93655689D01*
X102833520Y-93643346D01*
X102834784Y-93631394D01*
X102836448Y-93619833D01*
X102838511Y-93608662D01*
X102840973Y-93597883D01*
X102843834Y-93587493D01*
X102847095Y-93577495D01*
X102850755Y-93567887D01*
X102854815Y-93558670D01*
X102856256Y-93555681D01*
X102860841Y-93546931D01*
X102865816Y-93538508D01*
X102873057Y-93527784D01*
X102880993Y-93517640D01*
X102889624Y-93508077D01*
X102898949Y-93499093D01*
X102906398Y-93492736D01*
X102914239Y-93486705D01*
X102922470Y-93481001D01*
X102928173Y-93477341D01*
X102937050Y-93472095D01*
X102946314Y-93467140D01*
X102955964Y-93462478D01*
X102966000Y-93458107D01*
X102976423Y-93454028D01*
X102987232Y-93450242D01*
X102998428Y-93446747D01*
X103010010Y-93443544D01*
X103021978Y-93440633D01*
X103034333Y-93438014D01*
X103038536Y-93437188D01*
X103051392Y-93434866D01*
X103064617Y-93432780D01*
X103078211Y-93430930D01*
X103092174Y-93429317D01*
X103106507Y-93427939D01*
X103116267Y-93427152D01*
X103126191Y-93426470D01*
X103136280Y-93425893D01*
X103146532Y-93425420D01*
X103156949Y-93425053D01*
X103167529Y-93424791D01*
X103178274Y-93424633D01*
X103189183Y-93424581D01*
X103463224Y-93424581D01*
X103463224Y-94425000D01*
G37*
G36*
X102486008Y-94425000D02*
G01*
X102611060Y-94425000D01*
X102611060Y-93362055D01*
X102486008Y-93362055D01*
X102486008Y-94425000D01*
G37*
G36*
X102124528Y-94425000D02*
G01*
X102249581Y-94425000D01*
X102249581Y-93674685D01*
X102124528Y-93674685D01*
X102124528Y-94425000D01*
G37*
G36*
X102259106Y-93471231D02*
G01*
X102258778Y-93461328D01*
X102257445Y-93449947D01*
X102255086Y-93439675D01*
X102250901Y-93428813D01*
X102245240Y-93419548D01*
X102238101Y-93411880D01*
X102229881Y-93405572D01*
X102220974Y-93400569D01*
X102211380Y-93396871D01*
X102201099Y-93394478D01*
X102190131Y-93393390D01*
X102186322Y-93393318D01*
X102176113Y-93393837D01*
X102166308Y-93395396D01*
X102157745Y-93397714D01*
X102148186Y-93401767D01*
X102139656Y-93407331D01*
X102134542Y-93411880D01*
X102127616Y-93419746D01*
X102122292Y-93428223D01*
X102118667Y-93436060D01*
X102115575Y-93445792D01*
X102113772Y-93455529D01*
X102112896Y-93466194D01*
X102112805Y-93471231D01*
X102113336Y-93483107D01*
X102114928Y-93494005D01*
X102117581Y-93503925D01*
X102122166Y-93514538D01*
X102128280Y-93523743D01*
X102134542Y-93530338D01*
X102142912Y-93536895D01*
X102151899Y-93542096D01*
X102161505Y-93545940D01*
X102171728Y-93548427D01*
X102182570Y-93549558D01*
X102186322Y-93549633D01*
X102197519Y-93548963D01*
X102208029Y-93546954D01*
X102217852Y-93543605D01*
X102226988Y-93538917D01*
X102235438Y-93532889D01*
X102238101Y-93530582D01*
X102245240Y-93522617D01*
X102250901Y-93513191D01*
X102255086Y-93502306D01*
X102257445Y-93492120D01*
X102258778Y-93480921D01*
X102259106Y-93471231D01*
G37*
G36*
X101416713Y-94425000D02*
G01*
X101416713Y-93940910D01*
X101416854Y-93929941D01*
X101417278Y-93919321D01*
X101417984Y-93909051D01*
X101418972Y-93899129D01*
X101420984Y-93884902D01*
X101423632Y-93871460D01*
X101426915Y-93858804D01*
X101430833Y-93846934D01*
X101435387Y-93835849D01*
X101440576Y-93825550D01*
X101446401Y-93816037D01*
X101452861Y-93807309D01*
X101459955Y-93799365D01*
X101467776Y-93792203D01*
X101476322Y-93785821D01*
X101485593Y-93780221D01*
X101495590Y-93775403D01*
X101506313Y-93771366D01*
X101517761Y-93768110D01*
X101529935Y-93765635D01*
X101542834Y-93763942D01*
X101556459Y-93763031D01*
X101565945Y-93762857D01*
X101576186Y-93763014D01*
X101586118Y-93763484D01*
X101598880Y-93764598D01*
X101611092Y-93766270D01*
X101622754Y-93768499D01*
X101633867Y-93771284D01*
X101644431Y-93774628D01*
X101654445Y-93778528D01*
X101659246Y-93780687D01*
X101668477Y-93785411D01*
X101677243Y-93790670D01*
X101685544Y-93796463D01*
X101693379Y-93802791D01*
X101700748Y-93809653D01*
X101707652Y-93817049D01*
X101714090Y-93824979D01*
X101720062Y-93833443D01*
X101725600Y-93842423D01*
X101730733Y-93851899D01*
X101735461Y-93861871D01*
X101739785Y-93872339D01*
X101743704Y-93883303D01*
X101747219Y-93894764D01*
X101750329Y-93906720D01*
X101753035Y-93919173D01*
X101754825Y-93928785D01*
X101756438Y-93938664D01*
X101757876Y-93948809D01*
X101759137Y-93959221D01*
X101760223Y-93969898D01*
X101761132Y-93980842D01*
X101761866Y-93992052D01*
X101762423Y-94003528D01*
X101762805Y-94015270D01*
X101763010Y-94027279D01*
X101763049Y-94035432D01*
X101763049Y-94425000D01*
X101888101Y-94425000D01*
X101888101Y-93674685D01*
X101786252Y-93674685D01*
X101768422Y-93774337D01*
X101761584Y-93774337D01*
X101756080Y-93765298D01*
X101750254Y-93756653D01*
X101744106Y-93748401D01*
X101737636Y-93740543D01*
X101730845Y-93733079D01*
X101723731Y-93726008D01*
X101720795Y-93723290D01*
X101713214Y-93716676D01*
X101705430Y-93710419D01*
X101697443Y-93704521D01*
X101689253Y-93698980D01*
X101680861Y-93693797D01*
X101672266Y-93688972D01*
X101668771Y-93687142D01*
X101659910Y-93682823D01*
X101650882Y-93678875D01*
X101641688Y-93675296D01*
X101632326Y-93672087D01*
X101622797Y-93669247D01*
X101613101Y-93666777D01*
X101609176Y-93665893D01*
X101599224Y-93663923D01*
X101589212Y-93662286D01*
X101579141Y-93660984D01*
X101569010Y-93660016D01*
X101558819Y-93659381D01*
X101548569Y-93659081D01*
X101544452Y-93659054D01*
X101528972Y-93659310D01*
X101513979Y-93660077D01*
X101499472Y-93661355D01*
X101485452Y-93663145D01*
X101471918Y-93665446D01*
X101458871Y-93668259D01*
X101446311Y-93671583D01*
X101434237Y-93675418D01*
X101422650Y-93679765D01*
X101411549Y-93684623D01*
X101400935Y-93689993D01*
X101390808Y-93695874D01*
X101381167Y-93702266D01*
X101372012Y-93709170D01*
X101363345Y-93716585D01*
X101355163Y-93724511D01*
X101347474Y-93732999D01*
X101340280Y-93742100D01*
X101333582Y-93751814D01*
X101327381Y-93762140D01*
X101321676Y-93773078D01*
X101316466Y-93784629D01*
X101311753Y-93796793D01*
X101307536Y-93809569D01*
X101303815Y-93822957D01*
X101300590Y-93836958D01*
X101297862Y-93851572D01*
X101295629Y-93866798D01*
X101293893Y-93882636D01*
X101292653Y-93899087D01*
X101291908Y-93916151D01*
X101291660Y-93933827D01*
X101291660Y-94425000D01*
X101416713Y-94425000D01*
G37*
G36*
X100948988Y-94037630D02*
G01*
X100856175Y-93921371D01*
X100654919Y-93674685D01*
X100510083Y-93674685D01*
X100785589Y-93999284D01*
X100491521Y-94425000D01*
X100635136Y-94425000D01*
X100865945Y-94080617D01*
X100940683Y-94136549D01*
X100940683Y-94425000D01*
X101064515Y-94425000D01*
X101064515Y-93362055D01*
X100940683Y-93362055D01*
X100940683Y-93849808D01*
X100951674Y-94037630D01*
X100948988Y-94037630D01*
G37*
G36*
X100108379Y-93659159D02*
G01*
X100121140Y-93659710D01*
X100133690Y-93660733D01*
X100146029Y-93662229D01*
X100158159Y-93664196D01*
X100170078Y-93666636D01*
X100181787Y-93669549D01*
X100193285Y-93672933D01*
X100204573Y-93676790D01*
X100215650Y-93681119D01*
X100226517Y-93685921D01*
X100233629Y-93689345D01*
X100244060Y-93694842D01*
X100254208Y-93700774D01*
X100264073Y-93707139D01*
X100273654Y-93713937D01*
X100282952Y-93721169D01*
X100291967Y-93728835D01*
X100300698Y-93736934D01*
X100309146Y-93745467D01*
X100317310Y-93754434D01*
X100325191Y-93763834D01*
X100330249Y-93770303D01*
X100337567Y-93780335D01*
X100344563Y-93790762D01*
X100351237Y-93801584D01*
X100357589Y-93812801D01*
X100363619Y-93824413D01*
X100369327Y-93836420D01*
X100374713Y-93848822D01*
X100379777Y-93861619D01*
X100384519Y-93874811D01*
X100388939Y-93888398D01*
X100390336Y-93893012D01*
X100394263Y-93907086D01*
X100396658Y-93916662D01*
X100398876Y-93926393D01*
X100400917Y-93936278D01*
X100402780Y-93946318D01*
X100404466Y-93956512D01*
X100405975Y-93966861D01*
X100407306Y-93977364D01*
X100408459Y-93988022D01*
X100409435Y-93998835D01*
X100410234Y-94009802D01*
X100410855Y-94020924D01*
X100411298Y-94032200D01*
X100411565Y-94043631D01*
X100411653Y-94055216D01*
X100411557Y-94066737D01*
X100411268Y-94078098D01*
X100410786Y-94089299D01*
X100410112Y-94100340D01*
X100409244Y-94111220D01*
X100408184Y-94121940D01*
X100406932Y-94132500D01*
X100405486Y-94142899D01*
X100403848Y-94153138D01*
X100402017Y-94163217D01*
X100399994Y-94173136D01*
X100397777Y-94182894D01*
X100395368Y-94192492D01*
X100391393Y-94206588D01*
X100386985Y-94220324D01*
X100383822Y-94229240D01*
X100378781Y-94242274D01*
X100373384Y-94254900D01*
X100367630Y-94267118D01*
X100361520Y-94278928D01*
X100355053Y-94290330D01*
X100348230Y-94301325D01*
X100341051Y-94311911D01*
X100333516Y-94322090D01*
X100325624Y-94331861D01*
X100317376Y-94341224D01*
X100311660Y-94347209D01*
X100302832Y-94355847D01*
X100293699Y-94364076D01*
X100284262Y-94371898D01*
X100274520Y-94379312D01*
X100264472Y-94386318D01*
X100254121Y-94392916D01*
X100243464Y-94399106D01*
X100232502Y-94404889D01*
X100221236Y-94410263D01*
X100209665Y-94415230D01*
X100201798Y-94418306D01*
X100189809Y-94422548D01*
X100177592Y-94426343D01*
X100165148Y-94429692D01*
X100152476Y-94432594D01*
X100139577Y-94435050D01*
X100126450Y-94437059D01*
X100113096Y-94438622D01*
X100099514Y-94439738D01*
X100085704Y-94440408D01*
X100071667Y-94440631D01*
X100069474Y-94440628D01*
X100058667Y-94440537D01*
X100048122Y-94440314D01*
X100037840Y-94439959D01*
X100027820Y-94439474D01*
X100018062Y-94438857D01*
X100006699Y-94437944D01*
X100002982Y-94437594D01*
X99991922Y-94436372D01*
X99981000Y-94434892D01*
X99970215Y-94433155D01*
X99959567Y-94431160D01*
X99949057Y-94428907D01*
X99945583Y-94428131D01*
X99935227Y-94425641D01*
X99924975Y-94422910D01*
X99914825Y-94419939D01*
X99904779Y-94416728D01*
X99894836Y-94413276D01*
X99891505Y-94412042D01*
X99881478Y-94408193D01*
X99871401Y-94404120D01*
X99861271Y-94399823D01*
X99851090Y-94395304D01*
X99840858Y-94390561D01*
X99840858Y-94279187D01*
X99844213Y-94280734D01*
X99854245Y-94285262D01*
X99864226Y-94289618D01*
X99874155Y-94293803D01*
X99884033Y-94297816D01*
X99893859Y-94301657D01*
X99897102Y-94302866D01*
X99906926Y-94306343D01*
X99916886Y-94309598D01*
X99926984Y-94312629D01*
X99937219Y-94315437D01*
X99947592Y-94318021D01*
X99951081Y-94318833D01*
X99961651Y-94321120D01*
X99972376Y-94323184D01*
X99983255Y-94325024D01*
X99994289Y-94326641D01*
X100005478Y-94328035D01*
X100007345Y-94328245D01*
X100018759Y-94329367D01*
X100028547Y-94330119D01*
X100038585Y-94330703D01*
X100048874Y-94331121D01*
X100059412Y-94331371D01*
X100070202Y-94331454D01*
X100082977Y-94331212D01*
X100095351Y-94330485D01*
X100107325Y-94329273D01*
X100118898Y-94327577D01*
X100130070Y-94325396D01*
X100140841Y-94322730D01*
X100151212Y-94319580D01*
X100161182Y-94315945D01*
X100170752Y-94311825D01*
X100179920Y-94307221D01*
X100188688Y-94302132D01*
X100197056Y-94296558D01*
X100205022Y-94290500D01*
X100212588Y-94283957D01*
X100219753Y-94276929D01*
X100226517Y-94269417D01*
X100232890Y-94261361D01*
X100238878Y-94252762D01*
X100244483Y-94243622D01*
X100249705Y-94233941D01*
X100254543Y-94223717D01*
X100258998Y-94212951D01*
X100263069Y-94201643D01*
X100266756Y-94189794D01*
X100270060Y-94177402D01*
X100272981Y-94164469D01*
X100275518Y-94150993D01*
X100277671Y-94136976D01*
X100279441Y-94122417D01*
X100280827Y-94107316D01*
X100281830Y-94091673D01*
X100282449Y-94075488D01*
X99807152Y-94075488D01*
X99807152Y-93997575D01*
X99807232Y-93988163D01*
X99807647Y-93974241D01*
X99807791Y-93971685D01*
X99941730Y-93971685D01*
X100279762Y-93971685D01*
X100278667Y-93959114D01*
X100277274Y-93946925D01*
X100275583Y-93935117D01*
X100273595Y-93923691D01*
X100271309Y-93912647D01*
X100268726Y-93901984D01*
X100265844Y-93891703D01*
X100262665Y-93881803D01*
X100259189Y-93872286D01*
X100255414Y-93863149D01*
X100249195Y-93850161D01*
X100242305Y-93838031D01*
X100234746Y-93826759D01*
X100226517Y-93816346D01*
X100220680Y-93809869D01*
X100211445Y-93800937D01*
X100201635Y-93792945D01*
X100191249Y-93785893D01*
X100180289Y-93779781D01*
X100168752Y-93774610D01*
X100156641Y-93770379D01*
X100143954Y-93767088D01*
X100130692Y-93764738D01*
X100116855Y-93763327D01*
X100102442Y-93762857D01*
X100094581Y-93762990D01*
X100084433Y-93763582D01*
X100072286Y-93764987D01*
X100060734Y-93767131D01*
X100049779Y-93770015D01*
X100039420Y-93773638D01*
X100029658Y-93778000D01*
X100025914Y-93779912D01*
X100016922Y-93785126D01*
X100008454Y-93790960D01*
X100000512Y-93797415D01*
X99993094Y-93804489D01*
X99986200Y-93812184D01*
X99979832Y-93820498D01*
X99976259Y-93825726D01*
X99970703Y-93834878D01*
X99965649Y-93844579D01*
X99961096Y-93854828D01*
X99957043Y-93865626D01*
X99953492Y-93876972D01*
X99951011Y-93886444D01*
X99948836Y-93896218D01*
X99946951Y-93906243D01*
X99945356Y-93916520D01*
X99944050Y-93927049D01*
X99943035Y-93937830D01*
X99942310Y-93948863D01*
X99941875Y-93960148D01*
X99941730Y-93971685D01*
X99807791Y-93971685D01*
X99808419Y-93960556D01*
X99809548Y-93947108D01*
X99811033Y-93933895D01*
X99812874Y-93920918D01*
X99815071Y-93908178D01*
X99817625Y-93895673D01*
X99820535Y-93883405D01*
X99823802Y-93871373D01*
X99827424Y-93859577D01*
X99830027Y-93851832D01*
X99834189Y-93840479D01*
X99838660Y-93829444D01*
X99843440Y-93818726D01*
X99848529Y-93808326D01*
X99853927Y-93798244D01*
X99859634Y-93788480D01*
X99865650Y-93779033D01*
X99871976Y-93769904D01*
X99878611Y-93761093D01*
X99885554Y-93752599D01*
X99890322Y-93747091D01*
X99897720Y-93739126D01*
X99905414Y-93731518D01*
X99913405Y-93724266D01*
X99921692Y-93717370D01*
X99930275Y-93710830D01*
X99939154Y-93704647D01*
X99948330Y-93698820D01*
X99957802Y-93693350D01*
X99967570Y-93688236D01*
X99977634Y-93683478D01*
X99984465Y-93680521D01*
X99994912Y-93676442D01*
X100005600Y-93672793D01*
X100016528Y-93669573D01*
X100027696Y-93666782D01*
X100039105Y-93664421D01*
X100050754Y-93662489D01*
X100062644Y-93660986D01*
X100074774Y-93659913D01*
X100087144Y-93659269D01*
X100099755Y-93659054D01*
X100108379Y-93659159D01*
G37*
G36*
X99505024Y-94037630D02*
G01*
X99412212Y-93921371D01*
X99210956Y-93674685D01*
X99066120Y-93674685D01*
X99341625Y-93999284D01*
X99047557Y-94425000D01*
X99191172Y-94425000D01*
X99421981Y-94080617D01*
X99496720Y-94136549D01*
X99496720Y-94425000D01*
X99620551Y-94425000D01*
X99620551Y-93362055D01*
X99496720Y-93362055D01*
X99496720Y-93849808D01*
X99507711Y-94037630D01*
X99505024Y-94037630D01*
G37*
G36*
X98691213Y-93659129D02*
G01*
X98703957Y-93659525D01*
X98716593Y-93660260D01*
X98729121Y-93661334D01*
X98741543Y-93662747D01*
X98753857Y-93664500D01*
X98766063Y-93666591D01*
X98778163Y-93669022D01*
X98790155Y-93671792D01*
X98802039Y-93674901D01*
X98813817Y-93678349D01*
X98821587Y-93680792D01*
X98833070Y-93684576D01*
X98844347Y-93688500D01*
X98855418Y-93692567D01*
X98866283Y-93696775D01*
X98876942Y-93701125D01*
X98887395Y-93705617D01*
X98897642Y-93710250D01*
X98907682Y-93715025D01*
X98917517Y-93719941D01*
X98927145Y-93725000D01*
X98883182Y-93819277D01*
X98871824Y-93813526D01*
X98860345Y-93807996D01*
X98848743Y-93802688D01*
X98837020Y-93797601D01*
X98825174Y-93792735D01*
X98813206Y-93788090D01*
X98801116Y-93783667D01*
X98788904Y-93779466D01*
X98782707Y-93777454D01*
X98773301Y-93774681D01*
X98763762Y-93772199D01*
X98754090Y-93770010D01*
X98744285Y-93768112D01*
X98734346Y-93766506D01*
X98724275Y-93765193D01*
X98714070Y-93764171D01*
X98703733Y-93763441D01*
X98693262Y-93763003D01*
X98682658Y-93762857D01*
X98671705Y-93763060D01*
X98661134Y-93763668D01*
X98650945Y-93764682D01*
X98641137Y-93766101D01*
X98629871Y-93768339D01*
X98619155Y-93771161D01*
X98615710Y-93772211D01*
X98605798Y-93775863D01*
X98596522Y-93780271D01*
X98587881Y-93785434D01*
X98579875Y-93791353D01*
X98572505Y-93798028D01*
X98569056Y-93801662D01*
X98562621Y-93809573D01*
X98556805Y-93818343D01*
X98551608Y-93827971D01*
X98547028Y-93838458D01*
X98543684Y-93847854D01*
X98543068Y-93849792D01*
X98540281Y-93859926D01*
X98537983Y-93870801D01*
X98536174Y-93882414D01*
X98535078Y-93892237D01*
X98534296Y-93902534D01*
X98533827Y-93913303D01*
X98533670Y-93924546D01*
X98533670Y-93971685D01*
X98660188Y-93976570D01*
X98670228Y-93976959D01*
X98680107Y-93977457D01*
X98699381Y-93978775D01*
X98718011Y-93980525D01*
X98735995Y-93982706D01*
X98753334Y-93985318D01*
X98770029Y-93988362D01*
X98786078Y-93991837D01*
X98801482Y-93995743D01*
X98816242Y-94000080D01*
X98830356Y-94004848D01*
X98843826Y-94010048D01*
X98856651Y-94015679D01*
X98868830Y-94021741D01*
X98880365Y-94028235D01*
X98891255Y-94035159D01*
X98901500Y-94042515D01*
X98911112Y-94050290D01*
X98920104Y-94058471D01*
X98928476Y-94067059D01*
X98936228Y-94076053D01*
X98943360Y-94085453D01*
X98949871Y-94095260D01*
X98955763Y-94105474D01*
X98961034Y-94116093D01*
X98965685Y-94127120D01*
X98969716Y-94138552D01*
X98973127Y-94150391D01*
X98975918Y-94162637D01*
X98978088Y-94175289D01*
X98979638Y-94188347D01*
X98980569Y-94201812D01*
X98980879Y-94215683D01*
X98980735Y-94226400D01*
X98980303Y-94236841D01*
X98979584Y-94247008D01*
X98978578Y-94256899D01*
X98976788Y-94269661D01*
X98974486Y-94281934D01*
X98971674Y-94293719D01*
X98968350Y-94305015D01*
X98964515Y-94315823D01*
X98960168Y-94326161D01*
X98955432Y-94336049D01*
X98950306Y-94345487D01*
X98944792Y-94354474D01*
X98938888Y-94363011D01*
X98932595Y-94371098D01*
X98925913Y-94378735D01*
X98918841Y-94385921D01*
X98911350Y-94392656D01*
X98903530Y-94398942D01*
X98895382Y-94404777D01*
X98886906Y-94410162D01*
X98878102Y-94415096D01*
X98868970Y-94419580D01*
X98859509Y-94423614D01*
X98849720Y-94427198D01*
X98839649Y-94430346D01*
X98829341Y-94433075D01*
X98818797Y-94435384D01*
X98808016Y-94437273D01*
X98796998Y-94438742D01*
X98785744Y-94439791D01*
X98774253Y-94440421D01*
X98762526Y-94440631D01*
X98751821Y-94440524D01*
X98741444Y-94440204D01*
X98731396Y-94439669D01*
X98719297Y-94438701D01*
X98707711Y-94437399D01*
X98696638Y-94435762D01*
X98686078Y-94433792D01*
X98675929Y-94431470D01*
X98666090Y-94428779D01*
X98656561Y-94425717D01*
X98647342Y-94422286D01*
X98636689Y-94417681D01*
X98626482Y-94412543D01*
X98621481Y-94409772D01*
X98611698Y-94403819D01*
X98602207Y-94397316D01*
X98593008Y-94390264D01*
X98584101Y-94382662D01*
X98576901Y-94375907D01*
X98574063Y-94373065D01*
X98566975Y-94365667D01*
X98559900Y-94357852D01*
X98552836Y-94349619D01*
X98545784Y-94340969D01*
X98538744Y-94331902D01*
X98531716Y-94322418D01*
X98526099Y-94322418D01*
X98500697Y-94425000D01*
X98410572Y-94425000D01*
X98410572Y-94057658D01*
X98534891Y-94057658D01*
X98534891Y-94125069D01*
X98534906Y-94128414D01*
X98535124Y-94138285D01*
X98535823Y-94151066D01*
X98536986Y-94163412D01*
X98538616Y-94175322D01*
X98540711Y-94186798D01*
X98543272Y-94197838D01*
X98546298Y-94208444D01*
X98549790Y-94218614D01*
X98553633Y-94228357D01*
X98557835Y-94237681D01*
X98562395Y-94246584D01*
X98568600Y-94257123D01*
X98575366Y-94267006D01*
X98582692Y-94276233D01*
X98590579Y-94284804D01*
X98593883Y-94288019D01*
X98602468Y-94295607D01*
X98611519Y-94302550D01*
X98621034Y-94308849D01*
X98631015Y-94314504D01*
X98641461Y-94319516D01*
X98652372Y-94323883D01*
X98656854Y-94325451D01*
X98668277Y-94328927D01*
X98680010Y-94331771D01*
X98689619Y-94333592D01*
X98699427Y-94335007D01*
X98709433Y-94336019D01*
X98719638Y-94336626D01*
X98730041Y-94336828D01*
X98733410Y-94336799D01*
X98743272Y-94336370D01*
X98755855Y-94334996D01*
X98767788Y-94332706D01*
X98779073Y-94329501D01*
X98789709Y-94325379D01*
X98799696Y-94320341D01*
X98809035Y-94314388D01*
X98817725Y-94307519D01*
X98825510Y-94299672D01*
X98832257Y-94290788D01*
X98837966Y-94280866D01*
X98842637Y-94269905D01*
X98846270Y-94257907D01*
X98848314Y-94248227D01*
X98849774Y-94237963D01*
X98850650Y-94227115D01*
X98850942Y-94215683D01*
X98850673Y-94205018D01*
X98849868Y-94194699D01*
X98848527Y-94184725D01*
X98846648Y-94175097D01*
X98843686Y-94164000D01*
X98839951Y-94153401D01*
X98838522Y-94149984D01*
X98833585Y-94140121D01*
X98827669Y-94130841D01*
X98820774Y-94122146D01*
X98812900Y-94114034D01*
X98804047Y-94106507D01*
X98795774Y-94100615D01*
X98786678Y-94095153D01*
X98776759Y-94090121D01*
X98766018Y-94085517D01*
X98756832Y-94082144D01*
X98747119Y-94079045D01*
X98736880Y-94076221D01*
X98734235Y-94075542D01*
X98723269Y-94072989D01*
X98711685Y-94070695D01*
X98699482Y-94068661D01*
X98686661Y-94066887D01*
X98676640Y-94065726D01*
X98666271Y-94064711D01*
X98655554Y-94063843D01*
X98644489Y-94063120D01*
X98633077Y-94062543D01*
X98534891Y-94057658D01*
X98410572Y-94057658D01*
X98410572Y-93909891D01*
X98410588Y-93905713D01*
X98410831Y-93893413D01*
X98411366Y-93881464D01*
X98412194Y-93869868D01*
X98413313Y-93858624D01*
X98414724Y-93847732D01*
X98416427Y-93837191D01*
X98418422Y-93827003D01*
X98420709Y-93817167D01*
X98423288Y-93807683D01*
X98427180Y-93795586D01*
X98431538Y-93784003D01*
X98436431Y-93772947D01*
X98441858Y-93762418D01*
X98447819Y-93752416D01*
X98454314Y-93742940D01*
X98461344Y-93733991D01*
X98468908Y-93725568D01*
X98477006Y-93717672D01*
X98479099Y-93715780D01*
X98487827Y-93708537D01*
X98497120Y-93701813D01*
X98506978Y-93695607D01*
X98517400Y-93689921D01*
X98528387Y-93684754D01*
X98539939Y-93680106D01*
X98552056Y-93675976D01*
X98561514Y-93673220D01*
X98567969Y-93671505D01*
X98577931Y-93669139D01*
X98588228Y-93667022D01*
X98598860Y-93665155D01*
X98609826Y-93663536D01*
X98621128Y-93662167D01*
X98632764Y-93661046D01*
X98644735Y-93660174D01*
X98657041Y-93659552D01*
X98669682Y-93659178D01*
X98682658Y-93659054D01*
X98691213Y-93659129D01*
G37*
G36*
X97955303Y-94336828D02*
G01*
X97944857Y-94336626D01*
X97934284Y-94336082D01*
X97927704Y-94335607D01*
X97917101Y-94334541D01*
X97906787Y-94333361D01*
X97897662Y-94332187D01*
X97887197Y-94330470D01*
X97877420Y-94328615D01*
X97871284Y-94327302D01*
X97861767Y-94325045D01*
X97852965Y-94322418D01*
X97852965Y-94418405D01*
X97862457Y-94422298D01*
X97872333Y-94425671D01*
X97875680Y-94426709D01*
X97885430Y-94429448D01*
X97895872Y-94431957D01*
X97905966Y-94434036D01*
X97916337Y-94435878D01*
X97926994Y-94437433D01*
X97936830Y-94438588D01*
X97940160Y-94438921D01*
X97950131Y-94439748D01*
X97959987Y-94440304D01*
X97970801Y-94440604D01*
X97975087Y-94440631D01*
X97985673Y-94440459D01*
X97996061Y-94439944D01*
X98006251Y-94439085D01*
X98016242Y-94437883D01*
X98026034Y-94436338D01*
X98035628Y-94434449D01*
X98047342Y-94431604D01*
X98054221Y-94429640D01*
X98065349Y-94425818D01*
X98075989Y-94421220D01*
X98086139Y-94415848D01*
X98095800Y-94409700D01*
X98104972Y-94402777D01*
X98113655Y-94395079D01*
X98116992Y-94391782D01*
X98124961Y-94382922D01*
X98130941Y-94375163D01*
X98136570Y-94366809D01*
X98141848Y-94357860D01*
X98146775Y-94348315D01*
X98151350Y-94338175D01*
X98155575Y-94327440D01*
X98158513Y-94318998D01*
X98162062Y-94307149D01*
X98165138Y-94294559D01*
X98167135Y-94284630D01*
X98168865Y-94274285D01*
X98170329Y-94263524D01*
X98171527Y-94252347D01*
X98172458Y-94240752D01*
X98173124Y-94228742D01*
X98173523Y-94216315D01*
X98173656Y-94203471D01*
X98173656Y-93764567D01*
X98280146Y-93764567D01*
X98280146Y-93711078D01*
X98173656Y-93659542D01*
X98120167Y-93501517D01*
X98048115Y-93501517D01*
X98048115Y-93674685D01*
X97858339Y-93674685D01*
X97858339Y-93764567D01*
X98048115Y-93764567D01*
X98048115Y-94202739D01*
X98047926Y-94214951D01*
X98047360Y-94226584D01*
X98046415Y-94237637D01*
X98045093Y-94248110D01*
X98043393Y-94258004D01*
X98040538Y-94270295D01*
X98037012Y-94281555D01*
X98032814Y-94291784D01*
X98027944Y-94300984D01*
X98026622Y-94303122D01*
X98020753Y-94311022D01*
X98012192Y-94319416D01*
X98002272Y-94326163D01*
X97993357Y-94330376D01*
X97983572Y-94333536D01*
X97972917Y-94335643D01*
X97961392Y-94336696D01*
X97955303Y-94336828D01*
G37*
G36*
X97265073Y-94425000D02*
G01*
X97772609Y-94425000D01*
X97772609Y-94343178D01*
X97404535Y-93764567D01*
X97750139Y-93764567D01*
X97750139Y-93674685D01*
X97277529Y-93674685D01*
X97277529Y-93770673D01*
X97637299Y-94335118D01*
X97265073Y-94335118D01*
X97265073Y-94425000D01*
G37*
G36*
X96831617Y-93659159D02*
G01*
X96844378Y-93659710D01*
X96856928Y-93660733D01*
X96869267Y-93662229D01*
X96881397Y-93664196D01*
X96893316Y-93666636D01*
X96905024Y-93669549D01*
X96916523Y-93672933D01*
X96927811Y-93676790D01*
X96938888Y-93681119D01*
X96949755Y-93685921D01*
X96956867Y-93689345D01*
X96967298Y-93694842D01*
X96977446Y-93700774D01*
X96987311Y-93707139D01*
X96996892Y-93713937D01*
X97006190Y-93721169D01*
X97015205Y-93728835D01*
X97023936Y-93736934D01*
X97032384Y-93745467D01*
X97040548Y-93754434D01*
X97048429Y-93763834D01*
X97053487Y-93770303D01*
X97060805Y-93780335D01*
X97067801Y-93790762D01*
X97074475Y-93801584D01*
X97080827Y-93812801D01*
X97086857Y-93824413D01*
X97092565Y-93836420D01*
X97097951Y-93848822D01*
X97103015Y-93861619D01*
X97107757Y-93874811D01*
X97112177Y-93888398D01*
X97113574Y-93893012D01*
X97117500Y-93907086D01*
X97119896Y-93916662D01*
X97122114Y-93926393D01*
X97124155Y-93936278D01*
X97126018Y-93946318D01*
X97127704Y-93956512D01*
X97129213Y-93966861D01*
X97130544Y-93977364D01*
X97131697Y-93988022D01*
X97132673Y-93998835D01*
X97133472Y-94009802D01*
X97134093Y-94020924D01*
X97134536Y-94032200D01*
X97134803Y-94043631D01*
X97134891Y-94055216D01*
X97134795Y-94066737D01*
X97134506Y-94078098D01*
X97134024Y-94089299D01*
X97133350Y-94100340D01*
X97132482Y-94111220D01*
X97131422Y-94121940D01*
X97130170Y-94132500D01*
X97128724Y-94142899D01*
X97127086Y-94153138D01*
X97125255Y-94163217D01*
X97123232Y-94173136D01*
X97121015Y-94182894D01*
X97118606Y-94192492D01*
X97114631Y-94206588D01*
X97110223Y-94220324D01*
X97107060Y-94229240D01*
X97102019Y-94242274D01*
X97096622Y-94254900D01*
X97090868Y-94267118D01*
X97084758Y-94278928D01*
X97078291Y-94290330D01*
X97071468Y-94301325D01*
X97064289Y-94311911D01*
X97056754Y-94322090D01*
X97048862Y-94331861D01*
X97040614Y-94341224D01*
X97034898Y-94347209D01*
X97026070Y-94355847D01*
X97016937Y-94364076D01*
X97007500Y-94371898D01*
X96997758Y-94379312D01*
X96987710Y-94386318D01*
X96977359Y-94392916D01*
X96966702Y-94399106D01*
X96955740Y-94404889D01*
X96944474Y-94410263D01*
X96932903Y-94415230D01*
X96925036Y-94418306D01*
X96913047Y-94422548D01*
X96900830Y-94426343D01*
X96888386Y-94429692D01*
X96875714Y-94432594D01*
X96862815Y-94435050D01*
X96849688Y-94437059D01*
X96836334Y-94438622D01*
X96822752Y-94439738D01*
X96808942Y-94440408D01*
X96794905Y-94440631D01*
X96792712Y-94440628D01*
X96781905Y-94440537D01*
X96771360Y-94440314D01*
X96761078Y-94439959D01*
X96751057Y-94439474D01*
X96741300Y-94438857D01*
X96729937Y-94437944D01*
X96726220Y-94437594D01*
X96715160Y-94436372D01*
X96704238Y-94434892D01*
X96693453Y-94433155D01*
X96682805Y-94431160D01*
X96672295Y-94428907D01*
X96668821Y-94428131D01*
X96658465Y-94425641D01*
X96648213Y-94422910D01*
X96638063Y-94419939D01*
X96628017Y-94416728D01*
X96618073Y-94413276D01*
X96614743Y-94412042D01*
X96604716Y-94408193D01*
X96594639Y-94404120D01*
X96584509Y-94399823D01*
X96574328Y-94395304D01*
X96564096Y-94390561D01*
X96564096Y-94279187D01*
X96567451Y-94280734D01*
X96577483Y-94285262D01*
X96587464Y-94289618D01*
X96597393Y-94293803D01*
X96607270Y-94297816D01*
X96617096Y-94301657D01*
X96620340Y-94302866D01*
X96630163Y-94306343D01*
X96640124Y-94309598D01*
X96650222Y-94312629D01*
X96660457Y-94315437D01*
X96670830Y-94318021D01*
X96674319Y-94318833D01*
X96684889Y-94321120D01*
X96695614Y-94323184D01*
X96706493Y-94325024D01*
X96717527Y-94326641D01*
X96728715Y-94328035D01*
X96730583Y-94328245D01*
X96741997Y-94329367D01*
X96751785Y-94330119D01*
X96761823Y-94330703D01*
X96772112Y-94331121D01*
X96782650Y-94331371D01*
X96793440Y-94331454D01*
X96806215Y-94331212D01*
X96818589Y-94330485D01*
X96830563Y-94329273D01*
X96842136Y-94327577D01*
X96853308Y-94325396D01*
X96864079Y-94322730D01*
X96874450Y-94319580D01*
X96884420Y-94315945D01*
X96893990Y-94311825D01*
X96903158Y-94307221D01*
X96911926Y-94302132D01*
X96920293Y-94296558D01*
X96928260Y-94290500D01*
X96935826Y-94283957D01*
X96942991Y-94276929D01*
X96949755Y-94269417D01*
X96956128Y-94261361D01*
X96962116Y-94252762D01*
X96967721Y-94243622D01*
X96972943Y-94233941D01*
X96977781Y-94223717D01*
X96982236Y-94212951D01*
X96986307Y-94201643D01*
X96989994Y-94189794D01*
X96993298Y-94177402D01*
X96996219Y-94164469D01*
X96998756Y-94150993D01*
X97000909Y-94136976D01*
X97002679Y-94122417D01*
X97004065Y-94107316D01*
X97005068Y-94091673D01*
X97005687Y-94075488D01*
X96530390Y-94075488D01*
X96530390Y-93997575D01*
X96530469Y-93988163D01*
X96530885Y-93974241D01*
X96531029Y-93971685D01*
X96664968Y-93971685D01*
X97003000Y-93971685D01*
X97001905Y-93959114D01*
X97000512Y-93946925D01*
X96998821Y-93935117D01*
X96996833Y-93923691D01*
X96994547Y-93912647D01*
X96991963Y-93901984D01*
X96989082Y-93891703D01*
X96985903Y-93881803D01*
X96982427Y-93872286D01*
X96978652Y-93863149D01*
X96972433Y-93850161D01*
X96965543Y-93838031D01*
X96957984Y-93826759D01*
X96949755Y-93816346D01*
X96943918Y-93809869D01*
X96934683Y-93800937D01*
X96924873Y-93792945D01*
X96914487Y-93785893D01*
X96903527Y-93779781D01*
X96891990Y-93774610D01*
X96879879Y-93770379D01*
X96867192Y-93767088D01*
X96853930Y-93764738D01*
X96840093Y-93763327D01*
X96825680Y-93762857D01*
X96817819Y-93762990D01*
X96807671Y-93763582D01*
X96795524Y-93764987D01*
X96783972Y-93767131D01*
X96773017Y-93770015D01*
X96762658Y-93773638D01*
X96752896Y-93778000D01*
X96749152Y-93779912D01*
X96740160Y-93785126D01*
X96731692Y-93790960D01*
X96723750Y-93797415D01*
X96716332Y-93804489D01*
X96709438Y-93812184D01*
X96703070Y-93820498D01*
X96699496Y-93825726D01*
X96693941Y-93834878D01*
X96688887Y-93844579D01*
X96684334Y-93854828D01*
X96680281Y-93865626D01*
X96676730Y-93876972D01*
X96674249Y-93886444D01*
X96672074Y-93896218D01*
X96670189Y-93906243D01*
X96668594Y-93916520D01*
X96667288Y-93927049D01*
X96666273Y-93937830D01*
X96665548Y-93948863D01*
X96665113Y-93960148D01*
X96664968Y-93971685D01*
X96531029Y-93971685D01*
X96531657Y-93960556D01*
X96532786Y-93947108D01*
X96534271Y-93933895D01*
X96536112Y-93920918D01*
X96538309Y-93908178D01*
X96540863Y-93895673D01*
X96543773Y-93883405D01*
X96547040Y-93871373D01*
X96550662Y-93859577D01*
X96553265Y-93851832D01*
X96557427Y-93840479D01*
X96561898Y-93829444D01*
X96566678Y-93818726D01*
X96571767Y-93808326D01*
X96577165Y-93798244D01*
X96582872Y-93788480D01*
X96588888Y-93779033D01*
X96595214Y-93769904D01*
X96601848Y-93761093D01*
X96608792Y-93752599D01*
X96613560Y-93747091D01*
X96620958Y-93739126D01*
X96628652Y-93731518D01*
X96636643Y-93724266D01*
X96644930Y-93717370D01*
X96653513Y-93710830D01*
X96662392Y-93704647D01*
X96671568Y-93698820D01*
X96681039Y-93693350D01*
X96690808Y-93688236D01*
X96700872Y-93683478D01*
X96707703Y-93680521D01*
X96718150Y-93676442D01*
X96728838Y-93672793D01*
X96739766Y-93669573D01*
X96750934Y-93666782D01*
X96762343Y-93664421D01*
X96773992Y-93662489D01*
X96785882Y-93660986D01*
X96798012Y-93659913D01*
X96810382Y-93659269D01*
X96822993Y-93659054D01*
X96831617Y-93659159D01*
G37*
G36*
X102744661Y-95104581D02*
G01*
X102744661Y-95753534D01*
X102744861Y-95768092D01*
X102745460Y-95782457D01*
X102746458Y-95796628D01*
X102747855Y-95810607D01*
X102749652Y-95824392D01*
X102751848Y-95837984D01*
X102754443Y-95851383D01*
X102757438Y-95864588D01*
X102760832Y-95877601D01*
X102764625Y-95890420D01*
X102767376Y-95898859D01*
X102771836Y-95911252D01*
X102776701Y-95923336D01*
X102781969Y-95935111D01*
X102787640Y-95946577D01*
X102793715Y-95957734D01*
X102800194Y-95968582D01*
X102807076Y-95979121D01*
X102814362Y-95989351D01*
X102822051Y-95999271D01*
X102830144Y-96008882D01*
X102835764Y-96015118D01*
X102844533Y-96024182D01*
X102853715Y-96032872D01*
X102863310Y-96041189D01*
X102873316Y-96049133D01*
X102883734Y-96056703D01*
X102894565Y-96063899D01*
X102905808Y-96070722D01*
X102917463Y-96077171D01*
X102929530Y-96083247D01*
X102942009Y-96088949D01*
X102950558Y-96092543D01*
X102963687Y-96097563D01*
X102977245Y-96102089D01*
X102991233Y-96106121D01*
X103000796Y-96108535D01*
X103010551Y-96110729D01*
X103020496Y-96112704D01*
X103030632Y-96114459D01*
X103040959Y-96115995D01*
X103051477Y-96117312D01*
X103062185Y-96118409D01*
X103073085Y-96119287D01*
X103084175Y-96119945D01*
X103095456Y-96120384D01*
X103106928Y-96120604D01*
X103112735Y-96120631D01*
X103123646Y-96120528D01*
X103134396Y-96120219D01*
X103144987Y-96119704D01*
X103155416Y-96118982D01*
X103165686Y-96118055D01*
X103175795Y-96116922D01*
X103185745Y-96115582D01*
X103195533Y-96114036D01*
X103205162Y-96112285D01*
X103219304Y-96109271D01*
X103233086Y-96105793D01*
X103246507Y-96101852D01*
X103259567Y-96097447D01*
X103268073Y-96094253D01*
X103280522Y-96089112D01*
X103292588Y-96083580D01*
X103304273Y-96077657D01*
X103315575Y-96071344D01*
X103326495Y-96064640D01*
X103337033Y-96057545D01*
X103347189Y-96050059D01*
X103356963Y-96042183D01*
X103366354Y-96033916D01*
X103375364Y-96025259D01*
X103381158Y-96019270D01*
X103389526Y-96009985D01*
X103397504Y-96000357D01*
X103405091Y-95990385D01*
X103412287Y-95980069D01*
X103419093Y-95969410D01*
X103425508Y-95958408D01*
X103431532Y-95947062D01*
X103437166Y-95935373D01*
X103442409Y-95923340D01*
X103447261Y-95910964D01*
X103450279Y-95902522D01*
X103454425Y-95889610D01*
X103458164Y-95876427D01*
X103461495Y-95862974D01*
X103464418Y-95849251D01*
X103466933Y-95835256D01*
X103469040Y-95820992D01*
X103470740Y-95806457D01*
X103471646Y-95796616D01*
X103472371Y-95786656D01*
X103472915Y-95776575D01*
X103473278Y-95766374D01*
X103473459Y-95756053D01*
X103473482Y-95750847D01*
X103473482Y-95106046D01*
X103345254Y-95106046D01*
X103345254Y-95756953D01*
X103345022Y-95771702D01*
X103344327Y-95786030D01*
X103343168Y-95799935D01*
X103341545Y-95813419D01*
X103339458Y-95826482D01*
X103336908Y-95839122D01*
X103333894Y-95851341D01*
X103330416Y-95863138D01*
X103326475Y-95874513D01*
X103322070Y-95885467D01*
X103317202Y-95895999D01*
X103311869Y-95906109D01*
X103306073Y-95915798D01*
X103299814Y-95925065D01*
X103293090Y-95933910D01*
X103285903Y-95942334D01*
X103278217Y-95950290D01*
X103270058Y-95957733D01*
X103261425Y-95964662D01*
X103252320Y-95971078D01*
X103242741Y-95976981D01*
X103232689Y-95982371D01*
X103222163Y-95987247D01*
X103211165Y-95991610D01*
X103199693Y-95995459D01*
X103187748Y-95998796D01*
X103175330Y-96001619D01*
X103162438Y-96003929D01*
X103149074Y-96005725D01*
X103135236Y-96007009D01*
X103120925Y-96007778D01*
X103106140Y-96008035D01*
X103094842Y-96007874D01*
X103083844Y-96007391D01*
X103073146Y-96006586D01*
X103062749Y-96005459D01*
X103052653Y-96004010D01*
X103042857Y-96002239D01*
X103030263Y-95999377D01*
X103018203Y-95995942D01*
X103006678Y-95991935D01*
X103001116Y-95989717D01*
X102990373Y-95984843D01*
X102980126Y-95979504D01*
X102970376Y-95973700D01*
X102961121Y-95967430D01*
X102952363Y-95960694D01*
X102944101Y-95953493D01*
X102936334Y-95945826D01*
X102929064Y-95937693D01*
X102922210Y-95929068D01*
X102915814Y-95920047D01*
X102909876Y-95910628D01*
X102904396Y-95900812D01*
X102899374Y-95890600D01*
X102894809Y-95879991D01*
X102890703Y-95868985D01*
X102887055Y-95857581D01*
X102883837Y-95845839D01*
X102881025Y-95833814D01*
X102878617Y-95821506D01*
X102876613Y-95808916D01*
X102875014Y-95796044D01*
X102874080Y-95786204D01*
X102873374Y-95776206D01*
X102872895Y-95766048D01*
X102872644Y-95755732D01*
X102872644Y-95104581D01*
X102744661Y-95104581D01*
G37*
G36*
X101957466Y-95838531D02*
G01*
X101957675Y-95850865D01*
X101958299Y-95862954D01*
X101959340Y-95874798D01*
X101960798Y-95886398D01*
X101962672Y-95897753D01*
X101964963Y-95908864D01*
X101967669Y-95919730D01*
X101970793Y-95930351D01*
X101974333Y-95940727D01*
X101978289Y-95950858D01*
X101981158Y-95957477D01*
X101985778Y-95967181D01*
X101990755Y-95976602D01*
X101996088Y-95985740D01*
X102001777Y-95994594D01*
X102007823Y-96003165D01*
X102014225Y-96011453D01*
X102020984Y-96019457D01*
X102028098Y-96027178D01*
X102035569Y-96034615D01*
X102043397Y-96041769D01*
X102048813Y-96046381D01*
X102057226Y-96053052D01*
X102065978Y-96059419D01*
X102075069Y-96065480D01*
X102084499Y-96071237D01*
X102094269Y-96076689D01*
X102104377Y-96081836D01*
X102114825Y-96086678D01*
X102125612Y-96091215D01*
X102136738Y-96095448D01*
X102148204Y-96099375D01*
X102156036Y-96101824D01*
X102167993Y-96105185D01*
X102180233Y-96108216D01*
X102192757Y-96110915D01*
X102205564Y-96113285D01*
X102218654Y-96115323D01*
X102232028Y-96117031D01*
X102245685Y-96118409D01*
X102259625Y-96119456D01*
X102273849Y-96120172D01*
X102288356Y-96120558D01*
X102298185Y-96120631D01*
X102312385Y-96120526D01*
X102326409Y-96120210D01*
X102340258Y-96119684D01*
X102353930Y-96118948D01*
X102367426Y-96118001D01*
X102380746Y-96116844D01*
X102393890Y-96115477D01*
X102406858Y-96113899D01*
X102419650Y-96112111D01*
X102432266Y-96110112D01*
X102440579Y-96108663D01*
X102452800Y-96106318D01*
X102464644Y-96103772D01*
X102476110Y-96101023D01*
X102487199Y-96098073D01*
X102497909Y-96094921D01*
X102508242Y-96091567D01*
X102518196Y-96088012D01*
X102527773Y-96084254D01*
X102536973Y-96080295D01*
X102548650Y-96074702D01*
X102551465Y-96073248D01*
X102551465Y-95951127D01*
X102542449Y-95955331D01*
X102532986Y-95959519D01*
X102523077Y-95963689D01*
X102512722Y-95967842D01*
X102501920Y-95971978D01*
X102498220Y-95973353D01*
X102488831Y-95976657D01*
X102479286Y-95979855D01*
X102469587Y-95982945D01*
X102459733Y-95985927D01*
X102449723Y-95988803D01*
X102439559Y-95991571D01*
X102435450Y-95992648D01*
X102425098Y-95995171D01*
X102414651Y-95997552D01*
X102404108Y-95999789D01*
X102393470Y-96001883D01*
X102382737Y-96003834D01*
X102371908Y-96005642D01*
X102367550Y-96006325D01*
X102356577Y-96007803D01*
X102345640Y-96009030D01*
X102334738Y-96010007D01*
X102323873Y-96010733D01*
X102313043Y-96011209D01*
X102302249Y-96011434D01*
X102297941Y-96011454D01*
X102284426Y-96011292D01*
X102271360Y-96010806D01*
X102258743Y-96009995D01*
X102246574Y-96008859D01*
X102234853Y-96007400D01*
X102223580Y-96005616D01*
X102212756Y-96003507D01*
X102202381Y-96001074D01*
X102192454Y-95998317D01*
X102182975Y-95995235D01*
X102169598Y-95990005D01*
X102157229Y-95984044D01*
X102145870Y-95977354D01*
X102135519Y-95969933D01*
X102126135Y-95961832D01*
X102117673Y-95953100D01*
X102110135Y-95943737D01*
X102103520Y-95933743D01*
X102097828Y-95923118D01*
X102093058Y-95911862D01*
X102089212Y-95899974D01*
X102086289Y-95887455D01*
X102084289Y-95874306D01*
X102083212Y-95860525D01*
X102083007Y-95850987D01*
X102083252Y-95839624D01*
X102083985Y-95828738D01*
X102085208Y-95818329D01*
X102086919Y-95808397D01*
X102089618Y-95797108D01*
X102093021Y-95786507D01*
X102097309Y-95776320D01*
X102102661Y-95766460D01*
X102109078Y-95756926D01*
X102115239Y-95749230D01*
X102122139Y-95741761D01*
X102128192Y-95735949D01*
X102136395Y-95728810D01*
X102145432Y-95721742D01*
X102155304Y-95714747D01*
X102163803Y-95709202D01*
X102172837Y-95703702D01*
X102182404Y-95698249D01*
X102192506Y-95692841D01*
X102195115Y-95691496D01*
X102205903Y-95686005D01*
X102217387Y-95680399D01*
X102226455Y-95676119D01*
X102235914Y-95671775D01*
X102245763Y-95667366D01*
X102256004Y-95662893D01*
X102266635Y-95658356D01*
X102277656Y-95653754D01*
X102289069Y-95649088D01*
X102300872Y-95644357D01*
X102312181Y-95639829D01*
X102323211Y-95635218D01*
X102333963Y-95630527D01*
X102344435Y-95625753D01*
X102354628Y-95620898D01*
X102364542Y-95615961D01*
X102374177Y-95610943D01*
X102383533Y-95605843D01*
X102392610Y-95600662D01*
X102401407Y-95595399D01*
X102407117Y-95591845D01*
X102415406Y-95586425D01*
X102426031Y-95579004D01*
X102436167Y-95571362D01*
X102445815Y-95563499D01*
X102454974Y-95555414D01*
X102463644Y-95547108D01*
X102471827Y-95538580D01*
X102479520Y-95529831D01*
X102481367Y-95527609D01*
X102488401Y-95518546D01*
X102494969Y-95509184D01*
X102501071Y-95499525D01*
X102506707Y-95489569D01*
X102511879Y-95479314D01*
X102516584Y-95468762D01*
X102520824Y-95457912D01*
X102524598Y-95446765D01*
X102527861Y-95435217D01*
X102530689Y-95423287D01*
X102533082Y-95410976D01*
X102535040Y-95398283D01*
X102536222Y-95388513D01*
X102537161Y-95378528D01*
X102537854Y-95368328D01*
X102538303Y-95357914D01*
X102538506Y-95347285D01*
X102538520Y-95343695D01*
X102538327Y-95332455D01*
X102537747Y-95321452D01*
X102536781Y-95310685D01*
X102535429Y-95300154D01*
X102533690Y-95289860D01*
X102531565Y-95279801D01*
X102529053Y-95269979D01*
X102526155Y-95260392D01*
X102522871Y-95251042D01*
X102519200Y-95241928D01*
X102516538Y-95235983D01*
X102510764Y-95224370D01*
X102504433Y-95213223D01*
X102497545Y-95202541D01*
X102490099Y-95192325D01*
X102482096Y-95182574D01*
X102473536Y-95173289D01*
X102464419Y-95164470D01*
X102454745Y-95156116D01*
X102444551Y-95148178D01*
X102433877Y-95140729D01*
X102425556Y-95135462D01*
X102416964Y-95130471D01*
X102408102Y-95125754D01*
X102398970Y-95121311D01*
X102389567Y-95117144D01*
X102379893Y-95113251D01*
X102369949Y-95109634D01*
X102359734Y-95106290D01*
X102349240Y-95103191D01*
X102338548Y-95100397D01*
X102327659Y-95097908D01*
X102316572Y-95095723D01*
X102305288Y-95093843D01*
X102293806Y-95092268D01*
X102282127Y-95090998D01*
X102270250Y-95090033D01*
X102258176Y-95089373D01*
X102245904Y-95089017D01*
X102237613Y-95088949D01*
X102227450Y-95089010D01*
X102217417Y-95089193D01*
X102207514Y-95089499D01*
X102197740Y-95089926D01*
X102183323Y-95090796D01*
X102169198Y-95091941D01*
X102155365Y-95093361D01*
X102141824Y-95095055D01*
X102128575Y-95097025D01*
X102115617Y-95099269D01*
X102102952Y-95101787D01*
X102090579Y-95104581D01*
X102078478Y-95107541D01*
X102066631Y-95110652D01*
X102055036Y-95113912D01*
X102043696Y-95117323D01*
X102032608Y-95120885D01*
X102021774Y-95124596D01*
X102011193Y-95128458D01*
X102000865Y-95132470D01*
X101990791Y-95136633D01*
X101980970Y-95140945D01*
X101974563Y-95143904D01*
X102020481Y-95251127D01*
X102031842Y-95246203D01*
X102043577Y-95241448D01*
X102055686Y-95236861D01*
X102065014Y-95233531D01*
X102074551Y-95230295D01*
X102084299Y-95227154D01*
X102094258Y-95224107D01*
X102104426Y-95221155D01*
X102114805Y-95218297D01*
X102121842Y-95216444D01*
X102132501Y-95213781D01*
X102143228Y-95211381D01*
X102154025Y-95209242D01*
X102164890Y-95207365D01*
X102175823Y-95205750D01*
X102186826Y-95204397D01*
X102197897Y-95203306D01*
X102209036Y-95202476D01*
X102220245Y-95201909D01*
X102231522Y-95201603D01*
X102239078Y-95201545D01*
X102249403Y-95201697D01*
X102259434Y-95202152D01*
X102273930Y-95203404D01*
X102287765Y-95205338D01*
X102300938Y-95207954D01*
X102313450Y-95211254D01*
X102325301Y-95215236D01*
X102336491Y-95219901D01*
X102347020Y-95225248D01*
X102356887Y-95231278D01*
X102366094Y-95237991D01*
X102369016Y-95240380D01*
X102377222Y-95247856D01*
X102384620Y-95255813D01*
X102391212Y-95264251D01*
X102396997Y-95273169D01*
X102401974Y-95282569D01*
X102406144Y-95292449D01*
X102409507Y-95302811D01*
X102412063Y-95313653D01*
X102413812Y-95324976D01*
X102414754Y-95336779D01*
X102414933Y-95344916D01*
X102414683Y-95356871D01*
X102413931Y-95368314D01*
X102412679Y-95379245D01*
X102410926Y-95389662D01*
X102408672Y-95399566D01*
X102405917Y-95408958D01*
X102404675Y-95412571D01*
X102400347Y-95423015D01*
X102395058Y-95433099D01*
X102388807Y-95442822D01*
X102382863Y-95450649D01*
X102376251Y-95458225D01*
X102370481Y-95464106D01*
X102362549Y-95471215D01*
X102353866Y-95478193D01*
X102344431Y-95485040D01*
X102334245Y-95491755D01*
X102325556Y-95497033D01*
X102316385Y-95502227D01*
X102306734Y-95507337D01*
X102296559Y-95512440D01*
X102285820Y-95517611D01*
X102274516Y-95522850D01*
X102262648Y-95528159D01*
X102253376Y-95532185D01*
X102243786Y-95536250D01*
X102233878Y-95540354D01*
X102223653Y-95544497D01*
X102213110Y-95548678D01*
X102209525Y-95550080D01*
X102197939Y-95554762D01*
X102186627Y-95559465D01*
X102175590Y-95564190D01*
X102164829Y-95568936D01*
X102154341Y-95573704D01*
X102144129Y-95578493D01*
X102134191Y-95583304D01*
X102124528Y-95588136D01*
X102115140Y-95592989D01*
X102106027Y-95597865D01*
X102100104Y-95601127D01*
X102091403Y-95606043D01*
X102082977Y-95611084D01*
X102072169Y-95617999D01*
X102061850Y-95625136D01*
X102052019Y-95632494D01*
X102042677Y-95640073D01*
X102033823Y-95647873D01*
X102025457Y-95655895D01*
X102021458Y-95659989D01*
X102013764Y-95668393D01*
X102006559Y-95677117D01*
X101999842Y-95686161D01*
X101993614Y-95695526D01*
X101987875Y-95705212D01*
X101982623Y-95715218D01*
X101977861Y-95725545D01*
X101973586Y-95736193D01*
X101969808Y-95747249D01*
X101966534Y-95758801D01*
X101963763Y-95770849D01*
X101961496Y-95783393D01*
X101960127Y-95793126D01*
X101959041Y-95803139D01*
X101958238Y-95813431D01*
X101957718Y-95824002D01*
X101957482Y-95834852D01*
X101957466Y-95838531D01*
G37*
G36*
X101760362Y-96105000D02*
G01*
X101427215Y-96105000D01*
X101417752Y-96104922D01*
X101403789Y-96104517D01*
X101390105Y-96103763D01*
X101376701Y-96102662D01*
X101363576Y-96101213D01*
X101350729Y-96099416D01*
X101338162Y-96097272D01*
X101325874Y-96094779D01*
X101313865Y-96091939D01*
X101302134Y-96088751D01*
X101290683Y-96085216D01*
X101283183Y-96082645D01*
X101272202Y-96078534D01*
X101261542Y-96074118D01*
X101251205Y-96069398D01*
X101241189Y-96064372D01*
X101231495Y-96059042D01*
X101222124Y-96053407D01*
X101213074Y-96047467D01*
X101204346Y-96041223D01*
X101195941Y-96034673D01*
X101187857Y-96027819D01*
X101182654Y-96023084D01*
X101175142Y-96015741D01*
X101167982Y-96008111D01*
X101161174Y-96000194D01*
X101154718Y-95991989D01*
X101148615Y-95983496D01*
X101142863Y-95974715D01*
X101137463Y-95965647D01*
X101132416Y-95956291D01*
X101127720Y-95946647D01*
X101123377Y-95936716D01*
X101120656Y-95929912D01*
X101116904Y-95919490D01*
X101113546Y-95908811D01*
X101110584Y-95897875D01*
X101108016Y-95886681D01*
X101105844Y-95875229D01*
X101104067Y-95863520D01*
X101102684Y-95851553D01*
X101101697Y-95839328D01*
X101101104Y-95826846D01*
X101100907Y-95814106D01*
X101100981Y-95808977D01*
X101235729Y-95808977D01*
X101235900Y-95819247D01*
X101236416Y-95829295D01*
X101237274Y-95839122D01*
X101238831Y-95851095D01*
X101240924Y-95862721D01*
X101243553Y-95874002D01*
X101246720Y-95884937D01*
X101248149Y-95889203D01*
X101252206Y-95899536D01*
X101256955Y-95909392D01*
X101262396Y-95918770D01*
X101268528Y-95927672D01*
X101275352Y-95936096D01*
X101282868Y-95944043D01*
X101291046Y-95951414D01*
X101300012Y-95958259D01*
X101309765Y-95964580D01*
X101320305Y-95970376D01*
X101329304Y-95974635D01*
X101338807Y-95978558D01*
X101348813Y-95982145D01*
X101351382Y-95982987D01*
X101362037Y-95986086D01*
X101373302Y-95988757D01*
X101385179Y-95991001D01*
X101397666Y-95992818D01*
X101407431Y-95993900D01*
X101417541Y-95994741D01*
X101427994Y-95995342D01*
X101438790Y-95995703D01*
X101449930Y-95995823D01*
X101632623Y-95995823D01*
X101632623Y-95635809D01*
X101458234Y-95635809D01*
X101454301Y-95635821D01*
X101442744Y-95636007D01*
X101431552Y-95636417D01*
X101420725Y-95637049D01*
X101410262Y-95637905D01*
X101400165Y-95638984D01*
X101387270Y-95640770D01*
X101375023Y-95642953D01*
X101363426Y-95645533D01*
X101352477Y-95648510D01*
X101342116Y-95651788D01*
X101332281Y-95655394D01*
X101322973Y-95659329D01*
X101312079Y-95664709D01*
X101302007Y-95670601D01*
X101292759Y-95677007D01*
X101284333Y-95683925D01*
X101281154Y-95686801D01*
X101273708Y-95694318D01*
X101266977Y-95702300D01*
X101260961Y-95710747D01*
X101255661Y-95719660D01*
X101251077Y-95729037D01*
X101247208Y-95738879D01*
X101245818Y-95742903D01*
X101242735Y-95753170D01*
X101240213Y-95763735D01*
X101238251Y-95774598D01*
X101236850Y-95785760D01*
X101236009Y-95797219D01*
X101235729Y-95808977D01*
X101100981Y-95808977D01*
X101101063Y-95803226D01*
X101101534Y-95792660D01*
X101102317Y-95782406D01*
X101103414Y-95772467D01*
X101105364Y-95759701D01*
X101107871Y-95747493D01*
X101110936Y-95735842D01*
X101114558Y-95724748D01*
X101118736Y-95714211D01*
X101123400Y-95704113D01*
X101128476Y-95694458D01*
X101133963Y-95685245D01*
X101139863Y-95676475D01*
X101146176Y-95668148D01*
X101152900Y-95660264D01*
X101160036Y-95652822D01*
X101167585Y-95645823D01*
X101175450Y-95639228D01*
X101183659Y-95633000D01*
X101192212Y-95627138D01*
X101201107Y-95621643D01*
X101210347Y-95616514D01*
X101219929Y-95611751D01*
X101229855Y-95607355D01*
X101240125Y-95603325D01*
X101250597Y-95599589D01*
X101261252Y-95596074D01*
X101272090Y-95592780D01*
X101283112Y-95589708D01*
X101294316Y-95586857D01*
X101305704Y-95584228D01*
X101317275Y-95581820D01*
X101329030Y-95579633D01*
X101329030Y-95572794D01*
X101317340Y-95571069D01*
X101305964Y-95568948D01*
X101294900Y-95566429D01*
X101284150Y-95563513D01*
X101273712Y-95560201D01*
X101263588Y-95556491D01*
X101253776Y-95552385D01*
X101244277Y-95547882D01*
X101241953Y-95546697D01*
X101232892Y-95541784D01*
X101224204Y-95536588D01*
X101215890Y-95531110D01*
X101207950Y-95525349D01*
X101198551Y-95517751D01*
X101189737Y-95509712D01*
X101181507Y-95501231D01*
X101178378Y-95497686D01*
X101170966Y-95488522D01*
X101164139Y-95478929D01*
X101157896Y-95468906D01*
X101152237Y-95458454D01*
X101147162Y-95447573D01*
X101142672Y-95436263D01*
X101139524Y-95426958D01*
X101136795Y-95417486D01*
X101134486Y-95407846D01*
X101132597Y-95398039D01*
X101131128Y-95388063D01*
X101130078Y-95377919D01*
X101129449Y-95367607D01*
X101129410Y-95365676D01*
X101259665Y-95365676D01*
X101259707Y-95370645D01*
X101260179Y-95382733D01*
X101261176Y-95394344D01*
X101262698Y-95405478D01*
X101264744Y-95416135D01*
X101267315Y-95426315D01*
X101270411Y-95436018D01*
X101272501Y-95441607D01*
X101276517Y-95450520D01*
X101282219Y-95460555D01*
X101288882Y-95469869D01*
X101296507Y-95478461D01*
X101305094Y-95486332D01*
X101309717Y-95490002D01*
X101318023Y-95495736D01*
X101327081Y-95500993D01*
X101336890Y-95505773D01*
X101347451Y-95510075D01*
X101358762Y-95513901D01*
X101368353Y-95516618D01*
X101375843Y-95518408D01*
X101386338Y-95520520D01*
X101397413Y-95522320D01*
X101409068Y-95523806D01*
X101421303Y-95524980D01*
X101434118Y-95525840D01*
X101444110Y-95526280D01*
X101454428Y-95526544D01*
X101465073Y-95526632D01*
X101632623Y-95526632D01*
X101632623Y-95213757D01*
X101479483Y-95213757D01*
X101465465Y-95213896D01*
X101451926Y-95214311D01*
X101438865Y-95215002D01*
X101426284Y-95215971D01*
X101414182Y-95217216D01*
X101402558Y-95218738D01*
X101391414Y-95220536D01*
X101380748Y-95222611D01*
X101370561Y-95224963D01*
X101360854Y-95227591D01*
X101347190Y-95232053D01*
X101334604Y-95237137D01*
X101323096Y-95242843D01*
X101312665Y-95249173D01*
X101303193Y-95256173D01*
X101294653Y-95263985D01*
X101287045Y-95272608D01*
X101280368Y-95282042D01*
X101274623Y-95292288D01*
X101269809Y-95303346D01*
X101265927Y-95315215D01*
X101262977Y-95327895D01*
X101260959Y-95341387D01*
X101259872Y-95355690D01*
X101259665Y-95365676D01*
X101129410Y-95365676D01*
X101129239Y-95357128D01*
X101129328Y-95348422D01*
X101129793Y-95335689D01*
X101130659Y-95323346D01*
X101131923Y-95311394D01*
X101133587Y-95299833D01*
X101135650Y-95288662D01*
X101138112Y-95277883D01*
X101140973Y-95267493D01*
X101144234Y-95257495D01*
X101147894Y-95247887D01*
X101151953Y-95238670D01*
X101153395Y-95235681D01*
X101157979Y-95226931D01*
X101162955Y-95218508D01*
X101170196Y-95207784D01*
X101178132Y-95197640D01*
X101186763Y-95188077D01*
X101196088Y-95179093D01*
X101203537Y-95172736D01*
X101211378Y-95166705D01*
X101219609Y-95161001D01*
X101225312Y-95157341D01*
X101234189Y-95152095D01*
X101243453Y-95147140D01*
X101253103Y-95142478D01*
X101263139Y-95138107D01*
X101273562Y-95134028D01*
X101284371Y-95130242D01*
X101295567Y-95126747D01*
X101307149Y-95123544D01*
X101319117Y-95120633D01*
X101331472Y-95118014D01*
X101335675Y-95117188D01*
X101348531Y-95114866D01*
X101361756Y-95112780D01*
X101375350Y-95110930D01*
X101389313Y-95109317D01*
X101403646Y-95107939D01*
X101413406Y-95107152D01*
X101423330Y-95106470D01*
X101433419Y-95105893D01*
X101443671Y-95105420D01*
X101454088Y-95105053D01*
X101464668Y-95104791D01*
X101475413Y-95104633D01*
X101486322Y-95104581D01*
X101760362Y-95104581D01*
X101760362Y-96105000D01*
G37*
G36*
X100544766Y-96105000D02*
G01*
X100453175Y-96105000D01*
X100427773Y-96011454D01*
X100419469Y-96011454D01*
X100417497Y-96014195D01*
X100411363Y-96022323D01*
X100404903Y-96030315D01*
X100398117Y-96038169D01*
X100391004Y-96045885D01*
X100383565Y-96053464D01*
X100381008Y-96055918D01*
X100373048Y-96063051D01*
X100364659Y-96069840D01*
X100355840Y-96076286D01*
X100346592Y-96082388D01*
X100336915Y-96088147D01*
X100335245Y-96089057D01*
X100324964Y-96094278D01*
X100316055Y-96098313D01*
X100306836Y-96102063D01*
X100297308Y-96105526D01*
X100287469Y-96108703D01*
X100277320Y-96111594D01*
X100268958Y-96113712D01*
X100258174Y-96115963D01*
X100247019Y-96117772D01*
X100235495Y-96119140D01*
X100223602Y-96120066D01*
X100213820Y-96120490D01*
X100203803Y-96120631D01*
X100195788Y-96120534D01*
X100183939Y-96120023D01*
X100172295Y-96119074D01*
X100160858Y-96117687D01*
X100149627Y-96115863D01*
X100138601Y-96113600D01*
X100127782Y-96110899D01*
X100117169Y-96107761D01*
X100106762Y-96104185D01*
X100096561Y-96100170D01*
X100086566Y-96095718D01*
X100080002Y-96092479D01*
X100070385Y-96087266D01*
X100061043Y-96081629D01*
X100051975Y-96075566D01*
X100043183Y-96069078D01*
X100034665Y-96062165D01*
X100026421Y-96054827D01*
X100018453Y-96047064D01*
X100010759Y-96038876D01*
X100003340Y-96030262D01*
X99996196Y-96021224D01*
X99991591Y-96014935D01*
X99984930Y-96005158D01*
X99978565Y-95994968D01*
X99972496Y-95984366D01*
X99966724Y-95973353D01*
X99961248Y-95961927D01*
X99956068Y-95950088D01*
X99951184Y-95937838D01*
X99946597Y-95925176D01*
X99942306Y-95912101D01*
X99938311Y-95898614D01*
X99937033Y-95894012D01*
X99933445Y-95879926D01*
X99931255Y-95870304D01*
X99929228Y-95860497D01*
X99927363Y-95850505D01*
X99925660Y-95840328D01*
X99924119Y-95829966D01*
X99922740Y-95819419D01*
X99921524Y-95808686D01*
X99920470Y-95797769D01*
X99919577Y-95786666D01*
X99918848Y-95775379D01*
X99918280Y-95763906D01*
X99917874Y-95752248D01*
X99917631Y-95740405D01*
X99917550Y-95728377D01*
X99917558Y-95727156D01*
X100046755Y-95727156D01*
X100046925Y-95744396D01*
X100047438Y-95761128D01*
X100048292Y-95777353D01*
X100049487Y-95793071D01*
X100051024Y-95808281D01*
X100052903Y-95822983D01*
X100055123Y-95837178D01*
X100057684Y-95850865D01*
X100060588Y-95864044D01*
X100063832Y-95876716D01*
X100067419Y-95888881D01*
X100071347Y-95900538D01*
X100075616Y-95911687D01*
X100080227Y-95922329D01*
X100085180Y-95932463D01*
X100090474Y-95942090D01*
X100093239Y-95946688D01*
X100099059Y-95955446D01*
X100105265Y-95963621D01*
X100111855Y-95971211D01*
X100118831Y-95978218D01*
X100130018Y-95987633D01*
X100142073Y-95995735D01*
X100154994Y-96002522D01*
X100164090Y-96006318D01*
X100173572Y-96009529D01*
X100183439Y-96012157D01*
X100193691Y-96014200D01*
X100204329Y-96015660D01*
X100215353Y-96016536D01*
X100226762Y-96016828D01*
X100230224Y-96016809D01*
X100240393Y-96016534D01*
X100253445Y-96015652D01*
X100265917Y-96014183D01*
X100277808Y-96012126D01*
X100289120Y-96009481D01*
X100299851Y-96006249D01*
X100310003Y-96002429D01*
X100319574Y-95998021D01*
X100328569Y-95992984D01*
X100337114Y-95987397D01*
X100345208Y-95981260D01*
X100352852Y-95974574D01*
X100360046Y-95967338D01*
X100366789Y-95959553D01*
X100373082Y-95951218D01*
X100378925Y-95942334D01*
X100381653Y-95937686D01*
X100386805Y-95927985D01*
X100391552Y-95917743D01*
X100395895Y-95906958D01*
X100399833Y-95895631D01*
X100403367Y-95883762D01*
X100406497Y-95871352D01*
X100408578Y-95861688D01*
X100410432Y-95851720D01*
X100411556Y-95844912D01*
X100413106Y-95834476D01*
X100414493Y-95823769D01*
X100415716Y-95812792D01*
X100416777Y-95801544D01*
X100417674Y-95790026D01*
X100418408Y-95778237D01*
X100418979Y-95766178D01*
X100419387Y-95753848D01*
X100419632Y-95741248D01*
X100419713Y-95728377D01*
X100419677Y-95719443D01*
X100419487Y-95706314D01*
X100419133Y-95693511D01*
X100418617Y-95681035D01*
X100417937Y-95668885D01*
X100417094Y-95657061D01*
X100416088Y-95645563D01*
X100414919Y-95634392D01*
X100413586Y-95623547D01*
X100412091Y-95613029D01*
X100410432Y-95602836D01*
X100409839Y-95599511D01*
X100407910Y-95589742D01*
X100404982Y-95577206D01*
X100401651Y-95565227D01*
X100397915Y-95553804D01*
X100393774Y-95542939D01*
X100389229Y-95532632D01*
X100384279Y-95522881D01*
X100378925Y-95513688D01*
X100373086Y-95505002D01*
X100366804Y-95496896D01*
X100360080Y-95489370D01*
X100352913Y-95482424D01*
X100345303Y-95476059D01*
X100337251Y-95470273D01*
X100328756Y-95465068D01*
X100319818Y-95460443D01*
X100315137Y-95458313D01*
X100305352Y-95454466D01*
X100295003Y-95451169D01*
X100284088Y-95448421D01*
X100272609Y-95446223D01*
X100260564Y-95444574D01*
X100247955Y-95443475D01*
X100238128Y-95443012D01*
X100227983Y-95442857D01*
X100216426Y-95443134D01*
X100205264Y-95443964D01*
X100194498Y-95445347D01*
X100184126Y-95447284D01*
X100174149Y-95449774D01*
X100164567Y-95452818D01*
X100155381Y-95456415D01*
X100142341Y-95462847D01*
X100130190Y-95470525D01*
X100118928Y-95479448D01*
X100108555Y-95489616D01*
X100102133Y-95497087D01*
X100096106Y-95505110D01*
X100090474Y-95513688D01*
X100085180Y-95522793D01*
X100080227Y-95532464D01*
X100075616Y-95542699D01*
X100071347Y-95553499D01*
X100067419Y-95564864D01*
X100063832Y-95576794D01*
X100060588Y-95589288D01*
X100057684Y-95602348D01*
X100055123Y-95615972D01*
X100052903Y-95630161D01*
X100051024Y-95644915D01*
X100049487Y-95660233D01*
X100048292Y-95676117D01*
X100047438Y-95692565D01*
X100046925Y-95709578D01*
X100046755Y-95727156D01*
X99917558Y-95727156D01*
X99917631Y-95716469D01*
X99917874Y-95704743D01*
X99918280Y-95693197D01*
X99918848Y-95681834D01*
X99919577Y-95670651D01*
X99920470Y-95659649D01*
X99921524Y-95648829D01*
X99922740Y-95638190D01*
X99924119Y-95627733D01*
X99925660Y-95617456D01*
X99927363Y-95607361D01*
X99929228Y-95597448D01*
X99931255Y-95587715D01*
X99934601Y-95573456D01*
X99938311Y-95559605D01*
X99940941Y-95550600D01*
X99945134Y-95537439D01*
X99949622Y-95524694D01*
X99954407Y-95512365D01*
X99959488Y-95500454D01*
X99964866Y-95488958D01*
X99970539Y-95477879D01*
X99976509Y-95467217D01*
X99982775Y-95456971D01*
X99989338Y-95447141D01*
X99996196Y-95437728D01*
X100000928Y-95431657D01*
X100008256Y-95422912D01*
X100015858Y-95414601D01*
X100023735Y-95406724D01*
X100031886Y-95399280D01*
X100040313Y-95392270D01*
X100049014Y-95385693D01*
X100057990Y-95379550D01*
X100067240Y-95373840D01*
X100076766Y-95368565D01*
X100086566Y-95363722D01*
X100093207Y-95360735D01*
X100103345Y-95356616D01*
X100113692Y-95352930D01*
X100124250Y-95349678D01*
X100135019Y-95346859D01*
X100145998Y-95344474D01*
X100157187Y-95342523D01*
X100168586Y-95341005D01*
X100180196Y-95339921D01*
X100192016Y-95339271D01*
X100204047Y-95339054D01*
X100211713Y-95339129D01*
X100221708Y-95339463D01*
X100233837Y-95340256D01*
X100245560Y-95341467D01*
X100256878Y-95343094D01*
X100267790Y-95345140D01*
X100278297Y-95347602D01*
X100288440Y-95350435D01*
X100298261Y-95353589D01*
X100307760Y-95357066D01*
X100316937Y-95360864D01*
X100327524Y-95365847D01*
X100337648Y-95371294D01*
X100340920Y-95373209D01*
X100350440Y-95379217D01*
X100359513Y-95385619D01*
X100368140Y-95392417D01*
X100376320Y-95399610D01*
X100384054Y-95407198D01*
X100386512Y-95409776D01*
X100393702Y-95417670D01*
X100400617Y-95425804D01*
X100407257Y-95434179D01*
X100413623Y-95442794D01*
X100419713Y-95451650D01*
X100425087Y-95451650D01*
X100424933Y-95448409D01*
X100424461Y-95438629D01*
X100423971Y-95428763D01*
X100423465Y-95418811D01*
X100422941Y-95408773D01*
X100422400Y-95398649D01*
X100421966Y-95391309D01*
X100421438Y-95380732D01*
X100421004Y-95369804D01*
X100420664Y-95358526D01*
X100420446Y-95348579D01*
X100420235Y-95340255D01*
X100420029Y-95330455D01*
X100419854Y-95319282D01*
X100419748Y-95308389D01*
X100419713Y-95297777D01*
X100419713Y-95042055D01*
X100544766Y-95042055D01*
X100544766Y-96105000D01*
G37*
G36*
X99445860Y-95339155D02*
G01*
X99459848Y-95339686D01*
X99473578Y-95340672D01*
X99487050Y-95342113D01*
X99500265Y-95344009D01*
X99513222Y-95346361D01*
X99525922Y-95349167D01*
X99538364Y-95352429D01*
X99550549Y-95356145D01*
X99562475Y-95360317D01*
X99574145Y-95364944D01*
X99581765Y-95368244D01*
X99592920Y-95373548D01*
X99603744Y-95379278D01*
X99614237Y-95385432D01*
X99624400Y-95392012D01*
X99634233Y-95399016D01*
X99643735Y-95406446D01*
X99652906Y-95414301D01*
X99661747Y-95422580D01*
X99670257Y-95431285D01*
X99678436Y-95440415D01*
X99683672Y-95446732D01*
X99691240Y-95456540D01*
X99698464Y-95466747D01*
X99705345Y-95477354D01*
X99711882Y-95488360D01*
X99718076Y-95499765D01*
X99723927Y-95511570D01*
X99729433Y-95523773D01*
X99734597Y-95536376D01*
X99739417Y-95549379D01*
X99743893Y-95562780D01*
X99747996Y-95576520D01*
X99751696Y-95590630D01*
X99753938Y-95600241D01*
X99756001Y-95610017D01*
X99757884Y-95619956D01*
X99759588Y-95630060D01*
X99761113Y-95640327D01*
X99762458Y-95650759D01*
X99763624Y-95661355D01*
X99764610Y-95672115D01*
X99765417Y-95683039D01*
X99766045Y-95694128D01*
X99766494Y-95705380D01*
X99766763Y-95716796D01*
X99766852Y-95728377D01*
X99766828Y-95734249D01*
X99766638Y-95745869D01*
X99766256Y-95757326D01*
X99765684Y-95768618D01*
X99764920Y-95779747D01*
X99763966Y-95790711D01*
X99762821Y-95801511D01*
X99761486Y-95812147D01*
X99759959Y-95822619D01*
X99758242Y-95832927D01*
X99756334Y-95843071D01*
X99754235Y-95853050D01*
X99751945Y-95862866D01*
X99749464Y-95872517D01*
X99746793Y-95882004D01*
X99742428Y-95895928D01*
X99739301Y-95904966D01*
X99734330Y-95918183D01*
X99729025Y-95930992D01*
X99723385Y-95943393D01*
X99717410Y-95955386D01*
X99711100Y-95966972D01*
X99704456Y-95978150D01*
X99697476Y-95988920D01*
X99690162Y-95999281D01*
X99682513Y-96009236D01*
X99674528Y-96018782D01*
X99669002Y-96024888D01*
X99660479Y-96033703D01*
X99651676Y-96042107D01*
X99642595Y-96050098D01*
X99633235Y-96057677D01*
X99623596Y-96064844D01*
X99613678Y-96071599D01*
X99603480Y-96077942D01*
X99593004Y-96083872D01*
X99582248Y-96089391D01*
X99571214Y-96094497D01*
X99563691Y-96097662D01*
X99552246Y-96102026D01*
X99540607Y-96105931D01*
X99528775Y-96109376D01*
X99516750Y-96112362D01*
X99504532Y-96114889D01*
X99492121Y-96116956D01*
X99479517Y-96118564D01*
X99466719Y-96119712D01*
X99453728Y-96120401D01*
X99440544Y-96120631D01*
X99431077Y-96120529D01*
X99417100Y-96119993D01*
X99403388Y-96118998D01*
X99389943Y-96117543D01*
X99376764Y-96115629D01*
X99363851Y-96113255D01*
X99351204Y-96110422D01*
X99338824Y-96107130D01*
X99326709Y-96103379D01*
X99314861Y-96099167D01*
X99303279Y-96094497D01*
X99295688Y-96091139D01*
X99284569Y-96085758D01*
X99273772Y-96079965D01*
X99263297Y-96073759D01*
X99253144Y-96067142D01*
X99243313Y-96060112D01*
X99233804Y-96052670D01*
X99224617Y-96044817D01*
X99215752Y-96036550D01*
X99207209Y-96027872D01*
X99198988Y-96018782D01*
X99193693Y-96012463D01*
X99186043Y-96002645D01*
X99178746Y-95992419D01*
X99171801Y-95981785D01*
X99165208Y-95970743D01*
X99158967Y-95959294D01*
X99153078Y-95947436D01*
X99147541Y-95935171D01*
X99142356Y-95922498D01*
X99137523Y-95909417D01*
X99133042Y-95895928D01*
X99131630Y-95891328D01*
X99127661Y-95877281D01*
X99125240Y-95867712D01*
X99122998Y-95857978D01*
X99120935Y-95848081D01*
X99119052Y-95838019D01*
X99117348Y-95827793D01*
X99115823Y-95817404D01*
X99114478Y-95806850D01*
X99113312Y-95796132D01*
X99112325Y-95785249D01*
X99111518Y-95774203D01*
X99110890Y-95762993D01*
X99110442Y-95751618D01*
X99110173Y-95740080D01*
X99110083Y-95728377D01*
X99239288Y-95728377D01*
X99239469Y-95746051D01*
X99240013Y-95763170D01*
X99240919Y-95779734D01*
X99242188Y-95795742D01*
X99243820Y-95811195D01*
X99245814Y-95826093D01*
X99248170Y-95840436D01*
X99250889Y-95854223D01*
X99253971Y-95867455D01*
X99257415Y-95880132D01*
X99261222Y-95892253D01*
X99265391Y-95903820D01*
X99269923Y-95914831D01*
X99274817Y-95925286D01*
X99280074Y-95935187D01*
X99285694Y-95944532D01*
X99291726Y-95953287D01*
X99298223Y-95961476D01*
X99305183Y-95969101D01*
X99312606Y-95976161D01*
X99320494Y-95982657D01*
X99328845Y-95988587D01*
X99337659Y-95993953D01*
X99346938Y-95998754D01*
X99356680Y-96002990D01*
X99366886Y-96006661D01*
X99377555Y-96009768D01*
X99388688Y-96012309D01*
X99400285Y-96014286D01*
X99412345Y-96015698D01*
X99424869Y-96016545D01*
X99437857Y-96016828D01*
X99450848Y-96016545D01*
X99463381Y-96015698D01*
X99475455Y-96014286D01*
X99487072Y-96012309D01*
X99498231Y-96009768D01*
X99508932Y-96006661D01*
X99519175Y-96002990D01*
X99528960Y-95998754D01*
X99538287Y-95993953D01*
X99547156Y-95988587D01*
X99555567Y-95982657D01*
X99563520Y-95976161D01*
X99571015Y-95969101D01*
X99578053Y-95961476D01*
X99584632Y-95953287D01*
X99590753Y-95944532D01*
X99596432Y-95935187D01*
X99601744Y-95925286D01*
X99606690Y-95914831D01*
X99611270Y-95903820D01*
X99615483Y-95892253D01*
X99619330Y-95880132D01*
X99622810Y-95867455D01*
X99625924Y-95854223D01*
X99628672Y-95840436D01*
X99631053Y-95826093D01*
X99633068Y-95811195D01*
X99634717Y-95795742D01*
X99635999Y-95779734D01*
X99636915Y-95763170D01*
X99637465Y-95746051D01*
X99637648Y-95728377D01*
X99637467Y-95710738D01*
X99636923Y-95693664D01*
X99636016Y-95677155D01*
X99634747Y-95661210D01*
X99633116Y-95645831D01*
X99631122Y-95631016D01*
X99628765Y-95616766D01*
X99626046Y-95603080D01*
X99622965Y-95589960D01*
X99619520Y-95577404D01*
X99615714Y-95565414D01*
X99611544Y-95553988D01*
X99607012Y-95543126D01*
X99602118Y-95532830D01*
X99596861Y-95523099D01*
X99591242Y-95513932D01*
X99585209Y-95505325D01*
X99578713Y-95497274D01*
X99571753Y-95489778D01*
X99564329Y-95482837D01*
X99556442Y-95476451D01*
X99548091Y-95470621D01*
X99539276Y-95465346D01*
X99529998Y-95460626D01*
X99520256Y-95456461D01*
X99510050Y-95452852D01*
X99499381Y-95449798D01*
X99488247Y-95447299D01*
X99476651Y-95445356D01*
X99464590Y-95443968D01*
X99452066Y-95443135D01*
X99439078Y-95442857D01*
X99426089Y-95443135D01*
X99413559Y-95443968D01*
X99401489Y-95445356D01*
X99389879Y-95447299D01*
X99378728Y-95449798D01*
X99368038Y-95452852D01*
X99357808Y-95456461D01*
X99348037Y-95460626D01*
X99338726Y-95465346D01*
X99329875Y-95470621D01*
X99321484Y-95476451D01*
X99313553Y-95482837D01*
X99306081Y-95489778D01*
X99299070Y-95497274D01*
X99292518Y-95505325D01*
X99286427Y-95513932D01*
X99280718Y-95523099D01*
X99275378Y-95532830D01*
X99270407Y-95543126D01*
X99265803Y-95553988D01*
X99261568Y-95565414D01*
X99257701Y-95577404D01*
X99254203Y-95589960D01*
X99251072Y-95603080D01*
X99248310Y-95616766D01*
X99245917Y-95631016D01*
X99243891Y-95645831D01*
X99242234Y-95661210D01*
X99240945Y-95677155D01*
X99240024Y-95693664D01*
X99239472Y-95710738D01*
X99239288Y-95728377D01*
X99110083Y-95728377D01*
X99110179Y-95716796D01*
X99110465Y-95705380D01*
X99110942Y-95694128D01*
X99111610Y-95683039D01*
X99112468Y-95672115D01*
X99113518Y-95661355D01*
X99114758Y-95650759D01*
X99116189Y-95640327D01*
X99117811Y-95630060D01*
X99119624Y-95619956D01*
X99121628Y-95610017D01*
X99123822Y-95600241D01*
X99126207Y-95590630D01*
X99130143Y-95576520D01*
X99134508Y-95562780D01*
X99137636Y-95553802D01*
X99142611Y-95540666D01*
X99147926Y-95527930D01*
X99153579Y-95515593D01*
X99159572Y-95503655D01*
X99165904Y-95492117D01*
X99172575Y-95480978D01*
X99179585Y-95470238D01*
X99186935Y-95459898D01*
X99194623Y-95449957D01*
X99202651Y-95440415D01*
X99208150Y-95434281D01*
X99216637Y-95425435D01*
X99225412Y-95417013D01*
X99234474Y-95409017D01*
X99243824Y-95401446D01*
X99253462Y-95394299D01*
X99263388Y-95387578D01*
X99273601Y-95381282D01*
X99284101Y-95375411D01*
X99294890Y-95369965D01*
X99305966Y-95364944D01*
X99313459Y-95361809D01*
X99324864Y-95357485D01*
X99336466Y-95353617D01*
X99348265Y-95350204D01*
X99360262Y-95347246D01*
X99372457Y-95344743D01*
X99384849Y-95342695D01*
X99397438Y-95341102D01*
X99410225Y-95339964D01*
X99423210Y-95339281D01*
X99436392Y-95339054D01*
X99445860Y-95339155D01*
G37*
G36*
X98682421Y-95339129D02*
G01*
X98695164Y-95339525D01*
X98707800Y-95340260D01*
X98720329Y-95341334D01*
X98732750Y-95342747D01*
X98745064Y-95344500D01*
X98757271Y-95346591D01*
X98769370Y-95349022D01*
X98781362Y-95351792D01*
X98793247Y-95354901D01*
X98805024Y-95358349D01*
X98812794Y-95360792D01*
X98824277Y-95364576D01*
X98835554Y-95368500D01*
X98846625Y-95372567D01*
X98857490Y-95376775D01*
X98868149Y-95381125D01*
X98878602Y-95385617D01*
X98888849Y-95390250D01*
X98898890Y-95395025D01*
X98908724Y-95399941D01*
X98918353Y-95405000D01*
X98874389Y-95499277D01*
X98863032Y-95493526D01*
X98851552Y-95487996D01*
X98839951Y-95482688D01*
X98828227Y-95477601D01*
X98816381Y-95472735D01*
X98804413Y-95468090D01*
X98792323Y-95463667D01*
X98780111Y-95459466D01*
X98773914Y-95457454D01*
X98764508Y-95454681D01*
X98754969Y-95452199D01*
X98745297Y-95450010D01*
X98735492Y-95448112D01*
X98725554Y-95446506D01*
X98715482Y-95445193D01*
X98705278Y-95444171D01*
X98694940Y-95443441D01*
X98684469Y-95443003D01*
X98673866Y-95442857D01*
X98662913Y-95443060D01*
X98652342Y-95443668D01*
X98642152Y-95444682D01*
X98632344Y-95446101D01*
X98621079Y-95448339D01*
X98610362Y-95451161D01*
X98606917Y-95452211D01*
X98597005Y-95455863D01*
X98587729Y-95460271D01*
X98579088Y-95465434D01*
X98571082Y-95471353D01*
X98563712Y-95478028D01*
X98560263Y-95481662D01*
X98553829Y-95489573D01*
X98548013Y-95498343D01*
X98542815Y-95507971D01*
X98538235Y-95518458D01*
X98534891Y-95527854D01*
X98534275Y-95529792D01*
X98531488Y-95539926D01*
X98529190Y-95550801D01*
X98527381Y-95562414D01*
X98526286Y-95572237D01*
X98525503Y-95582534D01*
X98525034Y-95593303D01*
X98524877Y-95604546D01*
X98524877Y-95651685D01*
X98651395Y-95656570D01*
X98661435Y-95656959D01*
X98671314Y-95657457D01*
X98690589Y-95658775D01*
X98709218Y-95660525D01*
X98727202Y-95662706D01*
X98744541Y-95665318D01*
X98761236Y-95668362D01*
X98777285Y-95671837D01*
X98792690Y-95675743D01*
X98807449Y-95680080D01*
X98821564Y-95684848D01*
X98835033Y-95690048D01*
X98847858Y-95695679D01*
X98860038Y-95701741D01*
X98871572Y-95708235D01*
X98882462Y-95715159D01*
X98892707Y-95722515D01*
X98902319Y-95730290D01*
X98911312Y-95738471D01*
X98919684Y-95747059D01*
X98927435Y-95756053D01*
X98934567Y-95765453D01*
X98941079Y-95775260D01*
X98946970Y-95785474D01*
X98952241Y-95796093D01*
X98956892Y-95807120D01*
X98960923Y-95818552D01*
X98964334Y-95830391D01*
X98967125Y-95842637D01*
X98969295Y-95855289D01*
X98970846Y-95868347D01*
X98971776Y-95881812D01*
X98972086Y-95895683D01*
X98971942Y-95906400D01*
X98971511Y-95916841D01*
X98970792Y-95927008D01*
X98969785Y-95936899D01*
X98967995Y-95949661D01*
X98965694Y-95961934D01*
X98962881Y-95973719D01*
X98959557Y-95985015D01*
X98955722Y-95995823D01*
X98951375Y-96006161D01*
X98946639Y-96016049D01*
X98941514Y-96025487D01*
X98935999Y-96034474D01*
X98930095Y-96043011D01*
X98923802Y-96051098D01*
X98917120Y-96058735D01*
X98910048Y-96065921D01*
X98902557Y-96072656D01*
X98894737Y-96078942D01*
X98886590Y-96084777D01*
X98878114Y-96090162D01*
X98869309Y-96095096D01*
X98860177Y-96099580D01*
X98850716Y-96103614D01*
X98840928Y-96107198D01*
X98830856Y-96110346D01*
X98820549Y-96113075D01*
X98810004Y-96115384D01*
X98799223Y-96117273D01*
X98788206Y-96118742D01*
X98776951Y-96119791D01*
X98765460Y-96120421D01*
X98753733Y-96120631D01*
X98743028Y-96120524D01*
X98732652Y-96120204D01*
X98722603Y-96119669D01*
X98710505Y-96118701D01*
X98698919Y-96117399D01*
X98687845Y-96115762D01*
X98677285Y-96113792D01*
X98667136Y-96111470D01*
X98657297Y-96108779D01*
X98647768Y-96105717D01*
X98638550Y-96102286D01*
X98627896Y-96097681D01*
X98617690Y-96092543D01*
X98612689Y-96089772D01*
X98602906Y-96083819D01*
X98593414Y-96077316D01*
X98584215Y-96070264D01*
X98575308Y-96062662D01*
X98568108Y-96055907D01*
X98565270Y-96053065D01*
X98558182Y-96045667D01*
X98551107Y-96037852D01*
X98544043Y-96029619D01*
X98536991Y-96020969D01*
X98529951Y-96011902D01*
X98522923Y-96002418D01*
X98517306Y-96002418D01*
X98491905Y-96105000D01*
X98401779Y-96105000D01*
X98401779Y-95737658D01*
X98526099Y-95737658D01*
X98526099Y-95805069D01*
X98526113Y-95808414D01*
X98526331Y-95818285D01*
X98527030Y-95831066D01*
X98528194Y-95843412D01*
X98529823Y-95855322D01*
X98531918Y-95866798D01*
X98534479Y-95877838D01*
X98537505Y-95888444D01*
X98540997Y-95898614D01*
X98544840Y-95908357D01*
X98549042Y-95917681D01*
X98553603Y-95926584D01*
X98559808Y-95937123D01*
X98566573Y-95947006D01*
X98573899Y-95956233D01*
X98581786Y-95964804D01*
X98585090Y-95968019D01*
X98593675Y-95975607D01*
X98602726Y-95982550D01*
X98612242Y-95988849D01*
X98622222Y-95994504D01*
X98632668Y-95999516D01*
X98643579Y-96003883D01*
X98648062Y-96005451D01*
X98659484Y-96008927D01*
X98671217Y-96011771D01*
X98680826Y-96013592D01*
X98690634Y-96015007D01*
X98700641Y-96016019D01*
X98710845Y-96016626D01*
X98721249Y-96016828D01*
X98724617Y-96016799D01*
X98734480Y-96016370D01*
X98747062Y-96014996D01*
X98758996Y-96012706D01*
X98770280Y-96009501D01*
X98780916Y-96005379D01*
X98790904Y-96000341D01*
X98800242Y-95994388D01*
X98808932Y-95987519D01*
X98816717Y-95979672D01*
X98823464Y-95970788D01*
X98829173Y-95960866D01*
X98833845Y-95949905D01*
X98837478Y-95937907D01*
X98839521Y-95928227D01*
X98840981Y-95917963D01*
X98841857Y-95907115D01*
X98842149Y-95895683D01*
X98841881Y-95885018D01*
X98841076Y-95874699D01*
X98839734Y-95864725D01*
X98837856Y-95855097D01*
X98834893Y-95844000D01*
X98831158Y-95833401D01*
X98829730Y-95829984D01*
X98824792Y-95820121D01*
X98818876Y-95810841D01*
X98811981Y-95802146D01*
X98804107Y-95794034D01*
X98795254Y-95786507D01*
X98786981Y-95780615D01*
X98777885Y-95775153D01*
X98767967Y-95770121D01*
X98757225Y-95765517D01*
X98748039Y-95762144D01*
X98738327Y-95759045D01*
X98728087Y-95756221D01*
X98725442Y-95755542D01*
X98714476Y-95752989D01*
X98702892Y-95750695D01*
X98690689Y-95748661D01*
X98677869Y-95746887D01*
X98667847Y-95745726D01*
X98657478Y-95744711D01*
X98646761Y-95743843D01*
X98635697Y-95743120D01*
X98624284Y-95742543D01*
X98526099Y-95737658D01*
X98401779Y-95737658D01*
X98401779Y-95589891D01*
X98401795Y-95585713D01*
X98402038Y-95573413D01*
X98402574Y-95561464D01*
X98403401Y-95549868D01*
X98404520Y-95538624D01*
X98405931Y-95527732D01*
X98407634Y-95517191D01*
X98409629Y-95507003D01*
X98411916Y-95497167D01*
X98414495Y-95487683D01*
X98418387Y-95475586D01*
X98422746Y-95464003D01*
X98427638Y-95452947D01*
X98433065Y-95442418D01*
X98439026Y-95432416D01*
X98445521Y-95422940D01*
X98452551Y-95413991D01*
X98460115Y-95405568D01*
X98468213Y-95397672D01*
X98470307Y-95395780D01*
X98479035Y-95388537D01*
X98488327Y-95381813D01*
X98498185Y-95375607D01*
X98508607Y-95369921D01*
X98519594Y-95364754D01*
X98531146Y-95360106D01*
X98543263Y-95355976D01*
X98552721Y-95353220D01*
X98559176Y-95351505D01*
X98569138Y-95349139D01*
X98579435Y-95347022D01*
X98590067Y-95345155D01*
X98601033Y-95343536D01*
X98612335Y-95342167D01*
X98623971Y-95341046D01*
X98635943Y-95340174D01*
X98648249Y-95339552D01*
X98660890Y-95339178D01*
X98673866Y-95339054D01*
X98682421Y-95339129D01*
G37*
G36*
X97848080Y-95339054D02*
G01*
X97837883Y-95339161D01*
X97827076Y-95339481D01*
X97817118Y-95339937D01*
X97806693Y-95340557D01*
X97803628Y-95340764D01*
X97793068Y-95341593D01*
X97783185Y-95342587D01*
X97772721Y-95343923D01*
X97762007Y-95345681D01*
X97760886Y-95345893D01*
X97777494Y-95461420D01*
X97788307Y-95459573D01*
X97798081Y-95458062D01*
X97808007Y-95456673D01*
X97816817Y-95455558D01*
X97826816Y-95454489D01*
X97837736Y-95453652D01*
X97848308Y-95453201D01*
X97855163Y-95453115D01*
X97865857Y-95453390D01*
X97876321Y-95454214D01*
X97886556Y-95455588D01*
X97896563Y-95457512D01*
X97906340Y-95459985D01*
X97915888Y-95463007D01*
X97925208Y-95466579D01*
X97934298Y-95470701D01*
X97943060Y-95475273D01*
X97951517Y-95480318D01*
X97959669Y-95485836D01*
X97967515Y-95491828D01*
X97975056Y-95498293D01*
X97982292Y-95505231D01*
X97989222Y-95512642D01*
X97995847Y-95520526D01*
X98002079Y-95528854D01*
X98007953Y-95537593D01*
X98013467Y-95546744D01*
X98018623Y-95556308D01*
X98023420Y-95566284D01*
X98027858Y-95576672D01*
X98031938Y-95587472D01*
X98035659Y-95598684D01*
X98038922Y-95610198D01*
X98041750Y-95622025D01*
X98044143Y-95634164D01*
X98046100Y-95646617D01*
X98047623Y-95659382D01*
X98048480Y-95669162D01*
X98049091Y-95679117D01*
X98049458Y-95689249D01*
X98049581Y-95699556D01*
X98049581Y-96105000D01*
X98174633Y-96105000D01*
X98174633Y-95354685D01*
X98072784Y-95354685D01*
X98057641Y-95490729D01*
X98052023Y-95490729D01*
X98046621Y-95481547D01*
X98041099Y-95472473D01*
X98035458Y-95463505D01*
X98029698Y-95454646D01*
X98023818Y-95445893D01*
X98017820Y-95437248D01*
X98015387Y-95433820D01*
X98009161Y-95425362D01*
X98002698Y-95417238D01*
X97995995Y-95409448D01*
X97989054Y-95401992D01*
X97981875Y-95394870D01*
X97974457Y-95388082D01*
X97971423Y-95385460D01*
X97963653Y-95379099D01*
X97955609Y-95373143D01*
X97947291Y-95367593D01*
X97938698Y-95362448D01*
X97929831Y-95357708D01*
X97920690Y-95353375D01*
X97916957Y-95351755D01*
X97907290Y-95348096D01*
X97897217Y-95345057D01*
X97886739Y-95342638D01*
X97875855Y-95340840D01*
X97864566Y-95339662D01*
X97852872Y-95339104D01*
X97848080Y-95339054D01*
G37*
G36*
X97156385Y-95338810D02*
G01*
X97156213Y-95348003D01*
X97155754Y-95358422D01*
X97155163Y-95368363D01*
X97154706Y-95374146D01*
X97153881Y-95384465D01*
X97153057Y-95394668D01*
X97152233Y-95404755D01*
X97151987Y-95407389D01*
X97150988Y-95418098D01*
X97149957Y-95429081D01*
X97149030Y-95438917D01*
X97148080Y-95448963D01*
X97156385Y-95448963D01*
X97158300Y-95446224D01*
X97164307Y-95438110D01*
X97170710Y-95430150D01*
X97177508Y-95422345D01*
X97184701Y-95414694D01*
X97192288Y-95407198D01*
X97194876Y-95404713D01*
X97202913Y-95397489D01*
X97211362Y-95390608D01*
X97220224Y-95384071D01*
X97229497Y-95377877D01*
X97239183Y-95372027D01*
X97240838Y-95371086D01*
X97251039Y-95365706D01*
X97259894Y-95361562D01*
X97269071Y-95357729D01*
X97278570Y-95354207D01*
X97288391Y-95350994D01*
X97298534Y-95348091D01*
X97306896Y-95345973D01*
X97317680Y-95343722D01*
X97328834Y-95341913D01*
X97340358Y-95340545D01*
X97352252Y-95339619D01*
X97362033Y-95339195D01*
X97372051Y-95339054D01*
X97380007Y-95339152D01*
X97391780Y-95339668D01*
X97403360Y-95340626D01*
X97414747Y-95342027D01*
X97425940Y-95343869D01*
X97436940Y-95346154D01*
X97447747Y-95348881D01*
X97458361Y-95352050D01*
X97468782Y-95355661D01*
X97479009Y-95359715D01*
X97489043Y-95364211D01*
X97495580Y-95367421D01*
X97505166Y-95372598D01*
X97514491Y-95378209D01*
X97523553Y-95384253D01*
X97532354Y-95390731D01*
X97540892Y-95397643D01*
X97549169Y-95404988D01*
X97557184Y-95412767D01*
X97564937Y-95420979D01*
X97572428Y-95429625D01*
X97579658Y-95438705D01*
X97584293Y-95444966D01*
X97591000Y-95454707D01*
X97597411Y-95464870D01*
X97603525Y-95475453D01*
X97609344Y-95486456D01*
X97614866Y-95497881D01*
X97620091Y-95509726D01*
X97625021Y-95521992D01*
X97629654Y-95534679D01*
X97633991Y-95547787D01*
X97638032Y-95561315D01*
X97639294Y-95565903D01*
X97642840Y-95579946D01*
X97645004Y-95589542D01*
X97647008Y-95599325D01*
X97648851Y-95609295D01*
X97650534Y-95619452D01*
X97652056Y-95629796D01*
X97653419Y-95640327D01*
X97654621Y-95651046D01*
X97655663Y-95661951D01*
X97656544Y-95673043D01*
X97657266Y-95684322D01*
X97657827Y-95695788D01*
X97658227Y-95707441D01*
X97658468Y-95719281D01*
X97658548Y-95731308D01*
X97658468Y-95743216D01*
X97658227Y-95754942D01*
X97657827Y-95766488D01*
X97657266Y-95777851D01*
X97656544Y-95789034D01*
X97655663Y-95800036D01*
X97654621Y-95810856D01*
X97653419Y-95821495D01*
X97652056Y-95831952D01*
X97650534Y-95842229D01*
X97648851Y-95852324D01*
X97647008Y-95862237D01*
X97645004Y-95871970D01*
X97641698Y-95886229D01*
X97638032Y-95900080D01*
X97635371Y-95909086D01*
X97631132Y-95922252D01*
X97626598Y-95935006D01*
X97621767Y-95947348D01*
X97616640Y-95959278D01*
X97611217Y-95970796D01*
X97605498Y-95981901D01*
X97599482Y-95992594D01*
X97593170Y-96002875D01*
X97586562Y-96012744D01*
X97579658Y-96022201D01*
X97574867Y-96028242D01*
X97567463Y-96036946D01*
X97559798Y-96045221D01*
X97551870Y-96053066D01*
X97543680Y-96060482D01*
X97535229Y-96067469D01*
X97526516Y-96074026D01*
X97517540Y-96080154D01*
X97508303Y-96085853D01*
X97498804Y-96091122D01*
X97489043Y-96095963D01*
X97482375Y-96098950D01*
X97472212Y-96103069D01*
X97461856Y-96106755D01*
X97451307Y-96110007D01*
X97440564Y-96112826D01*
X97429628Y-96115211D01*
X97418499Y-96117162D01*
X97407177Y-96118680D01*
X97395662Y-96119764D01*
X97383953Y-96120414D01*
X97372051Y-96120631D01*
X97364428Y-96120552D01*
X97354485Y-96120199D01*
X97342410Y-96119360D01*
X97330729Y-96118081D01*
X97319441Y-96116360D01*
X97308546Y-96114197D01*
X97298046Y-96111594D01*
X97295991Y-96111038D01*
X97285913Y-96108056D01*
X97276156Y-96104741D01*
X97266721Y-96101092D01*
X97257609Y-96097108D01*
X97248818Y-96092791D01*
X97238695Y-96087170D01*
X97235392Y-96085165D01*
X97225780Y-96078911D01*
X97216615Y-96072297D01*
X97207897Y-96065321D01*
X97199625Y-96057986D01*
X97191800Y-96050289D01*
X97189286Y-96047655D01*
X97181984Y-96039649D01*
X97175044Y-96031489D01*
X97168463Y-96023174D01*
X97162244Y-96014705D01*
X97156385Y-96006081D01*
X97151011Y-96006081D01*
X97132449Y-96105000D01*
X97031332Y-96105000D01*
X97031332Y-95759396D01*
X97156385Y-95759396D01*
X97156741Y-95771344D01*
X97157261Y-95783009D01*
X97157943Y-95794391D01*
X97158789Y-95805489D01*
X97159798Y-95816304D01*
X97160970Y-95826836D01*
X97162305Y-95837084D01*
X97163804Y-95847049D01*
X97166055Y-95859894D01*
X97168597Y-95872236D01*
X97171409Y-95884078D01*
X97174596Y-95895424D01*
X97178157Y-95906274D01*
X97182091Y-95916627D01*
X97186400Y-95926485D01*
X97191082Y-95935846D01*
X97196139Y-95944711D01*
X97201570Y-95953080D01*
X97205859Y-95958982D01*
X97213553Y-95968178D01*
X97221926Y-95976575D01*
X97230979Y-95984173D01*
X97240712Y-95990972D01*
X97251124Y-95996972D01*
X97259944Y-96001196D01*
X97269175Y-96004860D01*
X97278918Y-96008035D01*
X97289173Y-96010722D01*
X97299938Y-96012920D01*
X97311216Y-96014630D01*
X97323004Y-96015851D01*
X97335304Y-96016584D01*
X97348115Y-96016828D01*
X97359673Y-96016553D01*
X97370838Y-96015729D01*
X97381609Y-96014355D01*
X97391987Y-96012431D01*
X97401973Y-96009959D01*
X97411565Y-96006936D01*
X97420764Y-96003364D01*
X97433826Y-95996975D01*
X97446003Y-95989351D01*
X97457296Y-95980489D01*
X97467705Y-95970391D01*
X97474152Y-95962972D01*
X97480207Y-95955004D01*
X97485868Y-95946486D01*
X97491133Y-95937407D01*
X97496058Y-95927756D01*
X97500643Y-95917532D01*
X97504889Y-95906735D01*
X97508795Y-95895367D01*
X97512361Y-95883425D01*
X97515588Y-95870912D01*
X97518475Y-95857826D01*
X97521022Y-95844167D01*
X97523230Y-95829936D01*
X97525098Y-95815133D01*
X97526626Y-95799757D01*
X97527815Y-95783809D01*
X97528664Y-95767288D01*
X97529174Y-95750195D01*
X97529344Y-95732529D01*
X97529174Y-95715290D01*
X97528664Y-95698560D01*
X97527815Y-95682340D01*
X97526626Y-95666629D01*
X97525098Y-95651428D01*
X97523230Y-95636736D01*
X97521022Y-95622554D01*
X97518475Y-95608881D01*
X97515588Y-95595718D01*
X97512361Y-95583064D01*
X97508795Y-95570920D01*
X97504889Y-95559285D01*
X97500643Y-95548159D01*
X97496058Y-95537543D01*
X97491133Y-95527437D01*
X97485868Y-95517840D01*
X97483088Y-95513227D01*
X97477239Y-95504439D01*
X97471007Y-95496238D01*
X97464392Y-95488623D01*
X97457393Y-95481593D01*
X97446175Y-95472147D01*
X97434094Y-95464019D01*
X97421151Y-95457209D01*
X97412042Y-95453402D01*
X97402550Y-95450180D01*
X97392674Y-95447544D01*
X97382415Y-95445493D01*
X97371773Y-95444029D01*
X97360746Y-95443150D01*
X97349337Y-95442857D01*
X97345874Y-95442876D01*
X97335709Y-95443155D01*
X97322668Y-95444048D01*
X97310216Y-95445536D01*
X97298351Y-95447620D01*
X97287074Y-95450299D01*
X97276384Y-95453573D01*
X97266283Y-95457443D01*
X97256769Y-95461908D01*
X97247720Y-95466888D01*
X97239137Y-95472426D01*
X97231020Y-95478520D01*
X97223368Y-95485172D01*
X97216182Y-95492381D01*
X97209462Y-95500147D01*
X97203207Y-95508471D01*
X97197418Y-95517351D01*
X97194660Y-95521999D01*
X97189455Y-95531700D01*
X97184662Y-95541942D01*
X97180280Y-95552727D01*
X97176311Y-95564054D01*
X97172755Y-95575923D01*
X97169610Y-95588333D01*
X97167522Y-95597997D01*
X97165666Y-95607965D01*
X97164542Y-95614773D01*
X97162992Y-95625209D01*
X97161605Y-95635916D01*
X97160382Y-95646893D01*
X97159321Y-95658141D01*
X97158424Y-95669659D01*
X97157690Y-95681448D01*
X97157119Y-95693507D01*
X97156711Y-95705837D01*
X97156466Y-95718437D01*
X97156385Y-95731308D01*
X97156385Y-95759396D01*
X97031332Y-95759396D01*
X97031332Y-95042055D01*
X97156385Y-95042055D01*
X97156385Y-95338810D01*
G37*
G36*
X109488224Y-97155000D02*
G01*
X109360484Y-97155000D01*
X109360484Y-96748579D01*
X109203192Y-96748579D01*
X108962124Y-97155000D01*
X108811671Y-97155000D01*
X109084979Y-96713164D01*
X109075549Y-96709569D01*
X109066187Y-96705745D01*
X109056894Y-96701692D01*
X109047670Y-96697411D01*
X109038515Y-96692900D01*
X109029429Y-96688160D01*
X109020411Y-96683191D01*
X109011461Y-96677993D01*
X109002673Y-96672452D01*
X108994135Y-96666575D01*
X108985850Y-96660362D01*
X108977817Y-96653813D01*
X108970036Y-96646929D01*
X108962506Y-96639708D01*
X108955228Y-96632152D01*
X108948203Y-96624260D01*
X108941413Y-96616001D01*
X108934968Y-96607346D01*
X108928865Y-96598294D01*
X108923107Y-96588845D01*
X108917691Y-96578999D01*
X108912619Y-96568756D01*
X108907891Y-96558116D01*
X108903506Y-96547079D01*
X108901465Y-96541401D01*
X108897779Y-96529685D01*
X108894619Y-96517488D01*
X108891986Y-96504811D01*
X108890356Y-96494987D01*
X108889023Y-96484893D01*
X108887986Y-96474528D01*
X108887246Y-96463892D01*
X108886801Y-96452987D01*
X108886731Y-96447672D01*
X109018545Y-96447672D01*
X109018656Y-96456584D01*
X109019152Y-96468127D01*
X109020045Y-96479280D01*
X109021335Y-96490044D01*
X109023022Y-96500418D01*
X109025106Y-96510404D01*
X109027586Y-96520000D01*
X109031245Y-96531448D01*
X109032892Y-96535859D01*
X109037526Y-96546488D01*
X109042900Y-96556543D01*
X109049013Y-96566027D01*
X109055866Y-96574938D01*
X109063458Y-96583277D01*
X109071789Y-96591043D01*
X109075330Y-96593989D01*
X109084707Y-96600954D01*
X109094836Y-96607346D01*
X109103480Y-96612048D01*
X109112605Y-96616383D01*
X109122210Y-96620352D01*
X109132297Y-96623954D01*
X109142864Y-96627191D01*
X109148341Y-96628670D01*
X109159728Y-96631341D01*
X109171696Y-96633631D01*
X109184244Y-96635539D01*
X109194036Y-96636720D01*
X109204154Y-96637686D01*
X109214598Y-96638437D01*
X109225369Y-96638974D01*
X109236465Y-96639296D01*
X109247889Y-96639403D01*
X109360484Y-96639403D01*
X109360484Y-96263757D01*
X109250575Y-96263757D01*
X109246866Y-96263767D01*
X109235928Y-96263914D01*
X109225274Y-96264237D01*
X109214902Y-96264735D01*
X109204815Y-96265410D01*
X109195010Y-96266261D01*
X109182378Y-96267669D01*
X109170250Y-96269390D01*
X109158625Y-96271424D01*
X109147505Y-96273771D01*
X109144787Y-96274409D01*
X109134212Y-96277199D01*
X109124110Y-96280370D01*
X109114482Y-96283923D01*
X109105327Y-96287858D01*
X109094548Y-96293313D01*
X109084509Y-96299364D01*
X109075209Y-96306011D01*
X109071694Y-96308839D01*
X109063408Y-96316343D01*
X109055837Y-96324467D01*
X109048982Y-96333211D01*
X109042843Y-96342575D01*
X109037419Y-96352560D01*
X109032711Y-96363164D01*
X109029390Y-96372071D01*
X109026513Y-96381452D01*
X109024078Y-96391306D01*
X109022086Y-96401632D01*
X109020537Y-96412433D01*
X109019430Y-96423706D01*
X109018766Y-96435452D01*
X109018545Y-96447672D01*
X108886731Y-96447672D01*
X108886653Y-96441810D01*
X108886994Y-96424023D01*
X108888016Y-96406807D01*
X108889719Y-96390164D01*
X108892103Y-96374094D01*
X108895168Y-96358596D01*
X108898915Y-96343671D01*
X108903343Y-96329317D01*
X108908452Y-96315537D01*
X108914242Y-96302329D01*
X108920714Y-96289693D01*
X108927866Y-96277630D01*
X108935700Y-96266139D01*
X108944215Y-96255220D01*
X108953412Y-96244874D01*
X108963289Y-96235101D01*
X108973848Y-96225900D01*
X108979391Y-96221512D01*
X108991036Y-96213154D01*
X109003428Y-96205354D01*
X109016566Y-96198110D01*
X109030449Y-96191424D01*
X109045079Y-96185295D01*
X109060455Y-96179724D01*
X109076577Y-96174709D01*
X109093445Y-96170251D01*
X109111059Y-96166351D01*
X109129419Y-96163008D01*
X109148525Y-96160222D01*
X109158358Y-96159038D01*
X109168378Y-96157994D01*
X109178584Y-96157088D01*
X109188976Y-96156322D01*
X109199555Y-96155695D01*
X109210321Y-96155208D01*
X109221273Y-96154859D01*
X109232411Y-96154650D01*
X109243736Y-96154581D01*
X109488224Y-96154581D01*
X109488224Y-97155000D01*
G37*
G36*
X108418515Y-96389159D02*
G01*
X108431276Y-96389710D01*
X108443826Y-96390733D01*
X108456166Y-96392229D01*
X108468295Y-96394196D01*
X108480214Y-96396636D01*
X108491923Y-96399549D01*
X108503421Y-96402933D01*
X108514709Y-96406790D01*
X108525786Y-96411119D01*
X108536653Y-96415921D01*
X108543765Y-96419345D01*
X108554196Y-96424842D01*
X108564344Y-96430774D01*
X108574209Y-96437139D01*
X108583790Y-96443937D01*
X108593088Y-96451169D01*
X108602103Y-96458835D01*
X108610834Y-96466934D01*
X108619282Y-96475467D01*
X108627446Y-96484434D01*
X108635327Y-96493834D01*
X108640385Y-96500303D01*
X108647703Y-96510335D01*
X108654699Y-96520762D01*
X108661373Y-96531584D01*
X108667725Y-96542801D01*
X108673755Y-96554413D01*
X108679463Y-96566420D01*
X108684849Y-96578822D01*
X108689913Y-96591619D01*
X108694655Y-96604811D01*
X108699075Y-96618398D01*
X108700472Y-96623012D01*
X108704399Y-96637086D01*
X108706794Y-96646662D01*
X108709012Y-96656393D01*
X108711053Y-96666278D01*
X108712917Y-96676318D01*
X108714602Y-96686512D01*
X108716111Y-96696861D01*
X108717442Y-96707364D01*
X108718595Y-96718022D01*
X108719571Y-96728835D01*
X108720370Y-96739802D01*
X108720991Y-96750924D01*
X108721435Y-96762200D01*
X108721701Y-96773631D01*
X108721789Y-96785216D01*
X108721693Y-96796737D01*
X108721404Y-96808098D01*
X108720922Y-96819299D01*
X108720248Y-96830340D01*
X108719380Y-96841220D01*
X108718320Y-96851940D01*
X108717068Y-96862500D01*
X108715622Y-96872899D01*
X108713984Y-96883138D01*
X108712153Y-96893217D01*
X108710130Y-96903136D01*
X108707913Y-96912894D01*
X108705504Y-96922492D01*
X108701529Y-96936588D01*
X108697121Y-96950324D01*
X108693958Y-96959240D01*
X108688917Y-96972274D01*
X108683520Y-96984900D01*
X108677766Y-96997118D01*
X108671656Y-97008928D01*
X108665189Y-97020330D01*
X108658366Y-97031325D01*
X108651187Y-97041911D01*
X108643652Y-97052090D01*
X108635760Y-97061861D01*
X108627512Y-97071224D01*
X108621796Y-97077209D01*
X108612968Y-97085847D01*
X108603835Y-97094076D01*
X108594398Y-97101898D01*
X108584656Y-97109312D01*
X108574609Y-97116318D01*
X108564257Y-97122916D01*
X108553600Y-97129106D01*
X108542638Y-97134889D01*
X108531372Y-97140263D01*
X108519801Y-97145230D01*
X108511934Y-97148306D01*
X108499945Y-97152548D01*
X108487728Y-97156343D01*
X108475284Y-97159692D01*
X108462612Y-97162594D01*
X108449713Y-97165050D01*
X108436586Y-97167059D01*
X108423232Y-97168622D01*
X108409650Y-97169738D01*
X108395840Y-97170408D01*
X108381803Y-97170631D01*
X108379610Y-97170628D01*
X108368803Y-97170537D01*
X108358258Y-97170314D01*
X108347976Y-97169959D01*
X108337956Y-97169474D01*
X108328198Y-97168857D01*
X108316835Y-97167944D01*
X108313118Y-97167594D01*
X108302058Y-97166372D01*
X108291136Y-97164892D01*
X108280351Y-97163155D01*
X108269704Y-97161160D01*
X108259193Y-97158907D01*
X108255719Y-97158131D01*
X108245363Y-97155641D01*
X108235111Y-97152910D01*
X108224961Y-97149939D01*
X108214915Y-97146728D01*
X108204972Y-97143276D01*
X108201641Y-97142042D01*
X108191615Y-97138193D01*
X108181537Y-97134120D01*
X108171407Y-97129823D01*
X108161226Y-97125304D01*
X108150994Y-97120561D01*
X108150994Y-97009187D01*
X108154349Y-97010734D01*
X108164381Y-97015262D01*
X108174362Y-97019618D01*
X108184291Y-97023803D01*
X108194169Y-97027816D01*
X108203995Y-97031657D01*
X108207238Y-97032866D01*
X108217062Y-97036343D01*
X108227022Y-97039598D01*
X108237120Y-97042629D01*
X108247355Y-97045437D01*
X108257728Y-97048021D01*
X108261217Y-97048833D01*
X108271787Y-97051120D01*
X108282512Y-97053184D01*
X108293391Y-97055024D01*
X108304425Y-97056641D01*
X108315614Y-97058035D01*
X108317481Y-97058245D01*
X108328895Y-97059367D01*
X108338683Y-97060119D01*
X108348721Y-97060703D01*
X108359010Y-97061121D01*
X108369549Y-97061371D01*
X108380338Y-97061454D01*
X108393113Y-97061212D01*
X108405487Y-97060485D01*
X108417461Y-97059273D01*
X108429034Y-97057577D01*
X108440206Y-97055396D01*
X108450978Y-97052730D01*
X108461348Y-97049580D01*
X108471318Y-97045945D01*
X108480888Y-97041825D01*
X108490056Y-97037221D01*
X108498824Y-97032132D01*
X108507192Y-97026558D01*
X108515158Y-97020500D01*
X108522724Y-97013957D01*
X108529889Y-97006929D01*
X108536653Y-96999417D01*
X108543026Y-96991361D01*
X108549014Y-96982762D01*
X108554620Y-96973622D01*
X108559841Y-96963941D01*
X108564679Y-96953717D01*
X108569134Y-96942951D01*
X108573205Y-96931643D01*
X108576892Y-96919794D01*
X108580196Y-96907402D01*
X108583117Y-96894469D01*
X108585654Y-96880993D01*
X108587807Y-96866976D01*
X108589577Y-96852417D01*
X108590963Y-96837316D01*
X108591966Y-96821673D01*
X108592585Y-96805488D01*
X108117288Y-96805488D01*
X108117288Y-96727575D01*
X108117368Y-96718163D01*
X108117783Y-96704241D01*
X108117927Y-96701685D01*
X108251866Y-96701685D01*
X108589898Y-96701685D01*
X108588803Y-96689114D01*
X108587410Y-96676925D01*
X108585719Y-96665117D01*
X108583731Y-96653691D01*
X108581445Y-96642647D01*
X108578862Y-96631984D01*
X108575980Y-96621703D01*
X108572801Y-96611803D01*
X108569325Y-96602286D01*
X108565550Y-96593149D01*
X108559331Y-96580161D01*
X108552441Y-96568031D01*
X108544882Y-96556759D01*
X108536653Y-96546346D01*
X108530816Y-96539869D01*
X108521581Y-96530937D01*
X108511771Y-96522945D01*
X108501386Y-96515893D01*
X108490425Y-96509781D01*
X108478889Y-96504610D01*
X108466777Y-96500379D01*
X108454090Y-96497088D01*
X108440828Y-96494738D01*
X108426991Y-96493327D01*
X108412578Y-96492857D01*
X108404717Y-96492990D01*
X108394569Y-96493582D01*
X108382422Y-96494987D01*
X108370870Y-96497131D01*
X108359915Y-96500015D01*
X108349556Y-96503638D01*
X108339794Y-96508000D01*
X108336050Y-96509912D01*
X108327058Y-96515126D01*
X108318590Y-96520960D01*
X108310648Y-96527415D01*
X108303230Y-96534489D01*
X108296337Y-96542184D01*
X108289968Y-96550498D01*
X108286395Y-96555726D01*
X108280840Y-96564878D01*
X108275785Y-96574579D01*
X108271232Y-96584828D01*
X108267180Y-96595626D01*
X108263628Y-96606972D01*
X108261147Y-96616444D01*
X108258972Y-96626218D01*
X108257087Y-96636243D01*
X108255492Y-96646520D01*
X108254187Y-96657049D01*
X108253171Y-96667830D01*
X108252446Y-96678863D01*
X108252011Y-96690148D01*
X108251866Y-96701685D01*
X108117927Y-96701685D01*
X108118555Y-96690556D01*
X108119684Y-96677108D01*
X108121169Y-96663895D01*
X108123010Y-96650918D01*
X108125207Y-96638178D01*
X108127761Y-96625673D01*
X108130671Y-96613405D01*
X108133938Y-96601373D01*
X108137561Y-96589577D01*
X108140163Y-96581832D01*
X108144325Y-96570479D01*
X108148796Y-96559444D01*
X108153576Y-96548726D01*
X108158665Y-96538326D01*
X108164063Y-96528244D01*
X108169770Y-96518480D01*
X108175786Y-96509033D01*
X108182112Y-96499904D01*
X108188747Y-96491093D01*
X108195690Y-96482599D01*
X108200458Y-96477091D01*
X108207856Y-96469126D01*
X108215550Y-96461518D01*
X108223541Y-96454266D01*
X108231828Y-96447370D01*
X108240411Y-96440830D01*
X108249290Y-96434647D01*
X108258466Y-96428820D01*
X108267938Y-96423350D01*
X108277706Y-96418236D01*
X108287770Y-96413478D01*
X108294601Y-96410521D01*
X108305048Y-96406442D01*
X108315736Y-96402793D01*
X108326664Y-96399573D01*
X108337832Y-96396782D01*
X108349241Y-96394421D01*
X108360890Y-96392489D01*
X108372780Y-96390986D01*
X108384910Y-96389913D01*
X108397280Y-96389269D01*
X108409891Y-96389054D01*
X108418515Y-96389159D01*
G37*
G36*
X107792445Y-97155000D02*
G01*
X108050122Y-96404685D01*
X107920917Y-96404685D01*
X107784385Y-96822096D01*
X107780944Y-96832558D01*
X107777790Y-96842530D01*
X107774447Y-96853430D01*
X107771517Y-96863221D01*
X107768455Y-96873656D01*
X107766556Y-96880226D01*
X107763280Y-96891335D01*
X107760016Y-96902528D01*
X107756763Y-96913804D01*
X107753523Y-96925163D01*
X107750295Y-96936606D01*
X107747078Y-96948132D01*
X107745795Y-96952766D01*
X107742631Y-96964190D01*
X107739551Y-96975411D01*
X107736554Y-96986430D01*
X107733640Y-96997245D01*
X107730810Y-97007858D01*
X107728064Y-97018268D01*
X107726988Y-97022376D01*
X107724460Y-97032222D01*
X107721804Y-97043029D01*
X107719560Y-97052738D01*
X107717463Y-97062676D01*
X107715753Y-97072201D01*
X107710868Y-97072201D01*
X107708558Y-97061348D01*
X107706228Y-97051196D01*
X107703858Y-97041304D01*
X107701144Y-97030314D01*
X107699145Y-97022376D01*
X107696502Y-97012047D01*
X107693764Y-97001515D01*
X107690930Y-96990780D01*
X107688001Y-96979843D01*
X107684977Y-96968703D01*
X107681857Y-96957360D01*
X107680582Y-96952766D01*
X107677377Y-96941207D01*
X107674171Y-96929730D01*
X107670965Y-96918337D01*
X107667759Y-96907028D01*
X107664554Y-96895802D01*
X107661348Y-96884660D01*
X107660066Y-96880226D01*
X107656926Y-96869405D01*
X107653917Y-96859227D01*
X107651039Y-96849694D01*
X107647759Y-96839103D01*
X107644668Y-96829440D01*
X107642236Y-96822096D01*
X107505460Y-96404685D01*
X107376256Y-96404685D01*
X107633932Y-97155000D01*
X107792445Y-97155000D01*
G37*
G36*
X106324057Y-97155000D02*
G01*
X106950540Y-97155000D01*
X106950540Y-97047777D01*
X106710205Y-96786926D01*
X106700639Y-96776614D01*
X106691266Y-96766469D01*
X106682086Y-96756492D01*
X106673100Y-96746683D01*
X106664306Y-96737041D01*
X106655706Y-96727566D01*
X106647299Y-96718259D01*
X106639085Y-96709119D01*
X106631064Y-96700147D01*
X106623237Y-96691342D01*
X106618126Y-96685565D01*
X106610631Y-96676975D01*
X106603351Y-96668423D01*
X106596286Y-96659910D01*
X106589435Y-96651436D01*
X106582799Y-96643000D01*
X106576377Y-96634603D01*
X106570171Y-96626245D01*
X106564179Y-96617925D01*
X106558401Y-96609644D01*
X106552839Y-96601401D01*
X106549249Y-96595928D01*
X106542315Y-96584933D01*
X106535801Y-96573931D01*
X106529706Y-96562920D01*
X106524031Y-96551903D01*
X106518776Y-96540878D01*
X106513941Y-96529845D01*
X106509526Y-96518804D01*
X106505530Y-96507756D01*
X106501981Y-96496582D01*
X106498905Y-96485163D01*
X106496302Y-96473501D01*
X106494173Y-96461594D01*
X106492516Y-96449443D01*
X106491333Y-96437048D01*
X106490623Y-96424408D01*
X106490387Y-96411524D01*
X106490570Y-96401659D01*
X106491314Y-96389746D01*
X106492631Y-96378299D01*
X106494520Y-96367316D01*
X106496981Y-96356799D01*
X106500015Y-96346746D01*
X106502110Y-96340938D01*
X106506019Y-96331548D01*
X106510416Y-96322610D01*
X106515302Y-96314126D01*
X106521810Y-96304544D01*
X106529023Y-96295613D01*
X106535572Y-96288670D01*
X106543915Y-96280988D01*
X106552825Y-96274061D01*
X106562302Y-96267890D01*
X106572346Y-96262475D01*
X106582956Y-96257815D01*
X106586618Y-96256430D01*
X106596021Y-96253264D01*
X106605757Y-96250634D01*
X106615827Y-96248541D01*
X106626232Y-96246985D01*
X106636970Y-96245965D01*
X106648042Y-96245482D01*
X106652564Y-96245439D01*
X106664680Y-96245671D01*
X106676572Y-96246366D01*
X106688242Y-96247526D01*
X106699688Y-96249149D01*
X106710910Y-96251235D01*
X106721910Y-96253785D01*
X106732686Y-96256799D01*
X106743239Y-96260277D01*
X106753569Y-96264218D01*
X106763675Y-96268623D01*
X106770289Y-96271817D01*
X106780090Y-96276846D01*
X106789801Y-96282133D01*
X106799422Y-96287677D01*
X106808952Y-96293479D01*
X106818392Y-96299538D01*
X106827742Y-96305855D01*
X106837002Y-96312429D01*
X106846172Y-96319262D01*
X106855252Y-96326351D01*
X106864242Y-96333699D01*
X106870184Y-96338740D01*
X106940282Y-96256919D01*
X106931562Y-96249287D01*
X106922651Y-96241811D01*
X106913549Y-96234489D01*
X106904256Y-96227323D01*
X106894773Y-96220312D01*
X106885099Y-96213456D01*
X106881175Y-96210757D01*
X106871210Y-96204113D01*
X106861006Y-96197767D01*
X106850564Y-96191719D01*
X106839883Y-96185970D01*
X106828964Y-96180518D01*
X106820056Y-96176372D01*
X106813276Y-96173387D01*
X106804113Y-96169522D01*
X106794820Y-96165862D01*
X106785398Y-96162408D01*
X106775846Y-96159160D01*
X106766164Y-96156119D01*
X106756352Y-96153283D01*
X106746411Y-96150654D01*
X106736339Y-96148230D01*
X106726138Y-96146055D01*
X106715808Y-96144170D01*
X106705347Y-96142575D01*
X106694757Y-96141270D01*
X106684037Y-96140254D01*
X106673187Y-96139529D01*
X106662208Y-96139094D01*
X106651099Y-96138949D01*
X106638845Y-96139112D01*
X106626816Y-96139602D01*
X106615009Y-96140418D01*
X106603425Y-96141560D01*
X106592065Y-96143028D01*
X106580928Y-96144823D01*
X106570015Y-96146943D01*
X106559324Y-96149391D01*
X106548857Y-96152164D01*
X106538613Y-96155264D01*
X106531908Y-96157512D01*
X106522066Y-96161090D01*
X106512508Y-96164956D01*
X106503233Y-96169110D01*
X106494241Y-96173552D01*
X106485533Y-96178281D01*
X106477108Y-96183297D01*
X106466316Y-96190434D01*
X106456027Y-96198082D01*
X106446242Y-96206241D01*
X106441538Y-96210512D01*
X106432520Y-96219416D01*
X106424029Y-96228785D01*
X106416064Y-96238619D01*
X106408627Y-96248920D01*
X106401715Y-96259685D01*
X106395331Y-96270917D01*
X106390888Y-96279646D01*
X106386741Y-96288637D01*
X106384141Y-96294776D01*
X106380518Y-96304184D01*
X106377252Y-96313816D01*
X106374342Y-96323670D01*
X106371788Y-96333748D01*
X106369590Y-96344049D01*
X106367749Y-96354574D01*
X106366264Y-96365321D01*
X106365136Y-96376292D01*
X106364364Y-96387486D01*
X106363948Y-96398904D01*
X106363869Y-96406639D01*
X106364030Y-96417535D01*
X106364513Y-96428332D01*
X106365318Y-96439030D01*
X106366445Y-96449630D01*
X106367894Y-96460131D01*
X106369665Y-96470533D01*
X106371758Y-96480836D01*
X106374173Y-96491041D01*
X106376910Y-96501146D01*
X106379969Y-96511153D01*
X106382187Y-96517770D01*
X106385698Y-96527647D01*
X106389454Y-96537493D01*
X106393455Y-96547310D01*
X106397700Y-96557097D01*
X106402191Y-96566853D01*
X106406925Y-96576580D01*
X106411905Y-96586276D01*
X106417129Y-96595943D01*
X106422598Y-96605579D01*
X106428312Y-96615186D01*
X106432257Y-96621573D01*
X106438366Y-96631105D01*
X106444693Y-96640650D01*
X106451240Y-96650207D01*
X106458006Y-96659778D01*
X106464990Y-96669361D01*
X106472194Y-96678958D01*
X106479616Y-96688567D01*
X106487257Y-96698189D01*
X106495118Y-96707824D01*
X106503197Y-96717472D01*
X106508705Y-96723911D01*
X106517058Y-96733564D01*
X106525541Y-96743291D01*
X106534152Y-96753091D01*
X106542891Y-96762963D01*
X106551760Y-96772909D01*
X106560757Y-96782927D01*
X106569884Y-96793018D01*
X106579139Y-96803183D01*
X106588522Y-96813420D01*
X106598035Y-96823731D01*
X106604448Y-96830645D01*
X106797400Y-97035565D01*
X106797400Y-97040938D01*
X106324057Y-97040938D01*
X106324057Y-97155000D01*
G37*
G36*
X106144783Y-97076598D02*
G01*
X106144456Y-97065752D01*
X106143474Y-97055654D01*
X106141551Y-97045029D01*
X106138773Y-97035382D01*
X106137944Y-97033122D01*
X106133711Y-97023634D01*
X106128705Y-97015228D01*
X106122237Y-97007156D01*
X106119382Y-97004302D01*
X106111673Y-96997900D01*
X106103201Y-96992738D01*
X106093965Y-96988817D01*
X106092027Y-96988182D01*
X106081842Y-96985477D01*
X106071133Y-96983774D01*
X106061045Y-96983098D01*
X106057588Y-96983053D01*
X106047576Y-96983458D01*
X106037873Y-96984675D01*
X106027455Y-96986980D01*
X106023394Y-96988182D01*
X106013749Y-96991855D01*
X106004962Y-96996768D01*
X105997033Y-97002922D01*
X105995551Y-97004302D01*
X105988701Y-97011839D01*
X105982804Y-97020712D01*
X105978314Y-97029839D01*
X105976988Y-97033122D01*
X105973996Y-97042526D01*
X105971859Y-97052906D01*
X105970690Y-97062790D01*
X105970176Y-97073422D01*
X105970150Y-97076598D01*
X105970477Y-97087063D01*
X105971459Y-97096874D01*
X105973382Y-97107284D01*
X105976160Y-97116840D01*
X105976988Y-97119096D01*
X105981222Y-97128623D01*
X105986228Y-97137145D01*
X105992696Y-97145436D01*
X105995551Y-97148405D01*
X106003307Y-97154983D01*
X106011923Y-97160369D01*
X106021397Y-97164562D01*
X106023394Y-97165258D01*
X106033660Y-97168091D01*
X106044308Y-97169875D01*
X106054217Y-97170584D01*
X106057588Y-97170631D01*
X106067817Y-97170206D01*
X106077621Y-97168931D01*
X106088016Y-97166517D01*
X106092027Y-97165258D01*
X106101415Y-97161303D01*
X106110040Y-97156156D01*
X106117901Y-97149816D01*
X106119382Y-97148405D01*
X106126232Y-97140610D01*
X106132128Y-97131575D01*
X106136619Y-97122383D01*
X106137944Y-97119096D01*
X106140936Y-97109754D01*
X106143073Y-97099556D01*
X106144356Y-97088504D01*
X106144776Y-97078133D01*
X106144783Y-97076598D01*
G37*
G36*
X105489012Y-96138983D02*
G01*
X105499648Y-96139256D01*
X105510081Y-96139802D01*
X105520313Y-96140621D01*
X105530342Y-96141712D01*
X105540169Y-96143076D01*
X105554530Y-96145634D01*
X105568436Y-96148807D01*
X105581887Y-96152593D01*
X105594883Y-96156992D01*
X105607424Y-96162006D01*
X105619510Y-96167634D01*
X105631140Y-96173876D01*
X105638625Y-96178364D01*
X105649527Y-96185554D01*
X105660037Y-96193293D01*
X105670158Y-96201582D01*
X105679887Y-96210421D01*
X105689226Y-96219809D01*
X105698174Y-96229747D01*
X105706731Y-96240234D01*
X105714898Y-96251270D01*
X105722674Y-96262857D01*
X105730059Y-96274993D01*
X105732420Y-96279158D01*
X105739264Y-96292006D01*
X105743626Y-96300861D01*
X105747827Y-96309950D01*
X105751869Y-96319271D01*
X105755750Y-96328825D01*
X105759471Y-96338612D01*
X105763032Y-96348632D01*
X105766432Y-96358884D01*
X105769672Y-96369369D01*
X105772752Y-96380088D01*
X105775671Y-96391038D01*
X105778430Y-96402222D01*
X105781029Y-96413639D01*
X105783468Y-96425288D01*
X105785746Y-96437170D01*
X105787846Y-96449267D01*
X105789811Y-96461564D01*
X105791639Y-96474058D01*
X105793333Y-96486751D01*
X105794891Y-96499643D01*
X105796314Y-96512732D01*
X105797601Y-96526021D01*
X105798752Y-96539508D01*
X105799768Y-96553193D01*
X105800649Y-96567076D01*
X105801394Y-96581159D01*
X105802004Y-96595439D01*
X105802478Y-96609918D01*
X105802816Y-96624596D01*
X105803020Y-96639472D01*
X105803087Y-96654546D01*
X105803011Y-96669591D01*
X105802782Y-96684439D01*
X105802400Y-96699091D01*
X105801866Y-96713546D01*
X105801179Y-96727804D01*
X105800340Y-96741867D01*
X105799347Y-96755732D01*
X105798203Y-96769401D01*
X105796905Y-96782874D01*
X105795455Y-96796150D01*
X105793852Y-96809229D01*
X105792096Y-96822112D01*
X105790188Y-96834798D01*
X105788128Y-96847288D01*
X105785914Y-96859581D01*
X105783548Y-96871678D01*
X105782307Y-96877648D01*
X105779708Y-96889418D01*
X105776953Y-96900958D01*
X105774041Y-96912270D01*
X105770973Y-96923352D01*
X105767748Y-96934206D01*
X105764367Y-96944830D01*
X105760829Y-96955226D01*
X105757135Y-96965393D01*
X105753284Y-96975330D01*
X105749277Y-96985039D01*
X105745114Y-96994519D01*
X105740794Y-97003769D01*
X105736317Y-97012791D01*
X105731684Y-97021584D01*
X105724441Y-97034344D01*
X105719415Y-97042525D01*
X105711576Y-97054335D01*
X105703375Y-97065591D01*
X105694814Y-97076294D01*
X105685893Y-97086443D01*
X105676611Y-97096038D01*
X105666968Y-97105079D01*
X105656964Y-97113566D01*
X105646600Y-97121499D01*
X105635876Y-97128879D01*
X105624790Y-97135704D01*
X105621014Y-97137853D01*
X105609441Y-97143890D01*
X105597498Y-97149313D01*
X105585187Y-97154123D01*
X105572505Y-97158318D01*
X105559455Y-97161899D01*
X105546036Y-97164867D01*
X105532247Y-97167220D01*
X105518089Y-97168960D01*
X105503562Y-97170085D01*
X105493672Y-97170495D01*
X105483618Y-97170631D01*
X105478194Y-97170597D01*
X105467498Y-97170324D01*
X105457007Y-97169778D01*
X105446721Y-97168960D01*
X105436638Y-97167868D01*
X105426760Y-97166504D01*
X105412325Y-97163946D01*
X105398349Y-97160774D01*
X105384833Y-97156988D01*
X105371776Y-97152588D01*
X105359179Y-97147574D01*
X105347041Y-97141946D01*
X105335362Y-97135704D01*
X105327787Y-97131215D01*
X105316753Y-97124020D01*
X105306114Y-97116272D01*
X105295870Y-97107969D01*
X105286022Y-97099113D01*
X105276568Y-97089702D01*
X105267509Y-97079738D01*
X105258845Y-97069220D01*
X105250576Y-97058149D01*
X105242702Y-97046523D01*
X105235223Y-97034344D01*
X105230452Y-97025894D01*
X105225850Y-97017216D01*
X105221415Y-97008309D01*
X105217149Y-96999173D01*
X105213050Y-96989807D01*
X105209119Y-96980213D01*
X105205356Y-96970390D01*
X105201762Y-96960338D01*
X105198335Y-96950057D01*
X105195075Y-96939547D01*
X105191984Y-96928808D01*
X105189061Y-96917840D01*
X105186306Y-96906643D01*
X105183718Y-96895217D01*
X105181299Y-96883562D01*
X105179047Y-96871678D01*
X105176917Y-96859581D01*
X105174925Y-96847288D01*
X105173071Y-96834798D01*
X105171353Y-96822112D01*
X105169773Y-96809229D01*
X105168331Y-96796150D01*
X105167026Y-96782874D01*
X105165858Y-96769401D01*
X105164827Y-96755732D01*
X105163934Y-96741867D01*
X105163179Y-96727804D01*
X105162561Y-96713546D01*
X105162080Y-96699091D01*
X105161736Y-96684439D01*
X105161530Y-96669591D01*
X105161461Y-96654546D01*
X105161464Y-96654057D01*
X105287979Y-96654057D01*
X105288021Y-96666899D01*
X105288147Y-96679535D01*
X105288357Y-96691965D01*
X105288651Y-96704188D01*
X105289029Y-96716206D01*
X105289491Y-96728017D01*
X105290036Y-96739623D01*
X105290666Y-96751022D01*
X105291380Y-96762215D01*
X105292177Y-96773202D01*
X105293059Y-96783983D01*
X105294024Y-96794558D01*
X105295074Y-96804927D01*
X105296207Y-96815090D01*
X105297425Y-96825046D01*
X105298726Y-96834797D01*
X105300090Y-96844342D01*
X105302330Y-96858272D01*
X105304801Y-96871739D01*
X105307505Y-96884742D01*
X105310440Y-96897281D01*
X105313607Y-96909357D01*
X105317006Y-96920969D01*
X105320637Y-96932117D01*
X105324499Y-96942802D01*
X105328594Y-96953023D01*
X105332920Y-96962780D01*
X105335934Y-96969002D01*
X105340652Y-96977966D01*
X105345605Y-96986487D01*
X105352578Y-96997161D01*
X105359970Y-97007049D01*
X105367782Y-97016151D01*
X105376014Y-97024467D01*
X105384665Y-97031997D01*
X105393736Y-97038740D01*
X105396072Y-97040303D01*
X105405726Y-97046058D01*
X105415875Y-97051019D01*
X105426521Y-97055186D01*
X105437662Y-97058560D01*
X105449300Y-97061140D01*
X105461434Y-97062926D01*
X105474064Y-97063918D01*
X105483862Y-97064141D01*
X105496803Y-97063740D01*
X105509248Y-97062538D01*
X105521197Y-97060535D01*
X105532650Y-97057730D01*
X105543606Y-97054123D01*
X105554067Y-97049716D01*
X105564031Y-97044506D01*
X105573499Y-97038496D01*
X105578024Y-97035161D01*
X105586748Y-97027903D01*
X105595037Y-97019858D01*
X105602891Y-97011027D01*
X105610310Y-97001410D01*
X105617294Y-96991007D01*
X105623843Y-96979817D01*
X105628469Y-96970909D01*
X105632850Y-96961559D01*
X105635641Y-96955078D01*
X105639644Y-96944981D01*
X105643429Y-96934433D01*
X105646995Y-96923434D01*
X105650341Y-96911985D01*
X105653469Y-96900084D01*
X105656378Y-96887733D01*
X105659067Y-96874931D01*
X105661538Y-96861678D01*
X105663790Y-96847975D01*
X105665823Y-96833820D01*
X105667065Y-96824102D01*
X105668227Y-96814182D01*
X105669309Y-96804059D01*
X105670311Y-96793734D01*
X105671233Y-96783207D01*
X105672074Y-96772477D01*
X105672835Y-96761545D01*
X105673517Y-96750411D01*
X105674118Y-96739075D01*
X105674639Y-96727536D01*
X105675079Y-96715796D01*
X105675440Y-96703852D01*
X105675721Y-96691707D01*
X105675921Y-96679359D01*
X105676041Y-96666810D01*
X105676081Y-96654057D01*
X105676071Y-96647656D01*
X105675991Y-96635007D01*
X105675831Y-96622562D01*
X105675590Y-96610321D01*
X105675270Y-96598285D01*
X105674869Y-96586452D01*
X105674388Y-96574824D01*
X105673827Y-96563400D01*
X105673186Y-96552180D01*
X105672465Y-96541165D01*
X105671663Y-96530353D01*
X105670782Y-96519746D01*
X105669820Y-96509342D01*
X105668778Y-96499143D01*
X105667656Y-96489148D01*
X105665823Y-96474539D01*
X105664492Y-96465025D01*
X105662313Y-96451140D01*
X105659915Y-96437719D01*
X105657299Y-96424762D01*
X105654463Y-96412268D01*
X105651408Y-96400239D01*
X105648134Y-96388672D01*
X105644642Y-96377570D01*
X105640930Y-96366931D01*
X105637000Y-96356756D01*
X105632850Y-96347044D01*
X105629956Y-96340793D01*
X105625412Y-96331789D01*
X105620623Y-96323230D01*
X105613856Y-96312514D01*
X105606655Y-96302592D01*
X105599019Y-96293463D01*
X105590947Y-96285129D01*
X105582441Y-96277588D01*
X105573499Y-96270840D01*
X105564031Y-96264887D01*
X105554067Y-96259727D01*
X105543606Y-96255362D01*
X105532650Y-96251789D01*
X105521197Y-96249011D01*
X105509248Y-96247027D01*
X105496803Y-96245836D01*
X105483862Y-96245439D01*
X105470860Y-96245836D01*
X105458354Y-96247027D01*
X105446344Y-96249011D01*
X105434830Y-96251789D01*
X105423813Y-96255362D01*
X105413291Y-96259727D01*
X105403266Y-96264887D01*
X105393736Y-96270840D01*
X105386894Y-96275826D01*
X105378137Y-96283169D01*
X105369800Y-96291305D01*
X105361883Y-96300235D01*
X105354386Y-96309959D01*
X105347309Y-96320477D01*
X105342277Y-96328886D01*
X105337480Y-96337742D01*
X105332920Y-96347044D01*
X105330010Y-96353467D01*
X105325838Y-96363488D01*
X105321898Y-96373972D01*
X105318190Y-96384920D01*
X105314714Y-96396332D01*
X105311470Y-96408207D01*
X105308457Y-96420546D01*
X105305677Y-96433349D01*
X105303128Y-96446615D01*
X105300811Y-96460345D01*
X105298726Y-96474539D01*
X105297425Y-96484228D01*
X105296207Y-96494120D01*
X105295074Y-96504217D01*
X105294024Y-96514518D01*
X105293059Y-96525024D01*
X105292177Y-96535733D01*
X105291380Y-96546647D01*
X105290666Y-96557765D01*
X105290036Y-96569087D01*
X105289491Y-96580613D01*
X105289029Y-96592343D01*
X105288651Y-96604278D01*
X105288357Y-96616416D01*
X105288147Y-96628759D01*
X105288021Y-96641306D01*
X105287979Y-96654057D01*
X105161464Y-96654057D01*
X105161540Y-96639383D01*
X105161774Y-96624424D01*
X105162166Y-96609669D01*
X105162713Y-96595119D01*
X105163417Y-96580772D01*
X105164278Y-96566630D01*
X105165295Y-96552692D01*
X105166468Y-96538958D01*
X105167798Y-96525428D01*
X105169285Y-96512103D01*
X105170928Y-96498981D01*
X105172727Y-96486064D01*
X105174683Y-96473351D01*
X105176795Y-96460842D01*
X105179064Y-96448538D01*
X105181489Y-96436437D01*
X105182745Y-96430467D01*
X105185375Y-96418701D01*
X105188161Y-96407168D01*
X105191103Y-96395868D01*
X105194202Y-96384801D01*
X105197457Y-96373967D01*
X105200869Y-96363365D01*
X105204437Y-96352996D01*
X105208162Y-96342860D01*
X105212043Y-96332957D01*
X105216081Y-96323286D01*
X105220275Y-96313849D01*
X105224625Y-96304644D01*
X105229132Y-96295672D01*
X105233796Y-96286932D01*
X105241085Y-96274260D01*
X105246142Y-96266110D01*
X105254033Y-96254351D01*
X105262288Y-96243149D01*
X105270908Y-96232506D01*
X105279893Y-96222421D01*
X105289244Y-96212894D01*
X105298959Y-96203925D01*
X105309039Y-96195515D01*
X105319484Y-96187662D01*
X105330294Y-96180368D01*
X105341468Y-96173632D01*
X105349093Y-96169432D01*
X105360846Y-96163640D01*
X105372976Y-96158458D01*
X105385484Y-96153886D01*
X105398369Y-96149923D01*
X105411633Y-96146570D01*
X105425274Y-96143826D01*
X105439293Y-96141693D01*
X105453690Y-96140169D01*
X105463498Y-96139491D01*
X105473474Y-96139085D01*
X105483618Y-96138949D01*
X105489012Y-96138983D01*
G37*
M02*
