M48
; DRILL file {KiCad 7.0.8} date So 15 Okt 2023 21:43:51 CEST
; FORMAT={-:-/ absolute / metric / decimal}
; #@! TF.CreationDate,2023-10-15T21:43:51+02:00
; #@! TF.GenerationSoftware,Kicad,Pcbnew,7.0.8
; #@! TF.FileFunction,Plated,1,2,PTH
FMAT,2
METRIC
; #@! TA.AperFunction,Plated,PTH,ViaDrill
T1C0.300
; #@! TA.AperFunction,Plated,PTH,ComponentDrill
T2C0.600
%
G90
G05
T1
X93.6Y-99.9
X94.65Y-99.1
X94.65Y-100.7
X94.825Y-94.25
X94.85Y-95.125
X95.2Y-102.8
X95.375Y-95.575
X95.65Y-99.9
X95.725Y-97.425
X95.8Y-102.3
X95.85Y-96.675
X95.89Y-95.11
X95.9Y-94.225
X96.3Y-100.15
X96.4Y-105.4
X96.75Y-98.125
X98.15Y-105.5
X98.2Y-99.95
X99.3Y-98.85
X99.6Y-105.05
X100.0Y-101.8
X100.25Y-104.5
X101.25Y-98.05
X101.25Y-99.5
X101.525Y-96.7
X101.55Y-105.65
X102.5Y-96.7
X102.65Y-98.125
X103.35Y-98.125
X103.6Y-105.4
X103.7Y-100.1
X103.7Y-102.4
X103.75Y-96.725
X104.1Y-94.235
X104.102Y-95.135
X104.275Y-97.425
X104.4Y-102.7
X104.65Y-95.575
X105.175Y-94.225
X105.175Y-95.1
X105.5Y-99.3
X105.9Y-97.6
X106.8Y-98.5
T2
G00X95.68Y-104.78
M15
G01X95.68Y-103.68
M16
G05
G00X95.68Y-108.8
M15
G01X95.68Y-108.0
M16
G05
G00X104.32Y-104.78
M15
G01X104.32Y-103.68
M16
G05
G00X104.32Y-108.8
M15
G01X104.32Y-108.0
M16
G05
T0
M30
