%TF.GenerationSoftware,KiCad,Pcbnew,7.0.8*%
%TF.CreationDate,2023-10-15T21:47:16+02:00*%
%TF.ProjectId,usb-board,7573622d-626f-4617-9264-2e6b69636164,rev?*%
%TF.SameCoordinates,Original*%
%TF.FileFunction,Copper,L1,Top*%
%TF.FilePolarity,Positive*%
%FSLAX46Y46*%
G04 Gerber Fmt 4.6, Leading zero omitted, Abs format (unit mm)*
G04 Created by KiCad (PCBNEW 7.0.8) date 2023-10-15 21:47:16*
%MOMM*%
%LPD*%
G01*
G04 APERTURE LIST*
G04 Aperture macros list*
%AMRoundRect*
0 Rectangle with rounded corners*
0 $1 Rounding radius*
0 $2 $3 $4 $5 $6 $7 $8 $9 X,Y pos of 4 corners*
0 Add a 4 corners polygon primitive as box body*
4,1,4,$2,$3,$4,$5,$6,$7,$8,$9,$2,$3,0*
0 Add four circle primitives for the rounded corners*
1,1,$1+$1,$2,$3*
1,1,$1+$1,$4,$5*
1,1,$1+$1,$6,$7*
1,1,$1+$1,$8,$9*
0 Add four rect primitives between the rounded corners*
20,1,$1+$1,$2,$3,$4,$5,0*
20,1,$1+$1,$4,$5,$6,$7,0*
20,1,$1+$1,$6,$7,$8,$9,0*
20,1,$1+$1,$8,$9,$2,$3,0*%
G04 Aperture macros list end*
%TA.AperFunction,SMDPad,CuDef*%
%ADD10RoundRect,0.135000X-0.185000X0.135000X-0.185000X-0.135000X0.185000X-0.135000X0.185000X0.135000X0*%
%TD*%
%TA.AperFunction,SMDPad,CuDef*%
%ADD11RoundRect,0.250000X0.650000X-0.325000X0.650000X0.325000X-0.650000X0.325000X-0.650000X-0.325000X0*%
%TD*%
%TA.AperFunction,SMDPad,CuDef*%
%ADD12RoundRect,0.250000X-0.450000X0.262500X-0.450000X-0.262500X0.450000X-0.262500X0.450000X0.262500X0*%
%TD*%
%TA.AperFunction,SMDPad,CuDef*%
%ADD13RoundRect,0.218750X0.218750X0.256250X-0.218750X0.256250X-0.218750X-0.256250X0.218750X-0.256250X0*%
%TD*%
%TA.AperFunction,SMDPad,CuDef*%
%ADD14R,0.300000X0.650000*%
%TD*%
%TA.AperFunction,SMDPad,CuDef*%
%ADD15R,0.300000X1.150000*%
%TD*%
%TA.AperFunction,SMDPad,CuDef*%
%ADD16RoundRect,0.218750X-0.218750X-0.256250X0.218750X-0.256250X0.218750X0.256250X-0.218750X0.256250X0*%
%TD*%
%TA.AperFunction,SMDPad,CuDef*%
%ADD17R,0.600000X1.160000*%
%TD*%
%TA.AperFunction,SMDPad,CuDef*%
%ADD18R,0.300000X1.160000*%
%TD*%
%TA.AperFunction,ComponentPad*%
%ADD19O,0.900000X2.000000*%
%TD*%
%TA.AperFunction,ComponentPad*%
%ADD20O,0.900000X1.700000*%
%TD*%
%TA.AperFunction,ViaPad*%
%ADD21C,0.500000*%
%TD*%
%TA.AperFunction,Conductor*%
%ADD22C,0.250000*%
%TD*%
%TA.AperFunction,Conductor*%
%ADD23C,0.127000*%
%TD*%
G04 APERTURE END LIST*
D10*
%TO.P,R2,1*%
%TO.N,Net-(J2-CC2)*%
X103700000Y-100690000D03*
%TO.P,R2,2*%
%TO.N,GND*%
X103700000Y-101710000D03*
%TD*%
%TO.P,R1,1*%
%TO.N,Net-(J2-CC1)*%
X96300000Y-100690000D03*
%TO.P,R1,2*%
%TO.N,GND*%
X96300000Y-101710000D03*
%TD*%
D11*
%TO.P,C1,1*%
%TO.N,Net-(J2-SHIELD)*%
X105500000Y-101400000D03*
%TO.P,C1,2*%
%TO.N,GND*%
X105500000Y-98450000D03*
%TD*%
D12*
%TO.P,R3,1*%
%TO.N,GND*%
X94650000Y-99887500D03*
%TO.P,R3,2*%
%TO.N,Net-(J2-SHIELD)*%
X94650000Y-101712500D03*
%TD*%
D13*
%TO.P,D1,1,K*%
%TO.N,GND*%
X99300000Y-101800000D03*
%TO.P,D1,2,A*%
%TO.N,Net-(D1-A)*%
X97725000Y-101800000D03*
%TD*%
D14*
%TO.P,J3,1,Pin_1*%
%TO.N,GND*%
X103750000Y-97425000D03*
%TO.P,J3,2,Pin_2*%
%TO.N,Net-(J3-Pin_2)*%
X103250000Y-97425000D03*
%TO.P,J3,3,Pin_3*%
%TO.N,Net-(J3-Pin_3)*%
X102750000Y-97425000D03*
%TO.P,J3,4,Pin_4*%
%TO.N,GND*%
X102250000Y-97425000D03*
%TO.P,J3,5,Pin_5*%
X101750000Y-97425000D03*
%TO.P,J3,6,Pin_6*%
%TO.N,Net-(D2-A)*%
X101250000Y-97425000D03*
%TO.P,J3,7,Pin_7*%
%TO.N,Net-(D1-A)*%
X100750000Y-97425000D03*
%TO.P,J3,8,Pin_8*%
%TO.N,unconnected-(J3-Pin_8-Pad8)*%
X100250000Y-97425000D03*
%TO.P,J3,9,Pin_9*%
%TO.N,unconnected-(J3-Pin_9-Pad9)*%
X99750000Y-97425000D03*
%TO.P,J3,10,Pin_10*%
%TO.N,Net-(J3-Pin_10)*%
X99250000Y-97425000D03*
%TO.P,J3,11,Pin_11*%
X98750000Y-97425000D03*
%TO.P,J3,12,Pin_12*%
X98250000Y-97425000D03*
%TO.P,J3,13,Pin_13*%
X97750000Y-97425000D03*
%TO.P,J3,14,Pin_14*%
X97250000Y-97425000D03*
%TO.P,J3,15,Pin_15*%
%TO.N,GND*%
X96750000Y-97425000D03*
%TO.P,J3,16,Pin_16*%
X96250000Y-97425000D03*
D15*
%TO.P,J3,MP,MountPin*%
X104635000Y-94615000D03*
X95365000Y-94615000D03*
%TD*%
D16*
%TO.P,D2,1,K*%
%TO.N,GND*%
X100700002Y-101800000D03*
%TO.P,D2,2,A*%
%TO.N,Net-(D2-A)*%
X102275002Y-101800000D03*
%TD*%
D17*
%TO.P,J2,A1,GND*%
%TO.N,GND*%
X96800000Y-103650000D03*
%TO.P,J2,A4,VBUS*%
%TO.N,Net-(J3-Pin_10)*%
X97600000Y-103650000D03*
D18*
%TO.P,J2,A5,CC1*%
%TO.N,Net-(J2-CC1)*%
X98750000Y-103650000D03*
%TO.P,J2,A6,D+*%
%TO.N,Net-(J3-Pin_3)*%
X99750000Y-103650000D03*
%TO.P,J2,A7,D-*%
%TO.N,Net-(J3-Pin_2)*%
X100250000Y-103650000D03*
%TO.P,J2,A8,SBU1*%
%TO.N,unconnected-(J2-SBU1-PadA8)*%
X101250000Y-103650000D03*
D17*
%TO.P,J2,A9,VBUS*%
%TO.N,Net-(J3-Pin_10)*%
X102400000Y-103650000D03*
%TO.P,J2,A12,GND*%
%TO.N,GND*%
X103200000Y-103650000D03*
%TO.P,J2,B1,GND*%
X103200000Y-103650000D03*
%TO.P,J2,B4,VBUS*%
%TO.N,Net-(J3-Pin_10)*%
X102400000Y-103650000D03*
D18*
%TO.P,J2,B5,CC2*%
%TO.N,Net-(J2-CC2)*%
X101750000Y-103650000D03*
%TO.P,J2,B6,D+*%
%TO.N,Net-(J3-Pin_3)*%
X100750000Y-103650000D03*
%TO.P,J2,B7,D-*%
%TO.N,Net-(J3-Pin_2)*%
X99250000Y-103650000D03*
%TO.P,J2,B8,SBU2*%
%TO.N,unconnected-(J2-SBU2-PadB8)*%
X98250000Y-103650000D03*
D17*
%TO.P,J2,B9,VBUS*%
%TO.N,Net-(J3-Pin_10)*%
X97600000Y-103650000D03*
%TO.P,J2,B12,GND*%
%TO.N,GND*%
X96800000Y-103650000D03*
D19*
%TO.P,J2,S1,SHIELD*%
%TO.N,Net-(J2-SHIELD)*%
X95680000Y-104230000D03*
D20*
X95680000Y-108400000D03*
D19*
X104320000Y-104230000D03*
D20*
X104320000Y-108400000D03*
%TD*%
D21*
%TO.N,GND*%
X105900000Y-97600000D03*
X95200000Y-102800000D03*
X101525000Y-96700000D03*
X95890000Y-95110000D03*
X103600000Y-105400000D03*
X105175000Y-94225000D03*
X95850000Y-96675000D03*
X94825000Y-94250000D03*
X94850000Y-95125000D03*
X95800000Y-102300000D03*
X95900000Y-94225000D03*
X105175000Y-95100000D03*
X104650000Y-95575000D03*
X103750000Y-96725000D03*
X96400000Y-105400000D03*
X100000000Y-101800000D03*
X106800000Y-98500000D03*
X95650000Y-99900000D03*
X104102500Y-95135000D03*
X95375000Y-95575000D03*
X104100000Y-94235000D03*
X94650000Y-100700000D03*
X93600000Y-99900000D03*
X104275000Y-97425000D03*
X96750000Y-98125000D03*
X104400000Y-102700000D03*
X94650000Y-99100000D03*
X103700000Y-102400000D03*
X102500000Y-96700000D03*
X95725000Y-97425000D03*
X105500000Y-99300000D03*
%TO.N,Net-(D1-A)*%
X99300000Y-98850000D03*
X98200000Y-99950000D03*
%TO.N,Net-(D2-A)*%
X101250000Y-99500000D03*
X101250000Y-98050000D03*
%TO.N,Net-(J3-Pin_3)*%
X99600000Y-105050000D03*
X102650000Y-98125000D03*
%TO.N,Net-(J2-CC1)*%
X98150000Y-105500000D03*
X96300000Y-100150000D03*
%TO.N,Net-(J2-CC2)*%
X103700000Y-100100000D03*
X101550000Y-105650000D03*
%TO.N,Net-(J3-Pin_2)*%
X103350000Y-98125000D03*
X100250000Y-104500000D03*
%TD*%
D22*
%TO.N,Net-(J2-SHIELD)*%
X94650000Y-101712500D02*
X94650000Y-103050000D01*
X105375000Y-102625000D02*
X104300000Y-103700000D01*
X105375000Y-101525000D02*
X105375000Y-102625000D01*
X95680000Y-108780000D02*
X95700000Y-108800000D01*
X105500000Y-101400000D02*
X105375000Y-101525000D01*
X95680000Y-108400000D02*
X104300000Y-108400000D01*
X95680000Y-104230000D02*
X95680000Y-108780000D01*
X95700000Y-104100000D02*
X95700000Y-104600000D01*
X94650000Y-103050000D02*
X95700000Y-104100000D01*
X104300000Y-103700000D02*
X104300000Y-108400000D01*
D23*
%TO.N,GND*%
X95385000Y-95110000D02*
X94865000Y-95110000D01*
D22*
X106750000Y-98450000D02*
X106800000Y-98500000D01*
X96300000Y-103200000D02*
X95900000Y-102800000D01*
D23*
X104635000Y-95560000D02*
X104650000Y-95575000D01*
X104635000Y-94225000D02*
X104110000Y-94225000D01*
D22*
X103200000Y-103100000D02*
X103600000Y-102700000D01*
D23*
X103750000Y-97425000D02*
X104275000Y-97425000D01*
D22*
X96400000Y-104800000D02*
X96400000Y-105400000D01*
X103200000Y-103650000D02*
X103200000Y-103100000D01*
D23*
X104635000Y-94615000D02*
X104635000Y-95122500D01*
X95365000Y-95565000D02*
X95375000Y-95575000D01*
X101750000Y-96925000D02*
X101525000Y-96700000D01*
X104640000Y-95110000D02*
X105165000Y-95110000D01*
X104635000Y-95122500D02*
X104637500Y-95125000D01*
X103750000Y-97425000D02*
X103750000Y-96725000D01*
X101750000Y-97425000D02*
X101750000Y-96925000D01*
X96250000Y-97425000D02*
X95725000Y-97425000D01*
D22*
X93612500Y-99887500D02*
X93600000Y-99900000D01*
D23*
X103700000Y-102400000D02*
X103700000Y-101700000D01*
X95365000Y-94615000D02*
X95365000Y-95565000D01*
X95360000Y-94240000D02*
X94835000Y-94240000D01*
D22*
X103600000Y-104050000D02*
X103600000Y-104900000D01*
X96400000Y-104050000D02*
X96400000Y-104800000D01*
X105500000Y-98450000D02*
X106750000Y-98450000D01*
X103600000Y-104900000D02*
X103600000Y-105400000D01*
D23*
X95365000Y-94240000D02*
X95885000Y-94240000D01*
D22*
X94650000Y-99887500D02*
X95637500Y-99887500D01*
D23*
X96300000Y-101800000D02*
X95800000Y-102300000D01*
D22*
X96800000Y-103650000D02*
X96800000Y-103400000D01*
D23*
X96250000Y-97075000D02*
X95850000Y-96675000D01*
X96250000Y-97425000D02*
X96250000Y-97075000D01*
D22*
X96800000Y-103650000D02*
X96800000Y-103200000D01*
X94650000Y-99887500D02*
X94650000Y-100700000D01*
X96800000Y-103200000D02*
X96300000Y-102700000D01*
X103200000Y-103650000D02*
X103600000Y-104050000D01*
D23*
X104635000Y-94615000D02*
X104635000Y-95560000D01*
X96750000Y-97425000D02*
X96750000Y-98125000D01*
D22*
X105900000Y-98450000D02*
X105900000Y-97600000D01*
X104000000Y-102900000D02*
X104200000Y-102700000D01*
D23*
X96300000Y-101710000D02*
X96300000Y-101800000D01*
D22*
X95637500Y-99887500D02*
X95650000Y-99900000D01*
D23*
X95355000Y-95125000D02*
X95875000Y-95125000D01*
D22*
X95900000Y-102300000D02*
X95800000Y-102300000D01*
D23*
X99300000Y-101800000D02*
X100000000Y-101800000D01*
D22*
X94650000Y-99887500D02*
X93612500Y-99887500D01*
X105500000Y-98450000D02*
X105500000Y-99300000D01*
X96800000Y-103650000D02*
X96400000Y-104050000D01*
X103600000Y-102700000D02*
X103700000Y-102600000D01*
X104200000Y-102700000D02*
X104400000Y-102700000D01*
X103250000Y-103650000D02*
X104000000Y-102900000D01*
X103700000Y-102600000D02*
X103700000Y-102400000D01*
D23*
X102250000Y-96950000D02*
X102500000Y-96700000D01*
D22*
X95900000Y-102800000D02*
X95200000Y-102800000D01*
D23*
X100000000Y-101800000D02*
X100700000Y-101800000D01*
D22*
X103200000Y-103650000D02*
X103250000Y-103650000D01*
X96750000Y-103650000D02*
X96300000Y-103200000D01*
D23*
X104640000Y-94235000D02*
X105165000Y-94235000D01*
D22*
X96300000Y-102700000D02*
X95900000Y-102300000D01*
D23*
X104637500Y-95125000D02*
X104112500Y-95125000D01*
X102250000Y-97425000D02*
X102250000Y-96950000D01*
D22*
X96800000Y-103650000D02*
X96750000Y-103650000D01*
X94650000Y-99887500D02*
X94650000Y-99100000D01*
D23*
%TO.N,Net-(D1-A)*%
X97725000Y-100425000D02*
X98200000Y-99950000D01*
X100100000Y-98050000D02*
X99300000Y-98850000D01*
X97725000Y-101800000D02*
X97725000Y-100425000D01*
X100750000Y-97425000D02*
X100750000Y-97750000D01*
X100750000Y-97750000D02*
X100450000Y-98050000D01*
X100450000Y-98050000D02*
X100100000Y-98050000D01*
%TO.N,Net-(D2-A)*%
X102275002Y-101800000D02*
X102275002Y-100525002D01*
X101250000Y-98050000D02*
X101250000Y-97400000D01*
X102275002Y-100525002D02*
X101250000Y-99500000D01*
%TO.N,Net-(J3-Pin_3)*%
X99850000Y-104800000D02*
X100050000Y-105000000D01*
X100750000Y-104700000D02*
X100450000Y-105000000D01*
X100750000Y-103650000D02*
X100750000Y-104700000D01*
X102750000Y-97425000D02*
X102750000Y-98025000D01*
X99750000Y-104700000D02*
X99850000Y-104800000D01*
X102750000Y-98025000D02*
X102650000Y-98125000D01*
X99850000Y-104800000D02*
X99600000Y-105050000D01*
X99750000Y-103650000D02*
X99750000Y-104700000D01*
X100450000Y-105000000D02*
X100050000Y-105000000D01*
%TO.N,Net-(J2-CC1)*%
X96300000Y-100150000D02*
X96300000Y-100750000D01*
X98150000Y-105500000D02*
X98750000Y-104900000D01*
X98750000Y-103650000D02*
X98750000Y-104575000D01*
X98750000Y-104900000D02*
X98750000Y-104575000D01*
%TO.N,Net-(J2-CC2)*%
X103700000Y-100690000D02*
X103700000Y-100100000D01*
X101750000Y-104650000D02*
X101600000Y-104800000D01*
X101750000Y-103650000D02*
X101750000Y-104650000D01*
X101600000Y-104800000D02*
X101550000Y-104850000D01*
X101550000Y-104850000D02*
X101550000Y-105650000D01*
D22*
%TO.N,Net-(J3-Pin_10)*%
X98000000Y-102700000D02*
X98100000Y-102600000D01*
X102400000Y-103650000D02*
X102400000Y-103066000D01*
X101834000Y-102500000D02*
X101500000Y-102500000D01*
D23*
X97250000Y-97425000D02*
X97250000Y-96050000D01*
X98750000Y-97425000D02*
X98750000Y-96625000D01*
X99250000Y-97425000D02*
X99250000Y-98025000D01*
D22*
X97600000Y-103650000D02*
X97600000Y-103100000D01*
D23*
X98250000Y-97425000D02*
X98250000Y-98250000D01*
D22*
X97600000Y-103200000D02*
X96900000Y-102500000D01*
X97600000Y-104100000D02*
X98200000Y-104700000D01*
X102400000Y-103100000D02*
X103000000Y-102500000D01*
D23*
X99250000Y-97425000D02*
X99250000Y-96775000D01*
D22*
X97600000Y-103100000D02*
X98000000Y-102700000D01*
X97600000Y-103650000D02*
X97600000Y-104100000D01*
X102400000Y-103650000D02*
X102250000Y-103800000D01*
X102250000Y-104400000D02*
X102100000Y-104550000D01*
X102400000Y-103066000D02*
X101834000Y-102500000D01*
D23*
X97750000Y-97425000D02*
X97750000Y-98425000D01*
D22*
X97600000Y-103650000D02*
X97600000Y-103200000D01*
D23*
X97250000Y-97425000D02*
X97250000Y-98750000D01*
D22*
X102100000Y-104550000D02*
X102100000Y-105150000D01*
X102400000Y-103650000D02*
X102400000Y-104100000D01*
D23*
X97750000Y-97425000D02*
X97750000Y-96275000D01*
D22*
X102400000Y-103650000D02*
X102400000Y-103100000D01*
X102250000Y-103800000D02*
X102250000Y-104400000D01*
D23*
X98250000Y-97425000D02*
X98250000Y-96400000D01*
X98750000Y-97425000D02*
X98750000Y-98150000D01*
D22*
X98100000Y-102600000D02*
X98500000Y-102600000D01*
D23*
%TO.N,Net-(J3-Pin_2)*%
X100250000Y-103650000D02*
X100250000Y-104500000D01*
X100250000Y-103650000D02*
X100250000Y-102950000D01*
X99250000Y-103650000D02*
X99250000Y-102950000D01*
X103250000Y-97425000D02*
X103250000Y-98025000D01*
X103250000Y-98025000D02*
X103350000Y-98125000D01*
X99250000Y-102950000D02*
X99350000Y-102850000D01*
X99350000Y-102850000D02*
X100150000Y-102850000D01*
X100250000Y-102950000D02*
X100150000Y-102850000D01*
%TD*%
%TA.AperFunction,Conductor*%
%TO.N,Net-(J3-Pin_10)*%
G36*
X113810992Y-93018806D02*
G01*
X114481194Y-93689008D01*
X114499500Y-93733202D01*
X114499500Y-96802509D01*
X114485804Y-96841552D01*
X113082109Y-98596170D01*
X113040207Y-98619245D01*
X112994262Y-98605931D01*
X112971187Y-98564029D01*
X112971629Y-98547015D01*
X112980156Y-98495010D01*
X112980155Y-98495009D01*
X112973813Y-98378049D01*
X112970422Y-98315499D01*
X112922327Y-98142277D01*
X112838119Y-97983444D01*
X112721735Y-97846426D01*
X112610650Y-97761981D01*
X112578619Y-97737631D01*
X112487477Y-97695465D01*
X112415459Y-97662146D01*
X112415460Y-97662146D01*
X112371566Y-97652484D01*
X112239887Y-97623500D01*
X112105184Y-97623500D01*
X112105183Y-97623500D01*
X111971278Y-97638063D01*
X111971272Y-97638064D01*
X111800913Y-97695465D01*
X111646874Y-97788149D01*
X111646873Y-97788149D01*
X111516357Y-97911781D01*
X111415469Y-98060580D01*
X111348931Y-98227580D01*
X111348930Y-98227582D01*
X111348930Y-98227584D01*
X111343344Y-98261657D01*
X111319845Y-98404990D01*
X111319844Y-98404990D01*
X111329577Y-98584494D01*
X111329577Y-98584498D01*
X111329578Y-98584501D01*
X111346200Y-98644367D01*
X111377673Y-98757724D01*
X111377675Y-98757728D01*
X111456015Y-98905491D01*
X111461881Y-98916556D01*
X111578265Y-99053574D01*
X111666357Y-99120540D01*
X111721380Y-99162368D01*
X111721381Y-99162368D01*
X111721382Y-99162369D01*
X111884541Y-99237854D01*
X112060113Y-99276500D01*
X112060116Y-99276500D01*
X112194812Y-99276500D01*
X112194816Y-99276500D01*
X112328721Y-99261937D01*
X112429205Y-99228080D01*
X112476929Y-99231316D01*
X112508388Y-99267351D01*
X112505152Y-99315077D01*
X112497964Y-99326351D01*
X110737289Y-101527196D01*
X110700742Y-101549439D01*
X105956510Y-102498286D01*
X105944253Y-102499500D01*
X105928039Y-102499500D01*
X105881500Y-102513163D01*
X105878827Y-102513821D01*
X105866744Y-102516238D01*
X105866742Y-102516239D01*
X105846671Y-102523342D01*
X105845051Y-102523866D01*
X105789949Y-102540046D01*
X105789942Y-102540049D01*
X105784353Y-102543641D01*
X105771424Y-102549977D01*
X105765995Y-102551899D01*
X105765158Y-102552196D01*
X105726607Y-102580055D01*
X105680065Y-102591103D01*
X105639343Y-102566005D01*
X105627500Y-102529398D01*
X105627500Y-102164999D01*
X105645806Y-102120805D01*
X105690000Y-102102499D01*
X106185826Y-102102499D01*
X106259204Y-102091809D01*
X106372390Y-102036476D01*
X106461476Y-101947390D01*
X106516809Y-101834204D01*
X106527500Y-101760827D01*
X106527499Y-101039174D01*
X106516809Y-100965796D01*
X106461476Y-100852610D01*
X106372390Y-100763524D01*
X106259204Y-100708191D01*
X106259202Y-100708190D01*
X106259201Y-100708190D01*
X106200913Y-100699698D01*
X106185827Y-100697500D01*
X106185826Y-100697500D01*
X104814174Y-100697500D01*
X104740798Y-100708190D01*
X104740797Y-100708190D01*
X104740796Y-100708191D01*
X104627610Y-100763524D01*
X104627608Y-100763525D01*
X104538525Y-100852608D01*
X104483190Y-100965798D01*
X104472500Y-101039173D01*
X104472500Y-101760825D01*
X104483190Y-101834201D01*
X104483191Y-101834204D01*
X104538524Y-101947390D01*
X104627610Y-102036476D01*
X104740796Y-102091809D01*
X104814173Y-102102500D01*
X105060000Y-102102499D01*
X105104194Y-102120805D01*
X105122500Y-102164999D01*
X105122500Y-102494522D01*
X105104194Y-102538716D01*
X104911016Y-102731893D01*
X104866822Y-102750199D01*
X104822628Y-102731893D01*
X104805092Y-102697479D01*
X104785646Y-102574696D01*
X104728050Y-102461658D01*
X104638342Y-102371950D01*
X104525304Y-102314354D01*
X104400000Y-102294508D01*
X104274695Y-102314354D01*
X104274691Y-102314355D01*
X104182222Y-102361471D01*
X104134534Y-102365224D01*
X104098160Y-102334157D01*
X104092118Y-102315564D01*
X104085646Y-102274696D01*
X104028050Y-102161658D01*
X104024032Y-102157640D01*
X104005726Y-102113446D01*
X104024032Y-102069252D01*
X104033504Y-102061479D01*
X104074251Y-102034253D01*
X104089906Y-102010825D01*
X104132270Y-101947423D01*
X104147500Y-101870856D01*
X104147500Y-101549144D01*
X104132270Y-101472577D01*
X104132269Y-101472575D01*
X104074252Y-101385747D01*
X103987424Y-101327730D01*
X103987422Y-101327729D01*
X103910856Y-101312500D01*
X103489144Y-101312500D01*
X103412577Y-101327729D01*
X103412575Y-101327730D01*
X103325747Y-101385747D01*
X103267730Y-101472575D01*
X103267729Y-101472577D01*
X103252500Y-101549143D01*
X103252500Y-101870856D01*
X103267729Y-101947422D01*
X103267730Y-101947424D01*
X103325747Y-102034252D01*
X103366495Y-102061479D01*
X103393071Y-102101253D01*
X103383739Y-102148169D01*
X103375969Y-102157637D01*
X103371952Y-102161654D01*
X103314354Y-102274694D01*
X103314354Y-102274695D01*
X103294508Y-102400000D01*
X103314354Y-102525304D01*
X103314355Y-102525308D01*
X103328590Y-102553245D01*
X103332343Y-102600933D01*
X103317096Y-102625813D01*
X103043395Y-102899514D01*
X103033927Y-102907285D01*
X103017956Y-102917957D01*
X103013604Y-102922310D01*
X103011665Y-102920371D01*
X102980341Y-102941300D01*
X102968151Y-102942500D01*
X102887442Y-102942500D01*
X102868847Y-102946199D01*
X102850251Y-102949898D01*
X102850250Y-102949898D01*
X102808077Y-102978077D01*
X102779898Y-103020250D01*
X102779898Y-103020251D01*
X102772500Y-103057442D01*
X102772500Y-104119854D01*
X102754194Y-104164048D01*
X102734901Y-104177179D01*
X102601278Y-104235220D01*
X102483893Y-104330721D01*
X102483890Y-104330724D01*
X102396622Y-104454353D01*
X102345945Y-104596944D01*
X102336115Y-104740668D01*
X102335619Y-104747921D01*
X102362663Y-104878065D01*
X102366408Y-104896084D01*
X102366408Y-104896086D01*
X102402452Y-104965647D01*
X102436029Y-105030447D01*
X102514393Y-105114354D01*
X102539321Y-105141045D01*
X102562404Y-105155082D01*
X102668618Y-105219672D01*
X102814332Y-105260499D01*
X102814332Y-105260500D01*
X102814335Y-105260500D01*
X102927657Y-105260500D01*
X102927658Y-105260500D01*
X103039920Y-105245070D01*
X103127836Y-105206881D01*
X103175664Y-105206064D01*
X103210061Y-105239306D01*
X103214467Y-105273984D01*
X103214354Y-105274695D01*
X103214354Y-105274696D01*
X103207444Y-105318327D01*
X103197180Y-105383132D01*
X103194508Y-105400000D01*
X103196818Y-105414584D01*
X103214354Y-105525304D01*
X103214354Y-105525305D01*
X103242627Y-105580793D01*
X103271950Y-105638342D01*
X103361658Y-105728050D01*
X103474696Y-105785646D01*
X103600000Y-105805492D01*
X103725304Y-105785646D01*
X103838342Y-105728050D01*
X103928050Y-105638342D01*
X103929311Y-105635866D01*
X103930728Y-105634656D01*
X103930943Y-105634361D01*
X103931013Y-105634412D01*
X103965684Y-105604799D01*
X104013372Y-105608550D01*
X104044440Y-105644923D01*
X104047500Y-105664239D01*
X104047500Y-107450352D01*
X104029194Y-107494546D01*
X104023048Y-107499937D01*
X103908120Y-107588123D01*
X103815553Y-107708762D01*
X103757366Y-107849238D01*
X103757363Y-107849248D01*
X103742500Y-107962146D01*
X103742500Y-108085000D01*
X103724194Y-108129194D01*
X103680000Y-108147500D01*
X96320000Y-108147500D01*
X96275806Y-108129194D01*
X96257500Y-108085000D01*
X96257500Y-107962157D01*
X96257500Y-107962151D01*
X96242635Y-107849242D01*
X96184445Y-107708759D01*
X96091878Y-107588122D01*
X96091876Y-107588121D01*
X96091876Y-107588120D01*
X95971238Y-107495552D01*
X95971071Y-107495483D01*
X95971006Y-107495418D01*
X95967691Y-107493504D01*
X95968204Y-107492615D01*
X95937253Y-107461651D01*
X95932500Y-107437745D01*
X95932500Y-105624987D01*
X95950806Y-105580793D01*
X95995000Y-105562487D01*
X96039194Y-105580793D01*
X96050688Y-105596613D01*
X96070688Y-105635867D01*
X96071950Y-105638342D01*
X96161658Y-105728050D01*
X96274696Y-105785646D01*
X96400000Y-105805492D01*
X96525304Y-105785646D01*
X96638342Y-105728050D01*
X96728050Y-105638342D01*
X96785646Y-105525304D01*
X96789654Y-105500000D01*
X97744508Y-105500000D01*
X97764354Y-105625304D01*
X97764354Y-105625305D01*
X97770997Y-105638342D01*
X97821950Y-105738342D01*
X97911658Y-105828050D01*
X98024696Y-105885646D01*
X98150000Y-105905492D01*
X98275304Y-105885646D01*
X98388342Y-105828050D01*
X98478050Y-105738342D01*
X98535646Y-105625304D01*
X98555492Y-105500000D01*
X98541963Y-105414582D01*
X98553130Y-105368070D01*
X98559494Y-105360619D01*
X98854602Y-105065511D01*
X98871679Y-105053396D01*
X98872149Y-105053170D01*
X98891548Y-105028842D01*
X98893885Y-105026229D01*
X98896479Y-105023636D01*
X98900275Y-105019840D01*
X98905082Y-105012189D01*
X98907114Y-105009324D01*
X98926511Y-104985003D01*
X98926625Y-104984500D01*
X98934644Y-104965141D01*
X98934918Y-104964706D01*
X98938401Y-104933779D01*
X98938988Y-104930332D01*
X98941000Y-104921521D01*
X98941000Y-104912482D01*
X98941197Y-104908980D01*
X98941884Y-104902877D01*
X98944680Y-104878065D01*
X98944506Y-104877570D01*
X98941000Y-104856929D01*
X98941000Y-104394031D01*
X98959306Y-104349837D01*
X99003500Y-104331531D01*
X99038222Y-104342064D01*
X99050252Y-104350102D01*
X99087442Y-104357500D01*
X99087443Y-104357500D01*
X99412557Y-104357500D01*
X99412558Y-104357500D01*
X99449748Y-104350102D01*
X99461776Y-104342064D01*
X99508691Y-104332732D01*
X99548466Y-104359306D01*
X99559000Y-104394031D01*
X99559000Y-104597621D01*
X99540694Y-104641815D01*
X99506278Y-104659351D01*
X99474698Y-104664353D01*
X99474697Y-104664353D01*
X99361657Y-104721950D01*
X99271950Y-104811657D01*
X99214354Y-104924694D01*
X99214354Y-104924695D01*
X99194508Y-105050000D01*
X99214354Y-105175304D01*
X99214354Y-105175305D01*
X99245476Y-105236385D01*
X99271950Y-105288342D01*
X99361658Y-105378050D01*
X99474696Y-105435646D01*
X99600000Y-105455492D01*
X99725304Y-105435646D01*
X99838342Y-105378050D01*
X99928050Y-105288342D01*
X99960831Y-105224003D01*
X99997204Y-105192936D01*
X100024870Y-105191696D01*
X100024993Y-105190607D01*
X100028478Y-105190999D01*
X100028479Y-105191000D01*
X100037515Y-105191000D01*
X100041016Y-105191197D01*
X100063447Y-105193723D01*
X100071935Y-105194680D01*
X100071935Y-105194679D01*
X100071936Y-105194680D01*
X100072428Y-105194508D01*
X100093072Y-105191000D01*
X100406928Y-105191000D01*
X100427570Y-105194507D01*
X100427573Y-105194508D01*
X100428065Y-105194680D01*
X100452934Y-105191878D01*
X100458981Y-105191197D01*
X100462483Y-105191000D01*
X100471521Y-105191000D01*
X100480334Y-105188987D01*
X100483779Y-105188401D01*
X100514706Y-105184918D01*
X100515141Y-105184644D01*
X100534500Y-105176625D01*
X100535003Y-105176511D01*
X100559328Y-105157110D01*
X100562189Y-105155082D01*
X100569840Y-105150275D01*
X100576229Y-105143885D01*
X100578842Y-105141548D01*
X100603170Y-105122149D01*
X100603396Y-105121679D01*
X100615511Y-105104602D01*
X100854602Y-104865511D01*
X100871679Y-104853396D01*
X100872149Y-104853170D01*
X100891548Y-104828842D01*
X100893885Y-104826229D01*
X100897059Y-104823056D01*
X100900275Y-104819840D01*
X100905082Y-104812189D01*
X100907114Y-104809324D01*
X100908167Y-104808004D01*
X100926511Y-104785003D01*
X100926625Y-104784500D01*
X100934644Y-104765141D01*
X100934918Y-104764706D01*
X100938401Y-104733779D01*
X100938988Y-104730332D01*
X100941000Y-104721521D01*
X100941000Y-104712482D01*
X100941197Y-104708980D01*
X100941884Y-104702877D01*
X100944680Y-104678065D01*
X100944506Y-104677570D01*
X100941000Y-104656929D01*
X100941000Y-104394031D01*
X100959306Y-104349837D01*
X101003500Y-104331531D01*
X101038222Y-104342064D01*
X101050252Y-104350102D01*
X101087442Y-104357500D01*
X101087443Y-104357500D01*
X101412557Y-104357500D01*
X101412558Y-104357500D01*
X101449748Y-104350102D01*
X101461776Y-104342064D01*
X101508691Y-104332732D01*
X101548466Y-104359306D01*
X101559000Y-104394031D01*
X101559000Y-104544997D01*
X101540694Y-104589191D01*
X101480159Y-104649726D01*
X101445392Y-104684490D01*
X101428328Y-104696600D01*
X101427850Y-104696829D01*
X101408455Y-104721150D01*
X101406121Y-104723762D01*
X101399725Y-104730159D01*
X101399724Y-104730160D01*
X101394916Y-104737812D01*
X101392889Y-104740668D01*
X101373489Y-104764996D01*
X101373488Y-104764998D01*
X101373370Y-104765516D01*
X101365365Y-104784843D01*
X101365082Y-104785293D01*
X101365081Y-104785295D01*
X101361598Y-104816211D01*
X101361011Y-104819666D01*
X101359000Y-104828477D01*
X101359000Y-104837516D01*
X101358803Y-104841017D01*
X101355320Y-104871935D01*
X101355492Y-104872427D01*
X101359000Y-104893071D01*
X101359000Y-105259528D01*
X101340694Y-105303722D01*
X101324875Y-105315215D01*
X101311659Y-105321948D01*
X101311658Y-105321950D01*
X101221950Y-105411657D01*
X101164354Y-105524694D01*
X101164354Y-105524695D01*
X101144508Y-105650000D01*
X101164354Y-105775304D01*
X101164354Y-105775305D01*
X101220576Y-105885645D01*
X101221950Y-105888342D01*
X101311658Y-105978050D01*
X101424696Y-106035646D01*
X101550000Y-106055492D01*
X101675304Y-106035646D01*
X101788342Y-105978050D01*
X101878050Y-105888342D01*
X101935646Y-105775304D01*
X101955492Y-105650000D01*
X101935646Y-105524696D01*
X101878050Y-105411658D01*
X101788342Y-105321950D01*
X101788340Y-105321948D01*
X101775125Y-105315215D01*
X101744059Y-105278841D01*
X101741000Y-105259528D01*
X101741000Y-104955002D01*
X101759305Y-104910809D01*
X101854602Y-104815511D01*
X101871679Y-104803396D01*
X101872149Y-104803170D01*
X101891548Y-104778842D01*
X101893885Y-104776229D01*
X101900275Y-104769840D01*
X101905082Y-104762189D01*
X101907114Y-104759324D01*
X101926511Y-104735003D01*
X101926625Y-104734500D01*
X101934644Y-104715141D01*
X101934918Y-104714706D01*
X101938401Y-104683779D01*
X101938988Y-104680332D01*
X101939619Y-104677571D01*
X101941000Y-104671521D01*
X101941000Y-104662482D01*
X101941197Y-104658980D01*
X101942239Y-104649726D01*
X101944680Y-104628065D01*
X101944506Y-104627570D01*
X101941000Y-104606929D01*
X101941000Y-104389354D01*
X101959306Y-104345160D01*
X101968777Y-104337387D01*
X101991922Y-104321922D01*
X102020101Y-104279749D01*
X102020102Y-104279748D01*
X102027500Y-104242558D01*
X102027500Y-103057442D01*
X102020102Y-103020252D01*
X102000000Y-102990167D01*
X101991922Y-102978077D01*
X101949748Y-102949898D01*
X101942021Y-102948361D01*
X101912558Y-102942500D01*
X101587442Y-102942500D01*
X101568847Y-102946199D01*
X101550251Y-102949898D01*
X101550250Y-102949898D01*
X101534723Y-102960274D01*
X101487807Y-102969606D01*
X101465277Y-102960274D01*
X101449748Y-102949898D01*
X101442021Y-102948361D01*
X101412558Y-102942500D01*
X101087442Y-102942500D01*
X101068847Y-102946199D01*
X101050251Y-102949898D01*
X101050250Y-102949898D01*
X101034723Y-102960274D01*
X100987807Y-102969606D01*
X100965277Y-102960274D01*
X100949748Y-102949898D01*
X100942021Y-102948361D01*
X100912558Y-102942500D01*
X100587442Y-102942500D01*
X100568847Y-102946199D01*
X100550251Y-102949898D01*
X100535158Y-102959983D01*
X100488242Y-102969314D01*
X100448468Y-102942737D01*
X100439509Y-102921948D01*
X100439458Y-102921726D01*
X100438986Y-102919656D01*
X100438400Y-102916208D01*
X100434918Y-102885295D01*
X100434918Y-102885294D01*
X100434639Y-102884851D01*
X100426625Y-102865498D01*
X100426511Y-102864997D01*
X100407109Y-102840668D01*
X100405079Y-102837806D01*
X100404680Y-102837172D01*
X100400275Y-102830160D01*
X100393877Y-102823762D01*
X100391544Y-102821151D01*
X100391543Y-102821150D01*
X100372149Y-102796830D01*
X100372148Y-102796829D01*
X100371828Y-102796675D01*
X100371671Y-102796600D01*
X100354601Y-102784486D01*
X100315513Y-102745398D01*
X100303397Y-102728322D01*
X100303170Y-102727851D01*
X100303169Y-102727850D01*
X100278844Y-102708451D01*
X100276232Y-102706117D01*
X100269840Y-102699725D01*
X100269838Y-102699724D01*
X100262182Y-102694913D01*
X100259324Y-102692885D01*
X100235003Y-102673489D01*
X100235000Y-102673488D01*
X100234484Y-102673370D01*
X100215151Y-102665361D01*
X100214705Y-102665081D01*
X100214707Y-102665081D01*
X100183789Y-102661598D01*
X100180334Y-102661011D01*
X100171522Y-102659000D01*
X100171521Y-102659000D01*
X100162483Y-102659000D01*
X100158981Y-102658803D01*
X100129600Y-102655493D01*
X100128065Y-102655320D01*
X100128064Y-102655320D01*
X100127570Y-102655493D01*
X100106928Y-102659000D01*
X99393072Y-102659000D01*
X99372430Y-102655493D01*
X99371935Y-102655320D01*
X99341019Y-102658803D01*
X99337517Y-102659000D01*
X99328477Y-102659000D01*
X99319666Y-102661011D01*
X99316211Y-102661598D01*
X99285295Y-102665081D01*
X99285293Y-102665082D01*
X99284843Y-102665365D01*
X99265516Y-102673370D01*
X99264998Y-102673488D01*
X99264996Y-102673489D01*
X99240668Y-102692889D01*
X99237812Y-102694916D01*
X99230160Y-102699724D01*
X99230159Y-102699725D01*
X99223762Y-102706121D01*
X99221150Y-102708455D01*
X99196829Y-102727850D01*
X99196601Y-102728326D01*
X99184488Y-102745395D01*
X99145395Y-102784488D01*
X99128326Y-102796601D01*
X99127850Y-102796829D01*
X99108455Y-102821150D01*
X99106121Y-102823762D01*
X99099725Y-102830159D01*
X99099724Y-102830160D01*
X99094916Y-102837812D01*
X99092889Y-102840668D01*
X99073489Y-102864996D01*
X99073488Y-102864998D01*
X99073370Y-102865516D01*
X99065365Y-102884843D01*
X99065082Y-102885293D01*
X99065081Y-102885295D01*
X99061598Y-102916207D01*
X99061013Y-102919656D01*
X99060500Y-102921905D01*
X99032830Y-102960926D01*
X98985673Y-102968952D01*
X98964840Y-102959982D01*
X98949748Y-102949898D01*
X98942021Y-102948361D01*
X98912558Y-102942500D01*
X98587442Y-102942500D01*
X98568847Y-102946199D01*
X98550251Y-102949898D01*
X98550250Y-102949898D01*
X98534723Y-102960274D01*
X98487807Y-102969606D01*
X98465277Y-102960274D01*
X98449748Y-102949898D01*
X98442021Y-102948361D01*
X98412558Y-102942500D01*
X98087442Y-102942500D01*
X98068847Y-102946199D01*
X98050251Y-102949898D01*
X98050250Y-102949898D01*
X98008077Y-102978077D01*
X97979898Y-103020250D01*
X97979898Y-103020251D01*
X97972500Y-103057442D01*
X97972500Y-104242557D01*
X97979898Y-104279748D01*
X97979898Y-104279749D01*
X98008077Y-104321922D01*
X98024256Y-104332732D01*
X98050252Y-104350102D01*
X98087442Y-104357500D01*
X98087443Y-104357500D01*
X98412557Y-104357500D01*
X98412558Y-104357500D01*
X98449748Y-104350102D01*
X98461776Y-104342064D01*
X98508691Y-104332732D01*
X98548466Y-104359306D01*
X98559000Y-104394031D01*
X98559000Y-104794996D01*
X98540694Y-104839190D01*
X98289385Y-105090498D01*
X98245191Y-105108804D01*
X98235415Y-105108035D01*
X98150000Y-105094508D01*
X98024695Y-105114354D01*
X98024694Y-105114354D01*
X97911657Y-105171950D01*
X97821950Y-105261657D01*
X97764354Y-105374694D01*
X97764354Y-105374695D01*
X97744508Y-105500000D01*
X96789654Y-105500000D01*
X96805492Y-105400000D01*
X96786140Y-105277816D01*
X96797307Y-105231304D01*
X96838094Y-105206310D01*
X96880343Y-105214640D01*
X96888618Y-105219672D01*
X97034332Y-105260499D01*
X97034332Y-105260500D01*
X97034335Y-105260500D01*
X97147657Y-105260500D01*
X97147658Y-105260500D01*
X97259920Y-105245070D01*
X97398720Y-105184780D01*
X97516108Y-105089278D01*
X97603377Y-104965647D01*
X97654054Y-104823056D01*
X97664381Y-104672079D01*
X97633592Y-104523915D01*
X97563971Y-104389553D01*
X97460680Y-104278956D01*
X97460679Y-104278955D01*
X97460678Y-104278954D01*
X97374481Y-104226537D01*
X97331382Y-104200328D01*
X97331375Y-104200326D01*
X97273137Y-104184008D01*
X97235521Y-104154458D01*
X97227500Y-104123826D01*
X97227500Y-103057442D01*
X97226517Y-103052500D01*
X97220102Y-103020252D01*
X97200000Y-102990167D01*
X97191922Y-102978077D01*
X97149748Y-102949898D01*
X97142021Y-102948361D01*
X97112558Y-102942500D01*
X97112557Y-102942500D01*
X96925477Y-102942500D01*
X96881283Y-102924194D01*
X96210142Y-102253053D01*
X96192606Y-102218640D01*
X96191964Y-102214588D01*
X96203128Y-102168073D01*
X96209493Y-102160620D01*
X96244310Y-102125805D01*
X96288503Y-102107500D01*
X96510856Y-102107500D01*
X96564599Y-102096810D01*
X97160000Y-102096810D01*
X97160001Y-102096818D01*
X97166639Y-102147248D01*
X97171484Y-102157637D01*
X97218244Y-102257915D01*
X97304584Y-102344255D01*
X97304585Y-102344255D01*
X97304586Y-102344256D01*
X97415252Y-102395861D01*
X97465681Y-102402500D01*
X97984318Y-102402499D01*
X98034748Y-102395861D01*
X98145414Y-102344256D01*
X98145415Y-102344255D01*
X98145416Y-102344255D01*
X98231755Y-102257916D01*
X98231755Y-102257915D01*
X98231756Y-102257914D01*
X98283361Y-102147248D01*
X98290000Y-102096819D01*
X98290000Y-102096810D01*
X98735000Y-102096810D01*
X98735001Y-102096818D01*
X98741639Y-102147248D01*
X98746484Y-102157637D01*
X98793244Y-102257915D01*
X98879584Y-102344255D01*
X98879585Y-102344255D01*
X98879586Y-102344256D01*
X98990252Y-102395861D01*
X99040681Y-102402500D01*
X99559318Y-102402499D01*
X99609748Y-102395861D01*
X99720414Y-102344256D01*
X99720415Y-102344255D01*
X99720416Y-102344255D01*
X99806753Y-102257917D01*
X99806756Y-102257914D01*
X99822906Y-102223278D01*
X99858171Y-102190963D01*
X99889325Y-102187963D01*
X99908267Y-102190963D01*
X99999997Y-102205492D01*
X100000000Y-102205492D01*
X100000003Y-102205492D01*
X100091733Y-102190963D01*
X100110674Y-102187963D01*
X100157187Y-102199129D01*
X100177095Y-102223279D01*
X100193246Y-102257915D01*
X100279586Y-102344255D01*
X100279587Y-102344255D01*
X100279588Y-102344256D01*
X100390254Y-102395861D01*
X100440683Y-102402500D01*
X100959320Y-102402499D01*
X101009750Y-102395861D01*
X101120416Y-102344256D01*
X101120417Y-102344255D01*
X101120418Y-102344255D01*
X101206757Y-102257916D01*
X101206757Y-102257915D01*
X101206758Y-102257914D01*
X101258363Y-102147248D01*
X101265002Y-102096819D01*
X101265001Y-101503182D01*
X101258363Y-101452752D01*
X101206758Y-101342086D01*
X101206757Y-101342085D01*
X101206757Y-101342084D01*
X101120417Y-101255744D01*
X101009749Y-101204138D01*
X100959321Y-101197500D01*
X100440692Y-101197500D01*
X100440690Y-101197500D01*
X100440684Y-101197501D01*
X100390254Y-101204139D01*
X100390252Y-101204139D01*
X100390251Y-101204140D01*
X100279586Y-101255744D01*
X100279586Y-101255745D01*
X100193247Y-101342083D01*
X100177095Y-101376721D01*
X100141826Y-101409037D01*
X100110674Y-101412036D01*
X100000000Y-101394508D01*
X99889326Y-101412036D01*
X99842813Y-101400869D01*
X99822906Y-101376720D01*
X99806756Y-101342086D01*
X99806754Y-101342084D01*
X99806754Y-101342083D01*
X99720415Y-101255744D01*
X99609747Y-101204138D01*
X99559319Y-101197500D01*
X99040690Y-101197500D01*
X99040688Y-101197500D01*
X99040682Y-101197501D01*
X98990252Y-101204139D01*
X98990250Y-101204139D01*
X98990249Y-101204140D01*
X98879584Y-101255744D01*
X98879584Y-101255745D01*
X98793245Y-101342084D01*
X98793244Y-101342084D01*
X98741638Y-101452752D01*
X98735000Y-101503174D01*
X98735000Y-102096809D01*
X98735000Y-102096810D01*
X98290000Y-102096810D01*
X98289999Y-101503182D01*
X98283361Y-101452752D01*
X98231756Y-101342086D01*
X98231755Y-101342085D01*
X98231755Y-101342084D01*
X98145415Y-101255744D01*
X98034747Y-101204138D01*
X97984325Y-101197500D01*
X97984319Y-101197500D01*
X97978500Y-101197500D01*
X97934306Y-101179194D01*
X97916000Y-101135000D01*
X97916000Y-100530002D01*
X97934305Y-100485809D01*
X98060614Y-100359499D01*
X98104807Y-100341194D01*
X98114577Y-100341962D01*
X98200000Y-100355492D01*
X98325304Y-100335646D01*
X98438342Y-100278050D01*
X98528050Y-100188342D01*
X98585646Y-100075304D01*
X98605492Y-99950000D01*
X98585646Y-99824696D01*
X98528050Y-99711658D01*
X98438342Y-99621950D01*
X98325304Y-99564354D01*
X98200000Y-99544508D01*
X98074695Y-99564354D01*
X98074694Y-99564354D01*
X97961657Y-99621950D01*
X97871950Y-99711657D01*
X97814354Y-99824694D01*
X97814354Y-99824695D01*
X97794508Y-99950000D01*
X97808035Y-100035415D01*
X97796867Y-100081928D01*
X97790498Y-100089385D01*
X97620395Y-100259488D01*
X97603326Y-100271601D01*
X97602850Y-100271829D01*
X97583455Y-100296150D01*
X97581121Y-100298762D01*
X97574725Y-100305159D01*
X97574724Y-100305160D01*
X97569916Y-100312812D01*
X97567889Y-100315668D01*
X97548489Y-100339996D01*
X97548488Y-100339998D01*
X97548370Y-100340516D01*
X97540365Y-100359843D01*
X97540082Y-100360293D01*
X97540081Y-100360295D01*
X97536598Y-100391211D01*
X97536011Y-100394666D01*
X97534000Y-100403477D01*
X97534000Y-100412516D01*
X97533803Y-100416017D01*
X97530320Y-100446935D01*
X97530492Y-100447427D01*
X97534000Y-100468071D01*
X97534000Y-101135000D01*
X97515694Y-101179194D01*
X97471508Y-101197500D01*
X97465693Y-101197500D01*
X97465688Y-101197500D01*
X97465682Y-101197501D01*
X97415252Y-101204139D01*
X97415250Y-101204139D01*
X97415249Y-101204140D01*
X97304584Y-101255744D01*
X97304584Y-101255745D01*
X97218245Y-101342084D01*
X97218244Y-101342084D01*
X97166638Y-101452752D01*
X97160000Y-101503174D01*
X97160000Y-102096809D01*
X97160000Y-102096810D01*
X96564599Y-102096810D01*
X96587423Y-102092270D01*
X96674252Y-102034252D01*
X96732270Y-101947423D01*
X96747500Y-101870856D01*
X96747500Y-101549144D01*
X96732270Y-101472577D01*
X96732269Y-101472575D01*
X96674252Y-101385747D01*
X96587424Y-101327730D01*
X96587422Y-101327729D01*
X96510856Y-101312500D01*
X96089144Y-101312500D01*
X96012577Y-101327729D01*
X96012575Y-101327730D01*
X95925747Y-101385747D01*
X95867730Y-101472575D01*
X95867729Y-101472577D01*
X95852500Y-101549143D01*
X95852500Y-101832812D01*
X95834194Y-101877006D01*
X95799777Y-101894542D01*
X95674701Y-101914352D01*
X95674691Y-101914355D01*
X95568373Y-101968527D01*
X95520685Y-101972280D01*
X95484311Y-101941213D01*
X95477499Y-101912842D01*
X95477499Y-101414174D01*
X95466809Y-101340796D01*
X95411476Y-101227610D01*
X95322390Y-101138524D01*
X95209204Y-101083191D01*
X95209202Y-101083190D01*
X95209201Y-101083190D01*
X95150913Y-101074698D01*
X95135827Y-101072500D01*
X95135826Y-101072500D01*
X94994780Y-101072500D01*
X94950586Y-101054194D01*
X94932280Y-101010000D01*
X94950586Y-100965806D01*
X94950596Y-100965796D01*
X94978050Y-100938342D01*
X95035646Y-100825304D01*
X95055492Y-100700000D01*
X95039618Y-100599775D01*
X95050786Y-100553262D01*
X95091572Y-100528268D01*
X95101349Y-100527499D01*
X95135826Y-100527499D01*
X95209204Y-100516809D01*
X95322390Y-100461476D01*
X95411476Y-100372390D01*
X95440097Y-100313844D01*
X95475950Y-100282182D01*
X95519766Y-100284901D01*
X95520018Y-100284126D01*
X95523026Y-100285103D01*
X95523694Y-100285145D01*
X95524594Y-100285594D01*
X95524696Y-100285646D01*
X95650000Y-100305492D01*
X95775304Y-100285646D01*
X95834190Y-100255641D01*
X95881877Y-100251888D01*
X95918251Y-100282954D01*
X95918252Y-100282955D01*
X95919941Y-100286270D01*
X95928799Y-100303655D01*
X95932551Y-100351343D01*
X95925077Y-100366751D01*
X95867730Y-100452575D01*
X95867729Y-100452577D01*
X95852500Y-100529143D01*
X95852500Y-100850856D01*
X95867729Y-100927422D01*
X95867730Y-100927424D01*
X95925747Y-101014252D01*
X96012575Y-101072269D01*
X96012577Y-101072270D01*
X96089144Y-101087500D01*
X96510856Y-101087500D01*
X96587423Y-101072270D01*
X96674252Y-101014252D01*
X96732270Y-100927423D01*
X96747500Y-100850856D01*
X96747500Y-100529144D01*
X96732270Y-100452577D01*
X96728207Y-100446496D01*
X96674922Y-100366750D01*
X96665590Y-100319834D01*
X96671202Y-100303652D01*
X96685643Y-100275310D01*
X96685643Y-100275309D01*
X96685646Y-100275304D01*
X96705492Y-100150000D01*
X96685646Y-100024696D01*
X96628050Y-99911658D01*
X96538342Y-99821950D01*
X96425304Y-99764354D01*
X96300000Y-99744508D01*
X96174695Y-99764354D01*
X96174691Y-99764355D01*
X96115809Y-99794358D01*
X96068121Y-99798111D01*
X96031747Y-99767044D01*
X95978050Y-99661658D01*
X95888342Y-99571950D01*
X95775304Y-99514354D01*
X95684675Y-99500000D01*
X100844508Y-99500000D01*
X100864354Y-99625304D01*
X100864354Y-99625305D01*
X100905212Y-99705492D01*
X100921950Y-99738342D01*
X101011658Y-99828050D01*
X101124696Y-99885646D01*
X101250000Y-99905492D01*
X101250001Y-99905491D01*
X101250003Y-99905492D01*
X101335414Y-99891964D01*
X101381927Y-99903130D01*
X101389385Y-99909500D01*
X102065696Y-100585811D01*
X102084002Y-100630005D01*
X102084002Y-101135000D01*
X102065696Y-101179194D01*
X102021510Y-101197500D01*
X102015695Y-101197500D01*
X102015690Y-101197500D01*
X102015684Y-101197501D01*
X101965254Y-101204139D01*
X101965252Y-101204139D01*
X101965251Y-101204140D01*
X101854586Y-101255744D01*
X101854586Y-101255745D01*
X101768247Y-101342084D01*
X101768246Y-101342084D01*
X101716640Y-101452752D01*
X101710002Y-101503174D01*
X101710002Y-102096809D01*
X101710002Y-102096810D01*
X101710003Y-102096818D01*
X101716641Y-102147248D01*
X101721486Y-102157637D01*
X101768246Y-102257915D01*
X101854586Y-102344255D01*
X101854587Y-102344255D01*
X101854588Y-102344256D01*
X101965254Y-102395861D01*
X102015683Y-102402500D01*
X102534320Y-102402499D01*
X102584750Y-102395861D01*
X102695416Y-102344256D01*
X102695417Y-102344255D01*
X102695418Y-102344255D01*
X102781757Y-102257916D01*
X102781757Y-102257915D01*
X102781758Y-102257914D01*
X102833363Y-102147248D01*
X102840002Y-102096819D01*
X102840001Y-101503182D01*
X102833363Y-101452752D01*
X102781758Y-101342086D01*
X102781757Y-101342085D01*
X102781757Y-101342084D01*
X102695417Y-101255744D01*
X102584749Y-101204138D01*
X102534327Y-101197500D01*
X102534321Y-101197500D01*
X102528502Y-101197500D01*
X102484308Y-101179194D01*
X102466002Y-101135000D01*
X102466002Y-100850856D01*
X103252500Y-100850856D01*
X103267729Y-100927422D01*
X103267730Y-100927424D01*
X103325747Y-101014252D01*
X103412575Y-101072269D01*
X103412577Y-101072270D01*
X103489144Y-101087500D01*
X103910856Y-101087500D01*
X103987423Y-101072270D01*
X104074252Y-101014252D01*
X104132270Y-100927423D01*
X104147500Y-100850856D01*
X104147500Y-100529144D01*
X104132270Y-100452577D01*
X104074252Y-100365748D01*
X104074250Y-100365747D01*
X104074250Y-100365746D01*
X104069897Y-100361393D01*
X104071192Y-100360097D01*
X104048969Y-100326836D01*
X104054580Y-100286272D01*
X104085646Y-100225304D01*
X104105492Y-100100000D01*
X104089654Y-100000002D01*
X108194532Y-100000002D01*
X108214364Y-100226688D01*
X108214367Y-100226704D01*
X108273259Y-100446492D01*
X108273260Y-100446494D01*
X108369431Y-100652733D01*
X108499953Y-100839140D01*
X108660859Y-101000046D01*
X108675075Y-101010000D01*
X108847266Y-101130568D01*
X108847265Y-101130568D01*
X108950385Y-101178653D01*
X109053504Y-101226739D01*
X109053506Y-101226739D01*
X109053507Y-101226740D01*
X109273295Y-101285632D01*
X109273301Y-101285633D01*
X109273308Y-101285635D01*
X109443216Y-101300500D01*
X109556784Y-101300500D01*
X109726692Y-101285635D01*
X109726701Y-101285632D01*
X109726704Y-101285632D01*
X109946492Y-101226740D01*
X109946491Y-101226740D01*
X109946496Y-101226739D01*
X110152734Y-101130568D01*
X110339139Y-101000047D01*
X110500047Y-100839139D01*
X110630568Y-100652734D01*
X110726739Y-100446496D01*
X110748041Y-100366997D01*
X110785632Y-100226704D01*
X110785632Y-100226701D01*
X110785635Y-100226692D01*
X110803307Y-100024696D01*
X110805468Y-100000002D01*
X110805468Y-99999997D01*
X110793365Y-99861658D01*
X110785635Y-99773308D01*
X110785271Y-99771950D01*
X110726740Y-99553507D01*
X110726739Y-99553505D01*
X110721332Y-99541910D01*
X110630568Y-99347266D01*
X110597470Y-99299997D01*
X110500046Y-99160859D01*
X110339140Y-98999953D01*
X110175890Y-98885646D01*
X110152734Y-98869432D01*
X110152732Y-98869431D01*
X110152734Y-98869431D01*
X109946494Y-98773260D01*
X109946492Y-98773259D01*
X109726704Y-98714367D01*
X109726688Y-98714364D01*
X109556784Y-98699500D01*
X109443216Y-98699500D01*
X109273311Y-98714364D01*
X109273295Y-98714367D01*
X109053507Y-98773259D01*
X109053505Y-98773260D01*
X108847266Y-98869431D01*
X108660859Y-98999953D01*
X108499953Y-99160859D01*
X108369431Y-99347266D01*
X108273260Y-99553505D01*
X108273259Y-99553507D01*
X108214367Y-99773295D01*
X108214364Y-99773311D01*
X108194532Y-99999997D01*
X108194532Y-100000002D01*
X104089654Y-100000002D01*
X104085646Y-99974696D01*
X104028050Y-99861658D01*
X103938342Y-99771950D01*
X103825304Y-99714354D01*
X103700000Y-99694508D01*
X103574695Y-99714354D01*
X103574694Y-99714354D01*
X103461657Y-99771950D01*
X103371950Y-99861657D01*
X103314354Y-99974694D01*
X103314354Y-99974695D01*
X103294508Y-100100000D01*
X103314354Y-100225304D01*
X103314355Y-100225308D01*
X103345418Y-100286272D01*
X103349171Y-100333960D01*
X103329135Y-100360431D01*
X103330100Y-100361396D01*
X103325750Y-100365745D01*
X103267729Y-100452578D01*
X103252500Y-100529143D01*
X103252500Y-100850856D01*
X102466002Y-100850856D01*
X102466002Y-100568074D01*
X102469510Y-100547430D01*
X102469682Y-100546938D01*
X102466199Y-100516017D01*
X102466002Y-100512516D01*
X102466002Y-100503482D01*
X102466001Y-100503478D01*
X102463992Y-100494673D01*
X102463404Y-100491215D01*
X102459921Y-100460297D01*
X102459921Y-100460295D01*
X102459644Y-100459855D01*
X102451627Y-100440502D01*
X102451513Y-100439999D01*
X102432111Y-100415670D01*
X102430085Y-100412814D01*
X102425277Y-100405162D01*
X102418883Y-100398768D01*
X102416546Y-100396153D01*
X102415360Y-100394666D01*
X102397151Y-100371832D01*
X102397150Y-100371831D01*
X102396830Y-100371677D01*
X102396673Y-100371602D01*
X102379603Y-100359488D01*
X101659500Y-99639385D01*
X101641194Y-99595191D01*
X101641964Y-99585414D01*
X101655492Y-99500003D01*
X101655492Y-99500002D01*
X101654622Y-99494508D01*
X101635646Y-99374696D01*
X101578050Y-99261658D01*
X101488342Y-99171950D01*
X101375304Y-99114354D01*
X101250000Y-99094508D01*
X101124695Y-99114354D01*
X101124694Y-99114354D01*
X101011657Y-99171950D01*
X100921950Y-99261657D01*
X100864354Y-99374694D01*
X100864354Y-99374695D01*
X100844508Y-99500000D01*
X95684675Y-99500000D01*
X95650000Y-99494508D01*
X95524696Y-99514354D01*
X95524694Y-99514354D01*
X95519838Y-99515124D01*
X95519584Y-99513525D01*
X95478058Y-99510248D01*
X95450296Y-99482017D01*
X95411477Y-99402611D01*
X95322391Y-99313525D01*
X95322390Y-99313524D01*
X95209204Y-99258191D01*
X95209202Y-99258190D01*
X95209201Y-99258190D01*
X95150913Y-99249698D01*
X95135827Y-99247500D01*
X95135826Y-99247500D01*
X95105309Y-99247500D01*
X95061115Y-99229194D01*
X95042809Y-99185000D01*
X95043578Y-99175223D01*
X95045614Y-99162368D01*
X95055492Y-99100000D01*
X95035646Y-98974696D01*
X94978050Y-98861658D01*
X94888342Y-98771950D01*
X94775304Y-98714354D01*
X94650000Y-98694508D01*
X94524695Y-98714354D01*
X94524694Y-98714354D01*
X94411657Y-98771950D01*
X94321950Y-98861657D01*
X94264354Y-98974694D01*
X94264354Y-98974695D01*
X94244508Y-99100000D01*
X94256422Y-99175223D01*
X94245254Y-99221737D01*
X94204468Y-99246731D01*
X94194693Y-99247500D01*
X94164173Y-99247500D01*
X94090798Y-99258190D01*
X94090797Y-99258190D01*
X94090796Y-99258191D01*
X94005282Y-99299996D01*
X93977608Y-99313525D01*
X93888524Y-99402609D01*
X93888522Y-99402612D01*
X93840147Y-99501565D01*
X93804291Y-99533229D01*
X93756548Y-99530264D01*
X93755672Y-99529827D01*
X93725304Y-99514354D01*
X93600000Y-99494508D01*
X93474695Y-99514354D01*
X93474694Y-99514354D01*
X93361657Y-99571950D01*
X93271950Y-99661657D01*
X93214354Y-99774694D01*
X93214354Y-99774695D01*
X93194508Y-99900000D01*
X93214354Y-100025304D01*
X93214354Y-100025305D01*
X93247005Y-100089385D01*
X93271950Y-100138342D01*
X93361658Y-100228050D01*
X93474696Y-100285646D01*
X93600000Y-100305492D01*
X93725304Y-100285646D01*
X93765408Y-100265210D01*
X93813096Y-100261458D01*
X93849471Y-100292524D01*
X93849932Y-100293449D01*
X93888522Y-100372388D01*
X93888524Y-100372390D01*
X93977610Y-100461476D01*
X94090796Y-100516809D01*
X94164173Y-100527500D01*
X94198650Y-100527499D01*
X94242844Y-100545804D01*
X94261151Y-100589997D01*
X94260382Y-100599776D01*
X94244508Y-100699999D01*
X94264354Y-100825304D01*
X94264354Y-100825305D01*
X94321950Y-100938342D01*
X94349414Y-100965806D01*
X94367720Y-101010000D01*
X94349414Y-101054194D01*
X94305220Y-101072500D01*
X94164174Y-101072500D01*
X94090798Y-101083190D01*
X94090797Y-101083190D01*
X94090796Y-101083191D01*
X93977610Y-101138524D01*
X93977608Y-101138525D01*
X93888525Y-101227608D01*
X93833190Y-101340798D01*
X93822500Y-101414173D01*
X93822500Y-102010825D01*
X93833190Y-102084201D01*
X93833191Y-102084204D01*
X93888524Y-102197390D01*
X93977610Y-102286476D01*
X94090796Y-102341809D01*
X94164173Y-102352500D01*
X94335000Y-102352499D01*
X94379194Y-102370805D01*
X94397500Y-102414999D01*
X94397500Y-102546051D01*
X94379194Y-102590245D01*
X94335000Y-102608551D01*
X94301212Y-102598631D01*
X94289498Y-102591103D01*
X94282801Y-102586799D01*
X94281400Y-102585844D01*
X94273390Y-102580055D01*
X94234840Y-102552195D01*
X94234838Y-102552194D01*
X94232319Y-102551302D01*
X94228572Y-102549976D01*
X94215641Y-102543638D01*
X94210053Y-102540047D01*
X94154948Y-102523866D01*
X94153327Y-102523341D01*
X94133268Y-102516242D01*
X94133258Y-102516239D01*
X94121162Y-102513819D01*
X94118490Y-102513160D01*
X94071961Y-102499500D01*
X94055747Y-102499500D01*
X94043490Y-102498286D01*
X89299256Y-101549439D01*
X89262709Y-101527196D01*
X88040954Y-100000002D01*
X89194532Y-100000002D01*
X89214364Y-100226688D01*
X89214367Y-100226704D01*
X89273259Y-100446492D01*
X89273260Y-100446494D01*
X89369431Y-100652733D01*
X89499953Y-100839140D01*
X89660859Y-101000046D01*
X89675075Y-101010000D01*
X89847266Y-101130568D01*
X89847265Y-101130568D01*
X89950385Y-101178653D01*
X90053504Y-101226739D01*
X90053506Y-101226739D01*
X90053507Y-101226740D01*
X90273295Y-101285632D01*
X90273301Y-101285633D01*
X90273308Y-101285635D01*
X90443216Y-101300500D01*
X90556784Y-101300500D01*
X90726692Y-101285635D01*
X90726701Y-101285632D01*
X90726704Y-101285632D01*
X90946492Y-101226740D01*
X90946491Y-101226740D01*
X90946496Y-101226739D01*
X91152734Y-101130568D01*
X91339139Y-101000047D01*
X91500047Y-100839139D01*
X91630568Y-100652734D01*
X91726739Y-100446496D01*
X91748041Y-100366997D01*
X91785632Y-100226704D01*
X91785632Y-100226701D01*
X91785635Y-100226692D01*
X91803307Y-100024696D01*
X91805468Y-100000002D01*
X91805468Y-99999997D01*
X91793365Y-99861658D01*
X91785635Y-99773308D01*
X91785271Y-99771950D01*
X91726740Y-99553507D01*
X91726739Y-99553505D01*
X91721332Y-99541910D01*
X91630568Y-99347266D01*
X91597470Y-99299997D01*
X91500046Y-99160859D01*
X91339140Y-98999953D01*
X91175890Y-98885646D01*
X91152734Y-98869432D01*
X91152732Y-98869431D01*
X91152734Y-98869431D01*
X90946494Y-98773260D01*
X90946492Y-98773259D01*
X90726704Y-98714367D01*
X90726688Y-98714364D01*
X90556784Y-98699500D01*
X90443216Y-98699500D01*
X90273311Y-98714364D01*
X90273295Y-98714367D01*
X90053507Y-98773259D01*
X90053505Y-98773260D01*
X89847266Y-98869431D01*
X89660859Y-98999953D01*
X89499953Y-99160859D01*
X89369431Y-99347266D01*
X89273260Y-99553505D01*
X89273259Y-99553507D01*
X89214367Y-99773295D01*
X89214364Y-99773311D01*
X89194532Y-99999997D01*
X89194532Y-100000002D01*
X88040954Y-100000002D01*
X87413998Y-99216307D01*
X87400684Y-99170362D01*
X87423759Y-99128460D01*
X87469704Y-99115146D01*
X87489041Y-99120538D01*
X87634541Y-99187854D01*
X87810113Y-99226500D01*
X87810116Y-99226500D01*
X87944812Y-99226500D01*
X87944816Y-99226500D01*
X88078721Y-99211937D01*
X88249085Y-99154535D01*
X88403126Y-99061851D01*
X88533642Y-98938220D01*
X88634529Y-98789423D01*
X88701070Y-98622416D01*
X88730155Y-98445010D01*
X88729910Y-98440498D01*
X88726261Y-98373205D01*
X88720422Y-98265499D01*
X88672327Y-98092277D01*
X88670681Y-98089173D01*
X88623404Y-97999999D01*
X88588119Y-97933444D01*
X88471735Y-97796426D01*
X88373484Y-97721737D01*
X88328619Y-97687631D01*
X88237477Y-97645465D01*
X88165459Y-97612146D01*
X88165460Y-97612146D01*
X88110288Y-97600002D01*
X87989887Y-97573500D01*
X87855184Y-97573500D01*
X87855183Y-97573500D01*
X87721278Y-97588063D01*
X87721272Y-97588064D01*
X87550913Y-97645465D01*
X87396874Y-97738149D01*
X87396873Y-97738149D01*
X87266357Y-97861781D01*
X87165469Y-98010580D01*
X87098931Y-98177580D01*
X87098930Y-98177582D01*
X87098930Y-98177584D01*
X87084517Y-98265499D01*
X87069845Y-98354990D01*
X87069844Y-98354990D01*
X87079577Y-98534494D01*
X87079577Y-98534498D01*
X87079578Y-98534501D01*
X87096700Y-98596170D01*
X87110082Y-98644367D01*
X87104266Y-98691847D01*
X87066580Y-98721309D01*
X87019100Y-98715493D01*
X87001056Y-98700130D01*
X86996558Y-98694508D01*
X85980952Y-97425000D01*
X95319508Y-97425000D01*
X95339354Y-97550304D01*
X95339354Y-97550305D01*
X95364677Y-97600003D01*
X95396950Y-97663342D01*
X95486658Y-97753050D01*
X95599696Y-97810646D01*
X95725000Y-97830492D01*
X95850304Y-97810646D01*
X95902931Y-97783830D01*
X95950617Y-97780078D01*
X95983271Y-97804796D01*
X96008077Y-97841922D01*
X96020757Y-97850394D01*
X96050252Y-97870102D01*
X96087442Y-97877500D01*
X96087443Y-97877500D01*
X96324625Y-97877500D01*
X96368819Y-97895806D01*
X96387125Y-97940000D01*
X96380313Y-97968374D01*
X96364355Y-97999691D01*
X96364354Y-97999695D01*
X96344508Y-98125000D01*
X96364354Y-98250304D01*
X96364354Y-98250305D01*
X96417694Y-98354990D01*
X96421950Y-98363342D01*
X96511658Y-98453050D01*
X96624696Y-98510646D01*
X96750000Y-98530492D01*
X96875304Y-98510646D01*
X96988342Y-98453050D01*
X97078050Y-98363342D01*
X97135646Y-98250304D01*
X97155492Y-98125000D01*
X97147141Y-98072275D01*
X97158308Y-98025763D01*
X97199095Y-98000769D01*
X97208872Y-98000000D01*
X97424624Y-98000000D01*
X97424624Y-97999999D01*
X97487807Y-97987432D01*
X97512193Y-97987432D01*
X97575375Y-97999999D01*
X97575376Y-98000000D01*
X97924624Y-98000000D01*
X97924624Y-97999999D01*
X97987807Y-97987432D01*
X98012193Y-97987432D01*
X98075375Y-97999999D01*
X98075376Y-98000000D01*
X98424624Y-98000000D01*
X98424624Y-97999999D01*
X98487807Y-97987432D01*
X98512193Y-97987432D01*
X98575375Y-97999999D01*
X98575376Y-98000000D01*
X98924624Y-98000000D01*
X98924624Y-97999999D01*
X98987807Y-97987432D01*
X99012193Y-97987432D01*
X99075375Y-97999999D01*
X99075376Y-98000000D01*
X99424624Y-98000000D01*
X99424624Y-97999999D01*
X99497544Y-97985495D01*
X99497546Y-97985494D01*
X99580239Y-97930240D01*
X99580242Y-97930237D01*
X99596920Y-97905277D01*
X99636694Y-97878701D01*
X99648887Y-97877500D01*
X99851496Y-97877500D01*
X99895690Y-97895806D01*
X99913996Y-97940000D01*
X99895690Y-97984194D01*
X99439385Y-98440498D01*
X99395191Y-98458804D01*
X99385415Y-98458035D01*
X99300000Y-98444508D01*
X99174695Y-98464354D01*
X99174694Y-98464354D01*
X99061657Y-98521950D01*
X98971950Y-98611657D01*
X98914354Y-98724694D01*
X98914354Y-98724695D01*
X98894508Y-98850000D01*
X98914354Y-98975304D01*
X98914354Y-98975305D01*
X98958452Y-99061851D01*
X98971950Y-99088342D01*
X99061658Y-99178050D01*
X99174696Y-99235646D01*
X99300000Y-99255492D01*
X99425304Y-99235646D01*
X99538342Y-99178050D01*
X99628050Y-99088342D01*
X99685646Y-98975304D01*
X99705492Y-98850000D01*
X99699287Y-98810825D01*
X104472500Y-98810825D01*
X104483190Y-98884201D01*
X104483191Y-98884204D01*
X104538524Y-98997390D01*
X104627610Y-99086476D01*
X104740796Y-99141809D01*
X104814173Y-99152500D01*
X105044691Y-99152499D01*
X105088885Y-99170805D01*
X105107191Y-99214999D01*
X105106422Y-99224776D01*
X105094508Y-99299999D01*
X105114354Y-99425304D01*
X105114354Y-99425305D01*
X105143251Y-99482017D01*
X105171950Y-99538342D01*
X105261658Y-99628050D01*
X105374696Y-99685646D01*
X105500000Y-99705492D01*
X105625304Y-99685646D01*
X105738342Y-99628050D01*
X105828050Y-99538342D01*
X105885646Y-99425304D01*
X105905492Y-99300000D01*
X105905492Y-99299997D01*
X105905492Y-99299996D01*
X105893578Y-99224776D01*
X105904744Y-99178263D01*
X105945531Y-99153269D01*
X105955308Y-99152499D01*
X106185826Y-99152499D01*
X106259204Y-99141809D01*
X106372390Y-99086476D01*
X106461476Y-98997390D01*
X106516809Y-98884204D01*
X106516809Y-98884201D01*
X106518940Y-98879843D01*
X106520996Y-98880848D01*
X106546498Y-98850083D01*
X106594125Y-98845626D01*
X106604065Y-98849658D01*
X106674691Y-98885644D01*
X106674693Y-98885644D01*
X106674696Y-98885646D01*
X106800000Y-98905492D01*
X106925304Y-98885646D01*
X107038342Y-98828050D01*
X107128050Y-98738342D01*
X107185646Y-98625304D01*
X107205492Y-98500000D01*
X107185646Y-98374696D01*
X107128050Y-98261658D01*
X107038342Y-98171950D01*
X106925304Y-98114354D01*
X106800000Y-98094508D01*
X106674695Y-98114354D01*
X106674691Y-98114355D01*
X106618373Y-98143051D01*
X106570685Y-98146804D01*
X106534311Y-98115737D01*
X106528461Y-98091374D01*
X106527663Y-98091432D01*
X106527499Y-98089179D01*
X106527499Y-98089174D01*
X106516809Y-98015796D01*
X106461476Y-97902610D01*
X106372390Y-97813524D01*
X106320417Y-97788116D01*
X106288756Y-97752262D01*
X106286139Y-97722191D01*
X106305492Y-97600003D01*
X106305492Y-97600002D01*
X106305492Y-97600000D01*
X106285646Y-97474696D01*
X106228050Y-97361658D01*
X106138342Y-97271950D01*
X106025304Y-97214354D01*
X105900000Y-97194508D01*
X105774695Y-97214354D01*
X105774694Y-97214354D01*
X105661657Y-97271950D01*
X105571950Y-97361657D01*
X105514354Y-97474694D01*
X105514354Y-97474695D01*
X105494508Y-97600000D01*
X105506422Y-97675223D01*
X105495254Y-97721737D01*
X105454468Y-97746731D01*
X105444691Y-97747500D01*
X104814174Y-97747500D01*
X104740798Y-97758190D01*
X104740797Y-97758190D01*
X104740796Y-97758191D01*
X104627610Y-97813524D01*
X104627608Y-97813525D01*
X104622958Y-97815799D01*
X104621819Y-97813470D01*
X104607928Y-97816679D01*
X104590813Y-97850321D01*
X104538524Y-97902610D01*
X104483190Y-98015798D01*
X104472500Y-98089173D01*
X104472500Y-98810825D01*
X99699287Y-98810825D01*
X99691963Y-98764582D01*
X99703130Y-98718070D01*
X99709493Y-98710620D01*
X100160809Y-98259306D01*
X100205003Y-98241000D01*
X100406928Y-98241000D01*
X100427570Y-98244507D01*
X100427688Y-98244548D01*
X100428065Y-98244680D01*
X100451013Y-98242094D01*
X100458981Y-98241197D01*
X100462483Y-98241000D01*
X100471521Y-98241000D01*
X100480334Y-98238987D01*
X100483779Y-98238401D01*
X100514706Y-98234918D01*
X100515141Y-98234644D01*
X100534500Y-98226625D01*
X100535003Y-98226511D01*
X100559328Y-98207110D01*
X100562189Y-98205082D01*
X100569840Y-98200275D01*
X100576229Y-98193885D01*
X100578842Y-98191548D01*
X100603170Y-98172149D01*
X100603396Y-98171679D01*
X100615511Y-98154602D01*
X100740764Y-98029349D01*
X100784957Y-98011044D01*
X100829151Y-98029350D01*
X100846687Y-98063766D01*
X100864352Y-98175299D01*
X100864354Y-98175305D01*
X100902569Y-98250305D01*
X100921950Y-98288342D01*
X101011658Y-98378050D01*
X101124696Y-98435646D01*
X101250000Y-98455492D01*
X101375304Y-98435646D01*
X101488342Y-98378050D01*
X101578050Y-98288342D01*
X101635646Y-98175304D01*
X101655492Y-98050000D01*
X101639618Y-97949775D01*
X101650786Y-97903263D01*
X101691572Y-97878269D01*
X101701349Y-97877500D01*
X101912557Y-97877500D01*
X101912558Y-97877500D01*
X101949748Y-97870102D01*
X101965277Y-97859726D01*
X102012193Y-97850394D01*
X102034723Y-97859726D01*
X102050252Y-97870102D01*
X102087442Y-97877500D01*
X102224625Y-97877500D01*
X102268819Y-97895806D01*
X102287125Y-97940000D01*
X102280313Y-97968374D01*
X102264355Y-97999691D01*
X102264354Y-97999695D01*
X102244508Y-98125000D01*
X102264354Y-98250304D01*
X102264354Y-98250305D01*
X102317694Y-98354990D01*
X102321950Y-98363342D01*
X102411658Y-98453050D01*
X102524696Y-98510646D01*
X102650000Y-98530492D01*
X102775304Y-98510646D01*
X102888342Y-98453050D01*
X102955806Y-98385586D01*
X103000000Y-98367280D01*
X103044194Y-98385586D01*
X103111658Y-98453050D01*
X103224696Y-98510646D01*
X103350000Y-98530492D01*
X103475304Y-98510646D01*
X103588342Y-98453050D01*
X103678050Y-98363342D01*
X103735646Y-98250304D01*
X103755492Y-98125000D01*
X103735646Y-97999696D01*
X103735644Y-97999693D01*
X103735644Y-97999691D01*
X103719687Y-97968374D01*
X103715934Y-97920686D01*
X103747001Y-97884312D01*
X103775375Y-97877500D01*
X103912557Y-97877500D01*
X103912558Y-97877500D01*
X103949748Y-97870102D01*
X103991922Y-97841922D01*
X104016729Y-97804795D01*
X104056501Y-97778220D01*
X104097068Y-97783830D01*
X104149696Y-97810646D01*
X104275000Y-97830492D01*
X104400304Y-97810646D01*
X104513342Y-97753050D01*
X104513342Y-97753049D01*
X104517724Y-97750817D01*
X104519031Y-97753383D01*
X104532637Y-97750100D01*
X104549992Y-97716399D01*
X104603050Y-97663342D01*
X104660646Y-97550304D01*
X104680492Y-97425000D01*
X104660646Y-97299696D01*
X104603050Y-97186658D01*
X104513342Y-97096950D01*
X104400304Y-97039354D01*
X104275000Y-97019508D01*
X104274999Y-97019508D01*
X104221295Y-97028014D01*
X104150782Y-97039181D01*
X104104269Y-97028014D01*
X104079275Y-96987228D01*
X104085317Y-96949078D01*
X104135646Y-96850304D01*
X104155492Y-96725000D01*
X104135646Y-96599696D01*
X104078050Y-96486658D01*
X103988342Y-96396950D01*
X103875304Y-96339354D01*
X103750000Y-96319508D01*
X103624695Y-96339354D01*
X103624694Y-96339354D01*
X103511657Y-96396950D01*
X103421950Y-96486657D01*
X103364354Y-96599694D01*
X103364354Y-96599695D01*
X103364354Y-96599696D01*
X103344508Y-96725000D01*
X103362968Y-96841554D01*
X103364354Y-96850301D01*
X103364355Y-96850308D01*
X103380313Y-96881626D01*
X103384066Y-96929314D01*
X103352999Y-96965688D01*
X103324625Y-96972500D01*
X103087442Y-96972500D01*
X103068847Y-96976199D01*
X103050251Y-96979898D01*
X103050250Y-96979898D01*
X103034723Y-96990274D01*
X102987807Y-96999606D01*
X102965277Y-96990274D01*
X102949748Y-96979898D01*
X102912556Y-96972499D01*
X102909502Y-96972199D01*
X102909596Y-96971240D01*
X102868443Y-96954194D01*
X102850137Y-96910000D01*
X102856949Y-96881626D01*
X102885644Y-96825308D01*
X102885644Y-96825307D01*
X102885646Y-96825304D01*
X102905492Y-96700000D01*
X102885646Y-96574696D01*
X102828050Y-96461658D01*
X102738342Y-96371950D01*
X102625304Y-96314354D01*
X102500000Y-96294508D01*
X102374695Y-96314354D01*
X102374694Y-96314354D01*
X102261657Y-96371950D01*
X102171950Y-96461657D01*
X102114354Y-96574694D01*
X102114354Y-96574695D01*
X102094508Y-96700000D01*
X102108353Y-96787422D01*
X102099539Y-96830455D01*
X102094916Y-96837811D01*
X102092889Y-96840668D01*
X102073489Y-96864996D01*
X102073488Y-96864998D01*
X102073370Y-96865516D01*
X102065365Y-96884843D01*
X102065082Y-96885293D01*
X102065081Y-96885295D01*
X102063886Y-96895900D01*
X102040744Y-96937766D01*
X101994778Y-96951006D01*
X101952912Y-96927864D01*
X101940847Y-96902809D01*
X101938986Y-96894659D01*
X101938401Y-96891216D01*
X101934918Y-96860294D01*
X101934917Y-96860292D01*
X101934639Y-96859849D01*
X101926626Y-96840501D01*
X101926511Y-96839997D01*
X101926509Y-96839995D01*
X101923455Y-96833650D01*
X101925653Y-96832591D01*
X101915266Y-96796535D01*
X101915642Y-96793756D01*
X101930492Y-96700000D01*
X101910646Y-96574696D01*
X101853050Y-96461658D01*
X101763342Y-96371950D01*
X101650304Y-96314354D01*
X101525000Y-96294508D01*
X101399695Y-96314354D01*
X101399694Y-96314354D01*
X101286657Y-96371950D01*
X101196950Y-96461657D01*
X101139354Y-96574694D01*
X101139354Y-96574695D01*
X101119508Y-96700000D01*
X101139354Y-96825304D01*
X101139355Y-96825308D01*
X101168051Y-96881626D01*
X101171804Y-96929314D01*
X101140737Y-96965688D01*
X101112363Y-96972500D01*
X101087442Y-96972500D01*
X101068847Y-96976199D01*
X101050251Y-96979898D01*
X101050250Y-96979898D01*
X101034723Y-96990274D01*
X100987807Y-96999606D01*
X100965277Y-96990274D01*
X100949748Y-96979898D01*
X100912558Y-96972500D01*
X100587442Y-96972500D01*
X100568847Y-96976199D01*
X100550251Y-96979898D01*
X100550250Y-96979898D01*
X100534723Y-96990274D01*
X100487807Y-96999606D01*
X100465277Y-96990274D01*
X100449748Y-96979898D01*
X100412558Y-96972500D01*
X100087442Y-96972500D01*
X100068847Y-96976199D01*
X100050251Y-96979898D01*
X100050250Y-96979898D01*
X100034723Y-96990274D01*
X99987807Y-96999606D01*
X99965277Y-96990274D01*
X99949748Y-96979898D01*
X99912558Y-96972500D01*
X99648887Y-96972500D01*
X99604693Y-96954194D01*
X99596920Y-96944723D01*
X99580242Y-96919762D01*
X99580239Y-96919759D01*
X99497546Y-96864505D01*
X99497544Y-96864504D01*
X99424624Y-96850000D01*
X99075376Y-96850000D01*
X99012193Y-96862568D01*
X98987807Y-96862568D01*
X98924624Y-96850000D01*
X98575376Y-96850000D01*
X98512193Y-96862568D01*
X98487807Y-96862568D01*
X98424624Y-96850000D01*
X98075376Y-96850000D01*
X98012193Y-96862568D01*
X97987807Y-96862568D01*
X97924624Y-96850000D01*
X97575376Y-96850000D01*
X97512193Y-96862568D01*
X97487807Y-96862568D01*
X97424624Y-96850000D01*
X97075376Y-96850000D01*
X97002455Y-96864504D01*
X97002453Y-96864505D01*
X96919760Y-96919759D01*
X96919757Y-96919762D01*
X96903080Y-96944723D01*
X96863306Y-96971299D01*
X96851113Y-96972500D01*
X96587442Y-96972500D01*
X96568847Y-96976199D01*
X96550251Y-96979898D01*
X96550250Y-96979898D01*
X96534723Y-96990274D01*
X96487807Y-96999606D01*
X96465277Y-96990274D01*
X96449748Y-96979898D01*
X96436812Y-96977324D01*
X96403413Y-96956985D01*
X96402757Y-96957642D01*
X96393881Y-96948766D01*
X96391544Y-96946151D01*
X96390405Y-96944723D01*
X96372149Y-96921830D01*
X96372148Y-96921829D01*
X96371828Y-96921675D01*
X96371671Y-96921600D01*
X96354601Y-96909486D01*
X96259500Y-96814385D01*
X96241194Y-96770191D01*
X96241964Y-96760414D01*
X96255492Y-96675003D01*
X96255492Y-96675002D01*
X96243565Y-96599696D01*
X96235646Y-96549696D01*
X96178050Y-96436658D01*
X96088342Y-96346950D01*
X95975304Y-96289354D01*
X95850000Y-96269508D01*
X95724695Y-96289354D01*
X95724694Y-96289354D01*
X95611657Y-96346950D01*
X95521950Y-96436657D01*
X95464354Y-96549694D01*
X95464354Y-96549695D01*
X95444508Y-96675000D01*
X95464354Y-96800304D01*
X95464354Y-96800305D01*
X95521950Y-96913342D01*
X95570842Y-96962234D01*
X95589148Y-97006428D01*
X95570842Y-97050622D01*
X95555023Y-97062116D01*
X95486657Y-97096950D01*
X95396950Y-97186657D01*
X95339354Y-97299694D01*
X95339354Y-97299695D01*
X95319508Y-97425000D01*
X85980952Y-97425000D01*
X85514196Y-96841554D01*
X85500500Y-96802511D01*
X85500500Y-95124335D01*
X86499500Y-95124335D01*
X86540429Y-95369614D01*
X86621172Y-95604810D01*
X86702301Y-95754723D01*
X86739525Y-95823508D01*
X86739526Y-95823510D01*
X86892257Y-96019738D01*
X86892260Y-96019742D01*
X87075211Y-96188161D01*
X87075213Y-96188162D01*
X87075215Y-96188164D01*
X87283393Y-96324173D01*
X87511119Y-96424063D01*
X87752179Y-96485108D01*
X87937933Y-96500500D01*
X87937935Y-96500500D01*
X88062065Y-96500500D01*
X88062067Y-96500500D01*
X88247821Y-96485108D01*
X88488881Y-96424063D01*
X88716607Y-96324173D01*
X88924785Y-96188164D01*
X89107738Y-96019744D01*
X89260474Y-95823509D01*
X89378828Y-95604810D01*
X89459571Y-95369614D01*
X89500500Y-95124335D01*
X89500500Y-94875665D01*
X89459571Y-94630386D01*
X89378828Y-94395190D01*
X89300255Y-94250000D01*
X94419508Y-94250000D01*
X94439354Y-94375304D01*
X94439354Y-94375305D01*
X94449486Y-94395189D01*
X94496950Y-94488342D01*
X94586658Y-94578050D01*
X94699696Y-94635646D01*
X94704079Y-94637879D01*
X94702797Y-94640393D01*
X94732107Y-94665411D01*
X94735875Y-94713098D01*
X94704819Y-94749481D01*
X94704803Y-94749490D01*
X94611657Y-94796950D01*
X94521950Y-94886657D01*
X94464354Y-94999694D01*
X94464354Y-94999695D01*
X94444508Y-95125000D01*
X94464354Y-95250304D01*
X94464354Y-95250305D01*
X94509212Y-95338342D01*
X94521950Y-95363342D01*
X94611658Y-95453050D01*
X94724696Y-95510646D01*
X94850000Y-95530492D01*
X94897977Y-95522893D01*
X94944490Y-95534060D01*
X94969484Y-95574847D01*
X94969508Y-95574997D01*
X94969508Y-95575000D01*
X94989353Y-95700298D01*
X94989354Y-95700304D01*
X94989354Y-95700305D01*
X95046950Y-95813342D01*
X95136658Y-95903050D01*
X95249696Y-95960646D01*
X95375000Y-95980492D01*
X95500304Y-95960646D01*
X95613342Y-95903050D01*
X95703050Y-95813342D01*
X95760646Y-95700304D01*
X95780492Y-95575000D01*
X95780492Y-95574997D01*
X95780492Y-95571325D01*
X95798798Y-95527131D01*
X95842992Y-95508825D01*
X95852765Y-95509594D01*
X95890000Y-95515492D01*
X96015304Y-95495646D01*
X96128342Y-95438050D01*
X96218050Y-95348342D01*
X96275646Y-95235304D01*
X96295492Y-95110000D01*
X96275646Y-94984696D01*
X96218050Y-94871658D01*
X96128342Y-94781950D01*
X96128341Y-94781949D01*
X96017373Y-94725408D01*
X95986306Y-94689033D01*
X95990059Y-94641346D01*
X96021669Y-94614348D01*
X96020921Y-94612879D01*
X96025303Y-94610646D01*
X96025304Y-94610646D01*
X96138342Y-94553050D01*
X96228050Y-94463342D01*
X96285646Y-94350304D01*
X96303908Y-94235000D01*
X103694508Y-94235000D01*
X103714354Y-94360304D01*
X103714354Y-94360305D01*
X103721997Y-94375305D01*
X103771950Y-94473342D01*
X103861658Y-94563050D01*
X103974696Y-94620646D01*
X103992510Y-94623467D01*
X104033295Y-94648458D01*
X104044464Y-94694972D01*
X104019472Y-94735759D01*
X103992513Y-94746927D01*
X103977200Y-94749353D01*
X103977194Y-94749354D01*
X103864157Y-94806950D01*
X103774450Y-94896657D01*
X103716854Y-95009694D01*
X103716854Y-95009695D01*
X103697008Y-95135000D01*
X103716854Y-95260304D01*
X103716854Y-95260305D01*
X103761712Y-95348342D01*
X103774450Y-95373342D01*
X103864158Y-95463050D01*
X103977196Y-95520646D01*
X104102500Y-95540492D01*
X104173970Y-95529172D01*
X104220483Y-95540338D01*
X104245477Y-95581124D01*
X104245477Y-95581125D01*
X104264352Y-95700298D01*
X104264354Y-95700305D01*
X104321950Y-95813342D01*
X104411658Y-95903050D01*
X104524696Y-95960646D01*
X104650000Y-95980492D01*
X104775304Y-95960646D01*
X104888342Y-95903050D01*
X104978050Y-95813342D01*
X105035646Y-95700304D01*
X105055492Y-95575000D01*
X105054582Y-95569253D01*
X105065748Y-95522739D01*
X105106534Y-95497745D01*
X105126087Y-95497745D01*
X105175000Y-95505492D01*
X105300304Y-95485646D01*
X105413342Y-95428050D01*
X105503050Y-95338342D01*
X105560646Y-95225304D01*
X105576638Y-95124335D01*
X110499500Y-95124335D01*
X110540429Y-95369614D01*
X110621172Y-95604810D01*
X110702301Y-95754723D01*
X110739525Y-95823508D01*
X110739526Y-95823510D01*
X110892257Y-96019738D01*
X110892260Y-96019742D01*
X111075211Y-96188161D01*
X111075213Y-96188162D01*
X111075215Y-96188164D01*
X111283393Y-96324173D01*
X111511119Y-96424063D01*
X111752179Y-96485108D01*
X111937933Y-96500500D01*
X111937935Y-96500500D01*
X112062065Y-96500500D01*
X112062067Y-96500500D01*
X112247821Y-96485108D01*
X112488881Y-96424063D01*
X112716607Y-96324173D01*
X112924785Y-96188164D01*
X113107738Y-96019744D01*
X113260474Y-95823509D01*
X113378828Y-95604810D01*
X113459571Y-95369614D01*
X113500500Y-95124335D01*
X113500500Y-94875665D01*
X113459571Y-94630386D01*
X113378828Y-94395190D01*
X113260474Y-94176491D01*
X113260473Y-94176489D01*
X113107742Y-93980261D01*
X113107739Y-93980257D01*
X112924788Y-93811838D01*
X112924783Y-93811835D01*
X112716612Y-93675830D01*
X112716609Y-93675828D01*
X112488883Y-93575938D01*
X112488881Y-93575937D01*
X112247821Y-93514892D01*
X112062067Y-93499500D01*
X111937933Y-93499500D01*
X111752179Y-93514892D01*
X111511119Y-93575937D01*
X111511117Y-93575937D01*
X111511116Y-93575938D01*
X111283390Y-93675828D01*
X111283387Y-93675830D01*
X111075216Y-93811835D01*
X111075211Y-93811838D01*
X110892260Y-93980257D01*
X110892257Y-93980261D01*
X110739526Y-94176489D01*
X110739525Y-94176491D01*
X110658396Y-94326404D01*
X110631934Y-94375305D01*
X110621173Y-94395189D01*
X110621172Y-94395190D01*
X110540429Y-94630385D01*
X110530643Y-94689033D01*
X110499500Y-94875665D01*
X110499500Y-95124335D01*
X105576638Y-95124335D01*
X105580492Y-95100000D01*
X105560646Y-94974696D01*
X105503050Y-94861658D01*
X105413342Y-94771950D01*
X105413341Y-94771949D01*
X105307829Y-94718188D01*
X105276762Y-94681813D01*
X105280515Y-94634126D01*
X105307829Y-94606812D01*
X105364279Y-94578049D01*
X105413342Y-94553050D01*
X105503050Y-94463342D01*
X105560646Y-94350304D01*
X105580492Y-94225000D01*
X105560646Y-94099696D01*
X105503050Y-93986658D01*
X105413342Y-93896950D01*
X105300304Y-93839354D01*
X105175000Y-93819508D01*
X105049695Y-93839354D01*
X105049694Y-93839354D01*
X104936654Y-93896951D01*
X104918348Y-93915257D01*
X104874153Y-93933561D01*
X104839433Y-93923028D01*
X104834748Y-93919898D01*
X104834743Y-93919897D01*
X104797558Y-93912500D01*
X104472442Y-93912500D01*
X104453847Y-93916199D01*
X104435251Y-93919898D01*
X104435250Y-93919898D01*
X104427568Y-93925032D01*
X104380652Y-93934364D01*
X104348651Y-93917259D01*
X104338342Y-93906950D01*
X104225304Y-93849354D01*
X104100000Y-93829508D01*
X103974695Y-93849354D01*
X103974694Y-93849354D01*
X103861657Y-93906950D01*
X103771950Y-93996657D01*
X103714354Y-94109694D01*
X103714354Y-94109695D01*
X103694508Y-94235000D01*
X96303908Y-94235000D01*
X96305492Y-94225000D01*
X96285646Y-94099696D01*
X96228050Y-93986658D01*
X96138342Y-93896950D01*
X96025304Y-93839354D01*
X95900000Y-93819508D01*
X95774695Y-93839354D01*
X95774694Y-93839354D01*
X95661655Y-93896951D01*
X95645352Y-93913254D01*
X95601157Y-93931559D01*
X95570441Y-93922240D01*
X95570436Y-93922254D01*
X95570301Y-93922198D01*
X95566435Y-93921025D01*
X95564748Y-93919898D01*
X95564747Y-93919897D01*
X95531348Y-93913254D01*
X95527558Y-93912500D01*
X95202442Y-93912500D01*
X95183847Y-93916199D01*
X95165251Y-93919898D01*
X95165250Y-93919898D01*
X95145579Y-93933043D01*
X95098663Y-93942375D01*
X95066662Y-93925270D01*
X95063342Y-93921950D01*
X94950304Y-93864354D01*
X94825000Y-93844508D01*
X94699695Y-93864354D01*
X94699694Y-93864354D01*
X94586657Y-93921950D01*
X94496950Y-94011657D01*
X94439354Y-94124694D01*
X94439354Y-94124695D01*
X94419508Y-94250000D01*
X89300255Y-94250000D01*
X89260474Y-94176491D01*
X89260473Y-94176489D01*
X89107742Y-93980261D01*
X89107739Y-93980257D01*
X88924788Y-93811838D01*
X88924783Y-93811835D01*
X88716612Y-93675830D01*
X88716609Y-93675828D01*
X88488883Y-93575938D01*
X88488881Y-93575937D01*
X88247821Y-93514892D01*
X88062067Y-93499500D01*
X87937933Y-93499500D01*
X87752179Y-93514892D01*
X87511119Y-93575937D01*
X87511117Y-93575937D01*
X87511116Y-93575938D01*
X87283390Y-93675828D01*
X87283387Y-93675830D01*
X87075216Y-93811835D01*
X87075211Y-93811838D01*
X86892260Y-93980257D01*
X86892257Y-93980261D01*
X86739526Y-94176489D01*
X86739525Y-94176491D01*
X86658396Y-94326404D01*
X86631934Y-94375305D01*
X86621173Y-94395189D01*
X86621172Y-94395190D01*
X86540429Y-94630385D01*
X86530643Y-94689033D01*
X86499500Y-94875665D01*
X86499500Y-95124335D01*
X85500500Y-95124335D01*
X85500500Y-93733202D01*
X85518806Y-93689008D01*
X86189008Y-93018806D01*
X86233202Y-93000500D01*
X113766798Y-93000500D01*
X113810992Y-93018806D01*
G37*
%TD.AperFunction*%
%TD*%
M02*
