%TF.GenerationSoftware,KiCad,Pcbnew,7.0.7*%
%TF.CreationDate,2023-09-11T21:54:18+02:00*%
%TF.ProjectId,blinkekatze,626c696e-6b65-46b6-9174-7a652e6b6963,rev?*%
%TF.SameCoordinates,Original*%
%TF.FileFunction,Copper,L3,Inr*%
%TF.FilePolarity,Positive*%
%FSLAX46Y46*%
G04 Gerber Fmt 4.6, Leading zero omitted, Abs format (unit mm)*
G04 Created by KiCad (PCBNEW 7.0.7) date 2023-09-11 21:54:18*
%MOMM*%
%LPD*%
G01*
G04 APERTURE LIST*
G04 Aperture macros list*
%AMHorizOval*
0 Thick line with rounded ends*
0 $1 width*
0 $2 $3 position (X,Y) of the first rounded end (center of the circle)*
0 $4 $5 position (X,Y) of the second rounded end (center of the circle)*
0 Add line between two ends*
20,1,$1,$2,$3,$4,$5,0*
0 Add two circle primitives to create the rounded ends*
1,1,$1,$2,$3*
1,1,$1,$4,$5*%
%AMRotRect*
0 Rectangle, with rotation*
0 The origin of the aperture is its center*
0 $1 length*
0 $2 width*
0 $3 Rotation angle, in degrees counterclockwise*
0 Add horizontal line*
21,1,$1,$2,0,0,$3*%
G04 Aperture macros list end*
%TA.AperFunction,ComponentPad*%
%ADD10RotRect,1.700000X1.700000X135.000000*%
%TD*%
%TA.AperFunction,ComponentPad*%
%ADD11HorizOval,1.700000X0.000000X0.000000X0.000000X0.000000X0*%
%TD*%
%TA.AperFunction,ComponentPad*%
%ADD12RotRect,1.350000X1.350000X315.000000*%
%TD*%
%TA.AperFunction,ComponentPad*%
%ADD13HorizOval,1.350000X0.000000X0.000000X0.000000X0.000000X0*%
%TD*%
%TA.AperFunction,ComponentPad*%
%ADD14R,1.700000X1.700000*%
%TD*%
%TA.AperFunction,ComponentPad*%
%ADD15O,1.700000X1.700000*%
%TD*%
%TA.AperFunction,ComponentPad*%
%ADD16C,0.600000*%
%TD*%
%TA.AperFunction,ComponentPad*%
%ADD17C,3.000000*%
%TD*%
%TA.AperFunction,ViaPad*%
%ADD18C,0.450000*%
%TD*%
G04 APERTURE END LIST*
D10*
%TO.N,GND*%
%TO.C,J3*%
X121477498Y-125054902D03*
D11*
%TO.N,/Battery/SCL*%
X123273549Y-123258851D03*
%TO.N,/Battery/SDA*%
X125069600Y-121462800D03*
%TD*%
D12*
%TO.N,/Logic/LED1*%
%TO.C,J2*%
X79848427Y-74571573D03*
D13*
%TO.N,/Logic/LED2*%
X78434213Y-75985787D03*
%TO.N,VBUS*%
X77020000Y-77400000D03*
%TO.N,/Logic/USB_D+*%
X75605786Y-78814214D03*
%TO.N,/Logic/USB_D-*%
X74191573Y-80228427D03*
%TO.N,GND*%
X72777359Y-81642641D03*
%TD*%
D14*
%TO.N,/Charger/PWR_ON*%
%TO.C,J1*%
X86350000Y-118575000D03*
D15*
%TO.N,Net-(J1-Pin_2)*%
X86350000Y-121115000D03*
%TD*%
D16*
%TO.N,GND*%
%TO.C,U9*%
X90835000Y-98575000D03*
X89935000Y-98075000D03*
X91735000Y-98075000D03*
X90835000Y-97575000D03*
%TD*%
D17*
%TO.N,GND1*%
%TO.C,BTT2*%
X102500000Y-124400000D03*
X97500000Y-124400000D03*
X100000000Y-132000000D03*
%TD*%
%TO.N,+BATT*%
%TO.C,BTT1*%
X97500000Y-75600000D03*
X102500000Y-75600000D03*
X100000000Y-68000000D03*
%TD*%
D18*
%TO.N,/Battery/SCL*%
X109270800Y-108153200D03*
X113995200Y-109626400D03*
X107508800Y-106391200D03*
%TO.N,/Battery/SDA*%
X103350000Y-117150000D03*
%TO.N,/Battery/SCL*%
X102666800Y-116636800D03*
%TO.N,/Battery/SDA*%
X115570000Y-109220000D03*
%TO.N,GND1*%
X106350000Y-128250000D03*
X108400000Y-121400000D03*
X106750000Y-127850000D03*
X107400000Y-129350000D03*
X104000000Y-130250000D03*
X106900000Y-122350000D03*
X106850000Y-128700000D03*
X106850000Y-129400000D03*
%TO.N,GND*%
X113576294Y-128456774D03*
X102475000Y-97800000D03*
X102475000Y-100000000D03*
X71275000Y-93575000D03*
X77900000Y-96350000D03*
X115350000Y-124350000D03*
X82750000Y-78650000D03*
X102475000Y-98900000D03*
X74225000Y-94800000D03*
X112162237Y-93918882D03*
X95700000Y-112900000D03*
X100900000Y-100900000D03*
X104675000Y-100000000D03*
X110272507Y-108909298D03*
X81750000Y-96975000D03*
X78050000Y-90725000D03*
X93918882Y-87837763D03*
X108200000Y-102175000D03*
X114676294Y-128006774D03*
X103575000Y-98900000D03*
X112900000Y-104300000D03*
X89727493Y-91090702D03*
X76225000Y-89975000D03*
X104300000Y-87100000D03*
X99036066Y-86436415D03*
X99225000Y-98300000D03*
X92000000Y-69400000D03*
X108200000Y-101050000D03*
X104675000Y-97800000D03*
X95100000Y-80950000D03*
X103575000Y-100000000D03*
X77438249Y-79150000D03*
X98625000Y-98350000D03*
X96600000Y-78850000D03*
X80700000Y-86900000D03*
X79100000Y-96550000D03*
X83450000Y-78650000D03*
X114176294Y-128256774D03*
X107225000Y-97600000D03*
X72750000Y-94200000D03*
X79400000Y-95825000D03*
X73500000Y-94500000D03*
X102650000Y-90450000D03*
X76750000Y-91250000D03*
X114800000Y-127300000D03*
X75475000Y-91800000D03*
X83450000Y-79300000D03*
X90650000Y-68150000D03*
X70525000Y-93275000D03*
X78875000Y-97425000D03*
X76425000Y-95750000D03*
X100963934Y-113563585D03*
X69800000Y-92975000D03*
X77600000Y-81950000D03*
X87837763Y-106081118D03*
X104275000Y-103500000D03*
X72000000Y-93900000D03*
X101400000Y-101300000D03*
X108909298Y-89727493D03*
X94700000Y-76000000D03*
X86436415Y-100963934D03*
X94100000Y-81150000D03*
X69050000Y-93375000D03*
X100500000Y-101500000D03*
X90725000Y-95125000D03*
X106081118Y-112162237D03*
X71550000Y-83350000D03*
X103575000Y-97800000D03*
X107425000Y-103550000D03*
X100900000Y-100200000D03*
X75675000Y-88675000D03*
X74375000Y-89200000D03*
X77500000Y-89450000D03*
X101325000Y-96300000D03*
X90900000Y-72750000D03*
X74150000Y-92350000D03*
X77175000Y-96050000D03*
X100462498Y-95450000D03*
X108193749Y-103000000D03*
X101500000Y-100500000D03*
X99787498Y-95450000D03*
X74925000Y-90500000D03*
X113563585Y-99036066D03*
X104825000Y-95750000D03*
X104675000Y-98900000D03*
X107275000Y-101550000D03*
X91090702Y-110272507D03*
X77275000Y-92550000D03*
X88900000Y-70750000D03*
X82600000Y-93600000D03*
X106637498Y-102975000D03*
X92700000Y-76350000D03*
X81025000Y-97225000D03*
X83900000Y-88900000D03*
X75700000Y-95425000D03*
X76000000Y-93100000D03*
X73625000Y-91050000D03*
X74950000Y-95125000D03*
X87100000Y-95700000D03*
%TO.N,+3V3*%
X81825000Y-95350000D03*
X92800000Y-71950000D03*
X80250000Y-86150000D03*
X103150000Y-91400000D03*
X93800000Y-76350000D03*
X84775000Y-97050000D03*
X83900000Y-96175000D03*
X103150000Y-93200000D03*
X85000000Y-89200000D03*
X103150000Y-80900000D03*
X84325000Y-96600000D03*
X76600000Y-81200000D03*
X79150000Y-83400000D03*
X93150000Y-77250000D03*
X95850000Y-80750000D03*
X84200000Y-89800000D03*
X75350000Y-83000000D03*
X82125000Y-96075000D03*
%TO.N,Net-(U8-REGN)*%
X103750000Y-94325000D03*
X104975000Y-103650000D03*
%TO.N,Net-(U2-VCC)*%
X107500000Y-122100000D03*
X105550000Y-123600000D03*
%TO.N,/Logic/USB_D-*%
X73350000Y-86260000D03*
X78538249Y-80900000D03*
%TO.N,/Logic/USB_D+*%
X79288249Y-80300000D03*
X73350000Y-86930000D03*
%TO.N,/Charger/VLED*%
X101116718Y-86494614D03*
X98883282Y-113505386D03*
X93800000Y-112050000D03*
X108760111Y-110339388D03*
X106200000Y-87950000D03*
X113505386Y-101116718D03*
X95863425Y-87095301D03*
X105650000Y-103700000D03*
X89660612Y-108760111D03*
X86494614Y-98883282D03*
X87095301Y-104136575D03*
X106225000Y-103450000D03*
X104136575Y-112904699D03*
X87950000Y-93800000D03*
X91239889Y-89660612D03*
X110339388Y-91239889D03*
X112050000Y-106200000D03*
X112904699Y-95863425D03*
X106293749Y-102400000D03*
%TO.N,VBUS*%
X106050000Y-101475000D03*
X81188249Y-78500000D03*
X106650000Y-101650000D03*
X79445952Y-78142297D03*
X79945952Y-78642297D03*
X81672331Y-77900000D03*
X105925000Y-100675000D03*
X105300000Y-100700000D03*
%TO.N,/VBAT*%
X100750000Y-97100000D03*
X101000000Y-80200000D03*
X92900000Y-111550000D03*
X101000000Y-79500000D03*
X100100000Y-80600000D03*
X90650000Y-113800000D03*
X101600000Y-97000000D03*
X101000000Y-78800000D03*
X107050000Y-95100000D03*
X99450000Y-97100000D03*
X100100000Y-78300000D03*
X100125000Y-97025000D03*
%TO.N,/Charger/PWR_ON*%
X97950000Y-105100000D03*
X104800000Y-94450000D03*
X88175000Y-104075000D03*
%TO.N,Net-(U1-IO10)*%
X87500000Y-101000000D03*
X79650000Y-89950000D03*
%TO.N,+BATT*%
X109650000Y-120900000D03*
X108450000Y-118300000D03*
%TO.N,/Logic/LED2*%
X69200000Y-88300000D03*
%TO.N,/Logic/LED1*%
X70200000Y-85850000D03*
%TO.N,/Battery/SDA*%
X105900000Y-95150000D03*
X91900000Y-92050000D03*
X94650000Y-79250000D03*
X92450000Y-80000000D03*
X86150000Y-86300000D03*
%TO.N,/Battery/SCL*%
X91600000Y-90750000D03*
X87275000Y-86425000D03*
X106500000Y-96400000D03*
%TO.N,/Charger/~{CHARGE_ENABLE}*%
X81200000Y-90200000D03*
X104225000Y-94912500D03*
%TD*%
%TA.AperFunction,Conductor*%
%TO.N,+3V3*%
G36*
X103224073Y-92940391D02*
G01*
X103242668Y-92946433D01*
X103300668Y-92975985D01*
X103316486Y-92987478D01*
X103362520Y-93033512D01*
X103374014Y-93049332D01*
X103403565Y-93107330D01*
X103409607Y-93125926D01*
X103419791Y-93190221D01*
X103419791Y-93209777D01*
X103409607Y-93274072D01*
X103403565Y-93292668D01*
X103374014Y-93350666D01*
X103362520Y-93366486D01*
X103316486Y-93412520D01*
X103300666Y-93424014D01*
X103242668Y-93453565D01*
X103224072Y-93459607D01*
X103159777Y-93469791D01*
X103140221Y-93469791D01*
X103075926Y-93459607D01*
X103057330Y-93453565D01*
X102999332Y-93424014D01*
X102983512Y-93412520D01*
X102937478Y-93366486D01*
X102925984Y-93350666D01*
X102924448Y-93347652D01*
X102896433Y-93292668D01*
X102890391Y-93274071D01*
X102880932Y-93214354D01*
X102880208Y-93209777D01*
X102880207Y-93190226D01*
X102880412Y-93188929D01*
X102890392Y-93125918D01*
X102896433Y-93107330D01*
X102925987Y-93049326D01*
X102937475Y-93033514D01*
X102983514Y-92987475D01*
X102999326Y-92975987D01*
X103057331Y-92946432D01*
X103075922Y-92940391D01*
X103140226Y-92930207D01*
X103159772Y-92930207D01*
X103224073Y-92940391D01*
G37*
%TD.AperFunction*%
%TA.AperFunction,Conductor*%
G36*
X103224073Y-91140391D02*
G01*
X103242668Y-91146433D01*
X103300668Y-91175985D01*
X103316486Y-91187478D01*
X103362520Y-91233512D01*
X103374014Y-91249332D01*
X103403565Y-91307330D01*
X103409607Y-91325926D01*
X103419791Y-91390221D01*
X103419791Y-91409777D01*
X103409607Y-91474072D01*
X103403565Y-91492668D01*
X103374014Y-91550666D01*
X103362520Y-91566486D01*
X103316486Y-91612520D01*
X103300666Y-91624014D01*
X103242668Y-91653565D01*
X103224072Y-91659607D01*
X103159777Y-91669791D01*
X103140221Y-91669791D01*
X103075926Y-91659607D01*
X103057330Y-91653565D01*
X102999332Y-91624014D01*
X102983512Y-91612520D01*
X102937478Y-91566486D01*
X102925984Y-91550666D01*
X102896433Y-91492668D01*
X102890391Y-91474071D01*
X102880932Y-91414354D01*
X102880208Y-91409777D01*
X102880207Y-91390226D01*
X102881435Y-91382475D01*
X102890392Y-91325918D01*
X102896433Y-91307330D01*
X102925987Y-91249326D01*
X102937475Y-91233514D01*
X102983514Y-91187475D01*
X102999326Y-91175987D01*
X103057331Y-91146432D01*
X103075922Y-91140391D01*
X103140226Y-91130207D01*
X103159772Y-91130207D01*
X103224073Y-91140391D01*
G37*
%TD.AperFunction*%
%TA.AperFunction,Conductor*%
G36*
X101518882Y-66063381D02*
G01*
X102670772Y-66134964D01*
X103819566Y-66245636D01*
X104963936Y-66395270D01*
X106102563Y-66583693D01*
X107234132Y-66810687D01*
X108357337Y-67075991D01*
X109470880Y-67379297D01*
X110573478Y-67720257D01*
X111663856Y-68098476D01*
X112740757Y-68513518D01*
X113802936Y-68964904D01*
X114849169Y-69452112D01*
X115878247Y-69974581D01*
X116888982Y-70531706D01*
X117880207Y-71122846D01*
X118850780Y-71747317D01*
X119799578Y-72404399D01*
X120725506Y-73093333D01*
X121627497Y-73813325D01*
X122504508Y-74563542D01*
X123355528Y-75343118D01*
X124179574Y-76151155D01*
X124975694Y-76986719D01*
X125742970Y-77848846D01*
X126480515Y-78736540D01*
X127187480Y-79648777D01*
X127863047Y-80584503D01*
X128506436Y-81542639D01*
X129116905Y-82522078D01*
X129693750Y-83521691D01*
X130236304Y-84540322D01*
X130743941Y-85576796D01*
X131216075Y-86629917D01*
X131652162Y-87698469D01*
X132051696Y-88781219D01*
X132414219Y-89876916D01*
X132739310Y-90984296D01*
X133026595Y-92102080D01*
X133275742Y-93228979D01*
X133486463Y-94363690D01*
X133658516Y-95504906D01*
X133719666Y-96031259D01*
X133706583Y-96077271D01*
X133664797Y-96100554D01*
X133657532Y-96100972D01*
X131968367Y-96099556D01*
X131967510Y-96099500D01*
X131965892Y-96099500D01*
X131900414Y-96099500D01*
X131863962Y-96099469D01*
X131863094Y-96099500D01*
X131708381Y-96099500D01*
X131620234Y-96108181D01*
X131326995Y-96137062D01*
X130951127Y-96211826D01*
X130951111Y-96211830D01*
X130787695Y-96261402D01*
X130584376Y-96323078D01*
X130584372Y-96323079D01*
X130584364Y-96323082D01*
X130230311Y-96469736D01*
X129892330Y-96650391D01*
X129892329Y-96650391D01*
X129573667Y-96863314D01*
X129573664Y-96863317D01*
X129277430Y-97106430D01*
X129277423Y-97106436D01*
X129006436Y-97377423D01*
X129006430Y-97377430D01*
X128763317Y-97673664D01*
X128763314Y-97673667D01*
X128550391Y-97992329D01*
X128550391Y-97992330D01*
X128369736Y-98330311D01*
X128223082Y-98684364D01*
X128111830Y-99051111D01*
X128111826Y-99051127D01*
X128037062Y-99426995D01*
X127999500Y-99808384D01*
X127999500Y-100191615D01*
X128037062Y-100573004D01*
X128111826Y-100948872D01*
X128111830Y-100948887D01*
X128223078Y-101315624D01*
X128223080Y-101315629D01*
X128223082Y-101315635D01*
X128369736Y-101669688D01*
X128550391Y-102007669D01*
X128550391Y-102007670D01*
X128763314Y-102326332D01*
X128763317Y-102326335D01*
X128986242Y-102597970D01*
X129006435Y-102622575D01*
X129277425Y-102893565D01*
X129300352Y-102912381D01*
X129573664Y-103136682D01*
X129573667Y-103136685D01*
X129573673Y-103136689D01*
X129892324Y-103349605D01*
X129892326Y-103349606D01*
X129892329Y-103349608D01*
X130020720Y-103418234D01*
X130230310Y-103530263D01*
X130584364Y-103676917D01*
X130584363Y-103676917D01*
X130584366Y-103676918D01*
X130584376Y-103676922D01*
X130951113Y-103788170D01*
X130951122Y-103788171D01*
X130951127Y-103788173D01*
X131051433Y-103808124D01*
X131326988Y-103862936D01*
X131326993Y-103862936D01*
X131326996Y-103862937D01*
X131326994Y-103862937D01*
X131521271Y-103882071D01*
X131708381Y-103900500D01*
X131864201Y-103900500D01*
X133677798Y-103900500D01*
X133721992Y-103918806D01*
X133740298Y-103963000D01*
X133739880Y-103970220D01*
X133678678Y-104496456D01*
X133506611Y-105637104D01*
X133295937Y-106771257D01*
X133046898Y-107897608D01*
X132759781Y-109014859D01*
X132434917Y-110121724D01*
X132072680Y-111216927D01*
X131673488Y-112299208D01*
X131237800Y-113367320D01*
X130766117Y-114420031D01*
X130258984Y-115456131D01*
X129716985Y-116474425D01*
X129140743Y-117473741D01*
X128530923Y-118452927D01*
X127888226Y-119410855D01*
X127213394Y-120346423D01*
X126507203Y-121258553D01*
X126143630Y-121696595D01*
X126101318Y-121718910D01*
X126055620Y-121704771D01*
X126033305Y-121662459D01*
X126033338Y-121650552D01*
X126051830Y-121462800D01*
X126051830Y-121462799D01*
X126033304Y-121274696D01*
X126032957Y-121271176D01*
X125977062Y-121086917D01*
X125886294Y-120917102D01*
X125764141Y-120768259D01*
X125615298Y-120646106D01*
X125615292Y-120646102D01*
X125508295Y-120588912D01*
X125445483Y-120555338D01*
X125327711Y-120519611D01*
X125261222Y-120499442D01*
X125069600Y-120480570D01*
X124877977Y-120499442D01*
X124760204Y-120535169D01*
X124693717Y-120555338D01*
X124693715Y-120555338D01*
X124693715Y-120555339D01*
X124523907Y-120646102D01*
X124523901Y-120646106D01*
X124375059Y-120768259D01*
X124252906Y-120917101D01*
X124252902Y-120917107D01*
X124195070Y-121025305D01*
X124162138Y-121086917D01*
X124153619Y-121115000D01*
X124106242Y-121271177D01*
X124087370Y-121462799D01*
X124087370Y-121462800D01*
X124106242Y-121654422D01*
X124121516Y-121704771D01*
X124162138Y-121838683D01*
X124195712Y-121901495D01*
X124252902Y-122008492D01*
X124252906Y-122008498D01*
X124375059Y-122157341D01*
X124523902Y-122279494D01*
X124523904Y-122279495D01*
X124523907Y-122279497D01*
X124553834Y-122295493D01*
X124693717Y-122370262D01*
X124877976Y-122426157D01*
X124973788Y-122435593D01*
X125069599Y-122445030D01*
X125069599Y-122445029D01*
X125069600Y-122445030D01*
X125261224Y-122426157D01*
X125405567Y-122382370D01*
X125453169Y-122387059D01*
X125483516Y-122424036D01*
X125478827Y-122471641D01*
X125470418Y-122483705D01*
X125147122Y-122847369D01*
X125004034Y-123008323D01*
X124208787Y-123843948D01*
X124207593Y-123845119D01*
X124206432Y-123846259D01*
X124162064Y-123864141D01*
X124118048Y-123845413D01*
X124100166Y-123801045D01*
X124107542Y-123772183D01*
X124181011Y-123634734D01*
X124236906Y-123450475D01*
X124255779Y-123258851D01*
X124236906Y-123067227D01*
X124181011Y-122882968D01*
X124090243Y-122713153D01*
X123968090Y-122564310D01*
X123819247Y-122442157D01*
X123819241Y-122442153D01*
X123684737Y-122370260D01*
X123649432Y-122351389D01*
X123531660Y-122315662D01*
X123465171Y-122295493D01*
X123273549Y-122276621D01*
X123081926Y-122295493D01*
X122964153Y-122331220D01*
X122897666Y-122351389D01*
X122897664Y-122351389D01*
X122897664Y-122351390D01*
X122727856Y-122442153D01*
X122727850Y-122442157D01*
X122579008Y-122564310D01*
X122456855Y-122713152D01*
X122456851Y-122713158D01*
X122366088Y-122882966D01*
X122310191Y-123067228D01*
X122291319Y-123258850D01*
X122291319Y-123258851D01*
X122310191Y-123450473D01*
X122310192Y-123450475D01*
X122366087Y-123634734D01*
X122366088Y-123634735D01*
X122456851Y-123804543D01*
X122456855Y-123804549D01*
X122579008Y-123953392D01*
X122727851Y-124075545D01*
X122727853Y-124075546D01*
X122727856Y-124075548D01*
X122767957Y-124096982D01*
X122897666Y-124166313D01*
X123081925Y-124222208D01*
X123273549Y-124241081D01*
X123465173Y-124222208D01*
X123649432Y-124166313D01*
X123772783Y-124100380D01*
X123820389Y-124095691D01*
X123857366Y-124126038D01*
X123862055Y-124173643D01*
X123846032Y-124200098D01*
X123385642Y-124652106D01*
X122912579Y-125086029D01*
X122867636Y-125102413D01*
X122824273Y-125082219D01*
X122809032Y-125052163D01*
X122799682Y-125005155D01*
X122799681Y-125005153D01*
X122778614Y-124973625D01*
X121558774Y-123753785D01*
X121527246Y-123732718D01*
X121527244Y-123732717D01*
X121477498Y-123722823D01*
X121427751Y-123732717D01*
X121427749Y-123732718D01*
X121396221Y-123753785D01*
X120176381Y-124973625D01*
X120155314Y-125005153D01*
X120155313Y-125005155D01*
X120145418Y-125054901D01*
X120145418Y-125054902D01*
X120155313Y-125104648D01*
X120155314Y-125104650D01*
X120176381Y-125136178D01*
X121367261Y-126327058D01*
X121385567Y-126371252D01*
X121367261Y-126415446D01*
X121362093Y-126420070D01*
X120996882Y-126712031D01*
X120758457Y-126902635D01*
X119833508Y-127591949D01*
X118885699Y-128249479D01*
X117916125Y-128874468D01*
X116925900Y-129466196D01*
X115916167Y-130023981D01*
X114888087Y-130547181D01*
X113842845Y-131035193D01*
X112781645Y-131487455D01*
X111705710Y-131903446D01*
X110616278Y-132282688D01*
X109514604Y-132624742D01*
X108401957Y-132929216D01*
X107279620Y-133195758D01*
X106148884Y-133424062D01*
X105011052Y-133613864D01*
X103867435Y-133764946D01*
X102719350Y-133877134D01*
X101568118Y-133950298D01*
X100415067Y-133984355D01*
X99261526Y-133979265D01*
X98108820Y-133935034D01*
X96958279Y-133851713D01*
X95811228Y-133729398D01*
X94668989Y-133568230D01*
X93532876Y-133368394D01*
X92404199Y-133130121D01*
X91284257Y-132853685D01*
X90174341Y-132539404D01*
X89075729Y-132187641D01*
X88551653Y-132000004D01*
X98367467Y-132000004D01*
X98387564Y-132255377D01*
X98387565Y-132255381D01*
X98387566Y-132255384D01*
X98447369Y-132504480D01*
X98545402Y-132741154D01*
X98545403Y-132741155D01*
X98679251Y-132959576D01*
X98679255Y-132959582D01*
X98845621Y-133154372D01*
X98845627Y-133154378D01*
X99040417Y-133320744D01*
X99040421Y-133320747D01*
X99258846Y-133454598D01*
X99495520Y-133552631D01*
X99744616Y-133612434D01*
X99744618Y-133612434D01*
X99744622Y-133612435D01*
X99999996Y-133632533D01*
X100000000Y-133632533D01*
X100000004Y-133632533D01*
X100255377Y-133612435D01*
X100255379Y-133612434D01*
X100255384Y-133612434D01*
X100504480Y-133552631D01*
X100741154Y-133454598D01*
X100959579Y-133320747D01*
X101105922Y-133195758D01*
X101154372Y-133154378D01*
X101154378Y-133154372D01*
X101320744Y-132959582D01*
X101320747Y-132959579D01*
X101454598Y-132741154D01*
X101552631Y-132504480D01*
X101612434Y-132255384D01*
X101617766Y-132187641D01*
X101632533Y-132000004D01*
X101632533Y-131999995D01*
X101612435Y-131744622D01*
X101612434Y-131744618D01*
X101612422Y-131744569D01*
X101552631Y-131495520D01*
X101454598Y-131258846D01*
X101320747Y-131040421D01*
X101320744Y-131040417D01*
X101154378Y-130845627D01*
X101154372Y-130845621D01*
X100959582Y-130679255D01*
X100959576Y-130679251D01*
X100798489Y-130580537D01*
X100741154Y-130545402D01*
X100504480Y-130447369D01*
X100504474Y-130447367D01*
X100504473Y-130447367D01*
X100255381Y-130387565D01*
X100255377Y-130387564D01*
X100000004Y-130367467D01*
X99999996Y-130367467D01*
X99744622Y-130387564D01*
X99744618Y-130387565D01*
X99495526Y-130447367D01*
X99495522Y-130447368D01*
X99495520Y-130447369D01*
X99258846Y-130545402D01*
X99258844Y-130545403D01*
X99040423Y-130679251D01*
X99040417Y-130679255D01*
X98845627Y-130845621D01*
X98845621Y-130845627D01*
X98679255Y-131040417D01*
X98679251Y-131040423D01*
X98573883Y-131212369D01*
X98545402Y-131258846D01*
X98450421Y-131488153D01*
X98447367Y-131495526D01*
X98387565Y-131744618D01*
X98387564Y-131744622D01*
X98367467Y-131999995D01*
X98367467Y-132000004D01*
X88551653Y-132000004D01*
X87989686Y-131798801D01*
X86917463Y-131373331D01*
X86776858Y-131311936D01*
X86266283Y-131088994D01*
X86233108Y-131054534D01*
X86234016Y-131006707D01*
X86261826Y-130976600D01*
X86378803Y-130914061D01*
X86704309Y-130696475D01*
X86998390Y-130454990D01*
X88169844Y-130454990D01*
X88179577Y-130634494D01*
X88179577Y-130634498D01*
X88179578Y-130634501D01*
X88209045Y-130740631D01*
X88227673Y-130807724D01*
X88227675Y-130807728D01*
X88278087Y-130902814D01*
X88311881Y-130966556D01*
X88428265Y-131103574D01*
X88504926Y-131161850D01*
X88571380Y-131212368D01*
X88571381Y-131212368D01*
X88571382Y-131212369D01*
X88734541Y-131287854D01*
X88910113Y-131326500D01*
X88910116Y-131326500D01*
X89044812Y-131326500D01*
X89044816Y-131326500D01*
X89178721Y-131311937D01*
X89349085Y-131254535D01*
X89503126Y-131161851D01*
X89633642Y-131038220D01*
X89734529Y-130889423D01*
X89801070Y-130722416D01*
X89830155Y-130545010D01*
X89828163Y-130508279D01*
X89821618Y-130387564D01*
X89820422Y-130365499D01*
X89788353Y-130249999D01*
X103594508Y-130249999D01*
X103614354Y-130375304D01*
X103614354Y-130375305D01*
X103651398Y-130448006D01*
X103671950Y-130488342D01*
X103761658Y-130578050D01*
X103874696Y-130635646D01*
X104000000Y-130655492D01*
X104125304Y-130635646D01*
X104238342Y-130578050D01*
X104328050Y-130488342D01*
X104385646Y-130375304D01*
X104405492Y-130250000D01*
X104385646Y-130124696D01*
X104328050Y-130011658D01*
X104238342Y-129921950D01*
X104125304Y-129864354D01*
X104000000Y-129844508D01*
X103874695Y-129864354D01*
X103874694Y-129864354D01*
X103761657Y-129921950D01*
X103671950Y-130011657D01*
X103614354Y-130124694D01*
X103614354Y-130124695D01*
X103594508Y-130249999D01*
X89788353Y-130249999D01*
X89772327Y-130192277D01*
X89761070Y-130171045D01*
X89688118Y-130033443D01*
X89669613Y-130011657D01*
X89571735Y-129896426D01*
X89452114Y-129805492D01*
X89428619Y-129787631D01*
X89337477Y-129745465D01*
X89265459Y-129712146D01*
X89265460Y-129712146D01*
X89220678Y-129702289D01*
X89089887Y-129673500D01*
X88955184Y-129673500D01*
X88955183Y-129673500D01*
X88821278Y-129688063D01*
X88821272Y-129688064D01*
X88650913Y-129745465D01*
X88496874Y-129838149D01*
X88496873Y-129838149D01*
X88366357Y-129961781D01*
X88265469Y-130110580D01*
X88198931Y-130277580D01*
X88198930Y-130277582D01*
X88198930Y-130277584D01*
X88191221Y-130324606D01*
X88169845Y-130454990D01*
X88169844Y-130454990D01*
X86998390Y-130454990D01*
X87006898Y-130448004D01*
X87283650Y-130171045D01*
X87531896Y-129868271D01*
X87749239Y-129542603D01*
X87933582Y-129197182D01*
X88083148Y-128835343D01*
X88196493Y-128460575D01*
X88238177Y-128250000D01*
X105944508Y-128250000D01*
X105957943Y-128334823D01*
X105964354Y-128375304D01*
X105964354Y-128375305D01*
X105978285Y-128402645D01*
X106021950Y-128488342D01*
X106111658Y-128578050D01*
X106224696Y-128635646D01*
X106350000Y-128655492D01*
X106373586Y-128651756D01*
X106420099Y-128662921D01*
X106445094Y-128703707D01*
X106445094Y-128703708D01*
X106464352Y-128825299D01*
X106464354Y-128825305D01*
X106521950Y-128938342D01*
X106589414Y-129005806D01*
X106607720Y-129050000D01*
X106589414Y-129094194D01*
X106521950Y-129161657D01*
X106464354Y-129274694D01*
X106464354Y-129274695D01*
X106444508Y-129400000D01*
X106464354Y-129525304D01*
X106464354Y-129525305D01*
X106521949Y-129638341D01*
X106521950Y-129638342D01*
X106611658Y-129728050D01*
X106724696Y-129785646D01*
X106850000Y-129805492D01*
X106975304Y-129785646D01*
X107088342Y-129728050D01*
X107114102Y-129702288D01*
X107158296Y-129683982D01*
X107186667Y-129690792D01*
X107274696Y-129735646D01*
X107400000Y-129755492D01*
X107525304Y-129735646D01*
X107638342Y-129678050D01*
X107728050Y-129588342D01*
X107785646Y-129475304D01*
X107805492Y-129350000D01*
X107785646Y-129224696D01*
X107728050Y-129111658D01*
X107638342Y-129021950D01*
X107525304Y-128964354D01*
X107400000Y-128944508D01*
X107399999Y-128944508D01*
X107346812Y-128952932D01*
X107276300Y-128964099D01*
X107229787Y-128952932D01*
X107204793Y-128912146D01*
X107210835Y-128873997D01*
X107235646Y-128825304D01*
X107255492Y-128700000D01*
X107235646Y-128574696D01*
X107178050Y-128461658D01*
X107173166Y-128456774D01*
X113170802Y-128456774D01*
X113190648Y-128582078D01*
X113190648Y-128582079D01*
X113231506Y-128662266D01*
X113248244Y-128695116D01*
X113337952Y-128784824D01*
X113450990Y-128842420D01*
X113576294Y-128862266D01*
X113701598Y-128842420D01*
X113814636Y-128784824D01*
X113904344Y-128695116D01*
X113927511Y-128649648D01*
X113963884Y-128618582D01*
X114011571Y-128622334D01*
X114050990Y-128642420D01*
X114176294Y-128662266D01*
X114301598Y-128642420D01*
X114414636Y-128584824D01*
X114504344Y-128495116D01*
X114535631Y-128433710D01*
X114572004Y-128402645D01*
X114601095Y-128400356D01*
X114676290Y-128412266D01*
X114676291Y-128412266D01*
X114676292Y-128412265D01*
X114676294Y-128412266D01*
X114801598Y-128392420D01*
X114914636Y-128334824D01*
X115004344Y-128245116D01*
X115061940Y-128132078D01*
X115081786Y-128006774D01*
X115061940Y-127881470D01*
X115004344Y-127768432D01*
X114983650Y-127747738D01*
X114965344Y-127703544D01*
X114983650Y-127659350D01*
X114999468Y-127647857D01*
X115038342Y-127628050D01*
X115128050Y-127538342D01*
X115185646Y-127425304D01*
X115205492Y-127300000D01*
X115185646Y-127174696D01*
X115128050Y-127061658D01*
X115038342Y-126971950D01*
X114925304Y-126914354D01*
X114800000Y-126894508D01*
X114674695Y-126914354D01*
X114674694Y-126914354D01*
X114561657Y-126971950D01*
X114471950Y-127061657D01*
X114414354Y-127174694D01*
X114414354Y-127174695D01*
X114394508Y-127300000D01*
X114414354Y-127425304D01*
X114414354Y-127425305D01*
X114471950Y-127538342D01*
X114492643Y-127559035D01*
X114510949Y-127603229D01*
X114492643Y-127647423D01*
X114476824Y-127658916D01*
X114437953Y-127678722D01*
X114348240Y-127768435D01*
X114316955Y-127829835D01*
X114280581Y-127860901D01*
X114251492Y-127863191D01*
X114176294Y-127851282D01*
X114050989Y-127871128D01*
X114050988Y-127871128D01*
X113937951Y-127928724D01*
X113848244Y-128018431D01*
X113825076Y-128063899D01*
X113788701Y-128094965D01*
X113741015Y-128091211D01*
X113701602Y-128071129D01*
X113701598Y-128071128D01*
X113576294Y-128051282D01*
X113450989Y-128071128D01*
X113450988Y-128071128D01*
X113337951Y-128128724D01*
X113248244Y-128218431D01*
X113190648Y-128331468D01*
X113190648Y-128331469D01*
X113170802Y-128456774D01*
X107173166Y-128456774D01*
X107088342Y-128371950D01*
X107037385Y-128345986D01*
X106975305Y-128314354D01*
X106975300Y-128314353D01*
X106971158Y-128313697D01*
X106930373Y-128288701D01*
X106919209Y-128242186D01*
X106944205Y-128201401D01*
X106952561Y-128196281D01*
X106988342Y-128178050D01*
X107078050Y-128088342D01*
X107135646Y-127975304D01*
X107155492Y-127850000D01*
X107135646Y-127724696D01*
X107078050Y-127611658D01*
X106988342Y-127521950D01*
X106875304Y-127464354D01*
X106750000Y-127444508D01*
X106624695Y-127464354D01*
X106624694Y-127464354D01*
X106511657Y-127521950D01*
X106421950Y-127611657D01*
X106364353Y-127724697D01*
X106364353Y-127724698D01*
X106352361Y-127800409D01*
X106327367Y-127841195D01*
X106300409Y-127852361D01*
X106224698Y-127864353D01*
X106224697Y-127864353D01*
X106111657Y-127921950D01*
X106021950Y-128011657D01*
X105964354Y-128124694D01*
X105964354Y-128124695D01*
X105944591Y-128249479D01*
X105944508Y-128250000D01*
X88238177Y-128250000D01*
X88262184Y-128128724D01*
X88272522Y-128076501D01*
X88273751Y-128063899D01*
X88310506Y-127686809D01*
X88310073Y-127295277D01*
X88271230Y-126905675D01*
X88194352Y-126521764D01*
X88080179Y-126147248D01*
X87929814Y-125785740D01*
X87744708Y-125440727D01*
X87744706Y-125440724D01*
X87744704Y-125440719D01*
X87526652Y-125115549D01*
X87526646Y-125115540D01*
X87277733Y-124813315D01*
X87000370Y-124536968D01*
X86832821Y-124400004D01*
X95867467Y-124400004D01*
X95887564Y-124655377D01*
X95887565Y-124655381D01*
X95925481Y-124813313D01*
X95947369Y-124904480D01*
X96045402Y-125141154D01*
X96045403Y-125141155D01*
X96179251Y-125359576D01*
X96179255Y-125359582D01*
X96345621Y-125554372D01*
X96345627Y-125554378D01*
X96540417Y-125720744D01*
X96540421Y-125720747D01*
X96758846Y-125854598D01*
X96995520Y-125952631D01*
X97244616Y-126012434D01*
X97244618Y-126012434D01*
X97244622Y-126012435D01*
X97499996Y-126032533D01*
X97500000Y-126032533D01*
X97500004Y-126032533D01*
X97755377Y-126012435D01*
X97755379Y-126012434D01*
X97755384Y-126012434D01*
X98004480Y-125952631D01*
X98241154Y-125854598D01*
X98459579Y-125720747D01*
X98556977Y-125637560D01*
X98654372Y-125554378D01*
X98654378Y-125554372D01*
X98820744Y-125359582D01*
X98820747Y-125359579D01*
X98954598Y-125141154D01*
X99052631Y-124904480D01*
X99112434Y-124655384D01*
X99117711Y-124588342D01*
X99132533Y-124400004D01*
X100867467Y-124400004D01*
X100887564Y-124655377D01*
X100887565Y-124655381D01*
X100925481Y-124813313D01*
X100947369Y-124904480D01*
X101045402Y-125141154D01*
X101045403Y-125141155D01*
X101179251Y-125359576D01*
X101179255Y-125359582D01*
X101345621Y-125554372D01*
X101345627Y-125554378D01*
X101540417Y-125720744D01*
X101540421Y-125720747D01*
X101758846Y-125854598D01*
X101995520Y-125952631D01*
X102244616Y-126012434D01*
X102244618Y-126012434D01*
X102244622Y-126012435D01*
X102499996Y-126032533D01*
X102500000Y-126032533D01*
X102500004Y-126032533D01*
X102755377Y-126012435D01*
X102755379Y-126012434D01*
X102755384Y-126012434D01*
X103004480Y-125952631D01*
X103241154Y-125854598D01*
X103459579Y-125720747D01*
X103556977Y-125637561D01*
X103654372Y-125554378D01*
X103654378Y-125554372D01*
X103820744Y-125359582D01*
X103820747Y-125359579D01*
X103954598Y-125141154D01*
X104052631Y-124904480D01*
X104112434Y-124655384D01*
X104117711Y-124588342D01*
X104132533Y-124400004D01*
X104132533Y-124399995D01*
X104128598Y-124350000D01*
X114944508Y-124350000D01*
X114964354Y-124475304D01*
X114964354Y-124475305D01*
X115006701Y-124558414D01*
X115021950Y-124588342D01*
X115111658Y-124678050D01*
X115224696Y-124735646D01*
X115350000Y-124755492D01*
X115475304Y-124735646D01*
X115588342Y-124678050D01*
X115678050Y-124588342D01*
X115735646Y-124475304D01*
X115755492Y-124350000D01*
X115735646Y-124224696D01*
X115678050Y-124111658D01*
X115588342Y-124021950D01*
X115475304Y-123964354D01*
X115350000Y-123944508D01*
X115349999Y-123944508D01*
X115224695Y-123964354D01*
X115224694Y-123964354D01*
X115111657Y-124021950D01*
X115021950Y-124111657D01*
X114964354Y-124224694D01*
X114964354Y-124224695D01*
X114944508Y-124350000D01*
X104128598Y-124350000D01*
X104112435Y-124144622D01*
X104112434Y-124144618D01*
X104109561Y-124132653D01*
X104052631Y-123895520D01*
X103954598Y-123658846D01*
X103918537Y-123600000D01*
X105144508Y-123600000D01*
X105164354Y-123725304D01*
X105164354Y-123725305D01*
X105216166Y-123826990D01*
X105221950Y-123838342D01*
X105311658Y-123928050D01*
X105424696Y-123985646D01*
X105550000Y-124005492D01*
X105675304Y-123985646D01*
X105788342Y-123928050D01*
X105878050Y-123838342D01*
X105935646Y-123725304D01*
X105955492Y-123600000D01*
X105935646Y-123474696D01*
X105878050Y-123361658D01*
X105788342Y-123271950D01*
X105675304Y-123214354D01*
X105550000Y-123194508D01*
X105549999Y-123194508D01*
X105424695Y-123214354D01*
X105424694Y-123214354D01*
X105311657Y-123271950D01*
X105221950Y-123361657D01*
X105164354Y-123474694D01*
X105164354Y-123474695D01*
X105144508Y-123600000D01*
X103918537Y-123600000D01*
X103820747Y-123440421D01*
X103820744Y-123440417D01*
X103654378Y-123245627D01*
X103654372Y-123245621D01*
X103459582Y-123079255D01*
X103459576Y-123079251D01*
X103263861Y-122959317D01*
X103241154Y-122945402D01*
X103004480Y-122847369D01*
X103004474Y-122847367D01*
X103004473Y-122847367D01*
X102755381Y-122787565D01*
X102755377Y-122787564D01*
X102500004Y-122767467D01*
X102499996Y-122767467D01*
X102244622Y-122787564D01*
X102244618Y-122787565D01*
X101995526Y-122847367D01*
X101995522Y-122847368D01*
X101995520Y-122847369D01*
X101758846Y-122945402D01*
X101758844Y-122945403D01*
X101540423Y-123079251D01*
X101540417Y-123079255D01*
X101345627Y-123245621D01*
X101345621Y-123245627D01*
X101179255Y-123440417D01*
X101179251Y-123440423D01*
X101060178Y-123634734D01*
X101045402Y-123658846D01*
X100950293Y-123888463D01*
X100947367Y-123895526D01*
X100887565Y-124144618D01*
X100887564Y-124144622D01*
X100867467Y-124399995D01*
X100867467Y-124400004D01*
X99132533Y-124400004D01*
X99132533Y-124399995D01*
X99112435Y-124144622D01*
X99112434Y-124144618D01*
X99109561Y-124132653D01*
X99052631Y-123895520D01*
X98954598Y-123658846D01*
X98820747Y-123440421D01*
X98820744Y-123440417D01*
X98654378Y-123245627D01*
X98654372Y-123245621D01*
X98459582Y-123079255D01*
X98459576Y-123079251D01*
X98263861Y-122959317D01*
X98241154Y-122945402D01*
X98004480Y-122847369D01*
X98004474Y-122847367D01*
X98004473Y-122847367D01*
X97755381Y-122787565D01*
X97755377Y-122787564D01*
X97500004Y-122767467D01*
X97499996Y-122767467D01*
X97244622Y-122787564D01*
X97244618Y-122787565D01*
X96995526Y-122847367D01*
X96995522Y-122847368D01*
X96995520Y-122847369D01*
X96758846Y-122945402D01*
X96758844Y-122945403D01*
X96540423Y-123079251D01*
X96540417Y-123079255D01*
X96345627Y-123245621D01*
X96345621Y-123245627D01*
X96179255Y-123440417D01*
X96179251Y-123440423D01*
X96060178Y-123634734D01*
X96045402Y-123658846D01*
X95950293Y-123888463D01*
X95947367Y-123895526D01*
X95887565Y-124144618D01*
X95887564Y-124144622D01*
X95867467Y-124399995D01*
X95867467Y-124400004D01*
X86832821Y-124400004D01*
X86697232Y-124289166D01*
X86371246Y-124072300D01*
X86371243Y-124072298D01*
X86025559Y-123888463D01*
X86025560Y-123888463D01*
X85663497Y-123739424D01*
X85663494Y-123739423D01*
X85544994Y-123703773D01*
X85507948Y-123673511D01*
X85500500Y-123643923D01*
X85500500Y-122350000D01*
X106494508Y-122350000D01*
X106514354Y-122475304D01*
X106514354Y-122475305D01*
X106559705Y-122564310D01*
X106571950Y-122588342D01*
X106661658Y-122678050D01*
X106774696Y-122735646D01*
X106900000Y-122755492D01*
X107025304Y-122735646D01*
X107138342Y-122678050D01*
X107228050Y-122588342D01*
X107271442Y-122503179D01*
X107307815Y-122472114D01*
X107355503Y-122475867D01*
X107374691Y-122485644D01*
X107374693Y-122485644D01*
X107374696Y-122485646D01*
X107500000Y-122505492D01*
X107625304Y-122485646D01*
X107738342Y-122428050D01*
X107828050Y-122338342D01*
X107885646Y-122225304D01*
X107905492Y-122100000D01*
X107885646Y-121974696D01*
X107828050Y-121861658D01*
X107738342Y-121771950D01*
X107625304Y-121714354D01*
X107500000Y-121694508D01*
X107499999Y-121694508D01*
X107374695Y-121714354D01*
X107374694Y-121714354D01*
X107261657Y-121771950D01*
X107171950Y-121861657D01*
X107128558Y-121946819D01*
X107092183Y-121977885D01*
X107044497Y-121974132D01*
X107025311Y-121964356D01*
X107025304Y-121964354D01*
X107025304Y-121964353D01*
X106900000Y-121944508D01*
X106899999Y-121944508D01*
X106774695Y-121964354D01*
X106774694Y-121964354D01*
X106661657Y-122021950D01*
X106571950Y-122111657D01*
X106514354Y-122224694D01*
X106514354Y-122224695D01*
X106494508Y-122350000D01*
X85500500Y-122350000D01*
X85500500Y-121795398D01*
X85518806Y-121751204D01*
X85563000Y-121732898D01*
X85607194Y-121751204D01*
X85611313Y-121755749D01*
X85655456Y-121809538D01*
X85655457Y-121809539D01*
X85655459Y-121809541D01*
X85804302Y-121931694D01*
X85804304Y-121931695D01*
X85804307Y-121931697D01*
X85828275Y-121944508D01*
X85974117Y-122022462D01*
X86158376Y-122078357D01*
X86350000Y-122097230D01*
X86541624Y-122078357D01*
X86725883Y-122022462D01*
X86895698Y-121931694D01*
X87044541Y-121809541D01*
X87166694Y-121660698D01*
X87257462Y-121490883D01*
X87285031Y-121400000D01*
X107994508Y-121400000D01*
X108014354Y-121525304D01*
X108014354Y-121525305D01*
X108052068Y-121599322D01*
X108071950Y-121638342D01*
X108161658Y-121728050D01*
X108274696Y-121785646D01*
X108400000Y-121805492D01*
X108525304Y-121785646D01*
X108638342Y-121728050D01*
X108728050Y-121638342D01*
X108785646Y-121525304D01*
X108805492Y-121400000D01*
X108785646Y-121274696D01*
X108728050Y-121161658D01*
X108638342Y-121071950D01*
X108525304Y-121014354D01*
X108400000Y-120994508D01*
X108274695Y-121014354D01*
X108274694Y-121014354D01*
X108161657Y-121071950D01*
X108071950Y-121161657D01*
X108014354Y-121274694D01*
X108014354Y-121274695D01*
X107994508Y-121400000D01*
X87285031Y-121400000D01*
X87313357Y-121306624D01*
X87332230Y-121115000D01*
X87313357Y-120923376D01*
X87306266Y-120900000D01*
X109244508Y-120900000D01*
X109248210Y-120923376D01*
X109264354Y-121025304D01*
X109264354Y-121025305D01*
X109321949Y-121138342D01*
X109321950Y-121138342D01*
X109411658Y-121228050D01*
X109524696Y-121285646D01*
X109650000Y-121305492D01*
X109775304Y-121285646D01*
X109888342Y-121228050D01*
X109978050Y-121138342D01*
X110035646Y-121025304D01*
X110055492Y-120900000D01*
X110035646Y-120774696D01*
X109978050Y-120661658D01*
X109888342Y-120571950D01*
X109775304Y-120514354D01*
X109650000Y-120494508D01*
X109649999Y-120494508D01*
X109524695Y-120514354D01*
X109524694Y-120514354D01*
X109411657Y-120571950D01*
X109321950Y-120661657D01*
X109264354Y-120774694D01*
X109264354Y-120774695D01*
X109264353Y-120774696D01*
X109264354Y-120774696D01*
X109244508Y-120900000D01*
X87306266Y-120900000D01*
X87257462Y-120739117D01*
X87190313Y-120613491D01*
X87166697Y-120569307D01*
X87166693Y-120569301D01*
X87121599Y-120514354D01*
X87044541Y-120420459D01*
X86895698Y-120298306D01*
X86895692Y-120298302D01*
X86788695Y-120241112D01*
X86725883Y-120207538D01*
X86608111Y-120171811D01*
X86541622Y-120151642D01*
X86350000Y-120132770D01*
X86158377Y-120151642D01*
X86040604Y-120187369D01*
X85974117Y-120207538D01*
X85974115Y-120207538D01*
X85974115Y-120207539D01*
X85804307Y-120298302D01*
X85804301Y-120298306D01*
X85655459Y-120420459D01*
X85611313Y-120474251D01*
X85569126Y-120496800D01*
X85523350Y-120482914D01*
X85500801Y-120440727D01*
X85500500Y-120434601D01*
X85500500Y-119615000D01*
X85518806Y-119570806D01*
X85563000Y-119552500D01*
X87212557Y-119552500D01*
X87212558Y-119552500D01*
X87249748Y-119545102D01*
X87291922Y-119516922D01*
X87320102Y-119474748D01*
X87327500Y-119437558D01*
X87327500Y-118300000D01*
X108044508Y-118300000D01*
X108064354Y-118425304D01*
X108064354Y-118425305D01*
X108121949Y-118538342D01*
X108121950Y-118538342D01*
X108211658Y-118628050D01*
X108324696Y-118685646D01*
X108450000Y-118705492D01*
X108575304Y-118685646D01*
X108688342Y-118628050D01*
X108778050Y-118538342D01*
X108835646Y-118425304D01*
X108855492Y-118300000D01*
X108835646Y-118174696D01*
X108778050Y-118061658D01*
X108688342Y-117971950D01*
X108575304Y-117914354D01*
X108450000Y-117894508D01*
X108449999Y-117894508D01*
X108324695Y-117914354D01*
X108324694Y-117914354D01*
X108211657Y-117971950D01*
X108121950Y-118061657D01*
X108064354Y-118174694D01*
X108064354Y-118174695D01*
X108044508Y-118300000D01*
X87327500Y-118300000D01*
X87327500Y-117712442D01*
X87320102Y-117675252D01*
X87320101Y-117675250D01*
X87291922Y-117633077D01*
X87249748Y-117604898D01*
X87249747Y-117604898D01*
X87212558Y-117597500D01*
X87212557Y-117597500D01*
X85563000Y-117597500D01*
X85518806Y-117579194D01*
X85500500Y-117535000D01*
X85500500Y-116636800D01*
X102261308Y-116636800D01*
X102281154Y-116762104D01*
X102281154Y-116762105D01*
X102311647Y-116821950D01*
X102338750Y-116875142D01*
X102428458Y-116964850D01*
X102541496Y-117022446D01*
X102666800Y-117042292D01*
X102792104Y-117022446D01*
X102870571Y-116982464D01*
X102918256Y-116978712D01*
X102954631Y-117009778D01*
X102960674Y-117047930D01*
X102944508Y-117149999D01*
X102964354Y-117275304D01*
X102964354Y-117275305D01*
X102994292Y-117334061D01*
X103021950Y-117388342D01*
X103111658Y-117478050D01*
X103224696Y-117535646D01*
X103350000Y-117555492D01*
X103475304Y-117535646D01*
X103588342Y-117478050D01*
X103678050Y-117388342D01*
X103735646Y-117275304D01*
X103755492Y-117150000D01*
X103735646Y-117024696D01*
X103678050Y-116911658D01*
X103588342Y-116821950D01*
X103475304Y-116764354D01*
X103350000Y-116744508D01*
X103349999Y-116744508D01*
X103224695Y-116764354D01*
X103224691Y-116764355D01*
X103146230Y-116804334D01*
X103098542Y-116808087D01*
X103062168Y-116777020D01*
X103056126Y-116738869D01*
X103072292Y-116636803D01*
X103072292Y-116636802D01*
X103072292Y-116636800D01*
X103052446Y-116511496D01*
X102994850Y-116398458D01*
X102905142Y-116308750D01*
X102792104Y-116251154D01*
X102666800Y-116231308D01*
X102666799Y-116231308D01*
X102541495Y-116251154D01*
X102541494Y-116251154D01*
X102428457Y-116308750D01*
X102338750Y-116398457D01*
X102281154Y-116511494D01*
X102281154Y-116511495D01*
X102261308Y-116636800D01*
X85500500Y-116636800D01*
X85500500Y-113800000D01*
X90244508Y-113800000D01*
X90264354Y-113925304D01*
X90264354Y-113925305D01*
X90321949Y-114038341D01*
X90321950Y-114038342D01*
X90411658Y-114128050D01*
X90524696Y-114185646D01*
X90650000Y-114205492D01*
X90775304Y-114185646D01*
X90888342Y-114128050D01*
X90978050Y-114038342D01*
X91035646Y-113925304D01*
X91055492Y-113800000D01*
X91035646Y-113674696D01*
X90978050Y-113561658D01*
X90888342Y-113471950D01*
X90775304Y-113414354D01*
X90650000Y-113394508D01*
X90524695Y-113414354D01*
X90524694Y-113414354D01*
X90411657Y-113471950D01*
X90321950Y-113561657D01*
X90264354Y-113674694D01*
X90264354Y-113674695D01*
X90244508Y-113800000D01*
X85500500Y-113800000D01*
X85500500Y-110500635D01*
X85501503Y-110489482D01*
X85504225Y-110474473D01*
X85500605Y-110430652D01*
X85500500Y-110428081D01*
X85500500Y-110414204D01*
X85497690Y-110394658D01*
X85497478Y-110392782D01*
X85493378Y-110343139D01*
X85493378Y-110343136D01*
X85490340Y-110334662D01*
X85487310Y-110322464D01*
X85485165Y-110307544D01*
X85464572Y-110262452D01*
X85463585Y-110260027D01*
X85448908Y-110219081D01*
X85439924Y-110206117D01*
X85434445Y-110196484D01*
X85425377Y-110176628D01*
X85425377Y-110176627D01*
X85416253Y-110166097D01*
X85400268Y-110147648D01*
X85397817Y-110144419D01*
X85323397Y-110031891D01*
X84968538Y-109495317D01*
X84555159Y-108807135D01*
X84172017Y-108101671D01*
X83819833Y-107380252D01*
X83499271Y-106644238D01*
X83210934Y-105895012D01*
X82955365Y-105133985D01*
X82733043Y-104362590D01*
X82544389Y-103582278D01*
X82389757Y-102794518D01*
X82269438Y-102000792D01*
X82183658Y-101202594D01*
X82132579Y-100401427D01*
X82124897Y-100022767D01*
X83876411Y-100022767D01*
X83876412Y-100022781D01*
X83885518Y-100071047D01*
X84234908Y-100963933D01*
X84253802Y-101012217D01*
X85452282Y-104075000D01*
X85471175Y-104123283D01*
X85853369Y-105100000D01*
X85872262Y-105148283D01*
X86237285Y-106081118D01*
X86256178Y-106129401D01*
X86358621Y-106391199D01*
X87048098Y-108153199D01*
X87066992Y-108201483D01*
X87343963Y-108909298D01*
X87362856Y-108957581D01*
X87877392Y-110272506D01*
X87896286Y-110320790D01*
X88346589Y-111471565D01*
X88367142Y-111524088D01*
X88368578Y-111527552D01*
X88383903Y-111549999D01*
X88383904Y-111550000D01*
X88399150Y-111572331D01*
X88399149Y-111572331D01*
X88433638Y-111605486D01*
X88466292Y-111626385D01*
X88477179Y-111633353D01*
X88579496Y-111673390D01*
X89828769Y-112162236D01*
X90144099Y-112285626D01*
X91714163Y-112899999D01*
X92029496Y-113023390D01*
X93409992Y-113563584D01*
X93725324Y-113686975D01*
X99928942Y-116114478D01*
X99928947Y-116114479D01*
X99928950Y-116114480D01*
X99928948Y-116114480D01*
X99971645Y-116122535D01*
X99977225Y-116123588D01*
X99977230Y-116123588D01*
X100022770Y-116123588D01*
X100022775Y-116123588D01*
X100041171Y-116120117D01*
X100071050Y-116114480D01*
X100071052Y-116114479D01*
X100071058Y-116114478D01*
X100275868Y-116034335D01*
X114409500Y-116034335D01*
X114450429Y-116279614D01*
X114531172Y-116514810D01*
X114612301Y-116664723D01*
X114649525Y-116733508D01*
X114649526Y-116733510D01*
X114802257Y-116929738D01*
X114802260Y-116929742D01*
X114985211Y-117098161D01*
X114985213Y-117098162D01*
X114985215Y-117098164D01*
X115193393Y-117234173D01*
X115421119Y-117334063D01*
X115662179Y-117395108D01*
X115847933Y-117410500D01*
X115847935Y-117410500D01*
X115972065Y-117410500D01*
X115972067Y-117410500D01*
X116157821Y-117395108D01*
X116398881Y-117334063D01*
X116626607Y-117234173D01*
X116834785Y-117098164D01*
X117017738Y-116929744D01*
X117170474Y-116733509D01*
X117288828Y-116514810D01*
X117369571Y-116279614D01*
X117410500Y-116034335D01*
X117410500Y-115785665D01*
X117369571Y-115540386D01*
X117288828Y-115305190D01*
X117170474Y-115086491D01*
X117170473Y-115086489D01*
X117017742Y-114890261D01*
X117017739Y-114890257D01*
X116834788Y-114721838D01*
X116834783Y-114721835D01*
X116626612Y-114585830D01*
X116626609Y-114585828D01*
X116398883Y-114485938D01*
X116398881Y-114485937D01*
X116157821Y-114424892D01*
X115972067Y-114409500D01*
X115847933Y-114409500D01*
X115662179Y-114424892D01*
X115421119Y-114485937D01*
X115421117Y-114485937D01*
X115421116Y-114485938D01*
X115193390Y-114585828D01*
X115193387Y-114585830D01*
X114985216Y-114721835D01*
X114985211Y-114721838D01*
X114802260Y-114890257D01*
X114802257Y-114890261D01*
X114649526Y-115086489D01*
X114649525Y-115086491D01*
X114595875Y-115185629D01*
X114531172Y-115305190D01*
X114450429Y-115540386D01*
X114409500Y-115785665D01*
X114409500Y-116034335D01*
X100275868Y-116034335D01*
X111524041Y-111632876D01*
X111527529Y-111631430D01*
X111572332Y-111600848D01*
X111605484Y-111566363D01*
X111633354Y-111522819D01*
X111908827Y-110818833D01*
X119695701Y-110818833D01*
X119715533Y-111045519D01*
X119715536Y-111045535D01*
X119774428Y-111265323D01*
X119774429Y-111265325D01*
X119870600Y-111471564D01*
X120001122Y-111657971D01*
X120162028Y-111818877D01*
X120229843Y-111866361D01*
X120348435Y-111949399D01*
X120348434Y-111949399D01*
X120451554Y-111997484D01*
X120554673Y-112045570D01*
X120554675Y-112045570D01*
X120554676Y-112045571D01*
X120774464Y-112104463D01*
X120774470Y-112104464D01*
X120774477Y-112104466D01*
X120944385Y-112119331D01*
X121057953Y-112119331D01*
X121227861Y-112104466D01*
X121227870Y-112104463D01*
X121227873Y-112104463D01*
X121447661Y-112045571D01*
X121447660Y-112045571D01*
X121447665Y-112045570D01*
X121653903Y-111949399D01*
X121840308Y-111818878D01*
X122001216Y-111657970D01*
X122131737Y-111471565D01*
X122227908Y-111265327D01*
X122286804Y-111045523D01*
X122306637Y-110818831D01*
X122286804Y-110592139D01*
X122260779Y-110495013D01*
X122227909Y-110372338D01*
X122227908Y-110372336D01*
X122214293Y-110343139D01*
X122131737Y-110166097D01*
X122037766Y-110031891D01*
X122001215Y-109979690D01*
X121840309Y-109818784D01*
X121721716Y-109735746D01*
X121653903Y-109688263D01*
X121653901Y-109688262D01*
X121653903Y-109688262D01*
X121447663Y-109592091D01*
X121447661Y-109592090D01*
X121227873Y-109533198D01*
X121227857Y-109533195D01*
X121057953Y-109518331D01*
X120944385Y-109518331D01*
X120774480Y-109533195D01*
X120774464Y-109533198D01*
X120554676Y-109592090D01*
X120554674Y-109592091D01*
X120348435Y-109688262D01*
X120162028Y-109818784D01*
X120001122Y-109979690D01*
X119870600Y-110166097D01*
X119774429Y-110372336D01*
X119774428Y-110372338D01*
X119715536Y-110592126D01*
X119715533Y-110592142D01*
X119695701Y-110818828D01*
X119695701Y-110818833D01*
X111908827Y-110818833D01*
X112375431Y-109626400D01*
X113589708Y-109626400D01*
X113609554Y-109751704D01*
X113609554Y-109751705D01*
X113643733Y-109818784D01*
X113667150Y-109864742D01*
X113756858Y-109954450D01*
X113869896Y-110012046D01*
X113995200Y-110031892D01*
X114120504Y-110012046D01*
X114233542Y-109954450D01*
X114323250Y-109864742D01*
X114380846Y-109751704D01*
X114400692Y-109626400D01*
X114380846Y-109501096D01*
X114323250Y-109388058D01*
X114233542Y-109298350D01*
X114120504Y-109240754D01*
X113995200Y-109220908D01*
X113869895Y-109240754D01*
X113869894Y-109240754D01*
X113756857Y-109298350D01*
X113667150Y-109388057D01*
X113609554Y-109501094D01*
X113609554Y-109501095D01*
X113589708Y-109626400D01*
X112375431Y-109626400D01*
X112534457Y-109219999D01*
X115164508Y-109219999D01*
X115184354Y-109345304D01*
X115184354Y-109345305D01*
X115206138Y-109388057D01*
X115241950Y-109458342D01*
X115331658Y-109548050D01*
X115444696Y-109605646D01*
X115570000Y-109625492D01*
X115695304Y-109605646D01*
X115808342Y-109548050D01*
X115898050Y-109458342D01*
X115955646Y-109345304D01*
X115975492Y-109220000D01*
X115955646Y-109094696D01*
X115898050Y-108981658D01*
X115808342Y-108891950D01*
X115695304Y-108834354D01*
X115570000Y-108814508D01*
X115569999Y-108814508D01*
X115444695Y-108834354D01*
X115444694Y-108834354D01*
X115331657Y-108891950D01*
X115241950Y-108981657D01*
X115184354Y-109094694D01*
X115184354Y-109094695D01*
X115164508Y-109219999D01*
X112534457Y-109219999D01*
X116114478Y-100071058D01*
X116114481Y-100071047D01*
X116123586Y-100022784D01*
X116123588Y-100022775D01*
X116123588Y-99977225D01*
X116122285Y-99970319D01*
X116114480Y-99928949D01*
X116114478Y-99928944D01*
X116114478Y-99928942D01*
X112651417Y-91078900D01*
X111632871Y-88475947D01*
X111631428Y-88472463D01*
X111631427Y-88472461D01*
X111600848Y-88427667D01*
X111566360Y-88394512D01*
X111522820Y-88366646D01*
X111032281Y-88174696D01*
X100071056Y-83885521D01*
X100071053Y-83885520D01*
X100071047Y-83885518D01*
X100071049Y-83885518D01*
X100022782Y-83876412D01*
X100022776Y-83876411D01*
X100022773Y-83876411D01*
X99977227Y-83876411D01*
X99977224Y-83876411D01*
X99977217Y-83876412D01*
X99928951Y-83885518D01*
X94048259Y-86186658D01*
X93725321Y-86313025D01*
X93409991Y-86436415D01*
X92029493Y-86976610D01*
X91714163Y-87100000D01*
X90144098Y-87714373D01*
X89828768Y-87837763D01*
X88475882Y-88367153D01*
X88474153Y-88367870D01*
X88472426Y-88368586D01*
X88472419Y-88368590D01*
X88427671Y-88399146D01*
X88427666Y-88399150D01*
X88394521Y-88433628D01*
X88366646Y-88477176D01*
X87896286Y-89679210D01*
X87877393Y-89727492D01*
X87594673Y-90449999D01*
X87477282Y-90749999D01*
X87362857Y-91042419D01*
X87343964Y-91090702D01*
X87222934Y-91400000D01*
X86987480Y-92001716D01*
X86968587Y-92049999D01*
X86537479Y-93151717D01*
X86518586Y-93200000D01*
X86256177Y-93870599D01*
X86237284Y-93918882D01*
X86097261Y-94276717D01*
X86078368Y-94325000D01*
X85784218Y-95076716D01*
X85765325Y-95124999D01*
X85559218Y-95651717D01*
X85540325Y-95700000D01*
X85305542Y-96300000D01*
X85055752Y-96938350D01*
X85055750Y-96938355D01*
X85047409Y-96972372D01*
X85043882Y-97004915D01*
X85044743Y-97039921D01*
X85044793Y-97040236D01*
X85044792Y-97040471D01*
X85044931Y-97041990D01*
X85044792Y-97042002D01*
X85044791Y-97059774D01*
X85041704Y-97079271D01*
X85038421Y-97099999D01*
X85034607Y-97124074D01*
X85028565Y-97142668D01*
X84999013Y-97200668D01*
X84987520Y-97216488D01*
X84949652Y-97254356D01*
X84932464Y-97275509D01*
X84918455Y-97296927D01*
X84915298Y-97303050D01*
X84905953Y-97321171D01*
X84879943Y-97387641D01*
X84825522Y-97526717D01*
X84806629Y-97574999D01*
X84610977Y-98074999D01*
X84434218Y-98526717D01*
X84415325Y-98574999D01*
X84288151Y-98900000D01*
X83885518Y-99928951D01*
X83876412Y-99977217D01*
X83876411Y-99977231D01*
X83876411Y-100022767D01*
X82124897Y-100022767D01*
X82116786Y-99622954D01*
X82116960Y-99618978D01*
X82121136Y-99580400D01*
X82117355Y-99559359D01*
X82116370Y-99548216D01*
X82116392Y-99532908D01*
X82116391Y-99532905D01*
X82105085Y-99490469D01*
X82104524Y-99487949D01*
X82100008Y-99462824D01*
X82095682Y-99438746D01*
X82089147Y-99425670D01*
X82084664Y-99413825D01*
X82082464Y-99405568D01*
X82082463Y-99405567D01*
X82082463Y-99405565D01*
X82057398Y-99362010D01*
X82056528Y-99360391D01*
X82031349Y-99310003D01*
X82031349Y-99310002D01*
X82026008Y-99304257D01*
X82017616Y-99292881D01*
X82016732Y-99291344D01*
X81976383Y-99250881D01*
X81933352Y-99204597D01*
X81933351Y-99204596D01*
X81929971Y-99202587D01*
X81926875Y-99200488D01*
X81923681Y-99198030D01*
X81923678Y-99198027D01*
X81869098Y-99166412D01*
X81840720Y-99149548D01*
X81840717Y-99149547D01*
X81840716Y-99149546D01*
X81840710Y-99149543D01*
X81840009Y-99149252D01*
X81836330Y-99147432D01*
X81809645Y-99131974D01*
X81795376Y-99128129D01*
X81779484Y-99123847D01*
X81775644Y-99122539D01*
X80172969Y-98457373D01*
X78925629Y-97939683D01*
X78891828Y-97905834D01*
X78891861Y-97857999D01*
X78925710Y-97824198D01*
X78939802Y-97820228D01*
X79000304Y-97810646D01*
X79113342Y-97753050D01*
X79203050Y-97663342D01*
X79260646Y-97550304D01*
X79280492Y-97425000D01*
X79260646Y-97299696D01*
X79222586Y-97225000D01*
X80619508Y-97225000D01*
X80639354Y-97350304D01*
X80639354Y-97350305D01*
X80658378Y-97387641D01*
X80696950Y-97463342D01*
X80786658Y-97553050D01*
X80899696Y-97610646D01*
X81025000Y-97630492D01*
X81150304Y-97610646D01*
X81263342Y-97553050D01*
X81353050Y-97463342D01*
X81410646Y-97350304D01*
X81411827Y-97342847D01*
X81436817Y-97302061D01*
X81483330Y-97290891D01*
X81510296Y-97302060D01*
X81511657Y-97303049D01*
X81511658Y-97303050D01*
X81624696Y-97360646D01*
X81750000Y-97380492D01*
X81875304Y-97360646D01*
X81988342Y-97303050D01*
X82078050Y-97213342D01*
X82135646Y-97100304D01*
X82155492Y-96975000D01*
X82135646Y-96849696D01*
X82078050Y-96736658D01*
X81988342Y-96646950D01*
X81875304Y-96589354D01*
X81750000Y-96569508D01*
X81749999Y-96569508D01*
X81624695Y-96589354D01*
X81624694Y-96589354D01*
X81511657Y-96646950D01*
X81421950Y-96736657D01*
X81364354Y-96849694D01*
X81364353Y-96849700D01*
X81363172Y-96857156D01*
X81338177Y-96897942D01*
X81291663Y-96909107D01*
X81264705Y-96897940D01*
X81263344Y-96896951D01*
X81150304Y-96839354D01*
X81025000Y-96819508D01*
X80899695Y-96839354D01*
X80899694Y-96839354D01*
X80786657Y-96896950D01*
X80696950Y-96986657D01*
X80639354Y-97099694D01*
X80639354Y-97099695D01*
X80619508Y-97225000D01*
X79222586Y-97225000D01*
X79203050Y-97186658D01*
X79113342Y-97096950D01*
X79067671Y-97073679D01*
X79036606Y-97037305D01*
X79040359Y-96989617D01*
X79076734Y-96958551D01*
X79096047Y-96955492D01*
X79099997Y-96955492D01*
X79099998Y-96955491D01*
X79100000Y-96955492D01*
X79225304Y-96935646D01*
X79338342Y-96878050D01*
X79428050Y-96788342D01*
X79485646Y-96675304D01*
X79505492Y-96550000D01*
X79485646Y-96424696D01*
X79428050Y-96311658D01*
X79428048Y-96311656D01*
X79426741Y-96309090D01*
X79422988Y-96261402D01*
X79454054Y-96225027D01*
X79472646Y-96218985D01*
X79525304Y-96210646D01*
X79638342Y-96153050D01*
X79728050Y-96063342D01*
X79785646Y-95950304D01*
X79805492Y-95825000D01*
X79785646Y-95699696D01*
X79728050Y-95586658D01*
X79638342Y-95496950D01*
X79525304Y-95439354D01*
X79400000Y-95419508D01*
X79274695Y-95439354D01*
X79274694Y-95439354D01*
X79161657Y-95496950D01*
X79071950Y-95586657D01*
X79014354Y-95699694D01*
X79014354Y-95699695D01*
X78996782Y-95810645D01*
X78994508Y-95825000D01*
X79010298Y-95924694D01*
X79014354Y-95950304D01*
X79014355Y-95950308D01*
X79073258Y-96065910D01*
X79077011Y-96113598D01*
X79045944Y-96149972D01*
X79027348Y-96156014D01*
X78974700Y-96164352D01*
X78974694Y-96164354D01*
X78861657Y-96221950D01*
X78771950Y-96311657D01*
X78714354Y-96424694D01*
X78714354Y-96424695D01*
X78694508Y-96550000D01*
X78714354Y-96675304D01*
X78714354Y-96675305D01*
X78755212Y-96755492D01*
X78771950Y-96788342D01*
X78861658Y-96878050D01*
X78900698Y-96897942D01*
X78907328Y-96901320D01*
X78938394Y-96937695D01*
X78934641Y-96985383D01*
X78898266Y-97016449D01*
X78878953Y-97019508D01*
X78875003Y-97019508D01*
X78875001Y-97019508D01*
X78875000Y-97019508D01*
X78781022Y-97034392D01*
X78749695Y-97039354D01*
X78749694Y-97039354D01*
X78636657Y-97096950D01*
X78546950Y-97186657D01*
X78489354Y-97299694D01*
X78489354Y-97299695D01*
X78469508Y-97425000D01*
X78489354Y-97550304D01*
X78489354Y-97550305D01*
X78546963Y-97663367D01*
X78550716Y-97711055D01*
X78519650Y-97747430D01*
X78471962Y-97751183D01*
X78467317Y-97749468D01*
X70582538Y-94477011D01*
X69148963Y-93882027D01*
X69115163Y-93848179D01*
X69115196Y-93800344D01*
X69149045Y-93766543D01*
X69163140Y-93762572D01*
X69175304Y-93760646D01*
X69288342Y-93703050D01*
X69378050Y-93613342D01*
X69435646Y-93500304D01*
X69455492Y-93375000D01*
X69452063Y-93353350D01*
X69463229Y-93306837D01*
X69504015Y-93281843D01*
X69550529Y-93293009D01*
X69557987Y-93299379D01*
X69561658Y-93303050D01*
X69674696Y-93360646D01*
X69800000Y-93380492D01*
X69925304Y-93360646D01*
X70038342Y-93303050D01*
X70038344Y-93303047D01*
X70040909Y-93301741D01*
X70088597Y-93297988D01*
X70124972Y-93329054D01*
X70131014Y-93347652D01*
X70139352Y-93400298D01*
X70139354Y-93400305D01*
X70190307Y-93500304D01*
X70196950Y-93513342D01*
X70286658Y-93603050D01*
X70399696Y-93660646D01*
X70525000Y-93680492D01*
X70650304Y-93660646D01*
X70763342Y-93603050D01*
X70772090Y-93594301D01*
X70816282Y-93575994D01*
X70860477Y-93594298D01*
X70878015Y-93628717D01*
X70889352Y-93700298D01*
X70889354Y-93700305D01*
X70939429Y-93798581D01*
X70946950Y-93813342D01*
X71036658Y-93903050D01*
X71149696Y-93960646D01*
X71275000Y-93980492D01*
X71400304Y-93960646D01*
X71512247Y-93903607D01*
X71559933Y-93899855D01*
X71596308Y-93930921D01*
X71602350Y-93949519D01*
X71614352Y-94025298D01*
X71614354Y-94025305D01*
X71649615Y-94094508D01*
X71671950Y-94138342D01*
X71761658Y-94228050D01*
X71874696Y-94285646D01*
X72000000Y-94305492D01*
X72125304Y-94285646D01*
X72238342Y-94228050D01*
X72247090Y-94219301D01*
X72291282Y-94200994D01*
X72335477Y-94219298D01*
X72353015Y-94253717D01*
X72364352Y-94325298D01*
X72364354Y-94325305D01*
X72399615Y-94394508D01*
X72421950Y-94438342D01*
X72511658Y-94528050D01*
X72624696Y-94585646D01*
X72750000Y-94605492D01*
X72875304Y-94585646D01*
X72988342Y-94528050D01*
X72997090Y-94519301D01*
X73041282Y-94500994D01*
X73085477Y-94519298D01*
X73103015Y-94553717D01*
X73114352Y-94625298D01*
X73114354Y-94625305D01*
X73170174Y-94734857D01*
X73171950Y-94738342D01*
X73261658Y-94828050D01*
X73374696Y-94885646D01*
X73500000Y-94905492D01*
X73625304Y-94885646D01*
X73738342Y-94828050D01*
X73738344Y-94828047D01*
X73740909Y-94826741D01*
X73788597Y-94822988D01*
X73824972Y-94854054D01*
X73831014Y-94872652D01*
X73839352Y-94925298D01*
X73839354Y-94925305D01*
X73889429Y-95023581D01*
X73896950Y-95038342D01*
X73986658Y-95128050D01*
X74099696Y-95185646D01*
X74225000Y-95205492D01*
X74350304Y-95185646D01*
X74462247Y-95128607D01*
X74509933Y-95124855D01*
X74546308Y-95155921D01*
X74552350Y-95174519D01*
X74564352Y-95250298D01*
X74564354Y-95250305D01*
X74621949Y-95363341D01*
X74621950Y-95363342D01*
X74711658Y-95453050D01*
X74824696Y-95510646D01*
X74950000Y-95530492D01*
X75075304Y-95510646D01*
X75188342Y-95453050D01*
X75197090Y-95444301D01*
X75241282Y-95425994D01*
X75285477Y-95444298D01*
X75303015Y-95478717D01*
X75314352Y-95550298D01*
X75314354Y-95550305D01*
X75364429Y-95648581D01*
X75371950Y-95663342D01*
X75461658Y-95753050D01*
X75574696Y-95810646D01*
X75700000Y-95830492D01*
X75825304Y-95810646D01*
X75937247Y-95753607D01*
X75984933Y-95749855D01*
X76021308Y-95780921D01*
X76027350Y-95799519D01*
X76039352Y-95875298D01*
X76039354Y-95875305D01*
X76091348Y-95977347D01*
X76096950Y-95988342D01*
X76186658Y-96078050D01*
X76299696Y-96135646D01*
X76425000Y-96155492D01*
X76550304Y-96135646D01*
X76663342Y-96078050D01*
X76672090Y-96069301D01*
X76716282Y-96050994D01*
X76760477Y-96069298D01*
X76778015Y-96103717D01*
X76789352Y-96175298D01*
X76789354Y-96175305D01*
X76814689Y-96225027D01*
X76846950Y-96288342D01*
X76936658Y-96378050D01*
X77049696Y-96435646D01*
X77175000Y-96455492D01*
X77300304Y-96435646D01*
X77413342Y-96378050D01*
X77413344Y-96378047D01*
X77415909Y-96376741D01*
X77463597Y-96372988D01*
X77499972Y-96404054D01*
X77506014Y-96422652D01*
X77514352Y-96475298D01*
X77514354Y-96475305D01*
X77566424Y-96577496D01*
X77571950Y-96588342D01*
X77661658Y-96678050D01*
X77774696Y-96735646D01*
X77900000Y-96755492D01*
X78025304Y-96735646D01*
X78138342Y-96678050D01*
X78228050Y-96588342D01*
X78285646Y-96475304D01*
X78305492Y-96350000D01*
X78285646Y-96224696D01*
X78228050Y-96111658D01*
X78138342Y-96021950D01*
X78025304Y-95964354D01*
X77900000Y-95944508D01*
X77774695Y-95964354D01*
X77774691Y-95964355D01*
X77659089Y-96023258D01*
X77611401Y-96027011D01*
X77575027Y-95995944D01*
X77568985Y-95977353D01*
X77560646Y-95924696D01*
X77503050Y-95811658D01*
X77413342Y-95721950D01*
X77300304Y-95664354D01*
X77175000Y-95644508D01*
X77049695Y-95664354D01*
X77049694Y-95664354D01*
X76936656Y-95721950D01*
X76927906Y-95730701D01*
X76883711Y-95749005D01*
X76839518Y-95730697D01*
X76821984Y-95696284D01*
X76810646Y-95624696D01*
X76753050Y-95511658D01*
X76663342Y-95421950D01*
X76550304Y-95364354D01*
X76425000Y-95344508D01*
X76424999Y-95344508D01*
X76299695Y-95364354D01*
X76299691Y-95364355D01*
X76187753Y-95421391D01*
X76140065Y-95425144D01*
X76103691Y-95394077D01*
X76097649Y-95375485D01*
X76085646Y-95299696D01*
X76028050Y-95186658D01*
X75938342Y-95096950D01*
X75825304Y-95039354D01*
X75700000Y-95019508D01*
X75574695Y-95039354D01*
X75574694Y-95039354D01*
X75461656Y-95096950D01*
X75452906Y-95105701D01*
X75408711Y-95124005D01*
X75364518Y-95105697D01*
X75346984Y-95071284D01*
X75335646Y-94999696D01*
X75278050Y-94886658D01*
X75188342Y-94796950D01*
X75075304Y-94739354D01*
X74950000Y-94719508D01*
X74949999Y-94719508D01*
X74824695Y-94739354D01*
X74824691Y-94739355D01*
X74712753Y-94796391D01*
X74665065Y-94800144D01*
X74628691Y-94769077D01*
X74622649Y-94750485D01*
X74610646Y-94674696D01*
X74553050Y-94561658D01*
X74463342Y-94471950D01*
X74350304Y-94414354D01*
X74225000Y-94394508D01*
X74224999Y-94394508D01*
X74099695Y-94414354D01*
X74099691Y-94414355D01*
X73984089Y-94473258D01*
X73936401Y-94477011D01*
X73900027Y-94445944D01*
X73893985Y-94427353D01*
X73885646Y-94374696D01*
X73828050Y-94261658D01*
X73738342Y-94171950D01*
X73625304Y-94114354D01*
X73500000Y-94094508D01*
X73374695Y-94114354D01*
X73374694Y-94114354D01*
X73261656Y-94171950D01*
X73252906Y-94180701D01*
X73208711Y-94199005D01*
X73164518Y-94180697D01*
X73146984Y-94146284D01*
X73135646Y-94074696D01*
X73078050Y-93961658D01*
X72988342Y-93871950D01*
X72875304Y-93814354D01*
X72750000Y-93794508D01*
X72624695Y-93814354D01*
X72624694Y-93814354D01*
X72511656Y-93871950D01*
X72502906Y-93880701D01*
X72458711Y-93899005D01*
X72414518Y-93880697D01*
X72396984Y-93846284D01*
X72385646Y-93774696D01*
X72328050Y-93661658D01*
X72266392Y-93600000D01*
X82194508Y-93600000D01*
X82214354Y-93725304D01*
X82214354Y-93725305D01*
X82252589Y-93800344D01*
X82271950Y-93838342D01*
X82361658Y-93928050D01*
X82474696Y-93985646D01*
X82600000Y-94005492D01*
X82725304Y-93985646D01*
X82838342Y-93928050D01*
X82928050Y-93838342D01*
X82985646Y-93725304D01*
X83005492Y-93600000D01*
X82985646Y-93474696D01*
X82928050Y-93361658D01*
X82838342Y-93271950D01*
X82725304Y-93214354D01*
X82600000Y-93194508D01*
X82474695Y-93214354D01*
X82474694Y-93214354D01*
X82361657Y-93271950D01*
X82271950Y-93361657D01*
X82214354Y-93474694D01*
X82214354Y-93474695D01*
X82194508Y-93600000D01*
X72266392Y-93600000D01*
X72238342Y-93571950D01*
X72125304Y-93514354D01*
X72000000Y-93494508D01*
X71874695Y-93514354D01*
X71874691Y-93514355D01*
X71762753Y-93571391D01*
X71715065Y-93575144D01*
X71678691Y-93544077D01*
X71672649Y-93525485D01*
X71660646Y-93449696D01*
X71603050Y-93336658D01*
X71513342Y-93246950D01*
X71400304Y-93189354D01*
X71275000Y-93169508D01*
X71149695Y-93189354D01*
X71149694Y-93189354D01*
X71036656Y-93246950D01*
X71027906Y-93255701D01*
X70983711Y-93274005D01*
X70939518Y-93255697D01*
X70921984Y-93221284D01*
X70910646Y-93149696D01*
X70885325Y-93100000D01*
X75594508Y-93100000D01*
X75614354Y-93225304D01*
X75614354Y-93225305D01*
X75671091Y-93336657D01*
X75671950Y-93338342D01*
X75761658Y-93428050D01*
X75874696Y-93485646D01*
X76000000Y-93505492D01*
X76125304Y-93485646D01*
X76238342Y-93428050D01*
X76328050Y-93338342D01*
X76385646Y-93225304D01*
X76405492Y-93100000D01*
X76385646Y-92974696D01*
X76328050Y-92861658D01*
X76238342Y-92771950D01*
X76125304Y-92714354D01*
X76000000Y-92694508D01*
X75874695Y-92714354D01*
X75874694Y-92714354D01*
X75761657Y-92771950D01*
X75671950Y-92861657D01*
X75614354Y-92974694D01*
X75614354Y-92974695D01*
X75594508Y-93100000D01*
X70885325Y-93100000D01*
X70853050Y-93036658D01*
X70763342Y-92946950D01*
X70650304Y-92889354D01*
X70525000Y-92869508D01*
X70524999Y-92869508D01*
X70399695Y-92889354D01*
X70399691Y-92889355D01*
X70284089Y-92948258D01*
X70236401Y-92952011D01*
X70200027Y-92920944D01*
X70193985Y-92902353D01*
X70185646Y-92849696D01*
X70128050Y-92736658D01*
X70038342Y-92646950D01*
X69925304Y-92589354D01*
X69800000Y-92569508D01*
X69674695Y-92589354D01*
X69674694Y-92589354D01*
X69561657Y-92646950D01*
X69471950Y-92736657D01*
X69414354Y-92849694D01*
X69414354Y-92849695D01*
X69394508Y-92975000D01*
X69397937Y-92996650D01*
X69386769Y-93043163D01*
X69345982Y-93068157D01*
X69299469Y-93056989D01*
X69292012Y-93050620D01*
X69288342Y-93046950D01*
X69175304Y-92989354D01*
X69050000Y-92969508D01*
X68924695Y-92989354D01*
X68924694Y-92989354D01*
X68811657Y-93046950D01*
X68721950Y-93136657D01*
X68664354Y-93249694D01*
X68664354Y-93249695D01*
X68644508Y-93375000D01*
X68664354Y-93500304D01*
X68664355Y-93500308D01*
X68704053Y-93578218D01*
X68707806Y-93625906D01*
X68676739Y-93662280D01*
X68629051Y-93666033D01*
X68624407Y-93664318D01*
X66826106Y-92917961D01*
X66792305Y-92884112D01*
X66788994Y-92846946D01*
X66897156Y-92350000D01*
X73744508Y-92350000D01*
X73764354Y-92475304D01*
X73764354Y-92475305D01*
X73821949Y-92588341D01*
X73821950Y-92588342D01*
X73911658Y-92678050D01*
X74024696Y-92735646D01*
X74150000Y-92755492D01*
X74275304Y-92735646D01*
X74388342Y-92678050D01*
X74478050Y-92588342D01*
X74497586Y-92550000D01*
X76869508Y-92550000D01*
X76889354Y-92675304D01*
X76889354Y-92675305D01*
X76930212Y-92755492D01*
X76946950Y-92788342D01*
X77036658Y-92878050D01*
X77149696Y-92935646D01*
X77275000Y-92955492D01*
X77400304Y-92935646D01*
X77513342Y-92878050D01*
X77603050Y-92788342D01*
X77660646Y-92675304D01*
X77680492Y-92550000D01*
X77660646Y-92424696D01*
X77603050Y-92311658D01*
X77513342Y-92221950D01*
X77400304Y-92164354D01*
X77275000Y-92144508D01*
X77274999Y-92144508D01*
X77149695Y-92164354D01*
X77149694Y-92164354D01*
X77036657Y-92221950D01*
X76946950Y-92311657D01*
X76889354Y-92424694D01*
X76889354Y-92424695D01*
X76869508Y-92550000D01*
X74497586Y-92550000D01*
X74535646Y-92475304D01*
X74555492Y-92350000D01*
X74535646Y-92224696D01*
X74478050Y-92111658D01*
X74388342Y-92021950D01*
X74275304Y-91964354D01*
X74150000Y-91944508D01*
X74024695Y-91964354D01*
X74024694Y-91964354D01*
X73911657Y-92021950D01*
X73821950Y-92111657D01*
X73764354Y-92224694D01*
X73764354Y-92224695D01*
X73744508Y-92350000D01*
X66897156Y-92350000D01*
X66925102Y-92221602D01*
X67031308Y-91800000D01*
X75069508Y-91800000D01*
X75089354Y-91925304D01*
X75089354Y-91925305D01*
X75099139Y-91944508D01*
X75146950Y-92038342D01*
X75236658Y-92128050D01*
X75349696Y-92185646D01*
X75475000Y-92205492D01*
X75600304Y-92185646D01*
X75713342Y-92128050D01*
X75803050Y-92038342D01*
X75860646Y-91925304D01*
X75880492Y-91800000D01*
X75860646Y-91674696D01*
X75803050Y-91561658D01*
X75713342Y-91471950D01*
X75600304Y-91414354D01*
X75475000Y-91394508D01*
X75474999Y-91394508D01*
X75349695Y-91414354D01*
X75349694Y-91414354D01*
X75236657Y-91471950D01*
X75146950Y-91561657D01*
X75089354Y-91674694D01*
X75089354Y-91674695D01*
X75069508Y-91800000D01*
X67031308Y-91800000D01*
X67194322Y-91152888D01*
X67223823Y-91050000D01*
X73219508Y-91050000D01*
X73239354Y-91175304D01*
X73239354Y-91175305D01*
X73272579Y-91240511D01*
X73296950Y-91288342D01*
X73386658Y-91378050D01*
X73499696Y-91435646D01*
X73625000Y-91455492D01*
X73750304Y-91435646D01*
X73863342Y-91378050D01*
X73953050Y-91288342D01*
X73972586Y-91250000D01*
X76344508Y-91250000D01*
X76364354Y-91375304D01*
X76364354Y-91375305D01*
X76414679Y-91474072D01*
X76421950Y-91488342D01*
X76511658Y-91578050D01*
X76624696Y-91635646D01*
X76750000Y-91655492D01*
X76875304Y-91635646D01*
X76988342Y-91578050D01*
X77078050Y-91488342D01*
X77135646Y-91375304D01*
X77155492Y-91250000D01*
X77135646Y-91124696D01*
X77078050Y-91011658D01*
X76988342Y-90921950D01*
X76875304Y-90864354D01*
X76750000Y-90844508D01*
X76624695Y-90864354D01*
X76624694Y-90864354D01*
X76511657Y-90921950D01*
X76421950Y-91011657D01*
X76364354Y-91124694D01*
X76364354Y-91124695D01*
X76344508Y-91250000D01*
X73972586Y-91250000D01*
X74010646Y-91175304D01*
X74030492Y-91050000D01*
X74010646Y-90924696D01*
X73953050Y-90811658D01*
X73863342Y-90721950D01*
X73750304Y-90664354D01*
X73625000Y-90644508D01*
X73624999Y-90644508D01*
X73499695Y-90664354D01*
X73499694Y-90664354D01*
X73386657Y-90721950D01*
X73296950Y-90811657D01*
X73239354Y-90924694D01*
X73239354Y-90924695D01*
X73219508Y-91050000D01*
X67223823Y-91050000D01*
X67381526Y-90500000D01*
X74519508Y-90500000D01*
X74523951Y-90528050D01*
X74539354Y-90625304D01*
X74539354Y-90625305D01*
X74549139Y-90644508D01*
X74596950Y-90738342D01*
X74686658Y-90828050D01*
X74799696Y-90885646D01*
X74925000Y-90905492D01*
X75050304Y-90885646D01*
X75163342Y-90828050D01*
X75253050Y-90738342D01*
X75259848Y-90725000D01*
X77644508Y-90725000D01*
X77664354Y-90850304D01*
X77664354Y-90850305D01*
X77702258Y-90924694D01*
X77721950Y-90963342D01*
X77811658Y-91053050D01*
X77924696Y-91110646D01*
X78050000Y-91130492D01*
X78175304Y-91110646D01*
X78288342Y-91053050D01*
X78378050Y-90963342D01*
X78435646Y-90850304D01*
X78455492Y-90725000D01*
X78435646Y-90599696D01*
X78378050Y-90486658D01*
X78288342Y-90396950D01*
X78175304Y-90339354D01*
X78050000Y-90319508D01*
X77924695Y-90339354D01*
X77924694Y-90339354D01*
X77811657Y-90396950D01*
X77721950Y-90486657D01*
X77664354Y-90599694D01*
X77664354Y-90599695D01*
X77644508Y-90725000D01*
X75259848Y-90725000D01*
X75310646Y-90625304D01*
X75330492Y-90500000D01*
X75310646Y-90374696D01*
X75253050Y-90261658D01*
X75163342Y-90171950D01*
X75050304Y-90114354D01*
X74925000Y-90094508D01*
X74799695Y-90114354D01*
X74799694Y-90114354D01*
X74686657Y-90171950D01*
X74596950Y-90261657D01*
X74539354Y-90374694D01*
X74539354Y-90374695D01*
X74529274Y-90438342D01*
X74519508Y-90500000D01*
X67381526Y-90500000D01*
X67498090Y-90093477D01*
X67536265Y-89974999D01*
X75819508Y-89974999D01*
X75839354Y-90100304D01*
X75839354Y-90100305D01*
X75884212Y-90188342D01*
X75896950Y-90213342D01*
X75986658Y-90303050D01*
X76099696Y-90360646D01*
X76225000Y-90380492D01*
X76350304Y-90360646D01*
X76463342Y-90303050D01*
X76553050Y-90213342D01*
X76610646Y-90100304D01*
X76630492Y-89975000D01*
X76626532Y-89950000D01*
X79244508Y-89950000D01*
X79264354Y-90075304D01*
X79264354Y-90075305D01*
X79284251Y-90114354D01*
X79321950Y-90188342D01*
X79411658Y-90278050D01*
X79524696Y-90335646D01*
X79650000Y-90355492D01*
X79775304Y-90335646D01*
X79888342Y-90278050D01*
X79966392Y-90200000D01*
X80794508Y-90200000D01*
X80814354Y-90325304D01*
X80814354Y-90325305D01*
X80871949Y-90438342D01*
X80871950Y-90438342D01*
X80961658Y-90528050D01*
X81074696Y-90585646D01*
X81200000Y-90605492D01*
X81325304Y-90585646D01*
X81438342Y-90528050D01*
X81528050Y-90438342D01*
X81585646Y-90325304D01*
X81605492Y-90200000D01*
X81585646Y-90074696D01*
X81528050Y-89961658D01*
X81438342Y-89871950D01*
X81325304Y-89814354D01*
X81200000Y-89794508D01*
X81074695Y-89814354D01*
X81074694Y-89814354D01*
X80961657Y-89871950D01*
X80871950Y-89961657D01*
X80814354Y-90074694D01*
X80814354Y-90074695D01*
X80794508Y-90200000D01*
X79966392Y-90200000D01*
X79978050Y-90188342D01*
X80035646Y-90075304D01*
X80055492Y-89950000D01*
X80035646Y-89824696D01*
X79978050Y-89711658D01*
X79888342Y-89621950D01*
X79775304Y-89564354D01*
X79650000Y-89544508D01*
X79649999Y-89544508D01*
X79524695Y-89564354D01*
X79524694Y-89564354D01*
X79411657Y-89621950D01*
X79321950Y-89711657D01*
X79264354Y-89824694D01*
X79264354Y-89824695D01*
X79244508Y-89950000D01*
X76626532Y-89950000D01*
X76610646Y-89849696D01*
X76553050Y-89736658D01*
X76463342Y-89646950D01*
X76350304Y-89589354D01*
X76225000Y-89569508D01*
X76099695Y-89589354D01*
X76099694Y-89589354D01*
X75986657Y-89646950D01*
X75896950Y-89736657D01*
X75839354Y-89849694D01*
X75839354Y-89849695D01*
X75819508Y-89974999D01*
X67536265Y-89974999D01*
X67785979Y-89200000D01*
X73969508Y-89200000D01*
X73989354Y-89325304D01*
X73989354Y-89325305D01*
X74046949Y-89438342D01*
X74046950Y-89438342D01*
X74136658Y-89528050D01*
X74249696Y-89585646D01*
X74375000Y-89605492D01*
X74500304Y-89585646D01*
X74613342Y-89528050D01*
X74691392Y-89450000D01*
X77094508Y-89450000D01*
X77114354Y-89575304D01*
X77114354Y-89575305D01*
X77167297Y-89679210D01*
X77171950Y-89688342D01*
X77261658Y-89778050D01*
X77374696Y-89835646D01*
X77500000Y-89855492D01*
X77625304Y-89835646D01*
X77738342Y-89778050D01*
X77828050Y-89688342D01*
X77885646Y-89575304D01*
X77905492Y-89450000D01*
X77885646Y-89324696D01*
X77828050Y-89211658D01*
X77738342Y-89121950D01*
X77625304Y-89064354D01*
X77500000Y-89044508D01*
X77374695Y-89064354D01*
X77374694Y-89064354D01*
X77261657Y-89121950D01*
X77171950Y-89211657D01*
X77114354Y-89324694D01*
X77114354Y-89324695D01*
X77094508Y-89450000D01*
X74691392Y-89450000D01*
X74703050Y-89438342D01*
X74760646Y-89325304D01*
X74780492Y-89200000D01*
X74760646Y-89074696D01*
X74703050Y-88961658D01*
X74613342Y-88871950D01*
X74500304Y-88814354D01*
X74375000Y-88794508D01*
X74249695Y-88814354D01*
X74249694Y-88814354D01*
X74136657Y-88871950D01*
X74046950Y-88961657D01*
X73989354Y-89074694D01*
X73989354Y-89074695D01*
X73969508Y-89200000D01*
X67785979Y-89200000D01*
X67836088Y-89044485D01*
X68102940Y-88300000D01*
X68794508Y-88300000D01*
X68814354Y-88425304D01*
X68814354Y-88425305D01*
X68849615Y-88494508D01*
X68871950Y-88538342D01*
X68961658Y-88628050D01*
X69074696Y-88685646D01*
X69200000Y-88705492D01*
X69325304Y-88685646D01*
X69346198Y-88675000D01*
X75269508Y-88675000D01*
X75289354Y-88800304D01*
X75289354Y-88800305D01*
X75340152Y-88900000D01*
X75346950Y-88913342D01*
X75436658Y-89003050D01*
X75549696Y-89060646D01*
X75675000Y-89080492D01*
X75800304Y-89060646D01*
X75913342Y-89003050D01*
X76003050Y-88913342D01*
X76009848Y-88900000D01*
X83494508Y-88900000D01*
X83514354Y-89025304D01*
X83514354Y-89025305D01*
X83542473Y-89080491D01*
X83571950Y-89138342D01*
X83661658Y-89228050D01*
X83774696Y-89285646D01*
X83900000Y-89305492D01*
X84025304Y-89285646D01*
X84138342Y-89228050D01*
X84228050Y-89138342D01*
X84285646Y-89025304D01*
X84305492Y-88900000D01*
X84285646Y-88774696D01*
X84228050Y-88661658D01*
X84138342Y-88571950D01*
X84025304Y-88514354D01*
X83900000Y-88494508D01*
X83774695Y-88514354D01*
X83774694Y-88514354D01*
X83661657Y-88571950D01*
X83571950Y-88661657D01*
X83514354Y-88774694D01*
X83514354Y-88774695D01*
X83494508Y-88900000D01*
X76009848Y-88900000D01*
X76060646Y-88800304D01*
X76080492Y-88675000D01*
X76060646Y-88549696D01*
X76003050Y-88436658D01*
X75913342Y-88346950D01*
X75800304Y-88289354D01*
X75675000Y-88269508D01*
X75549695Y-88289354D01*
X75549694Y-88289354D01*
X75436657Y-88346950D01*
X75346950Y-88436657D01*
X75289354Y-88549694D01*
X75289354Y-88549695D01*
X75269508Y-88675000D01*
X69346198Y-88675000D01*
X69438342Y-88628050D01*
X69528050Y-88538342D01*
X69585646Y-88425304D01*
X69605492Y-88300000D01*
X69585646Y-88174696D01*
X69528050Y-88061658D01*
X69438342Y-87971950D01*
X69325304Y-87914354D01*
X69200000Y-87894508D01*
X69074695Y-87914354D01*
X69074694Y-87914354D01*
X68961657Y-87971950D01*
X68871950Y-88061657D01*
X68814354Y-88174694D01*
X68814354Y-88174695D01*
X68794508Y-88300000D01*
X68102940Y-88300000D01*
X68207957Y-88007017D01*
X68613308Y-86982166D01*
X68635926Y-86930000D01*
X72944508Y-86930000D01*
X72964354Y-87055304D01*
X72964354Y-87055305D01*
X72987128Y-87100000D01*
X73021950Y-87168342D01*
X73111658Y-87258050D01*
X73224696Y-87315646D01*
X73350000Y-87335492D01*
X73475304Y-87315646D01*
X73588342Y-87258050D01*
X73678050Y-87168342D01*
X73735646Y-87055304D01*
X73755492Y-86930000D01*
X73750741Y-86900000D01*
X80294508Y-86900000D01*
X80314354Y-87025304D01*
X80314354Y-87025305D01*
X80329640Y-87055305D01*
X80371950Y-87138342D01*
X80461658Y-87228050D01*
X80574696Y-87285646D01*
X80700000Y-87305492D01*
X80825304Y-87285646D01*
X80938342Y-87228050D01*
X81028050Y-87138342D01*
X81085646Y-87025304D01*
X81105492Y-86900000D01*
X81085646Y-86774696D01*
X81028050Y-86661658D01*
X80938342Y-86571950D01*
X80825304Y-86514354D01*
X80700000Y-86494508D01*
X80574695Y-86514354D01*
X80574694Y-86514354D01*
X80461657Y-86571950D01*
X80371950Y-86661657D01*
X80314354Y-86774694D01*
X80314354Y-86774695D01*
X80294508Y-86900000D01*
X73750741Y-86900000D01*
X73735646Y-86804696D01*
X73678050Y-86691658D01*
X73625586Y-86639194D01*
X73607280Y-86595000D01*
X73625586Y-86550806D01*
X73638050Y-86538342D01*
X73678050Y-86498342D01*
X73735646Y-86385304D01*
X73749157Y-86300000D01*
X85744508Y-86300000D01*
X85764354Y-86425304D01*
X85764354Y-86425305D01*
X85770015Y-86436415D01*
X85821950Y-86538342D01*
X85911658Y-86628050D01*
X86024696Y-86685646D01*
X86150000Y-86705492D01*
X86275304Y-86685646D01*
X86388342Y-86628050D01*
X86478050Y-86538342D01*
X86535646Y-86425304D01*
X86535694Y-86425000D01*
X86869508Y-86425000D01*
X86889354Y-86550304D01*
X86889354Y-86550305D01*
X86912128Y-86595000D01*
X86946950Y-86663342D01*
X87036658Y-86753050D01*
X87149696Y-86810646D01*
X87275000Y-86830492D01*
X87400304Y-86810646D01*
X87513342Y-86753050D01*
X87603050Y-86663342D01*
X87660646Y-86550304D01*
X87680492Y-86425000D01*
X87660646Y-86299696D01*
X87603050Y-86186658D01*
X87513342Y-86096950D01*
X87400304Y-86039354D01*
X87275000Y-86019508D01*
X87149695Y-86039354D01*
X87149694Y-86039354D01*
X87036657Y-86096950D01*
X86946950Y-86186657D01*
X86889354Y-86299694D01*
X86889354Y-86299695D01*
X86869508Y-86425000D01*
X86535694Y-86425000D01*
X86555492Y-86300000D01*
X86535646Y-86174696D01*
X86478050Y-86061658D01*
X86388342Y-85971950D01*
X86275304Y-85914354D01*
X86150000Y-85894508D01*
X86024695Y-85914354D01*
X86024694Y-85914354D01*
X85911657Y-85971950D01*
X85821950Y-86061657D01*
X85764354Y-86174694D01*
X85764354Y-86174695D01*
X85744508Y-86300000D01*
X73749157Y-86300000D01*
X73755492Y-86260000D01*
X73735646Y-86134696D01*
X73678050Y-86021658D01*
X73588342Y-85931950D01*
X73475304Y-85874354D01*
X73350000Y-85854508D01*
X73224695Y-85874354D01*
X73224694Y-85874354D01*
X73111657Y-85931950D01*
X73021950Y-86021657D01*
X72964354Y-86134694D01*
X72964354Y-86134695D01*
X72944508Y-86260000D01*
X72964354Y-86385304D01*
X72964354Y-86385305D01*
X73021950Y-86498342D01*
X73074414Y-86550806D01*
X73092720Y-86595000D01*
X73074414Y-86639194D01*
X73021950Y-86691657D01*
X72964354Y-86804694D01*
X72964354Y-86804695D01*
X72944508Y-86930000D01*
X68635926Y-86930000D01*
X69051712Y-85971014D01*
X69108916Y-85850000D01*
X69794508Y-85850000D01*
X69814354Y-85975304D01*
X69814354Y-85975305D01*
X69846989Y-86039354D01*
X69871950Y-86088342D01*
X69961658Y-86178050D01*
X70074696Y-86235646D01*
X70200000Y-86255492D01*
X70325304Y-86235646D01*
X70438342Y-86178050D01*
X70528050Y-86088342D01*
X70585646Y-85975304D01*
X70605492Y-85850000D01*
X70585646Y-85724696D01*
X70528050Y-85611658D01*
X70438342Y-85521950D01*
X70325304Y-85464354D01*
X70200000Y-85444508D01*
X70074695Y-85464354D01*
X70074694Y-85464354D01*
X69961657Y-85521950D01*
X69871950Y-85611657D01*
X69814354Y-85724694D01*
X69814354Y-85724695D01*
X69794508Y-85850000D01*
X69108916Y-85850000D01*
X69522707Y-84974625D01*
X69912728Y-84214432D01*
X82589597Y-84214432D01*
X82630526Y-84459711D01*
X82711269Y-84694907D01*
X82774018Y-84810857D01*
X82829622Y-84913605D01*
X82829623Y-84913607D01*
X82982354Y-85109835D01*
X82982357Y-85109839D01*
X83165308Y-85278258D01*
X83165310Y-85278259D01*
X83165312Y-85278261D01*
X83373490Y-85414270D01*
X83601216Y-85514160D01*
X83842276Y-85575205D01*
X84028030Y-85590597D01*
X84028032Y-85590597D01*
X84152162Y-85590597D01*
X84152164Y-85590597D01*
X84337918Y-85575205D01*
X84578978Y-85514160D01*
X84806704Y-85414270D01*
X85014882Y-85278261D01*
X85197835Y-85109841D01*
X85350571Y-84913606D01*
X85468925Y-84694907D01*
X85549668Y-84459711D01*
X85590597Y-84214432D01*
X85590597Y-83965762D01*
X85549668Y-83720483D01*
X85468925Y-83485287D01*
X85350571Y-83266588D01*
X85350570Y-83266586D01*
X85197839Y-83070358D01*
X85197836Y-83070354D01*
X85014885Y-82901935D01*
X85014880Y-82901932D01*
X84806709Y-82765927D01*
X84806706Y-82765925D01*
X84578980Y-82666035D01*
X84578978Y-82666034D01*
X84337918Y-82604989D01*
X84152164Y-82589597D01*
X84028030Y-82589597D01*
X83842276Y-82604989D01*
X83601216Y-82666034D01*
X83601214Y-82666034D01*
X83601213Y-82666035D01*
X83373487Y-82765925D01*
X83373484Y-82765927D01*
X83165313Y-82901932D01*
X83165308Y-82901935D01*
X82982357Y-83070354D01*
X82982354Y-83070358D01*
X82829623Y-83266586D01*
X82829622Y-83266588D01*
X82711270Y-83485286D01*
X82711269Y-83485287D01*
X82645094Y-83678049D01*
X82630526Y-83720483D01*
X82589597Y-83965762D01*
X82589597Y-84214432D01*
X69912728Y-84214432D01*
X70025797Y-83994049D01*
X70383100Y-83350000D01*
X71144508Y-83350000D01*
X71164354Y-83475304D01*
X71164354Y-83475305D01*
X71187989Y-83521691D01*
X71221950Y-83588342D01*
X71311658Y-83678050D01*
X71424696Y-83735646D01*
X71550000Y-83755492D01*
X71675304Y-83735646D01*
X71788342Y-83678050D01*
X71878050Y-83588342D01*
X71935646Y-83475304D01*
X71955492Y-83350000D01*
X71935646Y-83224696D01*
X71878050Y-83111658D01*
X71788342Y-83021950D01*
X71675304Y-82964354D01*
X71550000Y-82944508D01*
X71424695Y-82964354D01*
X71424694Y-82964354D01*
X71311657Y-83021950D01*
X71221950Y-83111657D01*
X71164354Y-83224694D01*
X71164354Y-83224695D01*
X71144508Y-83350000D01*
X70383100Y-83350000D01*
X70560451Y-83030321D01*
X71126107Y-82084456D01*
X71410193Y-81642640D01*
X71969781Y-81642640D01*
X71990028Y-81822340D01*
X71990029Y-81822344D01*
X72049756Y-81993037D01*
X72145967Y-82146156D01*
X72273843Y-82274032D01*
X72403486Y-82355492D01*
X72426964Y-82370244D01*
X72597656Y-82429971D01*
X72777359Y-82450219D01*
X72957062Y-82429971D01*
X73127754Y-82370244D01*
X73280876Y-82274031D01*
X73408749Y-82146158D01*
X73504962Y-81993036D01*
X73520021Y-81950000D01*
X77194508Y-81950000D01*
X77214354Y-82075304D01*
X77214354Y-82075305D01*
X77219017Y-82084456D01*
X77271950Y-82188342D01*
X77361658Y-82278050D01*
X77474696Y-82335646D01*
X77600000Y-82355492D01*
X77725304Y-82335646D01*
X77838342Y-82278050D01*
X77928050Y-82188342D01*
X77985646Y-82075304D01*
X78005492Y-81950000D01*
X77985646Y-81824696D01*
X77928050Y-81711658D01*
X77838342Y-81621950D01*
X77725304Y-81564354D01*
X77600000Y-81544508D01*
X77474695Y-81564354D01*
X77474694Y-81564354D01*
X77361657Y-81621950D01*
X77271950Y-81711657D01*
X77214354Y-81824694D01*
X77214354Y-81824695D01*
X77194508Y-81950000D01*
X73520021Y-81950000D01*
X73564689Y-81822344D01*
X73584937Y-81642641D01*
X73564689Y-81462938D01*
X73504962Y-81292246D01*
X73500815Y-81285646D01*
X73408750Y-81139125D01*
X73280874Y-81011249D01*
X73127755Y-80915038D01*
X72957062Y-80855311D01*
X72957058Y-80855310D01*
X72777359Y-80835063D01*
X72597659Y-80855310D01*
X72597655Y-80855311D01*
X72426962Y-80915038D01*
X72273843Y-81011249D01*
X72145967Y-81139125D01*
X72049756Y-81292244D01*
X71990029Y-81462937D01*
X71990028Y-81462941D01*
X71969781Y-81642640D01*
X71410193Y-81642640D01*
X71722168Y-81157451D01*
X72348005Y-80250282D01*
X72364154Y-80228427D01*
X73383995Y-80228427D01*
X73404242Y-80408126D01*
X73404243Y-80408130D01*
X73463970Y-80578823D01*
X73560181Y-80731942D01*
X73688057Y-80859818D01*
X73796648Y-80928050D01*
X73841178Y-80956030D01*
X74011870Y-81015757D01*
X74191573Y-81036005D01*
X74371276Y-81015757D01*
X74541968Y-80956030D01*
X74631139Y-80900000D01*
X78132757Y-80900000D01*
X78152603Y-81025304D01*
X78152603Y-81025305D01*
X78158055Y-81036005D01*
X78210199Y-81138342D01*
X78299907Y-81228050D01*
X78412945Y-81285646D01*
X78538249Y-81305492D01*
X78663553Y-81285646D01*
X78776591Y-81228050D01*
X78854641Y-81150000D01*
X93694508Y-81150000D01*
X93714354Y-81275304D01*
X93714354Y-81275305D01*
X93755212Y-81355492D01*
X93771950Y-81388342D01*
X93861658Y-81478050D01*
X93974696Y-81535646D01*
X94100000Y-81555492D01*
X94225304Y-81535646D01*
X94338342Y-81478050D01*
X94428050Y-81388342D01*
X94485646Y-81275304D01*
X94505492Y-81150000D01*
X94485646Y-81024696D01*
X94447586Y-80950000D01*
X94694508Y-80950000D01*
X94714354Y-81075304D01*
X94714354Y-81075305D01*
X94752414Y-81150000D01*
X94771950Y-81188342D01*
X94861658Y-81278050D01*
X94974696Y-81335646D01*
X95100000Y-81355492D01*
X95225304Y-81335646D01*
X95338342Y-81278050D01*
X95428050Y-81188342D01*
X95485646Y-81075304D01*
X95505492Y-80950000D01*
X95485646Y-80824696D01*
X95428050Y-80711658D01*
X95338342Y-80621950D01*
X95295263Y-80600000D01*
X99694508Y-80600000D01*
X99714354Y-80725304D01*
X99714354Y-80725305D01*
X99763598Y-80821950D01*
X99771950Y-80838342D01*
X99861658Y-80928050D01*
X99974696Y-80985646D01*
X100100000Y-81005492D01*
X100225304Y-80985646D01*
X100338342Y-80928050D01*
X100428050Y-80838342D01*
X100485646Y-80725304D01*
X100505492Y-80600000D01*
X100485646Y-80474696D01*
X100428050Y-80361658D01*
X100338342Y-80271950D01*
X100225304Y-80214354D01*
X100134675Y-80200000D01*
X100594508Y-80200000D01*
X100614354Y-80325304D01*
X100614354Y-80325305D01*
X100655212Y-80405492D01*
X100671950Y-80438342D01*
X100761658Y-80528050D01*
X100874696Y-80585646D01*
X101000000Y-80605492D01*
X101125304Y-80585646D01*
X101238342Y-80528050D01*
X101328050Y-80438342D01*
X101385646Y-80325304D01*
X101405492Y-80200000D01*
X101385646Y-80074696D01*
X101328050Y-79961658D01*
X101260586Y-79894194D01*
X101242280Y-79850000D01*
X101260586Y-79805806D01*
X101278552Y-79787840D01*
X101328050Y-79738342D01*
X101385646Y-79625304D01*
X101405492Y-79500000D01*
X101385646Y-79374696D01*
X101328050Y-79261658D01*
X101260586Y-79194194D01*
X101242280Y-79150000D01*
X101260586Y-79105806D01*
X101278050Y-79088342D01*
X101328050Y-79038342D01*
X101385646Y-78925304D01*
X101405492Y-78800000D01*
X101385646Y-78674696D01*
X101328050Y-78561658D01*
X101238342Y-78471950D01*
X101125304Y-78414354D01*
X101000000Y-78394508D01*
X100999999Y-78394508D01*
X100874695Y-78414354D01*
X100874694Y-78414354D01*
X100761657Y-78471950D01*
X100671950Y-78561657D01*
X100614354Y-78674694D01*
X100614354Y-78674695D01*
X100594508Y-78800000D01*
X100614354Y-78925304D01*
X100614354Y-78925305D01*
X100671950Y-79038342D01*
X100739414Y-79105806D01*
X100757720Y-79150000D01*
X100739414Y-79194194D01*
X100671950Y-79261657D01*
X100614354Y-79374694D01*
X100614354Y-79374695D01*
X100594508Y-79500000D01*
X100614354Y-79625304D01*
X100614354Y-79625305D01*
X100671950Y-79738342D01*
X100739414Y-79805806D01*
X100757720Y-79850000D01*
X100739414Y-79894194D01*
X100671950Y-79961657D01*
X100614354Y-80074694D01*
X100614354Y-80074695D01*
X100594508Y-80200000D01*
X100134675Y-80200000D01*
X100100000Y-80194508D01*
X99974695Y-80214354D01*
X99974694Y-80214354D01*
X99861657Y-80271950D01*
X99771950Y-80361657D01*
X99714354Y-80474694D01*
X99714354Y-80474695D01*
X99694508Y-80600000D01*
X95295263Y-80600000D01*
X95225304Y-80564354D01*
X95100000Y-80544508D01*
X94974695Y-80564354D01*
X94974694Y-80564354D01*
X94861657Y-80621950D01*
X94771950Y-80711657D01*
X94714354Y-80824694D01*
X94714354Y-80824695D01*
X94694508Y-80950000D01*
X94447586Y-80950000D01*
X94428050Y-80911658D01*
X94338342Y-80821950D01*
X94225304Y-80764354D01*
X94100000Y-80744508D01*
X93974695Y-80764354D01*
X93974694Y-80764354D01*
X93861657Y-80821950D01*
X93771950Y-80911657D01*
X93714354Y-81024694D01*
X93714354Y-81024695D01*
X93694508Y-81150000D01*
X78854641Y-81150000D01*
X78866299Y-81138342D01*
X78923895Y-81025304D01*
X78943741Y-80900000D01*
X78923895Y-80774696D01*
X78866299Y-80661658D01*
X78776591Y-80571950D01*
X78663553Y-80514354D01*
X78538249Y-80494508D01*
X78412944Y-80514354D01*
X78412943Y-80514354D01*
X78299906Y-80571950D01*
X78210199Y-80661657D01*
X78152603Y-80774694D01*
X78152603Y-80774695D01*
X78132757Y-80900000D01*
X74631139Y-80900000D01*
X74695090Y-80859817D01*
X74822963Y-80731944D01*
X74919176Y-80578822D01*
X74978903Y-80408130D01*
X74991087Y-80300000D01*
X78882757Y-80300000D01*
X78902603Y-80425304D01*
X78902603Y-80425305D01*
X78937864Y-80494508D01*
X78960199Y-80538342D01*
X79049907Y-80628050D01*
X79162945Y-80685646D01*
X79288249Y-80705492D01*
X79413553Y-80685646D01*
X79526591Y-80628050D01*
X79616299Y-80538342D01*
X79673895Y-80425304D01*
X79693741Y-80300000D01*
X79673895Y-80174696D01*
X79616299Y-80061658D01*
X79526591Y-79971950D01*
X79413553Y-79914354D01*
X79288249Y-79894508D01*
X79162944Y-79914354D01*
X79162943Y-79914354D01*
X79049906Y-79971950D01*
X78960199Y-80061657D01*
X78902603Y-80174694D01*
X78902603Y-80174695D01*
X78882757Y-80300000D01*
X74991087Y-80300000D01*
X74999151Y-80228427D01*
X74978903Y-80048724D01*
X74919176Y-79878032D01*
X74917079Y-79874694D01*
X74822964Y-79724911D01*
X74695088Y-79597035D01*
X74541969Y-79500824D01*
X74371276Y-79441097D01*
X74371272Y-79441096D01*
X74191573Y-79420849D01*
X74011873Y-79441096D01*
X74011869Y-79441097D01*
X73841176Y-79500824D01*
X73688057Y-79597035D01*
X73560181Y-79724911D01*
X73463970Y-79878030D01*
X73404243Y-80048723D01*
X73404242Y-80048727D01*
X73383995Y-80228427D01*
X72364154Y-80228427D01*
X73002960Y-79363906D01*
X73437414Y-78814213D01*
X74798208Y-78814213D01*
X74818455Y-78993913D01*
X74818456Y-78993917D01*
X74878183Y-79164610D01*
X74974394Y-79317729D01*
X75102270Y-79445605D01*
X75255389Y-79541816D01*
X75255391Y-79541817D01*
X75426083Y-79601544D01*
X75605786Y-79621792D01*
X75785489Y-79601544D01*
X75956181Y-79541817D01*
X76109303Y-79445604D01*
X76237176Y-79317731D01*
X76333389Y-79164609D01*
X76338501Y-79150000D01*
X77032757Y-79150000D01*
X77052603Y-79275304D01*
X77052603Y-79275305D01*
X77097748Y-79363906D01*
X77110199Y-79388342D01*
X77199907Y-79478050D01*
X77312945Y-79535646D01*
X77438249Y-79555492D01*
X77563553Y-79535646D01*
X77676591Y-79478050D01*
X77766299Y-79388342D01*
X77823895Y-79275304D01*
X77843741Y-79150000D01*
X77823895Y-79024696D01*
X77766299Y-78911658D01*
X77676591Y-78821950D01*
X77563553Y-78764354D01*
X77438249Y-78744508D01*
X77438248Y-78744508D01*
X77312944Y-78764354D01*
X77312943Y-78764354D01*
X77199906Y-78821950D01*
X77110199Y-78911657D01*
X77052603Y-79024694D01*
X77052603Y-79024695D01*
X77032757Y-79150000D01*
X76338501Y-79150000D01*
X76393116Y-78993917D01*
X76413364Y-78814214D01*
X76393116Y-78634511D01*
X76333389Y-78463819D01*
X76333388Y-78463817D01*
X76237177Y-78310698D01*
X76109301Y-78182822D01*
X75956182Y-78086611D01*
X75785489Y-78026884D01*
X75785485Y-78026883D01*
X75605786Y-78006636D01*
X75426086Y-78026883D01*
X75426082Y-78026884D01*
X75255389Y-78086611D01*
X75102270Y-78182822D01*
X74974394Y-78310698D01*
X74878183Y-78463817D01*
X74818456Y-78634510D01*
X74818455Y-78634514D01*
X74798208Y-78814213D01*
X73437414Y-78814213D01*
X73686341Y-78499258D01*
X74397429Y-77657248D01*
X74629396Y-77399999D01*
X76212422Y-77399999D01*
X76232669Y-77579699D01*
X76232670Y-77579703D01*
X76292397Y-77750396D01*
X76388608Y-77903515D01*
X76516484Y-78031391D01*
X76648519Y-78114354D01*
X76669605Y-78127603D01*
X76840297Y-78187330D01*
X77020000Y-78207578D01*
X77199703Y-78187330D01*
X77328401Y-78142297D01*
X79040460Y-78142297D01*
X79060306Y-78267601D01*
X79060306Y-78267602D01*
X79082265Y-78310698D01*
X79117902Y-78380639D01*
X79207610Y-78470347D01*
X79320648Y-78527943D01*
X79445952Y-78547789D01*
X79473280Y-78543460D01*
X79519792Y-78554625D01*
X79544787Y-78595411D01*
X79544788Y-78614965D01*
X79540460Y-78642295D01*
X79540460Y-78642297D01*
X79559792Y-78764354D01*
X79560306Y-78767601D01*
X79560306Y-78767602D01*
X79609604Y-78864354D01*
X79617902Y-78880639D01*
X79707610Y-78970347D01*
X79820648Y-79027943D01*
X79945952Y-79047789D01*
X80071256Y-79027943D01*
X80184294Y-78970347D01*
X80274002Y-78880639D01*
X80331598Y-78767601D01*
X80351444Y-78642297D01*
X80331598Y-78516993D01*
X80322940Y-78500000D01*
X80782757Y-78500000D01*
X80802603Y-78625304D01*
X80802603Y-78625305D01*
X80843461Y-78705492D01*
X80860199Y-78738342D01*
X80949907Y-78828050D01*
X81062945Y-78885646D01*
X81188249Y-78905492D01*
X81313553Y-78885646D01*
X81426591Y-78828050D01*
X81516299Y-78738342D01*
X81561312Y-78650000D01*
X82344508Y-78650000D01*
X82350154Y-78685645D01*
X82364354Y-78775304D01*
X82364354Y-78775305D01*
X82402413Y-78849999D01*
X82421950Y-78888342D01*
X82511658Y-78978050D01*
X82624696Y-79035646D01*
X82750000Y-79055492D01*
X82875304Y-79035646D01*
X82988342Y-78978050D01*
X83055805Y-78910586D01*
X83100000Y-78892280D01*
X83144194Y-78910586D01*
X83164414Y-78930806D01*
X83182720Y-78975000D01*
X83164414Y-79019194D01*
X83121950Y-79061657D01*
X83064354Y-79174694D01*
X83064354Y-79174695D01*
X83044508Y-79300000D01*
X83064354Y-79425304D01*
X83064354Y-79425305D01*
X83120576Y-79535645D01*
X83121950Y-79538342D01*
X83211658Y-79628050D01*
X83324696Y-79685646D01*
X83450000Y-79705492D01*
X83575304Y-79685646D01*
X83688342Y-79628050D01*
X83778050Y-79538342D01*
X83835646Y-79425304D01*
X83855492Y-79300000D01*
X83835646Y-79174696D01*
X83778050Y-79061658D01*
X83735586Y-79019194D01*
X83727192Y-78998930D01*
X87875798Y-78998930D01*
X87895630Y-79225616D01*
X87895633Y-79225632D01*
X87954525Y-79445420D01*
X87954526Y-79445422D01*
X88050697Y-79651661D01*
X88181219Y-79838068D01*
X88342125Y-79998974D01*
X88409940Y-80046458D01*
X88528532Y-80129496D01*
X88528531Y-80129496D01*
X88625459Y-80174694D01*
X88734770Y-80225667D01*
X88734772Y-80225667D01*
X88734773Y-80225668D01*
X88954561Y-80284560D01*
X88954567Y-80284561D01*
X88954574Y-80284563D01*
X89124482Y-80299428D01*
X89238050Y-80299428D01*
X89407958Y-80284563D01*
X89407967Y-80284560D01*
X89407970Y-80284560D01*
X89627758Y-80225668D01*
X89627757Y-80225668D01*
X89627762Y-80225667D01*
X89834000Y-80129496D01*
X90018941Y-80000000D01*
X92044508Y-80000000D01*
X92064354Y-80125304D01*
X92064354Y-80125305D01*
X92099615Y-80194508D01*
X92121950Y-80238342D01*
X92211658Y-80328050D01*
X92324696Y-80385646D01*
X92450000Y-80405492D01*
X92575304Y-80385646D01*
X92688342Y-80328050D01*
X92778050Y-80238342D01*
X92835646Y-80125304D01*
X92855492Y-80000000D01*
X92835646Y-79874696D01*
X92778050Y-79761658D01*
X92688342Y-79671950D01*
X92575304Y-79614354D01*
X92450000Y-79594508D01*
X92449999Y-79594508D01*
X92324695Y-79614354D01*
X92324694Y-79614354D01*
X92211657Y-79671950D01*
X92121950Y-79761657D01*
X92064354Y-79874694D01*
X92064354Y-79874695D01*
X92044508Y-80000000D01*
X90018941Y-80000000D01*
X90020405Y-79998975D01*
X90181313Y-79838067D01*
X90311834Y-79651662D01*
X90408005Y-79445424D01*
X90458897Y-79255491D01*
X90460368Y-79250000D01*
X94244508Y-79250000D01*
X94248516Y-79275304D01*
X94264354Y-79375304D01*
X94264354Y-79375305D01*
X94270997Y-79388342D01*
X94321950Y-79488342D01*
X94411658Y-79578050D01*
X94524696Y-79635646D01*
X94650000Y-79655492D01*
X94775304Y-79635646D01*
X94888342Y-79578050D01*
X94978050Y-79488342D01*
X95035646Y-79375304D01*
X95055492Y-79250000D01*
X95035646Y-79124696D01*
X94978050Y-79011658D01*
X94888342Y-78921950D01*
X94775304Y-78864354D01*
X94684675Y-78850000D01*
X96194508Y-78850000D01*
X96203297Y-78905491D01*
X96214354Y-78975304D01*
X96214354Y-78975305D01*
X96255212Y-79055492D01*
X96271950Y-79088342D01*
X96361658Y-79178050D01*
X96474696Y-79235646D01*
X96600000Y-79255492D01*
X96725304Y-79235646D01*
X96838342Y-79178050D01*
X96928050Y-79088342D01*
X96985646Y-78975304D01*
X97005492Y-78850000D01*
X96985646Y-78724696D01*
X96928050Y-78611658D01*
X96838342Y-78521950D01*
X96725304Y-78464354D01*
X96600000Y-78444508D01*
X96599999Y-78444508D01*
X96474695Y-78464354D01*
X96474694Y-78464354D01*
X96361657Y-78521950D01*
X96271950Y-78611657D01*
X96214354Y-78724694D01*
X96214354Y-78724695D01*
X96197985Y-78828050D01*
X96194508Y-78850000D01*
X94684675Y-78850000D01*
X94650000Y-78844508D01*
X94649999Y-78844508D01*
X94524695Y-78864354D01*
X94524694Y-78864354D01*
X94411657Y-78921950D01*
X94321950Y-79011657D01*
X94264354Y-79124694D01*
X94264354Y-79124695D01*
X94246782Y-79235645D01*
X94244508Y-79250000D01*
X90460368Y-79250000D01*
X90466898Y-79225632D01*
X90466898Y-79225629D01*
X90466901Y-79225620D01*
X90485620Y-79011658D01*
X90486734Y-78998930D01*
X90486734Y-78998925D01*
X90471250Y-78821950D01*
X90466901Y-78772236D01*
X90465659Y-78767602D01*
X90408006Y-78552435D01*
X90408005Y-78552433D01*
X90405839Y-78547789D01*
X90311834Y-78346194D01*
X90279489Y-78300000D01*
X99694508Y-78300000D01*
X99714354Y-78425304D01*
X99714354Y-78425305D01*
X99761072Y-78516993D01*
X99771950Y-78538342D01*
X99861658Y-78628050D01*
X99974696Y-78685646D01*
X100100000Y-78705492D01*
X100225304Y-78685646D01*
X100338342Y-78628050D01*
X100428050Y-78538342D01*
X100485646Y-78425304D01*
X100505492Y-78300000D01*
X100485646Y-78174696D01*
X100428050Y-78061658D01*
X100338342Y-77971950D01*
X100225304Y-77914354D01*
X100100000Y-77894508D01*
X99974695Y-77914354D01*
X99974694Y-77914354D01*
X99861657Y-77971950D01*
X99771950Y-78061657D01*
X99714354Y-78174694D01*
X99714354Y-78174695D01*
X99694508Y-78300000D01*
X90279489Y-78300000D01*
X90269438Y-78285645D01*
X90181312Y-78159787D01*
X90020406Y-77998881D01*
X89879187Y-77900000D01*
X89834000Y-77868360D01*
X89833998Y-77868359D01*
X89834000Y-77868359D01*
X89627760Y-77772188D01*
X89627758Y-77772187D01*
X89407970Y-77713295D01*
X89407954Y-77713292D01*
X89238050Y-77698428D01*
X89124482Y-77698428D01*
X88954577Y-77713292D01*
X88954561Y-77713295D01*
X88734773Y-77772187D01*
X88734771Y-77772188D01*
X88528532Y-77868359D01*
X88342125Y-77998881D01*
X88181219Y-78159787D01*
X88050697Y-78346194D01*
X87954526Y-78552433D01*
X87954525Y-78552435D01*
X87895633Y-78772223D01*
X87895630Y-78772239D01*
X87875798Y-78998925D01*
X87875798Y-78998930D01*
X83727192Y-78998930D01*
X83717280Y-78975000D01*
X83735586Y-78930806D01*
X83755806Y-78910586D01*
X83778050Y-78888342D01*
X83835646Y-78775304D01*
X83855492Y-78650000D01*
X83835646Y-78524696D01*
X83778050Y-78411658D01*
X83688342Y-78321950D01*
X83575304Y-78264354D01*
X83450000Y-78244508D01*
X83449999Y-78244508D01*
X83324695Y-78264354D01*
X83324694Y-78264354D01*
X83211657Y-78321950D01*
X83144194Y-78389414D01*
X83100000Y-78407720D01*
X83055806Y-78389414D01*
X82988342Y-78321950D01*
X82875304Y-78264354D01*
X82750000Y-78244508D01*
X82624695Y-78264354D01*
X82624694Y-78264354D01*
X82511657Y-78321950D01*
X82421950Y-78411657D01*
X82364354Y-78524694D01*
X82364354Y-78524695D01*
X82347985Y-78628050D01*
X82344508Y-78650000D01*
X81561312Y-78650000D01*
X81573895Y-78625304D01*
X81593741Y-78500000D01*
X81593741Y-78499997D01*
X81593741Y-78499996D01*
X81573576Y-78372684D01*
X81584742Y-78326171D01*
X81625529Y-78301177D01*
X81645080Y-78301176D01*
X81672331Y-78305492D01*
X81797635Y-78285646D01*
X81910673Y-78228050D01*
X82000381Y-78138342D01*
X82057977Y-78025304D01*
X82077823Y-77900000D01*
X82057977Y-77774696D01*
X82000381Y-77661658D01*
X81910673Y-77571950D01*
X81797635Y-77514354D01*
X81672331Y-77494508D01*
X81672330Y-77494508D01*
X81547026Y-77514354D01*
X81547025Y-77514354D01*
X81433988Y-77571950D01*
X81344281Y-77661657D01*
X81286685Y-77774694D01*
X81286685Y-77774695D01*
X81286684Y-77774696D01*
X81286685Y-77774696D01*
X81266839Y-77900000D01*
X81285368Y-78016991D01*
X81287004Y-78027315D01*
X81275837Y-78073829D01*
X81235050Y-78098823D01*
X81215498Y-78098823D01*
X81188250Y-78094508D01*
X81188249Y-78094508D01*
X81161005Y-78098823D01*
X81062944Y-78114354D01*
X81062943Y-78114354D01*
X80949906Y-78171950D01*
X80860199Y-78261657D01*
X80802603Y-78374694D01*
X80802603Y-78374695D01*
X80782757Y-78500000D01*
X80322940Y-78500000D01*
X80274002Y-78403955D01*
X80184294Y-78314247D01*
X80071256Y-78256651D01*
X79945952Y-78236805D01*
X79945950Y-78236805D01*
X79918620Y-78241133D01*
X79872107Y-78229964D01*
X79847114Y-78189177D01*
X79847114Y-78169628D01*
X79851444Y-78142297D01*
X79831598Y-78016993D01*
X79774002Y-77903955D01*
X79684294Y-77814247D01*
X79571256Y-77756651D01*
X79445952Y-77736805D01*
X79320647Y-77756651D01*
X79320646Y-77756651D01*
X79207609Y-77814247D01*
X79117902Y-77903954D01*
X79060306Y-78016991D01*
X79060306Y-78016992D01*
X79040460Y-78142297D01*
X77328401Y-78142297D01*
X77370395Y-78127603D01*
X77523517Y-78031390D01*
X77651390Y-77903517D01*
X77747603Y-77750395D01*
X77807330Y-77579703D01*
X77827578Y-77400000D01*
X77807330Y-77220297D01*
X77747603Y-77049605D01*
X77747602Y-77049603D01*
X77651391Y-76896484D01*
X77523515Y-76768608D01*
X77370396Y-76672397D01*
X77199703Y-76612670D01*
X77199699Y-76612669D01*
X77020000Y-76592422D01*
X76840300Y-76612669D01*
X76840296Y-76612670D01*
X76669603Y-76672397D01*
X76516484Y-76768608D01*
X76388608Y-76896484D01*
X76292397Y-77049603D01*
X76232670Y-77220296D01*
X76232669Y-77220300D01*
X76212422Y-77399999D01*
X74629396Y-77399999D01*
X75135474Y-76838763D01*
X75899699Y-76044668D01*
X75960167Y-75985787D01*
X77626635Y-75985787D01*
X77646882Y-76165486D01*
X77646883Y-76165490D01*
X77706610Y-76336183D01*
X77802821Y-76489302D01*
X77930697Y-76617178D01*
X78083816Y-76713389D01*
X78083818Y-76713390D01*
X78254510Y-76773117D01*
X78434213Y-76793365D01*
X78613916Y-76773117D01*
X78784608Y-76713390D01*
X78937730Y-76617177D01*
X79065603Y-76489304D01*
X79161816Y-76336182D01*
X79221543Y-76165490D01*
X79241791Y-75985787D01*
X79221543Y-75806084D01*
X79161816Y-75635392D01*
X79148597Y-75614354D01*
X79065604Y-75482271D01*
X78937728Y-75354395D01*
X78784609Y-75258184D01*
X78613916Y-75198457D01*
X78613912Y-75198456D01*
X78434213Y-75178209D01*
X78254513Y-75198456D01*
X78254509Y-75198457D01*
X78083816Y-75258184D01*
X77930697Y-75354395D01*
X77802821Y-75482271D01*
X77706610Y-75635390D01*
X77646883Y-75806083D01*
X77646882Y-75806087D01*
X77626635Y-75985787D01*
X75960167Y-75985787D01*
X76689297Y-75275797D01*
X77503437Y-74532962D01*
X78341261Y-73816946D01*
X79201885Y-73128504D01*
X79628380Y-72809474D01*
X79674733Y-72797661D01*
X79715863Y-72822085D01*
X79716795Y-72823366D01*
X80122247Y-73395387D01*
X80462003Y-73874723D01*
X80472625Y-73921364D01*
X80447155Y-73961855D01*
X80400514Y-73972477D01*
X80366819Y-73955059D01*
X79929702Y-73517942D01*
X79898175Y-73496877D01*
X79898173Y-73496876D01*
X79848427Y-73486982D01*
X79798680Y-73496876D01*
X79798678Y-73496877D01*
X79767151Y-73517942D01*
X78794796Y-74490297D01*
X78773731Y-74521824D01*
X78773730Y-74521826D01*
X78763836Y-74571572D01*
X78763836Y-74571573D01*
X78773730Y-74621319D01*
X78773731Y-74621321D01*
X78794797Y-74652849D01*
X79767151Y-75625203D01*
X79798679Y-75646269D01*
X79823553Y-75651216D01*
X79848426Y-75656164D01*
X79848426Y-75656163D01*
X79848427Y-75656164D01*
X79898175Y-75646269D01*
X79929703Y-75625203D01*
X80902057Y-74652849D01*
X80905706Y-74647386D01*
X80945477Y-74620810D01*
X80992394Y-74630139D01*
X81008664Y-74645966D01*
X81184058Y-74893416D01*
X81190212Y-74904243D01*
X81194065Y-74912941D01*
X81225065Y-74951373D01*
X81226237Y-74952923D01*
X81237367Y-74968625D01*
X81237367Y-74968626D01*
X81237369Y-74968629D01*
X81237372Y-74968632D01*
X81247266Y-74979054D01*
X81248909Y-74980932D01*
X81355874Y-75113544D01*
X81355886Y-75113558D01*
X81624882Y-75387149D01*
X81919406Y-75633062D01*
X82236616Y-75848924D01*
X82283865Y-75874696D01*
X82573463Y-76032657D01*
X82926692Y-76182486D01*
X83105364Y-76238342D01*
X83292905Y-76296971D01*
X83370357Y-76313060D01*
X83668578Y-76375010D01*
X84050090Y-76415851D01*
X84433768Y-76419100D01*
X84815917Y-76384727D01*
X84998572Y-76350000D01*
X92294508Y-76350000D01*
X92314354Y-76475304D01*
X92314354Y-76475305D01*
X92321486Y-76489302D01*
X92371950Y-76588342D01*
X92461658Y-76678050D01*
X92574696Y-76735646D01*
X92700000Y-76755492D01*
X92825304Y-76735646D01*
X92938342Y-76678050D01*
X93028050Y-76588342D01*
X93085646Y-76475304D01*
X93105492Y-76350000D01*
X93085646Y-76224696D01*
X93028050Y-76111658D01*
X92938342Y-76021950D01*
X92895263Y-76000000D01*
X94294508Y-76000000D01*
X94314354Y-76125304D01*
X94314354Y-76125305D01*
X94334828Y-76165486D01*
X94371950Y-76238342D01*
X94461658Y-76328050D01*
X94574696Y-76385646D01*
X94700000Y-76405492D01*
X94825304Y-76385646D01*
X94938342Y-76328050D01*
X95028050Y-76238342D01*
X95085646Y-76125304D01*
X95105492Y-76000000D01*
X95085646Y-75874696D01*
X95028050Y-75761658D01*
X94938342Y-75671950D01*
X94825304Y-75614354D01*
X94734701Y-75600004D01*
X95867467Y-75600004D01*
X95887564Y-75855377D01*
X95887565Y-75855381D01*
X95936923Y-76060972D01*
X95947369Y-76104480D01*
X96045402Y-76341154D01*
X96127609Y-76475304D01*
X96179251Y-76559576D01*
X96179255Y-76559582D01*
X96345621Y-76754372D01*
X96345627Y-76754378D01*
X96540417Y-76920744D01*
X96540421Y-76920747D01*
X96758846Y-77054598D01*
X96995520Y-77152631D01*
X97244616Y-77212434D01*
X97244618Y-77212434D01*
X97244622Y-77212435D01*
X97499996Y-77232533D01*
X97500000Y-77232533D01*
X97500004Y-77232533D01*
X97755377Y-77212435D01*
X97755379Y-77212434D01*
X97755384Y-77212434D01*
X98004480Y-77152631D01*
X98241154Y-77054598D01*
X98459579Y-76920747D01*
X98632431Y-76773117D01*
X98654372Y-76754378D01*
X98654378Y-76754372D01*
X98737561Y-76656977D01*
X98820747Y-76559579D01*
X98954598Y-76341154D01*
X99052631Y-76104480D01*
X99112434Y-75855384D01*
X99112943Y-75848926D01*
X99132533Y-75600004D01*
X100867467Y-75600004D01*
X100887564Y-75855377D01*
X100887565Y-75855381D01*
X100936923Y-76060972D01*
X100947369Y-76104480D01*
X101045402Y-76341154D01*
X101127609Y-76475304D01*
X101179251Y-76559576D01*
X101179255Y-76559582D01*
X101345621Y-76754372D01*
X101345627Y-76754378D01*
X101540417Y-76920744D01*
X101540421Y-76920747D01*
X101758846Y-77054598D01*
X101995520Y-77152631D01*
X102244616Y-77212434D01*
X102244618Y-77212434D01*
X102244622Y-77212435D01*
X102499996Y-77232533D01*
X102500000Y-77232533D01*
X102500004Y-77232533D01*
X102755377Y-77212435D01*
X102755379Y-77212434D01*
X102755384Y-77212434D01*
X103004480Y-77152631D01*
X103241154Y-77054598D01*
X103459579Y-76920747D01*
X103632431Y-76773117D01*
X103654372Y-76754378D01*
X103654378Y-76754372D01*
X103737561Y-76656976D01*
X103820747Y-76559579D01*
X103954598Y-76341154D01*
X104052631Y-76104480D01*
X104112434Y-75855384D01*
X104112943Y-75848926D01*
X104132533Y-75600004D01*
X104132533Y-75599995D01*
X104112435Y-75344622D01*
X104112434Y-75344618D01*
X104095911Y-75275797D01*
X104052631Y-75095520D01*
X103954598Y-74858846D01*
X103820747Y-74640421D01*
X103820744Y-74640417D01*
X103654378Y-74445627D01*
X103654372Y-74445621D01*
X103459582Y-74279255D01*
X103459576Y-74279251D01*
X103353146Y-74214031D01*
X103241154Y-74145402D01*
X103004480Y-74047369D01*
X103004474Y-74047367D01*
X103004473Y-74047367D01*
X102755381Y-73987565D01*
X102755377Y-73987564D01*
X102500004Y-73967467D01*
X102499996Y-73967467D01*
X102244622Y-73987564D01*
X102244618Y-73987565D01*
X101995526Y-74047367D01*
X101995522Y-74047368D01*
X101995520Y-74047369D01*
X101758846Y-74145402D01*
X101758844Y-74145403D01*
X101540423Y-74279251D01*
X101540417Y-74279255D01*
X101345627Y-74445621D01*
X101345621Y-74445627D01*
X101179255Y-74640417D01*
X101179251Y-74640423D01*
X101085719Y-74793054D01*
X101045402Y-74858846D01*
X100995619Y-74979035D01*
X100947367Y-75095526D01*
X100887565Y-75344618D01*
X100887564Y-75344622D01*
X100867467Y-75599995D01*
X100867467Y-75600004D01*
X99132533Y-75600004D01*
X99132533Y-75599995D01*
X99112435Y-75344622D01*
X99112434Y-75344618D01*
X99095911Y-75275797D01*
X99052631Y-75095520D01*
X98954598Y-74858846D01*
X98820747Y-74640421D01*
X98820744Y-74640417D01*
X98654378Y-74445627D01*
X98654372Y-74445621D01*
X98459582Y-74279255D01*
X98459576Y-74279251D01*
X98353146Y-74214031D01*
X98241154Y-74145402D01*
X98004480Y-74047369D01*
X98004474Y-74047367D01*
X98004473Y-74047367D01*
X97755381Y-73987565D01*
X97755377Y-73987564D01*
X97500004Y-73967467D01*
X97499996Y-73967467D01*
X97244622Y-73987564D01*
X97244618Y-73987565D01*
X96995526Y-74047367D01*
X96995522Y-74047368D01*
X96995520Y-74047369D01*
X96758846Y-74145402D01*
X96758844Y-74145403D01*
X96540423Y-74279251D01*
X96540417Y-74279255D01*
X96345627Y-74445621D01*
X96345621Y-74445627D01*
X96179255Y-74640417D01*
X96179251Y-74640423D01*
X96085719Y-74793054D01*
X96045402Y-74858846D01*
X95995619Y-74979035D01*
X95947367Y-75095526D01*
X95887565Y-75344618D01*
X95887564Y-75344622D01*
X95867467Y-75599995D01*
X95867467Y-75600004D01*
X94734701Y-75600004D01*
X94700000Y-75594508D01*
X94574695Y-75614354D01*
X94574694Y-75614354D01*
X94461657Y-75671950D01*
X94371950Y-75761657D01*
X94314354Y-75874694D01*
X94314354Y-75874695D01*
X94294508Y-76000000D01*
X92895263Y-76000000D01*
X92825304Y-75964354D01*
X92700000Y-75944508D01*
X92574695Y-75964354D01*
X92574694Y-75964354D01*
X92461657Y-76021950D01*
X92371950Y-76111657D01*
X92314354Y-76224694D01*
X92314354Y-76224695D01*
X92294508Y-76350000D01*
X84998572Y-76350000D01*
X85192857Y-76313062D01*
X85560958Y-76204795D01*
X85916674Y-76060970D01*
X86256580Y-75882971D01*
X86577402Y-75672512D01*
X86876050Y-75431621D01*
X87149650Y-75162617D01*
X87395564Y-74868091D01*
X87611426Y-74550880D01*
X87795157Y-74214037D01*
X87944986Y-73860808D01*
X88059471Y-73494594D01*
X88137510Y-73118922D01*
X88177003Y-72750000D01*
X90494508Y-72750000D01*
X90514354Y-72875304D01*
X90514354Y-72875305D01*
X90563455Y-72971670D01*
X90571950Y-72988342D01*
X90661658Y-73078050D01*
X90774696Y-73135646D01*
X90900000Y-73155492D01*
X91025304Y-73135646D01*
X91138342Y-73078050D01*
X91228050Y-72988342D01*
X91285646Y-72875304D01*
X91305492Y-72750000D01*
X91285646Y-72624696D01*
X91228050Y-72511658D01*
X91138342Y-72421950D01*
X91025304Y-72364354D01*
X90900000Y-72344508D01*
X90774695Y-72364354D01*
X90774694Y-72364354D01*
X90661657Y-72421950D01*
X90571950Y-72511657D01*
X90514354Y-72624694D01*
X90514354Y-72624695D01*
X90494508Y-72750000D01*
X88177003Y-72750000D01*
X88178351Y-72737410D01*
X88181600Y-72353732D01*
X88147227Y-71971583D01*
X88079759Y-71616717D01*
X88075565Y-71594658D01*
X88075560Y-71594636D01*
X87967298Y-71226553D01*
X87967295Y-71226542D01*
X87823470Y-70870826D01*
X87760197Y-70750000D01*
X88494508Y-70750000D01*
X88514354Y-70875304D01*
X88514354Y-70875305D01*
X88520637Y-70887636D01*
X88571950Y-70988342D01*
X88661658Y-71078050D01*
X88774696Y-71135646D01*
X88900000Y-71155492D01*
X89025304Y-71135646D01*
X89138342Y-71078050D01*
X89228050Y-70988342D01*
X89285646Y-70875304D01*
X89305492Y-70750000D01*
X89285646Y-70624696D01*
X89228050Y-70511658D01*
X89138342Y-70421950D01*
X89025304Y-70364354D01*
X88900000Y-70344508D01*
X88774695Y-70364354D01*
X88774694Y-70364354D01*
X88661657Y-70421950D01*
X88571950Y-70511657D01*
X88514354Y-70624694D01*
X88514354Y-70624695D01*
X88494508Y-70750000D01*
X87760197Y-70750000D01*
X87645471Y-70530920D01*
X87632834Y-70511657D01*
X87523185Y-70344508D01*
X87435012Y-70210098D01*
X87317220Y-70064064D01*
X86799641Y-69400000D01*
X91594508Y-69400000D01*
X91614354Y-69525304D01*
X91614354Y-69525305D01*
X91628278Y-69552632D01*
X91671950Y-69638342D01*
X91761658Y-69728050D01*
X91874696Y-69785646D01*
X92000000Y-69805492D01*
X92125304Y-69785646D01*
X92238342Y-69728050D01*
X92328050Y-69638342D01*
X92385646Y-69525304D01*
X92405492Y-69400000D01*
X92385646Y-69274696D01*
X92328050Y-69161658D01*
X92238342Y-69071950D01*
X92125304Y-69014354D01*
X92000000Y-68994508D01*
X91999999Y-68994508D01*
X91874695Y-69014354D01*
X91874694Y-69014354D01*
X91761657Y-69071950D01*
X91671950Y-69161657D01*
X91614354Y-69274694D01*
X91614354Y-69274695D01*
X91594508Y-69400000D01*
X86799641Y-69400000D01*
X86439574Y-68938028D01*
X86426845Y-68891919D01*
X86450449Y-68850313D01*
X86463746Y-68842380D01*
X86865709Y-68665943D01*
X87937645Y-68238243D01*
X88182680Y-68150000D01*
X90244508Y-68150000D01*
X90264354Y-68275304D01*
X90264354Y-68275305D01*
X90319839Y-68384199D01*
X90321950Y-68388342D01*
X90411658Y-68478050D01*
X90524696Y-68535646D01*
X90650000Y-68555492D01*
X90775304Y-68535646D01*
X90888342Y-68478050D01*
X90978050Y-68388342D01*
X91035646Y-68275304D01*
X91055492Y-68150000D01*
X91035646Y-68024696D01*
X91023065Y-68000004D01*
X98367467Y-68000004D01*
X98387564Y-68255377D01*
X98387565Y-68255381D01*
X98441023Y-68478050D01*
X98447369Y-68504480D01*
X98545402Y-68741154D01*
X98545403Y-68741155D01*
X98679251Y-68959576D01*
X98679255Y-68959582D01*
X98845621Y-69154372D01*
X98845627Y-69154378D01*
X99040417Y-69320744D01*
X99040421Y-69320747D01*
X99258846Y-69454598D01*
X99495520Y-69552631D01*
X99744616Y-69612434D01*
X99744618Y-69612434D01*
X99744622Y-69612435D01*
X99999996Y-69632533D01*
X100000000Y-69632533D01*
X100000004Y-69632533D01*
X100255377Y-69612435D01*
X100255379Y-69612434D01*
X100255384Y-69612434D01*
X100504480Y-69552631D01*
X100740208Y-69454990D01*
X109669844Y-69454990D01*
X109679577Y-69634494D01*
X109679577Y-69634498D01*
X109679578Y-69634501D01*
X109705552Y-69728049D01*
X109727673Y-69807724D01*
X109727675Y-69807728D01*
X109811880Y-69966555D01*
X109811881Y-69966556D01*
X109928265Y-70103574D01*
X110004926Y-70161850D01*
X110071380Y-70212368D01*
X110071381Y-70212368D01*
X110071382Y-70212369D01*
X110234541Y-70287854D01*
X110410113Y-70326500D01*
X110410116Y-70326500D01*
X110544812Y-70326500D01*
X110544816Y-70326500D01*
X110678721Y-70311937D01*
X110849085Y-70254535D01*
X111003126Y-70161851D01*
X111133642Y-70038220D01*
X111234529Y-69889423D01*
X111301070Y-69722416D01*
X111330155Y-69545010D01*
X111320422Y-69365499D01*
X111272327Y-69192277D01*
X111188119Y-69033444D01*
X111071735Y-68896426D01*
X110995073Y-68838149D01*
X110928619Y-68787631D01*
X110837477Y-68745465D01*
X110765459Y-68712146D01*
X110765460Y-68712146D01*
X110683624Y-68694133D01*
X110589887Y-68673500D01*
X110455184Y-68673500D01*
X110455183Y-68673500D01*
X110321278Y-68688063D01*
X110321272Y-68688064D01*
X110150913Y-68745465D01*
X109996874Y-68838149D01*
X109996873Y-68838149D01*
X109866357Y-68961781D01*
X109765469Y-69110580D01*
X109698931Y-69277580D01*
X109698930Y-69277582D01*
X109698930Y-69277584D01*
X109684517Y-69365499D01*
X109669845Y-69454990D01*
X109669844Y-69454990D01*
X100740208Y-69454990D01*
X100741154Y-69454598D01*
X100959579Y-69320747D01*
X101145849Y-69161657D01*
X101154372Y-69154378D01*
X101154378Y-69154372D01*
X101257661Y-69033443D01*
X101320747Y-68959579D01*
X101454598Y-68741154D01*
X101552631Y-68504480D01*
X101612434Y-68255384D01*
X101613040Y-68247694D01*
X101632533Y-68000004D01*
X101632533Y-67999995D01*
X101612435Y-67744622D01*
X101612434Y-67744618D01*
X101606585Y-67720257D01*
X101552631Y-67495520D01*
X101454598Y-67258846D01*
X101320747Y-67040421D01*
X101320744Y-67040417D01*
X101154378Y-66845627D01*
X101154372Y-66845621D01*
X100959582Y-66679255D01*
X100959576Y-66679251D01*
X100803639Y-66583693D01*
X100741154Y-66545402D01*
X100504480Y-66447369D01*
X100504474Y-66447367D01*
X100504473Y-66447367D01*
X100255381Y-66387565D01*
X100255377Y-66387564D01*
X100000004Y-66367467D01*
X99999996Y-66367467D01*
X99744622Y-66387564D01*
X99744618Y-66387565D01*
X99495526Y-66447367D01*
X99495522Y-66447368D01*
X99495520Y-66447369D01*
X99258846Y-66545402D01*
X99258844Y-66545403D01*
X99040423Y-66679251D01*
X99040417Y-66679255D01*
X98845627Y-66845621D01*
X98845621Y-66845627D01*
X98679255Y-67040417D01*
X98679251Y-67040423D01*
X98545403Y-67258844D01*
X98447367Y-67495526D01*
X98387565Y-67744618D01*
X98387564Y-67744622D01*
X98367467Y-67999995D01*
X98367467Y-68000004D01*
X91023065Y-68000004D01*
X90978050Y-67911658D01*
X90888342Y-67821950D01*
X90775304Y-67764354D01*
X90650000Y-67744508D01*
X90524695Y-67764354D01*
X90524694Y-67764354D01*
X90411657Y-67821950D01*
X90321950Y-67911657D01*
X90264354Y-68024694D01*
X90264354Y-68024695D01*
X90244508Y-68150000D01*
X88182680Y-68150000D01*
X89023492Y-67847204D01*
X90121996Y-67493278D01*
X91231889Y-67176873D01*
X92351890Y-66898355D01*
X93480706Y-66658046D01*
X94617034Y-66456222D01*
X95759562Y-66293116D01*
X96906972Y-66168917D01*
X98057939Y-66083768D01*
X99211134Y-66037768D01*
X100365226Y-66030970D01*
X101518882Y-66063381D01*
G37*
%TD.AperFunction*%
%TD*%
%TA.AperFunction,Conductor*%
%TO.N,/Charger/VLED*%
G36*
X111474537Y-88490036D02*
G01*
X111509021Y-88523187D01*
X111509960Y-88525453D01*
X114704177Y-96688453D01*
X115991088Y-99977225D01*
X115991088Y-100022775D01*
X111509964Y-111474536D01*
X111476812Y-111509021D01*
X111474536Y-111509964D01*
X100022775Y-115991088D01*
X99977225Y-115991088D01*
X93773607Y-113563585D01*
X100558442Y-113563585D01*
X100578288Y-113688889D01*
X100578288Y-113688890D01*
X100634902Y-113800000D01*
X100635884Y-113801927D01*
X100725592Y-113891635D01*
X100838630Y-113949231D01*
X100963934Y-113969077D01*
X101089238Y-113949231D01*
X101202276Y-113891635D01*
X101291984Y-113801927D01*
X101349580Y-113688889D01*
X101369426Y-113563585D01*
X101349580Y-113438281D01*
X101291984Y-113325243D01*
X101202276Y-113235535D01*
X101089238Y-113177939D01*
X100963934Y-113158093D01*
X100963933Y-113158093D01*
X100838629Y-113177939D01*
X100838628Y-113177939D01*
X100725591Y-113235535D01*
X100635884Y-113325242D01*
X100578288Y-113438279D01*
X100578288Y-113438280D01*
X100558442Y-113563585D01*
X93773607Y-113563585D01*
X92077779Y-112900000D01*
X95294508Y-112900000D01*
X95314354Y-113025304D01*
X95314354Y-113025305D01*
X95327374Y-113050858D01*
X95371950Y-113138342D01*
X95461658Y-113228050D01*
X95574696Y-113285646D01*
X95700000Y-113305492D01*
X95825304Y-113285646D01*
X95938342Y-113228050D01*
X96028050Y-113138342D01*
X96085646Y-113025304D01*
X96105492Y-112900000D01*
X96085646Y-112774696D01*
X96028050Y-112661658D01*
X95938342Y-112571950D01*
X95825304Y-112514354D01*
X95700000Y-112494508D01*
X95574695Y-112514354D01*
X95574694Y-112514354D01*
X95461657Y-112571950D01*
X95371950Y-112661657D01*
X95314354Y-112774694D01*
X95314354Y-112774695D01*
X95294508Y-112900000D01*
X92077779Y-112900000D01*
X90192382Y-112162236D01*
X105675626Y-112162236D01*
X105695472Y-112287541D01*
X105695472Y-112287542D01*
X105753067Y-112400579D01*
X105753068Y-112400579D01*
X105842776Y-112490287D01*
X105955814Y-112547883D01*
X106081118Y-112567729D01*
X106206422Y-112547883D01*
X106319460Y-112490287D01*
X106409168Y-112400579D01*
X106466764Y-112287541D01*
X106486610Y-112162237D01*
X106466764Y-112036933D01*
X106409168Y-111923895D01*
X106319460Y-111834187D01*
X106206422Y-111776591D01*
X106081118Y-111756745D01*
X106081117Y-111756745D01*
X105955813Y-111776591D01*
X105955812Y-111776591D01*
X105842775Y-111834187D01*
X105753068Y-111923894D01*
X105695472Y-112036931D01*
X105695472Y-112036932D01*
X105675626Y-112162236D01*
X90192382Y-112162236D01*
X88627779Y-111550000D01*
X92494508Y-111550000D01*
X92514354Y-111675304D01*
X92514354Y-111675305D01*
X92571949Y-111788342D01*
X92571950Y-111788342D01*
X92661658Y-111878050D01*
X92774696Y-111935646D01*
X92900000Y-111955492D01*
X93025304Y-111935646D01*
X93138342Y-111878050D01*
X93228050Y-111788342D01*
X93285646Y-111675304D01*
X93305492Y-111550000D01*
X93285646Y-111424696D01*
X93228050Y-111311658D01*
X93138342Y-111221950D01*
X93025304Y-111164354D01*
X92900000Y-111144508D01*
X92774695Y-111164354D01*
X92774694Y-111164354D01*
X92661657Y-111221950D01*
X92571950Y-111311657D01*
X92514354Y-111424694D01*
X92514354Y-111424695D01*
X92494508Y-111550000D01*
X88627779Y-111550000D01*
X88525462Y-111509963D01*
X88490978Y-111476812D01*
X88490049Y-111474571D01*
X88019676Y-110272507D01*
X90685210Y-110272507D01*
X90705056Y-110397811D01*
X90705056Y-110397812D01*
X90713407Y-110414201D01*
X90762652Y-110510849D01*
X90852360Y-110600557D01*
X90965398Y-110658153D01*
X91090702Y-110677999D01*
X91216006Y-110658153D01*
X91329044Y-110600557D01*
X91418752Y-110510849D01*
X91476348Y-110397811D01*
X91496194Y-110272507D01*
X91476348Y-110147203D01*
X91418752Y-110034165D01*
X91329044Y-109944457D01*
X91216006Y-109886861D01*
X91090702Y-109867015D01*
X90965397Y-109886861D01*
X90965396Y-109886861D01*
X90852359Y-109944457D01*
X90762652Y-110034164D01*
X90705056Y-110147201D01*
X90705056Y-110147202D01*
X90685210Y-110272507D01*
X88019676Y-110272507D01*
X87486246Y-108909298D01*
X109867015Y-108909298D01*
X109886861Y-109034602D01*
X109886861Y-109034603D01*
X109944456Y-109147640D01*
X109944457Y-109147640D01*
X110034165Y-109237348D01*
X110147203Y-109294944D01*
X110272507Y-109314790D01*
X110397811Y-109294944D01*
X110510849Y-109237348D01*
X110600557Y-109147640D01*
X110658153Y-109034602D01*
X110677999Y-108909298D01*
X110658153Y-108783994D01*
X110600557Y-108670956D01*
X110510849Y-108581248D01*
X110397811Y-108523652D01*
X110272507Y-108503806D01*
X110147202Y-108523652D01*
X110147201Y-108523652D01*
X110034164Y-108581248D01*
X109944457Y-108670955D01*
X109886861Y-108783992D01*
X109886861Y-108783993D01*
X109867015Y-108909298D01*
X87486246Y-108909298D01*
X87190382Y-108153200D01*
X108865308Y-108153200D01*
X108885154Y-108278504D01*
X108885154Y-108278505D01*
X108942749Y-108391542D01*
X108942750Y-108391542D01*
X109032458Y-108481250D01*
X109145496Y-108538846D01*
X109270800Y-108558692D01*
X109396104Y-108538846D01*
X109509142Y-108481250D01*
X109598850Y-108391542D01*
X109656446Y-108278504D01*
X109676292Y-108153200D01*
X109656446Y-108027896D01*
X109598850Y-107914858D01*
X109509142Y-107825150D01*
X109396104Y-107767554D01*
X109270800Y-107747708D01*
X109270799Y-107747708D01*
X109145495Y-107767554D01*
X109145494Y-107767554D01*
X109032457Y-107825150D01*
X108942750Y-107914857D01*
X108885154Y-108027894D01*
X108885154Y-108027895D01*
X108865308Y-108153200D01*
X87190382Y-108153200D01*
X86379568Y-106081118D01*
X87432271Y-106081118D01*
X87452117Y-106206422D01*
X87452117Y-106206423D01*
X87509713Y-106319460D01*
X87599421Y-106409168D01*
X87712459Y-106466764D01*
X87837763Y-106486610D01*
X87963067Y-106466764D01*
X88076105Y-106409168D01*
X88094073Y-106391200D01*
X107103308Y-106391200D01*
X107123154Y-106516504D01*
X107123154Y-106516505D01*
X107180749Y-106629541D01*
X107180750Y-106629542D01*
X107270458Y-106719250D01*
X107383496Y-106776846D01*
X107508800Y-106796692D01*
X107634104Y-106776846D01*
X107747142Y-106719250D01*
X107836850Y-106629542D01*
X107894446Y-106516504D01*
X107914292Y-106391200D01*
X107894446Y-106265896D01*
X107836850Y-106152858D01*
X107747142Y-106063150D01*
X107634104Y-106005554D01*
X107508800Y-105985708D01*
X107383495Y-106005554D01*
X107383494Y-106005554D01*
X107270457Y-106063150D01*
X107180750Y-106152857D01*
X107123154Y-106265894D01*
X107123154Y-106265895D01*
X107103308Y-106391200D01*
X88094073Y-106391200D01*
X88165813Y-106319460D01*
X88223409Y-106206422D01*
X88243255Y-106081118D01*
X88223409Y-105955814D01*
X88165813Y-105842776D01*
X88076105Y-105753068D01*
X87963067Y-105695472D01*
X87837763Y-105675626D01*
X87712458Y-105695472D01*
X87712457Y-105695472D01*
X87599420Y-105753068D01*
X87509713Y-105842775D01*
X87452117Y-105955812D01*
X87452117Y-105955813D01*
X87432271Y-106081118D01*
X86379568Y-106081118D01*
X85995652Y-105100000D01*
X97544508Y-105100000D01*
X97564354Y-105225304D01*
X97564354Y-105225305D01*
X97621949Y-105338341D01*
X97621950Y-105338342D01*
X97711658Y-105428050D01*
X97824696Y-105485646D01*
X97950000Y-105505492D01*
X98075304Y-105485646D01*
X98188342Y-105428050D01*
X98243308Y-105373083D01*
X98287499Y-105354779D01*
X98331694Y-105373084D01*
X98350000Y-105417278D01*
X98350000Y-106100000D01*
X102850000Y-106100000D01*
X102850000Y-104300000D01*
X112494508Y-104300000D01*
X112502124Y-104348084D01*
X112514354Y-104425304D01*
X112514354Y-104425305D01*
X112542473Y-104480491D01*
X112571950Y-104538342D01*
X112661658Y-104628050D01*
X112774696Y-104685646D01*
X112900000Y-104705492D01*
X113025304Y-104685646D01*
X113138342Y-104628050D01*
X113228050Y-104538342D01*
X113285646Y-104425304D01*
X113305492Y-104300000D01*
X113285646Y-104174696D01*
X113228050Y-104061658D01*
X113138342Y-103971950D01*
X113025304Y-103914354D01*
X112900000Y-103894508D01*
X112774695Y-103914354D01*
X112774694Y-103914354D01*
X112661657Y-103971950D01*
X112571950Y-104061657D01*
X112514354Y-104174694D01*
X112514354Y-104174695D01*
X112514353Y-104174696D01*
X112514354Y-104174696D01*
X112494508Y-104300000D01*
X102850000Y-104300000D01*
X102850000Y-103500000D01*
X103869508Y-103500000D01*
X103889354Y-103625304D01*
X103889354Y-103625305D01*
X103901937Y-103650000D01*
X103946950Y-103738342D01*
X104036658Y-103828050D01*
X104149696Y-103885646D01*
X104275000Y-103905492D01*
X104400304Y-103885646D01*
X104513342Y-103828050D01*
X104520671Y-103820720D01*
X104564863Y-103802413D01*
X104609058Y-103820717D01*
X104620554Y-103836538D01*
X104641705Y-103878049D01*
X104646950Y-103888342D01*
X104736658Y-103978050D01*
X104849696Y-104035646D01*
X104975000Y-104055492D01*
X105100304Y-104035646D01*
X105213342Y-103978050D01*
X105303050Y-103888342D01*
X105360646Y-103775304D01*
X105380492Y-103650000D01*
X105364654Y-103549999D01*
X107019508Y-103549999D01*
X107039354Y-103675304D01*
X107039354Y-103675305D01*
X107080073Y-103755219D01*
X107096950Y-103788342D01*
X107186658Y-103878050D01*
X107299696Y-103935646D01*
X107425000Y-103955492D01*
X107550304Y-103935646D01*
X107663342Y-103878050D01*
X107753050Y-103788342D01*
X107810646Y-103675304D01*
X107830492Y-103550000D01*
X107810646Y-103424696D01*
X107753050Y-103311658D01*
X107663342Y-103221950D01*
X107550304Y-103164354D01*
X107425000Y-103144508D01*
X107424999Y-103144508D01*
X107299695Y-103164354D01*
X107299694Y-103164354D01*
X107186657Y-103221950D01*
X107096950Y-103311657D01*
X107039354Y-103424694D01*
X107039354Y-103424695D01*
X107019508Y-103549999D01*
X105364654Y-103549999D01*
X105360646Y-103524696D01*
X105303050Y-103411658D01*
X105213342Y-103321950D01*
X105100304Y-103264354D01*
X104975000Y-103244508D01*
X104849695Y-103264354D01*
X104849694Y-103264354D01*
X104736654Y-103321951D01*
X104729324Y-103329282D01*
X104685129Y-103347586D01*
X104640936Y-103329278D01*
X104629445Y-103313462D01*
X104603050Y-103261658D01*
X104513342Y-103171950D01*
X104400304Y-103114354D01*
X104275000Y-103094508D01*
X104274999Y-103094508D01*
X104149695Y-103114354D01*
X104149694Y-103114354D01*
X104036657Y-103171950D01*
X103946950Y-103261657D01*
X103889354Y-103374694D01*
X103889354Y-103374695D01*
X103869508Y-103500000D01*
X102850000Y-103500000D01*
X102850000Y-102974999D01*
X106232006Y-102974999D01*
X106251852Y-103100304D01*
X106251852Y-103100305D01*
X106309448Y-103213341D01*
X106309448Y-103213342D01*
X106399156Y-103303050D01*
X106512194Y-103360646D01*
X106637498Y-103380492D01*
X106762802Y-103360646D01*
X106875840Y-103303050D01*
X106965548Y-103213342D01*
X107023144Y-103100304D01*
X107039030Y-103000000D01*
X107788257Y-103000000D01*
X107808103Y-103125304D01*
X107808103Y-103125305D01*
X107828000Y-103164354D01*
X107865699Y-103238342D01*
X107955407Y-103328050D01*
X108068445Y-103385646D01*
X108193749Y-103405492D01*
X108319053Y-103385646D01*
X108432091Y-103328050D01*
X108521799Y-103238342D01*
X108579395Y-103125304D01*
X108599241Y-103000000D01*
X108579395Y-102874696D01*
X108521799Y-102761658D01*
X108432091Y-102671950D01*
X108378766Y-102644779D01*
X108347701Y-102608405D01*
X108351454Y-102560717D01*
X108378766Y-102533405D01*
X108438342Y-102503050D01*
X108528050Y-102413342D01*
X108585646Y-102300304D01*
X108605492Y-102175000D01*
X108585646Y-102049696D01*
X108528050Y-101936658D01*
X108438342Y-101846950D01*
X108325304Y-101789354D01*
X108200000Y-101769508D01*
X108074695Y-101789354D01*
X108074694Y-101789354D01*
X107961657Y-101846950D01*
X107871950Y-101936657D01*
X107814354Y-102049694D01*
X107814354Y-102049695D01*
X107794508Y-102175000D01*
X107814354Y-102300304D01*
X107814354Y-102300305D01*
X107871950Y-102413342D01*
X107961658Y-102503050D01*
X108014980Y-102530219D01*
X108046047Y-102566593D01*
X108042294Y-102614281D01*
X108014981Y-102641595D01*
X107955406Y-102671950D01*
X107865699Y-102761657D01*
X107808103Y-102874694D01*
X107808103Y-102874695D01*
X107788257Y-103000000D01*
X107039030Y-103000000D01*
X107042990Y-102975000D01*
X107023144Y-102849696D01*
X106965548Y-102736658D01*
X106875840Y-102646950D01*
X106762802Y-102589354D01*
X106637498Y-102569508D01*
X106637497Y-102569508D01*
X106512193Y-102589354D01*
X106512192Y-102589354D01*
X106399155Y-102646950D01*
X106309448Y-102736657D01*
X106251852Y-102849694D01*
X106251852Y-102849695D01*
X106232006Y-102974999D01*
X102850000Y-102974999D01*
X102850000Y-101600000D01*
X101798625Y-101600000D01*
X101754431Y-101581694D01*
X101736125Y-101537500D01*
X101742937Y-101509126D01*
X101785644Y-101425308D01*
X101785644Y-101425307D01*
X101785646Y-101425304D01*
X101805492Y-101300000D01*
X101785646Y-101174696D01*
X101728050Y-101061658D01*
X101638342Y-100971950D01*
X101637596Y-100971204D01*
X101619290Y-100927010D01*
X101637596Y-100882816D01*
X101653416Y-100871322D01*
X101703056Y-100846029D01*
X101738342Y-100828050D01*
X101828050Y-100738342D01*
X101847586Y-100700000D01*
X104894508Y-100700000D01*
X104914354Y-100825304D01*
X104914354Y-100825305D01*
X104943658Y-100882816D01*
X104971950Y-100938342D01*
X105061658Y-101028050D01*
X105174696Y-101085646D01*
X105300000Y-101105492D01*
X105425304Y-101085646D01*
X105538342Y-101028050D01*
X105580806Y-100985586D01*
X105625000Y-100967280D01*
X105669194Y-100985586D01*
X105686658Y-101003050D01*
X105788145Y-101054760D01*
X105819212Y-101091134D01*
X105815459Y-101138822D01*
X105803965Y-101154642D01*
X105721950Y-101236657D01*
X105664354Y-101349694D01*
X105664354Y-101349695D01*
X105652476Y-101424694D01*
X105644508Y-101475000D01*
X105663227Y-101593188D01*
X105664354Y-101600304D01*
X105664354Y-101600305D01*
X105702569Y-101675305D01*
X105721950Y-101713342D01*
X105811658Y-101803050D01*
X105924696Y-101860646D01*
X106050000Y-101880492D01*
X106175304Y-101860646D01*
X106224833Y-101835408D01*
X106272519Y-101831654D01*
X106308894Y-101862720D01*
X106308894Y-101862721D01*
X106321948Y-101888340D01*
X106321950Y-101888342D01*
X106411658Y-101978050D01*
X106524696Y-102035646D01*
X106650000Y-102055492D01*
X106775304Y-102035646D01*
X106888342Y-101978050D01*
X106972542Y-101893849D01*
X107016735Y-101875544D01*
X107045108Y-101882355D01*
X107149696Y-101935646D01*
X107275000Y-101955492D01*
X107400304Y-101935646D01*
X107513342Y-101878050D01*
X107603050Y-101788342D01*
X107660646Y-101675304D01*
X107680492Y-101550000D01*
X107660646Y-101424696D01*
X107603050Y-101311658D01*
X107513342Y-101221950D01*
X107400304Y-101164354D01*
X107275000Y-101144508D01*
X107274999Y-101144508D01*
X107149695Y-101164354D01*
X107149694Y-101164354D01*
X107036657Y-101221950D01*
X106952458Y-101306149D01*
X106908264Y-101324455D01*
X106879890Y-101317643D01*
X106775308Y-101264355D01*
X106775304Y-101264354D01*
X106758276Y-101261657D01*
X106650000Y-101244508D01*
X106649999Y-101244508D01*
X106524695Y-101264354D01*
X106524691Y-101264356D01*
X106475165Y-101289590D01*
X106427477Y-101293343D01*
X106391103Y-101262276D01*
X106378050Y-101236658D01*
X106288341Y-101146949D01*
X106186854Y-101095239D01*
X106155787Y-101058865D01*
X106156485Y-101050000D01*
X107794508Y-101050000D01*
X107812620Y-101164354D01*
X107814354Y-101175304D01*
X107814354Y-101175305D01*
X107849615Y-101244508D01*
X107871950Y-101288342D01*
X107961658Y-101378050D01*
X108074696Y-101435646D01*
X108200000Y-101455492D01*
X108325304Y-101435646D01*
X108438342Y-101378050D01*
X108528050Y-101288342D01*
X108585646Y-101175304D01*
X108605492Y-101050000D01*
X108585646Y-100924696D01*
X108528050Y-100811658D01*
X108438342Y-100721950D01*
X108325304Y-100664354D01*
X108200000Y-100644508D01*
X108074695Y-100664354D01*
X108074694Y-100664354D01*
X107961657Y-100721950D01*
X107871950Y-100811657D01*
X107814354Y-100924694D01*
X107814354Y-100924695D01*
X107797985Y-101028050D01*
X107794508Y-101050000D01*
X106156485Y-101050000D01*
X106159540Y-101011177D01*
X106171031Y-100995360D01*
X106253050Y-100913342D01*
X106310646Y-100800304D01*
X106330492Y-100675000D01*
X106310646Y-100549696D01*
X106253050Y-100436658D01*
X106163342Y-100346950D01*
X106050304Y-100289354D01*
X105925000Y-100269508D01*
X105924999Y-100269508D01*
X105799695Y-100289354D01*
X105799694Y-100289354D01*
X105686659Y-100346949D01*
X105644194Y-100389414D01*
X105599999Y-100407719D01*
X105555806Y-100389413D01*
X105538344Y-100371951D01*
X105425304Y-100314354D01*
X105300000Y-100294508D01*
X105174695Y-100314354D01*
X105174694Y-100314354D01*
X105061657Y-100371950D01*
X104971950Y-100461657D01*
X104914354Y-100574694D01*
X104914354Y-100574695D01*
X104894508Y-100700000D01*
X101847586Y-100700000D01*
X101885646Y-100625304D01*
X101905492Y-100500000D01*
X101885646Y-100374696D01*
X101828050Y-100261658D01*
X101738342Y-100171950D01*
X101625304Y-100114354D01*
X101500000Y-100094508D01*
X101374694Y-100114354D01*
X101374691Y-100114355D01*
X101374540Y-100114433D01*
X101374426Y-100114441D01*
X101370019Y-100115874D01*
X101369674Y-100114814D01*
X101326852Y-100118176D01*
X101290483Y-100087102D01*
X101286734Y-100078048D01*
X101285646Y-100074700D01*
X101285646Y-100074696D01*
X101247586Y-100000000D01*
X102069508Y-100000000D01*
X102089354Y-100125304D01*
X102089354Y-100125305D01*
X102103658Y-100153377D01*
X102146950Y-100238342D01*
X102236658Y-100328050D01*
X102349696Y-100385646D01*
X102475000Y-100405492D01*
X102600304Y-100385646D01*
X102713342Y-100328050D01*
X102803050Y-100238342D01*
X102860646Y-100125304D01*
X102880492Y-100000000D01*
X103169508Y-100000000D01*
X103189354Y-100125304D01*
X103189354Y-100125305D01*
X103203658Y-100153377D01*
X103246950Y-100238342D01*
X103336658Y-100328050D01*
X103449696Y-100385646D01*
X103575000Y-100405492D01*
X103700304Y-100385646D01*
X103813342Y-100328050D01*
X103903050Y-100238342D01*
X103960646Y-100125304D01*
X103980492Y-100000000D01*
X104269508Y-100000000D01*
X104289354Y-100125304D01*
X104289354Y-100125305D01*
X104303658Y-100153377D01*
X104346950Y-100238342D01*
X104436658Y-100328050D01*
X104549696Y-100385646D01*
X104675000Y-100405492D01*
X104800304Y-100385646D01*
X104913342Y-100328050D01*
X105003050Y-100238342D01*
X105060646Y-100125304D01*
X105080492Y-100000000D01*
X105060646Y-99874696D01*
X105003050Y-99761658D01*
X104913342Y-99671950D01*
X104800304Y-99614354D01*
X104675000Y-99594508D01*
X104674999Y-99594508D01*
X104549695Y-99614354D01*
X104549694Y-99614354D01*
X104436657Y-99671950D01*
X104346950Y-99761657D01*
X104289354Y-99874694D01*
X104289354Y-99874695D01*
X104269508Y-100000000D01*
X103980492Y-100000000D01*
X103960646Y-99874696D01*
X103903050Y-99761658D01*
X103813342Y-99671950D01*
X103700304Y-99614354D01*
X103575000Y-99594508D01*
X103449695Y-99614354D01*
X103449694Y-99614354D01*
X103336657Y-99671950D01*
X103246950Y-99761657D01*
X103189354Y-99874694D01*
X103189354Y-99874695D01*
X103169508Y-100000000D01*
X102880492Y-100000000D01*
X102860646Y-99874696D01*
X102803050Y-99761658D01*
X102713342Y-99671950D01*
X102600304Y-99614354D01*
X102475000Y-99594508D01*
X102474999Y-99594508D01*
X102349695Y-99614354D01*
X102349694Y-99614354D01*
X102236657Y-99671950D01*
X102146950Y-99761657D01*
X102089354Y-99874694D01*
X102089354Y-99874695D01*
X102069508Y-100000000D01*
X101247586Y-100000000D01*
X101228050Y-99961658D01*
X101138342Y-99871950D01*
X101025304Y-99814354D01*
X100900000Y-99794508D01*
X100774695Y-99814354D01*
X100774694Y-99814354D01*
X100661657Y-99871950D01*
X100571950Y-99961657D01*
X100514354Y-100074694D01*
X100514354Y-100074695D01*
X100494508Y-100200000D01*
X100514354Y-100325304D01*
X100514354Y-100325305D01*
X100571950Y-100438342D01*
X100639414Y-100505806D01*
X100657720Y-100550000D01*
X100639414Y-100594194D01*
X100571950Y-100661657D01*
X100514354Y-100774694D01*
X100514354Y-100774695D01*
X100494508Y-100900000D01*
X100514918Y-101028866D01*
X100503750Y-101075380D01*
X100462964Y-101100373D01*
X100374701Y-101114352D01*
X100374694Y-101114354D01*
X100261657Y-101171950D01*
X100171950Y-101261657D01*
X100114354Y-101374694D01*
X100114354Y-101374695D01*
X100094508Y-101500000D01*
X100098899Y-101527723D01*
X100087731Y-101574237D01*
X100046945Y-101599231D01*
X100037168Y-101600000D01*
X98350000Y-101600000D01*
X98350000Y-104782720D01*
X98331694Y-104826914D01*
X98287500Y-104845220D01*
X98243306Y-104826914D01*
X98188342Y-104771950D01*
X98075304Y-104714354D01*
X97950000Y-104694508D01*
X97824695Y-104714354D01*
X97824694Y-104714354D01*
X97711657Y-104771950D01*
X97621950Y-104861657D01*
X97564354Y-104974694D01*
X97564354Y-104974695D01*
X97544508Y-105100000D01*
X85995652Y-105100000D01*
X85594565Y-104075000D01*
X87769508Y-104075000D01*
X87789354Y-104200304D01*
X87789354Y-104200305D01*
X87840151Y-104299999D01*
X87846950Y-104313342D01*
X87936658Y-104403050D01*
X88049696Y-104460646D01*
X88175000Y-104480492D01*
X88300304Y-104460646D01*
X88413342Y-104403050D01*
X88468308Y-104348083D01*
X88512499Y-104329779D01*
X88556694Y-104348084D01*
X88575000Y-104392277D01*
X88575000Y-104525000D01*
X93075000Y-104525000D01*
X93075000Y-100025000D01*
X88575000Y-100025000D01*
X88575000Y-103757720D01*
X88556694Y-103801914D01*
X88512500Y-103820220D01*
X88468306Y-103801914D01*
X88413342Y-103746950D01*
X88300304Y-103689354D01*
X88300303Y-103689354D01*
X88175000Y-103669508D01*
X88174999Y-103669508D01*
X88049695Y-103689354D01*
X88049694Y-103689354D01*
X87936657Y-103746950D01*
X87846950Y-103836657D01*
X87789354Y-103949694D01*
X87789354Y-103949695D01*
X87769508Y-104075000D01*
X85594565Y-104075000D01*
X84377192Y-100963934D01*
X86030923Y-100963934D01*
X86050769Y-101089238D01*
X86050769Y-101089239D01*
X86108364Y-101202276D01*
X86108365Y-101202276D01*
X86198073Y-101291984D01*
X86311111Y-101349580D01*
X86436415Y-101369426D01*
X86561719Y-101349580D01*
X86674757Y-101291984D01*
X86764465Y-101202276D01*
X86822061Y-101089238D01*
X86836195Y-101000000D01*
X87094508Y-101000000D01*
X87114354Y-101125304D01*
X87114354Y-101125305D01*
X87139830Y-101175304D01*
X87171950Y-101238342D01*
X87261658Y-101328050D01*
X87374696Y-101385646D01*
X87500000Y-101405492D01*
X87625304Y-101385646D01*
X87738342Y-101328050D01*
X87828050Y-101238342D01*
X87885646Y-101125304D01*
X87905492Y-101000000D01*
X87885646Y-100874696D01*
X87828050Y-100761658D01*
X87738342Y-100671950D01*
X87625304Y-100614354D01*
X87500000Y-100594508D01*
X87374695Y-100614354D01*
X87374694Y-100614354D01*
X87261657Y-100671950D01*
X87171950Y-100761657D01*
X87114354Y-100874694D01*
X87114354Y-100874695D01*
X87094508Y-101000000D01*
X86836195Y-101000000D01*
X86841907Y-100963934D01*
X86822061Y-100838630D01*
X86764465Y-100725592D01*
X86674757Y-100635884D01*
X86561719Y-100578288D01*
X86436415Y-100558442D01*
X86436414Y-100558442D01*
X86311110Y-100578288D01*
X86311109Y-100578288D01*
X86198072Y-100635884D01*
X86108365Y-100725591D01*
X86050769Y-100838628D01*
X86050769Y-100838629D01*
X86030923Y-100963934D01*
X84377192Y-100963934D01*
X84008911Y-100022772D01*
X84008911Y-99977227D01*
X84557608Y-98575000D01*
X90403104Y-98575000D01*
X90420598Y-98696677D01*
X90420599Y-98696680D01*
X90471665Y-98808500D01*
X90471669Y-98808506D01*
X90552166Y-98901403D01*
X90552168Y-98901405D01*
X90655584Y-98967866D01*
X90655586Y-98967866D01*
X90655587Y-98967867D01*
X90773534Y-99002500D01*
X90773535Y-99002500D01*
X90896465Y-99002500D01*
X91014416Y-98967866D01*
X91117832Y-98901405D01*
X91119049Y-98900000D01*
X102069508Y-98900000D01*
X102089354Y-99025304D01*
X102089354Y-99025305D01*
X102143428Y-99131429D01*
X102146950Y-99138342D01*
X102236658Y-99228050D01*
X102349696Y-99285646D01*
X102475000Y-99305492D01*
X102600304Y-99285646D01*
X102713342Y-99228050D01*
X102803050Y-99138342D01*
X102860646Y-99025304D01*
X102880492Y-98900000D01*
X103169508Y-98900000D01*
X103189354Y-99025304D01*
X103189354Y-99025305D01*
X103243428Y-99131429D01*
X103246950Y-99138342D01*
X103336658Y-99228050D01*
X103449696Y-99285646D01*
X103575000Y-99305492D01*
X103700304Y-99285646D01*
X103813342Y-99228050D01*
X103903050Y-99138342D01*
X103960646Y-99025304D01*
X103980492Y-98900000D01*
X104269508Y-98900000D01*
X104289354Y-99025304D01*
X104289354Y-99025305D01*
X104343428Y-99131429D01*
X104346950Y-99138342D01*
X104436658Y-99228050D01*
X104549696Y-99285646D01*
X104675000Y-99305492D01*
X104800304Y-99285646D01*
X104913342Y-99228050D01*
X105003050Y-99138342D01*
X105055162Y-99036066D01*
X113158093Y-99036066D01*
X113177939Y-99161370D01*
X113177939Y-99161371D01*
X113211914Y-99228049D01*
X113235535Y-99274408D01*
X113325243Y-99364116D01*
X113438281Y-99421712D01*
X113563585Y-99441558D01*
X113688889Y-99421712D01*
X113801927Y-99364116D01*
X113891635Y-99274408D01*
X113949231Y-99161370D01*
X113969077Y-99036066D01*
X113949231Y-98910762D01*
X113891635Y-98797724D01*
X113801927Y-98708016D01*
X113688889Y-98650420D01*
X113563585Y-98630574D01*
X113563584Y-98630574D01*
X113438280Y-98650420D01*
X113438279Y-98650420D01*
X113325242Y-98708016D01*
X113235535Y-98797723D01*
X113177939Y-98910760D01*
X113177939Y-98910761D01*
X113158093Y-99036066D01*
X105055162Y-99036066D01*
X105060646Y-99025304D01*
X105080492Y-98900000D01*
X105060646Y-98774696D01*
X105003050Y-98661658D01*
X104913342Y-98571950D01*
X104800304Y-98514354D01*
X104675000Y-98494508D01*
X104674999Y-98494508D01*
X104549695Y-98514354D01*
X104549694Y-98514354D01*
X104436657Y-98571950D01*
X104346950Y-98661657D01*
X104289354Y-98774694D01*
X104289354Y-98774695D01*
X104269508Y-98900000D01*
X103980492Y-98900000D01*
X103960646Y-98774696D01*
X103903050Y-98661658D01*
X103813342Y-98571950D01*
X103700304Y-98514354D01*
X103575000Y-98494508D01*
X103449695Y-98514354D01*
X103449694Y-98514354D01*
X103336657Y-98571950D01*
X103246950Y-98661657D01*
X103189354Y-98774694D01*
X103189354Y-98774695D01*
X103169508Y-98900000D01*
X102880492Y-98900000D01*
X102860646Y-98774696D01*
X102803050Y-98661658D01*
X102713342Y-98571950D01*
X102600304Y-98514354D01*
X102475000Y-98494508D01*
X102474999Y-98494508D01*
X102349695Y-98514354D01*
X102349694Y-98514354D01*
X102236657Y-98571950D01*
X102146950Y-98661657D01*
X102089354Y-98774694D01*
X102089354Y-98774695D01*
X102069508Y-98900000D01*
X91119049Y-98900000D01*
X91198334Y-98808501D01*
X91249401Y-98696679D01*
X91266896Y-98575000D01*
X91249401Y-98453321D01*
X91198334Y-98341499D01*
X91198330Y-98341493D01*
X91117833Y-98248596D01*
X91117832Y-98248595D01*
X91014416Y-98182134D01*
X91014414Y-98182133D01*
X91014412Y-98182132D01*
X90896466Y-98147500D01*
X90896465Y-98147500D01*
X90773535Y-98147500D01*
X90773534Y-98147500D01*
X90655587Y-98182132D01*
X90552166Y-98248596D01*
X90471669Y-98341493D01*
X90471665Y-98341499D01*
X90420599Y-98453319D01*
X90420598Y-98453322D01*
X90403104Y-98575000D01*
X84557608Y-98575000D01*
X84753260Y-98075000D01*
X89503104Y-98075000D01*
X89520598Y-98196677D01*
X89520599Y-98196680D01*
X89571665Y-98308500D01*
X89571669Y-98308506D01*
X89652166Y-98401403D01*
X89652168Y-98401405D01*
X89755584Y-98467866D01*
X89755586Y-98467866D01*
X89755587Y-98467867D01*
X89873534Y-98502500D01*
X89873535Y-98502500D01*
X89996465Y-98502500D01*
X90114416Y-98467866D01*
X90217832Y-98401405D01*
X90298334Y-98308501D01*
X90349401Y-98196679D01*
X90366896Y-98075000D01*
X91303104Y-98075000D01*
X91320598Y-98196677D01*
X91320599Y-98196680D01*
X91371665Y-98308500D01*
X91371669Y-98308506D01*
X91452166Y-98401403D01*
X91452168Y-98401405D01*
X91555584Y-98467866D01*
X91555586Y-98467866D01*
X91555587Y-98467867D01*
X91673534Y-98502500D01*
X91673535Y-98502500D01*
X91796465Y-98502500D01*
X91914416Y-98467866D01*
X92017832Y-98401405D01*
X92062376Y-98349999D01*
X98219508Y-98349999D01*
X98239354Y-98475304D01*
X98239354Y-98475305D01*
X98288598Y-98571950D01*
X98296950Y-98588342D01*
X98386658Y-98678050D01*
X98499696Y-98735646D01*
X98625000Y-98755492D01*
X98750304Y-98735646D01*
X98863342Y-98678050D01*
X98906450Y-98634941D01*
X98950641Y-98616637D01*
X98981795Y-98626760D01*
X98982276Y-98625817D01*
X98986657Y-98628049D01*
X98986658Y-98628050D01*
X99099696Y-98685646D01*
X99225000Y-98705492D01*
X99350304Y-98685646D01*
X99463342Y-98628050D01*
X99553050Y-98538342D01*
X99610646Y-98425304D01*
X99630492Y-98300000D01*
X99610646Y-98174696D01*
X99553050Y-98061658D01*
X99463342Y-97971950D01*
X99350304Y-97914354D01*
X99225000Y-97894508D01*
X99224999Y-97894508D01*
X99099695Y-97914354D01*
X99099694Y-97914354D01*
X98986659Y-97971949D01*
X98943551Y-98015057D01*
X98899356Y-98033362D01*
X98868204Y-98023240D01*
X98867724Y-98024183D01*
X98849813Y-98015057D01*
X98750304Y-97964354D01*
X98625000Y-97944508D01*
X98624999Y-97944508D01*
X98499695Y-97964354D01*
X98499694Y-97964354D01*
X98386657Y-98021950D01*
X98296950Y-98111657D01*
X98239354Y-98224694D01*
X98239354Y-98224695D01*
X98219508Y-98349999D01*
X92062376Y-98349999D01*
X92098334Y-98308501D01*
X92149401Y-98196679D01*
X92166896Y-98075000D01*
X92149401Y-97953321D01*
X92098334Y-97841499D01*
X92098330Y-97841493D01*
X92062376Y-97800000D01*
X102069508Y-97800000D01*
X102089354Y-97925304D01*
X102089354Y-97925305D01*
X102130212Y-98005492D01*
X102146950Y-98038342D01*
X102236658Y-98128050D01*
X102349696Y-98185646D01*
X102475000Y-98205492D01*
X102600304Y-98185646D01*
X102713342Y-98128050D01*
X102803050Y-98038342D01*
X102860646Y-97925304D01*
X102880492Y-97800000D01*
X103169508Y-97800000D01*
X103189354Y-97925304D01*
X103189354Y-97925305D01*
X103230212Y-98005492D01*
X103246950Y-98038342D01*
X103336658Y-98128050D01*
X103449696Y-98185646D01*
X103575000Y-98205492D01*
X103700304Y-98185646D01*
X103813342Y-98128050D01*
X103903050Y-98038342D01*
X103960646Y-97925304D01*
X103980492Y-97800000D01*
X104269508Y-97800000D01*
X104289354Y-97925304D01*
X104289354Y-97925305D01*
X104330212Y-98005492D01*
X104346950Y-98038342D01*
X104436658Y-98128050D01*
X104549696Y-98185646D01*
X104675000Y-98205492D01*
X104800304Y-98185646D01*
X104913342Y-98128050D01*
X105003050Y-98038342D01*
X105060646Y-97925304D01*
X105080492Y-97800000D01*
X105060646Y-97674696D01*
X105022586Y-97600000D01*
X106819508Y-97600000D01*
X106839354Y-97725304D01*
X106839354Y-97725305D01*
X106851221Y-97748595D01*
X106896950Y-97838342D01*
X106986658Y-97928050D01*
X107099696Y-97985646D01*
X107225000Y-98005492D01*
X107350304Y-97985646D01*
X107463342Y-97928050D01*
X107553050Y-97838342D01*
X107610646Y-97725304D01*
X107630492Y-97600000D01*
X107610646Y-97474696D01*
X107553050Y-97361658D01*
X107463342Y-97271950D01*
X107350304Y-97214354D01*
X107225000Y-97194508D01*
X107224999Y-97194508D01*
X107099695Y-97214354D01*
X107099694Y-97214354D01*
X106986657Y-97271950D01*
X106896950Y-97361657D01*
X106839354Y-97474694D01*
X106839354Y-97474695D01*
X106819508Y-97600000D01*
X105022586Y-97600000D01*
X105003050Y-97561658D01*
X104913342Y-97471950D01*
X104800304Y-97414354D01*
X104675000Y-97394508D01*
X104674999Y-97394508D01*
X104549695Y-97414354D01*
X104549694Y-97414354D01*
X104436657Y-97471950D01*
X104346950Y-97561657D01*
X104289354Y-97674694D01*
X104289354Y-97674695D01*
X104269508Y-97800000D01*
X103980492Y-97800000D01*
X103960646Y-97674696D01*
X103903050Y-97561658D01*
X103813342Y-97471950D01*
X103700304Y-97414354D01*
X103575000Y-97394508D01*
X103449695Y-97414354D01*
X103449694Y-97414354D01*
X103336657Y-97471950D01*
X103246950Y-97561657D01*
X103189354Y-97674694D01*
X103189354Y-97674695D01*
X103169508Y-97800000D01*
X102880492Y-97800000D01*
X102860646Y-97674696D01*
X102803050Y-97561658D01*
X102713342Y-97471950D01*
X102600304Y-97414354D01*
X102475000Y-97394508D01*
X102474999Y-97394508D01*
X102349695Y-97414354D01*
X102349694Y-97414354D01*
X102236657Y-97471950D01*
X102146950Y-97561657D01*
X102089354Y-97674694D01*
X102089354Y-97674695D01*
X102069508Y-97800000D01*
X92062376Y-97800000D01*
X92017833Y-97748596D01*
X92017832Y-97748595D01*
X91914416Y-97682134D01*
X91914414Y-97682133D01*
X91914412Y-97682132D01*
X91796466Y-97647500D01*
X91796465Y-97647500D01*
X91673535Y-97647500D01*
X91673534Y-97647500D01*
X91555587Y-97682132D01*
X91452166Y-97748596D01*
X91371669Y-97841493D01*
X91371665Y-97841499D01*
X91320599Y-97953319D01*
X91320598Y-97953322D01*
X91303104Y-98075000D01*
X90366896Y-98075000D01*
X90349401Y-97953321D01*
X90298334Y-97841499D01*
X90298330Y-97841493D01*
X90217833Y-97748596D01*
X90217832Y-97748595D01*
X90114416Y-97682134D01*
X90114414Y-97682133D01*
X90114412Y-97682132D01*
X89996466Y-97647500D01*
X89996465Y-97647500D01*
X89873535Y-97647500D01*
X89873534Y-97647500D01*
X89755587Y-97682132D01*
X89652166Y-97748596D01*
X89571669Y-97841493D01*
X89571665Y-97841499D01*
X89520599Y-97953319D01*
X89520598Y-97953322D01*
X89503104Y-98075000D01*
X84753260Y-98075000D01*
X84948912Y-97575000D01*
X90403104Y-97575000D01*
X90420598Y-97696677D01*
X90420599Y-97696680D01*
X90471665Y-97808500D01*
X90471669Y-97808506D01*
X90552166Y-97901403D01*
X90552168Y-97901405D01*
X90655584Y-97967866D01*
X90655586Y-97967866D01*
X90655587Y-97967867D01*
X90773534Y-98002500D01*
X90773535Y-98002500D01*
X90896465Y-98002500D01*
X91014416Y-97967866D01*
X91117832Y-97901405D01*
X91198334Y-97808501D01*
X91249401Y-97696679D01*
X91266896Y-97575000D01*
X91249401Y-97453321D01*
X91198334Y-97341499D01*
X91198330Y-97341493D01*
X91117833Y-97248596D01*
X91117832Y-97248595D01*
X91014416Y-97182134D01*
X91014414Y-97182133D01*
X91014412Y-97182132D01*
X90896466Y-97147500D01*
X90896465Y-97147500D01*
X90773535Y-97147500D01*
X90773534Y-97147500D01*
X90655587Y-97182132D01*
X90552166Y-97248596D01*
X90471669Y-97341493D01*
X90471665Y-97341499D01*
X90420599Y-97453319D01*
X90420598Y-97453322D01*
X90403104Y-97575000D01*
X84948912Y-97575000D01*
X85029343Y-97369454D01*
X85043347Y-97348044D01*
X85103050Y-97288342D01*
X85160646Y-97175304D01*
X85172573Y-97100000D01*
X99044508Y-97100000D01*
X99064354Y-97225304D01*
X99064354Y-97225305D01*
X99107132Y-97309260D01*
X99121950Y-97338342D01*
X99211658Y-97428050D01*
X99324696Y-97485646D01*
X99450000Y-97505492D01*
X99575304Y-97485646D01*
X99688342Y-97428050D01*
X99778050Y-97338342D01*
X99778050Y-97338341D01*
X99780806Y-97335586D01*
X99825000Y-97317280D01*
X99869194Y-97335586D01*
X99886658Y-97353050D01*
X99999696Y-97410646D01*
X100125000Y-97430492D01*
X100250304Y-97410646D01*
X100363342Y-97353050D01*
X100363342Y-97353049D01*
X100367724Y-97350817D01*
X100368420Y-97352184D01*
X100409123Y-97342405D01*
X100443551Y-97359943D01*
X100511658Y-97428050D01*
X100624696Y-97485646D01*
X100750000Y-97505492D01*
X100875304Y-97485646D01*
X100988342Y-97428050D01*
X101078050Y-97338342D01*
X101135646Y-97225304D01*
X101136301Y-97221163D01*
X101161293Y-97180377D01*
X101207806Y-97169208D01*
X101248594Y-97194200D01*
X101253720Y-97202564D01*
X101271950Y-97238342D01*
X101361658Y-97328050D01*
X101474696Y-97385646D01*
X101600000Y-97405492D01*
X101725304Y-97385646D01*
X101838342Y-97328050D01*
X101928050Y-97238342D01*
X101985646Y-97125304D01*
X102005492Y-97000000D01*
X101985646Y-96874696D01*
X101928050Y-96761658D01*
X101838342Y-96671950D01*
X101797828Y-96651307D01*
X101725305Y-96614354D01*
X101725298Y-96614352D01*
X101707572Y-96611545D01*
X101666785Y-96586551D01*
X101655619Y-96540038D01*
X101661659Y-96521445D01*
X101710646Y-96425304D01*
X101714654Y-96400000D01*
X106094508Y-96400000D01*
X106114354Y-96525304D01*
X106114354Y-96525305D01*
X106166705Y-96628049D01*
X106171950Y-96638342D01*
X106261658Y-96728050D01*
X106374696Y-96785646D01*
X106500000Y-96805492D01*
X106625304Y-96785646D01*
X106738342Y-96728050D01*
X106828050Y-96638342D01*
X106885646Y-96525304D01*
X106905492Y-96400000D01*
X106885646Y-96274696D01*
X106828050Y-96161658D01*
X106738342Y-96071950D01*
X106625304Y-96014354D01*
X106500000Y-95994508D01*
X106374695Y-96014354D01*
X106374694Y-96014354D01*
X106261657Y-96071950D01*
X106171950Y-96161657D01*
X106114354Y-96274694D01*
X106114354Y-96274695D01*
X106094508Y-96400000D01*
X101714654Y-96400000D01*
X101730492Y-96300000D01*
X101710646Y-96174696D01*
X101653050Y-96061658D01*
X101563342Y-95971950D01*
X101450304Y-95914354D01*
X101325000Y-95894508D01*
X101199695Y-95914354D01*
X101199694Y-95914354D01*
X101086657Y-95971950D01*
X100996950Y-96061657D01*
X100939354Y-96174694D01*
X100939354Y-96174695D01*
X100919508Y-96300000D01*
X100939354Y-96425304D01*
X100939354Y-96425305D01*
X100978968Y-96503050D01*
X100996950Y-96538342D01*
X101086658Y-96628050D01*
X101199696Y-96685646D01*
X101217427Y-96688454D01*
X101258212Y-96713446D01*
X101269381Y-96759959D01*
X101263338Y-96778558D01*
X101214355Y-96874691D01*
X101214353Y-96874699D01*
X101213697Y-96878842D01*
X101188700Y-96919626D01*
X101142185Y-96930790D01*
X101101401Y-96905793D01*
X101096279Y-96897434D01*
X101078050Y-96861658D01*
X100988342Y-96771950D01*
X100875304Y-96714354D01*
X100750000Y-96694508D01*
X100624695Y-96714354D01*
X100624694Y-96714354D01*
X100507276Y-96774183D01*
X100506581Y-96772819D01*
X100465855Y-96782591D01*
X100431448Y-96765056D01*
X100363342Y-96696950D01*
X100250304Y-96639354D01*
X100243914Y-96638342D01*
X100125000Y-96619508D01*
X100124999Y-96619508D01*
X99999695Y-96639354D01*
X99999694Y-96639354D01*
X99886657Y-96696950D01*
X99794194Y-96789413D01*
X99750000Y-96807719D01*
X99705807Y-96789414D01*
X99688342Y-96771950D01*
X99575304Y-96714354D01*
X99519351Y-96705492D01*
X99450000Y-96694508D01*
X99449999Y-96694508D01*
X99324695Y-96714354D01*
X99324694Y-96714354D01*
X99211657Y-96771950D01*
X99121950Y-96861657D01*
X99064354Y-96974694D01*
X99064354Y-96974695D01*
X99044508Y-97100000D01*
X85172573Y-97100000D01*
X85180492Y-97050000D01*
X85175612Y-97019189D01*
X85179139Y-96986643D01*
X85682608Y-95700000D01*
X86694508Y-95700000D01*
X86714354Y-95825304D01*
X86714354Y-95825305D01*
X86739830Y-95875304D01*
X86771950Y-95938342D01*
X86861658Y-96028050D01*
X86974696Y-96085646D01*
X87100000Y-96105492D01*
X87225304Y-96085646D01*
X87338342Y-96028050D01*
X87428050Y-95938342D01*
X87485646Y-95825304D01*
X87505492Y-95700000D01*
X87485646Y-95574696D01*
X87428050Y-95461658D01*
X87338342Y-95371950D01*
X87225304Y-95314354D01*
X87100000Y-95294508D01*
X86974695Y-95314354D01*
X86974694Y-95314354D01*
X86861657Y-95371950D01*
X86771950Y-95461657D01*
X86714354Y-95574694D01*
X86714354Y-95574695D01*
X86694508Y-95700000D01*
X85682608Y-95700000D01*
X85907608Y-95124999D01*
X90319508Y-95124999D01*
X90339354Y-95250304D01*
X90339354Y-95250305D01*
X90396949Y-95363341D01*
X90396950Y-95363342D01*
X90486658Y-95453050D01*
X90599696Y-95510646D01*
X90725000Y-95530492D01*
X90850304Y-95510646D01*
X90963342Y-95453050D01*
X90966392Y-95450000D01*
X99382006Y-95450000D01*
X99401852Y-95575304D01*
X99401852Y-95575305D01*
X99449998Y-95669795D01*
X99459448Y-95688342D01*
X99549156Y-95778050D01*
X99662194Y-95835646D01*
X99787498Y-95855492D01*
X99912802Y-95835646D01*
X100025840Y-95778050D01*
X100080803Y-95723086D01*
X100124998Y-95704780D01*
X100169192Y-95723086D01*
X100224156Y-95778050D01*
X100337194Y-95835646D01*
X100462498Y-95855492D01*
X100587802Y-95835646D01*
X100700840Y-95778050D01*
X100728890Y-95750000D01*
X104419508Y-95750000D01*
X104423951Y-95778050D01*
X104439354Y-95875304D01*
X104439354Y-95875305D01*
X104488598Y-95971950D01*
X104496950Y-95988342D01*
X104586658Y-96078050D01*
X104699696Y-96135646D01*
X104825000Y-96155492D01*
X104950304Y-96135646D01*
X105063342Y-96078050D01*
X105153050Y-95988342D01*
X105210646Y-95875304D01*
X105230492Y-95750000D01*
X105210646Y-95624696D01*
X105153050Y-95511658D01*
X105063342Y-95421950D01*
X104950304Y-95364354D01*
X104825000Y-95344508D01*
X104824999Y-95344508D01*
X104699695Y-95364354D01*
X104699694Y-95364354D01*
X104586657Y-95421950D01*
X104496950Y-95511657D01*
X104439354Y-95624694D01*
X104439354Y-95624695D01*
X104429274Y-95688342D01*
X104419508Y-95750000D01*
X100728890Y-95750000D01*
X100790548Y-95688342D01*
X100848144Y-95575304D01*
X100867990Y-95450000D01*
X100848144Y-95324696D01*
X100790548Y-95211658D01*
X100700840Y-95121950D01*
X100587802Y-95064354D01*
X100462498Y-95044508D01*
X100462497Y-95044508D01*
X100337193Y-95064354D01*
X100337192Y-95064354D01*
X100224155Y-95121950D01*
X100169192Y-95176914D01*
X100124998Y-95195220D01*
X100080804Y-95176914D01*
X100025840Y-95121950D01*
X99912802Y-95064354D01*
X99787498Y-95044508D01*
X99662193Y-95064354D01*
X99662192Y-95064354D01*
X99549155Y-95121950D01*
X99459448Y-95211657D01*
X99401852Y-95324694D01*
X99401852Y-95324695D01*
X99382006Y-95450000D01*
X90966392Y-95450000D01*
X91053050Y-95363342D01*
X91110646Y-95250304D01*
X91130492Y-95125000D01*
X91110646Y-94999696D01*
X91053050Y-94886658D01*
X90963342Y-94796950D01*
X90850304Y-94739354D01*
X90725000Y-94719508D01*
X90724999Y-94719508D01*
X90599695Y-94739354D01*
X90599694Y-94739354D01*
X90486657Y-94796950D01*
X90396950Y-94886657D01*
X90339354Y-94999694D01*
X90339354Y-94999695D01*
X90319508Y-95124999D01*
X85907608Y-95124999D01*
X86220651Y-94325000D01*
X103344508Y-94325000D01*
X103364354Y-94450304D01*
X103364354Y-94450305D01*
X103388838Y-94498357D01*
X103421950Y-94563342D01*
X103511658Y-94653050D01*
X103624696Y-94710646D01*
X103750000Y-94730492D01*
X103763385Y-94728372D01*
X103765899Y-94727974D01*
X103812413Y-94739140D01*
X103837407Y-94779926D01*
X103837408Y-94799481D01*
X103819641Y-94911658D01*
X103819508Y-94912500D01*
X103829359Y-94974695D01*
X103839354Y-95037804D01*
X103839354Y-95037805D01*
X103882229Y-95121950D01*
X103896950Y-95150842D01*
X103986658Y-95240550D01*
X104099696Y-95298146D01*
X104225000Y-95317992D01*
X104350304Y-95298146D01*
X104463342Y-95240550D01*
X104553050Y-95150842D01*
X104553479Y-95150000D01*
X105494508Y-95150000D01*
X105514354Y-95275304D01*
X105514354Y-95275305D01*
X105549615Y-95344508D01*
X105571950Y-95388342D01*
X105661658Y-95478050D01*
X105774696Y-95535646D01*
X105900000Y-95555492D01*
X106025304Y-95535646D01*
X106138342Y-95478050D01*
X106228050Y-95388342D01*
X106285646Y-95275304D01*
X106305492Y-95150000D01*
X106297573Y-95100000D01*
X106644508Y-95100000D01*
X106664354Y-95225304D01*
X106664354Y-95225305D01*
X106701469Y-95298146D01*
X106721950Y-95338342D01*
X106811658Y-95428050D01*
X106924696Y-95485646D01*
X107050000Y-95505492D01*
X107175304Y-95485646D01*
X107288342Y-95428050D01*
X107378050Y-95338342D01*
X107435646Y-95225304D01*
X107455492Y-95100000D01*
X107435646Y-94974696D01*
X107378050Y-94861658D01*
X107288342Y-94771950D01*
X107175304Y-94714354D01*
X107050000Y-94694508D01*
X107049999Y-94694508D01*
X106924695Y-94714354D01*
X106924694Y-94714354D01*
X106811657Y-94771950D01*
X106721950Y-94861657D01*
X106664354Y-94974694D01*
X106664354Y-94974695D01*
X106644508Y-95100000D01*
X106297573Y-95100000D01*
X106285646Y-95024696D01*
X106228050Y-94911658D01*
X106138342Y-94821950D01*
X106025304Y-94764354D01*
X105900000Y-94744508D01*
X105774695Y-94764354D01*
X105774694Y-94764354D01*
X105661657Y-94821950D01*
X105571950Y-94911657D01*
X105514354Y-95024694D01*
X105514354Y-95024695D01*
X105494508Y-95150000D01*
X104553479Y-95150000D01*
X104610646Y-95037804D01*
X104630492Y-94912500D01*
X104630326Y-94911453D01*
X104630492Y-94910763D01*
X104630492Y-94907581D01*
X104631256Y-94907581D01*
X104641490Y-94864941D01*
X104682275Y-94839944D01*
X104701833Y-94839944D01*
X104799996Y-94855492D01*
X104799997Y-94855491D01*
X104800000Y-94855492D01*
X104925304Y-94835646D01*
X105038342Y-94778050D01*
X105128050Y-94688342D01*
X105185646Y-94575304D01*
X105205492Y-94450000D01*
X105185646Y-94324696D01*
X105128050Y-94211658D01*
X105038342Y-94121950D01*
X104925304Y-94064354D01*
X104800000Y-94044508D01*
X104674695Y-94064354D01*
X104674694Y-94064354D01*
X104561657Y-94121950D01*
X104471950Y-94211657D01*
X104414354Y-94324694D01*
X104414354Y-94324695D01*
X104394508Y-94450002D01*
X104394508Y-94450003D01*
X104394674Y-94451052D01*
X104394508Y-94451743D01*
X104394508Y-94454919D01*
X104393745Y-94454919D01*
X104383504Y-94497565D01*
X104342716Y-94522556D01*
X104323167Y-94522556D01*
X104225000Y-94507008D01*
X104224999Y-94507008D01*
X104224998Y-94507008D01*
X104209097Y-94509526D01*
X104162583Y-94498357D01*
X104137591Y-94457570D01*
X104137592Y-94438018D01*
X104155492Y-94325003D01*
X104155492Y-94325002D01*
X104155444Y-94324696D01*
X104135646Y-94199696D01*
X104078050Y-94086658D01*
X103988342Y-93996950D01*
X103875304Y-93939354D01*
X103750000Y-93919508D01*
X103749999Y-93919508D01*
X103624695Y-93939354D01*
X103624694Y-93939354D01*
X103511657Y-93996950D01*
X103421950Y-94086657D01*
X103364354Y-94199694D01*
X103364354Y-94199695D01*
X103344508Y-94325000D01*
X86220651Y-94325000D01*
X86379567Y-93918882D01*
X111756745Y-93918882D01*
X111769110Y-93996950D01*
X111776591Y-94044186D01*
X111776591Y-94044187D01*
X111816214Y-94121950D01*
X111834187Y-94157224D01*
X111923895Y-94246932D01*
X112036933Y-94304528D01*
X112162237Y-94324374D01*
X112287541Y-94304528D01*
X112400579Y-94246932D01*
X112490287Y-94157224D01*
X112547883Y-94044186D01*
X112567729Y-93918882D01*
X112547883Y-93793578D01*
X112490287Y-93680540D01*
X112400579Y-93590832D01*
X112287541Y-93533236D01*
X112162237Y-93513390D01*
X112162236Y-93513390D01*
X112036932Y-93533236D01*
X112036931Y-93533236D01*
X111923894Y-93590832D01*
X111834187Y-93680539D01*
X111776591Y-93793576D01*
X111776591Y-93793577D01*
X111776590Y-93793578D01*
X111776591Y-93793578D01*
X111756745Y-93918882D01*
X86379567Y-93918882D01*
X86660869Y-93200000D01*
X102744508Y-93200000D01*
X102764354Y-93325304D01*
X102764354Y-93325305D01*
X102821949Y-93438342D01*
X102821950Y-93438342D01*
X102911658Y-93528050D01*
X103024696Y-93585646D01*
X103150000Y-93605492D01*
X103275304Y-93585646D01*
X103388342Y-93528050D01*
X103478050Y-93438342D01*
X103535646Y-93325304D01*
X103555492Y-93200000D01*
X103535646Y-93074696D01*
X103478050Y-92961658D01*
X103388342Y-92871950D01*
X103275304Y-92814354D01*
X103150000Y-92794508D01*
X103024695Y-92814354D01*
X103024694Y-92814354D01*
X102911657Y-92871950D01*
X102821950Y-92961657D01*
X102764354Y-93074694D01*
X102764354Y-93074695D01*
X102744508Y-93200000D01*
X86660869Y-93200000D01*
X87110870Y-92049999D01*
X91494508Y-92049999D01*
X91514354Y-92175304D01*
X91514354Y-92175305D01*
X91571949Y-92288342D01*
X91571950Y-92288342D01*
X91661658Y-92378050D01*
X91774696Y-92435646D01*
X91900000Y-92455492D01*
X92025304Y-92435646D01*
X92138342Y-92378050D01*
X92228050Y-92288342D01*
X92285646Y-92175304D01*
X92305492Y-92050000D01*
X92285646Y-91924696D01*
X92228050Y-91811658D01*
X92138342Y-91721950D01*
X92025304Y-91664354D01*
X91900000Y-91644508D01*
X91774695Y-91664354D01*
X91774694Y-91664354D01*
X91661657Y-91721950D01*
X91571950Y-91811657D01*
X91514354Y-91924694D01*
X91514354Y-91924695D01*
X91494508Y-92049999D01*
X87110870Y-92049999D01*
X87486247Y-91090702D01*
X89322001Y-91090702D01*
X89332263Y-91155492D01*
X89341847Y-91216006D01*
X89341847Y-91216007D01*
X89371751Y-91274696D01*
X89399443Y-91329044D01*
X89489151Y-91418752D01*
X89602189Y-91476348D01*
X89727493Y-91496194D01*
X89852797Y-91476348D01*
X89965835Y-91418752D01*
X89984587Y-91400000D01*
X102744508Y-91400000D01*
X102764354Y-91525304D01*
X102764354Y-91525305D01*
X102821949Y-91638342D01*
X102821950Y-91638342D01*
X102911658Y-91728050D01*
X103024696Y-91785646D01*
X103150000Y-91805492D01*
X103275304Y-91785646D01*
X103388342Y-91728050D01*
X103478050Y-91638342D01*
X103535646Y-91525304D01*
X103555492Y-91400000D01*
X103535646Y-91274696D01*
X103478050Y-91161658D01*
X103388342Y-91071950D01*
X103275304Y-91014354D01*
X103150000Y-90994508D01*
X103024695Y-91014354D01*
X103024694Y-91014354D01*
X102911657Y-91071950D01*
X102821950Y-91161657D01*
X102764354Y-91274694D01*
X102764354Y-91274695D01*
X102744508Y-91400000D01*
X89984587Y-91400000D01*
X90055543Y-91329044D01*
X90113139Y-91216006D01*
X90132985Y-91090702D01*
X90113139Y-90965398D01*
X90055543Y-90852360D01*
X89965835Y-90762652D01*
X89941004Y-90750000D01*
X91194508Y-90750000D01*
X91214354Y-90875304D01*
X91214354Y-90875305D01*
X91260258Y-90965396D01*
X91271950Y-90988342D01*
X91361658Y-91078050D01*
X91474696Y-91135646D01*
X91600000Y-91155492D01*
X91725304Y-91135646D01*
X91838342Y-91078050D01*
X91928050Y-90988342D01*
X91985646Y-90875304D01*
X92005492Y-90750000D01*
X91985646Y-90624696D01*
X91928050Y-90511658D01*
X91866391Y-90449999D01*
X102244508Y-90449999D01*
X102264354Y-90575304D01*
X102264354Y-90575305D01*
X102320354Y-90685210D01*
X102321950Y-90688342D01*
X102411658Y-90778050D01*
X102524696Y-90835646D01*
X102650000Y-90855492D01*
X102775304Y-90835646D01*
X102888342Y-90778050D01*
X102978050Y-90688342D01*
X103035646Y-90575304D01*
X103055492Y-90450000D01*
X103035646Y-90324696D01*
X102978050Y-90211658D01*
X102888342Y-90121950D01*
X102775304Y-90064354D01*
X102650000Y-90044508D01*
X102649999Y-90044508D01*
X102524695Y-90064354D01*
X102524694Y-90064354D01*
X102411657Y-90121950D01*
X102321950Y-90211657D01*
X102264354Y-90324694D01*
X102264354Y-90324695D01*
X102244508Y-90449999D01*
X91866391Y-90449999D01*
X91838342Y-90421950D01*
X91725304Y-90364354D01*
X91600000Y-90344508D01*
X91474695Y-90364354D01*
X91474694Y-90364354D01*
X91361657Y-90421950D01*
X91271950Y-90511657D01*
X91214354Y-90624694D01*
X91214354Y-90624695D01*
X91194508Y-90750000D01*
X89941004Y-90750000D01*
X89852797Y-90705056D01*
X89727493Y-90685210D01*
X89602188Y-90705056D01*
X89602187Y-90705056D01*
X89489150Y-90762652D01*
X89399443Y-90852359D01*
X89341847Y-90965396D01*
X89341847Y-90965397D01*
X89341846Y-90965398D01*
X89341847Y-90965398D01*
X89322001Y-91090702D01*
X87486247Y-91090702D01*
X88019676Y-89727493D01*
X108503806Y-89727493D01*
X108523652Y-89852797D01*
X108523652Y-89852798D01*
X108535941Y-89876916D01*
X108581248Y-89965835D01*
X108670956Y-90055543D01*
X108783994Y-90113139D01*
X108909298Y-90132985D01*
X109034602Y-90113139D01*
X109147640Y-90055543D01*
X109237348Y-89965835D01*
X109294944Y-89852797D01*
X109314790Y-89727493D01*
X109294944Y-89602189D01*
X109237348Y-89489151D01*
X109147640Y-89399443D01*
X109034602Y-89341847D01*
X108909298Y-89322001D01*
X108783993Y-89341847D01*
X108783992Y-89341847D01*
X108670955Y-89399443D01*
X108581248Y-89489150D01*
X108523652Y-89602187D01*
X108523652Y-89602188D01*
X108503806Y-89727493D01*
X88019676Y-89727493D01*
X88490037Y-88525460D01*
X88523187Y-88490978D01*
X88525410Y-88490056D01*
X90192381Y-87837763D01*
X93513390Y-87837763D01*
X93533236Y-87963067D01*
X93533236Y-87963068D01*
X93570774Y-88036740D01*
X93590832Y-88076105D01*
X93680540Y-88165813D01*
X93793578Y-88223409D01*
X93918882Y-88243255D01*
X94044186Y-88223409D01*
X94157224Y-88165813D01*
X94246932Y-88076105D01*
X94304528Y-87963067D01*
X94324374Y-87837763D01*
X94304528Y-87712459D01*
X94246932Y-87599421D01*
X94157224Y-87509713D01*
X94044186Y-87452117D01*
X93918882Y-87432271D01*
X93918881Y-87432271D01*
X93793577Y-87452117D01*
X93793576Y-87452117D01*
X93680539Y-87509713D01*
X93590832Y-87599420D01*
X93533236Y-87712457D01*
X93533236Y-87712458D01*
X93513390Y-87837763D01*
X90192381Y-87837763D01*
X92077776Y-87100000D01*
X103894508Y-87100000D01*
X103914354Y-87225304D01*
X103914354Y-87225305D01*
X103971949Y-87338342D01*
X103971950Y-87338342D01*
X104061658Y-87428050D01*
X104174696Y-87485646D01*
X104300000Y-87505492D01*
X104425304Y-87485646D01*
X104538342Y-87428050D01*
X104628050Y-87338342D01*
X104685646Y-87225304D01*
X104705492Y-87100000D01*
X104685646Y-86974696D01*
X104628050Y-86861658D01*
X104538342Y-86771950D01*
X104425304Y-86714354D01*
X104300000Y-86694508D01*
X104174695Y-86714354D01*
X104174694Y-86714354D01*
X104061657Y-86771950D01*
X103971950Y-86861657D01*
X103914354Y-86974694D01*
X103914354Y-86974695D01*
X103894508Y-87100000D01*
X92077776Y-87100000D01*
X93773604Y-86436415D01*
X98630574Y-86436415D01*
X98650420Y-86561719D01*
X98650420Y-86561720D01*
X98684217Y-86628050D01*
X98708016Y-86674757D01*
X98797724Y-86764465D01*
X98910762Y-86822061D01*
X99036066Y-86841907D01*
X99161370Y-86822061D01*
X99274408Y-86764465D01*
X99364116Y-86674757D01*
X99421712Y-86561719D01*
X99441558Y-86436415D01*
X99421712Y-86311111D01*
X99364116Y-86198073D01*
X99274408Y-86108365D01*
X99161370Y-86050769D01*
X99036066Y-86030923D01*
X99036065Y-86030923D01*
X98910761Y-86050769D01*
X98910760Y-86050769D01*
X98797723Y-86108365D01*
X98708016Y-86198072D01*
X98650420Y-86311109D01*
X98650420Y-86311110D01*
X98630574Y-86436415D01*
X93773604Y-86436415D01*
X99977227Y-84008911D01*
X100022773Y-84008911D01*
X111474537Y-88490036D01*
G37*
%TD.AperFunction*%
%TD*%
M02*
