%TF.GenerationSoftware,KiCad,Pcbnew,7.0.7*%
%TF.CreationDate,2023-09-11T21:54:18+02:00*%
%TF.ProjectId,blinkekatze,626c696e-6b65-46b6-9174-7a652e6b6963,rev?*%
%TF.SameCoordinates,Original*%
%TF.FileFunction,Copper,L4,Bot*%
%TF.FilePolarity,Positive*%
%FSLAX46Y46*%
G04 Gerber Fmt 4.6, Leading zero omitted, Abs format (unit mm)*
G04 Created by KiCad (PCBNEW 7.0.7) date 2023-09-11 21:54:18*
%MOMM*%
%LPD*%
G01*
G04 APERTURE LIST*
G04 Aperture macros list*
%AMHorizOval*
0 Thick line with rounded ends*
0 $1 width*
0 $2 $3 position (X,Y) of the first rounded end (center of the circle)*
0 $4 $5 position (X,Y) of the second rounded end (center of the circle)*
0 Add line between two ends*
20,1,$1,$2,$3,$4,$5,0*
0 Add two circle primitives to create the rounded ends*
1,1,$1,$2,$3*
1,1,$1,$4,$5*%
%AMRotRect*
0 Rectangle, with rotation*
0 The origin of the aperture is its center*
0 $1 length*
0 $2 width*
0 $3 Rotation angle, in degrees counterclockwise*
0 Add horizontal line*
21,1,$1,$2,0,0,$3*%
G04 Aperture macros list end*
%TA.AperFunction,ComponentPad*%
%ADD10RotRect,1.700000X1.700000X135.000000*%
%TD*%
%TA.AperFunction,ComponentPad*%
%ADD11HorizOval,1.700000X0.000000X0.000000X0.000000X0.000000X0*%
%TD*%
%TA.AperFunction,ComponentPad*%
%ADD12RotRect,1.350000X1.350000X315.000000*%
%TD*%
%TA.AperFunction,ComponentPad*%
%ADD13HorizOval,1.350000X0.000000X0.000000X0.000000X0.000000X0*%
%TD*%
%TA.AperFunction,ComponentPad*%
%ADD14R,1.700000X1.700000*%
%TD*%
%TA.AperFunction,ComponentPad*%
%ADD15O,1.700000X1.700000*%
%TD*%
%TA.AperFunction,ComponentPad*%
%ADD16C,0.600000*%
%TD*%
%TA.AperFunction,ComponentPad*%
%ADD17C,3.000000*%
%TD*%
%TA.AperFunction,ViaPad*%
%ADD18C,0.450000*%
%TD*%
%TA.AperFunction,Conductor*%
%ADD19C,0.127000*%
%TD*%
%TA.AperFunction,Conductor*%
%ADD20C,0.280000*%
%TD*%
%TA.AperFunction,Conductor*%
%ADD21C,1.000000*%
%TD*%
G04 APERTURE END LIST*
D10*
%TO.P,J3,1,Pin_1*%
%TO.N,GND*%
X121477498Y-125054902D03*
D11*
%TO.P,J3,2,Pin_2*%
%TO.N,/Battery/SCL*%
X123273549Y-123258851D03*
%TO.P,J3,3,Pin_3*%
%TO.N,/Battery/SDA*%
X125069600Y-121462800D03*
%TD*%
D12*
%TO.P,J2,1,Pin_1*%
%TO.N,/Logic/LED1*%
X79848427Y-74571573D03*
D13*
%TO.P,J2,2,Pin_2*%
%TO.N,/Logic/LED2*%
X78434213Y-75985787D03*
%TO.P,J2,3,Pin_3*%
%TO.N,VBUS*%
X77020000Y-77400000D03*
%TO.P,J2,4,Pin_4*%
%TO.N,/Logic/USB_D+*%
X75605786Y-78814214D03*
%TO.P,J2,5,Pin_5*%
%TO.N,/Logic/USB_D-*%
X74191573Y-80228427D03*
%TO.P,J2,6,Pin_6*%
%TO.N,GND*%
X72777359Y-81642641D03*
%TD*%
D14*
%TO.P,J1,1,Pin_1*%
%TO.N,/Charger/PWR_ON*%
X86350000Y-118575000D03*
D15*
%TO.P,J1,2,Pin_2*%
%TO.N,Net-(J1-Pin_2)*%
X86350000Y-121115000D03*
%TD*%
D16*
%TO.P,U9,11,PGND*%
%TO.N,GND*%
X90835000Y-98575000D03*
X89935000Y-98075000D03*
X91735000Y-98075000D03*
X90835000Y-97575000D03*
%TD*%
D17*
%TO.P,BTT2,1,1*%
%TO.N,GND1*%
X102500000Y-124400000D03*
X97500000Y-124400000D03*
X100000000Y-132000000D03*
%TD*%
%TO.P,BTT1,1,1*%
%TO.N,+BATT*%
X97500000Y-75600000D03*
X102500000Y-75600000D03*
X100000000Y-68000000D03*
%TD*%
D18*
%TO.N,/Battery/SCL*%
X109270800Y-108153200D03*
X113995200Y-109626400D03*
X107508800Y-106391200D03*
%TO.N,/Battery/SDA*%
X103350000Y-117150000D03*
%TO.N,/Battery/SCL*%
X102666800Y-116636800D03*
%TO.N,/Battery/SDA*%
X115570000Y-109220000D03*
%TO.N,GND1*%
X106350000Y-128250000D03*
X108400000Y-121400000D03*
X106750000Y-127850000D03*
X107400000Y-129350000D03*
X104000000Y-130250000D03*
X106900000Y-122350000D03*
X106850000Y-128700000D03*
X106850000Y-129400000D03*
%TO.N,GND*%
X113576294Y-128456774D03*
X102475000Y-97800000D03*
X102475000Y-100000000D03*
X71275000Y-93575000D03*
X77900000Y-96350000D03*
X115350000Y-124350000D03*
X82750000Y-78650000D03*
X102475000Y-98900000D03*
X74225000Y-94800000D03*
X112162237Y-93918882D03*
X95700000Y-112900000D03*
X100900000Y-100900000D03*
X104675000Y-100000000D03*
X110272507Y-108909298D03*
X81750000Y-96975000D03*
X78050000Y-90725000D03*
X93918882Y-87837763D03*
X108200000Y-102175000D03*
X114676294Y-128006774D03*
X103575000Y-98900000D03*
X112900000Y-104300000D03*
X89727493Y-91090702D03*
X76225000Y-89975000D03*
X104300000Y-87100000D03*
X99036066Y-86436415D03*
X99225000Y-98300000D03*
X92000000Y-69400000D03*
X108200000Y-101050000D03*
X104675000Y-97800000D03*
X95100000Y-80950000D03*
X103575000Y-100000000D03*
X77438249Y-79150000D03*
X98625000Y-98350000D03*
X96600000Y-78850000D03*
X80700000Y-86900000D03*
X79100000Y-96550000D03*
X83450000Y-78650000D03*
X114176294Y-128256774D03*
X107225000Y-97600000D03*
X72750000Y-94200000D03*
X79400000Y-95825000D03*
X73500000Y-94500000D03*
X102650000Y-90450000D03*
X76750000Y-91250000D03*
X114800000Y-127300000D03*
X75475000Y-91800000D03*
X83450000Y-79300000D03*
X90650000Y-68150000D03*
X70525000Y-93275000D03*
X78875000Y-97425000D03*
X76425000Y-95750000D03*
X100963934Y-113563585D03*
X69800000Y-92975000D03*
X77600000Y-81950000D03*
X87837763Y-106081118D03*
X104275000Y-103500000D03*
X72000000Y-93900000D03*
X101400000Y-101300000D03*
X108909298Y-89727493D03*
X94700000Y-76000000D03*
X86436415Y-100963934D03*
X94100000Y-81150000D03*
X69050000Y-93375000D03*
X100500000Y-101500000D03*
X90725000Y-95125000D03*
X106081118Y-112162237D03*
X71550000Y-83350000D03*
X103575000Y-97800000D03*
X107425000Y-103550000D03*
X100900000Y-100200000D03*
X75675000Y-88675000D03*
X74375000Y-89200000D03*
X77500000Y-89450000D03*
X101325000Y-96300000D03*
X90900000Y-72750000D03*
X74150000Y-92350000D03*
X77175000Y-96050000D03*
X100462498Y-95450000D03*
X108193749Y-103000000D03*
X101500000Y-100500000D03*
X99787498Y-95450000D03*
X74925000Y-90500000D03*
X113563585Y-99036066D03*
X104825000Y-95750000D03*
X104675000Y-98900000D03*
X107275000Y-101550000D03*
X91090702Y-110272507D03*
X77275000Y-92550000D03*
X88900000Y-70750000D03*
X82600000Y-93600000D03*
X106637498Y-102975000D03*
X92700000Y-76350000D03*
X81025000Y-97225000D03*
X83900000Y-88900000D03*
X75700000Y-95425000D03*
X76000000Y-93100000D03*
X73625000Y-91050000D03*
X74950000Y-95125000D03*
X87100000Y-95700000D03*
%TO.N,+3V3*%
X81825000Y-95350000D03*
X92800000Y-71950000D03*
X80250000Y-86150000D03*
X103150000Y-91400000D03*
X93800000Y-76350000D03*
X84775000Y-97050000D03*
X83900000Y-96175000D03*
X103150000Y-93200000D03*
X85000000Y-89200000D03*
X103150000Y-80900000D03*
X84325000Y-96600000D03*
X76600000Y-81200000D03*
X79150000Y-83400000D03*
X93150000Y-77250000D03*
X95850000Y-80750000D03*
X84200000Y-89800000D03*
X75350000Y-83000000D03*
X82125000Y-96075000D03*
%TO.N,Net-(U8-REGN)*%
X103750000Y-94325000D03*
X104975000Y-103650000D03*
%TO.N,Net-(U2-VCC)*%
X107500000Y-122100000D03*
X105550000Y-123600000D03*
%TO.N,/Logic/USB_D-*%
X73350000Y-86260000D03*
X78538249Y-80900000D03*
%TO.N,/Logic/USB_D+*%
X79288249Y-80300000D03*
X73350000Y-86930000D03*
%TO.N,/Charger/VLED*%
X101116718Y-86494614D03*
X98883282Y-113505386D03*
X93800000Y-112050000D03*
X108760111Y-110339388D03*
X106200000Y-87950000D03*
X113505386Y-101116718D03*
X95863425Y-87095301D03*
X105650000Y-103700000D03*
X89660612Y-108760111D03*
X86494614Y-98883282D03*
X87095301Y-104136575D03*
X106225000Y-103450000D03*
X104136575Y-112904699D03*
X87950000Y-93800000D03*
X91239889Y-89660612D03*
X110339388Y-91239889D03*
X112050000Y-106200000D03*
X112904699Y-95863425D03*
X106293749Y-102400000D03*
%TO.N,VBUS*%
X106050000Y-101475000D03*
X81188249Y-78500000D03*
X106650000Y-101650000D03*
X79445952Y-78142297D03*
X79945952Y-78642297D03*
X81672331Y-77900000D03*
X105925000Y-100675000D03*
X105300000Y-100700000D03*
%TO.N,/VBAT*%
X100750000Y-97100000D03*
X101000000Y-80200000D03*
X92900000Y-111550000D03*
X101000000Y-79500000D03*
X100100000Y-80600000D03*
X90650000Y-113800000D03*
X101600000Y-97000000D03*
X101000000Y-78800000D03*
X107050000Y-95100000D03*
X99450000Y-97100000D03*
X100100000Y-78300000D03*
X100125000Y-97025000D03*
%TO.N,/Charger/PWR_ON*%
X97950000Y-105100000D03*
X104800000Y-94450000D03*
X88175000Y-104075000D03*
%TO.N,Net-(U1-IO10)*%
X87500000Y-101000000D03*
X79650000Y-89950000D03*
%TO.N,+BATT*%
X109650000Y-120900000D03*
X108450000Y-118300000D03*
%TO.N,/Logic/LED2*%
X69200000Y-88300000D03*
%TO.N,/Logic/LED1*%
X70200000Y-85850000D03*
%TO.N,/Battery/SDA*%
X105900000Y-95150000D03*
X91900000Y-92050000D03*
X94650000Y-79250000D03*
X92450000Y-80000000D03*
X86150000Y-86300000D03*
%TO.N,/Battery/SCL*%
X91600000Y-90750000D03*
X87275000Y-86425000D03*
X106500000Y-96400000D03*
%TO.N,/Charger/~{CHARGE_ENABLE}*%
X81200000Y-90200000D03*
X104225000Y-94912500D03*
%TD*%
D19*
%TO.N,/Battery/SDA*%
X110642400Y-104190800D02*
X108508800Y-106324400D01*
X108508800Y-106324400D02*
X103350000Y-111483200D01*
X115570000Y-109220000D02*
X113639600Y-107289600D01*
X113639600Y-107289600D02*
X109474000Y-107289600D01*
X109474000Y-107289600D02*
X108508800Y-106324400D01*
%TO.N,/Battery/SCL*%
X107508800Y-106391200D02*
X110000000Y-103900000D01*
X112522000Y-108153200D02*
X109270800Y-108153200D01*
X102666800Y-111233200D02*
X107508800Y-106391200D01*
X113995200Y-109626400D02*
X112522000Y-108153200D01*
%TO.N,/Battery/SDA*%
X103350000Y-111483200D02*
X103350000Y-117150000D01*
%TO.N,/Battery/SCL*%
X102666800Y-116636800D02*
X102666800Y-111233200D01*
X110000000Y-103900000D02*
X110000000Y-99650000D01*
X110000000Y-99650000D02*
X106750000Y-96400000D01*
X106750000Y-96400000D02*
X106500000Y-96400000D01*
%TO.N,/Battery/SDA*%
X105900000Y-95150000D02*
X106376800Y-95150000D01*
X106376800Y-95150000D02*
X110642400Y-99415600D01*
X110642400Y-99415600D02*
X110642400Y-104190800D01*
%TO.N,GND1*%
X106900000Y-121750000D02*
X107850000Y-121400000D01*
X106900000Y-122350000D02*
X106900000Y-121750000D01*
X107850000Y-121400000D02*
X108400000Y-121400000D01*
%TO.N,+3V3*%
X103150000Y-91400000D02*
X103150000Y-93200000D01*
X103150000Y-91400000D02*
X103150000Y-80900000D01*
%TO.N,Net-(U8-REGN)*%
X104975000Y-103680488D02*
X105494512Y-104200000D01*
X108750000Y-100850000D02*
X103750000Y-95850000D01*
X108750000Y-103300000D02*
X108750000Y-100850000D01*
X104975000Y-103650000D02*
X104975000Y-103680488D01*
X105494512Y-104200000D02*
X107850000Y-104200000D01*
X103750000Y-94325000D02*
X103750000Y-95850000D01*
X107850000Y-104200000D02*
X108750000Y-103300000D01*
%TO.N,Net-(U2-VCC)*%
X105550000Y-123600000D02*
X107350000Y-122850000D01*
X107350000Y-122850000D02*
X107500000Y-122100000D01*
D20*
%TO.N,/Logic/USB_D-*%
X73435000Y-86396500D02*
X73350000Y-86311500D01*
X78538249Y-80900000D02*
X78881249Y-81243000D01*
X77393000Y-83269206D02*
X74265706Y-86396500D01*
X77393000Y-83257455D02*
X78881249Y-81769206D01*
X78881249Y-81243000D02*
X78881249Y-81769206D01*
X77393000Y-83269206D02*
X77393000Y-83257455D01*
X74265706Y-86396500D02*
X73435000Y-86396500D01*
%TO.N,/Logic/USB_D+*%
X79288249Y-81949545D02*
X79288249Y-80300000D01*
X73435000Y-86803500D02*
X74434294Y-86803500D01*
X74434294Y-86803500D02*
X79288249Y-81949545D01*
X73350000Y-86888500D02*
X73435000Y-86803500D01*
D19*
%TO.N,/VBAT*%
X101700000Y-93800000D02*
X105750000Y-93800000D01*
X105750000Y-93800000D02*
X107050000Y-95100000D01*
X90650000Y-113800000D02*
X92900000Y-111550000D01*
%TO.N,/Charger/PWR_ON*%
X97950000Y-105100000D02*
X108100000Y-105100000D01*
X109500000Y-103700000D02*
X109500000Y-100550000D01*
X108100000Y-105100000D02*
X109500000Y-103700000D01*
X109500000Y-100550000D02*
X105300000Y-96350000D01*
X86350000Y-105900000D02*
X88175000Y-104075000D01*
X105300000Y-96350000D02*
X105300000Y-94950000D01*
X86350000Y-118575000D02*
X86350000Y-105900000D01*
X105300000Y-94950000D02*
X104800000Y-94450000D01*
%TO.N,Net-(U1-IO10)*%
X87500000Y-101000000D02*
X87500000Y-97800000D01*
X87500000Y-97800000D02*
X79650000Y-89950000D01*
D21*
%TO.N,+BATT*%
X102500000Y-75600000D02*
X100000000Y-75600000D01*
X100000000Y-68000000D02*
X100000000Y-72000000D01*
D19*
X102900000Y-68000000D02*
X100000000Y-68000000D01*
D21*
X100000000Y-75600000D02*
X97300000Y-75600000D01*
D19*
X123450000Y-111100000D02*
X123450000Y-92500000D01*
X116250000Y-118300000D02*
X123450000Y-111100000D01*
X109650000Y-120900000D02*
X117350000Y-120900000D01*
X123450000Y-92500000D02*
X102950000Y-72000000D01*
X126150000Y-112100000D02*
X126150000Y-91250000D01*
D21*
X100000000Y-72000000D02*
X100000000Y-75600000D01*
D19*
X102950000Y-72000000D02*
X100000000Y-72000000D01*
X108450000Y-118300000D02*
X116250000Y-118300000D01*
X117350000Y-120900000D02*
X126150000Y-112100000D01*
X126150000Y-91250000D02*
X102900000Y-68000000D01*
%TO.N,/Logic/LED2*%
X68873117Y-87973117D02*
X68873117Y-86604708D01*
X77142807Y-75983544D02*
X78462807Y-75983544D01*
X68873117Y-86604708D02*
X69101699Y-86073415D01*
X70108113Y-84025549D02*
X70662420Y-83028187D01*
X69200000Y-88300000D02*
X68873117Y-87973117D01*
X71250000Y-82050000D02*
X71568898Y-81557453D01*
X71568898Y-81557453D02*
X77142807Y-75983544D01*
X70662420Y-83028187D02*
X71250000Y-82050000D01*
X69587678Y-85041004D02*
X70108113Y-84025549D01*
X69101699Y-86073415D02*
X69587678Y-85041004D01*
%TO.N,/Logic/LED1*%
X70200000Y-85550000D02*
X70200000Y-85850000D01*
X79848427Y-75901573D02*
X70200000Y-85550000D01*
X79848427Y-74571573D02*
X79848427Y-75901573D01*
%TO.N,/Battery/SDA*%
X92450000Y-80000000D02*
X93200000Y-79250000D01*
X86150000Y-86300000D02*
X91900000Y-92050000D01*
X93200000Y-79250000D02*
X94650000Y-79250000D01*
%TO.N,/Battery/SCL*%
X91600000Y-90750000D02*
X87275000Y-86425000D01*
%TO.N,/Charger/~{CHARGE_ENABLE}*%
X89750000Y-99000000D02*
X89744512Y-99000000D01*
X104212500Y-95812500D02*
X109100000Y-100700000D01*
X95300000Y-104550000D02*
X89750000Y-99000000D01*
X81200000Y-90455488D02*
X81200000Y-90200000D01*
X109100000Y-100700000D02*
X109100000Y-103450000D01*
X108000000Y-104550000D02*
X95300000Y-104550000D01*
X109100000Y-103450000D02*
X108000000Y-104550000D01*
X89744512Y-99000000D02*
X81200000Y-90455488D01*
X104212500Y-94912500D02*
X104212500Y-95812500D01*
%TD*%
%TA.AperFunction,Conductor*%
%TO.N,VBUS*%
G36*
X80742249Y-76493529D02*
G01*
X82332152Y-78131611D01*
X82349801Y-78175625D01*
X82346243Y-78634594D01*
X82345476Y-78643883D01*
X82344508Y-78649997D01*
X82344508Y-78649998D01*
X82345241Y-78654628D01*
X82346008Y-78664886D01*
X82299999Y-84600001D01*
X89349811Y-90846668D01*
X89370748Y-90889678D01*
X89364050Y-90921820D01*
X89341849Y-90965393D01*
X89341847Y-90965397D01*
X89341846Y-90965398D01*
X89341847Y-90965398D01*
X89322001Y-91090702D01*
X89329119Y-91135646D01*
X89341847Y-91216006D01*
X89341847Y-91216007D01*
X89370344Y-91271935D01*
X89399443Y-91329044D01*
X89489151Y-91418752D01*
X89602189Y-91476348D01*
X89727493Y-91496194D01*
X89852797Y-91476348D01*
X89946692Y-91428505D01*
X89994377Y-91424753D01*
X90016511Y-91437414D01*
X98100000Y-98600000D01*
X98282720Y-98600000D01*
X98326914Y-98618306D01*
X98386658Y-98678050D01*
X98499696Y-98735646D01*
X98625000Y-98755492D01*
X98750304Y-98735646D01*
X98863342Y-98678050D01*
X98906450Y-98634941D01*
X98950641Y-98616637D01*
X98981795Y-98626760D01*
X98982276Y-98625817D01*
X98986657Y-98628049D01*
X98986658Y-98628050D01*
X99099696Y-98685646D01*
X99225000Y-98705492D01*
X99350304Y-98685646D01*
X99463342Y-98628050D01*
X99473086Y-98618306D01*
X99517280Y-98600000D01*
X102076375Y-98600000D01*
X102120569Y-98618306D01*
X102138875Y-98662500D01*
X102132063Y-98690874D01*
X102089355Y-98774691D01*
X102089354Y-98774695D01*
X102069508Y-98900000D01*
X102089354Y-99025304D01*
X102089354Y-99025305D01*
X102133584Y-99112110D01*
X102146950Y-99138342D01*
X102236658Y-99228050D01*
X102349696Y-99285646D01*
X102475000Y-99305492D01*
X102600304Y-99285646D01*
X102713342Y-99228050D01*
X102803050Y-99138342D01*
X102860646Y-99025304D01*
X102880492Y-98900000D01*
X102860646Y-98774696D01*
X102860644Y-98774693D01*
X102860644Y-98774691D01*
X102817937Y-98690874D01*
X102814184Y-98643186D01*
X102845251Y-98606812D01*
X102873625Y-98600000D01*
X103176375Y-98600000D01*
X103220569Y-98618306D01*
X103238875Y-98662500D01*
X103232063Y-98690874D01*
X103189355Y-98774691D01*
X103189354Y-98774695D01*
X103169508Y-98900000D01*
X103189354Y-99025304D01*
X103189354Y-99025305D01*
X103233584Y-99112110D01*
X103246950Y-99138342D01*
X103336658Y-99228050D01*
X103449696Y-99285646D01*
X103575000Y-99305492D01*
X103700304Y-99285646D01*
X103813342Y-99228050D01*
X103903050Y-99138342D01*
X103960646Y-99025304D01*
X103980492Y-98900000D01*
X103960646Y-98774696D01*
X103960644Y-98774693D01*
X103960644Y-98774691D01*
X103917937Y-98690874D01*
X103914184Y-98643186D01*
X103945251Y-98606812D01*
X103973625Y-98600000D01*
X104276375Y-98600000D01*
X104320569Y-98618306D01*
X104338875Y-98662500D01*
X104332063Y-98690874D01*
X104289355Y-98774691D01*
X104289354Y-98774695D01*
X104269508Y-98900000D01*
X104289354Y-99025304D01*
X104289354Y-99025305D01*
X104333584Y-99112110D01*
X104346950Y-99138342D01*
X104436658Y-99228050D01*
X104549696Y-99285646D01*
X104675000Y-99305492D01*
X104800304Y-99285646D01*
X104913342Y-99228050D01*
X105003050Y-99138342D01*
X105060646Y-99025304D01*
X105069092Y-98971977D01*
X105094085Y-98931193D01*
X105140599Y-98920025D01*
X105166945Y-98930752D01*
X107073626Y-100281318D01*
X107099109Y-100321801D01*
X107100000Y-100332320D01*
X107100000Y-101151375D01*
X107081694Y-101195569D01*
X107065875Y-101207063D01*
X107036657Y-101221950D01*
X106946950Y-101311657D01*
X106889354Y-101424694D01*
X106889354Y-101424695D01*
X106869508Y-101549999D01*
X106889354Y-101675304D01*
X106889354Y-101675305D01*
X106946949Y-101788341D01*
X106946950Y-101788342D01*
X107036658Y-101878050D01*
X107065874Y-101892936D01*
X107096941Y-101929310D01*
X107100000Y-101948624D01*
X107100000Y-102137500D01*
X107081694Y-102181694D01*
X107037500Y-102200000D01*
X106679635Y-102200000D01*
X106635441Y-102181694D01*
X106623946Y-102165872D01*
X106621799Y-102161658D01*
X106532091Y-102071950D01*
X106419053Y-102014354D01*
X106293749Y-101994508D01*
X106168444Y-102014354D01*
X106168443Y-102014354D01*
X106055406Y-102071950D01*
X105965698Y-102161658D01*
X105963552Y-102165872D01*
X105927179Y-102196940D01*
X105907863Y-102200000D01*
X97424151Y-102200000D01*
X97382125Y-102183761D01*
X96629458Y-101500000D01*
X100094508Y-101500000D01*
X100114354Y-101625304D01*
X100114354Y-101625305D01*
X100155212Y-101705492D01*
X100171950Y-101738342D01*
X100261658Y-101828050D01*
X100374696Y-101885646D01*
X100500000Y-101905492D01*
X100625304Y-101885646D01*
X100738342Y-101828050D01*
X100828050Y-101738342D01*
X100885646Y-101625304D01*
X100905492Y-101500000D01*
X100905492Y-101499997D01*
X100905492Y-101499996D01*
X100900953Y-101471339D01*
X100912119Y-101424826D01*
X100952906Y-101399832D01*
X100999419Y-101410998D01*
X101018371Y-101433188D01*
X101052413Y-101500000D01*
X101071950Y-101538342D01*
X101161658Y-101628050D01*
X101274696Y-101685646D01*
X101400000Y-101705492D01*
X101525304Y-101685646D01*
X101638342Y-101628050D01*
X101728050Y-101538342D01*
X101785646Y-101425304D01*
X101805492Y-101300000D01*
X101785646Y-101174696D01*
X101728050Y-101061658D01*
X101638342Y-100971950D01*
X101637596Y-100971204D01*
X101619290Y-100927010D01*
X101637596Y-100882816D01*
X101653416Y-100871322D01*
X101703056Y-100846029D01*
X101738342Y-100828050D01*
X101828050Y-100738342D01*
X101885646Y-100625304D01*
X101905492Y-100500000D01*
X101885646Y-100374696D01*
X101828050Y-100261658D01*
X101738342Y-100171950D01*
X101625304Y-100114354D01*
X101500000Y-100094508D01*
X101374694Y-100114354D01*
X101374691Y-100114355D01*
X101374540Y-100114433D01*
X101374426Y-100114441D01*
X101370019Y-100115874D01*
X101369674Y-100114814D01*
X101326852Y-100118176D01*
X101290483Y-100087102D01*
X101286734Y-100078048D01*
X101285646Y-100074700D01*
X101285646Y-100074696D01*
X101247586Y-100000000D01*
X102069508Y-100000000D01*
X102089354Y-100125304D01*
X102089354Y-100125305D01*
X102103658Y-100153377D01*
X102146950Y-100238342D01*
X102236658Y-100328050D01*
X102349696Y-100385646D01*
X102475000Y-100405492D01*
X102600304Y-100385646D01*
X102713342Y-100328050D01*
X102803050Y-100238342D01*
X102860646Y-100125304D01*
X102880492Y-100000000D01*
X103169508Y-100000000D01*
X103189354Y-100125304D01*
X103189354Y-100125305D01*
X103203658Y-100153377D01*
X103246950Y-100238342D01*
X103336658Y-100328050D01*
X103449696Y-100385646D01*
X103575000Y-100405492D01*
X103700304Y-100385646D01*
X103813342Y-100328050D01*
X103903050Y-100238342D01*
X103960646Y-100125304D01*
X103980492Y-100000000D01*
X104269508Y-100000000D01*
X104289354Y-100125304D01*
X104289354Y-100125305D01*
X104303658Y-100153377D01*
X104346950Y-100238342D01*
X104436658Y-100328050D01*
X104549696Y-100385646D01*
X104675000Y-100405492D01*
X104800304Y-100385646D01*
X104913342Y-100328050D01*
X105003050Y-100238342D01*
X105060646Y-100125304D01*
X105080492Y-100000000D01*
X105060646Y-99874696D01*
X105003050Y-99761658D01*
X104913342Y-99671950D01*
X104800304Y-99614354D01*
X104675000Y-99594508D01*
X104674999Y-99594508D01*
X104549695Y-99614354D01*
X104549694Y-99614354D01*
X104436657Y-99671950D01*
X104346950Y-99761657D01*
X104289354Y-99874694D01*
X104289354Y-99874695D01*
X104269508Y-100000000D01*
X103980492Y-100000000D01*
X103960646Y-99874696D01*
X103903050Y-99761658D01*
X103813342Y-99671950D01*
X103700304Y-99614354D01*
X103575000Y-99594508D01*
X103449695Y-99614354D01*
X103449694Y-99614354D01*
X103336657Y-99671950D01*
X103246950Y-99761657D01*
X103189354Y-99874694D01*
X103189354Y-99874695D01*
X103169508Y-100000000D01*
X102880492Y-100000000D01*
X102860646Y-99874696D01*
X102803050Y-99761658D01*
X102713342Y-99671950D01*
X102600304Y-99614354D01*
X102475000Y-99594508D01*
X102474999Y-99594508D01*
X102349695Y-99614354D01*
X102349694Y-99614354D01*
X102236657Y-99671950D01*
X102146950Y-99761657D01*
X102089354Y-99874694D01*
X102089354Y-99874695D01*
X102069508Y-100000000D01*
X101247586Y-100000000D01*
X101228050Y-99961658D01*
X101138342Y-99871950D01*
X101025304Y-99814354D01*
X100900000Y-99794508D01*
X100774695Y-99814354D01*
X100774694Y-99814354D01*
X100661657Y-99871950D01*
X100571950Y-99961657D01*
X100514354Y-100074694D01*
X100514354Y-100074695D01*
X100494508Y-100200000D01*
X100514354Y-100325304D01*
X100514354Y-100325305D01*
X100571950Y-100438342D01*
X100639414Y-100505806D01*
X100657720Y-100550000D01*
X100639414Y-100594194D01*
X100571950Y-100661657D01*
X100514354Y-100774694D01*
X100514354Y-100774695D01*
X100494508Y-100900000D01*
X100514918Y-101028866D01*
X100503750Y-101075380D01*
X100462964Y-101100373D01*
X100374701Y-101114352D01*
X100374694Y-101114354D01*
X100261657Y-101171950D01*
X100171950Y-101261657D01*
X100114354Y-101374694D01*
X100114354Y-101374695D01*
X100094508Y-101500000D01*
X96629458Y-101500000D01*
X89612016Y-95124999D01*
X90319508Y-95124999D01*
X90339354Y-95250304D01*
X90339354Y-95250305D01*
X90390152Y-95350000D01*
X90396950Y-95363342D01*
X90486658Y-95453050D01*
X90599696Y-95510646D01*
X90725000Y-95530492D01*
X90850304Y-95510646D01*
X90963342Y-95453050D01*
X91053050Y-95363342D01*
X91110646Y-95250304D01*
X91130492Y-95125000D01*
X91110646Y-94999696D01*
X91053050Y-94886658D01*
X90963342Y-94796950D01*
X90850304Y-94739354D01*
X90725000Y-94719508D01*
X90724999Y-94719508D01*
X90599695Y-94739354D01*
X90599694Y-94739354D01*
X90486657Y-94796950D01*
X90396950Y-94886657D01*
X90339354Y-94999694D01*
X90339354Y-94999695D01*
X90319508Y-95124999D01*
X89612016Y-95124999D01*
X88355068Y-93983124D01*
X88334666Y-93939858D01*
X88335363Y-93927086D01*
X88335644Y-93925306D01*
X88335646Y-93925304D01*
X88355492Y-93800000D01*
X88335646Y-93674696D01*
X88278050Y-93561658D01*
X88188342Y-93471950D01*
X88075304Y-93414354D01*
X87950000Y-93394508D01*
X87824695Y-93414354D01*
X87801827Y-93426006D01*
X87754139Y-93429757D01*
X87731428Y-93416578D01*
X84293664Y-90293540D01*
X84273262Y-90250274D01*
X84289429Y-90205253D01*
X84320970Y-90188222D01*
X84320627Y-90187165D01*
X84325299Y-90185646D01*
X84325304Y-90185646D01*
X84438342Y-90128050D01*
X84528050Y-90038342D01*
X84585646Y-89925304D01*
X84605492Y-89800000D01*
X84585646Y-89674696D01*
X84528050Y-89561658D01*
X84438342Y-89471950D01*
X84325304Y-89414354D01*
X84200000Y-89394508D01*
X84074695Y-89414354D01*
X84074694Y-89414354D01*
X83961657Y-89471950D01*
X83871950Y-89561657D01*
X83814354Y-89674694D01*
X83814352Y-89674701D01*
X83807060Y-89720743D01*
X83782066Y-89761529D01*
X83735552Y-89772695D01*
X83703304Y-89757226D01*
X83304032Y-89394508D01*
X83205072Y-89304608D01*
X83196046Y-89294398D01*
X82917647Y-88900000D01*
X83494508Y-88900000D01*
X83514354Y-89025304D01*
X83514354Y-89025305D01*
X83571949Y-89138342D01*
X83571950Y-89138342D01*
X83661658Y-89228050D01*
X83774696Y-89285646D01*
X83900000Y-89305492D01*
X84025304Y-89285646D01*
X84138342Y-89228050D01*
X84166392Y-89200000D01*
X84594508Y-89200000D01*
X84614354Y-89325304D01*
X84614354Y-89325305D01*
X84618052Y-89332562D01*
X84671950Y-89438342D01*
X84761658Y-89528050D01*
X84874696Y-89585646D01*
X85000000Y-89605492D01*
X85125304Y-89585646D01*
X85238342Y-89528050D01*
X85328050Y-89438342D01*
X85385646Y-89325304D01*
X85405492Y-89200000D01*
X85385646Y-89074696D01*
X85328050Y-88961658D01*
X85238342Y-88871950D01*
X85125304Y-88814354D01*
X85000000Y-88794508D01*
X84874695Y-88814354D01*
X84874694Y-88814354D01*
X84761657Y-88871950D01*
X84671950Y-88961657D01*
X84614354Y-89074694D01*
X84614354Y-89074695D01*
X84594508Y-89200000D01*
X84166392Y-89200000D01*
X84228050Y-89138342D01*
X84285646Y-89025304D01*
X84305492Y-88900000D01*
X84285646Y-88774696D01*
X84228050Y-88661658D01*
X84138342Y-88571950D01*
X84025304Y-88514354D01*
X83900000Y-88494508D01*
X83774695Y-88514354D01*
X83774694Y-88514354D01*
X83661657Y-88571950D01*
X83571950Y-88661657D01*
X83514354Y-88774694D01*
X83514354Y-88774695D01*
X83494508Y-88900000D01*
X82917647Y-88900000D01*
X80211440Y-85066206D01*
X80200000Y-85030163D01*
X80200000Y-79350001D01*
X80199999Y-79349999D01*
X78994421Y-78096198D01*
X78976986Y-78051655D01*
X78996155Y-78007828D01*
X78997301Y-78006753D01*
X80655230Y-76490932D01*
X80700197Y-76474623D01*
X80742249Y-76493529D01*
G37*
%TD.AperFunction*%
%TD*%
%TA.AperFunction,Conductor*%
%TO.N,/VBAT*%
G36*
X102081694Y-77918306D02*
G01*
X102100000Y-77962500D01*
X102100000Y-97537500D01*
X102081694Y-97581694D01*
X102037500Y-97600000D01*
X99062500Y-97600000D01*
X99018306Y-97581694D01*
X99000000Y-97537500D01*
X99000000Y-96300000D01*
X100919508Y-96300000D01*
X100939354Y-96425304D01*
X100939354Y-96425305D01*
X100996949Y-96538342D01*
X100996950Y-96538342D01*
X101086658Y-96628050D01*
X101199696Y-96685646D01*
X101325000Y-96705492D01*
X101450304Y-96685646D01*
X101563342Y-96628050D01*
X101653050Y-96538342D01*
X101710646Y-96425304D01*
X101730492Y-96300000D01*
X101710646Y-96174696D01*
X101653050Y-96061658D01*
X101563342Y-95971950D01*
X101450304Y-95914354D01*
X101325000Y-95894508D01*
X101199695Y-95914354D01*
X101199694Y-95914354D01*
X101086657Y-95971950D01*
X100996950Y-96061657D01*
X100939354Y-96174694D01*
X100939354Y-96174695D01*
X100919508Y-96300000D01*
X99000000Y-96300000D01*
X99000000Y-95450000D01*
X99382006Y-95450000D01*
X99401852Y-95575304D01*
X99401852Y-95575305D01*
X99449998Y-95669795D01*
X99459448Y-95688342D01*
X99549156Y-95778050D01*
X99662194Y-95835646D01*
X99787498Y-95855492D01*
X99912802Y-95835646D01*
X100025840Y-95778050D01*
X100080803Y-95723086D01*
X100124998Y-95704780D01*
X100169192Y-95723086D01*
X100224156Y-95778050D01*
X100337194Y-95835646D01*
X100462498Y-95855492D01*
X100587802Y-95835646D01*
X100700840Y-95778050D01*
X100790548Y-95688342D01*
X100848144Y-95575304D01*
X100867990Y-95450000D01*
X100848144Y-95324696D01*
X100790548Y-95211658D01*
X100700840Y-95121950D01*
X100587802Y-95064354D01*
X100462498Y-95044508D01*
X100462497Y-95044508D01*
X100337193Y-95064354D01*
X100337192Y-95064354D01*
X100224155Y-95121950D01*
X100169192Y-95176914D01*
X100124998Y-95195220D01*
X100080804Y-95176914D01*
X100025840Y-95121950D01*
X99912802Y-95064354D01*
X99787498Y-95044508D01*
X99662193Y-95064354D01*
X99662192Y-95064354D01*
X99549155Y-95121950D01*
X99459448Y-95211657D01*
X99401852Y-95324694D01*
X99401852Y-95324695D01*
X99382006Y-95450000D01*
X99000000Y-95450000D01*
X99000000Y-86900999D01*
X99018306Y-86856805D01*
X99052720Y-86839269D01*
X99161370Y-86822061D01*
X99274408Y-86764465D01*
X99364116Y-86674757D01*
X99421712Y-86561719D01*
X99432340Y-86494614D01*
X100711226Y-86494614D01*
X100731072Y-86619918D01*
X100731072Y-86619919D01*
X100759014Y-86674757D01*
X100788668Y-86732956D01*
X100878376Y-86822664D01*
X100991414Y-86880260D01*
X101116718Y-86900106D01*
X101242022Y-86880260D01*
X101355060Y-86822664D01*
X101444768Y-86732956D01*
X101502364Y-86619918D01*
X101522210Y-86494614D01*
X101502364Y-86369310D01*
X101444768Y-86256272D01*
X101355060Y-86166564D01*
X101242022Y-86108968D01*
X101116718Y-86089122D01*
X101116717Y-86089122D01*
X100991413Y-86108968D01*
X100991412Y-86108968D01*
X100878375Y-86166564D01*
X100788668Y-86256271D01*
X100731072Y-86369308D01*
X100731072Y-86369309D01*
X100711226Y-86494614D01*
X99432340Y-86494614D01*
X99441558Y-86436415D01*
X99421712Y-86311111D01*
X99364116Y-86198073D01*
X99274408Y-86108365D01*
X99236642Y-86089122D01*
X99161371Y-86050769D01*
X99161364Y-86050767D01*
X99052723Y-86033560D01*
X99011936Y-86008566D01*
X99000000Y-85971830D01*
X99000000Y-77962500D01*
X99018306Y-77918306D01*
X99062500Y-77900000D01*
X102037500Y-77900000D01*
X102081694Y-77918306D01*
G37*
%TD.AperFunction*%
%TD*%
M02*
