%TF.GenerationSoftware,KiCad,Pcbnew,7.0.7*%
%TF.CreationDate,2023-09-11T21:54:17+02:00*%
%TF.ProjectId,blinkekatze,626c696e-6b65-46b6-9174-7a652e6b6963,rev?*%
%TF.SameCoordinates,Original*%
%TF.FileFunction,Copper,L1,Top*%
%TF.FilePolarity,Positive*%
%FSLAX46Y46*%
G04 Gerber Fmt 4.6, Leading zero omitted, Abs format (unit mm)*
G04 Created by KiCad (PCBNEW 7.0.7) date 2023-09-11 21:54:17*
%MOMM*%
%LPD*%
G01*
G04 APERTURE LIST*
G04 Aperture macros list*
%AMRoundRect*
0 Rectangle with rounded corners*
0 $1 Rounding radius*
0 $2 $3 $4 $5 $6 $7 $8 $9 X,Y pos of 4 corners*
0 Add a 4 corners polygon primitive as box body*
4,1,4,$2,$3,$4,$5,$6,$7,$8,$9,$2,$3,0*
0 Add four circle primitives for the rounded corners*
1,1,$1+$1,$2,$3*
1,1,$1+$1,$4,$5*
1,1,$1+$1,$6,$7*
1,1,$1+$1,$8,$9*
0 Add four rect primitives between the rounded corners*
20,1,$1+$1,$2,$3,$4,$5,0*
20,1,$1+$1,$4,$5,$6,$7,0*
20,1,$1+$1,$6,$7,$8,$9,0*
20,1,$1+$1,$8,$9,$2,$3,0*%
%AMHorizOval*
0 Thick line with rounded ends*
0 $1 width*
0 $2 $3 position (X,Y) of the first rounded end (center of the circle)*
0 $4 $5 position (X,Y) of the second rounded end (center of the circle)*
0 Add line between two ends*
20,1,$1,$2,$3,$4,$5,0*
0 Add two circle primitives to create the rounded ends*
1,1,$1,$2,$3*
1,1,$1,$4,$5*%
%AMRotRect*
0 Rectangle, with rotation*
0 The origin of the aperture is its center*
0 $1 length*
0 $2 width*
0 $3 Rotation angle, in degrees counterclockwise*
0 Add horizontal line*
21,1,$1,$2,0,0,$3*%
%AMOutline4P*
0 Free polygon, 4 corners , with rotation*
0 The origin of the aperture is its center*
0 number of corners: always 4*
0 $1 to $8 corner X, Y*
0 $9 Rotation angle, in degrees counterclockwise*
0 create outline with 4 corners*
4,1,4,$1,$2,$3,$4,$5,$6,$7,$8,$1,$2,$9*%
%AMOutline5P*
0 Free polygon, 5 corners , with rotation*
0 The origin of the aperture is its center*
0 number of corners: always 5*
0 $1 to $10 corner X, Y*
0 $11 Rotation angle, in degrees counterclockwise*
0 create outline with 5 corners*
4,1,5,$1,$2,$3,$4,$5,$6,$7,$8,$9,$10,$1,$2,$11*%
%AMOutline6P*
0 Free polygon, 6 corners , with rotation*
0 The origin of the aperture is its center*
0 number of corners: always 6*
0 $1 to $12 corner X, Y*
0 $13 Rotation angle, in degrees counterclockwise*
0 create outline with 6 corners*
4,1,6,$1,$2,$3,$4,$5,$6,$7,$8,$9,$10,$11,$12,$1,$2,$13*%
%AMOutline7P*
0 Free polygon, 7 corners , with rotation*
0 The origin of the aperture is its center*
0 number of corners: always 7*
0 $1 to $14 corner X, Y*
0 $15 Rotation angle, in degrees counterclockwise*
0 create outline with 7 corners*
4,1,7,$1,$2,$3,$4,$5,$6,$7,$8,$9,$10,$11,$12,$13,$14,$1,$2,$15*%
%AMOutline8P*
0 Free polygon, 8 corners , with rotation*
0 The origin of the aperture is its center*
0 number of corners: always 8*
0 $1 to $16 corner X, Y*
0 $17 Rotation angle, in degrees counterclockwise*
0 create outline with 8 corners*
4,1,8,$1,$2,$3,$4,$5,$6,$7,$8,$9,$10,$11,$12,$13,$14,$15,$16,$1,$2,$17*%
%AMFreePoly0*
4,1,21,-0.125000,1.200000,0.125000,1.200000,0.125000,1.700000,0.375000,1.700000,0.375000,1.200000,0.825000,1.200000,0.825000,-1.200000,0.375000,-1.200000,0.375000,-1.700000,0.125000,-1.700000,0.125000,-1.200000,-0.125000,-1.200000,-0.125000,-1.700000,-0.375000,-1.700000,-0.375000,-1.200000,-0.825000,-1.200000,-0.825000,1.200000,-0.375000,1.200000,-0.375000,1.700000,-0.125000,1.700000,
-0.125000,1.200000,-0.125000,1.200000,$1*%
G04 Aperture macros list end*
%TA.AperFunction,SMDPad,CuDef*%
%ADD10RotRect,1.300000X0.900000X45.000000*%
%TD*%
%TA.AperFunction,SMDPad,CuDef*%
%ADD11RotRect,2.200000X1.200000X45.000000*%
%TD*%
%TA.AperFunction,SMDPad,CuDef*%
%ADD12RotRect,1.500000X1.300000X45.000000*%
%TD*%
%TA.AperFunction,SMDPad,CuDef*%
%ADD13RotRect,2.400000X0.800000X45.000000*%
%TD*%
%TA.AperFunction,SMDPad,CuDef*%
%ADD14R,1.300000X0.900000*%
%TD*%
%TA.AperFunction,SMDPad,CuDef*%
%ADD15R,2.200000X1.200000*%
%TD*%
%TA.AperFunction,SMDPad,CuDef*%
%ADD16R,1.500000X1.300000*%
%TD*%
%TA.AperFunction,SMDPad,CuDef*%
%ADD17R,2.400000X0.800000*%
%TD*%
%TA.AperFunction,SMDPad,CuDef*%
%ADD18RotRect,1.300000X0.900000X67.500000*%
%TD*%
%TA.AperFunction,SMDPad,CuDef*%
%ADD19RotRect,2.200000X1.200000X67.500000*%
%TD*%
%TA.AperFunction,SMDPad,CuDef*%
%ADD20RotRect,1.500000X1.300000X67.500000*%
%TD*%
%TA.AperFunction,SMDPad,CuDef*%
%ADD21RotRect,2.400000X0.800000X67.500000*%
%TD*%
%TA.AperFunction,SMDPad,CuDef*%
%ADD22RotRect,1.300000X0.900000X22.500000*%
%TD*%
%TA.AperFunction,SMDPad,CuDef*%
%ADD23RotRect,2.200000X1.200000X22.500000*%
%TD*%
%TA.AperFunction,SMDPad,CuDef*%
%ADD24RotRect,1.500000X1.300000X22.500000*%
%TD*%
%TA.AperFunction,SMDPad,CuDef*%
%ADD25RotRect,2.400000X0.800000X22.500000*%
%TD*%
%TA.AperFunction,SMDPad,CuDef*%
%ADD26RotRect,1.300000X0.900000X247.500000*%
%TD*%
%TA.AperFunction,SMDPad,CuDef*%
%ADD27RotRect,2.200000X1.200000X247.500000*%
%TD*%
%TA.AperFunction,SMDPad,CuDef*%
%ADD28RotRect,1.500000X1.300000X247.500000*%
%TD*%
%TA.AperFunction,SMDPad,CuDef*%
%ADD29RotRect,2.400000X0.800000X247.500000*%
%TD*%
%TA.AperFunction,SMDPad,CuDef*%
%ADD30RotRect,1.300000X0.900000X337.500000*%
%TD*%
%TA.AperFunction,SMDPad,CuDef*%
%ADD31RotRect,2.200000X1.200000X337.500000*%
%TD*%
%TA.AperFunction,SMDPad,CuDef*%
%ADD32RotRect,1.500000X1.300000X337.500000*%
%TD*%
%TA.AperFunction,SMDPad,CuDef*%
%ADD33RotRect,2.400000X0.800000X337.500000*%
%TD*%
%TA.AperFunction,SMDPad,CuDef*%
%ADD34RotRect,1.300000X0.900000X202.500000*%
%TD*%
%TA.AperFunction,SMDPad,CuDef*%
%ADD35RotRect,2.200000X1.200000X202.500000*%
%TD*%
%TA.AperFunction,SMDPad,CuDef*%
%ADD36RotRect,1.500000X1.300000X202.500000*%
%TD*%
%TA.AperFunction,SMDPad,CuDef*%
%ADD37RotRect,2.400000X0.800000X202.500000*%
%TD*%
%TA.AperFunction,SMDPad,CuDef*%
%ADD38RotRect,1.300000X0.900000X157.500000*%
%TD*%
%TA.AperFunction,SMDPad,CuDef*%
%ADD39RotRect,2.200000X1.200000X157.500000*%
%TD*%
%TA.AperFunction,SMDPad,CuDef*%
%ADD40RotRect,1.500000X1.300000X157.500000*%
%TD*%
%TA.AperFunction,SMDPad,CuDef*%
%ADD41RotRect,2.400000X0.800000X157.500000*%
%TD*%
%TA.AperFunction,SMDPad,CuDef*%
%ADD42RotRect,1.300000X0.900000X225.000000*%
%TD*%
%TA.AperFunction,SMDPad,CuDef*%
%ADD43RotRect,2.200000X1.200000X225.000000*%
%TD*%
%TA.AperFunction,SMDPad,CuDef*%
%ADD44RotRect,1.500000X1.300000X225.000000*%
%TD*%
%TA.AperFunction,SMDPad,CuDef*%
%ADD45RotRect,2.400000X0.800000X225.000000*%
%TD*%
%TA.AperFunction,SMDPad,CuDef*%
%ADD46RotRect,1.300000X0.900000X292.500000*%
%TD*%
%TA.AperFunction,SMDPad,CuDef*%
%ADD47RotRect,2.200000X1.200000X292.500000*%
%TD*%
%TA.AperFunction,SMDPad,CuDef*%
%ADD48RotRect,1.500000X1.300000X292.500000*%
%TD*%
%TA.AperFunction,SMDPad,CuDef*%
%ADD49RotRect,2.400000X0.800000X292.500000*%
%TD*%
%TA.AperFunction,SMDPad,CuDef*%
%ADD50RotRect,1.300000X0.900000X135.000000*%
%TD*%
%TA.AperFunction,SMDPad,CuDef*%
%ADD51RotRect,2.200000X1.200000X135.000000*%
%TD*%
%TA.AperFunction,SMDPad,CuDef*%
%ADD52RotRect,1.500000X1.300000X135.000000*%
%TD*%
%TA.AperFunction,SMDPad,CuDef*%
%ADD53RotRect,2.400000X0.800000X135.000000*%
%TD*%
%TA.AperFunction,SMDPad,CuDef*%
%ADD54R,0.900000X1.300000*%
%TD*%
%TA.AperFunction,SMDPad,CuDef*%
%ADD55R,1.200000X2.200000*%
%TD*%
%TA.AperFunction,SMDPad,CuDef*%
%ADD56R,1.300000X1.500000*%
%TD*%
%TA.AperFunction,SMDPad,CuDef*%
%ADD57R,0.800000X2.400000*%
%TD*%
%TA.AperFunction,SMDPad,CuDef*%
%ADD58RotRect,1.300000X0.900000X315.000000*%
%TD*%
%TA.AperFunction,SMDPad,CuDef*%
%ADD59RotRect,2.200000X1.200000X315.000000*%
%TD*%
%TA.AperFunction,SMDPad,CuDef*%
%ADD60RotRect,1.500000X1.300000X315.000000*%
%TD*%
%TA.AperFunction,SMDPad,CuDef*%
%ADD61RotRect,2.400000X0.800000X315.000000*%
%TD*%
%TA.AperFunction,SMDPad,CuDef*%
%ADD62RotRect,1.300000X0.900000X112.500000*%
%TD*%
%TA.AperFunction,SMDPad,CuDef*%
%ADD63RotRect,2.200000X1.200000X112.500000*%
%TD*%
%TA.AperFunction,SMDPad,CuDef*%
%ADD64RotRect,1.500000X1.300000X112.500000*%
%TD*%
%TA.AperFunction,SMDPad,CuDef*%
%ADD65RotRect,2.400000X0.800000X112.500000*%
%TD*%
%TA.AperFunction,ComponentPad*%
%ADD66RotRect,1.700000X1.700000X135.000000*%
%TD*%
%TA.AperFunction,ComponentPad*%
%ADD67HorizOval,1.700000X0.000000X0.000000X0.000000X0.000000X0*%
%TD*%
%TA.AperFunction,SMDPad,CuDef*%
%ADD68RoundRect,0.135000X0.222580X-0.053927X0.119255X0.195520X-0.222580X0.053927X-0.119255X-0.195520X0*%
%TD*%
%TA.AperFunction,SMDPad,CuDef*%
%ADD69RoundRect,0.087500X-0.139743X-0.152593X0.206712X-0.009086X0.139743X0.152593X-0.206712X0.009086X0*%
%TD*%
%TA.AperFunction,SMDPad,CuDef*%
%ADD70RoundRect,0.087500X-0.009086X-0.206712X0.152593X-0.139743X0.009086X0.206712X-0.152593X0.139743X0*%
%TD*%
%TA.AperFunction,SMDPad,CuDef*%
%ADD71RotRect,0.350000X0.350000X157.500000*%
%TD*%
%TA.AperFunction,SMDPad,CuDef*%
%ADD72R,1.200000X3.700000*%
%TD*%
%TA.AperFunction,SMDPad,CuDef*%
%ADD73RoundRect,0.075000X0.250000X0.075000X-0.250000X0.075000X-0.250000X-0.075000X0.250000X-0.075000X0*%
%TD*%
%TA.AperFunction,SMDPad,CuDef*%
%ADD74RoundRect,0.135000X0.135000X0.185000X-0.135000X0.185000X-0.135000X-0.185000X0.135000X-0.185000X0*%
%TD*%
%TA.AperFunction,SMDPad,CuDef*%
%ADD75RoundRect,0.140000X0.194399X0.103484X-0.064287X0.210635X-0.194399X-0.103484X0.064287X-0.210635X0*%
%TD*%
%TA.AperFunction,ComponentPad*%
%ADD76RotRect,1.350000X1.350000X315.000000*%
%TD*%
%TA.AperFunction,ComponentPad*%
%ADD77HorizOval,1.350000X0.000000X0.000000X0.000000X0.000000X0*%
%TD*%
%TA.AperFunction,SMDPad,CuDef*%
%ADD78RoundRect,0.225000X0.250000X-0.225000X0.250000X0.225000X-0.250000X0.225000X-0.250000X-0.225000X0*%
%TD*%
%TA.AperFunction,SMDPad,CuDef*%
%ADD79RoundRect,0.140000X0.210635X-0.064287X0.103484X0.194399X-0.210635X0.064287X-0.103484X-0.194399X0*%
%TD*%
%TA.AperFunction,SMDPad,CuDef*%
%ADD80RoundRect,0.250000X-0.618718X0.017678X0.017678X-0.618718X0.618718X-0.017678X-0.017678X0.618718X0*%
%TD*%
%TA.AperFunction,SMDPad,CuDef*%
%ADD81RoundRect,0.140000X-0.170000X0.140000X-0.170000X-0.140000X0.170000X-0.140000X0.170000X0.140000X0*%
%TD*%
%TA.AperFunction,SMDPad,CuDef*%
%ADD82RoundRect,0.140000X-0.140000X-0.170000X0.140000X-0.170000X0.140000X0.170000X-0.140000X0.170000X0*%
%TD*%
%TA.AperFunction,SMDPad,CuDef*%
%ADD83RoundRect,0.140000X-0.219203X-0.021213X-0.021213X-0.219203X0.219203X0.021213X0.021213X0.219203X0*%
%TD*%
%TA.AperFunction,SMDPad,CuDef*%
%ADD84RoundRect,0.135000X-0.119255X0.195520X-0.222580X-0.053927X0.119255X-0.195520X0.222580X0.053927X0*%
%TD*%
%TA.AperFunction,SMDPad,CuDef*%
%ADD85RoundRect,0.140000X0.064287X0.210635X-0.194399X0.103484X-0.064287X-0.210635X0.194399X-0.103484X0*%
%TD*%
%TA.AperFunction,SMDPad,CuDef*%
%ADD86RoundRect,0.140000X-0.194399X-0.103484X0.064287X-0.210635X0.194399X0.103484X-0.064287X0.210635X0*%
%TD*%
%TA.AperFunction,SMDPad,CuDef*%
%ADD87RoundRect,0.250000X-0.250000X-0.475000X0.250000X-0.475000X0.250000X0.475000X-0.250000X0.475000X0*%
%TD*%
%TA.AperFunction,SMDPad,CuDef*%
%ADD88RoundRect,0.140000X0.021213X-0.219203X0.219203X-0.021213X-0.021213X0.219203X-0.219203X0.021213X0*%
%TD*%
%TA.AperFunction,SMDPad,CuDef*%
%ADD89RoundRect,0.140000X-0.103484X0.194399X-0.210635X-0.064287X0.103484X-0.194399X0.210635X0.064287X0*%
%TD*%
%TA.AperFunction,SMDPad,CuDef*%
%ADD90RoundRect,0.150000X-0.485377X-0.363408X0.600182X0.086245X0.485377X0.363408X-0.600182X-0.086245X0*%
%TD*%
%TA.AperFunction,SMDPad,CuDef*%
%ADD91RoundRect,0.250000X-0.070311X-0.516200X0.414726X-0.315291X0.070311X0.516200X-0.414726X0.315291X0*%
%TD*%
%TA.AperFunction,SMDPad,CuDef*%
%ADD92RoundRect,0.140000X-0.064287X-0.210635X0.194399X-0.103484X0.064287X0.210635X-0.194399X0.103484X0*%
%TD*%
%TA.AperFunction,SMDPad,CuDef*%
%ADD93RoundRect,0.135000X-0.135000X-0.185000X0.135000X-0.185000X0.135000X0.185000X-0.135000X0.185000X0*%
%TD*%
%TA.AperFunction,SMDPad,CuDef*%
%ADD94RoundRect,0.135000X-0.222580X0.053927X-0.119255X-0.195520X0.222580X-0.053927X0.119255X0.195520X0*%
%TD*%
%TA.AperFunction,SMDPad,CuDef*%
%ADD95RoundRect,0.135000X-0.053927X-0.222580X0.195520X-0.119255X0.053927X0.222580X-0.195520X0.119255X0*%
%TD*%
%TA.AperFunction,SMDPad,CuDef*%
%ADD96RoundRect,0.140000X-0.210635X0.064287X-0.103484X-0.194399X0.210635X-0.064287X0.103484X0.194399X0*%
%TD*%
%TA.AperFunction,ComponentPad*%
%ADD97R,1.700000X1.700000*%
%TD*%
%TA.AperFunction,ComponentPad*%
%ADD98O,1.700000X1.700000*%
%TD*%
%TA.AperFunction,SMDPad,CuDef*%
%ADD99RoundRect,0.140000X-0.021213X0.219203X-0.219203X0.021213X0.021213X-0.219203X0.219203X-0.021213X0*%
%TD*%
%TA.AperFunction,SMDPad,CuDef*%
%ADD100RoundRect,0.135000X0.185000X-0.135000X0.185000X0.135000X-0.185000X0.135000X-0.185000X-0.135000X0*%
%TD*%
%TA.AperFunction,SMDPad,CuDef*%
%ADD101RoundRect,0.250000X0.375000X0.625000X-0.375000X0.625000X-0.375000X-0.625000X0.375000X-0.625000X0*%
%TD*%
%TA.AperFunction,SMDPad,CuDef*%
%ADD102RoundRect,0.140000X0.170000X-0.140000X0.170000X0.140000X-0.170000X0.140000X-0.170000X-0.140000X0*%
%TD*%
%TA.AperFunction,SMDPad,CuDef*%
%ADD103RoundRect,0.135000X0.053927X0.222580X-0.195520X0.119255X-0.053927X-0.222580X0.195520X-0.119255X0*%
%TD*%
%TA.AperFunction,SMDPad,CuDef*%
%ADD104RoundRect,0.225000X-0.250000X0.225000X-0.250000X-0.225000X0.250000X-0.225000X0.250000X0.225000X0*%
%TD*%
%TA.AperFunction,SMDPad,CuDef*%
%ADD105RoundRect,0.140000X0.140000X0.170000X-0.140000X0.170000X-0.140000X-0.170000X0.140000X-0.170000X0*%
%TD*%
%TA.AperFunction,SMDPad,CuDef*%
%ADD106RoundRect,0.150000X0.334707X-0.416086X-0.057543X0.530891X-0.334707X0.416086X0.057543X-0.530891X0*%
%TD*%
%TA.AperFunction,SMDPad,CuDef*%
%ADD107RotRect,0.800000X0.400000X157.500000*%
%TD*%
%TA.AperFunction,SMDPad,CuDef*%
%ADD108RotRect,0.800000X0.400000X247.500000*%
%TD*%
%TA.AperFunction,SMDPad,CuDef*%
%ADD109Outline5P,-0.725000X0.145000X-0.145000X0.725000X0.725000X0.725000X0.725000X-0.725000X-0.725000X-0.725000X157.500000*%
%TD*%
%TA.AperFunction,SMDPad,CuDef*%
%ADD110RotRect,1.450000X1.450000X157.500000*%
%TD*%
%TA.AperFunction,SMDPad,CuDef*%
%ADD111Outline4P,-0.350000X-0.350000X0.350000X-0.350000X0.350000X0.350000X-0.350000X0.350000X157.500000*%
%TD*%
%TA.AperFunction,SMDPad,CuDef*%
%ADD112RotRect,1.500000X1.500000X22.500000*%
%TD*%
%TA.AperFunction,SMDPad,CuDef*%
%ADD113R,0.240000X0.600000*%
%TD*%
%TA.AperFunction,ComponentPad*%
%ADD114C,0.600000*%
%TD*%
%TA.AperFunction,SMDPad,CuDef*%
%ADD115FreePoly0,90.000000*%
%TD*%
%TA.AperFunction,SMDPad,CuDef*%
%ADD116RoundRect,0.135000X-0.195520X-0.119255X0.053927X-0.222580X0.195520X0.119255X-0.053927X0.222580X0*%
%TD*%
%TA.AperFunction,SMDPad,CuDef*%
%ADD117RoundRect,0.062500X0.350000X0.062500X-0.350000X0.062500X-0.350000X-0.062500X0.350000X-0.062500X0*%
%TD*%
%TA.AperFunction,SMDPad,CuDef*%
%ADD118RoundRect,0.062500X0.062500X0.350000X-0.062500X0.350000X-0.062500X-0.350000X0.062500X-0.350000X0*%
%TD*%
%TA.AperFunction,SMDPad,CuDef*%
%ADD119R,2.700000X2.700000*%
%TD*%
%TA.AperFunction,SMDPad,CuDef*%
%ADD120RoundRect,0.140000X0.103484X-0.194399X0.210635X0.064287X-0.103484X0.194399X-0.210635X-0.064287X0*%
%TD*%
%TA.AperFunction,SMDPad,CuDef*%
%ADD121RoundRect,0.140000X0.219203X0.021213X0.021213X0.219203X-0.219203X-0.021213X-0.021213X-0.219203X0*%
%TD*%
%TA.AperFunction,SMDPad,CuDef*%
%ADD122C,0.245000*%
%TD*%
%TA.AperFunction,SMDPad,CuDef*%
%ADD123RotRect,0.450000X0.950000X22.500000*%
%TD*%
%TA.AperFunction,SMDPad,CuDef*%
%ADD124RotRect,0.350000X2.300000X22.500000*%
%TD*%
%TA.AperFunction,SMDPad,CuDef*%
%ADD125RotRect,1.300000X0.350000X22.500000*%
%TD*%
%TA.AperFunction,SMDPad,CuDef*%
%ADD126RotRect,2.000000X2.000000X22.500000*%
%TD*%
%TA.AperFunction,SMDPad,CuDef*%
%ADD127RoundRect,0.150000X-0.468458X0.256326X0.256326X-0.468458X0.468458X-0.256326X-0.256326X0.468458X0*%
%TD*%
%TA.AperFunction,SMDPad,CuDef*%
%ADD128RoundRect,0.135000X-0.035355X0.226274X-0.226274X0.035355X0.035355X-0.226274X0.226274X-0.035355X0*%
%TD*%
%TA.AperFunction,ComponentPad*%
%ADD129C,3.000000*%
%TD*%
%TA.AperFunction,ViaPad*%
%ADD130C,0.450000*%
%TD*%
%TA.AperFunction,Conductor*%
%ADD131C,0.127000*%
%TD*%
%TA.AperFunction,Conductor*%
%ADD132C,0.500000*%
%TD*%
%TA.AperFunction,Conductor*%
%ADD133C,0.250000*%
%TD*%
%TA.AperFunction,Conductor*%
%ADD134C,0.280000*%
%TD*%
%TA.AperFunction,Conductor*%
%ADD135C,1.000000*%
%TD*%
G04 APERTURE END LIST*
D10*
%TO.P,D15,1,DIN*%
%TO.N,Net-(D14-DOUT)*%
X90411701Y-88190381D03*
D11*
%TO.P,D15,2,VDD*%
%TO.N,/Charger/VLED*%
X88997487Y-87412563D03*
D12*
%TO.P,D15,3,DOUT*%
%TO.N,Net-(D15-DOUT)*%
X87300431Y-89180330D03*
D13*
%TO.P,D15,4,VSS*%
%TO.N,GND*%
X88714645Y-89958148D03*
%TD*%
D14*
%TO.P,D13,1,DIN*%
%TO.N,Net-(D12-DOUT)*%
X101500000Y-84850000D03*
D15*
%TO.P,D13,2,VDD*%
%TO.N,/Charger/VLED*%
X101050000Y-83300000D03*
D16*
%TO.P,D13,3,DOUT*%
%TO.N,Net-(D13-DOUT)*%
X98600000Y-83350000D03*
D17*
%TO.P,D13,4,VSS*%
%TO.N,GND*%
X99050000Y-84900000D03*
%TD*%
D18*
%TO.P,D16,1,DIN*%
%TO.N,Net-(D15-DOUT)*%
X86609323Y-92789462D03*
D19*
%TO.P,D16,2,VDD*%
%TO.N,/Charger/VLED*%
X85005102Y-92612048D03*
D20*
%TO.P,D16,3,DOUT*%
%TO.N,unconnected-(D16-DOUT-Pad3)*%
X84113721Y-94894687D03*
D21*
%TO.P,D16,4,VSS*%
%TO.N,GND*%
X85717942Y-95072101D03*
%TD*%
D22*
%TO.P,D14,1,DIN*%
%TO.N,Net-(D13-DOUT)*%
X95561100Y-85411272D03*
D23*
%TO.P,D14,2,VDD*%
%TO.N,/Charger/VLED*%
X94552195Y-84151467D03*
D24*
%TO.P,D14,3,DOUT*%
%TO.N,Net-(D14-DOUT)*%
X92307824Y-85135235D03*
D25*
%TO.P,D14,4,VSS*%
%TO.N,GND*%
X93316730Y-86395041D03*
%TD*%
D26*
%TO.P,D8,1,DIN*%
%TO.N,Net-(D7-DOUT)*%
X113440677Y-107160538D03*
D27*
%TO.P,D8,2,VDD*%
%TO.N,/Charger/VLED*%
X115044898Y-107337952D03*
D28*
%TO.P,D8,3,DOUT*%
%TO.N,Net-(D8-DOUT)*%
X115936279Y-105055313D03*
D29*
%TO.P,D8,4,VSS*%
%TO.N,GND*%
X114332058Y-104877899D03*
%TD*%
D30*
%TO.P,D12,1,DIN*%
%TO.N,Net-(D11-DOUT)*%
X107210538Y-86609323D03*
D31*
%TO.P,D12,2,VDD*%
%TO.N,/Charger/VLED*%
X107387952Y-85005102D03*
D32*
%TO.P,D12,3,DOUT*%
%TO.N,Net-(D12-DOUT)*%
X105105313Y-84113721D03*
D33*
%TO.P,D12,4,VSS*%
%TO.N,GND*%
X104927899Y-85717942D03*
%TD*%
D34*
%TO.P,D6,1,DIN*%
%TO.N,Net-(D5-DOUT)*%
X104388900Y-114588728D03*
D35*
%TO.P,D6,2,VDD*%
%TO.N,/Charger/VLED*%
X105397805Y-115848533D03*
D36*
%TO.P,D6,3,DOUT*%
%TO.N,Net-(D6-DOUT)*%
X107642176Y-114864765D03*
D37*
%TO.P,D6,4,VSS*%
%TO.N,GND*%
X106633270Y-113604959D03*
%TD*%
D38*
%TO.P,D4,1,DIN*%
%TO.N,Net-(D3-DOUT)*%
X92789462Y-113440677D03*
D39*
%TO.P,D4,2,VDD*%
%TO.N,/Charger/VLED*%
X92612048Y-115044898D03*
D40*
%TO.P,D4,3,DOUT*%
%TO.N,Net-(D4-DOUT)*%
X94894687Y-115936279D03*
D41*
%TO.P,D4,4,VSS*%
%TO.N,GND*%
X95072101Y-114332058D03*
%TD*%
D42*
%TO.P,D7,1,DIN*%
%TO.N,Net-(D6-DOUT)*%
X109638299Y-111809619D03*
D43*
%TO.P,D7,2,VDD*%
%TO.N,/Charger/VLED*%
X111052513Y-112587437D03*
D44*
%TO.P,D7,3,DOUT*%
%TO.N,Net-(D7-DOUT)*%
X112749569Y-110819670D03*
D45*
%TO.P,D7,4,VSS*%
%TO.N,GND*%
X111335355Y-110041852D03*
%TD*%
D46*
%TO.P,D10,1,DIN*%
%TO.N,Net-(D10-DIN)*%
X114588728Y-95611100D03*
D47*
%TO.P,D10,2,VDD*%
%TO.N,/Charger/VLED*%
X115848533Y-94602195D03*
D48*
%TO.P,D10,3,DOUT*%
%TO.N,Net-(D10-DOUT)*%
X114864765Y-92357824D03*
D49*
%TO.P,D10,4,VSS*%
%TO.N,GND*%
X113604959Y-93366730D03*
%TD*%
D50*
%TO.P,D3,1,DIN*%
%TO.N,Net-(D2-DOUT)*%
X88190381Y-109588299D03*
D51*
%TO.P,D3,2,VDD*%
%TO.N,/Charger/VLED*%
X87412563Y-111002513D03*
D52*
%TO.P,D3,3,DOUT*%
%TO.N,Net-(D3-DOUT)*%
X89180330Y-112699569D03*
D53*
%TO.P,D3,4,VSS*%
%TO.N,GND*%
X89958148Y-111285355D03*
%TD*%
D54*
%TO.P,D1,1,DIN*%
%TO.N,/LEDs/DIN*%
X84850000Y-98500000D03*
D55*
%TO.P,D1,2,VDD*%
%TO.N,/Charger/VLED*%
X83300000Y-98950000D03*
D56*
%TO.P,D1,3,DOUT*%
%TO.N,Net-(D1-DOUT)*%
X83350000Y-101400000D03*
D57*
%TO.P,D1,4,VSS*%
%TO.N,GND*%
X84900000Y-100950000D03*
%TD*%
D14*
%TO.P,D5,1,DIN*%
%TO.N,Net-(D4-DOUT)*%
X98500000Y-115150000D03*
D15*
%TO.P,D5,2,VDD*%
%TO.N,/Charger/VLED*%
X98950000Y-116700000D03*
D16*
%TO.P,D5,3,DOUT*%
%TO.N,Net-(D5-DOUT)*%
X101400000Y-116650000D03*
D17*
%TO.P,D5,4,VSS*%
%TO.N,GND*%
X100950000Y-115100000D03*
%TD*%
D54*
%TO.P,D9,1,DIN*%
%TO.N,Net-(D8-DOUT)*%
X115150000Y-101450000D03*
D55*
%TO.P,D9,2,VDD*%
%TO.N,/Charger/VLED*%
X116700000Y-101000000D03*
D56*
%TO.P,D9,3,DOUT*%
%TO.N,Net-(D10-DIN)*%
X116650000Y-98550000D03*
D57*
%TO.P,D9,4,VSS*%
%TO.N,GND*%
X115100000Y-99000000D03*
%TD*%
D58*
%TO.P,D11,1,DIN*%
%TO.N,Net-(D10-DOUT)*%
X111759619Y-90361701D03*
D59*
%TO.P,D11,2,VDD*%
%TO.N,/Charger/VLED*%
X112537437Y-88947487D03*
D60*
%TO.P,D11,3,DOUT*%
%TO.N,Net-(D11-DOUT)*%
X110769670Y-87250431D03*
D61*
%TO.P,D11,4,VSS*%
%TO.N,GND*%
X109991852Y-88664645D03*
%TD*%
D62*
%TO.P,D2,1,DIN*%
%TO.N,Net-(D1-DOUT)*%
X85411272Y-104388900D03*
D63*
%TO.P,D2,2,VDD*%
%TO.N,/Charger/VLED*%
X84151467Y-105397805D03*
D64*
%TO.P,D2,3,DOUT*%
%TO.N,Net-(D2-DOUT)*%
X85135235Y-107642176D03*
D65*
%TO.P,D2,4,VSS*%
%TO.N,GND*%
X86395041Y-106633270D03*
%TD*%
D66*
%TO.P,J3,1,Pin_1*%
%TO.N,GND*%
X121477498Y-125054902D03*
D67*
%TO.P,J3,2,Pin_2*%
%TO.N,/Battery/SCL*%
X123273549Y-123258851D03*
%TO.P,J3,3,Pin_3*%
%TO.N,/Battery/SDA*%
X125069600Y-121462800D03*
%TD*%
D68*
%TO.P,R6,1*%
%TO.N,Net-(Q1-S)*%
X108354952Y-126567013D03*
%TO.P,R6,2*%
%TO.N,Net-(U2-SRN)*%
X107964614Y-125624655D03*
%TD*%
D69*
%TO.P,U10,1,VDD_IO*%
%TO.N,+3V3*%
X93071128Y-78689816D03*
%TO.P,U10,2,NC*%
%TO.N,unconnected-(U10-NC-Pad2)*%
X93262470Y-79151755D03*
%TO.P,U10,3,NC*%
%TO.N,unconnected-(U10-NC-Pad3)*%
X93453812Y-79613695D03*
%TO.P,U10,4,SCL/SPC*%
%TO.N,/Battery/SCL*%
X93645153Y-80075635D03*
%TO.P,U10,5,GND*%
%TO.N,GND*%
X93836495Y-80537575D03*
D70*
%TO.P,U10,6,SDA/SDI/SDO*%
%TO.N,/Battery/SDA*%
X94592411Y-80468002D03*
%TO.P,U10,7,SDO/SA0*%
%TO.N,GND*%
X95054351Y-80276660D03*
%TO.P,U10,8,CS*%
%TO.N,+3V3*%
X95516291Y-80085319D03*
D69*
%TO.P,U10,9,INT2*%
%TO.N,unconnected-(U10-INT2-Pad9)*%
X96100000Y-79600000D03*
%TO.P,U10,10,GND*%
%TO.N,GND*%
X95908658Y-79138061D03*
%TO.P,U10,11,INT1*%
%TO.N,unconnected-(U10-INT1-Pad11)*%
X95717316Y-78676121D03*
%TO.P,U10,12,GND*%
%TO.N,GND*%
X95525975Y-78214181D03*
%TO.P,U10,13,ADC3*%
%TO.N,unconnected-(U10-ADC3-Pad13)*%
X95334633Y-77752241D03*
D70*
%TO.P,U10,14,VDD*%
%TO.N,+3V3*%
X94578717Y-77821814D03*
%TO.P,U10,15,ADC2*%
%TO.N,unconnected-(U10-ADC2-Pad15)*%
X94116777Y-78013156D03*
%TO.P,U10,16,ADC1*%
%TO.N,unconnected-(U10-ADC1-Pad16)*%
X93654837Y-78204497D03*
%TD*%
D71*
%TO.P,U5,1,GND*%
%TO.N,GND*%
X77173337Y-84692929D03*
%TO.P,U5,2,CSB*%
%TO.N,Net-(U1-IO9)*%
X76572815Y-84444185D03*
%TO.P,U5,3,SDA*%
%TO.N,Net-(U1-IO7)*%
X75972294Y-84195441D03*
%TO.P,U5,4,SCK*%
%TO.N,Net-(U1-IO8)*%
X75371772Y-83946696D03*
%TO.P,U5,5,SDO*%
%TO.N,Net-(U1-IO6)*%
X75926663Y-82607071D03*
%TO.P,U5,6,VDDIO*%
%TO.N,+3V3*%
X76527185Y-82855815D03*
%TO.P,U5,7,GND*%
%TO.N,GND*%
X77127706Y-83104559D03*
%TO.P,U5,8,VDD*%
%TO.N,+3V3*%
X77728228Y-83353304D03*
%TD*%
D72*
%TO.P,L4,1*%
%TO.N,Net-(U9-L1)*%
X92235000Y-102275000D03*
%TO.P,L4,2*%
%TO.N,Net-(U9-L2)*%
X89435000Y-102275000D03*
%TD*%
D73*
%TO.P,U7,1,VDD*%
%TO.N,+3V3*%
X101050000Y-92050000D03*
%TO.P,U7,2,NC*%
%TO.N,unconnected-(U7-NC-Pad2)*%
X101050000Y-91400000D03*
%TO.P,U7,3,GND*%
%TO.N,GND*%
X101050000Y-90750000D03*
%TO.P,U7,4,SCL*%
%TO.N,/Battery/SCL*%
X99250000Y-90750000D03*
%TO.P,U7,5,INT*%
%TO.N,unconnected-(U7-INT-Pad5)*%
X99250000Y-91400000D03*
%TO.P,U7,6,SDA*%
%TO.N,/Battery/SDA*%
X99250000Y-92050000D03*
%TD*%
D74*
%TO.P,R14,1*%
%TO.N,Net-(U8-TS)*%
X102322502Y-95750000D03*
%TO.P,R14,2*%
%TO.N,GND*%
X101302502Y-95750000D03*
%TD*%
D75*
%TO.P,C5,1*%
%TO.N,GND*%
X95186924Y-112707376D03*
%TO.P,C5,2*%
%TO.N,/Charger/VLED*%
X94300000Y-112340000D03*
%TD*%
D76*
%TO.P,J2,1,Pin_1*%
%TO.N,/Logic/LED1*%
X79848427Y-74571573D03*
D77*
%TO.P,J2,2,Pin_2*%
%TO.N,/Logic/LED2*%
X78434213Y-75985787D03*
%TO.P,J2,3,Pin_3*%
%TO.N,VBUS*%
X77020000Y-77400000D03*
%TO.P,J2,4,Pin_4*%
%TO.N,/Logic/USB_D+*%
X75605786Y-78814214D03*
%TO.P,J2,5,Pin_5*%
%TO.N,/Logic/USB_D-*%
X74191573Y-80228427D03*
%TO.P,J2,6,Pin_6*%
%TO.N,GND*%
X72777359Y-81642641D03*
%TD*%
D78*
%TO.P,C32,1*%
%TO.N,/VBAT*%
X100112502Y-97725000D03*
%TO.P,C32,2*%
%TO.N,GND*%
X100112502Y-96175000D03*
%TD*%
D79*
%TO.P,C26,1*%
%TO.N,Net-(Q1-S)*%
X110217376Y-123736924D03*
%TO.P,C26,2*%
%TO.N,Net-(U4-VDD)*%
X109850000Y-122850000D03*
%TD*%
D80*
%TO.P,C17,1*%
%TO.N,VBUS*%
X80493655Y-77815406D03*
%TO.P,C17,2*%
%TO.N,GND*%
X82402843Y-79724594D03*
%TD*%
D81*
%TO.P,C72,1*%
%TO.N,GND*%
X93334999Y-98514999D03*
%TO.P,C72,2*%
%TO.N,/Charger/VSYS*%
X93334999Y-99474999D03*
%TD*%
D82*
%TO.P,C73,1*%
%TO.N,GND*%
X90375000Y-95574999D03*
%TO.P,C73,2*%
%TO.N,/Charger/VSYS*%
X91335000Y-95574999D03*
%TD*%
D83*
%TO.P,C12,1*%
%TO.N,GND*%
X109270589Y-90170589D03*
%TO.P,C12,2*%
%TO.N,/Charger/VLED*%
X109949411Y-90849411D03*
%TD*%
D81*
%TO.P,C74,1*%
%TO.N,GND*%
X88375000Y-98515001D03*
%TO.P,C74,2*%
%TO.N,+3V3*%
X88375000Y-99475001D03*
%TD*%
D84*
%TO.P,R19,1*%
%TO.N,/Logic/LED2*%
X68765169Y-88968821D03*
%TO.P,R19,2*%
%TO.N,Net-(U1-TXD0)*%
X68374831Y-89911179D03*
%TD*%
D85*
%TO.P,C20,1*%
%TO.N,GND1*%
X107252823Y-123906239D03*
%TO.P,C20,2*%
%TO.N,Net-(U2-SRP)*%
X106365899Y-124273615D03*
%TD*%
%TO.P,C68,1*%
%TO.N,+3V3*%
X92293462Y-72166312D03*
%TO.P,C68,2*%
%TO.N,GND*%
X91406538Y-72533688D03*
%TD*%
D86*
%TO.P,C13,1*%
%TO.N,GND*%
X104826538Y-87346312D03*
%TO.P,C13,2*%
%TO.N,/Charger/VLED*%
X105713462Y-87713688D03*
%TD*%
D87*
%TO.P,C28,1*%
%TO.N,/Charger/VLED*%
X105512502Y-102575000D03*
%TO.P,C28,2*%
%TO.N,GND*%
X107412502Y-102575000D03*
%TD*%
D88*
%TO.P,C16,1*%
%TO.N,GND*%
X90190589Y-90679411D03*
%TO.P,C16,2*%
%TO.N,/Charger/VLED*%
X90869411Y-90000589D03*
%TD*%
D89*
%TO.P,C9,1*%
%TO.N,GND*%
X112713688Y-104736538D03*
%TO.P,C9,2*%
%TO.N,/Charger/VLED*%
X112346312Y-105623462D03*
%TD*%
D90*
%TO.P,Q1,1,G*%
%TO.N,Net-(Q1-G)*%
X110904177Y-126939846D03*
%TO.P,Q1,2,S*%
%TO.N,Net-(Q1-S)*%
X111631275Y-128695217D03*
%TO.P,Q1,3,D*%
%TO.N,Net-(Q1-D)*%
X113000000Y-127100000D03*
%TD*%
D91*
%TO.P,R4,1*%
%TO.N,GND1*%
X107604997Y-128382178D03*
%TO.P,R4,2*%
%TO.N,Net-(Q1-S)*%
X109291077Y-127683780D03*
%TD*%
D92*
%TO.P,C21,1*%
%TO.N,Net-(U2-SRP)*%
X106710970Y-125158954D03*
%TO.P,C21,2*%
%TO.N,Net-(U2-SRN)*%
X107597894Y-124791578D03*
%TD*%
D93*
%TO.P,R48,1*%
%TO.N,+3V3*%
X88425001Y-95575000D03*
%TO.P,R48,2*%
%TO.N,Net-(U9-FB)*%
X89445001Y-95575000D03*
%TD*%
D94*
%TO.P,R9,1*%
%TO.N,Net-(U2-TS)*%
X104910294Y-122170565D03*
%TO.P,R9,2*%
%TO.N,Net-(U2-VCC)*%
X105300632Y-123112923D03*
%TD*%
D95*
%TO.P,R11,1*%
%TO.N,+BATT*%
X110228821Y-121345169D03*
%TO.P,R11,2*%
%TO.N,Net-(U4-VDD)*%
X111171179Y-120954831D03*
%TD*%
D96*
%TO.P,C23,1*%
%TO.N,Net-(U2-BAT)*%
X108571915Y-120296683D03*
%TO.P,C23,2*%
%TO.N,GND1*%
X108939291Y-121183607D03*
%TD*%
D97*
%TO.P,J1,1,Pin_1*%
%TO.N,/Charger/PWR_ON*%
X86350000Y-118575000D03*
D98*
%TO.P,J1,2,Pin_2*%
%TO.N,Net-(J1-Pin_2)*%
X86350000Y-121115000D03*
%TD*%
D78*
%TO.P,C31,1*%
%TO.N,/Charger/VSYS*%
X98612502Y-99225000D03*
%TO.P,C31,2*%
%TO.N,GND*%
X98612502Y-97675000D03*
%TD*%
D99*
%TO.P,C8,1*%
%TO.N,GND*%
X109829411Y-109310589D03*
%TO.P,C8,2*%
%TO.N,/Charger/VLED*%
X109150589Y-109989411D03*
%TD*%
D100*
%TO.P,R15,1*%
%TO.N,Net-(U8-D+)*%
X107712502Y-98245000D03*
%TO.P,R15,2*%
%TO.N,GND*%
X107712502Y-97225000D03*
%TD*%
D101*
%TO.P,F1,1*%
%TO.N,+BATT*%
X102875000Y-79450000D03*
%TO.P,F1,2*%
%TO.N,/VBAT*%
X100075000Y-79450000D03*
%TD*%
D85*
%TO.P,C7,1*%
%TO.N,GND*%
X105566924Y-112342624D03*
%TO.P,C7,2*%
%TO.N,/Charger/VLED*%
X104680000Y-112710000D03*
%TD*%
D82*
%TO.P,C14,1*%
%TO.N,GND*%
X99540000Y-86460000D03*
%TO.P,C14,2*%
%TO.N,/Charger/VLED*%
X100500000Y-86460000D03*
%TD*%
D102*
%TO.P,C2,1*%
%TO.N,GND*%
X86450000Y-100410000D03*
%TO.P,C2,2*%
%TO.N,/Charger/VLED*%
X86450000Y-99450000D03*
%TD*%
D103*
%TO.P,R12,1*%
%TO.N,Net-(Q1-G)*%
X106863761Y-119413107D03*
%TO.P,R12,2*%
%TO.N,/Battery/DSG*%
X105921403Y-119803445D03*
%TD*%
D102*
%TO.P,C71,1*%
%TO.N,GND*%
X93335000Y-97555000D03*
%TO.P,C71,2*%
%TO.N,/Charger/VSYS*%
X93335000Y-96595000D03*
%TD*%
D100*
%TO.P,R46,1*%
%TO.N,+3V3*%
X85000000Y-88660000D03*
%TO.P,R46,2*%
%TO.N,/Battery/SCL*%
X85000000Y-87640000D03*
%TD*%
D104*
%TO.P,C30,1*%
%TO.N,/Charger/VSYS*%
X100112502Y-99175000D03*
%TO.P,C30,2*%
%TO.N,GND*%
X100112502Y-100725000D03*
%TD*%
D100*
%TO.P,R18,1*%
%TO.N,VBUS*%
X106712501Y-100165000D03*
%TO.P,R18,2*%
%TO.N,Net-(U8-D-)*%
X106712501Y-99145000D03*
%TD*%
D105*
%TO.P,C6,1*%
%TO.N,GND*%
X100410000Y-113530000D03*
%TO.P,C6,2*%
%TO.N,/Charger/VLED*%
X99450000Y-113530000D03*
%TD*%
D106*
%TO.P,U4,1,DO*%
%TO.N,Net-(Q1-G)*%
X111994629Y-124627097D03*
%TO.P,U4,2,VM*%
%TO.N,Net-(U4-VM)*%
X112872314Y-124263548D03*
%TO.P,U4,3,CO*%
%TO.N,Net-(Q2-G)*%
X113750000Y-123899999D03*
%TO.P,U4,4,NC*%
%TO.N,unconnected-(U4-NC-Pad4)*%
X112879395Y-121798173D03*
%TO.P,U4,5,VDD*%
%TO.N,Net-(U4-VDD)*%
X112001710Y-122161722D03*
%TO.P,U4,6,VSS*%
%TO.N,Net-(Q1-S)*%
X111124024Y-122525271D03*
%TD*%
D107*
%TO.P,U1,1,GND*%
%TO.N,GND*%
X79760384Y-96843480D03*
%TO.P,U1,2,GND*%
X80066530Y-96104377D03*
%TO.P,U1,3,3V3*%
%TO.N,+3V3*%
X80372677Y-95365273D03*
%TO.P,U1,4*%
%TO.N,N/C*%
X80678824Y-94626170D03*
%TO.P,U1,5,IO2*%
%TO.N,/Battery/SCL*%
X80984970Y-93887066D03*
%TO.P,U1,6,IO3*%
%TO.N,/LEDs/DIN*%
X81291117Y-93147962D03*
%TO.P,U1,7*%
%TO.N,N/C*%
X81597264Y-92408859D03*
%TO.P,U1,8,EN*%
%TO.N,Net-(U1-EN)*%
X81903411Y-91669755D03*
%TO.P,U1,9*%
%TO.N,N/C*%
X82209557Y-90930651D03*
%TO.P,U1,10*%
X82515704Y-90191548D03*
%TO.P,U1,11,GND*%
%TO.N,GND*%
X82821851Y-89452444D03*
D108*
%TO.P,U1,12,IO0*%
%TO.N,/Battery/SDA*%
X82149999Y-88200001D03*
%TO.P,U1,13,IO1*%
%TO.N,/Charger/~{CHARGE_ENABLE}*%
X81410895Y-87893854D03*
%TO.P,U1,14,GND*%
%TO.N,GND*%
X80671791Y-87587707D03*
%TO.P,U1,15*%
%TO.N,N/C*%
X79932688Y-87281561D03*
%TO.P,U1,16,IO10*%
%TO.N,Net-(U1-IO10)*%
X79193584Y-86975414D03*
%TO.P,U1,17*%
%TO.N,N/C*%
X78454480Y-86669267D03*
%TO.P,U1,18,IO4*%
%TO.N,Net-(U1-IO4)*%
X77715377Y-86363120D03*
%TO.P,U1,19,IO5*%
%TO.N,Net-(U1-IO5)*%
X76976273Y-86056974D03*
%TO.P,U1,20,IO6*%
%TO.N,Net-(U1-IO6)*%
X76237170Y-85750827D03*
%TO.P,U1,21,IO7*%
%TO.N,Net-(U1-IO7)*%
X75498066Y-85444680D03*
%TO.P,U1,22,IO8*%
%TO.N,Net-(U1-IO8)*%
X74758962Y-85138533D03*
%TO.P,U1,23,IO9*%
%TO.N,Net-(U1-IO9)*%
X74019859Y-84832387D03*
%TO.P,U1,24*%
%TO.N,N/C*%
X73280755Y-84526240D03*
D107*
%TO.P,U1,25*%
X71920072Y-84936780D03*
%TO.P,U1,26,IO18/D-*%
%TO.N,/Logic/USB_D-*%
X71613926Y-85675883D03*
%TO.P,U1,27,IO19/D+*%
%TO.N,/Logic/USB_D+*%
X71307779Y-86414987D03*
%TO.P,U1,28*%
%TO.N,N/C*%
X71001632Y-87154090D03*
%TO.P,U1,29*%
X70695486Y-87893194D03*
%TO.P,U1,30,RXD0*%
%TO.N,Net-(U1-RXD0)*%
X70389339Y-88632298D03*
%TO.P,U1,31,TXD0*%
%TO.N,Net-(U1-TXD0)*%
X70083192Y-89371401D03*
%TO.P,U1,32*%
%TO.N,N/C*%
X69777045Y-90110505D03*
%TO.P,U1,33*%
X69470899Y-90849609D03*
%TO.P,U1,34*%
X69164752Y-91588712D03*
%TO.P,U1,35*%
X68858605Y-92327816D03*
D108*
%TO.P,U1,36,GND*%
%TO.N,GND*%
X69530457Y-93580259D03*
%TO.P,U1,37,GND*%
X70269561Y-93886406D03*
%TO.P,U1,38,GND*%
X71008665Y-94192553D03*
%TO.P,U1,39,GND*%
X71747768Y-94498699D03*
%TO.P,U1,40,GND*%
X72486872Y-94804846D03*
%TO.P,U1,41,GND*%
X73225976Y-95110993D03*
%TO.P,U1,42,GND*%
X73965079Y-95417140D03*
%TO.P,U1,43,GND*%
X74704183Y-95723286D03*
%TO.P,U1,44,GND*%
X75443286Y-96029433D03*
%TO.P,U1,45,GND*%
X76182390Y-96335580D03*
%TO.P,U1,46,GND*%
X76921494Y-96641727D03*
%TO.P,U1,47,GND*%
X77660597Y-96947873D03*
%TO.P,U1,48,GND*%
X78399701Y-97254020D03*
D109*
%TO.P,U1,49,GND*%
X76909090Y-93470592D03*
D110*
X77664890Y-91645930D03*
X78420690Y-89821268D03*
X75084428Y-92714792D03*
X75840228Y-90890130D03*
X76596028Y-89065468D03*
X73259766Y-91958992D03*
X74015566Y-90134330D03*
X74771366Y-88309668D03*
D111*
%TO.P,U1,50,GND*%
X68448862Y-93186367D03*
%TO.P,U1,51,GND*%
X72237428Y-84039960D03*
%TO.P,U1,52,GND*%
X83231594Y-88593893D03*
%TO.P,U1,53,GND*%
X79443028Y-97740300D03*
%TD*%
D103*
%TO.P,R10,1*%
%TO.N,+BATT*%
X109531569Y-121934078D03*
%TO.P,R10,2*%
%TO.N,Net-(U2-REGIN)*%
X108589211Y-122324416D03*
%TD*%
D89*
%TO.P,C70,1*%
%TO.N,+3V3*%
X78633688Y-83856538D03*
%TO.P,C70,2*%
%TO.N,GND*%
X78266312Y-84743462D03*
%TD*%
D112*
%TO.P,TP5,1,1*%
%TO.N,Net-(Q1-S)*%
X110288260Y-125354900D03*
%TD*%
D102*
%TO.P,C67,1*%
%TO.N,+3V3*%
X102190001Y-91849995D03*
%TO.P,C67,2*%
%TO.N,GND*%
X102190001Y-90889995D03*
%TD*%
%TO.P,C27,1*%
%TO.N,Net-(C27-Pad1)*%
X103312500Y-102955000D03*
%TO.P,C27,2*%
%TO.N,Net-(U8-BTST)*%
X103312500Y-101995000D03*
%TD*%
D113*
%TO.P,U9,1,VOUT*%
%TO.N,+3V3*%
X89835000Y-99475000D03*
%TO.P,U9,2,L2*%
%TO.N,Net-(U9-L2)*%
X90335000Y-99475000D03*
%TO.P,U9,3,PGND*%
%TO.N,GND*%
X90835000Y-99475000D03*
%TO.P,U9,4,L1*%
%TO.N,Net-(U9-L1)*%
X91335000Y-99475000D03*
%TO.P,U9,5,VIN*%
%TO.N,/Charger/VSYS*%
X91835000Y-99475000D03*
%TO.P,U9,6,EN*%
X91835000Y-96675000D03*
%TO.P,U9,7,PS/SYNC*%
X91335000Y-96675000D03*
%TO.P,U9,8,VINA*%
X90835000Y-96675000D03*
%TO.P,U9,9,GND*%
%TO.N,GND*%
X90335000Y-96675000D03*
%TO.P,U9,10,FB*%
%TO.N,Net-(U9-FB)*%
X89835000Y-96675000D03*
D114*
%TO.P,U9,11,PGND*%
%TO.N,GND*%
X90835000Y-98575000D03*
X89935000Y-98075000D03*
D115*
X90835000Y-98075000D03*
D114*
X91735000Y-98075000D03*
X90835000Y-97575000D03*
%TD*%
D92*
%TO.P,C15,1*%
%TO.N,GND*%
X94386538Y-87653688D03*
%TO.P,C15,2*%
%TO.N,/Charger/VLED*%
X95273462Y-87286312D03*
%TD*%
D116*
%TO.P,R45,1*%
%TO.N,+3V3*%
X80850000Y-86150000D03*
%TO.P,R45,2*%
%TO.N,/Battery/SDA*%
X81792358Y-86540338D03*
%TD*%
D94*
%TO.P,R7,1*%
%TO.N,+BATT*%
X107852470Y-118559789D03*
%TO.P,R7,2*%
%TO.N,Net-(U2-BAT)*%
X108242808Y-119502147D03*
%TD*%
D75*
%TO.P,C69,1*%
%TO.N,GND*%
X76950000Y-81950000D03*
%TO.P,C69,2*%
%TO.N,+3V3*%
X76063076Y-81582624D03*
%TD*%
D105*
%TO.P,C33,1*%
%TO.N,GND*%
X107635000Y-101050000D03*
%TO.P,C33,2*%
%TO.N,VBUS*%
X106675000Y-101050000D03*
%TD*%
D84*
%TO.P,R43,1*%
%TO.N,+3V3*%
X74916941Y-82575517D03*
%TO.P,R43,2*%
%TO.N,Net-(U1-IO9)*%
X74526603Y-83517875D03*
%TD*%
D81*
%TO.P,C10,1*%
%TO.N,GND*%
X113530000Y-99590000D03*
%TO.P,C10,2*%
%TO.N,/Charger/VLED*%
X113530000Y-100550000D03*
%TD*%
D68*
%TO.P,R8,1*%
%TO.N,GND*%
X115095169Y-123871179D03*
%TO.P,R8,2*%
%TO.N,Net-(U4-VM)*%
X114704831Y-122928821D03*
%TD*%
D93*
%TO.P,R13,1*%
%TO.N,Net-(U8-TS)*%
X102302502Y-94750000D03*
%TO.P,R13,2*%
%TO.N,Net-(U8-REGN)*%
X103322502Y-94750000D03*
%TD*%
%TO.P,R49,1*%
%TO.N,Net-(U9-FB)*%
X89425002Y-94575000D03*
%TO.P,R49,2*%
%TO.N,GND*%
X90445002Y-94575000D03*
%TD*%
D102*
%TO.P,C75,1*%
%TO.N,GND*%
X88375000Y-97625000D03*
%TO.P,C75,2*%
%TO.N,+3V3*%
X88375000Y-96665000D03*
%TD*%
D81*
%TO.P,C29,1*%
%TO.N,Net-(U8-REGN)*%
X104262502Y-102025000D03*
%TO.P,C29,2*%
%TO.N,GND*%
X104262502Y-102985000D03*
%TD*%
D84*
%TO.P,R44,1*%
%TO.N,+3V3*%
X83971481Y-90367283D03*
%TO.P,R44,2*%
%TO.N,Net-(U1-EN)*%
X83581143Y-91309641D03*
%TD*%
D117*
%TO.P,U8,1,VBUS*%
%TO.N,VBUS*%
X105537500Y-100150000D03*
%TO.P,U8,2,D+*%
%TO.N,Net-(U8-D+)*%
X105537500Y-99650000D03*
%TO.P,U8,3,D-*%
%TO.N,Net-(U8-D-)*%
X105537500Y-99150000D03*
%TO.P,U8,4,STAT*%
%TO.N,unconnected-(U8-STAT-Pad4)*%
X105537500Y-98650000D03*
%TO.P,U8,5,SCL*%
%TO.N,/Battery/SCL*%
X105537500Y-98150000D03*
%TO.P,U8,6,SDA*%
%TO.N,/Battery/SDA*%
X105537500Y-97650000D03*
D118*
%TO.P,U8,7,INT*%
%TO.N,unconnected-(U8-INT-Pad7)*%
X104825000Y-96937500D03*
%TO.P,U8,8,OTG*%
%TO.N,+3V3*%
X104325000Y-96937500D03*
%TO.P,U8,9,~{CE}*%
%TO.N,/Charger/~{CHARGE_ENABLE}*%
X103825000Y-96937500D03*
%TO.P,U8,10,ILIM*%
%TO.N,Net-(U8-ILIM)*%
X103325000Y-96937500D03*
%TO.P,U8,11,TS*%
%TO.N,Net-(U8-TS)*%
X102825000Y-96937500D03*
%TO.P,U8,12,QON*%
%TO.N,/Charger/PWR_ON*%
X102325000Y-96937500D03*
D117*
%TO.P,U8,13,BAT*%
%TO.N,/VBAT*%
X101612500Y-97650000D03*
%TO.P,U8,14,BAT*%
X101612500Y-98150000D03*
%TO.P,U8,15,SYS*%
%TO.N,/Charger/VSYS*%
X101612500Y-98650000D03*
%TO.P,U8,16,SYS*%
X101612500Y-99150000D03*
%TO.P,U8,17,PGND*%
%TO.N,GND*%
X101612500Y-99650000D03*
%TO.P,U8,18,PGND*%
X101612500Y-100150000D03*
D118*
%TO.P,U8,19,SW*%
%TO.N,Net-(C27-Pad1)*%
X102325000Y-100862500D03*
%TO.P,U8,20,SW*%
X102825000Y-100862500D03*
%TO.P,U8,21,BTST*%
%TO.N,Net-(U8-BTST)*%
X103325000Y-100862500D03*
%TO.P,U8,22,REGN*%
%TO.N,Net-(U8-REGN)*%
X103825000Y-100862500D03*
%TO.P,U8,23,PMID*%
%TO.N,/Charger/VLED*%
X104325000Y-100862500D03*
%TO.P,U8,24,VBUS*%
%TO.N,VBUS*%
X104825000Y-100862500D03*
D119*
%TO.P,U8,25,PGND*%
%TO.N,GND*%
X103575000Y-98900000D03*
%TD*%
D96*
%TO.P,C11,1*%
%TO.N,GND*%
X112336312Y-94456538D03*
%TO.P,C11,2*%
%TO.N,/Charger/VLED*%
X112703688Y-95343462D03*
%TD*%
D120*
%TO.P,C1,1*%
%TO.N,GND*%
X87332624Y-95186924D03*
%TO.P,C1,2*%
%TO.N,/Charger/VLED*%
X87700000Y-94300000D03*
%TD*%
D92*
%TO.P,C19,1*%
%TO.N,+3V3*%
X94056538Y-76883688D03*
%TO.P,C19,2*%
%TO.N,GND*%
X94943462Y-76516312D03*
%TD*%
D84*
%TO.P,R20,1*%
%TO.N,/Logic/LED1*%
X69835169Y-86408821D03*
%TO.P,R20,2*%
%TO.N,Net-(U1-RXD0)*%
X69444831Y-87351179D03*
%TD*%
D68*
%TO.P,R5,1*%
%TO.N,GND1*%
X107473439Y-126921323D03*
%TO.P,R5,2*%
%TO.N,Net-(U2-SRP)*%
X107083101Y-125978965D03*
%TD*%
D85*
%TO.P,C24,1*%
%TO.N,Net-(U2-REGIN)*%
X108943522Y-123205928D03*
%TO.P,C24,2*%
%TO.N,GND1*%
X108056598Y-123573304D03*
%TD*%
D121*
%TO.P,C4,1*%
%TO.N,GND*%
X90668822Y-109808822D03*
%TO.P,C4,2*%
%TO.N,/Charger/VLED*%
X89990000Y-109130000D03*
%TD*%
D100*
%TO.P,R16,1*%
%TO.N,Net-(U8-D-)*%
X106712502Y-98250000D03*
%TO.P,R16,2*%
%TO.N,GND*%
X106712502Y-97230000D03*
%TD*%
D90*
%TO.P,Q2,1,G*%
%TO.N,Net-(Q2-G)*%
X113170314Y-125981080D03*
%TO.P,Q2,2,S*%
%TO.N,GND*%
X113897412Y-127736451D03*
%TO.P,Q2,3,D*%
%TO.N,Net-(Q1-D)*%
X115266137Y-126141234D03*
%TD*%
D122*
%TO.P,U2,A1,SRP*%
%TO.N,Net-(U2-SRP)*%
X105979322Y-122268956D03*
%TO.P,U2,A3,SCL*%
%TO.N,/Battery/SCL*%
X105596639Y-121345077D03*
%TO.P,U2,B1,SRN*%
%TO.N,Net-(U2-SRN)*%
X106441262Y-122077614D03*
%TO.P,U2,B2,TS*%
%TO.N,Net-(U2-TS)*%
X106249920Y-121615675D03*
%TO.P,U2,B3,SDA*%
%TO.N,/Battery/SDA*%
X106058579Y-121153735D03*
%TO.P,U2,C1,VSS*%
%TO.N,GND1*%
X106903202Y-121886273D03*
%TO.P,U2,C2,VSS*%
X106711860Y-121424333D03*
%TO.P,U2,C3,SE*%
%TO.N,unconnected-(U2-SE-PadC3)*%
X106520518Y-120962393D03*
%TO.P,U2,D1,VCC*%
%TO.N,Net-(U2-VCC)*%
X107365141Y-121694931D03*
%TO.P,U2,D2,CE*%
%TO.N,/Battery/DSG*%
X107173800Y-121232991D03*
%TO.P,U2,E1,REGIN*%
%TO.N,Net-(U2-REGIN)*%
X107827081Y-121503589D03*
%TO.P,U2,E2,BAT*%
%TO.N,Net-(U2-BAT)*%
X107635740Y-121041650D03*
%TO.P,U2,E3,NC*%
%TO.N,unconnected-(U2-NC-PadE3)*%
X107444398Y-120579710D03*
%TD*%
D123*
%TO.P,U6,1,VDD*%
%TO.N,+3V3*%
X91061089Y-70554670D03*
%TO.P,U6,2,L/R*%
%TO.N,GND*%
X90544466Y-69307433D03*
%TO.P,U6,3,CLK*%
%TO.N,Net-(U1-IO5)*%
X89759169Y-69632714D03*
%TO.P,U6,4,DATA*%
%TO.N,Net-(U1-IO4)*%
X90275792Y-70879951D03*
D124*
%TO.P,U6,5,GND*%
%TO.N,GND*%
X89278377Y-70562479D03*
D125*
X89750000Y-68500000D03*
X91070258Y-71687384D03*
D124*
X91541881Y-69624905D03*
%TD*%
D120*
%TO.P,C66,1*%
%TO.N,GND*%
X82882624Y-93061924D03*
%TO.P,C66,2*%
%TO.N,Net-(U1-EN)*%
X83250000Y-92175000D03*
%TD*%
D100*
%TO.P,R17,1*%
%TO.N,VBUS*%
X107712504Y-100120000D03*
%TO.P,R17,2*%
%TO.N,Net-(U8-D+)*%
X107712504Y-99100000D03*
%TD*%
%TO.P,R1,1*%
%TO.N,/Charger/PWR_ON*%
X87500000Y-102660000D03*
%TO.P,R1,2*%
%TO.N,Net-(U1-IO10)*%
X87500000Y-101640000D03*
%TD*%
D72*
%TO.P,L2,1*%
%TO.N,Net-(C27-Pad1)*%
X102012502Y-103850000D03*
%TO.P,L2,2*%
%TO.N,/Charger/VSYS*%
X99212502Y-103850000D03*
%TD*%
D126*
%TO.P,TP4,1,1*%
%TO.N,Net-(U2-BAT)*%
X110250000Y-119150000D03*
%TD*%
%TO.P,TP3,1,1*%
%TO.N,GND1*%
X104000000Y-130250000D03*
%TD*%
D127*
%TO.P,U3,1,IO1*%
%TO.N,/Logic/USB_D+*%
X78771751Y-79166498D03*
%TO.P,U3,2,VN*%
%TO.N,GND*%
X78100000Y-79838249D03*
%TO.P,U3,3,IO2*%
%TO.N,/Logic/USB_D-*%
X77428249Y-80510000D03*
%TO.P,U3,4,IO3*%
%TO.N,unconnected-(U3-IO3-Pad4)*%
X79036917Y-82118668D03*
%TO.P,U3,5,VP*%
%TO.N,VBUS*%
X79708668Y-81446917D03*
%TO.P,U3,6,IO4*%
%TO.N,unconnected-(U3-IO4-Pad6)*%
X80380419Y-80775166D03*
%TD*%
D92*
%TO.P,C22,1*%
%TO.N,Net-(U2-SRN)*%
X108420147Y-124450990D03*
%TO.P,C22,2*%
%TO.N,GND1*%
X109307071Y-124083614D03*
%TD*%
D128*
%TO.P,R2,1*%
%TO.N,/VBAT*%
X89550000Y-114900000D03*
%TO.P,R2,2*%
%TO.N,Net-(J1-Pin_2)*%
X88828752Y-115621248D03*
%TD*%
D79*
%TO.P,C3,1*%
%TO.N,GND*%
X87617376Y-105516924D03*
%TO.P,C3,2*%
%TO.N,/Charger/VLED*%
X87250000Y-104630000D03*
%TD*%
D89*
%TO.P,C65,1*%
%TO.N,+3V3*%
X81600000Y-95850000D03*
%TO.P,C65,2*%
%TO.N,GND*%
X81232624Y-96736924D03*
%TD*%
D93*
%TO.P,R3,1*%
%TO.N,Net-(U8-ILIM)*%
X103302502Y-95750000D03*
%TO.P,R3,2*%
%TO.N,GND*%
X104322502Y-95750000D03*
%TD*%
D96*
%TO.P,C18,1*%
%TO.N,GND*%
X92166312Y-76606538D03*
%TO.P,C18,2*%
%TO.N,+3V3*%
X92533688Y-77493462D03*
%TD*%
D92*
%TO.P,C25,1*%
%TO.N,GND1*%
X106880035Y-123032380D03*
%TO.P,C25,2*%
%TO.N,Net-(U2-VCC)*%
X107766959Y-122665004D03*
%TD*%
D129*
%TO.P,BTT2,1,1*%
%TO.N,GND1*%
X102500000Y-124400000D03*
X97500000Y-124400000D03*
X100000000Y-132000000D03*
%TD*%
%TO.P,BTT1,1,1*%
%TO.N,+BATT*%
X97500000Y-75600000D03*
X102500000Y-75600000D03*
X100000000Y-68000000D03*
%TD*%
D130*
%TO.N,/Battery/SCL*%
X109270800Y-108153200D03*
X113995200Y-109626400D03*
X107508800Y-106391200D03*
%TO.N,/Battery/SDA*%
X103350000Y-117150000D03*
%TO.N,/Battery/SCL*%
X102666800Y-116636800D03*
%TO.N,/Battery/SDA*%
X115570000Y-109220000D03*
%TO.N,GND1*%
X106350000Y-128250000D03*
X108400000Y-121400000D03*
X106750000Y-127850000D03*
X107400000Y-129350000D03*
X104000000Y-130250000D03*
X106900000Y-122350000D03*
X106850000Y-128700000D03*
X106850000Y-129400000D03*
%TO.N,GND*%
X113576294Y-128456774D03*
X102475000Y-97800000D03*
X102475000Y-100000000D03*
X71275000Y-93575000D03*
X77900000Y-96350000D03*
X115350000Y-124350000D03*
X82750000Y-78650000D03*
X102475000Y-98900000D03*
X74225000Y-94800000D03*
X112162237Y-93918882D03*
X95700000Y-112900000D03*
X100900000Y-100900000D03*
X104675000Y-100000000D03*
X110272507Y-108909298D03*
X81750000Y-96975000D03*
X78050000Y-90725000D03*
X93918882Y-87837763D03*
X108200000Y-102175000D03*
X114676294Y-128006774D03*
X103575000Y-98900000D03*
X112900000Y-104300000D03*
X89727493Y-91090702D03*
X76225000Y-89975000D03*
X104300000Y-87100000D03*
X99036066Y-86436415D03*
X99225000Y-98300000D03*
X92000000Y-69400000D03*
X108200000Y-101050000D03*
X104675000Y-97800000D03*
X95100000Y-80950000D03*
X103575000Y-100000000D03*
X77438249Y-79150000D03*
X98625000Y-98350000D03*
X96600000Y-78850000D03*
X80700000Y-86900000D03*
X79100000Y-96550000D03*
X83450000Y-78650000D03*
X114176294Y-128256774D03*
X107225000Y-97600000D03*
X72750000Y-94200000D03*
X79400000Y-95825000D03*
X73500000Y-94500000D03*
X102650000Y-90450000D03*
X76750000Y-91250000D03*
X114800000Y-127300000D03*
X75475000Y-91800000D03*
X83450000Y-79300000D03*
X90650000Y-68150000D03*
X70525000Y-93275000D03*
X78875000Y-97425000D03*
X76425000Y-95750000D03*
X100963934Y-113563585D03*
X69800000Y-92975000D03*
X77600000Y-81950000D03*
X87837763Y-106081118D03*
X104275000Y-103500000D03*
X72000000Y-93900000D03*
X101400000Y-101300000D03*
X108909298Y-89727493D03*
X94700000Y-76000000D03*
X86436415Y-100963934D03*
X94100000Y-81150000D03*
X69050000Y-93375000D03*
X100500000Y-101500000D03*
X90725000Y-95125000D03*
X106081118Y-112162237D03*
X71550000Y-83350000D03*
X103575000Y-97800000D03*
X107425000Y-103550000D03*
X100900000Y-100200000D03*
X75675000Y-88675000D03*
X74375000Y-89200000D03*
X77500000Y-89450000D03*
X101325000Y-96300000D03*
X90900000Y-72750000D03*
X74150000Y-92350000D03*
X77175000Y-96050000D03*
X100462498Y-95450000D03*
X108193749Y-103000000D03*
X101500000Y-100500000D03*
X99787498Y-95450000D03*
X74925000Y-90500000D03*
X113563585Y-99036066D03*
X104825000Y-95750000D03*
X104675000Y-98900000D03*
X107275000Y-101550000D03*
X91090702Y-110272507D03*
X77275000Y-92550000D03*
X88900000Y-70750000D03*
X82600000Y-93600000D03*
X106637498Y-102975000D03*
X92700000Y-76350000D03*
X81025000Y-97225000D03*
X83900000Y-88900000D03*
X75700000Y-95425000D03*
X76000000Y-93100000D03*
X73625000Y-91050000D03*
X74950000Y-95125000D03*
X87100000Y-95700000D03*
%TO.N,+3V3*%
X81825000Y-95350000D03*
X92800000Y-71950000D03*
X80250000Y-86150000D03*
X103150000Y-91400000D03*
X93800000Y-76350000D03*
X84775000Y-97050000D03*
X83900000Y-96175000D03*
X103150000Y-93200000D03*
X85000000Y-89200000D03*
X103150000Y-80900000D03*
X84325000Y-96600000D03*
X76600000Y-81200000D03*
X79150000Y-83400000D03*
X93150000Y-77250000D03*
X95850000Y-80750000D03*
X84200000Y-89800000D03*
X75350000Y-83000000D03*
X82125000Y-96075000D03*
%TO.N,Net-(U8-REGN)*%
X103750000Y-94325000D03*
X104975000Y-103650000D03*
%TO.N,Net-(U2-VCC)*%
X107500000Y-122100000D03*
X105550000Y-123600000D03*
%TO.N,/Logic/USB_D-*%
X73350000Y-86260000D03*
X78538249Y-80900000D03*
%TO.N,/Logic/USB_D+*%
X79288249Y-80300000D03*
X73350000Y-86930000D03*
%TO.N,/Charger/VLED*%
X101116718Y-86494614D03*
X98883282Y-113505386D03*
X93800000Y-112050000D03*
X108760111Y-110339388D03*
X106200000Y-87950000D03*
X113505386Y-101116718D03*
X95863425Y-87095301D03*
X105650000Y-103700000D03*
X89660612Y-108760111D03*
X86494614Y-98883282D03*
X87095301Y-104136575D03*
X106225000Y-103450000D03*
X104136575Y-112904699D03*
X87950000Y-93800000D03*
X91239889Y-89660612D03*
X110339388Y-91239889D03*
X112050000Y-106200000D03*
X112904699Y-95863425D03*
X106293749Y-102400000D03*
%TO.N,VBUS*%
X106050000Y-101475000D03*
X81188249Y-78500000D03*
X106650000Y-101650000D03*
X79445952Y-78142297D03*
X79945952Y-78642297D03*
X81672331Y-77900000D03*
X105925000Y-100675000D03*
X105300000Y-100700000D03*
%TO.N,/VBAT*%
X100750000Y-97100000D03*
X101000000Y-80200000D03*
X92900000Y-111550000D03*
X101000000Y-79500000D03*
X100100000Y-80600000D03*
X90650000Y-113800000D03*
X101600000Y-97000000D03*
X101000000Y-78800000D03*
X107050000Y-95100000D03*
X99450000Y-97100000D03*
X100100000Y-78300000D03*
X100125000Y-97025000D03*
%TO.N,/Charger/PWR_ON*%
X97950000Y-105100000D03*
X104800000Y-94450000D03*
X88175000Y-104075000D03*
%TO.N,Net-(U1-IO10)*%
X87500000Y-101000000D03*
X79650000Y-89950000D03*
%TO.N,+BATT*%
X109650000Y-120900000D03*
X108450000Y-118300000D03*
%TO.N,/Logic/LED2*%
X69200000Y-88300000D03*
%TO.N,/Logic/LED1*%
X70200000Y-85850000D03*
%TO.N,/Battery/SDA*%
X105900000Y-95150000D03*
X91900000Y-92050000D03*
X94650000Y-79250000D03*
X92450000Y-80000000D03*
X86150000Y-86300000D03*
%TO.N,/Battery/SCL*%
X91600000Y-90750000D03*
X87275000Y-86425000D03*
X106500000Y-96400000D03*
%TO.N,/Charger/~{CHARGE_ENABLE}*%
X81200000Y-90200000D03*
X104225000Y-94912500D03*
%TD*%
D131*
%TO.N,/Battery/SCL*%
X123273549Y-123258851D02*
X123273549Y-118904749D01*
X109270800Y-108153200D02*
X107508800Y-106391200D01*
X123273549Y-118904749D02*
X113995200Y-109626400D01*
%TO.N,/Battery/SDA*%
X103350000Y-118445156D02*
X103350000Y-117150000D01*
X106058579Y-121153735D02*
X103350000Y-118445156D01*
%TO.N,/Battery/SCL*%
X105596639Y-121345077D02*
X102666800Y-118415238D01*
X102666800Y-118415238D02*
X102666800Y-116636800D01*
%TO.N,/Battery/SDA*%
X125069600Y-118719600D02*
X115570000Y-109220000D01*
X125069600Y-121462800D02*
X125069600Y-118719600D01*
%TO.N,/Charger/VSYS*%
X92315000Y-95575000D02*
X91325000Y-95575000D01*
D132*
X93416147Y-99474999D02*
X94025000Y-98866146D01*
X98580761Y-99225000D02*
X98221907Y-98866146D01*
D131*
X90835000Y-96115000D02*
X91325000Y-95625000D01*
D132*
X92425000Y-99474999D02*
X93374999Y-99474999D01*
D131*
X91835000Y-96085000D02*
X91325000Y-95575000D01*
D132*
X94025000Y-97203852D02*
X93396148Y-96575000D01*
X93396148Y-96575000D02*
X93325000Y-96575000D01*
X98221907Y-98866146D02*
X94025000Y-98866146D01*
D131*
X91835000Y-96675000D02*
X91835000Y-96085000D01*
D132*
X93334999Y-99474999D02*
X93416147Y-99474999D01*
D131*
X91335000Y-95635000D02*
X91325000Y-95625000D01*
X91335000Y-96675000D02*
X91335000Y-95635000D01*
D132*
X94025000Y-98866146D02*
X94025000Y-97203852D01*
D133*
X92425000Y-99474999D02*
X92275000Y-99474999D01*
D131*
X90835000Y-96675000D02*
X90835000Y-96115000D01*
D132*
X98612502Y-99225000D02*
X98580761Y-99225000D01*
D133*
X93334999Y-99474999D02*
X92425000Y-99474999D01*
X92275000Y-99474999D02*
X92125001Y-99474999D01*
D132*
X93374999Y-99474999D02*
X93375000Y-99475000D01*
D131*
X93335000Y-96595000D02*
X92315000Y-95575000D01*
X91835000Y-99475000D02*
X92125000Y-99475000D01*
D133*
X92125001Y-99474999D02*
X92125000Y-99475000D01*
%TO.N,GND1*%
X107604997Y-128382178D02*
X106750000Y-127850000D01*
X107604997Y-128382178D02*
X106850000Y-128700000D01*
D131*
X107473439Y-126921323D02*
X107865408Y-127083681D01*
X106880035Y-123032380D02*
X106900000Y-122350000D01*
D133*
X107604997Y-128382178D02*
X106850000Y-129400000D01*
D131*
X108056598Y-123573304D02*
X109300000Y-124100000D01*
X107865408Y-127083681D02*
X108248091Y-128007560D01*
X108939291Y-121183607D02*
X108400000Y-121400000D01*
X108248091Y-128007560D02*
X108193972Y-128138217D01*
X106903202Y-121886273D02*
X106700000Y-121400000D01*
X106880035Y-123032380D02*
X107250000Y-123900000D01*
D133*
X107604997Y-128382178D02*
X106350000Y-128250000D01*
D131*
X107252823Y-123906239D02*
X108050000Y-123550000D01*
D133*
X107604997Y-128382178D02*
X107400000Y-129350000D01*
D131*
X106900000Y-122350000D02*
X106900000Y-121900000D01*
X108193972Y-128138217D02*
X107639644Y-128367827D01*
%TO.N,GND*%
X113545014Y-99599107D02*
X113563585Y-99036065D01*
D133*
X82064594Y-79335406D02*
X82750000Y-78650000D01*
X100825000Y-100725000D02*
X100900000Y-100800000D01*
X77660597Y-96947873D02*
X77900000Y-96350000D01*
D131*
X112667376Y-104813076D02*
X112900000Y-104300000D01*
D133*
X81232624Y-96736924D02*
X81025000Y-97225000D01*
D131*
X90375000Y-95475000D02*
X90725000Y-95125000D01*
D133*
X107635000Y-101190000D02*
X107275000Y-101550000D01*
X72237428Y-84037428D02*
X71550000Y-83350000D01*
D131*
X104322502Y-95750000D02*
X104825000Y-95750000D01*
X73259766Y-91958992D02*
X73625000Y-91050000D01*
D133*
X82402843Y-79724594D02*
X82402843Y-79685406D01*
X106662498Y-103000000D02*
X106637498Y-102975000D01*
D131*
X90138755Y-90705703D02*
X89205431Y-89737945D01*
X115095169Y-123871179D02*
X115350000Y-124350000D01*
X112360546Y-94446171D02*
X113611805Y-93954237D01*
D133*
X107412502Y-103537502D02*
X107425000Y-103550000D01*
D131*
X90705703Y-109861245D02*
X89737945Y-110794569D01*
X77664890Y-91645930D02*
X76750000Y-91250000D01*
D133*
X80066530Y-96104377D02*
X79400000Y-95825000D01*
X100450000Y-95462498D02*
X100462498Y-95450000D01*
X72237428Y-84039960D02*
X72460040Y-84039960D01*
X98612502Y-97687502D02*
X99225000Y-98300000D01*
X100500000Y-101000000D02*
X100500000Y-101500000D01*
D131*
X90375000Y-94575000D02*
X90325000Y-94525000D01*
X95186924Y-112667376D02*
X95700000Y-112900000D01*
D133*
X80671791Y-86928209D02*
X80700000Y-86900000D01*
D131*
X109861245Y-109294297D02*
X110794569Y-110262055D01*
X76596028Y-89065468D02*
X76225000Y-89975000D01*
D133*
X68448862Y-93186367D02*
X69050000Y-93375000D01*
X82821851Y-89228149D02*
X83350000Y-88700000D01*
D132*
X93334999Y-98514999D02*
X91264999Y-98514999D01*
D133*
X113323706Y-127943225D02*
X113576294Y-128456774D01*
D131*
X89750000Y-68500000D02*
X90650000Y-68150000D01*
X99599107Y-86454986D02*
X99623455Y-85110718D01*
D133*
X107406251Y-103000000D02*
X108193749Y-103000000D01*
X107425000Y-103000000D02*
X106662498Y-103000000D01*
X107635000Y-101050000D02*
X108200000Y-101050000D01*
D131*
X77275000Y-92550000D02*
X76900000Y-93475000D01*
X90375000Y-95574999D02*
X90375000Y-95475000D01*
X90335000Y-95585000D02*
X90325000Y-95575000D01*
X87332624Y-95186924D02*
X87100000Y-95700000D01*
X104813076Y-87332624D02*
X105350000Y-86100000D01*
X76225000Y-89975000D02*
X75475000Y-91800000D01*
X91406538Y-72533688D02*
X90900000Y-72750000D01*
X106855000Y-97230000D02*
X107225000Y-97600000D01*
D133*
X69530457Y-93580259D02*
X69050000Y-93375000D01*
X98612502Y-98337502D02*
X98625000Y-98350000D01*
D132*
X89815001Y-98515001D02*
X89925000Y-98625000D01*
D131*
X94446171Y-87639454D02*
X93954237Y-86388195D01*
X109861245Y-109294297D02*
X110272507Y-108909298D01*
D133*
X91595000Y-97555000D02*
X91575000Y-97575000D01*
D132*
X88375000Y-98515001D02*
X89815001Y-98515001D01*
D133*
X81232624Y-96736924D02*
X81750000Y-96975000D01*
X100112502Y-100725000D02*
X100825000Y-100725000D01*
D131*
X95054351Y-80276660D02*
X95100000Y-80950000D01*
X78266312Y-84743462D02*
X77150000Y-84650000D01*
X77127706Y-83104559D02*
X76950000Y-82000000D01*
D133*
X71747768Y-94498699D02*
X72000000Y-93900000D01*
D131*
X75475000Y-91800000D02*
X75075000Y-92725000D01*
X74150000Y-92350000D02*
X73250000Y-91975000D01*
D133*
X78399701Y-97254020D02*
X78875000Y-97425000D01*
D131*
X90335000Y-96675000D02*
X90335000Y-95585000D01*
X95525975Y-78214181D02*
X95900000Y-77850000D01*
X94943462Y-76516312D02*
X94700000Y-76000000D01*
D133*
X80671791Y-87587707D02*
X80671791Y-86928209D01*
X98612502Y-97675000D02*
X98612502Y-97687502D01*
X73965079Y-95417140D02*
X74225000Y-94800000D01*
X82764594Y-79335406D02*
X83450000Y-78650000D01*
D131*
X76000000Y-93100000D02*
X74150000Y-92350000D01*
D133*
X79443028Y-97740300D02*
X78875000Y-97425000D01*
D131*
X78420690Y-89821268D02*
X78050000Y-90725000D01*
X105553829Y-112360546D02*
X106045763Y-113611805D01*
D133*
X82821851Y-89452444D02*
X82821851Y-89228149D01*
D131*
X77173337Y-84692929D02*
X77150000Y-83100000D01*
D133*
X99775000Y-96175000D02*
X99775000Y-95462498D01*
D132*
X91264999Y-98514999D02*
X91125000Y-98375000D01*
D131*
X105553829Y-112360546D02*
X106081119Y-112162236D01*
X86454986Y-100400893D02*
X86436415Y-100963935D01*
X102190001Y-90889995D02*
X102210005Y-90889995D01*
D133*
X88375000Y-98515001D02*
X89915001Y-98515001D01*
D131*
X87639454Y-105553829D02*
X87837764Y-106081119D01*
X107600000Y-97225000D02*
X107225000Y-97600000D01*
X104262502Y-102985000D02*
X104262502Y-103487502D01*
D132*
X91595000Y-97555000D02*
X91175000Y-97975000D01*
D133*
X114423706Y-127493225D02*
X114676294Y-128006774D01*
D131*
X90544466Y-69307433D02*
X91300000Y-69000000D01*
X76950000Y-81950000D02*
X77600000Y-81950000D01*
D133*
X100900000Y-100800000D02*
X100900000Y-100900000D01*
D131*
X100400893Y-113545014D02*
X100963935Y-113563585D01*
X75675000Y-88675000D02*
X77500000Y-89450000D01*
X101050001Y-90749998D02*
X102250002Y-90749997D01*
D133*
X90835000Y-99475000D02*
X90835000Y-98535000D01*
X70269561Y-93886406D02*
X70525000Y-93275000D01*
D131*
X86454986Y-100400893D02*
X85110718Y-100376545D01*
X74925000Y-90500000D02*
X74000000Y-90125000D01*
D133*
X91714999Y-98514999D02*
X91675000Y-98475000D01*
X107412502Y-102175000D02*
X108200000Y-102175000D01*
X88375000Y-97625000D02*
X89975000Y-97625000D01*
D131*
X87639454Y-105553829D02*
X86388195Y-106045763D01*
X91406538Y-72533688D02*
X91050000Y-71700000D01*
D133*
X100112502Y-100725000D02*
X100225000Y-100725000D01*
D131*
X95908658Y-79138061D02*
X96600000Y-78850000D01*
X102210005Y-90889995D02*
X102650000Y-90450000D01*
X101302502Y-96277502D02*
X101325000Y-96300000D01*
X76750000Y-91250000D02*
X74925000Y-90500000D01*
D132*
X93335000Y-97555000D02*
X91545000Y-97555000D01*
D133*
X113923706Y-127743225D02*
X114176294Y-128256774D01*
X83231594Y-88593893D02*
X83900000Y-88900000D01*
D131*
X89278377Y-70562479D02*
X88900000Y-70750000D01*
X91541881Y-69624905D02*
X92000000Y-69400000D01*
D133*
X113897412Y-127736451D02*
X114800000Y-127300000D01*
D131*
X106712502Y-97230000D02*
X106855000Y-97230000D01*
D133*
X98612502Y-97675000D02*
X98612502Y-98337502D01*
X80066530Y-96104377D02*
X81275000Y-96750000D01*
X82764594Y-79985406D02*
X83450000Y-79300000D01*
X107635000Y-101050000D02*
X107635000Y-101190000D01*
X76182390Y-96335580D02*
X76425000Y-95750000D01*
X73225976Y-95110993D02*
X73500000Y-94500000D01*
D131*
X94446171Y-87639454D02*
X93918881Y-87837764D01*
X104813076Y-87332624D02*
X104300000Y-87100000D01*
X93836495Y-80537575D02*
X94100000Y-81150000D01*
D133*
X74704183Y-95723286D02*
X74950000Y-95125000D01*
X90835000Y-98535000D02*
X90800000Y-98500000D01*
D131*
X95900000Y-77850000D02*
X95500000Y-76900000D01*
X90375000Y-95574999D02*
X90375000Y-94575000D01*
X104262502Y-103487502D02*
X104275000Y-103500000D01*
D133*
X75443286Y-96029433D02*
X75700000Y-95425000D01*
X89915001Y-98515001D02*
X89925000Y-98525000D01*
D132*
X91545000Y-97555000D02*
X91375000Y-97725000D01*
D131*
X113545014Y-99599107D02*
X114889282Y-99623455D01*
D133*
X72486872Y-94804846D02*
X72750000Y-94200000D01*
D131*
X112667376Y-104813076D02*
X113900000Y-105350000D01*
D133*
X100450000Y-96175000D02*
X100450000Y-95462498D01*
X79760384Y-96843480D02*
X79100000Y-96550000D01*
D131*
X82882624Y-93061924D02*
X82600000Y-93600000D01*
D133*
X72237428Y-84039960D02*
X72237428Y-84037428D01*
D131*
X74771366Y-88309668D02*
X75675000Y-88675000D01*
X87332624Y-95186924D02*
X86100000Y-94650000D01*
D133*
X100900000Y-100900000D02*
X101000000Y-100900000D01*
X76921494Y-96641727D02*
X77175000Y-96050000D01*
D131*
X109294297Y-90138755D02*
X110262055Y-89205431D01*
X76909090Y-93470592D02*
X76000000Y-93100000D01*
X90705703Y-109861245D02*
X91090702Y-110272507D01*
D133*
X71008665Y-94192553D02*
X71275000Y-93575000D01*
X99775000Y-95462498D02*
X99787498Y-95450000D01*
D131*
X90138755Y-90705703D02*
X89727493Y-91090702D01*
X95186924Y-112667376D02*
X94650000Y-113900000D01*
D133*
X100225000Y-100725000D02*
X100500000Y-101000000D01*
D131*
X92166312Y-76606538D02*
X92700000Y-76350000D01*
D133*
X101000000Y-100900000D02*
X101400000Y-101300000D01*
D131*
X74375000Y-89200000D02*
X74750000Y-88275000D01*
D133*
X78100000Y-79811751D02*
X77438249Y-79150000D01*
X107412502Y-102575000D02*
X107412502Y-103537502D01*
D131*
X112360546Y-94446171D02*
X112162236Y-93918881D01*
X73625000Y-91050000D02*
X74375000Y-89200000D01*
D132*
X88375000Y-97625000D02*
X90075000Y-97625000D01*
D131*
X101302502Y-95750000D02*
X101302502Y-96277502D01*
X99599107Y-86454986D02*
X99036065Y-86436415D01*
X95500000Y-76900000D02*
X94900000Y-76550000D01*
D133*
X78100000Y-79838249D02*
X78100000Y-79811751D01*
D131*
X77500000Y-89450000D02*
X78425000Y-89825000D01*
X109294297Y-90138755D02*
X108909298Y-89727493D01*
X100400893Y-113545014D02*
X100376545Y-114889282D01*
D133*
X82402843Y-79724594D02*
X82412843Y-79724594D01*
X82402843Y-79724594D02*
X81912843Y-79724594D01*
X69530457Y-93580259D02*
X69800000Y-92975000D01*
D131*
X107712502Y-97225000D02*
X107600000Y-97225000D01*
X78050000Y-90725000D02*
X77275000Y-92550000D01*
D132*
%TO.N,+3V3*%
X84987000Y-97262000D02*
X84775000Y-97050000D01*
X87688000Y-97262000D02*
X88275000Y-96675000D01*
D131*
X92293462Y-72166312D02*
X92800000Y-71950000D01*
D133*
X81600000Y-95850000D02*
X81825000Y-95350000D01*
X88375000Y-99475001D02*
X89325000Y-99475001D01*
D131*
X80850000Y-86150000D02*
X80250000Y-86150000D01*
X89524999Y-99475001D02*
X89824999Y-99475001D01*
X94578717Y-77821814D02*
X94100000Y-76800000D01*
X92293462Y-72166312D02*
X92293462Y-71593462D01*
D132*
X87688000Y-97262000D02*
X84987000Y-97262000D01*
D131*
X93071128Y-78689816D02*
X92550000Y-77500000D01*
D132*
X87688000Y-98869149D02*
X87688000Y-97262000D01*
D131*
X102700005Y-91849995D02*
X103150000Y-91400000D01*
X105000000Y-96300000D02*
X104692204Y-96300000D01*
X101050001Y-92049996D02*
X102300001Y-92049997D01*
D132*
X84325000Y-96600000D02*
X83900000Y-96175000D01*
X88275000Y-96675000D02*
X88375000Y-96675000D01*
X84775000Y-97050000D02*
X84325000Y-96600000D01*
D131*
X92293462Y-71593462D02*
X91600000Y-70900000D01*
X105350000Y-94250000D02*
X105350000Y-95950000D01*
D132*
X89325000Y-99475001D02*
X88375001Y-99475001D01*
D133*
X89524999Y-99475001D02*
X89525000Y-99475000D01*
X80372677Y-95365273D02*
X81625000Y-95875000D01*
D131*
X95516291Y-80085319D02*
X95850000Y-80750000D01*
X78633688Y-83856538D02*
X78693462Y-83856538D01*
X102190001Y-91849995D02*
X102700005Y-91849995D01*
X103150000Y-93200000D02*
X104300000Y-93200000D01*
X83971481Y-90367283D02*
X84200000Y-89800000D01*
X105350000Y-95950000D02*
X105000000Y-96300000D01*
X91400000Y-70900000D02*
X91200000Y-70700000D01*
X94056538Y-76883688D02*
X93800000Y-76350000D01*
X74916941Y-82575517D02*
X74925517Y-82575517D01*
D132*
X88293852Y-99475001D02*
X87688000Y-98869149D01*
D131*
X104325000Y-96667204D02*
X104325000Y-96937500D01*
X74925517Y-82575517D02*
X75350000Y-83000000D01*
D133*
X81600000Y-95850000D02*
X82125000Y-96075000D01*
D131*
X91600000Y-70900000D02*
X91400000Y-70900000D01*
X88375000Y-96665000D02*
X88375000Y-95575000D01*
X76527185Y-82855815D02*
X76100000Y-81600000D01*
X89824999Y-99475001D02*
X89825000Y-99475000D01*
X78693462Y-83856538D02*
X79150000Y-83400000D01*
X92533688Y-77493462D02*
X93150000Y-77250000D01*
X104300000Y-93200000D02*
X105350000Y-94250000D01*
X104692204Y-96300000D02*
X104325000Y-96667204D01*
X76217376Y-81582624D02*
X76600000Y-81200000D01*
X76063076Y-81582624D02*
X76217376Y-81582624D01*
D133*
X89325000Y-99475001D02*
X89524999Y-99475001D01*
D132*
X88375001Y-99475001D02*
X88375000Y-99475000D01*
D131*
X78633688Y-83856538D02*
X77650000Y-83350000D01*
X85000000Y-88660000D02*
X85000000Y-89200000D01*
D132*
X88375000Y-99475001D02*
X88293852Y-99475001D01*
D131*
%TO.N,Net-(D1-DOUT)*%
X83044386Y-101329289D02*
X85362889Y-104101219D01*
%TO.N,/LEDs/DIN*%
X82300000Y-95350000D02*
X84800000Y-97850000D01*
X82300000Y-94156845D02*
X82300000Y-95350000D01*
X81291117Y-93147962D02*
X82300000Y-94156845D01*
X84800000Y-97850000D02*
X84800000Y-98200000D01*
%TO.N,Net-(D2-DOUT)*%
X84843752Y-107716736D02*
X88046542Y-109390413D01*
%TO.N,Net-(D3-DOUT)*%
X88950520Y-112929379D02*
X92550000Y-113250000D01*
%TO.N,Net-(D4-DOUT)*%
X94739471Y-116173642D02*
X98187653Y-115092396D01*
%TO.N,Net-(D5-DOUT)*%
X101329289Y-116955614D02*
X104101219Y-114637111D01*
%TO.N,Net-(D6-DOUT)*%
X107716736Y-115156248D02*
X109390413Y-111953458D01*
%TO.N,Net-(D7-DOUT)*%
X112929379Y-111049480D02*
X113250000Y-107450000D01*
%TO.N,Net-(D8-DOUT)*%
X116173642Y-105260529D02*
X115092396Y-101812347D01*
%TO.N,Net-(D10-DIN)*%
X116955614Y-98670711D02*
X114637111Y-95898781D01*
%TO.N,Net-(D10-DOUT)*%
X115156248Y-92283264D02*
X111953458Y-90609587D01*
%TO.N,Net-(D11-DOUT)*%
X111049480Y-87070621D02*
X107450000Y-86750000D01*
%TO.N,Net-(D12-DOUT)*%
X105260529Y-83826358D02*
X101812347Y-84907604D01*
%TO.N,Net-(D13-DOUT)*%
X98670711Y-83044386D02*
X95898781Y-85362889D01*
%TO.N,Net-(D14-DOUT)*%
X92283264Y-84843752D02*
X90609587Y-88046542D01*
%TO.N,Net-(D15-DOUT)*%
X87070621Y-88950520D02*
X86750000Y-92550000D01*
%TO.N,Net-(U8-REGN)*%
X104800000Y-103475000D02*
X104975000Y-103650000D01*
X104800000Y-103250000D02*
X104800000Y-103475000D01*
X103825000Y-101550000D02*
X104225000Y-101950000D01*
X103322502Y-94750000D02*
X103325000Y-94750000D01*
X104800000Y-102562498D02*
X104800000Y-103250000D01*
X103325000Y-94750000D02*
X103750000Y-94325000D01*
X103825000Y-100862500D02*
X103825000Y-101550000D01*
X104262502Y-102025000D02*
X104800000Y-102562498D01*
%TO.N,Net-(U1-EN)*%
X83581143Y-91309641D02*
X83200000Y-92200000D01*
X83250000Y-92175000D02*
X81900000Y-91600000D01*
%TO.N,Net-(Q2-G)*%
X113750000Y-123899999D02*
X113700000Y-125750000D01*
%TO.N,Net-(Q1-G)*%
X111994629Y-124627097D02*
X112000000Y-123200000D01*
X106863761Y-119413107D02*
X107200000Y-118300000D01*
X110300000Y-117100000D02*
X108150000Y-117900000D01*
X113650000Y-122500000D02*
X113750000Y-122150000D01*
X112000000Y-123200000D02*
X113650000Y-122500000D01*
X111800000Y-117500000D02*
X110300000Y-117100000D01*
X113750000Y-122150000D02*
X111800000Y-117500000D01*
X110904177Y-126939846D02*
X111700000Y-126250000D01*
X111700000Y-126250000D02*
X112050000Y-125100000D01*
X107200000Y-118300000D02*
X108150000Y-117900000D01*
%TO.N,Net-(U2-VCC)*%
X107766959Y-122665004D02*
X107500000Y-122100000D01*
X107500000Y-122100000D02*
X107350000Y-121700000D01*
X105300632Y-123112923D02*
X105550000Y-123600000D01*
%TO.N,Net-(U1-IO9)*%
X75221772Y-83446696D02*
X74521772Y-83546696D01*
X74091631Y-84729083D02*
X74571772Y-83596696D01*
X76521772Y-83996696D02*
X75221772Y-83446696D01*
X76572815Y-84444185D02*
X76572815Y-84047739D01*
X76572815Y-84047739D02*
X76521772Y-83996696D01*
%TO.N,Net-(U1-IO6)*%
X75926663Y-82607071D02*
X75219592Y-81900000D01*
X73100000Y-83750000D02*
X73275000Y-83375000D01*
X75219592Y-81900000D02*
X74750000Y-81900000D01*
X75837997Y-86150000D02*
X75400000Y-86150000D01*
X73275000Y-83375000D02*
X74750000Y-81900000D01*
X76237170Y-85750827D02*
X75837997Y-86150000D01*
X75400000Y-86150000D02*
X72850000Y-85200000D01*
X72675037Y-84625037D02*
X72675037Y-85025037D01*
X72675037Y-84625037D02*
X73100000Y-83750000D01*
X72675037Y-85025037D02*
X72850000Y-85200000D01*
%TO.N,Net-(U1-IO7)*%
X75498066Y-85444680D02*
X75950000Y-84350000D01*
%TO.N,Net-(U1-IO8)*%
X74758962Y-85138533D02*
X75250000Y-84000000D01*
%TO.N,/Logic/USB_D-*%
X77028427Y-80228427D02*
X77350000Y-80550000D01*
D134*
X73126324Y-86348500D02*
X73313000Y-86348500D01*
X73313000Y-86348500D02*
X73350000Y-86311500D01*
X72113677Y-85675883D02*
X72834294Y-86396500D01*
D133*
X77428249Y-80510000D02*
X77818249Y-80900000D01*
D131*
X77428249Y-80510000D02*
X77428249Y-80490000D01*
D133*
X77818249Y-80900000D02*
X78538249Y-80900000D01*
D134*
X72834294Y-86396500D02*
X73078324Y-86396500D01*
X71613926Y-85675883D02*
X72113677Y-85675883D01*
D131*
X74191573Y-80228427D02*
X77028427Y-80228427D01*
D134*
X73078324Y-86396500D02*
X73126324Y-86348500D01*
%TO.N,/Logic/USB_D+*%
X71306103Y-86343897D02*
X71250000Y-86400000D01*
X72665706Y-86803500D02*
X72206103Y-86343897D01*
D133*
X78771751Y-79166498D02*
X79288249Y-79682996D01*
D131*
X78186500Y-78686500D02*
X78500000Y-79000000D01*
D134*
X73313000Y-86851500D02*
X73126324Y-86851500D01*
X72206103Y-86343897D02*
X71306103Y-86343897D01*
D131*
X75605786Y-78814214D02*
X75733500Y-78686500D01*
X78771751Y-79166498D02*
X78771751Y-79133502D01*
D134*
X73078324Y-86803500D02*
X72665706Y-86803500D01*
X73350000Y-86888500D02*
X73313000Y-86851500D01*
D131*
X75733500Y-78686500D02*
X78186500Y-78686500D01*
D134*
X73126324Y-86851500D02*
X73078324Y-86803500D01*
D133*
X79288249Y-79682996D02*
X79288249Y-80300000D01*
D131*
%TO.N,/Charger/VLED*%
X112727922Y-95333095D02*
X115945258Y-94095658D01*
X104666905Y-112727922D02*
X105904342Y-115945258D01*
X100559107Y-86454986D02*
X101116718Y-86494614D01*
X113545014Y-100462021D02*
X116990991Y-100550000D01*
D133*
X104598230Y-101493000D02*
X104325000Y-101493000D01*
X104325000Y-100862500D02*
X104325000Y-101219770D01*
D131*
X90817577Y-90026880D02*
X91239889Y-89660611D01*
D133*
X105512502Y-102575000D02*
X105512502Y-102762498D01*
D131*
X86454986Y-99440893D02*
X83009009Y-99352914D01*
D133*
X105512502Y-102575000D02*
X105512502Y-102737502D01*
X105512502Y-102575000D02*
X105512502Y-102087502D01*
X105512502Y-102087502D02*
X105025000Y-101600000D01*
D131*
X112727922Y-95333095D02*
X112904699Y-95863425D01*
D133*
X104715115Y-101609885D02*
X104598230Y-101493000D01*
D131*
X95333095Y-87272078D02*
X95863425Y-87095301D01*
X113545014Y-100559107D02*
X113505386Y-101116718D01*
X86454986Y-99440893D02*
X86494614Y-98883282D01*
D133*
X105512502Y-102575000D02*
X105512502Y-102262498D01*
D131*
X87700000Y-94300000D02*
X84550000Y-92900000D01*
X90026880Y-109182423D02*
X87527996Y-111556887D01*
X112300000Y-105700000D02*
X115450000Y-107100000D01*
X87272078Y-104666905D02*
X84054742Y-105904342D01*
X109973120Y-90817577D02*
X110339389Y-91239889D01*
X87700000Y-94300000D02*
X87950000Y-93800000D01*
X99440893Y-113545014D02*
X99352914Y-116990991D01*
D133*
X105025000Y-101600000D02*
X104705230Y-101600000D01*
D131*
X105700000Y-87700000D02*
X106200000Y-87950000D01*
X90817577Y-90026880D02*
X88443113Y-87527996D01*
X109973120Y-90817577D02*
X112472004Y-88443113D01*
D133*
X104325000Y-101219770D02*
X104715115Y-101609885D01*
X105525000Y-102419770D02*
X105525000Y-102600000D01*
D131*
X87272078Y-104666905D02*
X87095301Y-104136575D01*
D133*
X104705230Y-101600000D02*
X104598230Y-101493000D01*
D131*
X109182423Y-109973120D02*
X108760111Y-110339389D01*
X94300000Y-112300000D02*
X92900000Y-115450000D01*
X94300000Y-112300000D02*
X93800000Y-112050000D01*
X105700000Y-87700000D02*
X107100000Y-84550000D01*
D133*
X105512502Y-102737502D02*
X106225000Y-103450000D01*
D131*
X104666905Y-112727922D02*
X104136575Y-112904699D01*
D133*
X104715115Y-101609885D02*
X105525000Y-102419770D01*
D131*
X109182423Y-109973120D02*
X111556887Y-112472004D01*
D133*
X105512502Y-102575000D02*
X105512502Y-103562502D01*
D131*
X95333095Y-87272078D02*
X94095658Y-84054742D01*
D133*
X104715115Y-101609885D02*
X104950000Y-101844770D01*
X105506251Y-102400000D02*
X106293749Y-102400000D01*
X105512502Y-101837502D02*
X105275000Y-101600000D01*
D131*
X100559107Y-86454986D02*
X100647086Y-83009009D01*
D133*
X105512502Y-103562502D02*
X105650000Y-103700000D01*
X105275000Y-101600000D02*
X105025000Y-101600000D01*
X104950000Y-101844770D02*
X104950000Y-102200000D01*
D131*
X90026880Y-109182423D02*
X89660611Y-108760111D01*
D133*
X105512502Y-102575000D02*
X105512502Y-101837502D01*
D131*
X112300000Y-105700000D02*
X112050000Y-106200000D01*
D133*
X104325000Y-101493000D02*
X104325000Y-100850000D01*
D131*
X99440893Y-113545014D02*
X98883282Y-113505386D01*
D133*
X104950000Y-102200000D02*
X105300000Y-102550000D01*
X104598230Y-101493000D02*
X104475000Y-101493000D01*
D132*
%TO.N,VBUS*%
X80538249Y-79650000D02*
X80538249Y-77850000D01*
D135*
X77020000Y-77400000D02*
X80150000Y-77400000D01*
D132*
X80111751Y-81850000D02*
X80888249Y-81850000D01*
D133*
X105925000Y-100300000D02*
X105775000Y-100150000D01*
X106675000Y-101050000D02*
X106300000Y-100675000D01*
X80130546Y-77457703D02*
X79445952Y-78142297D01*
X104825000Y-100862500D02*
X104825000Y-101100000D01*
D131*
X106675000Y-101050000D02*
X106675000Y-100050000D01*
D135*
X80150000Y-77400000D02*
X80600000Y-77850000D01*
D133*
X106300000Y-100675000D02*
X105925000Y-100300000D01*
D131*
X106712501Y-100165000D02*
X107710000Y-100165000D01*
D132*
X81488249Y-80600000D02*
X80538249Y-79650000D01*
X80888249Y-81850000D02*
X81488249Y-81250000D01*
D131*
X107710000Y-100165000D02*
X107725000Y-100150000D01*
D133*
X80704167Y-77900000D02*
X81672331Y-77900000D01*
X105925000Y-100675000D02*
X105925000Y-100300000D01*
X106300000Y-100675000D02*
X105925000Y-100675000D01*
X80493655Y-77815406D02*
X80503655Y-77815406D01*
X105300000Y-101100000D02*
X105300000Y-100700000D01*
X80503655Y-77815406D02*
X81188249Y-78500000D01*
D132*
X79708668Y-81446917D02*
X80111751Y-81850000D01*
D135*
X80538249Y-77930000D02*
X80538249Y-77950000D01*
D133*
X80493655Y-77815406D02*
X80472843Y-77815406D01*
X106050000Y-101100000D02*
X106050000Y-101475000D01*
X105300000Y-101100000D02*
X106050000Y-101100000D01*
X104825000Y-101100000D02*
X105300000Y-101100000D01*
X106675000Y-101625000D02*
X106650000Y-101650000D01*
X106050000Y-101100000D02*
X106625000Y-101100000D01*
X80630546Y-77957703D02*
X79945952Y-78642297D01*
D132*
X81488249Y-81250000D02*
X81488249Y-80600000D01*
D133*
X105775000Y-100150000D02*
X105725000Y-100150000D01*
X106675000Y-101050000D02*
X106675000Y-101625000D01*
D131*
%TO.N,Net-(U2-SRP)*%
X106050000Y-123500000D02*
X106000000Y-122300000D01*
X106365899Y-124273615D02*
X106050000Y-123500000D01*
X107083101Y-125978965D02*
X106350000Y-124250000D01*
%TO.N,Net-(U2-SRN)*%
X106950000Y-124400000D02*
X106350000Y-123000000D01*
X107964614Y-125624655D02*
X107600000Y-124800000D01*
X106350000Y-123000000D02*
X106400000Y-122050000D01*
X108420147Y-124450990D02*
X107600000Y-124800000D01*
X107597894Y-124791578D02*
X106950000Y-124400000D01*
%TO.N,Net-(U2-BAT)*%
X108571915Y-120296683D02*
X108200000Y-119500000D01*
X107635740Y-121041650D02*
X108600000Y-120500000D01*
X108571915Y-120296683D02*
X109750000Y-119800000D01*
%TO.N,Net-(U2-REGIN)*%
X108589211Y-122324416D02*
X108950000Y-123200000D01*
X108589211Y-122324416D02*
X107850000Y-121500000D01*
D132*
%TO.N,Net-(Q1-S)*%
X111631275Y-128695217D02*
X109300000Y-127700000D01*
X111765637Y-128497608D02*
X109434362Y-127502391D01*
D131*
X110217376Y-123736924D02*
X111350000Y-123000000D01*
X110217376Y-123736924D02*
X110650000Y-124700000D01*
X108571449Y-127873622D02*
X108702106Y-127927741D01*
D132*
X111415637Y-128797608D02*
X109084362Y-127802391D01*
D131*
X108354951Y-126567012D02*
X108345712Y-126570839D01*
D132*
X109291077Y-127683780D02*
X109291077Y-126583923D01*
D131*
X108702106Y-127927741D02*
X109256433Y-127698131D01*
X108188764Y-126949742D02*
X108571449Y-127873622D01*
X108345712Y-126570839D02*
X108188764Y-126949742D01*
D132*
X109291077Y-126583923D02*
X110175000Y-125700000D01*
D131*
%TO.N,Net-(U4-VDD)*%
X112001710Y-122161722D02*
X111300000Y-120850000D01*
X111000000Y-121600000D02*
X111800000Y-121800000D01*
X110350000Y-121900000D02*
X111000000Y-121600000D01*
X110350000Y-121900000D02*
X109850000Y-122850000D01*
%TO.N,Net-(C27-Pad1)*%
X102875000Y-103850000D02*
X102075000Y-103850000D01*
X103312500Y-103412500D02*
X102875000Y-103850000D01*
X103312500Y-102955000D02*
X103312500Y-103412500D01*
%TO.N,Net-(U8-BTST)*%
X103312500Y-100812500D02*
X103325000Y-100800000D01*
X103312500Y-101995000D02*
X103312500Y-100812500D01*
D133*
%TO.N,/VBAT*%
X100112502Y-97725000D02*
X100075000Y-97725000D01*
X100950000Y-79450000D02*
X101000000Y-79500000D01*
X100075000Y-80575000D02*
X100100000Y-80600000D01*
D131*
X97350000Y-107100000D02*
X105100000Y-107100000D01*
D133*
X100950000Y-78750000D02*
X101000000Y-78800000D01*
X100075000Y-80150000D02*
X100950000Y-80150000D01*
X101612500Y-97650000D02*
X101612500Y-97012500D01*
X101612500Y-97650000D02*
X100175000Y-97650000D01*
X100112502Y-97725000D02*
X100112502Y-97037498D01*
X100950000Y-80150000D02*
X101000000Y-80200000D01*
X101612500Y-98150000D02*
X100575000Y-98150000D01*
D131*
X108850000Y-103350000D02*
X108850000Y-96900000D01*
D133*
X101612500Y-97012500D02*
X101600000Y-97000000D01*
D131*
X92900000Y-111550000D02*
X97350000Y-107100000D01*
X89550000Y-114900000D02*
X90650000Y-113800000D01*
D133*
X100075000Y-79450000D02*
X100075000Y-78325000D01*
X100575000Y-98150000D02*
X100225000Y-97800000D01*
D131*
X105100000Y-107100000D02*
X108850000Y-103350000D01*
D133*
X100075000Y-78325000D02*
X100100000Y-78300000D01*
X100075000Y-97725000D02*
X99450000Y-97100000D01*
X100112502Y-97037498D02*
X100125000Y-97025000D01*
X100112502Y-97725000D02*
X100125000Y-97725000D01*
X100075000Y-79450000D02*
X100075000Y-80575000D01*
D131*
X108850000Y-96900000D02*
X107050000Y-95100000D01*
D133*
X100075000Y-78750000D02*
X100950000Y-78750000D01*
X100125000Y-97725000D02*
X100750000Y-97100000D01*
X100075000Y-79450000D02*
X100950000Y-79450000D01*
D131*
%TO.N,/Charger/PWR_ON*%
X102200000Y-94000000D02*
X102450000Y-93750000D01*
X101825000Y-94375000D02*
X102200000Y-94000000D01*
X101825000Y-95325000D02*
X101825000Y-94375000D01*
X87500000Y-103400000D02*
X88175000Y-104075000D01*
X101825000Y-95875000D02*
X101825000Y-95325000D01*
X88800000Y-104700000D02*
X89200000Y-105100000D01*
X87500000Y-102660000D02*
X87500000Y-103400000D01*
X102450000Y-93750000D02*
X103750000Y-93750000D01*
X102325000Y-96937500D02*
X102325000Y-96725000D01*
X103750000Y-93750000D02*
X104100000Y-93750000D01*
X89200000Y-105100000D02*
X97950000Y-105100000D01*
X102325000Y-96725000D02*
X101825000Y-96225000D01*
X101825000Y-96225000D02*
X101825000Y-95875000D01*
X104100000Y-93750000D02*
X104800000Y-94450000D01*
X88175000Y-104075000D02*
X88800000Y-104700000D01*
%TO.N,Net-(J1-Pin_2)*%
X86350000Y-121115000D02*
X88800000Y-118665000D01*
X88800000Y-118665000D02*
X88800000Y-115600000D01*
D132*
%TO.N,Net-(Q1-D)*%
X113000000Y-127100000D02*
X115300000Y-126100000D01*
D131*
%TO.N,Net-(U1-IO10)*%
X79193584Y-86975414D02*
X79193584Y-88643584D01*
X79193584Y-88643584D02*
X79375000Y-88825000D01*
X79375000Y-88825000D02*
X79650000Y-89100000D01*
X79650000Y-89100000D02*
X79650000Y-89950000D01*
X87500000Y-101640000D02*
X87500000Y-101000000D01*
%TO.N,Net-(U8-ILIM)*%
X103325000Y-96937500D02*
X103325000Y-95750000D01*
X103325000Y-95750000D02*
X103275000Y-95700000D01*
%TO.N,Net-(U4-VM)*%
X112872314Y-124263548D02*
X112850000Y-123550000D01*
X113650000Y-122900000D02*
X114650000Y-122850000D01*
X113000000Y-123200000D02*
X113650000Y-122900000D01*
X112850000Y-123550000D02*
X113000000Y-123200000D01*
%TO.N,Net-(U2-TS)*%
X106249920Y-121615675D02*
X104900000Y-122200000D01*
D135*
%TO.N,+BATT*%
X102875000Y-75875000D02*
X102500000Y-75500000D01*
D131*
X107852470Y-118559789D02*
X108450000Y-118300000D01*
X110000000Y-121200000D02*
X109650000Y-120900000D01*
X109531569Y-121934078D02*
X110300000Y-121400000D01*
X110228821Y-121345169D02*
X110000000Y-121200000D01*
D135*
X102875000Y-79450000D02*
X102875000Y-75875000D01*
D131*
%TO.N,/Battery/DSG*%
X106750000Y-120300000D02*
X105900000Y-119800000D01*
X107173800Y-121232991D02*
X106750000Y-120300000D01*
%TO.N,Net-(U8-TS)*%
X102825000Y-96250000D02*
X102275000Y-95700000D01*
X102322502Y-95750000D02*
X102322502Y-94747502D01*
X102322502Y-94747502D02*
X102275000Y-94700000D01*
X102825000Y-96937500D02*
X102825000Y-96250000D01*
%TO.N,Net-(U8-D+)*%
X107712504Y-99100000D02*
X107712504Y-98262496D01*
X107712504Y-98262496D02*
X107725000Y-98250000D01*
X105537500Y-99650000D02*
X107175000Y-99650000D01*
X107175000Y-99650000D02*
X107725000Y-99100000D01*
%TO.N,Net-(U8-D-)*%
X105537500Y-99150000D02*
X106725000Y-99150000D01*
X106712501Y-98262499D02*
X106725000Y-98250000D01*
X106712501Y-99145000D02*
X106712501Y-98262499D01*
%TO.N,/Logic/LED2*%
X68765169Y-88968821D02*
X68765169Y-88734831D01*
X68765169Y-88734831D02*
X69200000Y-88300000D01*
%TO.N,Net-(U1-TXD0)*%
X68600000Y-89950000D02*
X68300000Y-89950000D01*
X69178599Y-89371401D02*
X68600000Y-89950000D01*
X70083192Y-89371401D02*
X69178599Y-89371401D01*
%TO.N,/Logic/LED1*%
X69835169Y-86408821D02*
X69835169Y-86214831D01*
X69835169Y-86214831D02*
X70200000Y-85850000D01*
%TO.N,Net-(U1-RXD0)*%
X70100000Y-88150000D02*
X70100000Y-88450000D01*
X69444831Y-87494831D02*
X70100000Y-88150000D01*
X69444831Y-87351179D02*
X69444831Y-87494831D01*
%TO.N,/Battery/SDA*%
X81850000Y-86800000D02*
X82575000Y-87525000D01*
X94592411Y-79307589D02*
X94650000Y-79250000D01*
X99250000Y-92050000D02*
X91900000Y-92050000D01*
X82775000Y-87325000D02*
X82950000Y-87150000D01*
X85250000Y-86850000D02*
X85600000Y-86850000D01*
X81850000Y-86597980D02*
X81850000Y-86800000D01*
X85600000Y-86850000D02*
X86150000Y-86300000D01*
X104400000Y-92600000D02*
X100000000Y-92600000D01*
X105900000Y-96100000D02*
X105900000Y-95150000D01*
X105537500Y-96462500D02*
X105900000Y-96100000D01*
X94592411Y-80468002D02*
X94592411Y-79307589D01*
X105900000Y-94100000D02*
X104400000Y-92600000D01*
X100000000Y-92600000D02*
X99450000Y-92050000D01*
X82775000Y-87325000D02*
X83250000Y-86850000D01*
X82149999Y-87950001D02*
X82575000Y-87525000D01*
X86150000Y-86300000D02*
X92450000Y-80000000D01*
X82575000Y-87525000D02*
X82650000Y-87450000D01*
X82149999Y-88200001D02*
X82149999Y-87950001D01*
X81792358Y-86540338D02*
X81850000Y-86597980D01*
X105537500Y-97650000D02*
X105537500Y-96462500D01*
X105900000Y-95150000D02*
X105900000Y-94100000D01*
X99450000Y-92050000D02*
X99200000Y-92050000D01*
X83250000Y-86850000D02*
X85250000Y-86850000D01*
X82650000Y-87450000D02*
X82775000Y-87325000D01*
%TO.N,/Battery/SCL*%
X105537500Y-98150000D02*
X106032175Y-98150000D01*
X103000000Y-89950000D02*
X100200000Y-89950000D01*
X106175000Y-98007175D02*
X106175000Y-96725000D01*
X106032175Y-98150000D02*
X106175000Y-98007175D01*
X106500000Y-96400000D02*
X106500000Y-93450000D01*
X83150000Y-87600000D02*
X86100000Y-87600000D01*
X106175000Y-96725000D02*
X106500000Y-96400000D01*
X86100000Y-87600000D02*
X87275000Y-86425000D01*
X93645153Y-80075635D02*
X93645153Y-80104847D01*
X80984970Y-93887066D02*
X80550000Y-93452096D01*
X82750000Y-88000000D02*
X83150000Y-87600000D01*
X80550000Y-93452096D02*
X80550000Y-93150000D01*
X87325000Y-86425000D02*
X87275000Y-86425000D01*
X100200000Y-89950000D02*
X99450000Y-90700000D01*
X93645153Y-80104847D02*
X87325000Y-86425000D01*
X106500000Y-93450000D02*
X103000000Y-89950000D01*
X99250000Y-90750000D02*
X91600000Y-90750000D01*
X80550000Y-93150000D02*
X82750000Y-88000000D01*
%TO.N,Net-(U9-FB)*%
X89835000Y-95985000D02*
X89425000Y-95575000D01*
X89445001Y-95575000D02*
X89445001Y-94595001D01*
X89835000Y-96675000D02*
X89835000Y-95985000D01*
X89445001Y-94595001D02*
X89425000Y-94575000D01*
%TO.N,/Charger/~{CHARGE_ENABLE}*%
X81410895Y-87893854D02*
X81410895Y-89989105D01*
X104150000Y-94975000D02*
X104212500Y-94912500D01*
X103825000Y-96937500D02*
X103825000Y-95300000D01*
X103825000Y-95300000D02*
X104150000Y-94975000D01*
X81410895Y-89989105D02*
X81200000Y-90200000D01*
%TO.N,Net-(U1-IO4)*%
X90275792Y-71524208D02*
X89150000Y-72650000D01*
X77715377Y-86363120D02*
X78078497Y-86000000D01*
X90275792Y-70879951D02*
X90275792Y-71524208D01*
X79150000Y-86000000D02*
X89150000Y-76000000D01*
X89150000Y-72650000D02*
X89150000Y-75350000D01*
X89150000Y-76000000D02*
X89150000Y-75350000D01*
X78078497Y-86000000D02*
X79150000Y-86000000D01*
%TO.N,Net-(U1-IO5)*%
X76976273Y-86056974D02*
X77733247Y-85300000D01*
X77733247Y-85300000D02*
X78550000Y-85300000D01*
X88400000Y-69500000D02*
X88400000Y-75100000D01*
X78550000Y-85300000D02*
X88400000Y-75450000D01*
X89326455Y-69200000D02*
X88700000Y-69200000D01*
X88700000Y-69200000D02*
X88400000Y-69500000D01*
X89759169Y-69632714D02*
X89326455Y-69200000D01*
X88400000Y-75450000D02*
X88400000Y-75100000D01*
%TD*%
%TA.AperFunction,Conductor*%
%TO.N,Net-(C27-Pad1)*%
G36*
X102445178Y-100400768D02*
G01*
X102475000Y-100405492D01*
X102504821Y-100400768D01*
X102514596Y-100400000D01*
X102962500Y-100400000D01*
X103006694Y-100418306D01*
X103025000Y-100462500D01*
X103025000Y-101428555D01*
X103011835Y-101466926D01*
X102675000Y-101900000D01*
X102675000Y-105637500D01*
X102656694Y-105681694D01*
X102612500Y-105700000D01*
X101437500Y-105700000D01*
X101393306Y-105681694D01*
X101375000Y-105637500D01*
X101375000Y-101975888D01*
X101393306Y-101931694D01*
X101425000Y-101900000D01*
X102075000Y-101250000D01*
X102075000Y-100513270D01*
X102093306Y-100469077D01*
X102093306Y-100469076D01*
X102100386Y-100461997D01*
X102123250Y-100427777D01*
X102163025Y-100401201D01*
X102175218Y-100400000D01*
X102435404Y-100400000D01*
X102445178Y-100400768D01*
G37*
%TD.AperFunction*%
%TD*%
%TA.AperFunction,Conductor*%
%TO.N,/Charger/VSYS*%
G36*
X102006694Y-98518306D02*
G01*
X102025000Y-98562500D01*
X102025000Y-99287500D01*
X102006694Y-99331694D01*
X101962500Y-99350000D01*
X101074999Y-99350000D01*
X101007917Y-99437205D01*
X101002131Y-99443445D01*
X101000252Y-99445496D01*
X100949995Y-99512506D01*
X100689731Y-99850848D01*
X100668570Y-99868427D01*
X100661659Y-99871948D01*
X100584413Y-99949194D01*
X100540219Y-99967500D01*
X99850888Y-99967500D01*
X99800183Y-99977585D01*
X99800182Y-99977585D01*
X99757557Y-99995242D01*
X99733639Y-100000000D01*
X99725000Y-100000000D01*
X99475000Y-100249999D01*
X99474999Y-100250001D01*
X99474999Y-100258644D01*
X99470242Y-100282555D01*
X99452586Y-100325181D01*
X99442500Y-100375886D01*
X99442500Y-101024112D01*
X99452585Y-101074816D01*
X99452585Y-101074817D01*
X99470242Y-101117443D01*
X99475000Y-101141361D01*
X99475000Y-101149999D01*
X99868402Y-101936803D01*
X99875000Y-101964754D01*
X99875000Y-105637500D01*
X99856694Y-105681694D01*
X99812500Y-105700000D01*
X98587500Y-105700000D01*
X98543306Y-105681694D01*
X98525000Y-105637500D01*
X98525000Y-101900000D01*
X98378261Y-101150000D01*
X98076161Y-99605934D01*
X98075000Y-99593953D01*
X98075000Y-98762500D01*
X98093306Y-98718306D01*
X98137500Y-98700000D01*
X98414732Y-98700000D01*
X98443105Y-98706811D01*
X98499696Y-98735646D01*
X98625000Y-98755492D01*
X98750304Y-98735646D01*
X98806894Y-98706811D01*
X98835268Y-98700000D01*
X99185404Y-98700000D01*
X99195178Y-98700768D01*
X99225000Y-98705492D01*
X99254821Y-98700768D01*
X99264596Y-98700000D01*
X100574998Y-98700000D01*
X100575000Y-98700000D01*
X101114651Y-98503763D01*
X101136011Y-98500000D01*
X101962500Y-98500000D01*
X102006694Y-98518306D01*
G37*
%TD.AperFunction*%
%TD*%
%TA.AperFunction,Conductor*%
%TO.N,GND*%
G36*
X102006694Y-99518306D02*
G01*
X102025000Y-99562500D01*
X102025000Y-100324111D01*
X102006694Y-100368305D01*
X101143306Y-101231694D01*
X101099112Y-101250000D01*
X99800888Y-101250000D01*
X99756694Y-101231694D01*
X99593306Y-101068306D01*
X99575000Y-101024112D01*
X99575000Y-100375887D01*
X99593305Y-100331694D01*
X99806694Y-100118306D01*
X99850888Y-100100000D01*
X100674999Y-100100000D01*
X100675000Y-100100000D01*
X101106250Y-99525000D01*
X101147411Y-99500628D01*
X101156250Y-99500000D01*
X101962500Y-99500000D01*
X102006694Y-99518306D01*
G37*
%TD.AperFunction*%
%TD*%
%TA.AperFunction,Conductor*%
%TO.N,Net-(U9-L1)*%
G36*
X91506694Y-99143306D02*
G01*
X91525000Y-99187500D01*
X91524999Y-99824999D01*
X91525000Y-99824999D01*
X91525000Y-99825000D01*
X91675000Y-99975000D01*
X92549112Y-99975000D01*
X92593306Y-99993306D01*
X92856694Y-100256694D01*
X92875000Y-100300888D01*
X92875000Y-104112500D01*
X92856694Y-104156694D01*
X92812500Y-104175000D01*
X91237500Y-104175000D01*
X91193306Y-104156694D01*
X91175000Y-104112500D01*
X91175000Y-99187500D01*
X91193306Y-99143306D01*
X91237500Y-99125000D01*
X91462500Y-99125000D01*
X91506694Y-99143306D01*
G37*
%TD.AperFunction*%
%TD*%
%TA.AperFunction,Conductor*%
%TO.N,Net-(U9-L2)*%
G36*
X90456694Y-99143306D02*
G01*
X90475000Y-99187500D01*
X90475000Y-104112500D01*
X90456694Y-104156694D01*
X90412500Y-104175000D01*
X88837500Y-104175000D01*
X88793306Y-104156694D01*
X88775000Y-104112500D01*
X88775000Y-100300888D01*
X88793306Y-100256694D01*
X89056694Y-99993306D01*
X89100888Y-99975000D01*
X90025000Y-99975000D01*
X90175000Y-99825000D01*
X90175000Y-99187500D01*
X90193306Y-99143306D01*
X90237500Y-99125000D01*
X90412500Y-99125000D01*
X90456694Y-99143306D01*
G37*
%TD.AperFunction*%
%TD*%
M02*
