M48
; DRILL file {KiCad 7.0.7} date Mo 11 Sep 2023 21:54:21 CEST
; FORMAT={-:-/ absolute / metric / decimal}
; #@! TF.CreationDate,2023-09-11T21:54:21+02:00
; #@! TF.GenerationSoftware,Kicad,Pcbnew,7.0.7
; #@! TF.FileFunction,Plated,1,4,PTH
FMAT,2
METRIC
; #@! TA.AperFunction,Plated,PTH,ViaDrill
T1C0.300
; #@! TA.AperFunction,Plated,PTH,ComponentDrill
T2C0.300
; #@! TA.AperFunction,Plated,PTH,ComponentDrill
T3C0.800
; #@! TA.AperFunction,Plated,PTH,ComponentDrill
T4C1.000
; #@! TA.AperFunction,Plated,PTH,ComponentDrill
T5C1.800
%
G90
G05
T1
X69.05Y-93.375
X69.2Y-88.3
X69.8Y-92.975
X70.2Y-85.85
X70.525Y-93.275
X71.275Y-93.575
X71.55Y-83.35
X72.0Y-93.9
X72.75Y-94.2
X73.35Y-86.26
X73.35Y-86.93
X73.5Y-94.5
X73.625Y-91.05
X74.15Y-92.35
X74.225Y-94.8
X74.375Y-89.2
X74.925Y-90.5
X74.95Y-95.125
X75.35Y-83.0
X75.475Y-91.8
X75.675Y-88.675
X75.7Y-95.425
X76.0Y-93.1
X76.225Y-89.975
X76.425Y-95.75
X76.6Y-81.2
X76.75Y-91.25
X77.175Y-96.05
X77.275Y-92.55
X77.438Y-79.15
X77.5Y-89.45
X77.6Y-81.95
X77.9Y-96.35
X78.05Y-90.725
X78.538Y-80.9
X78.875Y-97.425
X79.1Y-96.55
X79.15Y-83.4
X79.288Y-80.3
X79.4Y-95.825
X79.446Y-78.142
X79.65Y-89.95
X79.946Y-78.642
X80.25Y-86.15
X80.7Y-86.9
X81.025Y-97.225
X81.188Y-78.5
X81.2Y-90.2
X81.672Y-77.9
X81.75Y-96.975
X81.825Y-95.35
X82.125Y-96.075
X82.6Y-93.6
X82.75Y-78.65
X83.45Y-78.65
X83.45Y-79.3
X83.9Y-88.9
X83.9Y-96.175
X84.2Y-89.8
X84.325Y-96.6
X84.775Y-97.05
X85.0Y-89.2
X86.15Y-86.3
X86.436Y-100.964
X86.495Y-98.883
X87.095Y-104.137
X87.1Y-95.7
X87.275Y-86.425
X87.5Y-101.0
X87.838Y-106.081
X87.95Y-93.8
X88.175Y-104.075
X88.9Y-70.75
X89.661Y-108.76
X89.727Y-91.091
X90.65Y-68.15
X90.65Y-113.8
X90.725Y-95.125
X90.9Y-72.75
X91.091Y-110.273
X91.24Y-89.661
X91.6Y-90.75
X91.9Y-92.05
X92.0Y-69.4
X92.45Y-80.0
X92.7Y-76.35
X92.8Y-71.95
X92.9Y-111.55
X93.15Y-77.25
X93.8Y-76.35
X93.8Y-112.05
X93.919Y-87.838
X94.1Y-81.15
X94.65Y-79.25
X94.7Y-76.0
X95.1Y-80.95
X95.7Y-112.9
X95.85Y-80.75
X95.863Y-87.095
X96.6Y-78.85
X97.95Y-105.1
X98.625Y-98.35
X98.883Y-113.505
X99.036Y-86.436
X99.225Y-98.3
X99.45Y-97.1
X99.787Y-95.45
X100.1Y-78.3
X100.1Y-80.6
X100.125Y-97.025
X100.462Y-95.45
X100.5Y-101.5
X100.75Y-97.1
X100.9Y-100.2
X100.9Y-100.9
X100.964Y-113.564
X101.0Y-78.8
X101.0Y-79.5
X101.0Y-80.2
X101.117Y-86.495
X101.325Y-96.3
X101.4Y-101.3
X101.5Y-100.5
X101.6Y-97.0
X102.475Y-97.8
X102.475Y-98.9
X102.475Y-100.0
X102.65Y-90.45
X102.667Y-116.637
X103.15Y-80.9
X103.15Y-91.4
X103.15Y-93.2
X103.35Y-117.15
X103.575Y-97.8
X103.575Y-98.9
X103.575Y-100.0
X103.75Y-94.325
X104.0Y-130.25
X104.137Y-112.905
X104.225Y-94.912
X104.275Y-103.5
X104.3Y-87.1
X104.675Y-97.8
X104.675Y-98.9
X104.675Y-100.0
X104.8Y-94.45
X104.825Y-95.75
X104.975Y-103.65
X105.3Y-100.7
X105.55Y-123.6
X105.65Y-103.7
X105.9Y-95.15
X105.925Y-100.675
X106.05Y-101.475
X106.081Y-112.162
X106.2Y-87.95
X106.225Y-103.45
X106.294Y-102.4
X106.35Y-128.25
X106.5Y-96.4
X106.637Y-102.975
X106.65Y-101.65
X106.75Y-127.85
X106.85Y-128.7
X106.85Y-129.4
X106.9Y-122.35
X107.05Y-95.1
X107.225Y-97.6
X107.275Y-101.55
X107.4Y-129.35
X107.425Y-103.55
X107.5Y-122.1
X107.509Y-106.391
X108.194Y-103.0
X108.2Y-101.05
X108.2Y-102.175
X108.4Y-121.4
X108.45Y-118.3
X108.76Y-110.339
X108.909Y-89.727
X109.271Y-108.153
X109.65Y-120.9
X110.273Y-108.909
X110.339Y-91.24
X112.05Y-106.2
X112.162Y-93.919
X112.9Y-104.3
X112.905Y-95.863
X113.505Y-101.117
X113.564Y-99.036
X113.576Y-128.457
X113.995Y-109.626
X114.176Y-128.257
X114.676Y-128.007
X114.8Y-127.3
X115.35Y-124.35
X115.57Y-109.22
T2
X89.935Y-98.075
X90.835Y-97.575
X90.835Y-98.575
X91.735Y-98.075
T3
X72.777Y-81.643
X74.192Y-80.228
X75.606Y-78.814
X77.02Y-77.4
X78.434Y-75.986
X79.848Y-74.572
T4
X86.35Y-118.575
X86.35Y-121.115
X121.477Y-125.055
X123.274Y-123.259
X125.07Y-121.463
T5
X97.5Y-75.6
X97.5Y-124.4
X100.0Y-68.0
X100.0Y-132.0
X102.5Y-75.6
X102.5Y-124.4
T0
M30
