%TF.GenerationSoftware,KiCad,Pcbnew,7.0.7*%
%TF.CreationDate,2023-09-11T21:54:17+02:00*%
%TF.ProjectId,blinkekatze,626c696e-6b65-46b6-9174-7a652e6b6963,rev?*%
%TF.SameCoordinates,Original*%
%TF.FileFunction,Copper,L2,Inr*%
%TF.FilePolarity,Positive*%
%FSLAX46Y46*%
G04 Gerber Fmt 4.6, Leading zero omitted, Abs format (unit mm)*
G04 Created by KiCad (PCBNEW 7.0.7) date 2023-09-11 21:54:17*
%MOMM*%
%LPD*%
G01*
G04 APERTURE LIST*
G04 Aperture macros list*
%AMHorizOval*
0 Thick line with rounded ends*
0 $1 width*
0 $2 $3 position (X,Y) of the first rounded end (center of the circle)*
0 $4 $5 position (X,Y) of the second rounded end (center of the circle)*
0 Add line between two ends*
20,1,$1,$2,$3,$4,$5,0*
0 Add two circle primitives to create the rounded ends*
1,1,$1,$2,$3*
1,1,$1,$4,$5*%
%AMRotRect*
0 Rectangle, with rotation*
0 The origin of the aperture is its center*
0 $1 length*
0 $2 width*
0 $3 Rotation angle, in degrees counterclockwise*
0 Add horizontal line*
21,1,$1,$2,0,0,$3*%
G04 Aperture macros list end*
%TA.AperFunction,ComponentPad*%
%ADD10RotRect,1.700000X1.700000X135.000000*%
%TD*%
%TA.AperFunction,ComponentPad*%
%ADD11HorizOval,1.700000X0.000000X0.000000X0.000000X0.000000X0*%
%TD*%
%TA.AperFunction,ComponentPad*%
%ADD12RotRect,1.350000X1.350000X315.000000*%
%TD*%
%TA.AperFunction,ComponentPad*%
%ADD13HorizOval,1.350000X0.000000X0.000000X0.000000X0.000000X0*%
%TD*%
%TA.AperFunction,ComponentPad*%
%ADD14R,1.700000X1.700000*%
%TD*%
%TA.AperFunction,ComponentPad*%
%ADD15O,1.700000X1.700000*%
%TD*%
%TA.AperFunction,ComponentPad*%
%ADD16C,0.600000*%
%TD*%
%TA.AperFunction,ComponentPad*%
%ADD17C,3.000000*%
%TD*%
%TA.AperFunction,ViaPad*%
%ADD18C,0.450000*%
%TD*%
G04 APERTURE END LIST*
D10*
%TO.N,GND*%
%TO.C,J3*%
X121477498Y-125054902D03*
D11*
%TO.N,/Battery/SCL*%
X123273549Y-123258851D03*
%TO.N,/Battery/SDA*%
X125069600Y-121462800D03*
%TD*%
D12*
%TO.N,/Logic/LED1*%
%TO.C,J2*%
X79848427Y-74571573D03*
D13*
%TO.N,/Logic/LED2*%
X78434213Y-75985787D03*
%TO.N,VBUS*%
X77020000Y-77400000D03*
%TO.N,/Logic/USB_D+*%
X75605786Y-78814214D03*
%TO.N,/Logic/USB_D-*%
X74191573Y-80228427D03*
%TO.N,GND*%
X72777359Y-81642641D03*
%TD*%
D14*
%TO.N,/Charger/PWR_ON*%
%TO.C,J1*%
X86350000Y-118575000D03*
D15*
%TO.N,Net-(J1-Pin_2)*%
X86350000Y-121115000D03*
%TD*%
D16*
%TO.N,GND*%
%TO.C,U9*%
X90835000Y-98575000D03*
X89935000Y-98075000D03*
X91735000Y-98075000D03*
X90835000Y-97575000D03*
%TD*%
D17*
%TO.N,GND1*%
%TO.C,BTT2*%
X102500000Y-124400000D03*
X97500000Y-124400000D03*
X100000000Y-132000000D03*
%TD*%
%TO.N,+BATT*%
%TO.C,BTT1*%
X97500000Y-75600000D03*
X102500000Y-75600000D03*
X100000000Y-68000000D03*
%TD*%
D18*
%TO.N,/Battery/SCL*%
X109270800Y-108153200D03*
X113995200Y-109626400D03*
X107508800Y-106391200D03*
%TO.N,/Battery/SDA*%
X103350000Y-117150000D03*
%TO.N,/Battery/SCL*%
X102666800Y-116636800D03*
%TO.N,/Battery/SDA*%
X115570000Y-109220000D03*
%TO.N,GND1*%
X106350000Y-128250000D03*
X108400000Y-121400000D03*
X106750000Y-127850000D03*
X107400000Y-129350000D03*
X104000000Y-130250000D03*
X106900000Y-122350000D03*
X106850000Y-128700000D03*
X106850000Y-129400000D03*
%TO.N,GND*%
X113576294Y-128456774D03*
X102475000Y-97800000D03*
X102475000Y-100000000D03*
X71275000Y-93575000D03*
X77900000Y-96350000D03*
X115350000Y-124350000D03*
X82750000Y-78650000D03*
X102475000Y-98900000D03*
X74225000Y-94800000D03*
X112162237Y-93918882D03*
X95700000Y-112900000D03*
X100900000Y-100900000D03*
X104675000Y-100000000D03*
X110272507Y-108909298D03*
X81750000Y-96975000D03*
X78050000Y-90725000D03*
X93918882Y-87837763D03*
X108200000Y-102175000D03*
X114676294Y-128006774D03*
X103575000Y-98900000D03*
X112900000Y-104300000D03*
X89727493Y-91090702D03*
X76225000Y-89975000D03*
X104300000Y-87100000D03*
X99036066Y-86436415D03*
X99225000Y-98300000D03*
X92000000Y-69400000D03*
X108200000Y-101050000D03*
X104675000Y-97800000D03*
X95100000Y-80950000D03*
X103575000Y-100000000D03*
X77438249Y-79150000D03*
X98625000Y-98350000D03*
X96600000Y-78850000D03*
X80700000Y-86900000D03*
X79100000Y-96550000D03*
X83450000Y-78650000D03*
X114176294Y-128256774D03*
X107225000Y-97600000D03*
X72750000Y-94200000D03*
X79400000Y-95825000D03*
X73500000Y-94500000D03*
X102650000Y-90450000D03*
X76750000Y-91250000D03*
X114800000Y-127300000D03*
X75475000Y-91800000D03*
X83450000Y-79300000D03*
X90650000Y-68150000D03*
X70525000Y-93275000D03*
X78875000Y-97425000D03*
X76425000Y-95750000D03*
X100963934Y-113563585D03*
X69800000Y-92975000D03*
X77600000Y-81950000D03*
X87837763Y-106081118D03*
X104275000Y-103500000D03*
X72000000Y-93900000D03*
X101400000Y-101300000D03*
X108909298Y-89727493D03*
X94700000Y-76000000D03*
X86436415Y-100963934D03*
X94100000Y-81150000D03*
X69050000Y-93375000D03*
X100500000Y-101500000D03*
X90725000Y-95125000D03*
X106081118Y-112162237D03*
X71550000Y-83350000D03*
X103575000Y-97800000D03*
X107425000Y-103550000D03*
X100900000Y-100200000D03*
X75675000Y-88675000D03*
X74375000Y-89200000D03*
X77500000Y-89450000D03*
X101325000Y-96300000D03*
X90900000Y-72750000D03*
X74150000Y-92350000D03*
X77175000Y-96050000D03*
X100462498Y-95450000D03*
X108193749Y-103000000D03*
X101500000Y-100500000D03*
X99787498Y-95450000D03*
X74925000Y-90500000D03*
X113563585Y-99036066D03*
X104825000Y-95750000D03*
X104675000Y-98900000D03*
X107275000Y-101550000D03*
X91090702Y-110272507D03*
X77275000Y-92550000D03*
X88900000Y-70750000D03*
X82600000Y-93600000D03*
X106637498Y-102975000D03*
X92700000Y-76350000D03*
X81025000Y-97225000D03*
X83900000Y-88900000D03*
X75700000Y-95425000D03*
X76000000Y-93100000D03*
X73625000Y-91050000D03*
X74950000Y-95125000D03*
X87100000Y-95700000D03*
%TO.N,+3V3*%
X81825000Y-95350000D03*
X92800000Y-71950000D03*
X80250000Y-86150000D03*
X103150000Y-91400000D03*
X93800000Y-76350000D03*
X84775000Y-97050000D03*
X83900000Y-96175000D03*
X103150000Y-93200000D03*
X85000000Y-89200000D03*
X103150000Y-80900000D03*
X84325000Y-96600000D03*
X76600000Y-81200000D03*
X79150000Y-83400000D03*
X93150000Y-77250000D03*
X95850000Y-80750000D03*
X84200000Y-89800000D03*
X75350000Y-83000000D03*
X82125000Y-96075000D03*
%TO.N,Net-(U8-REGN)*%
X103750000Y-94325000D03*
X104975000Y-103650000D03*
%TO.N,Net-(U2-VCC)*%
X107500000Y-122100000D03*
X105550000Y-123600000D03*
%TO.N,/Logic/USB_D-*%
X73350000Y-86260000D03*
X78538249Y-80900000D03*
%TO.N,/Logic/USB_D+*%
X79288249Y-80300000D03*
X73350000Y-86930000D03*
%TO.N,/Charger/VLED*%
X101116718Y-86494614D03*
X98883282Y-113505386D03*
X93800000Y-112050000D03*
X108760111Y-110339388D03*
X106200000Y-87950000D03*
X113505386Y-101116718D03*
X95863425Y-87095301D03*
X105650000Y-103700000D03*
X89660612Y-108760111D03*
X86494614Y-98883282D03*
X87095301Y-104136575D03*
X106225000Y-103450000D03*
X104136575Y-112904699D03*
X87950000Y-93800000D03*
X91239889Y-89660612D03*
X110339388Y-91239889D03*
X112050000Y-106200000D03*
X112904699Y-95863425D03*
X106293749Y-102400000D03*
%TO.N,VBUS*%
X106050000Y-101475000D03*
X81188249Y-78500000D03*
X106650000Y-101650000D03*
X79445952Y-78142297D03*
X79945952Y-78642297D03*
X81672331Y-77900000D03*
X105925000Y-100675000D03*
X105300000Y-100700000D03*
%TO.N,/VBAT*%
X100750000Y-97100000D03*
X101000000Y-80200000D03*
X92900000Y-111550000D03*
X101000000Y-79500000D03*
X100100000Y-80600000D03*
X90650000Y-113800000D03*
X101600000Y-97000000D03*
X101000000Y-78800000D03*
X107050000Y-95100000D03*
X99450000Y-97100000D03*
X100100000Y-78300000D03*
X100125000Y-97025000D03*
%TO.N,/Charger/PWR_ON*%
X97950000Y-105100000D03*
X104800000Y-94450000D03*
X88175000Y-104075000D03*
%TO.N,Net-(U1-IO10)*%
X87500000Y-101000000D03*
X79650000Y-89950000D03*
%TO.N,+BATT*%
X109650000Y-120900000D03*
X108450000Y-118300000D03*
%TO.N,/Logic/LED2*%
X69200000Y-88300000D03*
%TO.N,/Logic/LED1*%
X70200000Y-85850000D03*
%TO.N,/Battery/SDA*%
X105900000Y-95150000D03*
X91900000Y-92050000D03*
X94650000Y-79250000D03*
X92450000Y-80000000D03*
X86150000Y-86300000D03*
%TO.N,/Battery/SCL*%
X91600000Y-90750000D03*
X87275000Y-86425000D03*
X106500000Y-96400000D03*
%TO.N,/Charger/~{CHARGE_ENABLE}*%
X81200000Y-90200000D03*
X104225000Y-94912500D03*
%TD*%
%TA.AperFunction,Conductor*%
%TO.N,GND*%
G36*
X101518882Y-66063381D02*
G01*
X102670772Y-66134964D01*
X103819566Y-66245636D01*
X104963936Y-66395270D01*
X106102563Y-66583693D01*
X107234132Y-66810687D01*
X108357337Y-67075991D01*
X109470880Y-67379297D01*
X110573478Y-67720257D01*
X111663856Y-68098476D01*
X112740757Y-68513518D01*
X113802936Y-68964904D01*
X114849169Y-69452112D01*
X115878247Y-69974581D01*
X116888982Y-70531706D01*
X117880207Y-71122846D01*
X118850780Y-71747317D01*
X119799578Y-72404399D01*
X120725506Y-73093333D01*
X121627497Y-73813325D01*
X122504508Y-74563542D01*
X123355528Y-75343118D01*
X124179574Y-76151155D01*
X124975694Y-76986719D01*
X125742970Y-77848846D01*
X126480515Y-78736540D01*
X127187480Y-79648777D01*
X127863047Y-80584503D01*
X128506436Y-81542639D01*
X129116905Y-82522078D01*
X129693750Y-83521691D01*
X130236304Y-84540322D01*
X130743941Y-85576796D01*
X131216075Y-86629917D01*
X131652162Y-87698469D01*
X132051696Y-88781219D01*
X132414219Y-89876916D01*
X132739310Y-90984296D01*
X133026595Y-92102080D01*
X133275742Y-93228979D01*
X133486463Y-94363690D01*
X133658516Y-95504906D01*
X133719666Y-96031259D01*
X133706583Y-96077271D01*
X133664797Y-96100554D01*
X133657532Y-96100972D01*
X131968367Y-96099556D01*
X131967510Y-96099500D01*
X131965892Y-96099500D01*
X131900414Y-96099500D01*
X131863962Y-96099469D01*
X131863094Y-96099500D01*
X131708381Y-96099500D01*
X131620234Y-96108181D01*
X131326995Y-96137062D01*
X130951127Y-96211826D01*
X130951111Y-96211830D01*
X130752923Y-96271950D01*
X130584376Y-96323078D01*
X130584372Y-96323079D01*
X130584364Y-96323082D01*
X130230311Y-96469736D01*
X129892330Y-96650391D01*
X129892329Y-96650391D01*
X129573667Y-96863314D01*
X129573664Y-96863317D01*
X129277430Y-97106430D01*
X129277423Y-97106436D01*
X129006436Y-97377423D01*
X129006430Y-97377430D01*
X128763317Y-97673664D01*
X128763314Y-97673667D01*
X128550391Y-97992329D01*
X128550391Y-97992330D01*
X128369736Y-98330311D01*
X128223082Y-98684364D01*
X128223079Y-98684372D01*
X128223078Y-98684376D01*
X128200751Y-98757978D01*
X128111830Y-99051111D01*
X128111826Y-99051127D01*
X128037062Y-99426995D01*
X127999500Y-99808384D01*
X127999500Y-100191615D01*
X128037062Y-100573004D01*
X128111826Y-100948872D01*
X128111830Y-100948887D01*
X128223078Y-101315624D01*
X128223080Y-101315629D01*
X128223082Y-101315635D01*
X128369736Y-101669688D01*
X128550391Y-102007669D01*
X128550391Y-102007670D01*
X128763314Y-102326332D01*
X128763317Y-102326335D01*
X128946069Y-102549019D01*
X129006435Y-102622575D01*
X129277425Y-102893565D01*
X129300352Y-102912381D01*
X129573664Y-103136682D01*
X129573667Y-103136685D01*
X129573673Y-103136689D01*
X129892324Y-103349605D01*
X129892326Y-103349606D01*
X129892329Y-103349608D01*
X130020720Y-103418234D01*
X130230310Y-103530263D01*
X130584364Y-103676917D01*
X130584363Y-103676917D01*
X130584366Y-103676918D01*
X130584376Y-103676922D01*
X130951113Y-103788170D01*
X130951122Y-103788171D01*
X130951127Y-103788173D01*
X131020209Y-103801914D01*
X131326988Y-103862936D01*
X131326993Y-103862936D01*
X131326996Y-103862937D01*
X131326994Y-103862937D01*
X131521271Y-103882071D01*
X131708381Y-103900500D01*
X131864201Y-103900500D01*
X133677798Y-103900500D01*
X133721992Y-103918806D01*
X133740298Y-103963000D01*
X133739880Y-103970220D01*
X133678678Y-104496456D01*
X133506611Y-105637104D01*
X133295937Y-106771257D01*
X133046898Y-107897608D01*
X132759781Y-109014859D01*
X132434917Y-110121724D01*
X132072680Y-111216927D01*
X131673488Y-112299208D01*
X131237800Y-113367320D01*
X130766117Y-114420031D01*
X130258984Y-115456131D01*
X129716985Y-116474425D01*
X129140743Y-117473741D01*
X128530923Y-118452927D01*
X127888226Y-119410855D01*
X127213394Y-120346423D01*
X126507203Y-121258553D01*
X126143630Y-121696595D01*
X126101318Y-121718910D01*
X126055620Y-121704771D01*
X126033305Y-121662459D01*
X126033338Y-121650552D01*
X126036804Y-121615369D01*
X126051830Y-121462800D01*
X126032957Y-121271176D01*
X125977062Y-121086917D01*
X125886294Y-120917102D01*
X125764141Y-120768259D01*
X125615298Y-120646106D01*
X125615292Y-120646102D01*
X125508295Y-120588912D01*
X125445483Y-120555338D01*
X125327711Y-120519611D01*
X125261222Y-120499442D01*
X125069600Y-120480570D01*
X124877977Y-120499442D01*
X124760204Y-120535169D01*
X124693717Y-120555338D01*
X124693715Y-120555338D01*
X124693715Y-120555339D01*
X124523907Y-120646102D01*
X124523901Y-120646106D01*
X124375059Y-120768259D01*
X124252906Y-120917101D01*
X124252902Y-120917107D01*
X124162139Y-121086915D01*
X124106242Y-121271177D01*
X124087370Y-121462799D01*
X124087370Y-121462800D01*
X124106242Y-121654422D01*
X124121516Y-121704771D01*
X124162138Y-121838683D01*
X124162139Y-121838684D01*
X124252902Y-122008492D01*
X124252906Y-122008498D01*
X124375059Y-122157341D01*
X124523902Y-122279494D01*
X124523904Y-122279495D01*
X124523907Y-122279497D01*
X124553834Y-122295493D01*
X124693717Y-122370262D01*
X124877976Y-122426157D01*
X124973788Y-122435593D01*
X125069599Y-122445030D01*
X125069599Y-122445029D01*
X125069600Y-122445030D01*
X125261224Y-122426157D01*
X125405567Y-122382370D01*
X125453169Y-122387059D01*
X125483516Y-122424036D01*
X125478827Y-122471641D01*
X125470418Y-122483705D01*
X125147122Y-122847369D01*
X125004034Y-123008323D01*
X124208787Y-123843948D01*
X124207593Y-123845119D01*
X124206432Y-123846259D01*
X124162064Y-123864141D01*
X124118048Y-123845413D01*
X124100166Y-123801045D01*
X124107542Y-123772183D01*
X124181011Y-123634734D01*
X124236906Y-123450475D01*
X124255779Y-123258851D01*
X124236906Y-123067227D01*
X124181011Y-122882968D01*
X124090243Y-122713153D01*
X123968090Y-122564310D01*
X123819247Y-122442157D01*
X123819241Y-122442153D01*
X123684737Y-122370260D01*
X123649432Y-122351389D01*
X123531660Y-122315662D01*
X123465171Y-122295493D01*
X123273549Y-122276621D01*
X123081926Y-122295493D01*
X122964153Y-122331220D01*
X122897666Y-122351389D01*
X122897664Y-122351389D01*
X122897664Y-122351390D01*
X122727856Y-122442153D01*
X122727850Y-122442157D01*
X122579008Y-122564310D01*
X122456855Y-122713152D01*
X122456851Y-122713158D01*
X122397099Y-122824948D01*
X122366087Y-122882968D01*
X122347148Y-122945402D01*
X122310191Y-123067228D01*
X122291319Y-123258850D01*
X122291319Y-123258851D01*
X122310191Y-123450473D01*
X122310192Y-123450475D01*
X122366087Y-123634734D01*
X122378972Y-123658840D01*
X122456851Y-123804543D01*
X122456855Y-123804549D01*
X122579008Y-123953392D01*
X122727851Y-124075545D01*
X122727853Y-124075546D01*
X122727856Y-124075548D01*
X122767957Y-124096982D01*
X122897666Y-124166313D01*
X123081925Y-124222208D01*
X123273549Y-124241081D01*
X123465173Y-124222208D01*
X123649432Y-124166313D01*
X123772783Y-124100380D01*
X123820389Y-124095691D01*
X123857366Y-124126038D01*
X123862055Y-124173643D01*
X123846032Y-124200098D01*
X123804289Y-124241081D01*
X123385642Y-124652106D01*
X123365248Y-124670813D01*
X123209154Y-124813990D01*
X123164212Y-124830373D01*
X123120848Y-124810178D01*
X123110055Y-124793895D01*
X123104532Y-124781802D01*
X123066948Y-124735163D01*
X123066947Y-124735162D01*
X122608868Y-124277084D01*
X122032482Y-124853469D01*
X121988288Y-124871775D01*
X121944094Y-124853469D01*
X121935714Y-124843072D01*
X121859259Y-124724104D01*
X121750598Y-124629950D01*
X121750597Y-124629949D01*
X121694013Y-124604108D01*
X121661417Y-124569097D01*
X121663125Y-124521292D01*
X121675783Y-124503062D01*
X122255315Y-123923530D01*
X121797236Y-123465451D01*
X121750598Y-123427868D01*
X121619811Y-123368139D01*
X121477498Y-123347679D01*
X121335184Y-123368139D01*
X121204397Y-123427868D01*
X121157759Y-123465451D01*
X121157758Y-123465452D01*
X120699680Y-123923531D01*
X121279212Y-124503063D01*
X121297518Y-124547257D01*
X121279212Y-124591451D01*
X121260981Y-124604109D01*
X121204400Y-124629948D01*
X121204397Y-124629950D01*
X121095736Y-124724104D01*
X121058657Y-124781802D01*
X121019284Y-124843067D01*
X120979993Y-124870348D01*
X120932917Y-124861855D01*
X120922513Y-124853470D01*
X120346127Y-124277084D01*
X119888048Y-124735162D01*
X119888047Y-124735163D01*
X119850464Y-124781801D01*
X119790735Y-124912588D01*
X119770275Y-125054901D01*
X119790735Y-125197215D01*
X119850464Y-125328002D01*
X119888047Y-125374640D01*
X120346126Y-125832719D01*
X120922512Y-125256333D01*
X120966706Y-125238027D01*
X121010900Y-125256333D01*
X121019282Y-125266734D01*
X121029707Y-125282954D01*
X121083941Y-125367346D01*
X121095737Y-125385700D01*
X121204398Y-125479854D01*
X121260980Y-125505694D01*
X121293576Y-125540704D01*
X121291869Y-125588509D01*
X121279211Y-125606740D01*
X120699680Y-126186271D01*
X120699680Y-126186272D01*
X121074503Y-126561095D01*
X121092809Y-126605289D01*
X121074503Y-126649483D01*
X121069336Y-126654107D01*
X120758457Y-126902635D01*
X119833508Y-127591949D01*
X118885699Y-128249479D01*
X117916125Y-128874468D01*
X116925900Y-129466196D01*
X115916167Y-130023981D01*
X114888087Y-130547181D01*
X114382379Y-130783289D01*
X114334590Y-130785398D01*
X114299307Y-130753099D01*
X109898967Y-121275441D01*
X109896961Y-121227650D01*
X109911462Y-121204930D01*
X109911461Y-121204929D01*
X109978050Y-121138342D01*
X110035646Y-121025304D01*
X110055492Y-120900000D01*
X110035646Y-120774696D01*
X109978050Y-120661658D01*
X109888342Y-120571950D01*
X109775304Y-120514354D01*
X109650000Y-120494508D01*
X109649999Y-120494508D01*
X109590769Y-120503888D01*
X109544255Y-120492720D01*
X109524305Y-120468476D01*
X109056240Y-119460337D01*
X108694090Y-118680321D01*
X108692083Y-118632528D01*
X108706584Y-118609808D01*
X108706583Y-118609808D01*
X108778050Y-118538342D01*
X108835646Y-118425304D01*
X108855492Y-118300000D01*
X108835646Y-118174696D01*
X108778050Y-118061658D01*
X108688342Y-117971950D01*
X108575304Y-117914354D01*
X108450000Y-117894508D01*
X108449999Y-117894508D01*
X108384116Y-117904942D01*
X108337603Y-117893774D01*
X108317652Y-117869531D01*
X108147132Y-117502257D01*
X108145064Y-117498073D01*
X108111099Y-117454992D01*
X108074348Y-117424372D01*
X108074344Y-117424369D01*
X108074340Y-117424366D01*
X108050777Y-117408672D01*
X108050774Y-117408671D01*
X107977527Y-117394213D01*
X107929897Y-117398547D01*
X107929890Y-117398548D01*
X107880306Y-117413187D01*
X107880304Y-117413188D01*
X103980977Y-119460337D01*
X103951925Y-119467500D01*
X98824006Y-119467500D01*
X98808848Y-119465634D01*
X93652906Y-118176648D01*
X93640113Y-118171916D01*
X90569881Y-116636800D01*
X102261308Y-116636800D01*
X102281154Y-116762104D01*
X102281154Y-116762105D01*
X102311647Y-116821950D01*
X102338750Y-116875142D01*
X102428458Y-116964850D01*
X102541496Y-117022446D01*
X102666800Y-117042292D01*
X102792104Y-117022446D01*
X102870571Y-116982464D01*
X102918256Y-116978712D01*
X102954631Y-117009778D01*
X102960674Y-117047930D01*
X102944508Y-117149999D01*
X102964354Y-117275304D01*
X102964354Y-117275305D01*
X102994292Y-117334061D01*
X103021950Y-117388342D01*
X103111658Y-117478050D01*
X103224696Y-117535646D01*
X103350000Y-117555492D01*
X103475304Y-117535646D01*
X103588342Y-117478050D01*
X103678050Y-117388342D01*
X103735646Y-117275304D01*
X103755492Y-117150000D01*
X103735646Y-117024696D01*
X103678050Y-116911658D01*
X103588342Y-116821950D01*
X103475304Y-116764354D01*
X103350000Y-116744508D01*
X103349999Y-116744508D01*
X103224695Y-116764354D01*
X103224691Y-116764355D01*
X103146230Y-116804334D01*
X103098542Y-116808087D01*
X103062168Y-116777020D01*
X103056126Y-116738869D01*
X103072292Y-116636803D01*
X103072292Y-116636802D01*
X103072292Y-116636800D01*
X103052446Y-116511496D01*
X102994850Y-116398458D01*
X102905142Y-116308750D01*
X102792104Y-116251154D01*
X102666800Y-116231308D01*
X102666799Y-116231308D01*
X102541495Y-116251154D01*
X102541494Y-116251154D01*
X102428457Y-116308750D01*
X102338750Y-116398457D01*
X102281154Y-116511494D01*
X102281154Y-116511495D01*
X102261308Y-116636800D01*
X90569881Y-116636800D01*
X89364951Y-116034335D01*
X114409500Y-116034335D01*
X114450429Y-116279614D01*
X114531172Y-116514810D01*
X114612301Y-116664723D01*
X114649525Y-116733508D01*
X114649526Y-116733510D01*
X114802257Y-116929738D01*
X114802260Y-116929742D01*
X114985211Y-117098161D01*
X114985213Y-117098162D01*
X114985215Y-117098164D01*
X115193393Y-117234173D01*
X115421119Y-117334063D01*
X115662179Y-117395108D01*
X115847933Y-117410500D01*
X115847935Y-117410500D01*
X115972065Y-117410500D01*
X115972067Y-117410500D01*
X116157821Y-117395108D01*
X116398881Y-117334063D01*
X116626607Y-117234173D01*
X116834785Y-117098164D01*
X117017738Y-116929744D01*
X117170474Y-116733509D01*
X117288828Y-116514810D01*
X117369571Y-116279614D01*
X117410500Y-116034335D01*
X117410500Y-115785665D01*
X117369571Y-115540386D01*
X117288828Y-115305190D01*
X117170474Y-115086491D01*
X117170473Y-115086489D01*
X117017742Y-114890261D01*
X117017739Y-114890257D01*
X116834788Y-114721838D01*
X116834783Y-114721835D01*
X116626612Y-114585830D01*
X116626609Y-114585828D01*
X116398883Y-114485938D01*
X116398881Y-114485937D01*
X116157821Y-114424892D01*
X115972067Y-114409500D01*
X115847933Y-114409500D01*
X115662179Y-114424892D01*
X115421119Y-114485937D01*
X115421117Y-114485937D01*
X115421116Y-114485938D01*
X115193390Y-114585828D01*
X115193387Y-114585830D01*
X114985216Y-114721835D01*
X114985211Y-114721838D01*
X114802260Y-114890257D01*
X114802257Y-114890261D01*
X114649526Y-115086489D01*
X114649525Y-115086491D01*
X114595875Y-115185629D01*
X114531172Y-115305190D01*
X114450429Y-115540386D01*
X114409500Y-115785665D01*
X114409500Y-116034335D01*
X89364951Y-116034335D01*
X88487557Y-115595638D01*
X88471314Y-115583930D01*
X86687384Y-113800000D01*
X90244508Y-113800000D01*
X90264354Y-113925304D01*
X90264354Y-113925305D01*
X90321949Y-114038341D01*
X90321950Y-114038342D01*
X90411658Y-114128050D01*
X90524696Y-114185646D01*
X90650000Y-114205492D01*
X90775304Y-114185646D01*
X90888342Y-114128050D01*
X90978050Y-114038342D01*
X91035646Y-113925304D01*
X91055492Y-113800000D01*
X91035646Y-113674696D01*
X90978050Y-113561658D01*
X90921778Y-113505386D01*
X98477790Y-113505386D01*
X98497636Y-113630690D01*
X98497636Y-113630691D01*
X98520058Y-113674696D01*
X98555232Y-113743728D01*
X98644940Y-113833436D01*
X98757978Y-113891032D01*
X98883282Y-113910878D01*
X99008586Y-113891032D01*
X99121624Y-113833436D01*
X99211332Y-113743728D01*
X99268928Y-113630690D01*
X99288774Y-113505386D01*
X99268928Y-113380082D01*
X99211332Y-113267044D01*
X99121624Y-113177336D01*
X99008586Y-113119740D01*
X98883282Y-113099894D01*
X98757977Y-113119740D01*
X98757976Y-113119740D01*
X98644939Y-113177336D01*
X98555232Y-113267043D01*
X98497636Y-113380080D01*
X98497636Y-113380081D01*
X98477790Y-113505386D01*
X90921778Y-113505386D01*
X90888342Y-113471950D01*
X90775304Y-113414354D01*
X90650000Y-113394508D01*
X90524695Y-113414354D01*
X90524694Y-113414354D01*
X90411657Y-113471950D01*
X90321950Y-113561657D01*
X90264354Y-113674694D01*
X90264354Y-113674695D01*
X90244508Y-113800000D01*
X86687384Y-113800000D01*
X85792083Y-112904699D01*
X103731083Y-112904699D01*
X103750929Y-113030003D01*
X103750929Y-113030004D01*
X103761555Y-113050858D01*
X103808525Y-113143041D01*
X103898233Y-113232749D01*
X104011271Y-113290345D01*
X104136575Y-113310191D01*
X104261879Y-113290345D01*
X104374917Y-113232749D01*
X104464625Y-113143041D01*
X104522221Y-113030003D01*
X104542067Y-112904699D01*
X104522221Y-112779395D01*
X104464625Y-112666357D01*
X104374917Y-112576649D01*
X104261879Y-112519053D01*
X104136575Y-112499207D01*
X104011270Y-112519053D01*
X104011269Y-112519053D01*
X103898232Y-112576649D01*
X103808525Y-112666356D01*
X103750929Y-112779393D01*
X103750929Y-112779394D01*
X103731083Y-112904699D01*
X85792083Y-112904699D01*
X85700883Y-112813499D01*
X85657901Y-112784779D01*
X85657898Y-112784778D01*
X85639592Y-112777195D01*
X85613705Y-112766472D01*
X85586525Y-112758491D01*
X85569681Y-112760303D01*
X85523783Y-112746826D01*
X85500858Y-112704842D01*
X85500500Y-112698161D01*
X85500500Y-112050000D01*
X93394508Y-112050000D01*
X93405489Y-112119331D01*
X93414354Y-112175304D01*
X93414354Y-112175305D01*
X93471949Y-112288342D01*
X93471950Y-112288342D01*
X93561658Y-112378050D01*
X93674696Y-112435646D01*
X93800000Y-112455492D01*
X93925304Y-112435646D01*
X94038342Y-112378050D01*
X94128050Y-112288342D01*
X94185646Y-112175304D01*
X94205492Y-112050000D01*
X94185646Y-111924696D01*
X94128050Y-111811658D01*
X94038342Y-111721950D01*
X93925304Y-111664354D01*
X93800000Y-111644508D01*
X93674695Y-111664354D01*
X93674694Y-111664354D01*
X93561657Y-111721950D01*
X93471950Y-111811657D01*
X93414354Y-111924694D01*
X93414354Y-111924695D01*
X93395210Y-112045570D01*
X93394508Y-112050000D01*
X85500500Y-112050000D01*
X85500500Y-111550000D01*
X92494508Y-111550000D01*
X92514354Y-111675304D01*
X92514354Y-111675305D01*
X92538121Y-111721950D01*
X92571950Y-111788342D01*
X92661658Y-111878050D01*
X92774696Y-111935646D01*
X92900000Y-111955492D01*
X93025304Y-111935646D01*
X93138342Y-111878050D01*
X93228050Y-111788342D01*
X93285646Y-111675304D01*
X93305492Y-111550000D01*
X93285646Y-111424696D01*
X93228050Y-111311658D01*
X93138342Y-111221950D01*
X93025304Y-111164354D01*
X92900000Y-111144508D01*
X92774695Y-111164354D01*
X92774694Y-111164354D01*
X92661657Y-111221950D01*
X92571950Y-111311657D01*
X92514354Y-111424694D01*
X92514354Y-111424695D01*
X92494508Y-111550000D01*
X85500500Y-111550000D01*
X85500500Y-110818833D01*
X119695701Y-110818833D01*
X119715533Y-111045519D01*
X119715536Y-111045535D01*
X119774428Y-111265323D01*
X119774429Y-111265325D01*
X119870600Y-111471564D01*
X120001122Y-111657971D01*
X120162028Y-111818877D01*
X120229843Y-111866361D01*
X120348435Y-111949399D01*
X120348434Y-111949399D01*
X120451554Y-111997484D01*
X120554673Y-112045570D01*
X120554675Y-112045570D01*
X120554676Y-112045571D01*
X120774464Y-112104463D01*
X120774470Y-112104464D01*
X120774477Y-112104466D01*
X120944385Y-112119331D01*
X121057953Y-112119331D01*
X121227861Y-112104466D01*
X121227870Y-112104463D01*
X121227873Y-112104463D01*
X121431132Y-112050000D01*
X121447665Y-112045570D01*
X121653903Y-111949399D01*
X121840308Y-111818878D01*
X122001216Y-111657970D01*
X122131737Y-111471565D01*
X122227908Y-111265327D01*
X122242631Y-111210375D01*
X122286801Y-111045535D01*
X122286801Y-111045532D01*
X122286804Y-111045523D01*
X122306637Y-110818831D01*
X122286804Y-110592139D01*
X122282943Y-110577730D01*
X122227909Y-110372338D01*
X122227908Y-110372336D01*
X122214293Y-110343139D01*
X122131737Y-110166097D01*
X122037766Y-110031891D01*
X122001215Y-109979690D01*
X121840309Y-109818784D01*
X121721716Y-109735746D01*
X121653903Y-109688263D01*
X121653901Y-109688262D01*
X121653903Y-109688262D01*
X121447663Y-109592091D01*
X121447661Y-109592090D01*
X121227873Y-109533198D01*
X121227857Y-109533195D01*
X121057953Y-109518331D01*
X120944385Y-109518331D01*
X120774480Y-109533195D01*
X120774464Y-109533198D01*
X120554676Y-109592090D01*
X120554674Y-109592091D01*
X120348435Y-109688262D01*
X120162028Y-109818784D01*
X120001122Y-109979690D01*
X119870600Y-110166097D01*
X119774429Y-110372336D01*
X119774428Y-110372338D01*
X119715536Y-110592126D01*
X119715533Y-110592142D01*
X119695701Y-110818828D01*
X119695701Y-110818833D01*
X85500500Y-110818833D01*
X85500500Y-110500635D01*
X85501503Y-110489482D01*
X85504225Y-110474473D01*
X85500605Y-110430652D01*
X85500500Y-110428081D01*
X85500500Y-110414204D01*
X85497690Y-110394658D01*
X85497478Y-110392782D01*
X85493378Y-110343139D01*
X85493378Y-110343136D01*
X85492034Y-110339388D01*
X108354619Y-110339388D01*
X108374465Y-110464692D01*
X108374465Y-110464693D01*
X108387096Y-110489482D01*
X108432061Y-110577730D01*
X108521769Y-110667438D01*
X108634807Y-110725034D01*
X108760111Y-110744880D01*
X108885415Y-110725034D01*
X108998453Y-110667438D01*
X109088161Y-110577730D01*
X109145757Y-110464692D01*
X109165603Y-110339388D01*
X109145757Y-110214084D01*
X109088161Y-110101046D01*
X108998453Y-110011338D01*
X108885415Y-109953742D01*
X108760111Y-109933896D01*
X108634806Y-109953742D01*
X108634805Y-109953742D01*
X108521768Y-110011338D01*
X108432061Y-110101045D01*
X108374465Y-110214082D01*
X108374465Y-110214083D01*
X108354619Y-110339388D01*
X85492034Y-110339388D01*
X85490340Y-110334662D01*
X85487310Y-110322464D01*
X85485165Y-110307544D01*
X85464572Y-110262452D01*
X85463585Y-110260027D01*
X85448908Y-110219081D01*
X85439924Y-110206117D01*
X85434445Y-110196484D01*
X85425377Y-110176628D01*
X85425377Y-110176627D01*
X85416253Y-110166097D01*
X85400268Y-110147648D01*
X85397817Y-110144419D01*
X85323397Y-110031891D01*
X85055229Y-109626400D01*
X113589708Y-109626400D01*
X113609554Y-109751704D01*
X113609554Y-109751705D01*
X113643733Y-109818784D01*
X113667150Y-109864742D01*
X113756858Y-109954450D01*
X113869896Y-110012046D01*
X113995200Y-110031892D01*
X114120504Y-110012046D01*
X114233542Y-109954450D01*
X114323250Y-109864742D01*
X114380846Y-109751704D01*
X114400692Y-109626400D01*
X114380846Y-109501096D01*
X114323250Y-109388058D01*
X114233542Y-109298350D01*
X114120504Y-109240754D01*
X113995200Y-109220908D01*
X113869895Y-109240754D01*
X113869894Y-109240754D01*
X113756857Y-109298350D01*
X113667150Y-109388057D01*
X113609554Y-109501094D01*
X113609554Y-109501095D01*
X113589708Y-109626400D01*
X85055229Y-109626400D01*
X84968538Y-109495317D01*
X84803159Y-109219999D01*
X115164508Y-109219999D01*
X115184354Y-109345304D01*
X115184354Y-109345305D01*
X115206138Y-109388057D01*
X115241950Y-109458342D01*
X115331658Y-109548050D01*
X115444696Y-109605646D01*
X115570000Y-109625492D01*
X115695304Y-109605646D01*
X115808342Y-109548050D01*
X115898050Y-109458342D01*
X115955646Y-109345304D01*
X115975492Y-109220000D01*
X115955646Y-109094696D01*
X115898050Y-108981658D01*
X115808342Y-108891950D01*
X115695304Y-108834354D01*
X115570000Y-108814508D01*
X115569999Y-108814508D01*
X115444695Y-108834354D01*
X115444694Y-108834354D01*
X115331657Y-108891950D01*
X115241950Y-108981657D01*
X115184354Y-109094694D01*
X115184354Y-109094695D01*
X115164508Y-109219999D01*
X84803159Y-109219999D01*
X84555159Y-108807135D01*
X84529620Y-108760111D01*
X89255120Y-108760111D01*
X89274966Y-108885415D01*
X89274966Y-108885416D01*
X89300946Y-108936404D01*
X89332562Y-108998453D01*
X89422270Y-109088161D01*
X89535308Y-109145757D01*
X89660612Y-109165603D01*
X89785916Y-109145757D01*
X89898954Y-109088161D01*
X89988662Y-108998453D01*
X90046258Y-108885415D01*
X90066104Y-108760111D01*
X90046258Y-108634807D01*
X89988662Y-108521769D01*
X89898954Y-108432061D01*
X89785916Y-108374465D01*
X89660612Y-108354619D01*
X89660611Y-108354619D01*
X89535307Y-108374465D01*
X89535306Y-108374465D01*
X89422269Y-108432061D01*
X89332562Y-108521768D01*
X89274966Y-108634805D01*
X89274966Y-108634806D01*
X89255120Y-108760111D01*
X84529620Y-108760111D01*
X84200003Y-108153200D01*
X108865308Y-108153200D01*
X108885154Y-108278504D01*
X108885154Y-108278505D01*
X108923937Y-108354619D01*
X108942750Y-108391542D01*
X109032458Y-108481250D01*
X109145496Y-108538846D01*
X109270800Y-108558692D01*
X109396104Y-108538846D01*
X109509142Y-108481250D01*
X109598850Y-108391542D01*
X109656446Y-108278504D01*
X109676292Y-108153200D01*
X109656446Y-108027896D01*
X109598850Y-107914858D01*
X109509142Y-107825150D01*
X109396104Y-107767554D01*
X109270800Y-107747708D01*
X109270799Y-107747708D01*
X109145495Y-107767554D01*
X109145494Y-107767554D01*
X109032457Y-107825150D01*
X108942750Y-107914857D01*
X108885154Y-108027894D01*
X108885154Y-108027895D01*
X108865308Y-108153200D01*
X84200003Y-108153200D01*
X84172017Y-108101671D01*
X83819833Y-107380252D01*
X83499271Y-106644238D01*
X83401890Y-106391200D01*
X107103308Y-106391200D01*
X107123154Y-106516504D01*
X107123154Y-106516505D01*
X107129036Y-106528049D01*
X107180750Y-106629542D01*
X107270458Y-106719250D01*
X107383496Y-106776846D01*
X107508800Y-106796692D01*
X107634104Y-106776846D01*
X107747142Y-106719250D01*
X107836850Y-106629542D01*
X107894446Y-106516504D01*
X107914292Y-106391200D01*
X107894446Y-106265896D01*
X107860870Y-106200000D01*
X111644508Y-106200000D01*
X111664354Y-106325304D01*
X111664354Y-106325305D01*
X111670596Y-106337555D01*
X111721950Y-106438342D01*
X111811658Y-106528050D01*
X111924696Y-106585646D01*
X112050000Y-106605492D01*
X112175304Y-106585646D01*
X112288342Y-106528050D01*
X112378050Y-106438342D01*
X112435646Y-106325304D01*
X112455492Y-106200000D01*
X112435646Y-106074696D01*
X112378050Y-105961658D01*
X112288342Y-105871950D01*
X112175304Y-105814354D01*
X112050000Y-105794508D01*
X112049999Y-105794508D01*
X111924695Y-105814354D01*
X111924694Y-105814354D01*
X111811657Y-105871950D01*
X111721950Y-105961657D01*
X111664354Y-106074694D01*
X111664354Y-106074695D01*
X111644508Y-106200000D01*
X107860870Y-106200000D01*
X107836850Y-106152858D01*
X107747142Y-106063150D01*
X107634104Y-106005554D01*
X107508800Y-105985708D01*
X107383495Y-106005554D01*
X107383494Y-106005554D01*
X107270457Y-106063150D01*
X107180750Y-106152857D01*
X107123154Y-106265894D01*
X107123154Y-106265895D01*
X107103308Y-106391200D01*
X83401890Y-106391200D01*
X83210934Y-105895012D01*
X82955365Y-105133985D01*
X82945570Y-105100000D01*
X97544508Y-105100000D01*
X97564354Y-105225304D01*
X97564354Y-105225305D01*
X97621949Y-105338341D01*
X97621950Y-105338342D01*
X97711658Y-105428050D01*
X97824696Y-105485646D01*
X97950000Y-105505492D01*
X98075304Y-105485646D01*
X98188342Y-105428050D01*
X98243308Y-105373083D01*
X98287499Y-105354779D01*
X98331694Y-105373084D01*
X98350000Y-105417278D01*
X98350000Y-106100000D01*
X102850000Y-106100000D01*
X102850000Y-103650000D01*
X104569508Y-103650000D01*
X104589354Y-103775304D01*
X104589354Y-103775305D01*
X104630212Y-103855492D01*
X104646950Y-103888342D01*
X104736658Y-103978050D01*
X104849696Y-104035646D01*
X104975000Y-104055492D01*
X105100304Y-104035646D01*
X105213342Y-103978050D01*
X105243306Y-103948084D01*
X105287497Y-103929779D01*
X105331692Y-103948084D01*
X105411658Y-104028050D01*
X105524696Y-104085646D01*
X105650000Y-104105492D01*
X105775304Y-104085646D01*
X105888342Y-104028050D01*
X105978050Y-103938342D01*
X106016289Y-103863293D01*
X106052663Y-103832227D01*
X106094561Y-103835524D01*
X106095016Y-103834125D01*
X106099692Y-103835644D01*
X106099696Y-103835646D01*
X106225000Y-103855492D01*
X106350304Y-103835646D01*
X106463342Y-103778050D01*
X106553050Y-103688342D01*
X106610646Y-103575304D01*
X106630492Y-103450000D01*
X106610646Y-103324696D01*
X106553050Y-103211658D01*
X106463342Y-103121950D01*
X106350304Y-103064354D01*
X106225000Y-103044508D01*
X106224999Y-103044508D01*
X106099695Y-103064354D01*
X106099694Y-103064354D01*
X105986657Y-103121950D01*
X105896950Y-103211657D01*
X105858710Y-103286706D01*
X105822335Y-103317772D01*
X105780438Y-103314476D01*
X105779984Y-103315875D01*
X105775304Y-103314354D01*
X105775303Y-103314353D01*
X105650000Y-103294508D01*
X105649999Y-103294508D01*
X105524695Y-103314354D01*
X105524694Y-103314354D01*
X105411657Y-103371950D01*
X105381692Y-103401914D01*
X105337497Y-103420219D01*
X105293305Y-103401913D01*
X105213342Y-103321950D01*
X105100304Y-103264354D01*
X104975000Y-103244508D01*
X104849695Y-103264354D01*
X104849694Y-103264354D01*
X104736657Y-103321950D01*
X104646950Y-103411657D01*
X104589354Y-103524694D01*
X104589354Y-103524695D01*
X104569508Y-103650000D01*
X102850000Y-103650000D01*
X102850000Y-101600000D01*
X98350000Y-101600000D01*
X98350000Y-104782720D01*
X98331694Y-104826914D01*
X98287500Y-104845220D01*
X98243306Y-104826914D01*
X98188342Y-104771950D01*
X98075304Y-104714354D01*
X97950000Y-104694508D01*
X97824695Y-104714354D01*
X97824694Y-104714354D01*
X97711657Y-104771950D01*
X97621950Y-104861657D01*
X97564354Y-104974694D01*
X97564354Y-104974695D01*
X97544508Y-105100000D01*
X82945570Y-105100000D01*
X82733043Y-104362590D01*
X82678400Y-104136574D01*
X86689809Y-104136574D01*
X86709655Y-104261879D01*
X86709655Y-104261880D01*
X86735877Y-104313342D01*
X86767251Y-104374917D01*
X86856959Y-104464625D01*
X86969997Y-104522221D01*
X87095301Y-104542067D01*
X87220605Y-104522221D01*
X87333643Y-104464625D01*
X87423351Y-104374917D01*
X87480947Y-104261879D01*
X87500793Y-104136575D01*
X87491041Y-104075000D01*
X87769508Y-104075000D01*
X87789354Y-104200304D01*
X87789354Y-104200305D01*
X87846949Y-104313341D01*
X87846950Y-104313342D01*
X87936658Y-104403050D01*
X88049696Y-104460646D01*
X88175000Y-104480492D01*
X88300304Y-104460646D01*
X88413342Y-104403050D01*
X88468308Y-104348083D01*
X88512499Y-104329779D01*
X88556694Y-104348084D01*
X88575000Y-104392277D01*
X88575000Y-104525000D01*
X93075000Y-104525000D01*
X93075000Y-100700000D01*
X104894508Y-100700000D01*
X104914354Y-100825304D01*
X104914354Y-100825305D01*
X104959212Y-100913342D01*
X104971950Y-100938342D01*
X105061658Y-101028050D01*
X105174696Y-101085646D01*
X105300000Y-101105492D01*
X105425304Y-101085646D01*
X105538342Y-101028050D01*
X105580806Y-100985586D01*
X105625000Y-100967280D01*
X105669194Y-100985586D01*
X105686658Y-101003050D01*
X105788145Y-101054760D01*
X105819212Y-101091134D01*
X105815459Y-101138822D01*
X105803965Y-101154642D01*
X105721950Y-101236657D01*
X105664354Y-101349694D01*
X105664354Y-101349695D01*
X105644508Y-101474999D01*
X105664354Y-101600304D01*
X105664354Y-101600305D01*
X105689675Y-101649999D01*
X105721950Y-101713342D01*
X105811658Y-101803050D01*
X105924696Y-101860646D01*
X106050000Y-101880492D01*
X106175304Y-101860646D01*
X106224833Y-101835408D01*
X106272519Y-101831654D01*
X106308894Y-101862720D01*
X106308894Y-101862721D01*
X106321948Y-101888340D01*
X106323008Y-101889400D01*
X106323392Y-101890327D01*
X106324840Y-101892320D01*
X106324361Y-101892667D01*
X106341314Y-101933594D01*
X106323008Y-101977788D01*
X106288591Y-101995324D01*
X106168450Y-102014352D01*
X106168443Y-102014354D01*
X106055406Y-102071950D01*
X105965699Y-102161657D01*
X105908103Y-102274694D01*
X105908103Y-102274695D01*
X105888257Y-102400000D01*
X105908103Y-102525304D01*
X105908103Y-102525305D01*
X105920186Y-102549019D01*
X105965699Y-102638342D01*
X106055407Y-102728050D01*
X106168445Y-102785646D01*
X106293749Y-102805492D01*
X106419053Y-102785646D01*
X106532091Y-102728050D01*
X106621799Y-102638342D01*
X106679395Y-102525304D01*
X106699241Y-102400000D01*
X106679395Y-102274696D01*
X106621799Y-102161658D01*
X106620740Y-102160599D01*
X106620355Y-102159670D01*
X106618909Y-102157680D01*
X106619387Y-102157332D01*
X106602434Y-102116405D01*
X106620740Y-102072211D01*
X106655153Y-102054675D01*
X106775304Y-102035646D01*
X106888342Y-101978050D01*
X106978050Y-101888342D01*
X107035646Y-101775304D01*
X107055492Y-101650000D01*
X107035646Y-101524696D01*
X106978050Y-101411658D01*
X106888342Y-101321950D01*
X106775304Y-101264354D01*
X106650000Y-101244508D01*
X106649999Y-101244508D01*
X106524695Y-101264354D01*
X106524691Y-101264356D01*
X106475165Y-101289590D01*
X106427477Y-101293343D01*
X106391103Y-101262276D01*
X106378050Y-101236658D01*
X106288341Y-101146949D01*
X106229007Y-101116717D01*
X113099894Y-101116717D01*
X113119740Y-101242022D01*
X113119740Y-101242023D01*
X113163573Y-101328049D01*
X113177336Y-101355060D01*
X113267044Y-101444768D01*
X113380082Y-101502364D01*
X113505386Y-101522210D01*
X113630690Y-101502364D01*
X113743728Y-101444768D01*
X113833436Y-101355060D01*
X113891032Y-101242022D01*
X113910878Y-101116718D01*
X113891032Y-100991414D01*
X113833436Y-100878376D01*
X113743728Y-100788668D01*
X113630690Y-100731072D01*
X113505386Y-100711226D01*
X113380081Y-100731072D01*
X113380080Y-100731072D01*
X113267043Y-100788668D01*
X113177336Y-100878375D01*
X113119740Y-100991412D01*
X113119740Y-100991413D01*
X113099894Y-101116717D01*
X106229007Y-101116717D01*
X106186854Y-101095239D01*
X106155787Y-101058865D01*
X106159540Y-101011177D01*
X106171031Y-100995360D01*
X106253050Y-100913342D01*
X106310646Y-100800304D01*
X106330492Y-100675000D01*
X106310646Y-100549696D01*
X106253050Y-100436658D01*
X106163342Y-100346950D01*
X106050304Y-100289354D01*
X105925000Y-100269508D01*
X105924999Y-100269508D01*
X105799695Y-100289354D01*
X105799694Y-100289354D01*
X105686659Y-100346949D01*
X105644194Y-100389414D01*
X105599999Y-100407719D01*
X105555806Y-100389413D01*
X105538344Y-100371951D01*
X105425304Y-100314354D01*
X105300000Y-100294508D01*
X105174695Y-100314354D01*
X105174694Y-100314354D01*
X105061657Y-100371950D01*
X104971950Y-100461657D01*
X104914354Y-100574694D01*
X104914354Y-100574695D01*
X104894508Y-100700000D01*
X93075000Y-100700000D01*
X93075000Y-100025000D01*
X88575000Y-100025000D01*
X88575000Y-103757720D01*
X88556694Y-103801914D01*
X88512500Y-103820220D01*
X88468306Y-103801914D01*
X88413342Y-103746950D01*
X88300304Y-103689354D01*
X88293914Y-103688342D01*
X88175000Y-103669508D01*
X88174999Y-103669508D01*
X88049695Y-103689354D01*
X88049694Y-103689354D01*
X87936657Y-103746950D01*
X87846950Y-103836657D01*
X87789354Y-103949694D01*
X87789354Y-103949695D01*
X87769508Y-104075000D01*
X87491041Y-104075000D01*
X87480947Y-104011271D01*
X87423351Y-103898233D01*
X87333643Y-103808525D01*
X87220605Y-103750929D01*
X87095301Y-103731083D01*
X86969996Y-103750929D01*
X86969995Y-103750929D01*
X86856958Y-103808525D01*
X86767251Y-103898232D01*
X86709655Y-104011269D01*
X86709655Y-104011270D01*
X86689809Y-104136574D01*
X82678400Y-104136574D01*
X82544389Y-103582278D01*
X82389757Y-102794518D01*
X82269438Y-102000792D01*
X82183658Y-101202594D01*
X82170741Y-101000000D01*
X87094508Y-101000000D01*
X87114354Y-101125304D01*
X87114354Y-101125305D01*
X87153735Y-101202594D01*
X87171950Y-101238342D01*
X87261658Y-101328050D01*
X87374696Y-101385646D01*
X87500000Y-101405492D01*
X87625304Y-101385646D01*
X87738342Y-101328050D01*
X87828050Y-101238342D01*
X87885646Y-101125304D01*
X87905492Y-101000000D01*
X87885646Y-100874696D01*
X87828050Y-100761658D01*
X87738342Y-100671950D01*
X87625304Y-100614354D01*
X87500000Y-100594508D01*
X87374695Y-100614354D01*
X87374694Y-100614354D01*
X87261657Y-100671950D01*
X87171950Y-100761657D01*
X87114354Y-100874694D01*
X87114354Y-100874695D01*
X87094508Y-101000000D01*
X82170741Y-101000000D01*
X82132579Y-100401427D01*
X82116786Y-99622954D01*
X82116960Y-99618978D01*
X82121136Y-99580400D01*
X82117355Y-99559359D01*
X82116370Y-99548216D01*
X82116392Y-99532908D01*
X82116391Y-99532905D01*
X82105085Y-99490469D01*
X82104524Y-99487949D01*
X82100008Y-99462824D01*
X82095682Y-99438746D01*
X82089147Y-99425670D01*
X82084664Y-99413825D01*
X82082464Y-99405568D01*
X82082463Y-99405567D01*
X82082463Y-99405565D01*
X82057398Y-99362010D01*
X82056528Y-99360391D01*
X82031349Y-99310003D01*
X82031349Y-99310002D01*
X82026008Y-99304257D01*
X82017616Y-99292881D01*
X82016914Y-99291661D01*
X82016913Y-99291660D01*
X90471890Y-99291660D01*
X90471891Y-99291661D01*
X90485690Y-99300332D01*
X90485694Y-99300334D01*
X90655856Y-99359876D01*
X90655860Y-99359877D01*
X90834999Y-99380061D01*
X91014139Y-99359877D01*
X91014143Y-99359876D01*
X91184305Y-99300334D01*
X91184306Y-99300334D01*
X91198108Y-99291661D01*
X90835000Y-98928553D01*
X90471890Y-99291660D01*
X82016913Y-99291660D01*
X82016732Y-99291344D01*
X81976383Y-99250881D01*
X81933352Y-99204597D01*
X81933351Y-99204596D01*
X81929971Y-99202587D01*
X81926875Y-99200488D01*
X81923681Y-99198030D01*
X81923678Y-99198027D01*
X81869098Y-99166412D01*
X81840720Y-99149548D01*
X81840717Y-99149547D01*
X81840716Y-99149546D01*
X81840710Y-99149543D01*
X81840009Y-99149252D01*
X81836330Y-99147432D01*
X81809645Y-99131974D01*
X81795376Y-99128129D01*
X81779484Y-99123847D01*
X81775644Y-99122539D01*
X81199169Y-98883282D01*
X86089122Y-98883282D01*
X86108968Y-99008586D01*
X86108968Y-99008587D01*
X86130644Y-99051127D01*
X86166564Y-99121624D01*
X86256272Y-99211332D01*
X86369310Y-99268928D01*
X86494614Y-99288774D01*
X86619918Y-99268928D01*
X86732956Y-99211332D01*
X86822664Y-99121624D01*
X86880260Y-99008586D01*
X86900106Y-98883282D01*
X86885595Y-98791660D01*
X89571890Y-98791660D01*
X89571891Y-98791661D01*
X89585690Y-98800332D01*
X89585694Y-98800334D01*
X89755856Y-98859876D01*
X89755860Y-98859877D01*
X89934999Y-98880061D01*
X90038615Y-98868386D01*
X90084582Y-98881628D01*
X90104606Y-98909848D01*
X90109665Y-98924305D01*
X90109666Y-98924307D01*
X90118337Y-98938108D01*
X90481445Y-98575001D01*
X90679709Y-98575001D01*
X90700512Y-98652640D01*
X90700513Y-98652641D01*
X90700514Y-98652645D01*
X90757355Y-98709486D01*
X90815254Y-98725000D01*
X90815255Y-98725000D01*
X90854745Y-98725000D01*
X90854746Y-98725000D01*
X90912645Y-98709486D01*
X90912646Y-98709486D01*
X90941065Y-98681066D01*
X90969486Y-98652646D01*
X90990291Y-98575000D01*
X91188553Y-98575000D01*
X91551661Y-98938108D01*
X91560334Y-98924306D01*
X91560335Y-98924303D01*
X91565392Y-98909852D01*
X91597266Y-98874183D01*
X91631383Y-98868386D01*
X91735000Y-98880061D01*
X91914139Y-98859877D01*
X91914143Y-98859876D01*
X92084305Y-98800334D01*
X92084306Y-98800334D01*
X92098108Y-98791661D01*
X91629102Y-98322656D01*
X91610796Y-98278462D01*
X91629102Y-98234268D01*
X91673296Y-98215962D01*
X91689473Y-98218092D01*
X91715249Y-98224999D01*
X91715252Y-98224999D01*
X91715254Y-98225000D01*
X91715255Y-98225000D01*
X91754745Y-98225000D01*
X91754746Y-98225000D01*
X91812645Y-98209486D01*
X91812646Y-98209486D01*
X91841065Y-98181066D01*
X91869486Y-98152646D01*
X91890291Y-98075000D01*
X92088553Y-98075000D01*
X92451661Y-98438108D01*
X92460334Y-98424306D01*
X92460334Y-98424305D01*
X92519876Y-98254143D01*
X92519877Y-98254139D01*
X92540061Y-98075000D01*
X92519877Y-97895860D01*
X92519876Y-97895856D01*
X92460334Y-97725694D01*
X92460332Y-97725690D01*
X92451661Y-97711891D01*
X92451660Y-97711890D01*
X92088553Y-98074999D01*
X92088553Y-98075000D01*
X91890291Y-98075000D01*
X91890291Y-98074999D01*
X91890291Y-98074998D01*
X91869487Y-97997359D01*
X91869487Y-97997358D01*
X91869486Y-97997355D01*
X91812645Y-97940514D01*
X91812642Y-97940513D01*
X91812640Y-97940512D01*
X91754752Y-97925001D01*
X91754747Y-97925000D01*
X91754746Y-97925000D01*
X91715254Y-97925000D01*
X91689473Y-97931908D01*
X91642047Y-97925663D01*
X91612926Y-97887713D01*
X91619171Y-97840287D01*
X91629103Y-97827343D01*
X91735000Y-97721447D01*
X92098108Y-97358338D01*
X92084303Y-97349664D01*
X92084298Y-97349662D01*
X91914143Y-97290123D01*
X91914139Y-97290122D01*
X91735000Y-97269938D01*
X91734999Y-97269938D01*
X91631382Y-97281612D01*
X91585417Y-97268369D01*
X91565392Y-97240146D01*
X91560336Y-97225696D01*
X91551661Y-97211891D01*
X91551660Y-97211890D01*
X91188553Y-97574999D01*
X91188553Y-97575000D01*
X91535000Y-97921447D01*
X91539401Y-97921447D01*
X91583595Y-97939753D01*
X91601901Y-97983947D01*
X91599771Y-98000123D01*
X91579710Y-98074999D01*
X91579709Y-98075001D01*
X91599772Y-98149877D01*
X91593529Y-98197303D01*
X91555578Y-98226423D01*
X91539402Y-98228553D01*
X91534999Y-98228553D01*
X91188553Y-98574999D01*
X91188553Y-98575000D01*
X90990291Y-98575000D01*
X90990291Y-98574999D01*
X90990291Y-98574998D01*
X90969487Y-98497359D01*
X90969487Y-98497358D01*
X90969486Y-98497355D01*
X90912645Y-98440514D01*
X90912642Y-98440513D01*
X90912640Y-98440512D01*
X90854752Y-98425001D01*
X90854747Y-98425000D01*
X90854746Y-98425000D01*
X90815254Y-98425000D01*
X90815253Y-98425000D01*
X90815247Y-98425001D01*
X90757355Y-98440513D01*
X90757353Y-98440514D01*
X90700515Y-98497352D01*
X90700512Y-98497358D01*
X90679709Y-98574998D01*
X90679709Y-98575001D01*
X90481445Y-98575001D01*
X90481446Y-98575000D01*
X90481446Y-98574999D01*
X90135000Y-98228553D01*
X90130599Y-98228553D01*
X90086405Y-98210247D01*
X90068099Y-98166053D01*
X90070228Y-98149877D01*
X90070924Y-98147278D01*
X90090291Y-98075000D01*
X90688553Y-98075000D01*
X90835000Y-98221447D01*
X90835001Y-98221447D01*
X90981447Y-98074999D01*
X90981447Y-98074998D01*
X90835000Y-97928553D01*
X90688553Y-98075000D01*
X90090291Y-98075000D01*
X90070227Y-98000123D01*
X90076471Y-97952697D01*
X90114422Y-97923577D01*
X90130598Y-97921447D01*
X90135000Y-97921447D01*
X90481445Y-97575001D01*
X90679709Y-97575001D01*
X90700512Y-97652640D01*
X90700513Y-97652641D01*
X90700514Y-97652645D01*
X90757355Y-97709486D01*
X90815254Y-97725000D01*
X90815255Y-97725000D01*
X90854745Y-97725000D01*
X90854746Y-97725000D01*
X90912645Y-97709486D01*
X90912646Y-97709486D01*
X90941065Y-97681066D01*
X90969486Y-97652646D01*
X90990291Y-97575000D01*
X90990291Y-97574999D01*
X90990291Y-97574998D01*
X90969487Y-97497359D01*
X90969487Y-97497358D01*
X90969486Y-97497355D01*
X90912645Y-97440514D01*
X90912642Y-97440513D01*
X90912640Y-97440512D01*
X90854752Y-97425001D01*
X90854747Y-97425000D01*
X90854746Y-97425000D01*
X90815254Y-97425000D01*
X90815253Y-97425000D01*
X90815247Y-97425001D01*
X90757355Y-97440513D01*
X90757353Y-97440514D01*
X90700515Y-97497352D01*
X90700512Y-97497358D01*
X90679709Y-97574998D01*
X90679709Y-97575001D01*
X90481445Y-97575001D01*
X90481447Y-97574999D01*
X90118339Y-97211891D01*
X90118338Y-97211891D01*
X90109664Y-97225697D01*
X90109661Y-97225703D01*
X90104606Y-97240149D01*
X90072730Y-97275816D01*
X90038617Y-97281612D01*
X89935001Y-97269938D01*
X89935000Y-97269938D01*
X89755860Y-97290122D01*
X89755856Y-97290123D01*
X89585700Y-97349662D01*
X89585697Y-97349664D01*
X89571891Y-97358338D01*
X90040896Y-97827343D01*
X90059202Y-97871537D01*
X90040896Y-97915731D01*
X89996702Y-97934037D01*
X89980526Y-97931907D01*
X89954752Y-97925001D01*
X89954747Y-97925000D01*
X89954746Y-97925000D01*
X89915254Y-97925000D01*
X89915253Y-97925000D01*
X89915247Y-97925001D01*
X89857355Y-97940513D01*
X89857353Y-97940514D01*
X89800515Y-97997352D01*
X89800512Y-97997358D01*
X89779709Y-98074998D01*
X89779709Y-98075001D01*
X89800512Y-98152640D01*
X89800513Y-98152641D01*
X89800514Y-98152645D01*
X89857355Y-98209486D01*
X89915254Y-98225000D01*
X89915255Y-98225000D01*
X89954745Y-98225000D01*
X89954746Y-98225000D01*
X89954750Y-98224999D01*
X89980524Y-98218093D01*
X90027951Y-98224336D01*
X90057071Y-98262286D01*
X90050828Y-98309713D01*
X90040895Y-98322657D01*
X89571890Y-98791660D01*
X86885595Y-98791660D01*
X86880260Y-98757978D01*
X86822664Y-98644940D01*
X86732956Y-98555232D01*
X86619918Y-98497636D01*
X86494614Y-98477790D01*
X86369309Y-98497636D01*
X86369308Y-98497636D01*
X86256271Y-98555232D01*
X86166564Y-98644939D01*
X86108968Y-98757976D01*
X86108968Y-98757977D01*
X86089122Y-98883282D01*
X81199169Y-98883282D01*
X79251665Y-98075000D01*
X89129938Y-98075000D01*
X89150122Y-98254139D01*
X89150123Y-98254143D01*
X89209662Y-98424298D01*
X89209664Y-98424303D01*
X89218338Y-98438107D01*
X89581446Y-98075000D01*
X89581446Y-98074999D01*
X89218338Y-97711891D01*
X89209664Y-97725697D01*
X89209662Y-97725700D01*
X89150123Y-97895856D01*
X89150122Y-97895860D01*
X89129938Y-98075000D01*
X79251665Y-98075000D01*
X72685948Y-95349999D01*
X81419508Y-95349999D01*
X81439354Y-95475304D01*
X81439354Y-95475305D01*
X81480212Y-95555492D01*
X81496950Y-95588342D01*
X81586658Y-95678050D01*
X81699696Y-95735646D01*
X81752349Y-95743985D01*
X81793133Y-95768978D01*
X81804301Y-95815492D01*
X81798258Y-95834089D01*
X81739355Y-95949691D01*
X81739354Y-95949695D01*
X81719508Y-96075000D01*
X81739354Y-96200304D01*
X81739354Y-96200305D01*
X81777258Y-96274694D01*
X81796950Y-96313342D01*
X81886658Y-96403050D01*
X81999696Y-96460646D01*
X82125000Y-96480492D01*
X82250304Y-96460646D01*
X82363342Y-96403050D01*
X82453050Y-96313342D01*
X82510646Y-96200304D01*
X82514654Y-96175000D01*
X83494508Y-96175000D01*
X83514354Y-96300304D01*
X83514354Y-96300305D01*
X83565152Y-96400000D01*
X83571950Y-96413342D01*
X83661658Y-96503050D01*
X83774696Y-96560646D01*
X83871991Y-96576055D01*
X83912776Y-96601049D01*
X83923943Y-96628009D01*
X83939352Y-96725298D01*
X83939354Y-96725305D01*
X83980212Y-96805492D01*
X83996950Y-96838342D01*
X84086658Y-96928050D01*
X84199696Y-96985646D01*
X84318574Y-97004474D01*
X84359358Y-97029467D01*
X84370525Y-97056427D01*
X84389352Y-97175298D01*
X84389354Y-97175305D01*
X84436773Y-97268369D01*
X84446950Y-97288342D01*
X84536658Y-97378050D01*
X84649696Y-97435646D01*
X84775000Y-97455492D01*
X84900304Y-97435646D01*
X85013342Y-97378050D01*
X85103050Y-97288342D01*
X85160646Y-97175304D01*
X85180492Y-97050000D01*
X85160646Y-96924696D01*
X85126835Y-96858338D01*
X90471891Y-96858338D01*
X90834999Y-97221447D01*
X90956446Y-97100000D01*
X99044508Y-97100000D01*
X99064354Y-97225304D01*
X99064354Y-97225305D01*
X99097381Y-97290123D01*
X99121950Y-97338342D01*
X99211658Y-97428050D01*
X99324696Y-97485646D01*
X99450000Y-97505492D01*
X99575304Y-97485646D01*
X99688342Y-97428050D01*
X99778050Y-97338342D01*
X99778050Y-97338341D01*
X99780806Y-97335586D01*
X99825000Y-97317280D01*
X99869194Y-97335586D01*
X99886658Y-97353050D01*
X99999696Y-97410646D01*
X100125000Y-97430492D01*
X100250304Y-97410646D01*
X100363342Y-97353050D01*
X100363342Y-97353049D01*
X100367724Y-97350817D01*
X100368420Y-97352184D01*
X100409123Y-97342405D01*
X100443551Y-97359943D01*
X100511658Y-97428050D01*
X100624696Y-97485646D01*
X100750000Y-97505492D01*
X100875304Y-97485646D01*
X100988342Y-97428050D01*
X101078050Y-97338342D01*
X101135646Y-97225304D01*
X101136301Y-97221163D01*
X101161293Y-97180377D01*
X101207806Y-97169208D01*
X101248594Y-97194200D01*
X101253720Y-97202564D01*
X101265507Y-97225697D01*
X101271950Y-97238342D01*
X101361658Y-97328050D01*
X101474696Y-97385646D01*
X101600000Y-97405492D01*
X101725304Y-97385646D01*
X101838342Y-97328050D01*
X101928050Y-97238342D01*
X101985646Y-97125304D01*
X102005492Y-97000000D01*
X101985646Y-96874696D01*
X101928050Y-96761658D01*
X101838342Y-96671950D01*
X101725304Y-96614354D01*
X101600000Y-96594508D01*
X101474695Y-96614354D01*
X101474694Y-96614354D01*
X101361657Y-96671950D01*
X101271950Y-96761657D01*
X101214354Y-96874694D01*
X101214353Y-96874699D01*
X101213697Y-96878842D01*
X101188700Y-96919626D01*
X101142185Y-96930790D01*
X101101401Y-96905793D01*
X101096279Y-96897434D01*
X101078050Y-96861658D01*
X100988342Y-96771950D01*
X100875304Y-96714354D01*
X100750000Y-96694508D01*
X100624695Y-96714354D01*
X100624694Y-96714354D01*
X100507276Y-96774183D01*
X100506581Y-96772819D01*
X100465855Y-96782591D01*
X100431448Y-96765056D01*
X100363342Y-96696950D01*
X100250304Y-96639354D01*
X100243914Y-96638342D01*
X100125000Y-96619508D01*
X100124999Y-96619508D01*
X99999695Y-96639354D01*
X99999694Y-96639354D01*
X99886657Y-96696950D01*
X99794194Y-96789413D01*
X99750000Y-96807719D01*
X99705807Y-96789414D01*
X99688342Y-96771950D01*
X99575304Y-96714354D01*
X99571655Y-96713776D01*
X99450000Y-96694508D01*
X99449999Y-96694508D01*
X99324695Y-96714354D01*
X99324694Y-96714354D01*
X99211657Y-96771950D01*
X99121950Y-96861657D01*
X99064354Y-96974694D01*
X99064354Y-96974695D01*
X99044508Y-97100000D01*
X90956446Y-97100000D01*
X91198108Y-96858338D01*
X91184303Y-96849664D01*
X91184298Y-96849662D01*
X91014143Y-96790123D01*
X91014139Y-96790122D01*
X90835000Y-96769938D01*
X90655860Y-96790122D01*
X90655856Y-96790123D01*
X90485700Y-96849662D01*
X90485697Y-96849664D01*
X90471891Y-96858338D01*
X85126835Y-96858338D01*
X85103050Y-96811658D01*
X85013342Y-96721950D01*
X84964277Y-96696950D01*
X84900305Y-96664354D01*
X84900298Y-96664352D01*
X84781427Y-96645525D01*
X84740640Y-96620531D01*
X84729474Y-96593575D01*
X84710646Y-96474696D01*
X84672586Y-96400000D01*
X106094508Y-96400000D01*
X106114354Y-96525304D01*
X106114354Y-96525305D01*
X106162875Y-96620531D01*
X106171950Y-96638342D01*
X106261658Y-96728050D01*
X106374696Y-96785646D01*
X106500000Y-96805492D01*
X106625304Y-96785646D01*
X106738342Y-96728050D01*
X106828050Y-96638342D01*
X106885646Y-96525304D01*
X106905492Y-96400000D01*
X106885646Y-96274696D01*
X106828050Y-96161658D01*
X106738342Y-96071950D01*
X106625304Y-96014354D01*
X106500000Y-95994508D01*
X106374695Y-96014354D01*
X106374694Y-96014354D01*
X106261657Y-96071950D01*
X106171950Y-96161657D01*
X106114354Y-96274694D01*
X106114354Y-96274695D01*
X106094508Y-96400000D01*
X84672586Y-96400000D01*
X84653050Y-96361658D01*
X84563342Y-96271950D01*
X84557389Y-96268917D01*
X84450305Y-96214354D01*
X84450298Y-96214352D01*
X84353009Y-96198943D01*
X84312222Y-96173949D01*
X84301056Y-96146992D01*
X84285646Y-96049696D01*
X84228050Y-95936658D01*
X84154817Y-95863425D01*
X112499207Y-95863425D01*
X112519053Y-95988729D01*
X112519053Y-95988730D01*
X112575478Y-96099469D01*
X112576649Y-96101767D01*
X112666357Y-96191475D01*
X112779395Y-96249071D01*
X112904699Y-96268917D01*
X113030003Y-96249071D01*
X113143041Y-96191475D01*
X113232749Y-96101767D01*
X113290345Y-95988729D01*
X113310191Y-95863425D01*
X113290345Y-95738121D01*
X113232749Y-95625083D01*
X113143041Y-95535375D01*
X113030003Y-95477779D01*
X112904699Y-95457933D01*
X112779394Y-95477779D01*
X112779393Y-95477779D01*
X112666356Y-95535375D01*
X112576649Y-95625082D01*
X112519053Y-95738119D01*
X112519053Y-95738120D01*
X112499207Y-95863425D01*
X84154817Y-95863425D01*
X84138342Y-95846950D01*
X84025304Y-95789354D01*
X83900000Y-95769508D01*
X83774695Y-95789354D01*
X83774694Y-95789354D01*
X83661657Y-95846950D01*
X83571950Y-95936657D01*
X83514354Y-96049694D01*
X83514354Y-96049695D01*
X83494508Y-96175000D01*
X82514654Y-96175000D01*
X82530492Y-96075000D01*
X82510646Y-95949696D01*
X82453050Y-95836658D01*
X82363342Y-95746950D01*
X82341155Y-95735645D01*
X82250305Y-95689354D01*
X82250298Y-95689352D01*
X82197652Y-95681014D01*
X82156865Y-95656020D01*
X82145699Y-95609507D01*
X82151741Y-95590909D01*
X82153047Y-95588344D01*
X82153050Y-95588342D01*
X82210646Y-95475304D01*
X82230492Y-95350000D01*
X82210646Y-95224696D01*
X82153050Y-95111658D01*
X82063342Y-95021950D01*
X81950304Y-94964354D01*
X81825000Y-94944508D01*
X81824999Y-94944508D01*
X81699695Y-94964354D01*
X81699694Y-94964354D01*
X81586657Y-95021950D01*
X81496950Y-95111657D01*
X81439354Y-95224694D01*
X81439354Y-95224695D01*
X81419508Y-95349999D01*
X72685948Y-95349999D01*
X70216278Y-94325000D01*
X103344508Y-94325000D01*
X103364354Y-94450304D01*
X103364354Y-94450305D01*
X103388838Y-94498357D01*
X103421950Y-94563342D01*
X103511658Y-94653050D01*
X103624696Y-94710646D01*
X103750000Y-94730492D01*
X103763385Y-94728372D01*
X103765899Y-94727974D01*
X103812413Y-94739140D01*
X103837407Y-94779926D01*
X103837408Y-94799481D01*
X103819641Y-94911658D01*
X103819508Y-94912500D01*
X103829359Y-94974695D01*
X103839354Y-95037804D01*
X103839354Y-95037805D01*
X103896521Y-95150000D01*
X103896950Y-95150842D01*
X103986658Y-95240550D01*
X104099696Y-95298146D01*
X104225000Y-95317992D01*
X104350304Y-95298146D01*
X104463342Y-95240550D01*
X104553050Y-95150842D01*
X104553479Y-95150000D01*
X105494508Y-95150000D01*
X105514354Y-95275304D01*
X105514354Y-95275305D01*
X105552413Y-95349999D01*
X105571950Y-95388342D01*
X105661658Y-95478050D01*
X105774696Y-95535646D01*
X105900000Y-95555492D01*
X106025304Y-95535646D01*
X106138342Y-95478050D01*
X106228050Y-95388342D01*
X106285646Y-95275304D01*
X106305492Y-95150000D01*
X106297573Y-95100000D01*
X106644508Y-95100000D01*
X106664354Y-95225304D01*
X106664354Y-95225305D01*
X106701469Y-95298146D01*
X106721950Y-95338342D01*
X106811658Y-95428050D01*
X106924696Y-95485646D01*
X107050000Y-95505492D01*
X107175304Y-95485646D01*
X107288342Y-95428050D01*
X107378050Y-95338342D01*
X107435646Y-95225304D01*
X107455492Y-95100000D01*
X107435646Y-94974696D01*
X107378050Y-94861658D01*
X107288342Y-94771950D01*
X107175304Y-94714354D01*
X107050000Y-94694508D01*
X107049999Y-94694508D01*
X106924695Y-94714354D01*
X106924694Y-94714354D01*
X106811657Y-94771950D01*
X106721950Y-94861657D01*
X106664354Y-94974694D01*
X106664354Y-94974695D01*
X106644508Y-95100000D01*
X106297573Y-95100000D01*
X106285646Y-95024696D01*
X106228050Y-94911658D01*
X106138342Y-94821950D01*
X106025304Y-94764354D01*
X105900000Y-94744508D01*
X105774695Y-94764354D01*
X105774694Y-94764354D01*
X105661657Y-94821950D01*
X105571950Y-94911657D01*
X105514354Y-95024694D01*
X105514354Y-95024695D01*
X105494508Y-95150000D01*
X104553479Y-95150000D01*
X104610646Y-95037804D01*
X104630492Y-94912500D01*
X104630326Y-94911453D01*
X104630492Y-94910763D01*
X104630492Y-94907581D01*
X104631256Y-94907581D01*
X104641490Y-94864941D01*
X104682275Y-94839944D01*
X104701833Y-94839944D01*
X104799996Y-94855492D01*
X104799997Y-94855491D01*
X104800000Y-94855492D01*
X104925304Y-94835646D01*
X105038342Y-94778050D01*
X105128050Y-94688342D01*
X105185646Y-94575304D01*
X105205492Y-94450000D01*
X105185646Y-94324696D01*
X105128050Y-94211658D01*
X105038342Y-94121950D01*
X104925304Y-94064354D01*
X104800000Y-94044508D01*
X104674695Y-94064354D01*
X104674694Y-94064354D01*
X104561657Y-94121950D01*
X104471950Y-94211657D01*
X104414354Y-94324694D01*
X104414354Y-94324695D01*
X104394508Y-94450002D01*
X104394508Y-94450003D01*
X104394674Y-94451052D01*
X104394508Y-94451743D01*
X104394508Y-94454919D01*
X104393745Y-94454919D01*
X104383504Y-94497565D01*
X104342716Y-94522556D01*
X104323167Y-94522556D01*
X104225000Y-94507008D01*
X104224999Y-94507008D01*
X104224998Y-94507008D01*
X104209097Y-94509526D01*
X104162583Y-94498357D01*
X104137591Y-94457570D01*
X104137592Y-94438018D01*
X104155492Y-94325003D01*
X104155492Y-94325002D01*
X104155444Y-94324696D01*
X104135646Y-94199696D01*
X104078050Y-94086658D01*
X103988342Y-93996950D01*
X103875304Y-93939354D01*
X103750000Y-93919508D01*
X103749999Y-93919508D01*
X103624695Y-93939354D01*
X103624694Y-93939354D01*
X103511657Y-93996950D01*
X103421950Y-94086657D01*
X103364354Y-94199694D01*
X103364354Y-94199695D01*
X103344508Y-94325000D01*
X70216278Y-94325000D01*
X69287088Y-93939354D01*
X68951323Y-93800000D01*
X87544508Y-93800000D01*
X87564354Y-93925304D01*
X87564354Y-93925305D01*
X87621949Y-94038341D01*
X87621950Y-94038342D01*
X87711658Y-94128050D01*
X87824696Y-94185646D01*
X87950000Y-94205492D01*
X88075304Y-94185646D01*
X88188342Y-94128050D01*
X88278050Y-94038342D01*
X88335646Y-93925304D01*
X88355492Y-93800000D01*
X88335646Y-93674696D01*
X88278050Y-93561658D01*
X88188342Y-93471950D01*
X88075304Y-93414354D01*
X87950000Y-93394508D01*
X87824695Y-93414354D01*
X87824694Y-93414354D01*
X87711657Y-93471950D01*
X87621950Y-93561657D01*
X87564354Y-93674694D01*
X87564354Y-93674695D01*
X87544508Y-93800000D01*
X68951323Y-93800000D01*
X67505661Y-93200000D01*
X102744508Y-93200000D01*
X102764354Y-93325304D01*
X102764354Y-93325305D01*
X102781699Y-93359346D01*
X102821950Y-93438342D01*
X102911658Y-93528050D01*
X103024696Y-93585646D01*
X103150000Y-93605492D01*
X103275304Y-93585646D01*
X103388342Y-93528050D01*
X103478050Y-93438342D01*
X103535646Y-93325304D01*
X103555492Y-93200000D01*
X103535646Y-93074696D01*
X103478050Y-92961658D01*
X103388342Y-92871950D01*
X103275304Y-92814354D01*
X103150000Y-92794508D01*
X103024695Y-92814354D01*
X103024694Y-92814354D01*
X102911657Y-92871950D01*
X102821950Y-92961657D01*
X102764354Y-93074694D01*
X102764354Y-93074695D01*
X102744508Y-93200000D01*
X67505661Y-93200000D01*
X66826106Y-92917961D01*
X66792305Y-92884112D01*
X66788994Y-92846946D01*
X66925102Y-92221602D01*
X66968331Y-92049999D01*
X91494508Y-92049999D01*
X91514354Y-92175304D01*
X91514354Y-92175305D01*
X91537944Y-92221602D01*
X91571950Y-92288342D01*
X91661658Y-92378050D01*
X91774696Y-92435646D01*
X91900000Y-92455492D01*
X92025304Y-92435646D01*
X92138342Y-92378050D01*
X92228050Y-92288342D01*
X92285646Y-92175304D01*
X92305492Y-92050000D01*
X92285646Y-91924696D01*
X92228050Y-91811658D01*
X92138342Y-91721950D01*
X92025304Y-91664354D01*
X91900000Y-91644508D01*
X91774695Y-91664354D01*
X91774694Y-91664354D01*
X91661657Y-91721950D01*
X91571950Y-91811657D01*
X91514354Y-91924694D01*
X91514354Y-91924695D01*
X91494508Y-92049999D01*
X66968331Y-92049999D01*
X67132072Y-91400000D01*
X102744508Y-91400000D01*
X102764354Y-91525304D01*
X102764354Y-91525305D01*
X102815424Y-91625534D01*
X102821950Y-91638342D01*
X102911658Y-91728050D01*
X103024696Y-91785646D01*
X103150000Y-91805492D01*
X103275304Y-91785646D01*
X103388342Y-91728050D01*
X103478050Y-91638342D01*
X103535646Y-91525304D01*
X103555492Y-91400000D01*
X103535646Y-91274696D01*
X103517911Y-91239889D01*
X109933896Y-91239889D01*
X109953742Y-91365193D01*
X109953742Y-91365194D01*
X109971477Y-91400000D01*
X110011338Y-91478231D01*
X110101046Y-91567939D01*
X110214084Y-91625535D01*
X110339388Y-91645381D01*
X110464692Y-91625535D01*
X110577730Y-91567939D01*
X110667438Y-91478231D01*
X110725034Y-91365193D01*
X110744880Y-91239889D01*
X110725034Y-91114585D01*
X110667438Y-91001547D01*
X110577730Y-90911839D01*
X110464692Y-90854243D01*
X110339388Y-90834397D01*
X110214083Y-90854243D01*
X110214082Y-90854243D01*
X110101045Y-90911839D01*
X110011338Y-91001546D01*
X109953742Y-91114583D01*
X109953742Y-91114584D01*
X109933896Y-91239889D01*
X103517911Y-91239889D01*
X103478050Y-91161658D01*
X103388342Y-91071950D01*
X103275304Y-91014354D01*
X103150000Y-90994508D01*
X103024695Y-91014354D01*
X103024694Y-91014354D01*
X102911657Y-91071950D01*
X102821950Y-91161657D01*
X102764354Y-91274694D01*
X102764354Y-91274695D01*
X102744508Y-91400000D01*
X67132072Y-91400000D01*
X67194322Y-91152888D01*
X67309843Y-90750000D01*
X91194508Y-90750000D01*
X91214354Y-90875304D01*
X91214354Y-90875305D01*
X91269888Y-90984296D01*
X91271950Y-90988342D01*
X91361658Y-91078050D01*
X91474696Y-91135646D01*
X91600000Y-91155492D01*
X91725304Y-91135646D01*
X91838342Y-91078050D01*
X91928050Y-90988342D01*
X91985646Y-90875304D01*
X92005492Y-90750000D01*
X91985646Y-90624696D01*
X91928050Y-90511658D01*
X91838342Y-90421950D01*
X91725304Y-90364354D01*
X91600000Y-90344508D01*
X91474695Y-90364354D01*
X91474694Y-90364354D01*
X91361657Y-90421950D01*
X91271950Y-90511657D01*
X91214354Y-90624694D01*
X91214354Y-90624695D01*
X91194508Y-90750000D01*
X67309843Y-90750000D01*
X67498090Y-90093477D01*
X67544320Y-89950000D01*
X79244508Y-89950000D01*
X79264354Y-90075304D01*
X79264354Y-90075305D01*
X79320576Y-90185645D01*
X79321950Y-90188342D01*
X79411658Y-90278050D01*
X79524696Y-90335646D01*
X79650000Y-90355492D01*
X79775304Y-90335646D01*
X79888342Y-90278050D01*
X79966392Y-90200000D01*
X80794508Y-90200000D01*
X80814354Y-90325304D01*
X80814354Y-90325305D01*
X80834251Y-90364354D01*
X80871950Y-90438342D01*
X80961658Y-90528050D01*
X81074696Y-90585646D01*
X81200000Y-90605492D01*
X81325304Y-90585646D01*
X81438342Y-90528050D01*
X81528050Y-90438342D01*
X81585646Y-90325304D01*
X81605492Y-90200000D01*
X81585646Y-90074696D01*
X81528050Y-89961658D01*
X81438342Y-89871950D01*
X81325304Y-89814354D01*
X81234675Y-89800000D01*
X83794508Y-89800000D01*
X83814354Y-89925304D01*
X83814354Y-89925305D01*
X83871949Y-90038342D01*
X83871950Y-90038342D01*
X83961658Y-90128050D01*
X84074696Y-90185646D01*
X84200000Y-90205492D01*
X84325304Y-90185646D01*
X84438342Y-90128050D01*
X84528050Y-90038342D01*
X84585646Y-89925304D01*
X84605492Y-89800000D01*
X84585646Y-89674696D01*
X84578469Y-89660611D01*
X90834397Y-89660611D01*
X90854243Y-89785916D01*
X90854243Y-89785917D01*
X90861419Y-89800000D01*
X90911839Y-89898954D01*
X91001547Y-89988662D01*
X91114585Y-90046258D01*
X91239889Y-90066104D01*
X91365193Y-90046258D01*
X91478231Y-89988662D01*
X91567939Y-89898954D01*
X91625535Y-89785916D01*
X91645381Y-89660612D01*
X91625535Y-89535308D01*
X91567939Y-89422270D01*
X91478231Y-89332562D01*
X91365193Y-89274966D01*
X91239889Y-89255120D01*
X91114584Y-89274966D01*
X91114583Y-89274966D01*
X91001546Y-89332562D01*
X90911839Y-89422269D01*
X90854243Y-89535306D01*
X90854243Y-89535307D01*
X90834397Y-89660611D01*
X84578469Y-89660611D01*
X84528050Y-89561658D01*
X84438342Y-89471950D01*
X84325304Y-89414354D01*
X84200000Y-89394508D01*
X84074695Y-89414354D01*
X84074694Y-89414354D01*
X83961657Y-89471950D01*
X83871950Y-89561657D01*
X83814354Y-89674694D01*
X83814354Y-89674695D01*
X83794508Y-89800000D01*
X81234675Y-89800000D01*
X81200000Y-89794508D01*
X81074695Y-89814354D01*
X81074694Y-89814354D01*
X80961657Y-89871950D01*
X80871950Y-89961657D01*
X80814354Y-90074694D01*
X80814354Y-90074695D01*
X80794508Y-90200000D01*
X79966392Y-90200000D01*
X79978050Y-90188342D01*
X80035646Y-90075304D01*
X80055492Y-89950000D01*
X80035646Y-89824696D01*
X79978050Y-89711658D01*
X79888342Y-89621950D01*
X79775304Y-89564354D01*
X79650000Y-89544508D01*
X79649999Y-89544508D01*
X79524695Y-89564354D01*
X79524694Y-89564354D01*
X79411657Y-89621950D01*
X79321950Y-89711657D01*
X79264354Y-89824694D01*
X79264354Y-89824695D01*
X79244508Y-89950000D01*
X67544320Y-89950000D01*
X67785979Y-89200000D01*
X84594508Y-89200000D01*
X84614354Y-89325304D01*
X84614354Y-89325305D01*
X84618052Y-89332562D01*
X84671950Y-89438342D01*
X84761658Y-89528050D01*
X84874696Y-89585646D01*
X85000000Y-89605492D01*
X85125304Y-89585646D01*
X85238342Y-89528050D01*
X85328050Y-89438342D01*
X85385646Y-89325304D01*
X85405492Y-89200000D01*
X85385646Y-89074696D01*
X85328050Y-88961658D01*
X85238342Y-88871950D01*
X85125304Y-88814354D01*
X85000000Y-88794508D01*
X84874695Y-88814354D01*
X84874694Y-88814354D01*
X84761657Y-88871950D01*
X84671950Y-88961657D01*
X84614354Y-89074694D01*
X84614354Y-89074695D01*
X84594508Y-89200000D01*
X67785979Y-89200000D01*
X67836088Y-89044485D01*
X68102940Y-88300000D01*
X68794508Y-88300000D01*
X68814354Y-88425304D01*
X68814354Y-88425305D01*
X68871949Y-88538342D01*
X68871950Y-88538342D01*
X68961658Y-88628050D01*
X69074696Y-88685646D01*
X69200000Y-88705492D01*
X69325304Y-88685646D01*
X69438342Y-88628050D01*
X69528050Y-88538342D01*
X69585646Y-88425304D01*
X69605492Y-88300000D01*
X69585646Y-88174696D01*
X69528050Y-88061658D01*
X69438342Y-87971950D01*
X69395263Y-87950000D01*
X105794508Y-87950000D01*
X105814354Y-88075304D01*
X105814354Y-88075305D01*
X105864996Y-88174694D01*
X105871950Y-88188342D01*
X105961658Y-88278050D01*
X106074696Y-88335646D01*
X106200000Y-88355492D01*
X106325304Y-88335646D01*
X106438342Y-88278050D01*
X106528050Y-88188342D01*
X106585646Y-88075304D01*
X106605492Y-87950000D01*
X106585646Y-87824696D01*
X106528050Y-87711658D01*
X106438342Y-87621950D01*
X106325304Y-87564354D01*
X106200000Y-87544508D01*
X106074695Y-87564354D01*
X106074694Y-87564354D01*
X105961657Y-87621950D01*
X105871950Y-87711657D01*
X105814354Y-87824694D01*
X105814354Y-87824695D01*
X105794508Y-87950000D01*
X69395263Y-87950000D01*
X69325304Y-87914354D01*
X69200000Y-87894508D01*
X69074695Y-87914354D01*
X69074694Y-87914354D01*
X68961657Y-87971950D01*
X68871950Y-88061657D01*
X68814354Y-88174694D01*
X68814354Y-88174695D01*
X68794508Y-88300000D01*
X68102940Y-88300000D01*
X68207957Y-88007017D01*
X68613308Y-86982166D01*
X68635926Y-86930000D01*
X72944508Y-86930000D01*
X72964354Y-87055304D01*
X72964354Y-87055305D01*
X72998895Y-87123095D01*
X73021950Y-87168342D01*
X73111658Y-87258050D01*
X73224696Y-87315646D01*
X73350000Y-87335492D01*
X73475304Y-87315646D01*
X73588342Y-87258050D01*
X73678050Y-87168342D01*
X73715266Y-87095301D01*
X95457933Y-87095301D01*
X95477779Y-87220605D01*
X95477779Y-87220606D01*
X95526205Y-87315646D01*
X95535375Y-87333643D01*
X95625083Y-87423351D01*
X95738121Y-87480947D01*
X95863425Y-87500793D01*
X95988729Y-87480947D01*
X96101767Y-87423351D01*
X96191475Y-87333643D01*
X96249071Y-87220605D01*
X96268917Y-87095301D01*
X96249071Y-86969997D01*
X96191475Y-86856959D01*
X96101767Y-86767251D01*
X95988729Y-86709655D01*
X95863425Y-86689809D01*
X95738120Y-86709655D01*
X95738119Y-86709655D01*
X95625082Y-86767251D01*
X95535375Y-86856958D01*
X95477779Y-86969995D01*
X95477779Y-86969996D01*
X95457933Y-87095301D01*
X73715266Y-87095301D01*
X73735646Y-87055304D01*
X73755492Y-86930000D01*
X73735646Y-86804696D01*
X73678050Y-86691658D01*
X73625586Y-86639194D01*
X73607280Y-86595000D01*
X73625586Y-86550806D01*
X73640747Y-86535645D01*
X73678050Y-86498342D01*
X73735646Y-86385304D01*
X73755492Y-86260000D01*
X73738070Y-86150000D01*
X79844508Y-86150000D01*
X79864354Y-86275304D01*
X79864354Y-86275305D01*
X79876782Y-86299696D01*
X79921950Y-86388342D01*
X80011658Y-86478050D01*
X80124696Y-86535646D01*
X80250000Y-86555492D01*
X80375304Y-86535646D01*
X80488342Y-86478050D01*
X80578050Y-86388342D01*
X80623063Y-86300000D01*
X85744508Y-86300000D01*
X85764354Y-86425304D01*
X85764354Y-86425305D01*
X85799669Y-86494614D01*
X85821950Y-86538342D01*
X85911658Y-86628050D01*
X86024696Y-86685646D01*
X86150000Y-86705492D01*
X86275304Y-86685646D01*
X86388342Y-86628050D01*
X86478050Y-86538342D01*
X86535646Y-86425304D01*
X86535694Y-86425000D01*
X86869508Y-86425000D01*
X86889354Y-86550304D01*
X86889354Y-86550305D01*
X86912128Y-86595000D01*
X86946950Y-86663342D01*
X87036658Y-86753050D01*
X87149696Y-86810646D01*
X87275000Y-86830492D01*
X87400304Y-86810646D01*
X87513342Y-86753050D01*
X87603050Y-86663342D01*
X87660646Y-86550304D01*
X87669466Y-86494614D01*
X100711226Y-86494614D01*
X100731072Y-86619918D01*
X100731072Y-86619919D01*
X100774674Y-86705491D01*
X100788668Y-86732956D01*
X100878376Y-86822664D01*
X100991414Y-86880260D01*
X101116718Y-86900106D01*
X101242022Y-86880260D01*
X101355060Y-86822664D01*
X101444768Y-86732956D01*
X101502364Y-86619918D01*
X101522210Y-86494614D01*
X101502364Y-86369310D01*
X101444768Y-86256272D01*
X101355060Y-86166564D01*
X101242022Y-86108968D01*
X101116718Y-86089122D01*
X101116717Y-86089122D01*
X100991413Y-86108968D01*
X100991412Y-86108968D01*
X100878375Y-86166564D01*
X100788668Y-86256271D01*
X100731072Y-86369308D01*
X100731072Y-86369309D01*
X100711226Y-86494614D01*
X87669466Y-86494614D01*
X87680492Y-86425000D01*
X87660646Y-86299696D01*
X87603050Y-86186658D01*
X87513342Y-86096950D01*
X87400304Y-86039354D01*
X87275000Y-86019508D01*
X87149695Y-86039354D01*
X87149694Y-86039354D01*
X87036657Y-86096950D01*
X86946950Y-86186657D01*
X86889354Y-86299694D01*
X86889354Y-86299695D01*
X86869508Y-86425000D01*
X86535694Y-86425000D01*
X86555492Y-86300000D01*
X86535646Y-86174696D01*
X86478050Y-86061658D01*
X86388342Y-85971950D01*
X86275304Y-85914354D01*
X86150000Y-85894508D01*
X86024695Y-85914354D01*
X86024694Y-85914354D01*
X85911657Y-85971950D01*
X85821950Y-86061657D01*
X85764354Y-86174694D01*
X85764354Y-86174695D01*
X85744508Y-86300000D01*
X80623063Y-86300000D01*
X80635646Y-86275304D01*
X80655492Y-86150000D01*
X80635646Y-86024696D01*
X80578050Y-85911658D01*
X80488342Y-85821950D01*
X80375304Y-85764354D01*
X80250000Y-85744508D01*
X80249999Y-85744508D01*
X80124695Y-85764354D01*
X80124694Y-85764354D01*
X80011657Y-85821950D01*
X79921950Y-85911657D01*
X79864354Y-86024694D01*
X79864354Y-86024695D01*
X79844508Y-86150000D01*
X73738070Y-86150000D01*
X73735646Y-86134696D01*
X73678050Y-86021658D01*
X73588342Y-85931950D01*
X73475304Y-85874354D01*
X73350000Y-85854508D01*
X73224695Y-85874354D01*
X73224694Y-85874354D01*
X73111657Y-85931950D01*
X73021950Y-86021657D01*
X72964354Y-86134694D01*
X72964354Y-86134695D01*
X72944508Y-86260000D01*
X72964354Y-86385304D01*
X72964354Y-86385305D01*
X73021950Y-86498342D01*
X73074414Y-86550806D01*
X73092720Y-86595000D01*
X73074414Y-86639194D01*
X73021950Y-86691657D01*
X72964354Y-86804694D01*
X72964354Y-86804695D01*
X72944508Y-86930000D01*
X68635926Y-86930000D01*
X69051712Y-85971014D01*
X69108916Y-85850000D01*
X69794508Y-85850000D01*
X69814354Y-85975304D01*
X69814354Y-85975305D01*
X69846989Y-86039354D01*
X69871950Y-86088342D01*
X69961658Y-86178050D01*
X70074696Y-86235646D01*
X70200000Y-86255492D01*
X70325304Y-86235646D01*
X70438342Y-86178050D01*
X70528050Y-86088342D01*
X70585646Y-85975304D01*
X70605492Y-85850000D01*
X70585646Y-85724696D01*
X70528050Y-85611658D01*
X70438342Y-85521950D01*
X70325304Y-85464354D01*
X70200000Y-85444508D01*
X70074695Y-85464354D01*
X70074694Y-85464354D01*
X69961657Y-85521950D01*
X69871950Y-85611657D01*
X69814354Y-85724694D01*
X69814354Y-85724695D01*
X69794508Y-85850000D01*
X69108916Y-85850000D01*
X69522707Y-84974625D01*
X69912728Y-84214432D01*
X82589597Y-84214432D01*
X82630526Y-84459711D01*
X82711269Y-84694907D01*
X82774018Y-84810857D01*
X82829622Y-84913605D01*
X82829623Y-84913607D01*
X82982354Y-85109835D01*
X82982357Y-85109839D01*
X83165308Y-85278258D01*
X83165310Y-85278259D01*
X83165312Y-85278261D01*
X83373490Y-85414270D01*
X83601216Y-85514160D01*
X83842276Y-85575205D01*
X84028030Y-85590597D01*
X84028032Y-85590597D01*
X84152162Y-85590597D01*
X84152164Y-85590597D01*
X84337918Y-85575205D01*
X84578978Y-85514160D01*
X84806704Y-85414270D01*
X85014882Y-85278261D01*
X85197835Y-85109841D01*
X85350571Y-84913606D01*
X85468925Y-84694907D01*
X85549668Y-84459711D01*
X85590597Y-84214432D01*
X85590597Y-83965762D01*
X85549668Y-83720483D01*
X85468925Y-83485287D01*
X85350571Y-83266588D01*
X85350570Y-83266586D01*
X85197839Y-83070358D01*
X85197836Y-83070354D01*
X85014885Y-82901935D01*
X85014880Y-82901932D01*
X84973192Y-82874696D01*
X84806704Y-82765924D01*
X84578978Y-82666034D01*
X84337918Y-82604989D01*
X84152164Y-82589597D01*
X84028030Y-82589597D01*
X83842276Y-82604989D01*
X83601216Y-82666034D01*
X83601214Y-82666034D01*
X83601213Y-82666035D01*
X83373487Y-82765925D01*
X83373484Y-82765927D01*
X83165313Y-82901932D01*
X83165308Y-82901935D01*
X82982357Y-83070354D01*
X82982354Y-83070358D01*
X82829623Y-83266586D01*
X82829622Y-83266588D01*
X82765192Y-83385646D01*
X82711269Y-83485287D01*
X82630526Y-83720483D01*
X82589597Y-83965762D01*
X82589597Y-84214432D01*
X69912728Y-84214432D01*
X70025797Y-83994049D01*
X70560451Y-83030321D01*
X70578584Y-83000000D01*
X74944508Y-83000000D01*
X74955904Y-83071950D01*
X74964354Y-83125304D01*
X74964354Y-83125305D01*
X74982877Y-83161657D01*
X75021950Y-83238342D01*
X75111658Y-83328050D01*
X75224696Y-83385646D01*
X75350000Y-83405492D01*
X75384675Y-83400000D01*
X78744508Y-83400000D01*
X78764354Y-83525304D01*
X78764354Y-83525305D01*
X78821949Y-83638341D01*
X78821950Y-83638342D01*
X78911658Y-83728050D01*
X79024696Y-83785646D01*
X79150000Y-83805492D01*
X79275304Y-83785646D01*
X79388342Y-83728050D01*
X79478050Y-83638342D01*
X79535646Y-83525304D01*
X79555492Y-83400000D01*
X79535646Y-83274696D01*
X79478050Y-83161658D01*
X79388342Y-83071950D01*
X79275304Y-83014354D01*
X79150000Y-82994508D01*
X79024695Y-83014354D01*
X79024694Y-83014354D01*
X78911657Y-83071950D01*
X78821950Y-83161657D01*
X78764354Y-83274694D01*
X78764354Y-83274695D01*
X78744508Y-83400000D01*
X75384675Y-83400000D01*
X75475304Y-83385646D01*
X75588342Y-83328050D01*
X75678050Y-83238342D01*
X75735646Y-83125304D01*
X75755492Y-83000000D01*
X75735646Y-82874696D01*
X75678050Y-82761658D01*
X75588342Y-82671950D01*
X75475304Y-82614354D01*
X75350000Y-82594508D01*
X75224695Y-82614354D01*
X75224694Y-82614354D01*
X75111657Y-82671950D01*
X75021950Y-82761657D01*
X74964354Y-82874694D01*
X74964354Y-82874695D01*
X74964353Y-82874696D01*
X74964354Y-82874696D01*
X74944508Y-83000000D01*
X70578584Y-83000000D01*
X71126107Y-82084456D01*
X71490418Y-81517872D01*
X71529715Y-81490601D01*
X71576788Y-81499106D01*
X71604061Y-81538405D01*
X71605219Y-81557442D01*
X71597325Y-81642636D01*
X71597325Y-81642644D01*
X71617415Y-81859464D01*
X71617417Y-81859475D01*
X71677010Y-82068918D01*
X71774074Y-82263849D01*
X71774075Y-82263850D01*
X71786346Y-82280099D01*
X72299793Y-81766652D01*
X72343987Y-81748346D01*
X72388181Y-81766652D01*
X72399675Y-81782472D01*
X72438904Y-81859464D01*
X72449718Y-81880686D01*
X72539314Y-81970282D01*
X72637526Y-82020324D01*
X72668593Y-82056697D01*
X72664840Y-82104385D01*
X72653346Y-82120205D01*
X72142191Y-82631359D01*
X72142191Y-82631362D01*
X72251368Y-82698961D01*
X72454432Y-82777629D01*
X72668474Y-82817640D01*
X72668482Y-82817641D01*
X72886236Y-82817641D01*
X72886243Y-82817640D01*
X73100285Y-82777629D01*
X73303349Y-82698961D01*
X73412525Y-82631361D01*
X73412525Y-82631359D01*
X72901371Y-82120205D01*
X72883065Y-82076011D01*
X72901371Y-82031817D01*
X72917185Y-82020326D01*
X73015404Y-81970282D01*
X73105000Y-81880686D01*
X73155043Y-81782469D01*
X73191415Y-81751405D01*
X73239103Y-81755158D01*
X73254923Y-81766652D01*
X73768370Y-82280099D01*
X73780645Y-82263847D01*
X73877707Y-82068918D01*
X73937300Y-81859475D01*
X73937302Y-81859464D01*
X73957393Y-81642644D01*
X73957393Y-81642637D01*
X73937302Y-81425817D01*
X73937300Y-81425806D01*
X73877707Y-81216363D01*
X73869559Y-81200000D01*
X76194508Y-81200000D01*
X76214354Y-81325304D01*
X76214354Y-81325305D01*
X76254755Y-81404596D01*
X76271950Y-81438342D01*
X76361658Y-81528050D01*
X76474696Y-81585646D01*
X76600000Y-81605492D01*
X76725304Y-81585646D01*
X76838342Y-81528050D01*
X76928050Y-81438342D01*
X76985646Y-81325304D01*
X77005492Y-81200000D01*
X76985646Y-81074696D01*
X76928050Y-80961658D01*
X76866392Y-80900000D01*
X78132757Y-80900000D01*
X78152603Y-81025304D01*
X78152603Y-81025305D01*
X78208825Y-81135645D01*
X78210199Y-81138342D01*
X78299907Y-81228050D01*
X78412945Y-81285646D01*
X78538249Y-81305492D01*
X78663553Y-81285646D01*
X78776591Y-81228050D01*
X78866299Y-81138342D01*
X78923895Y-81025304D01*
X78943741Y-80900000D01*
X78923895Y-80774696D01*
X78911312Y-80750000D01*
X95444508Y-80750000D01*
X95464354Y-80875304D01*
X95464354Y-80875305D01*
X95512810Y-80970404D01*
X95521950Y-80988342D01*
X95611658Y-81078050D01*
X95724696Y-81135646D01*
X95850000Y-81155492D01*
X95975304Y-81135646D01*
X96088342Y-81078050D01*
X96178050Y-80988342D01*
X96235646Y-80875304D01*
X96255492Y-80750000D01*
X96235646Y-80624696D01*
X96223063Y-80600000D01*
X99694508Y-80600000D01*
X99714354Y-80725304D01*
X99714354Y-80725305D01*
X99749615Y-80794508D01*
X99771950Y-80838342D01*
X99861658Y-80928050D01*
X99974696Y-80985646D01*
X100100000Y-81005492D01*
X100225304Y-80985646D01*
X100338342Y-80928050D01*
X100366392Y-80900000D01*
X102744508Y-80900000D01*
X102764354Y-81025304D01*
X102764354Y-81025305D01*
X102820576Y-81135645D01*
X102821950Y-81138342D01*
X102911658Y-81228050D01*
X103024696Y-81285646D01*
X103150000Y-81305492D01*
X103275304Y-81285646D01*
X103388342Y-81228050D01*
X103478050Y-81138342D01*
X103535646Y-81025304D01*
X103555492Y-80900000D01*
X103535646Y-80774696D01*
X103478050Y-80661658D01*
X103388342Y-80571950D01*
X103275304Y-80514354D01*
X103150000Y-80494508D01*
X103024695Y-80514354D01*
X103024694Y-80514354D01*
X102911657Y-80571950D01*
X102821950Y-80661657D01*
X102764354Y-80774694D01*
X102764354Y-80774695D01*
X102744508Y-80900000D01*
X100366392Y-80900000D01*
X100428050Y-80838342D01*
X100485646Y-80725304D01*
X100505492Y-80600000D01*
X100485646Y-80474696D01*
X100428050Y-80361658D01*
X100338342Y-80271950D01*
X100225304Y-80214354D01*
X100134675Y-80200000D01*
X100594508Y-80200000D01*
X100614354Y-80325304D01*
X100614354Y-80325305D01*
X100655212Y-80405492D01*
X100671950Y-80438342D01*
X100761658Y-80528050D01*
X100874696Y-80585646D01*
X101000000Y-80605492D01*
X101125304Y-80585646D01*
X101238342Y-80528050D01*
X101328050Y-80438342D01*
X101385646Y-80325304D01*
X101405492Y-80200000D01*
X101385646Y-80074696D01*
X101328050Y-79961658D01*
X101260586Y-79894194D01*
X101242280Y-79850000D01*
X101260586Y-79805806D01*
X101278552Y-79787840D01*
X101328050Y-79738342D01*
X101385646Y-79625304D01*
X101405492Y-79500000D01*
X101385646Y-79374696D01*
X101328050Y-79261658D01*
X101260586Y-79194194D01*
X101242280Y-79150000D01*
X101260586Y-79105806D01*
X101260585Y-79105806D01*
X101328050Y-79038342D01*
X101385646Y-78925304D01*
X101405492Y-78800000D01*
X101385646Y-78674696D01*
X101328050Y-78561658D01*
X101238342Y-78471950D01*
X101125304Y-78414354D01*
X101000000Y-78394508D01*
X100999999Y-78394508D01*
X100874695Y-78414354D01*
X100874694Y-78414354D01*
X100761657Y-78471950D01*
X100671950Y-78561657D01*
X100614354Y-78674694D01*
X100614354Y-78674695D01*
X100594508Y-78800000D01*
X100614354Y-78925304D01*
X100614354Y-78925305D01*
X100671950Y-79038342D01*
X100739414Y-79105806D01*
X100757720Y-79150000D01*
X100739414Y-79194194D01*
X100671950Y-79261657D01*
X100614354Y-79374694D01*
X100614354Y-79374695D01*
X100594508Y-79500000D01*
X100614354Y-79625304D01*
X100614354Y-79625305D01*
X100671950Y-79738342D01*
X100739414Y-79805806D01*
X100757720Y-79850000D01*
X100739414Y-79894194D01*
X100671950Y-79961657D01*
X100614354Y-80074694D01*
X100614354Y-80074695D01*
X100594508Y-80200000D01*
X100134675Y-80200000D01*
X100100000Y-80194508D01*
X99974695Y-80214354D01*
X99974694Y-80214354D01*
X99861657Y-80271950D01*
X99771950Y-80361657D01*
X99714354Y-80474694D01*
X99714354Y-80474695D01*
X99694508Y-80600000D01*
X96223063Y-80600000D01*
X96178050Y-80511658D01*
X96088342Y-80421950D01*
X95975304Y-80364354D01*
X95850000Y-80344508D01*
X95849999Y-80344508D01*
X95724695Y-80364354D01*
X95724694Y-80364354D01*
X95611657Y-80421950D01*
X95521950Y-80511657D01*
X95464354Y-80624694D01*
X95464354Y-80624695D01*
X95444508Y-80750000D01*
X78911312Y-80750000D01*
X78866299Y-80661658D01*
X78776591Y-80571950D01*
X78663553Y-80514354D01*
X78538249Y-80494508D01*
X78412944Y-80514354D01*
X78412943Y-80514354D01*
X78299906Y-80571950D01*
X78210199Y-80661657D01*
X78152603Y-80774694D01*
X78152603Y-80774695D01*
X78132757Y-80900000D01*
X76866392Y-80900000D01*
X76838342Y-80871950D01*
X76725304Y-80814354D01*
X76600000Y-80794508D01*
X76474695Y-80814354D01*
X76474694Y-80814354D01*
X76361657Y-80871950D01*
X76271950Y-80961657D01*
X76214354Y-81074694D01*
X76214354Y-81074695D01*
X76194508Y-81200000D01*
X73869559Y-81200000D01*
X73796965Y-81054211D01*
X73793653Y-81006490D01*
X73825054Y-80970404D01*
X73872775Y-80967092D01*
X73873546Y-80967355D01*
X74011870Y-81015757D01*
X74191573Y-81036005D01*
X74371276Y-81015757D01*
X74541968Y-80956030D01*
X74695090Y-80859817D01*
X74822963Y-80731944D01*
X74919176Y-80578822D01*
X74978903Y-80408130D01*
X74991087Y-80300000D01*
X78882757Y-80300000D01*
X78902603Y-80425304D01*
X78902603Y-80425305D01*
X78944562Y-80507653D01*
X78960199Y-80538342D01*
X79049907Y-80628050D01*
X79162945Y-80685646D01*
X79288249Y-80705492D01*
X79413553Y-80685646D01*
X79526591Y-80628050D01*
X79616299Y-80538342D01*
X79673895Y-80425304D01*
X79693741Y-80300000D01*
X79673895Y-80174696D01*
X79616299Y-80061658D01*
X79526591Y-79971950D01*
X79413553Y-79914354D01*
X79288249Y-79894508D01*
X79162944Y-79914354D01*
X79162943Y-79914354D01*
X79049906Y-79971950D01*
X78960199Y-80061657D01*
X78902603Y-80174694D01*
X78902603Y-80174695D01*
X78882757Y-80300000D01*
X74991087Y-80300000D01*
X74999151Y-80228427D01*
X74978903Y-80048724D01*
X74919176Y-79878032D01*
X74917079Y-79874694D01*
X74822964Y-79724911D01*
X74695088Y-79597035D01*
X74541969Y-79500824D01*
X74371276Y-79441097D01*
X74371272Y-79441096D01*
X74191573Y-79420849D01*
X74011873Y-79441096D01*
X74011869Y-79441097D01*
X73841176Y-79500824D01*
X73688057Y-79597035D01*
X73560181Y-79724911D01*
X73463970Y-79878030D01*
X73404243Y-80048723D01*
X73404242Y-80048727D01*
X73383995Y-80228427D01*
X73404242Y-80408126D01*
X73404243Y-80408130D01*
X73453370Y-80548530D01*
X73450687Y-80596290D01*
X73415019Y-80628165D01*
X73367259Y-80625482D01*
X73361475Y-80622311D01*
X73303345Y-80586318D01*
X73100285Y-80507652D01*
X72886243Y-80467641D01*
X72668474Y-80467641D01*
X72454430Y-80507653D01*
X72256177Y-80584456D01*
X72208355Y-80583350D01*
X72175320Y-80548753D01*
X72176426Y-80500931D01*
X72182150Y-80490692D01*
X72348005Y-80250282D01*
X73002960Y-79363906D01*
X73437414Y-78814213D01*
X74798208Y-78814213D01*
X74818455Y-78993913D01*
X74818456Y-78993917D01*
X74878183Y-79164610D01*
X74974394Y-79317729D01*
X75102270Y-79445605D01*
X75190151Y-79500824D01*
X75255391Y-79541817D01*
X75426083Y-79601544D01*
X75605786Y-79621792D01*
X75785489Y-79601544D01*
X75956181Y-79541817D01*
X76109303Y-79445604D01*
X76237176Y-79317731D01*
X76333389Y-79164609D01*
X76393116Y-78993917D01*
X76413364Y-78814214D01*
X76393116Y-78634511D01*
X76333389Y-78463819D01*
X76309189Y-78425305D01*
X76237177Y-78310698D01*
X76109301Y-78182822D01*
X75956182Y-78086611D01*
X75785489Y-78026884D01*
X75785485Y-78026883D01*
X75605786Y-78006636D01*
X75426086Y-78026883D01*
X75426082Y-78026884D01*
X75255389Y-78086611D01*
X75102270Y-78182822D01*
X74974394Y-78310698D01*
X74878183Y-78463817D01*
X74818456Y-78634510D01*
X74818455Y-78634514D01*
X74798208Y-78814213D01*
X73437414Y-78814213D01*
X73686341Y-78499258D01*
X74397429Y-77657248D01*
X74629396Y-77399999D01*
X76212422Y-77399999D01*
X76232669Y-77579699D01*
X76232670Y-77579703D01*
X76292397Y-77750396D01*
X76388608Y-77903515D01*
X76516484Y-78031391D01*
X76648519Y-78114354D01*
X76669605Y-78127603D01*
X76840297Y-78187330D01*
X77020000Y-78207578D01*
X77199703Y-78187330D01*
X77328401Y-78142297D01*
X79040460Y-78142297D01*
X79060306Y-78267601D01*
X79060306Y-78267602D01*
X79082265Y-78310698D01*
X79117902Y-78380639D01*
X79207610Y-78470347D01*
X79320648Y-78527943D01*
X79445952Y-78547789D01*
X79473280Y-78543460D01*
X79519792Y-78554625D01*
X79544787Y-78595411D01*
X79544788Y-78614965D01*
X79540460Y-78642295D01*
X79540460Y-78642297D01*
X79555672Y-78738342D01*
X79560306Y-78767601D01*
X79560306Y-78767602D01*
X79609604Y-78864354D01*
X79617902Y-78880639D01*
X79707610Y-78970347D01*
X79820648Y-79027943D01*
X79945952Y-79047789D01*
X80071256Y-79027943D01*
X80128197Y-78998930D01*
X87875798Y-78998930D01*
X87895630Y-79225616D01*
X87895633Y-79225632D01*
X87954525Y-79445420D01*
X87954526Y-79445422D01*
X88050697Y-79651661D01*
X88181219Y-79838068D01*
X88342125Y-79998974D01*
X88409940Y-80046458D01*
X88528532Y-80129496D01*
X88528531Y-80129496D01*
X88625459Y-80174694D01*
X88734770Y-80225667D01*
X88734772Y-80225667D01*
X88734773Y-80225668D01*
X88954561Y-80284560D01*
X88954567Y-80284561D01*
X88954574Y-80284563D01*
X89124482Y-80299428D01*
X89238050Y-80299428D01*
X89407958Y-80284563D01*
X89407967Y-80284560D01*
X89407970Y-80284560D01*
X89627758Y-80225668D01*
X89627757Y-80225668D01*
X89627762Y-80225667D01*
X89834000Y-80129496D01*
X90018941Y-80000000D01*
X92044508Y-80000000D01*
X92064354Y-80125304D01*
X92064354Y-80125305D01*
X92099615Y-80194508D01*
X92121950Y-80238342D01*
X92211658Y-80328050D01*
X92324696Y-80385646D01*
X92450000Y-80405492D01*
X92575304Y-80385646D01*
X92688342Y-80328050D01*
X92778050Y-80238342D01*
X92835646Y-80125304D01*
X92855492Y-80000000D01*
X92835646Y-79874696D01*
X92778050Y-79761658D01*
X92688342Y-79671950D01*
X92575304Y-79614354D01*
X92450000Y-79594508D01*
X92449999Y-79594508D01*
X92324695Y-79614354D01*
X92324694Y-79614354D01*
X92211657Y-79671950D01*
X92121950Y-79761657D01*
X92064354Y-79874694D01*
X92064354Y-79874695D01*
X92044508Y-80000000D01*
X90018941Y-80000000D01*
X90020405Y-79998975D01*
X90181313Y-79838067D01*
X90311834Y-79651662D01*
X90408005Y-79445424D01*
X90457245Y-79261657D01*
X90460369Y-79250000D01*
X94244508Y-79250000D01*
X94255235Y-79317729D01*
X94264354Y-79375304D01*
X94264354Y-79375305D01*
X94287560Y-79420849D01*
X94321950Y-79488342D01*
X94411658Y-79578050D01*
X94524696Y-79635646D01*
X94650000Y-79655492D01*
X94775304Y-79635646D01*
X94888342Y-79578050D01*
X94978050Y-79488342D01*
X95035646Y-79375304D01*
X95055492Y-79250000D01*
X95035646Y-79124696D01*
X94978050Y-79011658D01*
X94888342Y-78921950D01*
X94775304Y-78864354D01*
X94650000Y-78844508D01*
X94649999Y-78844508D01*
X94524695Y-78864354D01*
X94524694Y-78864354D01*
X94411657Y-78921950D01*
X94321950Y-79011657D01*
X94264354Y-79124694D01*
X94264354Y-79124695D01*
X94264353Y-79124696D01*
X94264354Y-79124696D01*
X94244508Y-79250000D01*
X90460369Y-79250000D01*
X90466898Y-79225632D01*
X90466898Y-79225629D01*
X90466901Y-79225620D01*
X90485620Y-79011658D01*
X90486734Y-78998930D01*
X90486734Y-78998925D01*
X90471784Y-78828049D01*
X90466901Y-78772236D01*
X90465659Y-78767602D01*
X90408006Y-78552435D01*
X90408005Y-78552433D01*
X90405839Y-78547789D01*
X90311834Y-78346194D01*
X90279489Y-78300000D01*
X99694508Y-78300000D01*
X99714354Y-78425304D01*
X99714354Y-78425305D01*
X99761072Y-78516993D01*
X99771950Y-78538342D01*
X99861658Y-78628050D01*
X99974696Y-78685646D01*
X100100000Y-78705492D01*
X100225304Y-78685646D01*
X100338342Y-78628050D01*
X100428050Y-78538342D01*
X100485646Y-78425304D01*
X100505492Y-78300000D01*
X100485646Y-78174696D01*
X100428050Y-78061658D01*
X100338342Y-77971950D01*
X100225304Y-77914354D01*
X100100000Y-77894508D01*
X99974695Y-77914354D01*
X99974694Y-77914354D01*
X99861657Y-77971950D01*
X99771950Y-78061657D01*
X99714354Y-78174694D01*
X99714354Y-78174695D01*
X99694508Y-78300000D01*
X90279489Y-78300000D01*
X90269438Y-78285645D01*
X90181312Y-78159787D01*
X90020406Y-77998881D01*
X89879187Y-77900000D01*
X89834000Y-77868360D01*
X89833998Y-77868359D01*
X89834000Y-77868359D01*
X89627760Y-77772188D01*
X89627758Y-77772187D01*
X89407970Y-77713295D01*
X89407954Y-77713292D01*
X89238050Y-77698428D01*
X89124482Y-77698428D01*
X88954577Y-77713292D01*
X88954561Y-77713295D01*
X88734773Y-77772187D01*
X88734771Y-77772188D01*
X88528532Y-77868359D01*
X88342125Y-77998881D01*
X88181219Y-78159787D01*
X88050697Y-78346194D01*
X87954526Y-78552433D01*
X87954525Y-78552435D01*
X87895633Y-78772223D01*
X87895630Y-78772239D01*
X87875798Y-78998925D01*
X87875798Y-78998930D01*
X80128197Y-78998930D01*
X80184294Y-78970347D01*
X80274002Y-78880639D01*
X80331598Y-78767601D01*
X80351444Y-78642297D01*
X80331598Y-78516993D01*
X80322940Y-78500000D01*
X80782757Y-78500000D01*
X80802603Y-78625304D01*
X80802603Y-78625305D01*
X80843461Y-78705492D01*
X80860199Y-78738342D01*
X80949907Y-78828050D01*
X81062945Y-78885646D01*
X81188249Y-78905492D01*
X81313553Y-78885646D01*
X81426591Y-78828050D01*
X81516299Y-78738342D01*
X81573895Y-78625304D01*
X81593741Y-78500000D01*
X81593741Y-78499997D01*
X81593741Y-78499996D01*
X81573576Y-78372684D01*
X81584742Y-78326171D01*
X81625529Y-78301177D01*
X81645080Y-78301176D01*
X81672331Y-78305492D01*
X81797635Y-78285646D01*
X81910673Y-78228050D01*
X82000381Y-78138342D01*
X82057977Y-78025304D01*
X82077823Y-77900000D01*
X82057977Y-77774696D01*
X82000381Y-77661658D01*
X81910673Y-77571950D01*
X81797635Y-77514354D01*
X81672331Y-77494508D01*
X81672330Y-77494508D01*
X81547026Y-77514354D01*
X81547025Y-77514354D01*
X81433988Y-77571950D01*
X81344281Y-77661657D01*
X81286685Y-77774694D01*
X81286685Y-77774695D01*
X81286684Y-77774696D01*
X81286685Y-77774696D01*
X81266839Y-77900000D01*
X81285368Y-78016991D01*
X81287004Y-78027315D01*
X81275837Y-78073829D01*
X81235050Y-78098823D01*
X81215498Y-78098823D01*
X81188250Y-78094508D01*
X81188249Y-78094508D01*
X81161005Y-78098823D01*
X81062944Y-78114354D01*
X81062943Y-78114354D01*
X80949906Y-78171950D01*
X80860199Y-78261657D01*
X80802603Y-78374694D01*
X80802603Y-78374695D01*
X80782757Y-78500000D01*
X80322940Y-78500000D01*
X80274002Y-78403955D01*
X80184294Y-78314247D01*
X80071256Y-78256651D01*
X79945952Y-78236805D01*
X79945950Y-78236805D01*
X79918620Y-78241133D01*
X79872107Y-78229964D01*
X79847114Y-78189177D01*
X79847114Y-78169628D01*
X79851444Y-78142297D01*
X79831598Y-78016993D01*
X79774002Y-77903955D01*
X79684294Y-77814247D01*
X79571256Y-77756651D01*
X79445952Y-77736805D01*
X79320647Y-77756651D01*
X79320646Y-77756651D01*
X79207609Y-77814247D01*
X79117902Y-77903954D01*
X79060306Y-78016991D01*
X79060306Y-78016992D01*
X79040460Y-78142297D01*
X77328401Y-78142297D01*
X77370395Y-78127603D01*
X77523517Y-78031390D01*
X77651390Y-77903517D01*
X77747603Y-77750395D01*
X77807330Y-77579703D01*
X77827578Y-77400000D01*
X77810677Y-77249999D01*
X92744508Y-77249999D01*
X92764354Y-77375304D01*
X92764354Y-77375305D01*
X92776937Y-77400000D01*
X92821950Y-77488342D01*
X92911658Y-77578050D01*
X93024696Y-77635646D01*
X93150000Y-77655492D01*
X93275304Y-77635646D01*
X93388342Y-77578050D01*
X93478050Y-77488342D01*
X93535646Y-77375304D01*
X93555492Y-77250000D01*
X93535646Y-77124696D01*
X93478050Y-77011658D01*
X93388342Y-76921950D01*
X93275304Y-76864354D01*
X93150000Y-76844508D01*
X93024695Y-76864354D01*
X93024694Y-76864354D01*
X92911657Y-76921950D01*
X92821950Y-77011657D01*
X92764354Y-77124694D01*
X92764354Y-77124695D01*
X92744508Y-77249999D01*
X77810677Y-77249999D01*
X77807330Y-77220297D01*
X77747603Y-77049605D01*
X77747602Y-77049603D01*
X77651391Y-76896484D01*
X77523515Y-76768608D01*
X77370396Y-76672397D01*
X77199703Y-76612670D01*
X77199699Y-76612669D01*
X77020000Y-76592422D01*
X76840300Y-76612669D01*
X76840296Y-76612670D01*
X76669603Y-76672397D01*
X76516484Y-76768608D01*
X76388608Y-76896484D01*
X76292397Y-77049603D01*
X76232670Y-77220296D01*
X76232669Y-77220300D01*
X76212422Y-77399999D01*
X74629396Y-77399999D01*
X75135474Y-76838763D01*
X75899699Y-76044668D01*
X75960167Y-75985787D01*
X77626635Y-75985787D01*
X77646882Y-76165486D01*
X77646883Y-76165490D01*
X77706610Y-76336183D01*
X77802821Y-76489302D01*
X77930697Y-76617178D01*
X78083816Y-76713389D01*
X78083818Y-76713390D01*
X78254510Y-76773117D01*
X78434213Y-76793365D01*
X78613916Y-76773117D01*
X78784608Y-76713390D01*
X78937730Y-76617177D01*
X79065603Y-76489304D01*
X79161816Y-76336182D01*
X79221543Y-76165490D01*
X79241791Y-75985787D01*
X79221543Y-75806084D01*
X79161816Y-75635392D01*
X79155414Y-75625203D01*
X79065604Y-75482271D01*
X78937728Y-75354395D01*
X78784609Y-75258184D01*
X78613916Y-75198457D01*
X78613912Y-75198456D01*
X78434213Y-75178209D01*
X78254513Y-75198456D01*
X78254509Y-75198457D01*
X78083816Y-75258184D01*
X77930697Y-75354395D01*
X77802821Y-75482271D01*
X77706610Y-75635390D01*
X77646883Y-75806083D01*
X77646882Y-75806087D01*
X77626635Y-75985787D01*
X75960167Y-75985787D01*
X76689297Y-75275797D01*
X77503437Y-74532962D01*
X78341261Y-73816946D01*
X79201885Y-73128504D01*
X79628380Y-72809474D01*
X79674733Y-72797661D01*
X79715863Y-72822085D01*
X79716795Y-72823366D01*
X80122247Y-73395387D01*
X80462003Y-73874723D01*
X80472625Y-73921364D01*
X80447155Y-73961855D01*
X80400514Y-73972477D01*
X80366819Y-73955059D01*
X79929702Y-73517942D01*
X79898175Y-73496877D01*
X79898173Y-73496876D01*
X79848427Y-73486982D01*
X79798680Y-73496876D01*
X79798678Y-73496877D01*
X79767151Y-73517942D01*
X78794796Y-74490297D01*
X78773731Y-74521824D01*
X78773730Y-74521826D01*
X78763836Y-74571572D01*
X78763836Y-74571573D01*
X78773730Y-74621319D01*
X78773731Y-74621321D01*
X78794797Y-74652849D01*
X79767151Y-75625203D01*
X79798679Y-75646269D01*
X79823553Y-75651216D01*
X79848426Y-75656164D01*
X79848426Y-75656163D01*
X79848427Y-75656164D01*
X79898175Y-75646269D01*
X79929703Y-75625203D01*
X80902057Y-74652849D01*
X80905706Y-74647386D01*
X80945477Y-74620810D01*
X80992394Y-74630139D01*
X81008664Y-74645966D01*
X81184058Y-74893416D01*
X81190212Y-74904243D01*
X81194065Y-74912941D01*
X81225065Y-74951373D01*
X81226237Y-74952923D01*
X81237367Y-74968625D01*
X81237367Y-74968626D01*
X81237369Y-74968629D01*
X81237372Y-74968632D01*
X81247266Y-74979054D01*
X81248909Y-74980932D01*
X81355874Y-75113544D01*
X81355886Y-75113558D01*
X81624882Y-75387149D01*
X81919406Y-75633062D01*
X82236616Y-75848924D01*
X82299035Y-75882970D01*
X82573463Y-76032657D01*
X82926692Y-76182486D01*
X83162172Y-76256101D01*
X83292905Y-76296971D01*
X83370357Y-76313060D01*
X83668578Y-76375010D01*
X84050090Y-76415851D01*
X84433768Y-76419100D01*
X84815917Y-76384727D01*
X84998572Y-76350000D01*
X93394508Y-76350000D01*
X93414354Y-76475304D01*
X93414354Y-76475305D01*
X93421486Y-76489302D01*
X93471950Y-76588342D01*
X93561658Y-76678050D01*
X93674696Y-76735646D01*
X93800000Y-76755492D01*
X93925304Y-76735646D01*
X94038342Y-76678050D01*
X94128050Y-76588342D01*
X94185646Y-76475304D01*
X94205492Y-76350000D01*
X94185646Y-76224696D01*
X94128050Y-76111658D01*
X94038342Y-76021950D01*
X93925304Y-75964354D01*
X93800000Y-75944508D01*
X93799999Y-75944508D01*
X93674695Y-75964354D01*
X93674694Y-75964354D01*
X93561657Y-76021950D01*
X93471950Y-76111657D01*
X93414354Y-76224694D01*
X93414354Y-76224695D01*
X93394508Y-76350000D01*
X84998572Y-76350000D01*
X85192857Y-76313062D01*
X85560958Y-76204795D01*
X85916674Y-76060970D01*
X86256580Y-75882971D01*
X86577402Y-75672512D01*
X86667295Y-75600004D01*
X95867467Y-75600004D01*
X95887564Y-75855377D01*
X95887565Y-75855381D01*
X95936923Y-76060972D01*
X95947369Y-76104480D01*
X96045402Y-76341154D01*
X96127609Y-76475304D01*
X96179251Y-76559576D01*
X96179255Y-76559582D01*
X96345621Y-76754372D01*
X96345627Y-76754378D01*
X96540417Y-76920744D01*
X96540421Y-76920747D01*
X96758846Y-77054598D01*
X96995520Y-77152631D01*
X97244616Y-77212434D01*
X97244618Y-77212434D01*
X97244622Y-77212435D01*
X97499996Y-77232533D01*
X97500000Y-77232533D01*
X97500004Y-77232533D01*
X97755377Y-77212435D01*
X97755379Y-77212434D01*
X97755384Y-77212434D01*
X98004480Y-77152631D01*
X98241154Y-77054598D01*
X98459579Y-76920747D01*
X98632431Y-76773117D01*
X98654372Y-76754378D01*
X98654378Y-76754372D01*
X98737561Y-76656977D01*
X98820747Y-76559579D01*
X98954598Y-76341154D01*
X99052631Y-76104480D01*
X99112434Y-75855384D01*
X99112943Y-75848926D01*
X99132533Y-75600004D01*
X100867467Y-75600004D01*
X100887564Y-75855377D01*
X100887565Y-75855381D01*
X100936923Y-76060972D01*
X100947369Y-76104480D01*
X101045402Y-76341154D01*
X101127609Y-76475304D01*
X101179251Y-76559576D01*
X101179255Y-76559582D01*
X101345621Y-76754372D01*
X101345627Y-76754378D01*
X101540417Y-76920744D01*
X101540421Y-76920747D01*
X101758846Y-77054598D01*
X101995520Y-77152631D01*
X102244616Y-77212434D01*
X102244618Y-77212434D01*
X102244622Y-77212435D01*
X102499996Y-77232533D01*
X102500000Y-77232533D01*
X102500004Y-77232533D01*
X102755377Y-77212435D01*
X102755379Y-77212434D01*
X102755384Y-77212434D01*
X103004480Y-77152631D01*
X103241154Y-77054598D01*
X103459579Y-76920747D01*
X103632431Y-76773117D01*
X103654372Y-76754378D01*
X103654378Y-76754372D01*
X103737561Y-76656976D01*
X103820747Y-76559579D01*
X103954598Y-76341154D01*
X104052631Y-76104480D01*
X104112434Y-75855384D01*
X104112943Y-75848926D01*
X104132533Y-75600004D01*
X104132533Y-75599995D01*
X104112435Y-75344622D01*
X104112434Y-75344618D01*
X104095911Y-75275797D01*
X104052631Y-75095520D01*
X103954598Y-74858846D01*
X103820747Y-74640421D01*
X103820744Y-74640417D01*
X103654378Y-74445627D01*
X103654372Y-74445621D01*
X103459582Y-74279255D01*
X103459576Y-74279251D01*
X103353146Y-74214031D01*
X103241154Y-74145402D01*
X103004480Y-74047369D01*
X103004474Y-74047367D01*
X103004473Y-74047367D01*
X102755381Y-73987565D01*
X102755377Y-73987564D01*
X102500004Y-73967467D01*
X102499996Y-73967467D01*
X102244622Y-73987564D01*
X102244618Y-73987565D01*
X101995526Y-74047367D01*
X101995522Y-74047368D01*
X101995520Y-74047369D01*
X101758846Y-74145402D01*
X101758844Y-74145403D01*
X101540423Y-74279251D01*
X101540417Y-74279255D01*
X101345627Y-74445621D01*
X101345621Y-74445627D01*
X101179255Y-74640417D01*
X101179251Y-74640423D01*
X101085719Y-74793054D01*
X101045402Y-74858846D01*
X100995619Y-74979035D01*
X100947367Y-75095526D01*
X100887565Y-75344618D01*
X100887564Y-75344622D01*
X100867467Y-75599995D01*
X100867467Y-75600004D01*
X99132533Y-75600004D01*
X99132533Y-75599995D01*
X99112435Y-75344622D01*
X99112434Y-75344618D01*
X99095911Y-75275797D01*
X99052631Y-75095520D01*
X98954598Y-74858846D01*
X98820747Y-74640421D01*
X98820744Y-74640417D01*
X98654378Y-74445627D01*
X98654372Y-74445621D01*
X98459582Y-74279255D01*
X98459576Y-74279251D01*
X98353146Y-74214031D01*
X98241154Y-74145402D01*
X98004480Y-74047369D01*
X98004474Y-74047367D01*
X98004473Y-74047367D01*
X97755381Y-73987565D01*
X97755377Y-73987564D01*
X97500004Y-73967467D01*
X97499996Y-73967467D01*
X97244622Y-73987564D01*
X97244618Y-73987565D01*
X96995526Y-74047367D01*
X96995522Y-74047368D01*
X96995520Y-74047369D01*
X96758846Y-74145402D01*
X96758844Y-74145403D01*
X96540423Y-74279251D01*
X96540417Y-74279255D01*
X96345627Y-74445621D01*
X96345621Y-74445627D01*
X96179255Y-74640417D01*
X96179251Y-74640423D01*
X96085719Y-74793054D01*
X96045402Y-74858846D01*
X95995619Y-74979035D01*
X95947367Y-75095526D01*
X95887565Y-75344618D01*
X95887564Y-75344622D01*
X95867467Y-75599995D01*
X95867467Y-75600004D01*
X86667295Y-75600004D01*
X86876050Y-75431621D01*
X87149650Y-75162617D01*
X87395564Y-74868091D01*
X87611426Y-74550880D01*
X87795157Y-74214037D01*
X87944986Y-73860808D01*
X88059471Y-73494594D01*
X88137510Y-73118922D01*
X88178351Y-72737410D01*
X88181600Y-72353732D01*
X88147227Y-71971583D01*
X88143124Y-71950000D01*
X92394508Y-71950000D01*
X92414354Y-72075304D01*
X92414354Y-72075305D01*
X92463273Y-72171313D01*
X92471950Y-72188342D01*
X92561658Y-72278050D01*
X92674696Y-72335646D01*
X92800000Y-72355492D01*
X92925304Y-72335646D01*
X93038342Y-72278050D01*
X93128050Y-72188342D01*
X93185646Y-72075304D01*
X93205492Y-71950000D01*
X93185646Y-71824696D01*
X93128050Y-71711658D01*
X93038342Y-71621950D01*
X92925304Y-71564354D01*
X92800000Y-71544508D01*
X92799999Y-71544508D01*
X92674695Y-71564354D01*
X92674694Y-71564354D01*
X92561657Y-71621950D01*
X92471950Y-71711657D01*
X92414354Y-71824694D01*
X92414354Y-71824695D01*
X92394508Y-71950000D01*
X88143124Y-71950000D01*
X88079759Y-71616717D01*
X88075565Y-71594658D01*
X88075560Y-71594636D01*
X87967298Y-71226553D01*
X87967295Y-71226542D01*
X87823470Y-70870826D01*
X87645471Y-70530920D01*
X87435012Y-70210098D01*
X87317220Y-70064064D01*
X86439574Y-68938028D01*
X86426845Y-68891919D01*
X86450449Y-68850313D01*
X86463746Y-68842380D01*
X86865709Y-68665943D01*
X87937645Y-68238243D01*
X88599193Y-68000004D01*
X98367467Y-68000004D01*
X98387564Y-68255377D01*
X98387565Y-68255381D01*
X98405917Y-68331824D01*
X98447369Y-68504480D01*
X98545402Y-68741154D01*
X98545403Y-68741155D01*
X98679251Y-68959576D01*
X98679255Y-68959582D01*
X98845621Y-69154372D01*
X98845627Y-69154378D01*
X99040417Y-69320744D01*
X99040421Y-69320747D01*
X99258846Y-69454598D01*
X99495520Y-69552631D01*
X99744616Y-69612434D01*
X99744618Y-69612434D01*
X99744622Y-69612435D01*
X99999996Y-69632533D01*
X100000000Y-69632533D01*
X100000004Y-69632533D01*
X100255377Y-69612435D01*
X100255379Y-69612434D01*
X100255384Y-69612434D01*
X100504480Y-69552631D01*
X100740208Y-69454990D01*
X109669844Y-69454990D01*
X109679577Y-69634494D01*
X109679577Y-69634498D01*
X109679578Y-69634501D01*
X109711641Y-69749982D01*
X109727673Y-69807724D01*
X109727675Y-69807728D01*
X109811880Y-69966555D01*
X109811881Y-69966556D01*
X109928265Y-70103574D01*
X110004926Y-70161850D01*
X110071380Y-70212368D01*
X110071381Y-70212368D01*
X110071382Y-70212369D01*
X110234541Y-70287854D01*
X110410113Y-70326500D01*
X110410116Y-70326500D01*
X110544812Y-70326500D01*
X110544816Y-70326500D01*
X110678721Y-70311937D01*
X110849085Y-70254535D01*
X111003126Y-70161851D01*
X111133642Y-70038220D01*
X111234529Y-69889423D01*
X111301070Y-69722416D01*
X111330155Y-69545010D01*
X111320422Y-69365499D01*
X111272327Y-69192277D01*
X111188119Y-69033444D01*
X111071735Y-68896426D01*
X110995073Y-68838149D01*
X110928619Y-68787631D01*
X110837477Y-68745465D01*
X110765459Y-68712146D01*
X110765460Y-68712146D01*
X110683624Y-68694133D01*
X110589887Y-68673500D01*
X110455184Y-68673500D01*
X110455183Y-68673500D01*
X110321278Y-68688063D01*
X110321272Y-68688064D01*
X110150913Y-68745465D01*
X109996874Y-68838149D01*
X109996873Y-68838149D01*
X109866357Y-68961781D01*
X109765469Y-69110580D01*
X109698931Y-69277580D01*
X109698930Y-69277582D01*
X109698930Y-69277584D01*
X109684517Y-69365499D01*
X109669845Y-69454990D01*
X109669844Y-69454990D01*
X100740208Y-69454990D01*
X100741154Y-69454598D01*
X100959579Y-69320747D01*
X101110005Y-69192271D01*
X101154372Y-69154378D01*
X101154378Y-69154372D01*
X101320744Y-68959582D01*
X101320747Y-68959579D01*
X101454598Y-68741154D01*
X101552631Y-68504480D01*
X101612434Y-68255384D01*
X101613040Y-68247694D01*
X101632533Y-68000004D01*
X101632533Y-67999995D01*
X101612435Y-67744622D01*
X101612434Y-67744618D01*
X101606585Y-67720257D01*
X101552631Y-67495520D01*
X101454598Y-67258846D01*
X101320747Y-67040421D01*
X101320744Y-67040417D01*
X101154378Y-66845627D01*
X101154372Y-66845621D01*
X100959582Y-66679255D01*
X100959576Y-66679251D01*
X100803639Y-66583693D01*
X100741154Y-66545402D01*
X100504480Y-66447369D01*
X100504474Y-66447367D01*
X100504473Y-66447367D01*
X100255381Y-66387565D01*
X100255377Y-66387564D01*
X100000004Y-66367467D01*
X99999996Y-66367467D01*
X99744622Y-66387564D01*
X99744618Y-66387565D01*
X99495526Y-66447367D01*
X99495522Y-66447368D01*
X99495520Y-66447369D01*
X99258846Y-66545402D01*
X99258844Y-66545403D01*
X99040423Y-66679251D01*
X99040417Y-66679255D01*
X98845627Y-66845621D01*
X98845621Y-66845627D01*
X98679255Y-67040417D01*
X98679251Y-67040423D01*
X98545403Y-67258844D01*
X98447367Y-67495526D01*
X98387565Y-67744618D01*
X98387564Y-67744622D01*
X98367467Y-67999995D01*
X98367467Y-68000004D01*
X88599193Y-68000004D01*
X89023492Y-67847204D01*
X90121996Y-67493278D01*
X91231889Y-67176873D01*
X92351890Y-66898355D01*
X93480706Y-66658046D01*
X94617034Y-66456222D01*
X95759562Y-66293116D01*
X96906972Y-66168917D01*
X98057939Y-66083768D01*
X99211134Y-66037768D01*
X100365226Y-66030970D01*
X101518882Y-66063381D01*
G37*
%TD.AperFunction*%
%TD*%
%TA.AperFunction,Conductor*%
%TO.N,GND1*%
G36*
X85607192Y-112907192D02*
G01*
X87003595Y-114303595D01*
X88399997Y-115699998D01*
X88399998Y-115699999D01*
X88399999Y-115699999D01*
X88400000Y-115700000D01*
X93600000Y-118300000D01*
X98800000Y-119600000D01*
X104000000Y-119600000D01*
X107941897Y-117530503D01*
X107989533Y-117526169D01*
X108026284Y-117556789D01*
X108027635Y-117559522D01*
X108198357Y-117927231D01*
X108200364Y-117975024D01*
X108185864Y-117997744D01*
X108121949Y-118061659D01*
X108064354Y-118174694D01*
X108064354Y-118174695D01*
X108044508Y-118300000D01*
X108064354Y-118425304D01*
X108064354Y-118425305D01*
X108121949Y-118538342D01*
X108121950Y-118538342D01*
X108211658Y-118628050D01*
X108324696Y-118685646D01*
X108450000Y-118705492D01*
X108505581Y-118696688D01*
X108552092Y-118707854D01*
X108572045Y-118732099D01*
X109403235Y-120522353D01*
X109405242Y-120570146D01*
X109390741Y-120592866D01*
X109321950Y-120661657D01*
X109264354Y-120774694D01*
X109264354Y-120774695D01*
X109244508Y-120899999D01*
X109264354Y-121025304D01*
X109264354Y-121025305D01*
X109321949Y-121138342D01*
X109321950Y-121138342D01*
X109411658Y-121228050D01*
X109524696Y-121285646D01*
X109650000Y-121305492D01*
X109712235Y-121295634D01*
X109758746Y-121306800D01*
X109778699Y-121331045D01*
X114179304Y-130809274D01*
X114181311Y-130857067D01*
X114149057Y-130892225D01*
X113842845Y-131035193D01*
X112781645Y-131487455D01*
X111705710Y-131903446D01*
X110616278Y-132282688D01*
X109514604Y-132624742D01*
X108401957Y-132929216D01*
X107279620Y-133195758D01*
X106148884Y-133424062D01*
X105011052Y-133613864D01*
X103867435Y-133764946D01*
X102719350Y-133877134D01*
X101568118Y-133950298D01*
X100779857Y-133973580D01*
X100735142Y-133956587D01*
X100715539Y-133912952D01*
X100732532Y-133868237D01*
X100756171Y-133852547D01*
X100832958Y-133823907D01*
X101084041Y-133686805D01*
X101226561Y-133580115D01*
X100492296Y-132845849D01*
X100473990Y-132801655D01*
X100492296Y-132757461D01*
X100505235Y-132747532D01*
X100531920Y-132732126D01*
X100672514Y-132605534D01*
X100750095Y-132498753D01*
X100790880Y-132473761D01*
X100837394Y-132484928D01*
X100844851Y-132491298D01*
X101580115Y-133226561D01*
X101686805Y-133084041D01*
X101823909Y-132832955D01*
X101823910Y-132832952D01*
X101923887Y-132564904D01*
X101984699Y-132285355D01*
X101984700Y-132285349D01*
X102005108Y-132000000D01*
X101984700Y-131714650D01*
X101984699Y-131714644D01*
X101923887Y-131435095D01*
X101823910Y-131167047D01*
X101823909Y-131167044D01*
X101686805Y-130915958D01*
X101580116Y-130773436D01*
X100844850Y-131508701D01*
X100800656Y-131527007D01*
X100756462Y-131508701D01*
X100750098Y-131501251D01*
X100672514Y-131394466D01*
X100672510Y-131394462D01*
X100531922Y-131267875D01*
X100531913Y-131267869D01*
X100505240Y-131252469D01*
X100476119Y-131214519D01*
X100482364Y-131167093D01*
X100492296Y-131154149D01*
X101226562Y-130419882D01*
X101084049Y-130313199D01*
X101084043Y-130313194D01*
X100832955Y-130176090D01*
X100832952Y-130176089D01*
X100564904Y-130076112D01*
X100285355Y-130015300D01*
X100285349Y-130015299D01*
X100000000Y-129994891D01*
X99714650Y-130015299D01*
X99714644Y-130015300D01*
X99435095Y-130076112D01*
X99167047Y-130176089D01*
X99167044Y-130176090D01*
X98915956Y-130313194D01*
X98915950Y-130313199D01*
X98773437Y-130419883D01*
X99507702Y-131154149D01*
X99526008Y-131198343D01*
X99507702Y-131242537D01*
X99494760Y-131252468D01*
X99468085Y-131267869D01*
X99468077Y-131267875D01*
X99327486Y-131394464D01*
X99327485Y-131394465D01*
X99249905Y-131501244D01*
X99209118Y-131526238D01*
X99162605Y-131515070D01*
X99155148Y-131508701D01*
X98419883Y-130773437D01*
X98313199Y-130915950D01*
X98313194Y-130915956D01*
X98176090Y-131167044D01*
X98176089Y-131167047D01*
X98076112Y-131435095D01*
X98015300Y-131714644D01*
X98015299Y-131714650D01*
X97994891Y-132000000D01*
X98015299Y-132285349D01*
X98015300Y-132285355D01*
X98076112Y-132564904D01*
X98176089Y-132832952D01*
X98176090Y-132832955D01*
X98313194Y-133084043D01*
X98313199Y-133084049D01*
X98419882Y-133226562D01*
X99155148Y-132491297D01*
X99199342Y-132472991D01*
X99243536Y-132491297D01*
X99249905Y-132498754D01*
X99327485Y-132605534D01*
X99327486Y-132605535D01*
X99468076Y-132732123D01*
X99468077Y-132732124D01*
X99468080Y-132732126D01*
X99494758Y-132747528D01*
X99523878Y-132785479D01*
X99517635Y-132832905D01*
X99507702Y-132845849D01*
X98773436Y-133580116D01*
X98915958Y-133686805D01*
X99167044Y-133823909D01*
X99167047Y-133823910D01*
X99256063Y-133857112D01*
X99291073Y-133889708D01*
X99292780Y-133937513D01*
X99260184Y-133972523D01*
X99231825Y-133978125D01*
X98108820Y-133935034D01*
X96958279Y-133851713D01*
X95811228Y-133729398D01*
X94668989Y-133568230D01*
X93532876Y-133368394D01*
X92404199Y-133130121D01*
X91284257Y-132853685D01*
X90174341Y-132539404D01*
X89075729Y-132187641D01*
X87989686Y-131798801D01*
X86917463Y-131373331D01*
X86776858Y-131311936D01*
X86266283Y-131088994D01*
X86233108Y-131054534D01*
X86234016Y-131006707D01*
X86261826Y-130976600D01*
X86378803Y-130914061D01*
X86704309Y-130696475D01*
X86998390Y-130454990D01*
X88169844Y-130454990D01*
X88179577Y-130634494D01*
X88179577Y-130634498D01*
X88179578Y-130634501D01*
X88209045Y-130740631D01*
X88227673Y-130807724D01*
X88227675Y-130807728D01*
X88311881Y-130966555D01*
X88311881Y-130966556D01*
X88428265Y-131103574D01*
X88494795Y-131154149D01*
X88571380Y-131212368D01*
X88571381Y-131212368D01*
X88571382Y-131212369D01*
X88734541Y-131287854D01*
X88910113Y-131326500D01*
X88910116Y-131326500D01*
X89044812Y-131326500D01*
X89044816Y-131326500D01*
X89178721Y-131311937D01*
X89349085Y-131254535D01*
X89503126Y-131161851D01*
X89633642Y-131038220D01*
X89734529Y-130889423D01*
X89801070Y-130722416D01*
X89830155Y-130545010D01*
X89828163Y-130508279D01*
X89823371Y-130419883D01*
X89820422Y-130365499D01*
X89772327Y-130192277D01*
X89761070Y-130171045D01*
X89688118Y-130033443D01*
X89672707Y-130015300D01*
X89571735Y-129896426D01*
X89495073Y-129838149D01*
X89428619Y-129787631D01*
X89337477Y-129745465D01*
X89265459Y-129712146D01*
X89265460Y-129712146D01*
X89221565Y-129702484D01*
X89089887Y-129673500D01*
X88955184Y-129673500D01*
X88955183Y-129673500D01*
X88821278Y-129688063D01*
X88821272Y-129688064D01*
X88650913Y-129745465D01*
X88496874Y-129838149D01*
X88496873Y-129838149D01*
X88366357Y-129961781D01*
X88265469Y-130110580D01*
X88198931Y-130277580D01*
X88198930Y-130277582D01*
X88198930Y-130277584D01*
X88193092Y-130313194D01*
X88169845Y-130454990D01*
X88169844Y-130454990D01*
X86998390Y-130454990D01*
X87006898Y-130448004D01*
X87283650Y-130171045D01*
X87531896Y-129868271D01*
X87749239Y-129542603D01*
X87933582Y-129197182D01*
X88083148Y-128835343D01*
X88196493Y-128460575D01*
X88272523Y-128076495D01*
X88310506Y-127686809D01*
X88310073Y-127295277D01*
X88271230Y-126905675D01*
X88194352Y-126521764D01*
X88080179Y-126147248D01*
X87929814Y-125785740D01*
X87744708Y-125440727D01*
X87744706Y-125440724D01*
X87744704Y-125440719D01*
X87526652Y-125115549D01*
X87526646Y-125115540D01*
X87277733Y-124813315D01*
X87000370Y-124536968D01*
X86832815Y-124399999D01*
X95494891Y-124399999D01*
X95515299Y-124685349D01*
X95515300Y-124685355D01*
X95576112Y-124964904D01*
X95676089Y-125232952D01*
X95676090Y-125232955D01*
X95813194Y-125484043D01*
X95813199Y-125484049D01*
X95919882Y-125626562D01*
X96655148Y-124891297D01*
X96699342Y-124872991D01*
X96743536Y-124891297D01*
X96749905Y-124898754D01*
X96827485Y-125005534D01*
X96827486Y-125005535D01*
X96968076Y-125132123D01*
X96968077Y-125132124D01*
X96968080Y-125132126D01*
X96994758Y-125147528D01*
X97023878Y-125185479D01*
X97017635Y-125232905D01*
X97007702Y-125245849D01*
X96273436Y-125980116D01*
X96415958Y-126086805D01*
X96667044Y-126223909D01*
X96667047Y-126223910D01*
X96935095Y-126323887D01*
X97214644Y-126384699D01*
X97214650Y-126384700D01*
X97499999Y-126405108D01*
X97785349Y-126384700D01*
X97785355Y-126384699D01*
X98064904Y-126323887D01*
X98332952Y-126223910D01*
X98332955Y-126223909D01*
X98584041Y-126086805D01*
X98726561Y-125980115D01*
X97992296Y-125245849D01*
X97973990Y-125201655D01*
X97992296Y-125157461D01*
X98005235Y-125147532D01*
X98031920Y-125132126D01*
X98172514Y-125005534D01*
X98250095Y-124898753D01*
X98290880Y-124873761D01*
X98337394Y-124884928D01*
X98344851Y-124891298D01*
X99080115Y-125626561D01*
X99186805Y-125484041D01*
X99323909Y-125232955D01*
X99323910Y-125232952D01*
X99423887Y-124964904D01*
X99484699Y-124685355D01*
X99484700Y-124685349D01*
X99505108Y-124400000D01*
X100494891Y-124400000D01*
X100515299Y-124685349D01*
X100515300Y-124685355D01*
X100576112Y-124964904D01*
X100676089Y-125232952D01*
X100676090Y-125232955D01*
X100813194Y-125484043D01*
X100813199Y-125484049D01*
X100919882Y-125626562D01*
X101655148Y-124891297D01*
X101699342Y-124872991D01*
X101743536Y-124891297D01*
X101749905Y-124898754D01*
X101827485Y-125005534D01*
X101827486Y-125005535D01*
X101968076Y-125132123D01*
X101968077Y-125132124D01*
X101968080Y-125132126D01*
X101994758Y-125147528D01*
X102023878Y-125185479D01*
X102017635Y-125232905D01*
X102007702Y-125245849D01*
X101273436Y-125980116D01*
X101415958Y-126086805D01*
X101667044Y-126223909D01*
X101667047Y-126223910D01*
X101935095Y-126323887D01*
X102214644Y-126384699D01*
X102214650Y-126384700D01*
X102500000Y-126405108D01*
X102785349Y-126384700D01*
X102785355Y-126384699D01*
X103064904Y-126323887D01*
X103332952Y-126223910D01*
X103332955Y-126223909D01*
X103584041Y-126086805D01*
X103726561Y-125980115D01*
X102992296Y-125245849D01*
X102973990Y-125201655D01*
X102992296Y-125157461D01*
X103005235Y-125147532D01*
X103031920Y-125132126D01*
X103172514Y-125005534D01*
X103250095Y-124898753D01*
X103290880Y-124873761D01*
X103337394Y-124884928D01*
X103344851Y-124891298D01*
X104080115Y-125626561D01*
X104186805Y-125484041D01*
X104323909Y-125232955D01*
X104323910Y-125232952D01*
X104423887Y-124964904D01*
X104484699Y-124685355D01*
X104484700Y-124685349D01*
X104505108Y-124400000D01*
X104484700Y-124114650D01*
X104484699Y-124114644D01*
X104423887Y-123835095D01*
X104336201Y-123600000D01*
X105144508Y-123600000D01*
X105164354Y-123725304D01*
X105164354Y-123725305D01*
X105171549Y-123739425D01*
X105221950Y-123838342D01*
X105311658Y-123928050D01*
X105424696Y-123985646D01*
X105550000Y-124005492D01*
X105675304Y-123985646D01*
X105788342Y-123928050D01*
X105878050Y-123838342D01*
X105935646Y-123725304D01*
X105955492Y-123600000D01*
X105935646Y-123474696D01*
X105878050Y-123361658D01*
X105788342Y-123271950D01*
X105675304Y-123214354D01*
X105550000Y-123194508D01*
X105549999Y-123194508D01*
X105424695Y-123214354D01*
X105424694Y-123214354D01*
X105311657Y-123271950D01*
X105221950Y-123361657D01*
X105164354Y-123474694D01*
X105164354Y-123474695D01*
X105144508Y-123600000D01*
X104336201Y-123600000D01*
X104323910Y-123567047D01*
X104323909Y-123567044D01*
X104186805Y-123315958D01*
X104080116Y-123173436D01*
X103344850Y-123908701D01*
X103300656Y-123927007D01*
X103256462Y-123908701D01*
X103250098Y-123901251D01*
X103172514Y-123794466D01*
X103172510Y-123794462D01*
X103031922Y-123667875D01*
X103031913Y-123667869D01*
X103005240Y-123652469D01*
X102976119Y-123614519D01*
X102982364Y-123567093D01*
X102992296Y-123554149D01*
X103726562Y-122819882D01*
X103584049Y-122713199D01*
X103584043Y-122713194D01*
X103332955Y-122576090D01*
X103332952Y-122576089D01*
X103064904Y-122476112D01*
X102785355Y-122415300D01*
X102785349Y-122415299D01*
X102500000Y-122394891D01*
X102214650Y-122415299D01*
X102214644Y-122415300D01*
X101935095Y-122476112D01*
X101667047Y-122576089D01*
X101667044Y-122576090D01*
X101415956Y-122713194D01*
X101415950Y-122713199D01*
X101273437Y-122819883D01*
X102007702Y-123554149D01*
X102026008Y-123598343D01*
X102007702Y-123642537D01*
X101994760Y-123652468D01*
X101968085Y-123667869D01*
X101968077Y-123667875D01*
X101827486Y-123794464D01*
X101827485Y-123794465D01*
X101749905Y-123901244D01*
X101709118Y-123926238D01*
X101662605Y-123915070D01*
X101655148Y-123908701D01*
X100919883Y-123173437D01*
X100813199Y-123315950D01*
X100813194Y-123315956D01*
X100676090Y-123567044D01*
X100676089Y-123567047D01*
X100576112Y-123835095D01*
X100515300Y-124114644D01*
X100515299Y-124114650D01*
X100494891Y-124400000D01*
X99505108Y-124400000D01*
X99484700Y-124114650D01*
X99484699Y-124114644D01*
X99423887Y-123835095D01*
X99323910Y-123567047D01*
X99323909Y-123567044D01*
X99186805Y-123315958D01*
X99080116Y-123173436D01*
X98344850Y-123908701D01*
X98300656Y-123927007D01*
X98256462Y-123908701D01*
X98250098Y-123901251D01*
X98172514Y-123794466D01*
X98172510Y-123794462D01*
X98031922Y-123667875D01*
X98031913Y-123667869D01*
X98005240Y-123652469D01*
X97976119Y-123614519D01*
X97982364Y-123567093D01*
X97992296Y-123554149D01*
X98726562Y-122819882D01*
X98584049Y-122713199D01*
X98584043Y-122713194D01*
X98332955Y-122576090D01*
X98332952Y-122576089D01*
X98064904Y-122476112D01*
X97785355Y-122415300D01*
X97785349Y-122415299D01*
X97499999Y-122394891D01*
X97214650Y-122415299D01*
X97214644Y-122415300D01*
X96935095Y-122476112D01*
X96667047Y-122576089D01*
X96667044Y-122576090D01*
X96415956Y-122713194D01*
X96415950Y-122713199D01*
X96273437Y-122819883D01*
X97007702Y-123554149D01*
X97026008Y-123598343D01*
X97007702Y-123642537D01*
X96994760Y-123652468D01*
X96968085Y-123667869D01*
X96968077Y-123667875D01*
X96827486Y-123794464D01*
X96827485Y-123794465D01*
X96749905Y-123901244D01*
X96709118Y-123926238D01*
X96662605Y-123915070D01*
X96655148Y-123908701D01*
X95919883Y-123173437D01*
X95813199Y-123315950D01*
X95813194Y-123315956D01*
X95676090Y-123567044D01*
X95676089Y-123567047D01*
X95576112Y-123835095D01*
X95515300Y-124114644D01*
X95515299Y-124114650D01*
X95494891Y-124399999D01*
X86832815Y-124399999D01*
X86697232Y-124289166D01*
X86371246Y-124072300D01*
X86371243Y-124072298D01*
X86025559Y-123888463D01*
X86025560Y-123888463D01*
X85663497Y-123739424D01*
X85663494Y-123739423D01*
X85544994Y-123703773D01*
X85507948Y-123673511D01*
X85500500Y-123643923D01*
X85500500Y-122100000D01*
X107094508Y-122100000D01*
X107114354Y-122225304D01*
X107114354Y-122225305D01*
X107171949Y-122338342D01*
X107171950Y-122338342D01*
X107261658Y-122428050D01*
X107374696Y-122485646D01*
X107500000Y-122505492D01*
X107625304Y-122485646D01*
X107738342Y-122428050D01*
X107828050Y-122338342D01*
X107885646Y-122225304D01*
X107905492Y-122100000D01*
X107885646Y-121974696D01*
X107828050Y-121861658D01*
X107738342Y-121771950D01*
X107625304Y-121714354D01*
X107500000Y-121694508D01*
X107499999Y-121694508D01*
X107374695Y-121714354D01*
X107374694Y-121714354D01*
X107261657Y-121771950D01*
X107171950Y-121861657D01*
X107114354Y-121974694D01*
X107114354Y-121974695D01*
X107094508Y-122100000D01*
X85500500Y-122100000D01*
X85500500Y-121795398D01*
X85518806Y-121751204D01*
X85563000Y-121732898D01*
X85607194Y-121751204D01*
X85611313Y-121755749D01*
X85655456Y-121809538D01*
X85655457Y-121809539D01*
X85655459Y-121809541D01*
X85804302Y-121931694D01*
X85804304Y-121931695D01*
X85804307Y-121931697D01*
X85848491Y-121955313D01*
X85974117Y-122022462D01*
X86158376Y-122078357D01*
X86350000Y-122097230D01*
X86541624Y-122078357D01*
X86725883Y-122022462D01*
X86895698Y-121931694D01*
X87044541Y-121809541D01*
X87166694Y-121660698D01*
X87257462Y-121490883D01*
X87313357Y-121306624D01*
X87332230Y-121115000D01*
X87313357Y-120923376D01*
X87257462Y-120739117D01*
X87179289Y-120592866D01*
X87166697Y-120569307D01*
X87166693Y-120569301D01*
X87044541Y-120420459D01*
X86895698Y-120298306D01*
X86895692Y-120298302D01*
X86788695Y-120241112D01*
X86725883Y-120207538D01*
X86608111Y-120171811D01*
X86541622Y-120151642D01*
X86350000Y-120132770D01*
X86158377Y-120151642D01*
X86040604Y-120187369D01*
X85974117Y-120207538D01*
X85974115Y-120207538D01*
X85974115Y-120207539D01*
X85804307Y-120298302D01*
X85804301Y-120298306D01*
X85655459Y-120420459D01*
X85611313Y-120474251D01*
X85569126Y-120496800D01*
X85523350Y-120482914D01*
X85500801Y-120440727D01*
X85500500Y-120434601D01*
X85500500Y-119615000D01*
X85518806Y-119570806D01*
X85563000Y-119552500D01*
X87212557Y-119552500D01*
X87212558Y-119552500D01*
X87249748Y-119545102D01*
X87291922Y-119516922D01*
X87320102Y-119474748D01*
X87327500Y-119437558D01*
X87327500Y-117712442D01*
X87320102Y-117675252D01*
X87320101Y-117675250D01*
X87291922Y-117633077D01*
X87249748Y-117604898D01*
X87249747Y-117604898D01*
X87212558Y-117597500D01*
X87212557Y-117597500D01*
X85563000Y-117597500D01*
X85518806Y-117579194D01*
X85500500Y-117535000D01*
X85500500Y-112951387D01*
X85518806Y-112907193D01*
X85563000Y-112888887D01*
X85607192Y-112907192D01*
G37*
%TD.AperFunction*%
%TD*%
M02*
